<svg xmlns="http://www.w3.org/2000/svg" viewBox="0 0 447.67 141.73"><defs><style>.cls-1{fill:#231f20;}</style></defs><g id="Layer_2" data-name="Layer 2"><g id="Layer_1-2" data-name="Layer 1"><path class="cls-1" d="M429.48,47.19,414.9,78.7h9.32l1.6-3.61h10.92l1.6,3.61h9.33L433.09,47.19Zm-.93,21,2.52-6.8h.42l2.52,6.8Z"/><path class="cls-1" d="M334,0H200l22.32,47.21h9.5l8,17.18,8-17.18h9.57L243,78.72h-5.78l29.79,63,30.32-64.12a18.73,18.73,0,0,1-8.1,1.79c-8.9,0-16.88-7.09-16.88-16.46s8-16.46,16.88-16.46a17.47,17.47,0,0,1,14.7,7.44l-7.14,4.36a8.41,8.41,0,0,0-7.14-3.65,8.32,8.32,0,0,0,0,16.63,8.4,8.4,0,0,0,7.14-3.66l4.09,2.51,7.18-15.19h6.15V78.69h8.57V54.92h8.61V47.2H311.7ZM268.35,78.69h-8.57V47.2h8.57Z"/><path class="cls-1" d="M350.27,46.48c-9.36,0-17.46,7.1-17.46,16.46s8.1,16.46,17.46,16.46,17.47-7.09,17.47-16.46S359.64,46.48,350.27,46.48Zm0,24.78a8.32,8.32,0,1,1,8.32-8.32A8.34,8.34,0,0,1,350.27,71.26Z"/><path class="cls-1" d="M397.93,58.66c0-6.59-5.25-11.46-11.88-11.46H371.73V78.69h8.57V70.12h4l3.9,8.57h9.62l-5.33-10.58C395.54,66,397.93,62.9,397.93,58.66ZM385.76,62.4H380.3V54.92h5.46c1.93,0,3.19,2.19,3.19,3.74S387.69,62.4,385.76,62.4Z"/><rect class="cls-1" x="402.13" y="47.2" width="8.57" height="31.49"/><path class="cls-1" d="M30.92,54.11l-7,4.27a8.24,8.24,0,0,0-7-3.57,8.14,8.14,0,0,0,0,16.28,8.22,8.22,0,0,0,7-3.58l7,4.28a17.08,17.08,0,0,1-14.39,7.28C7.81,79.07,0,72.12,0,63S7.81,46.83,16.53,46.83A17.08,17.08,0,0,1,30.92,54.11Z"/><path class="cls-1" d="M54.69,68l5.22,10.36H50.5L46.67,70h-4v8.39H34.33V47.53h14C54.85,47.53,60,52.3,60,58.75,60,62.91,57.65,66,54.69,68ZM48.07,55.09H42.72v7.32h5.35c1.89,0,3.13-2.13,3.13-3.66S50,55.09,48.07,55.09Z"/><path class="cls-1" d="M87.3,70.8v7.57H64.15V47.53H87.3v7.56H72.54v4.16H83.23v7.4H72.54V70.8Z"/><path class="cls-1" d="M121.92,78.37h-9.13l-1.56-3.54H100.54L99,78.37H89.85l14.27-30.84h3.53ZM108.56,68.05l-2.47-6.66h-.41l-2.47,6.66Z"/><path class="cls-1" d="M135.12,55.09V78.37h-8.39V55.09H118.3V47.53h25.25v7.56Z"/><path class="cls-1" d="M146.55,47.53h8.39V78.37h-8.39Z"/><path class="cls-1" d="M157.82,47.53h9.37L175,64.35l7.81-16.82h9.38L178.13,78.37h-6.25Z"/><path class="cls-1" d="M217.94,70.8v7.57H194.79V47.53h23.15v7.56H203.17v4.16h10.7v7.4h-10.7V70.8Z"/></g></g></svg>