<?xml version="1.0" encoding="UTF-8"?><svg xmlns="http://www.w3.org/2000/svg" viewBox="0 0 1390.41 1390.41"><defs><style>.d{fill:none;}</style></defs><g id="a"/><g id="b"><g id="c"><g><rect class="d" width="1390.41" height="1390.41"/><g><g><path d="M447.53,565.4l.25-.44c.96-1.68,3.1-2.25,4.78-1.29,1.68,.96,2.25,3.1,1.29,4.78l-.25,.44c-.96,1.68-3.1,2.25-4.78,1.29-.84-.48-1.4-1.26-1.63-2.12-.23-.86-.14-1.82,.35-2.66Zm9.08,21.05c0-1.93,1.57-3.5,3.51-3.49h.5c1.93,0,3.5,1.57,3.5,3.5,0,1.93-1.57,3.5-3.5,3.5h-.51c-1.61,0-2.97-1.1-3.37-2.59-.08-.29-.12-.6-.12-.92Zm1.7-39.79l.25-.44c.96-1.68,3.1-2.25,4.78-1.29,1.68,.96,2.25,3.1,1.29,4.78l-.25,.44c-.96,1.68-3.1,2.25-4.78,1.29-.84-.48-1.4-1.26-1.63-2.12s-.14-1.82,.35-2.66Zm20.03,39.79c0-1.93,1.55-3.51,3.48-3.51h.51c1.93,0,3.5,1.56,3.51,3.49,0,1.93-1.56,3.5-3.5,3.51h-.49c-1.62,0-2.99-1.09-3.39-2.59-.08-.29-.12-.59-.12-.9Zm-9.25-58.52l.25-.44c.96-1.68,3.1-2.25,4.78-1.29,1.68,.96,2.25,3.1,1.29,4.78l-.25,.44c-.96,1.68-3.1,2.25-4.78,1.29-.84-.48-1.4-1.26-1.63-2.12s-.14-1.82,.35-2.66Zm10.78-18.73l.25-.44c.96-1.68,3.1-2.25,4.78-1.29,1.68,.96,2.25,3.1,1.29,4.78l-.25,.44c-.96,1.68-3.1,2.25-4.78,1.29-.84-.48-1.4-1.26-1.63-2.12s-.14-1.82,.35-2.66Zm20.18,77.21c0-1.93,1.57-3.5,3.5-3.5h.5c1.93,0,3.5,1.56,3.51,3.49,0,1.93-1.56,3.5-3.5,3.51h-.51c-1.62,0-2.98-1.1-3.38-2.59-.08-.29-.12-.6-.12-.91Zm-9.4-95.95l.25-.44c.96-1.68,3.1-2.25,4.78-1.29,1.68,.96,2.25,3.1,1.29,4.78l-.25,.44c-.96,1.68-3.1,2.25-4.78,1.29-.84-.48-1.4-1.26-1.63-2.12s-.14-1.82,.35-2.66Zm31.1,95.92c0-1.93,1.57-3.5,3.5-3.5h.5c1.93,0,3.5,1.56,3.51,3.49,0,1.93-1.56,3.5-3.5,3.51h-.51c-1.62,0-2.98-1.1-3.38-2.59-.08-.29-.12-.6-.12-.91Zm-20.32-114.65l.25-.44c.96-1.68,3.1-2.25,4.78-1.29,1.68,.96,2.25,3.1,1.29,4.78l-.25,.44c-.96,1.68-3.1,2.25-4.78,1.29-.84-.48-1.4-1.26-1.63-2.12-.23-.86-.14-1.82,.35-2.66Zm42.01,114.63c0-1.93,1.56-3.5,3.5-3.51h.5c1.93,0,3.5,1.56,3.51,3.49,0,1.93-1.56,3.5-3.5,3.51h-.5c-1.62,0-2.98-1.09-3.38-2.59-.08-.29-.12-.59-.12-.91Zm-31.23-133.36l.25-.44c.96-1.68,3.1-2.25,4.78-1.29,1.68,.96,2.25,3.1,1.29,4.78l-.25,.44c-.96,1.68-3.1,2.25-4.78,1.29-.84-.48-1.4-1.26-1.63-2.12-.23-.86-.14-1.82,.35-2.66Zm10.78-18.73l.25-.44c.96-1.68,3.1-2.25,4.78-1.29,1.68,.96,2.25,3.1,1.29,4.78l-.25,.44c-.96,1.68-3.1,2.25-4.78,1.29-.84-.48-1.4-1.26-1.63-2.12-.23-.86-.14-1.82,.35-2.66Zm42.13,152.07c0-1.93,1.56-3.5,3.5-3.51h.5c1.93,0,3.5,1.57,3.5,3.49,0,1.93-1.56,3.5-3.5,3.51h-.5c-1.62,0-2.98-1.09-3.38-2.59-.08-.29-.12-.59-.12-.91Zm-31.35-170.8l.25-.44c.96-1.68,3.1-2.25,4.78-1.29,1.68,.96,2.25,3.1,1.29,4.78l-.25,.44c-.96,1.68-3.1,2.25-4.78,1.29-.84-.48-1.4-1.26-1.63-2.12s-.14-1.82,.35-2.66Zm53.02,170.76c0-1.93,1.57-3.5,3.5-3.5h.5c1.93,0,3.5,1.56,3.51,3.49,0,1.93-1.56,3.5-3.5,3.51h-.51c-1.62,0-2.98-1.1-3.38-2.59-.08-.29-.12-.6-.12-.91Zm-42.24-189.5l.25-.44c.96-1.68,3.1-2.25,4.78-1.29,1.68,.96,2.25,3.1,1.29,4.78l-.25,.44c-.96,1.68-3.1,2.25-4.78,1.29-.84-.48-1.4-1.26-1.63-2.12s-.14-1.82,.35-2.66Zm63.91,189.47c0-1.93,1.57-3.5,3.5-3.5h.5c1.93,0,3.5,1.56,3.51,3.49,0,1.93-1.56,3.5-3.5,3.51h-.51c-1.62,0-2.98-1.1-3.38-2.59-.08-.29-.12-.6-.12-.91Zm-53.14-208.2l.25-.44c.96-1.68,3.1-2.25,4.78-1.29,1.68,.96,2.25,3.1,1.29,4.78l-.25,.44c-.96,1.68-3.1,2.25-4.78,1.29-.84-.48-1.4-1.26-1.63-2.12s-.14-1.82,.35-2.66Zm10.78-18.74l.25-.44c.96-1.68,3.1-2.25,4.78-1.29,1.68,.96,2.25,3.1,1.29,4.78l-.25,.44c-.96,1.68-3.1,2.25-4.78,1.29-.84-.48-1.4-1.26-1.63-2.12s-.14-1.82,.35-2.66Zm64.02,226.92c0-1.93,1.56-3.5,3.49-3.51h.51c1.93,0,3.5,1.56,3.51,3.49,0,1.93-1.56,3.5-3.5,3.51h-.5c-1.62,0-2.99-1.09-3.39-2.59-.08-.29-.12-.59-.12-.9Zm-53.24-245.65l.25-.44c.96-1.68,3.1-2.25,4.78-1.29,1.68,.96,2.25,3.1,1.29,4.78l-.25,.44c-.96,1.68-3.1,2.25-4.78,1.29-.84-.48-1.4-1.26-1.63-2.12s-.14-1.82,.35-2.66Zm74.91,245.62c0-1.93,1.56-3.5,3.49-3.51h.51c1.93,0,3.5,1.56,3.51,3.49,0,1.93-1.56,3.5-3.5,3.51h-.5c-1.62,0-2.99-1.09-3.39-2.59-.08-.29-.12-.59-.12-.9Zm-64.13-264.35l.25-.44c.96-1.68,3.1-2.25,4.78-1.29,1.68,.96,2.25,3.1,1.29,4.78l-.25,.44c-.96,1.68-3.1,2.25-4.78,1.29-.84-.48-1.4-1.26-1.63-2.12s-.14-1.82,.35-2.66Zm85.8,264.32c0-1.93,1.56-3.5,3.49-3.51h.51c1.93,0,3.5,1.56,3.51,3.49,0,1.93-1.56,3.5-3.5,3.51h-.5c-1.62,0-2.99-1.09-3.39-2.59-.08-.29-.12-.59-.12-.9Zm-75.02-283.05l.25-.44c.96-1.68,3.1-2.25,4.78-1.29,1.68,.96,2.25,3.1,1.29,4.78l-.25,.44c-.96,1.68-3.1,2.25-4.78,1.29-.84-.48-1.4-1.26-1.63-2.12s-.14-1.82,.35-2.66Zm10.78-18.73l.25-.44c.96-1.68,3.1-2.25,4.78-1.29,1.68,.96,2.25,3.1,1.29,4.78l-.25,.44c-.96,1.68-3.1,2.25-4.78,1.29-.84-.48-1.4-1.26-1.63-2.12s-.14-1.82,.35-2.66Zm82.9,301.76c0-1.93,1.56-3.5,3.49-3.51h.51c1.93,0,3.5,1.56,3.51,3.49,0,1.93-1.56,3.5-3.5,3.51h-.5c-1.62,0-2.99-1.09-3.39-2.59-.08-.29-.12-.59-.12-.9Zm-72.13-320.49l.25-.44c.96-1.68,3.1-2.25,4.78-1.29,1.68,.96,2.25,3.1,1.29,4.78l-.25,.44c-.96,1.68-3.1,2.25-4.78,1.29-.84-.48-1.4-1.26-1.63-2.12s-.14-1.82,.35-2.66Zm94.8,320.45c0-1.93,1.56-3.5,3.5-3.51h.5c1.93,0,3.5,1.56,3.51,3.49,0,1.93-1.56,3.5-3.5,3.51h-.5c-1.62,0-2.98-1.09-3.38-2.59-.08-.29-.12-.59-.12-.91Zm-84.02-339.19l.25-.44c.96-1.68,3.1-2.25,4.78-1.29,1.68,.96,2.25,3.1,1.29,4.78l-.25,.44c-.96,1.68-3.1,2.25-4.78,1.29-.84-.48-1.4-1.26-1.63-2.12s-.14-1.82,.35-2.66Zm10.78-18.73l.25-.44c.96-1.68,3.1-2.26,4.78-1.29,1.68,.96,2.25,3.1,1.29,4.78l-.25,.44c-.96,1.68-3.1,2.26-4.78,1.29-.84-.48-1.4-1.26-1.64-2.13s-.14-1.82,.34-2.65Zm96.91,357.89c0-1.93,1.56-3.5,3.49-3.51h.51c1.93,0,3.5,1.56,3.51,3.49,0,1.93-1.56,3.5-3.5,3.51h-.5c-1.62,0-2.99-1.09-3.39-2.59-.08-.29-.12-.59-.12-.9Zm-86.13-376.63l.25-.44c.96-1.68,3.1-2.25,4.78-1.29,1.68,.96,2.25,3.1,1.29,4.78l-.25,.44c-.96,1.68-3.1,2.25-4.78,1.29-.84-.48-1.4-1.26-1.63-2.12s-.14-1.82,.35-2.66Zm107.8,376.6c0-1.93,1.56-3.5,3.49-3.51h.51c1.93,0,3.5,1.56,3.51,3.49,0,1.93-1.56,3.5-3.5,3.51h-.5c-1.62,0-2.99-1.09-3.39-2.59-.08-.29-.12-.59-.12-.9Zm-97.02-395.33l.25-.44c.96-1.68,3.1-2.25,4.78-1.29,1.68,.96,2.25,3.1,1.29,4.78l-.25,.44c-.96,1.68-3.1,2.25-4.78,1.29-.84-.48-1.4-1.26-1.63-2.12s-.14-1.82,.35-2.66Zm118.69,395.3c0-1.93,1.56-3.5,3.49-3.51h.51c1.93,0,3.5,1.56,3.51,3.49,0,1.93-1.56,3.5-3.5,3.51h-.5c-1.62,0-2.99-1.09-3.39-2.59-.08-.29-.12-.59-.12-.9Zm-107.91-414.03l.25-.44c.96-1.68,3.1-2.25,4.78-1.29,1.68,.96,2.25,3.1,1.29,4.78l-.25,.44c-.96,1.68-3.1,2.25-4.78,1.29-.84-.48-1.4-1.26-1.63-2.12s-.14-1.82,.35-2.66Zm10.78-18.74l.25-.44c.96-1.68,3.1-2.25,4.78-1.29,1.68,.96,2.25,3.1,1.29,4.78l-.25,.44c-.96,1.68-3.1,2.25-4.78,1.29-.84-.48-1.4-1.26-1.63-2.12-.23-.86-.14-1.82,.35-2.66Zm140.48,432.7c0-1.93,1.56-3.5,3.49-3.51h.51c1.93,0,3.5,1.56,3.51,3.49,0,1.93-1.56,3.5-3.5,3.51h-.5c-1.62,0-2.99-1.09-3.39-2.59-.08-.29-.12-.59-.12-.9Zm-104.51-412.62c1.67-.97,3.81-.39,4.78,1.28l.24,.42c.97,1.67,.41,3.81-1.26,4.79-1.67,.97-3.81,.41-4.79-1.26l-.26-.45c-.16-.27-.27-.55-.35-.84-.4-1.49,.23-3.13,1.63-3.94Zm10.89,18.78c1.67-.97,3.81-.39,4.78,1.29l.24,.42c.98,1.67,.41,3.81-1.26,4.79-1.67,.97-3.81,.41-4.79-1.26l-.26-.45c-.16-.27-.27-.55-.35-.84-.4-1.5,.23-3.13,1.63-3.94Zm10.88,18.77c1.67-.97,3.81-.39,4.78,1.29l.24,.42c.97,1.67,.41,3.81-1.26,4.79-1.67,.97-3.81,.41-4.79-1.26l-.26-.45c-.16-.27-.27-.55-.35-.84-.4-1.5,.23-3.13,1.63-3.94Zm10.87,18.76c1.67-.97,3.81-.39,4.78,1.29l.24,.41c.98,1.67,.42,3.81-1.25,4.79-1.67,.98-3.81,.42-4.79-1.25l-.26-.46c-.16-.27-.27-.55-.35-.84-.4-1.5,.23-3.13,1.63-3.94Zm93.55,356.27c0-1.93,1.56-3.5,3.49-3.51h.51c1.93,0,3.5,1.56,3.51,3.49,0,1.93-1.56,3.5-3.5,3.51h-.5c-1.62,0-2.99-1.09-3.39-2.59-.08-.29-.12-.59-.12-.9Zm-82.68-337.51c1.67-.97,3.81-.39,4.78,1.29l.24,.41c.98,1.67,.42,3.81-1.25,4.79-1.67,.98-3.81,.42-4.79-1.25l-.26-.46c-.16-.27-.27-.55-.35-.84-.4-1.5,.23-3.13,1.63-3.94Zm10.87,18.75c1.67-.97,3.81-.39,4.78,1.29l.24,.41c.98,1.67,.42,3.81-1.25,4.79s-3.81,.42-4.79-1.25l-.26-.46c-.16-.27-.27-.55-.35-.84-.4-1.5,.23-3.13,1.63-3.94Zm10.87,18.75c1.67-.97,3.81-.39,4.78,1.29l.24,.41c.98,1.67,.42,3.81-1.25,4.79-1.67,.98-3.81,.42-4.79-1.25l-.26-.46c-.16-.27-.27-.55-.35-.84-.4-1.5,.23-3.13,1.63-3.94Zm82.63,299.97c0-1.93,1.55-3.51,3.48-3.51h.51c1.93,0,3.5,1.56,3.5,3.49,0,1.93-1.56,3.5-3.5,3.51h-.49c-1.62,0-2.99-1.09-3.39-2.59-.08-.29-.12-.59-.12-.9Zm-71.77-281.22c1.67-.97,3.81-.39,4.78,1.29l.24,.41c.98,1.67,.42,3.81-1.25,4.79-1.67,.98-3.81,.42-4.79-1.25l-.26-.46c-.16-.27-.27-.55-.35-.84-.4-1.5,.23-3.13,1.63-3.94Zm10.86,18.75c1.67-.97,3.81-.39,4.78,1.29l.24,.41c.98,1.67,.42,3.81-1.25,4.79s-3.81,.42-4.79-1.25l-.26-.46c-.16-.27-.27-.55-.35-.84-.4-1.5,.23-3.13,1.63-3.94Zm10.86,18.75c1.67-.97,3.81-.39,4.78,1.29l.24,.42c.97,1.67,.41,3.81-1.26,4.79-1.67,.97-3.81,.41-4.79-1.26l-.26-.45c-.16-.27-.27-.55-.35-.84-.4-1.5,.23-3.13,1.63-3.94Zm10.87,18.76c1.67-.97,3.81-.39,4.78,1.29l.24,.41c.98,1.67,.42,3.81-1.25,4.79-1.67,.98-3.81,.42-4.79-1.25l-.26-.46c-.16-.27-.27-.55-.35-.84-.4-1.5,.23-3.13,1.63-3.94Zm60.87,224.94c0-1.93,1.55-3.51,3.48-3.51h.51c1.93,0,3.5,1.56,3.5,3.49,0,1.93-1.56,3.5-3.5,3.51h-.49c-1.62,0-2.99-1.09-3.39-2.59-.08-.29-.12-.59-.12-.9Zm-50.01-206.19c1.67-.97,3.81-.39,4.78,1.29l.24,.41c.98,1.67,.42,3.81-1.25,4.79-1.67,.98-3.81,.42-4.79-1.25l-.26-.46c-.16-.27-.27-.55-.35-.84-.4-1.5,.23-3.13,1.63-3.94Zm10.86,18.75c1.67-.96,3.81-.39,4.78,1.29l.24,.42c.97,1.67,.41,3.81-1.26,4.79-1.67,.97-3.81,.41-4.79-1.26l-.26-.45c-.16-.27-.27-.55-.35-.84-.4-1.5,.23-3.13,1.63-3.94Zm10.86,18.75c1.67-.96,3.81-.39,4.78,1.29l.24,.42c.98,1.67,.41,3.81-1.26,4.79-1.67,.98-3.81,.41-4.79-1.26l-.26-.45c-.16-.27-.27-.55-.35-.84-.4-1.5,.23-3.13,1.63-3.94Zm10.86,18.75c1.67-.96,3.81-.39,4.78,1.29l.24,.42c.98,1.67,.41,3.81-1.26,4.79-1.67,.98-3.81,.41-4.79-1.26l-.26-.45c-.16-.27-.27-.55-.35-.84-.4-1.5,.23-3.13,1.63-3.94Zm39.13,149.9c0-1.93,1.56-3.5,3.5-3.51h.51c1.93,0,3.5,1.56,3.5,3.5,0,1.93-1.57,3.5-3.5,3.5h-.5c-1.62,0-2.98-1.09-3.38-2.59-.08-.29-.12-.59-.12-.91Zm-28.27-131.15c1.67-.96,3.81-.39,4.78,1.29l.24,.42c.98,1.67,.41,3.81-1.26,4.79-1.67,.98-3.81,.41-4.79-1.26l-.26-.45c-.16-.27-.27-.55-.35-.84-.4-1.5,.23-3.13,1.63-3.94Zm10.86,18.76c1.67-.96,3.81-.39,4.78,1.29l.24,.41c.98,1.67,.41,3.81-1.25,4.79-1.67,.98-3.81,.42-4.79-1.25l-.26-.46c-.16-.27-.27-.55-.35-.84-.4-1.5,.23-3.13,1.63-3.94Zm10.87,18.76c1.67-.96,3.81-.39,4.78,1.29l.24,.41c.98,1.67,.41,3.81-1.25,4.79-1.67,.98-3.81,.42-4.79-1.25l-.26-.46c-.16-.27-.27-.55-.35-.84-.4-1.5,.23-3.13,1.63-3.94Zm28.27,93.6c0-1.93,1.56-3.5,3.49-3.51h.5c1.93,0,3.5,1.56,3.51,3.49,0,1.93-1.56,3.5-3.49,3.51h-.5c-1.62,0-2.99-1.09-3.39-2.59-.08-.29-.12-.59-.12-.9Zm-17.4-74.84c1.67-.96,3.81-.39,4.78,1.29l.24,.42c.98,1.67,.41,3.81-1.26,4.79-1.67,.98-3.81,.41-4.79-1.26l-.26-.45c-.16-.27-.27-.55-.35-.84-.4-1.5,.23-3.13,1.63-3.94Zm10.87,18.78c1.67-.96,3.81-.39,4.78,1.29l.24,.41c.97,1.67,.41,3.81-1.25,4.79-1.67,.98-3.81,.42-4.79-1.25l-.26-.46c-.16-.27-.27-.55-.35-.84-.4-1.5,.23-3.13,1.63-3.94Zm10.88,18.79c1.67-.96,3.81-.39,4.78,1.29l.24,.41c.98,1.67,.42,3.81-1.25,4.79-1.67,.98-3.81,.42-4.79-1.25l-.26-.46c-.16-.27-.27-.55-.35-.84-.4-1.5,.23-3.13,1.63-3.94Zm10.88,18.82c1.67-.97,3.81-.4,4.78,1.27l.25,.44c.97,1.67,.4,3.81-1.28,4.78-1.67,.97-3.81,.4-4.78-1.28l-.25-.43c-.16-.27-.28-.56-.35-.85-.4-1.49,.22-3.12,1.62-3.94Zm-238.96-412.5c1.67-.97,3.81-.39,4.78,1.28l.24,.42c.97,1.67,.41,3.81-1.26,4.79-1.67,.97-3.81,.41-4.79-1.26l-.26-.45c-.16-.27-.27-.55-.35-.84-.4-1.49,.23-3.13,1.63-3.94Z"/><path d="M946.8,825.2l-.25,.44c-.96,1.68-3.1,2.25-4.78,1.29-1.68-.96-2.25-3.1-1.29-4.78l.25-.44c.96-1.68,3.1-2.25,4.78-1.29,.84,.48,1.4,1.26,1.63,2.12s.14,1.82-.35,2.66Zm-9.08-21.05c0,1.93-1.57,3.5-3.51,3.49h-.5c-1.93,0-3.5-1.57-3.5-3.5,0-1.93,1.57-3.5,3.5-3.5h.51c1.61,0,2.97,1.1,3.37,2.59,.08,.29,.12,.6,.12,.92Zm-1.7,39.79l-.25,.44c-.96,1.68-3.1,2.25-4.78,1.29-1.68-.96-2.25-3.1-1.29-4.78l.25-.44c.96-1.68,3.1-2.25,4.78-1.29,.84,.48,1.4,1.26,1.63,2.12s.14,1.82-.35,2.66Zm-20.03-39.79c0,1.93-1.55,3.51-3.48,3.51h-.51c-1.93,0-3.5-1.56-3.51-3.49,0-1.93,1.56-3.5,3.5-3.51h.49c1.62,0,2.99,1.09,3.39,2.59,.08,.29,.12,.59,.12,.9Zm9.25,58.52l-.25,.44c-.96,1.68-3.1,2.25-4.78,1.29-1.68-.96-2.25-3.1-1.29-4.78l.25-.44c.96-1.68,3.1-2.25,4.78-1.29,.84,.48,1.4,1.26,1.63,2.12s.14,1.82-.35,2.66Zm-10.78,18.73l-.25,.44c-.96,1.68-3.1,2.25-4.78,1.29-1.68-.96-2.25-3.1-1.29-4.78l.25-.44c.96-1.68,3.1-2.25,4.78-1.29,.84,.48,1.4,1.26,1.63,2.12s.14,1.82-.35,2.66Zm-20.18-77.21c0,1.93-1.57,3.5-3.5,3.5h-.5c-1.93,0-3.5-1.56-3.51-3.49,0-1.93,1.56-3.5,3.5-3.51h.51c1.62,0,2.98,1.1,3.38,2.59,.08,.29,.12,.6,.12,.91Zm9.4,95.95l-.25,.44c-.96,1.68-3.1,2.25-4.78,1.29-1.68-.96-2.25-3.1-1.29-4.78l.25-.44c.96-1.68,3.1-2.25,4.78-1.29,.84,.48,1.4,1.26,1.63,2.12s.14,1.82-.35,2.66Zm-31.1-95.92c0,1.93-1.57,3.5-3.5,3.5h-.5c-1.93,0-3.5-1.56-3.51-3.49,0-1.93,1.56-3.5,3.5-3.51h.51c1.62,0,2.98,1.1,3.38,2.59,.08,.29,.12,.6,.12,.91Zm20.32,114.65l-.25,.44c-.96,1.68-3.1,2.25-4.78,1.29-1.68-.96-2.25-3.1-1.29-4.78l.25-.44c.96-1.68,3.1-2.25,4.78-1.29,.84,.48,1.4,1.26,1.63,2.12,.23,.86,.14,1.82-.35,2.66Zm-42.01-114.63c0,1.93-1.56,3.5-3.5,3.51h-.5c-1.93,0-3.5-1.56-3.51-3.49,0-1.93,1.56-3.5,3.5-3.51h.5c1.62,0,2.98,1.09,3.38,2.59,.08,.29,.12,.59,.12,.91Zm31.23,133.36l-.25,.44c-.96,1.68-3.1,2.25-4.78,1.29-1.68-.96-2.25-3.1-1.29-4.78l.25-.44c.96-1.68,3.1-2.25,4.78-1.29,.84,.48,1.4,1.26,1.63,2.12,.23,.86,.14,1.82-.35,2.66Zm-10.78,18.73l-.25,.44c-.96,1.68-3.1,2.25-4.78,1.29-1.68-.96-2.25-3.1-1.29-4.78l.25-.44c.96-1.68,3.1-2.25,4.78-1.29,.84,.48,1.4,1.26,1.63,2.12s.14,1.82-.35,2.66Zm-42.13-152.07c0,1.93-1.56,3.5-3.5,3.51h-.5c-1.93,0-3.5-1.57-3.5-3.49,0-1.93,1.56-3.5,3.5-3.51h.5c1.62,0,2.98,1.09,3.38,2.59,.08,.29,.12,.59,.12,.91Zm31.35,170.8l-.25,.44c-.96,1.68-3.1,2.25-4.78,1.29-1.68-.96-2.25-3.1-1.29-4.78l.25-.44c.96-1.68,3.1-2.25,4.78-1.29,.84,.48,1.4,1.26,1.63,2.12s.14,1.82-.35,2.66Zm-53.02-170.76c0,1.93-1.57,3.5-3.5,3.5h-.5c-1.93,0-3.5-1.56-3.51-3.49,0-1.93,1.56-3.5,3.5-3.51h.51c1.62,0,2.98,1.1,3.38,2.59,.08,.29,.12,.6,.12,.91Zm42.24,189.5l-.25,.44c-.96,1.68-3.1,2.25-4.78,1.29-1.68-.96-2.25-3.1-1.29-4.78l.25-.44c.96-1.68,3.1-2.25,4.78-1.29,.84,.48,1.4,1.26,1.63,2.12s.14,1.82-.35,2.66Zm-63.91-189.47c0,1.93-1.57,3.5-3.5,3.5h-.5c-1.93,0-3.5-1.56-3.51-3.49,0-1.93,1.56-3.5,3.5-3.51h.51c1.62,0,2.98,1.1,3.38,2.59,.08,.29,.12,.6,.12,.91Zm53.14,208.2l-.25,.44c-.96,1.68-3.1,2.25-4.78,1.29-1.68-.96-2.25-3.1-1.29-4.78l.25-.44c.96-1.68,3.1-2.25,4.78-1.29,.84,.48,1.4,1.26,1.63,2.12s.14,1.82-.35,2.66Zm-10.78,18.74l-.25,.44c-.96,1.68-3.1,2.25-4.78,1.29-1.68-.96-2.25-3.1-1.29-4.78l.25-.44c.96-1.68,3.1-2.25,4.78-1.29,.84,.48,1.4,1.26,1.63,2.12s.14,1.82-.35,2.66Zm-64.02-226.92c0,1.93-1.56,3.5-3.49,3.51h-.51c-1.93,0-3.5-1.56-3.51-3.49,0-1.93,1.56-3.5,3.5-3.51h.5c1.62,0,2.99,1.09,3.39,2.59,.08,.29,.12,.59,.12,.9Zm53.24,245.65l-.25,.44c-.96,1.68-3.1,2.25-4.78,1.29-1.68-.96-2.25-3.1-1.29-4.78l.25-.44c.96-1.68,3.1-2.25,4.78-1.29,.84,.48,1.4,1.26,1.63,2.12,.23,.86,.14,1.82-.35,2.66Zm-74.91-245.62c0,1.93-1.56,3.5-3.49,3.51h-.51c-1.93,0-3.5-1.56-3.51-3.49,0-1.93,1.56-3.5,3.5-3.51h.5c1.62,0,2.99,1.09,3.39,2.59,.08,.29,.12,.59,.12,.9Zm64.13,264.35l-.25,.44c-.96,1.68-3.1,2.25-4.78,1.29-1.68-.96-2.25-3.1-1.29-4.78l.25-.44c.96-1.68,3.1-2.25,4.78-1.29,.84,.48,1.4,1.26,1.63,2.12s.14,1.82-.35,2.66Zm-85.8-264.32c0,1.93-1.56,3.5-3.49,3.51h-.51c-1.93,0-3.5-1.56-3.51-3.49,0-1.93,1.56-3.5,3.5-3.51h.5c1.62,0,2.99,1.09,3.39,2.59,.08,.29,.12,.59,.12,.9Zm75.02,283.05l-.25,.44c-.96,1.68-3.1,2.25-4.78,1.29-1.68-.96-2.25-3.1-1.29-4.78l.25-.44c.96-1.68,3.1-2.25,4.78-1.29,.84,.48,1.4,1.26,1.63,2.12,.23,.86,.14,1.82-.35,2.66Zm-10.78,18.73l-.25,.44c-.96,1.68-3.1,2.25-4.78,1.29-1.68-.96-2.25-3.1-1.29-4.78l.25-.44c.96-1.68,3.1-2.25,4.78-1.29,.84,.48,1.4,1.26,1.63,2.12s.14,1.82-.35,2.66Zm-85.9-301.76c0,1.93-1.56,3.5-3.49,3.51h-.51c-1.93,0-3.5-1.56-3.51-3.49,0-1.93,1.56-3.5,3.5-3.51h.5c1.62,0,2.99,1.09,3.39,2.59,.08,.29,.12,.59,.12,.9Zm75.13,320.49l-.25,.44c-.96,1.68-3.1,2.25-4.78,1.29-1.68-.96-2.25-3.1-1.29-4.78l.25-.44c.96-1.68,3.1-2.25,4.78-1.29,.84,.48,1.4,1.26,1.63,2.12s.14,1.82-.35,2.66Zm-96.8-320.45c0,1.93-1.56,3.5-3.5,3.51h-.5c-1.93,0-3.5-1.56-3.51-3.49,0-1.93,1.56-3.5,3.5-3.51h.5c1.62,0,2.98,1.09,3.38,2.59,.08,.29,.12,.59,.12,.91Zm86.02,339.19l-.25,.44c-.96,1.68-3.1,2.25-4.78,1.29-1.68-.96-2.25-3.1-1.29-4.78l.25-.44c.96-1.68,3.1-2.25,4.78-1.29,.84,.48,1.4,1.26,1.63,2.12s.14,1.82-.35,2.66Zm-10.78,18.73l-.25,.44c-.96,1.68-3.1,2.26-4.78,1.29-1.68-.96-2.25-3.1-1.29-4.78l.25-.44c.96-1.68,3.1-2.26,4.78-1.29,.84,.48,1.4,1.26,1.64,2.13s.14,1.82-.34,2.65Zm-96.91-357.89c0,1.93-1.56,3.5-3.49,3.51h-.51c-1.93,0-3.5-1.56-3.51-3.49,0-1.93,1.56-3.5,3.5-3.51h.5c1.62,0,2.99,1.09,3.39,2.59,.08,.29,.12,.59,.12,.9Zm86.13,376.63l-.25,.44c-.96,1.68-3.1,2.25-4.78,1.29-1.68-.96-2.25-3.1-1.29-4.78l.25-.44c.96-1.68,3.1-2.25,4.78-1.29,.84,.48,1.4,1.26,1.63,2.12s.14,1.82-.35,2.66Zm-107.8-376.6c0,1.93-1.56,3.5-3.49,3.51h-.51c-1.93,0-3.5-1.56-3.51-3.49,0-1.93,1.56-3.5,3.5-3.51h.5c1.62,0,2.99,1.09,3.39,2.59,.08,.29,.12,.59,.12,.9Zm97.02,395.33l-.25,.44c-.96,1.68-3.1,2.25-4.78,1.29-1.68-.96-2.25-3.1-1.29-4.78l.25-.44c.96-1.68,3.1-2.25,4.78-1.29,.84,.48,1.4,1.26,1.63,2.12s.14,1.82-.35,2.66Zm-118.69-395.3c0,1.93-1.56,3.5-3.49,3.51h-.51c-1.93,0-3.5-1.56-3.51-3.49,0-1.93,1.56-3.5,3.5-3.51h.5c1.62,0,2.99,1.09,3.39,2.59,.08,.29,.12,.59,.12,.9Zm107.91,414.03l-.25,.44c-.96,1.68-3.1,2.25-4.78,1.29-1.68-.96-2.25-3.1-1.29-4.78l.25-.44c.96-1.68,3.1-2.25,4.78-1.29,.84,.48,1.4,1.26,1.63,2.12s.14,1.82-.35,2.66Zm-10.78,18.74l-.25,.44c-.96,1.68-3.1,2.25-4.78,1.29-1.68-.96-2.25-3.1-1.29-4.78l.25-.44c.96-1.68,3.1-2.25,4.78-1.29,.84,.48,1.4,1.26,1.63,2.12,.23,.86,.14,1.82-.35,2.66Zm-118.8-432.73c0,1.93-1.56,3.5-3.49,3.51h-.51c-1.93,0-3.5-1.57-3.51-3.49,0-1.93,1.56-3.5,3.5-3.51h.5c1.62,0,2.99,1.09,3.39,2.59,.08,.29,.12,.59,.12,.9Zm106.46,448.55c-.85,1.74-2.95,2.45-4.68,1.6-.33-.16-.64-.35-.94-.56-1.57-1.13-1.93-3.32-.8-4.88,1.12-1.56,3.28-1.92,4.85-.82,.92,.46,1.55,1.29,1.8,2.22,.21,.79,.15,1.66-.24,2.45Zm-23.63-35.89c-1.67,.97-3.81,.39-4.78-1.28l-.24-.42c-.97-1.67-.41-3.81,1.26-4.79,1.67-.97,3.81-.41,4.79,1.26l.26,.45c.16,.27,.27,.55,.35,.84,.4,1.49-.23,3.13-1.63,3.94Zm-10.89-18.78c-1.67,.97-3.81,.39-4.78-1.29l-.24-.42c-.98-1.67-.41-3.81,1.26-4.79,1.67-.97,3.81-.41,4.79,1.26l.26,.45c.16,.27,.27,.55,.35,.84,.4,1.5-.23,3.13-1.63,3.94Zm-10.88-18.77c-1.67,.97-3.81,.39-4.78-1.29l-.24-.42c-.97-1.67-.41-3.81,1.26-4.79,1.67-.97,3.81-.41,4.79,1.26l.26,.45c.16,.27,.27,.55,.35,.84,.4,1.5-.23,3.13-1.63,3.94Zm-10.87-18.76c-1.67,.97-3.81,.39-4.78-1.29l-.24-.41c-.98-1.67-.42-3.81,1.25-4.79,1.67-.98,3.81-.42,4.79,1.25l.26,.46c.16,.27,.27,.55,.35,.84,.4,1.5-.23,3.13-1.63,3.94Zm-93.55-356.27c0,1.93-1.56,3.5-3.49,3.51h-.51c-1.93,0-3.5-1.56-3.51-3.49,0-1.93,1.56-3.5,3.5-3.51h.5c1.62,0,2.99,1.09,3.39,2.59,.08,.29,.12,.59,.12,.9Zm82.68,337.51c-1.67,.97-3.81,.39-4.78-1.29l-.24-.41c-.98-1.67-.42-3.81,1.25-4.79,1.67-.98,3.81-.42,4.79,1.25l.26,.46c.16,.27,.27,.55,.35,.84,.4,1.5-.23,3.13-1.63,3.94Zm-10.87-18.75c-1.67,.97-3.81,.39-4.78-1.29l-.24-.41c-.98-1.67-.42-3.81,1.25-4.79,1.67-.98,3.81-.42,4.79,1.25l.26,.46c.16,.27,.27,.55,.35,.84,.4,1.5-.23,3.13-1.63,3.94Zm-10.87-18.75c-1.67,.97-3.81,.39-4.78-1.29l-.24-.41c-.98-1.67-.42-3.81,1.25-4.79s3.81-.42,4.79,1.25l.26,.46c.16,.27,.27,.55,.35,.84,.4,1.5-.23,3.13-1.63,3.94Zm-82.63-299.97c0,1.93-1.55,3.51-3.48,3.51h-.51c-1.93,0-3.5-1.56-3.5-3.49,0-1.93,1.56-3.5,3.5-3.51h.49c1.62,0,2.99,1.09,3.39,2.59,.08,.29,.12,.59,.12,.9Zm71.77,281.22c-1.67,.97-3.81,.39-4.78-1.29l-.24-.41c-.98-1.67-.42-3.81,1.25-4.79,1.67-.98,3.81-.42,4.79,1.25l.26,.46c.16,.27,.27,.55,.35,.84,.4,1.5-.23,3.13-1.63,3.94Zm-10.86-18.75c-1.67,.97-3.81,.39-4.78-1.29l-.24-.41c-.98-1.67-.42-3.81,1.25-4.79,1.67-.98,3.81-.42,4.79,1.25l.26,.46c.16,.27,.27,.55,.35,.84,.4,1.5-.23,3.13-1.63,3.94Zm-10.86-18.75c-1.67,.97-3.81,.39-4.78-1.29l-.24-.42c-.97-1.67-.41-3.81,1.26-4.79,1.67-.97,3.81-.41,4.79,1.26l.26,.45c.16,.27,.27,.55,.35,.84,.4,1.5-.23,3.13-1.63,3.94Zm-10.87-18.76c-1.67,.97-3.81,.39-4.78-1.29l-.24-.41c-.98-1.67-.42-3.81,1.25-4.79,1.67-.98,3.81-.42,4.79,1.25l.26,.46c.16,.27,.27,.55,.35,.84,.4,1.5-.23,3.13-1.63,3.94Zm-60.87-224.94c0,1.93-1.55,3.51-3.48,3.51h-.51c-1.93,0-3.5-1.56-3.5-3.49,0-1.93,1.56-3.5,3.5-3.51h.49c1.62,0,2.99,1.09,3.39,2.59,.08,.29,.12,.59,.12,.9Zm50.01,206.19c-1.67,.97-3.81,.39-4.78-1.29l-.24-.41c-.98-1.67-.42-3.81,1.25-4.79,1.67-.98,3.81-.42,4.79,1.25l.26,.46c.16,.27,.27,.55,.35,.84,.4,1.5-.23,3.13-1.63,3.94Zm-10.86-18.75c-1.67,.96-3.81,.39-4.78-1.29l-.24-.42c-.97-1.67-.41-3.81,1.26-4.79,1.67-.97,3.81-.41,4.79,1.26l.26,.45c.16,.27,.27,.55,.35,.84,.4,1.5-.23,3.13-1.63,3.94Zm-10.86-18.75c-1.67,.96-3.81,.39-4.78-1.29l-.24-.42c-.98-1.67-.41-3.81,1.26-4.79,1.67-.98,3.81-.41,4.79,1.26l.26,.45c.16,.27,.27,.55,.35,.84,.4,1.5-.23,3.13-1.63,3.94Zm-10.86-18.75c-1.67,.96-3.81,.39-4.78-1.29l-.24-.42c-.98-1.67-.41-3.81,1.26-4.79,1.67-.98,3.81-.41,4.79,1.26l.26,.45c.16,.27,.27,.55,.35,.84,.4,1.5-.23,3.13-1.63,3.94Zm-39.13-149.9c0,1.93-1.56,3.5-3.5,3.51h-.51c-1.93,0-3.5-1.56-3.5-3.5,0-1.93,1.57-3.5,3.5-3.5h.5c1.62,0,2.98,1.09,3.38,2.59,.08,.29,.12,.59,.12,.91Zm28.27,131.15c-1.67,.96-3.81,.39-4.78-1.29l-.24-.42c-.98-1.67-.41-3.81,1.26-4.79,1.67-.98,3.81-.41,4.79,1.26l.26,.45c.16,.27,.27,.55,.35,.84,.4,1.5-.23,3.13-1.63,3.94Zm-10.86-18.76c-1.67,.96-3.81,.39-4.78-1.29l-.24-.41c-.98-1.67-.41-3.81,1.25-4.79,1.67-.98,3.81-.42,4.79,1.25l.26,.46c.16,.27,.27,.55,.35,.84,.4,1.5-.23,3.13-1.63,3.94Zm-10.87-18.76c-1.67,.96-3.81,.39-4.78-1.29l-.24-.41c-.98-1.67-.41-3.81,1.25-4.79,1.67-.98,3.81-.42,4.79,1.25l.26,.46c.16,.27,.27,.55,.35,.84,.4,1.5-.23,3.13-1.63,3.94Zm-28.27-93.6c0,1.93-1.56,3.5-3.49,3.51h-.5c-1.93,0-3.5-1.56-3.51-3.49,0-1.93,1.56-3.5,3.49-3.51h.5c1.62,0,2.99,1.09,3.39,2.59,.08,.29,.12,.59,.12,.9Zm17.4,74.84c-1.67,.96-3.81,.39-4.78-1.29l-.24-.42c-.98-1.67-.41-3.81,1.26-4.79,1.67-.98,3.81-.41,4.79,1.26l.26,.45c.16,.27,.27,.55,.35,.84,.4,1.5-.23,3.13-1.63,3.94Zm-10.87-18.78c-1.67,.96-3.81,.39-4.78-1.29l-.24-.41c-.97-1.67-.41-3.81,1.25-4.79,1.67-.98,3.81-.42,4.79,1.25l.26,.46c.16,.27,.27,.55,.35,.84,.4,1.5-.23,3.13-1.63,3.94Zm-10.88-18.79c-1.67,.96-3.81,.39-4.78-1.29l-.24-.41c-.98-1.67-.42-3.81,1.25-4.79,1.67-.98,3.81-.42,4.79,1.25l.26,.46c.16,.27,.27,.55,.35,.84,.4,1.5-.23,3.13-1.63,3.94Zm-10.88-18.82c-1.67,.97-3.81,.4-4.78-1.27l-.25-.44c-.97-1.67-.4-3.81,1.28-4.78,1.67-.97,3.81-.4,4.78,1.28l.25,.43c.16,.27,.28,.56,.35,.85,.4,1.49-.22,3.12-1.62,3.94Zm238.96,412.5c-1.67,.97-3.81,.39-4.78-1.28l-.24-.42c-.97-1.67-.41-3.81,1.26-4.79,1.67-.97,3.81-.41,4.79,1.26l.26,.45c.16,.27,.27,.55,.35,.84,.4,1.49-.23,3.13-1.63,3.94Z"/><g><path d="M674.94,649.9l-.44-.25c-1.68-.96-2.25-3.1-1.29-4.78,.96-1.68,3.1-2.25,4.78-1.29l.44,.25c1.68,.96,2.25,3.1,1.29,4.78-.48,.84-1.26,1.4-2.12,1.63s-1.82,.14-2.66-.35Zm-18.73-10.78l-.44-.25c-1.68-.96-2.25-3.1-1.29-4.78,.96-1.68,3.1-2.25,4.78-1.29l.44,.25c1.68,.96,2.25,3.1,1.29,4.78-.48,.84-1.26,1.4-2.12,1.63s-1.82,.14-2.66-.35Zm-18.73-10.78l-.44-.25c-1.68-.96-2.25-3.1-1.29-4.78,.96-1.68,3.1-2.25,4.78-1.29l.44,.25c1.68,.96,2.25,3.1,1.29,4.78-.48,.84-1.26,1.4-2.12,1.63s-1.82,.14-2.66-.35Zm-18.73-10.78l-.44-.25c-1.68-.96-2.25-3.1-1.29-4.78,.96-1.68,3.1-2.25,4.78-1.29l.44,.25c1.68,.96,2.25,3.1,1.29,4.78-.48,.84-1.26,1.4-2.12,1.63s-1.82,.14-2.66-.35Zm-18.73-10.78l-.44-.25c-1.68-.96-2.25-3.1-1.29-4.78,.96-1.68,3.1-2.25,4.78-1.29l.44,.25c1.68,.96,2.25,3.1,1.29,4.78-.48,.84-1.26,1.4-2.12,1.63s-1.82,.14-2.66-.35Zm-18.73-10.78l-.44-.25c-1.68-.96-2.25-3.1-1.29-4.78,.96-1.68,3.1-2.25,4.78-1.29l.44,.25c1.68,.96,2.25,3.1,1.29,4.78-.48,.84-1.26,1.4-2.12,1.63-.86,.23-1.82,.14-2.66-.35Zm-37.47-21.56l-.44-.25c-1.68-.96-2.25-3.1-1.29-4.78,.96-1.68,3.1-2.25,4.78-1.29l.44,.25c1.68,.96,2.25,3.1,1.29,4.78-.48,.84-1.26,1.4-2.12,1.63s-1.82,.14-2.66-.35Zm-18.73-10.78l-.44-.25c-1.68-.96-2.25-3.1-1.29-4.78,.96-1.68,3.1-2.25,4.78-1.29l.44,.25c1.68,.96,2.25,3.1,1.29,4.78-.48,.84-1.26,1.4-2.12,1.63s-1.82,.14-2.66-.35Zm-37.47-21.56l-.44-.25c-1.68-.96-2.25-3.1-1.29-4.78,.96-1.68,3.1-2.25,4.78-1.29l.44,.25c1.68,.96,2.25,3.1,1.29,4.78-.48,.84-1.26,1.4-2.12,1.63s-1.82,.14-2.66-.35Zm-37.47-21.56l-.44-.25c-1.68-.96-2.25-3.1-1.29-4.78,.96-1.68,3.1-2.25,4.78-1.29l.44,.25c1.68,.96,2.25,3.1,1.29,4.78-.48,.84-1.26,1.4-2.12,1.63s-1.82,.14-2.66-.35Zm-18.73-10.78l-.44-.25c-1.68-.96-2.25-3.1-1.29-4.78,.96-1.68,3.1-2.25,4.78-1.29l.44,.25c1.68,.96,2.25,3.1,1.29,4.78-.48,.84-1.26,1.4-2.12,1.63s-1.82,.14-2.66-.35Zm264.32-85.8c-1.93,0-3.5-1.56-3.51-3.49v-.51c0-1.93,1.56-3.5,3.49-3.51,1.93,0,3.5,1.56,3.51,3.5v.5c0,1.62-1.09,2.99-2.59,3.39-.29,.08-.59,.12-.9,.12Zm-283.05,75.02l-.44-.25c-1.68-.96-2.25-3.1-1.29-4.78,.96-1.68,3.1-2.25,4.78-1.29l.44,.25c1.68,.96,2.25,3.1,1.29,4.78-.48,.84-1.26,1.4-2.12,1.63s-1.82,.14-2.66-.35Zm-18.73-10.78l-.44-.25c-1.68-.96-2.25-3.1-1.29-4.78,.96-1.68,3.1-2.25,4.78-1.29l.44,.25c1.68,.96,2.25,3.1,1.29,4.78-.48,.84-1.26,1.4-2.12,1.63s-1.82,.14-2.66-.35Zm301.76-85.9c-1.93,0-3.5-1.56-3.51-3.49v-.51c0-1.93,1.56-3.5,3.49-3.51,1.93,0,3.5,1.56,3.51,3.5v.5c0,1.62-1.09,2.99-2.59,3.39-.29,.08-.59,.12-.9,.12Zm-320.49,75.13l-.44-.25c-1.68-.96-2.25-3.1-1.29-4.78,.96-1.68,3.1-2.25,4.78-1.29l.44,.25c1.68,.96,2.25,3.1,1.29,4.78-.48,.84-1.26,1.4-2.12,1.63-.86,.23-1.82,.14-2.66-.35Zm320.45-96.8c-1.93,0-3.5-1.56-3.51-3.5v-.5c0-1.93,1.56-3.5,3.49-3.51,1.93,0,3.5,1.56,3.51,3.5v.5c0,1.62-1.09,2.98-2.59,3.38-.29,.08-.59,.12-.91,.12Zm-339.19,86.02l-.44-.25c-1.68-.96-2.25-3.1-1.29-4.78,.96-1.68,3.1-2.25,4.78-1.29l.44,.25c1.68,.96,2.25,3.1,1.29,4.78-.48,.84-1.26,1.4-2.12,1.63s-1.82,.14-2.66-.35Zm-18.73-10.78l-.44-.25c-1.68-.96-2.26-3.1-1.29-4.78,.96-1.68,3.1-2.25,4.78-1.29l.44,.25c1.68,.96,2.26,3.1,1.29,4.78-.48,.84-1.26,1.4-2.13,1.64-.86,.23-1.82,.14-2.65-.34Zm357.89-96.91c-1.93,0-3.5-1.56-3.51-3.49v-.51c0-1.93,1.56-3.5,3.49-3.51,1.93,0,3.5,1.56,3.51,3.5v.5c0,1.62-1.09,2.99-2.59,3.39-.29,.08-.59,.12-.9,.12Zm-376.63,86.13l-.44-.25c-1.68-.96-2.25-3.1-1.29-4.78,.96-1.68,3.1-2.25,4.78-1.29l.44,.25c1.68,.96,2.25,3.1,1.29,4.78-.48,.84-1.26,1.4-2.12,1.63-.86,.23-1.82,.14-2.66-.35Zm376.6-107.8c-1.93,0-3.5-1.56-3.51-3.49v-.51c0-1.93,1.56-3.5,3.49-3.51,1.93,0,3.5,1.56,3.51,3.5v.5c0,1.62-1.09,2.99-2.59,3.39-.29,.08-.59,.12-.9,.12Zm-395.33,97.02l-.44-.25c-1.68-.96-2.25-3.1-1.29-4.78,.96-1.68,3.1-2.25,4.78-1.29l.44,.25c1.68,.96,2.25,3.1,1.29,4.78-.48,.84-1.26,1.4-2.12,1.63s-1.82,.14-2.66-.35Zm395.3-118.69c-1.93,0-3.5-1.56-3.51-3.49v-.51c0-1.93,1.56-3.5,3.49-3.51,1.93,0,3.5,1.56,3.51,3.5v.5c0,1.62-1.09,2.99-2.59,3.39-.29,.08-.59,.12-.9,.12Zm-414.03,107.91l-.44-.25c-1.68-.96-2.25-3.1-1.29-4.78,.96-1.68,3.1-2.25,4.78-1.29l.44,.25c1.68,.96,2.25,3.1,1.29,4.78-.48,.84-1.26,1.4-2.12,1.63s-1.82,.14-2.66-.35Zm-18.74-10.78l-.44-.25c-1.68-.96-2.25-3.1-1.29-4.78,.96-1.68,3.1-2.25,4.78-1.29l.44,.25c1.68,.96,2.25,3.1,1.29,4.78-.48,.84-1.26,1.4-2.12,1.63-.86,.23-1.82,.14-2.66-.35Zm432.73-118.8c-1.93,0-3.5-1.56-3.51-3.49v-.51c0-1.93,1.57-3.5,3.49-3.51,1.93,0,3.5,1.56,3.51,3.5v.5c0,1.62-1.09,2.99-2.59,3.39-.29,.08-.59,.12-.9,.12Zm-448.55,106.46c-1.74-.85-2.45-2.95-1.6-4.68,.16-.33,.35-.64,.56-.94,1.13-1.57,3.32-1.93,4.88-.8,1.56,1.12,1.92,3.28,.82,4.85-.46,.92-1.29,1.55-2.22,1.8-.79,.21-1.66,.15-2.45-.24Zm448.52-128.14c-1.93,0-3.5-1.56-3.51-3.49v-.51c0-1.93,1.56-3.5,3.49-3.51,1.93,0,3.5,1.56,3.51,3.5v.5c0,1.62-1.09,2.99-2.59,3.39-.29,.08-.59,.12-.9,.12Zm-412.62,104.51c-.97-1.67-.39-3.81,1.28-4.78l.42-.24c1.67-.97,3.81-.41,4.79,1.26,.97,1.67,.41,3.81-1.26,4.79l-.45,.26c-.27,.16-.55,.27-.84,.35-1.49,.4-3.13-.23-3.94-1.63Zm18.78-10.89c-.97-1.67-.39-3.81,1.29-4.78l.42-.24c1.67-.98,3.81-.41,4.79,1.26,.97,1.67,.41,3.81-1.26,4.79l-.45,.26c-.27,.16-.55,.27-.84,.35-1.5,.4-3.13-.23-3.94-1.63Zm18.77-10.88c-.97-1.67-.39-3.81,1.29-4.78l.42-.24c1.67-.97,3.81-.41,4.79,1.26,.97,1.67,.41,3.81-1.26,4.79l-.45,.26c-.27,.16-.55,.27-.84,.35-1.5,.4-3.13-.23-3.94-1.63Zm18.76-10.87c-.97-1.67-.39-3.81,1.29-4.78l.41-.24c1.67-.98,3.81-.42,4.79,1.25,.98,1.67,.42,3.81-1.25,4.79l-.46,.26c-.27,.16-.55,.27-.84,.35-1.5,.4-3.13-.23-3.94-1.63Zm356.27-93.55c-1.93,0-3.5-1.56-3.51-3.49v-.51c0-1.93,1.56-3.5,3.49-3.51,1.93,0,3.5,1.56,3.51,3.5v.5c0,1.62-1.09,2.99-2.59,3.39-.29,.08-.59,.12-.9,.12Zm-337.51,82.68c-.97-1.67-.39-3.81,1.29-4.78l.41-.24c1.67-.98,3.81-.42,4.79,1.25s.42,3.81-1.25,4.79l-.46,.26c-.27,.16-.55,.27-.84,.35-1.5,.4-3.13-.23-3.94-1.63Zm18.75-10.87c-.97-1.67-.39-3.81,1.29-4.78l.41-.24c1.67-.98,3.81-.42,4.79,1.25s.42,3.81-1.25,4.79l-.46,.26c-.27,.16-.55,.27-.84,.35-1.5,.4-3.13-.23-3.94-1.63Zm18.75-10.87c-.97-1.67-.39-3.81,1.29-4.78l.41-.24c1.67-.98,3.81-.42,4.79,1.25,.98,1.67,.42,3.81-1.25,4.79l-.46,.26c-.27,.16-.55,.27-.84,.35-1.5,.4-3.13-.23-3.94-1.63Zm299.97-82.63c-1.93,0-3.51-1.55-3.51-3.48v-.51c0-1.93,1.56-3.5,3.49-3.5,1.93,0,3.5,1.56,3.51,3.5v.49c0,1.62-1.09,2.99-2.59,3.39-.29,.08-.59,.12-.9,.12Zm-281.22,71.77c-.97-1.67-.39-3.81,1.29-4.78l.41-.24c1.67-.98,3.81-.42,4.79,1.25s.42,3.81-1.25,4.79l-.46,.26c-.27,.16-.55,.27-.84,.35-1.5,.4-3.13-.23-3.94-1.63Zm18.75-10.86c-.97-1.67-.39-3.81,1.29-4.78l.41-.24c1.67-.98,3.81-.42,4.79,1.25s.42,3.81-1.25,4.79l-.46,.26c-.27,.16-.55,.27-.84,.35-1.5,.4-3.13-.23-3.94-1.63Zm18.75-10.86c-.97-1.67-.39-3.81,1.29-4.78l.42-.24c1.67-.97,3.81-.41,4.79,1.26,.97,1.67,.41,3.81-1.26,4.79l-.45,.26c-.27,.16-.55,.27-.84,.35-1.5,.4-3.13-.23-3.94-1.63Zm18.76-10.87c-.97-1.67-.39-3.81,1.29-4.78l.41-.24c1.67-.98,3.81-.42,4.79,1.25,.98,1.67,.42,3.81-1.25,4.79l-.46,.26c-.27,.16-.55,.27-.84,.35-1.5,.4-3.13-.23-3.94-1.63Zm224.94-60.87c-1.93,0-3.51-1.55-3.51-3.48v-.51c0-1.93,1.56-3.5,3.49-3.5,1.93,0,3.5,1.56,3.51,3.5v.49c0,1.62-1.09,2.99-2.59,3.39-.29,.08-.59,.12-.9,.12Zm-206.19,50.01c-.97-1.67-.39-3.81,1.29-4.78l.41-.24c1.67-.98,3.81-.42,4.79,1.25,.98,1.67,.42,3.81-1.25,4.79l-.46,.26c-.27,.16-.55,.27-.84,.35-1.5,.4-3.13-.23-3.94-1.63Zm18.75-10.86c-.96-1.67-.39-3.81,1.29-4.78l.42-.24c1.67-.97,3.81-.41,4.79,1.26,.97,1.67,.41,3.81-1.26,4.79l-.45,.26c-.27,.16-.55,.27-.84,.35-1.5,.4-3.13-.23-3.94-1.63Zm18.75-10.86c-.96-1.67-.39-3.81,1.29-4.78l.42-.24c1.67-.98,3.81-.41,4.79,1.26,.98,1.67,.41,3.81-1.26,4.79l-.45,.26c-.27,.16-.55,.27-.84,.35-1.5,.4-3.13-.23-3.94-1.63Zm18.75-10.86c-.96-1.67-.39-3.81,1.29-4.78l.42-.24c1.67-.98,3.81-.41,4.79,1.26,.98,1.67,.41,3.81-1.26,4.79l-.45,.26c-.27,.16-.55,.27-.84,.35-1.5,.4-3.13-.23-3.94-1.63Zm149.9-39.13c-1.93,0-3.5-1.56-3.51-3.5v-.51c0-1.93,1.56-3.5,3.5-3.5,1.93,0,3.5,1.57,3.5,3.5v.5c0,1.62-1.09,2.98-2.59,3.38-.29,.08-.59,.12-.91,.12Zm-131.15,28.27c-.96-1.67-.39-3.81,1.29-4.78l.42-.24c1.67-.98,3.81-.41,4.79,1.26,.98,1.67,.41,3.81-1.26,4.79l-.45,.26c-.27,.16-.55,.27-.84,.35-1.5,.4-3.13-.23-3.94-1.63Zm18.76-10.86c-.96-1.67-.39-3.81,1.29-4.78l.41-.24c1.67-.98,3.81-.41,4.79,1.25,.98,1.67,.42,3.81-1.25,4.79l-.46,.26c-.27,.16-.55,.27-.84,.35-1.5,.4-3.13-.23-3.94-1.63Zm18.76-10.87c-.96-1.67-.39-3.81,1.29-4.78l.41-.24c1.67-.98,3.81-.41,4.79,1.25,.98,1.67,.42,3.81-1.25,4.79l-.46,.26c-.27,.16-.55,.27-.84,.35-1.5,.4-3.13-.23-3.94-1.63Zm93.6-28.27c-1.93,0-3.5-1.56-3.51-3.49v-.5c0-1.93,1.56-3.5,3.49-3.51,1.93,0,3.5,1.56,3.51,3.49v.5c0,1.62-1.09,2.99-2.59,3.39-.29,.08-.59,.12-.9,.12Zm-74.84,17.4c-.96-1.67-.39-3.81,1.29-4.78l.42-.24c1.67-.98,3.81-.41,4.79,1.26,.98,1.67,.41,3.81-1.26,4.79l-.45,.26c-.27,.16-.55,.27-.84,.35-1.5,.4-3.13-.23-3.94-1.63Zm18.78-10.87c-.96-1.67-.39-3.81,1.29-4.78l.41-.24c1.67-.97,3.81-.41,4.79,1.25,.98,1.67,.42,3.81-1.25,4.79l-.46,.26c-.27,.16-.55,.27-.84,.35-1.5,.4-3.13-.23-3.94-1.63Zm18.79-10.88c-.96-1.67-.39-3.81,1.29-4.78l.41-.24c1.67-.98,3.81-.42,4.79,1.25,.98,1.67,.42,3.81-1.25,4.79l-.46,.26c-.27,.16-.55,.27-.84,.35-1.5,.4-3.13-.23-3.94-1.63Zm18.82-10.88c-.97-1.67-.4-3.81,1.27-4.78l.44-.25c1.67-.97,3.81-.4,4.78,1.28,.97,1.67,.4,3.81-1.28,4.78l-.43,.25c-.27,.16-.56,.28-.85,.35-1.49,.4-3.12-.22-3.94-1.62Zm18.4-6.61c-1.93,0-3.5-1.57-3.5-3.5v-.1c0-2.7,1.62-3.54,2.59-3.8,1.87-.5,3.79,.6,4.29,2.47,.09,.34,.13,.67,.12,1v.44c0,1.62-1.1,2.98-2.59,3.38-.29,.08-.6,.12-.92,.12Zm-430.91,245.58c-.97-1.67-.39-3.81,1.28-4.78l.42-.24c1.67-.97,3.81-.41,4.79,1.26,.97,1.67,.41,3.81-1.26,4.79l-.45,.26c-.27,.16-.55,.27-.84,.35-1.49,.4-3.13-.23-3.94-1.63Z"/><path d="M714.09,649.53c-.86-.23-1.64-.8-2.12-1.63-.96-1.67-.39-3.82,1.29-4.78l.44-.25c1.67-.96,3.81-.39,4.78,1.29,.96,1.67,.39,3.82-1.29,4.78l-.44,.25c-.84,.48-1.79,.58-2.66,.35Zm18.73-10.78c-.86-.23-1.64-.8-2.12-1.63-.96-1.67-.39-3.82,1.29-4.78l.44-.25c1.68-.96,3.82-.39,4.78,1.29,.96,1.67,.39,3.82-1.29,4.78l-.44,.25c-.84,.48-1.79,.58-2.66,.35Zm18.73-10.78c-.86-.23-1.64-.8-2.12-1.63-.96-1.67-.39-3.82,1.29-4.78l.44-.25c1.67-.96,3.81-.39,4.78,1.29,.96,1.67,.39,3.82-1.29,4.78l-.44,.25c-.84,.48-1.79,.58-2.66,.35Zm18.73-10.78c-.86-.23-1.64-.8-2.12-1.63-.96-1.67-.39-3.82,1.29-4.78l.44-.25c1.68-.96,3.82-.39,4.78,1.29,.96,1.67,.39,3.82-1.29,4.78l-.44,.25c-.84,.48-1.79,.58-2.66,.35Zm18.73-10.78c-.86-.23-1.64-.8-2.12-1.63-.96-1.67-.39-3.82,1.29-4.78l.44-.25c1.68-.96,3.82-.39,4.78,1.29,.96,1.67,.39,3.82-1.29,4.78l-.44,.25c-.84,.48-1.79,.58-2.66,.35Zm19.73-13.78c-.86-.23-1.64-.8-2.12-1.63-.96-1.67-.39-3.82,1.29-4.78l.44-.25c1.68-.96,3.81-.39,4.78,1.29,.96,1.67,.39,3.82-1.29,4.78l-.44,.25c-.84,.48-1.79,.58-2.66,.35Zm36.47-18.56c-.86-.23-1.64-.8-2.12-1.63-.96-1.67-.39-3.82,1.29-4.78l.44-.25c1.68-.96,3.81-.39,4.78,1.29,.96,1.67,.39,3.82-1.29,4.78l-.44,.25c-.84,.48-1.79,.58-2.66,.35Zm18.73-10.78c-.86-.23-1.64-.8-2.12-1.63-.96-1.67-.39-3.82,1.29-4.78l.44-.25c1.68-.96,3.81-.39,4.78,1.29,.96,1.67,.39,3.82-1.29,4.78l-.44,.25c-.84,.48-1.79,.58-2.66,.35Zm16.81-13.82c-.86-.23-1.64-.8-2.12-1.63-.96-1.67-.39-3.82,1.29-4.78l.44-.25c1.68-.96,3.81-.39,4.78,1.29,.96,1.67,.39,3.82-1.29,4.78l-.44,.25c-.84,.48-1.79,.58-2.66,.35Zm20.66-7.74c-.86-.23-1.64-.8-2.12-1.63-.96-1.67-.39-3.82,1.29-4.78l.44-.25c1.68-.96,3.81-.39,4.78,1.29,.96,1.67,.39,3.82-1.29,4.78l-.44,.25c-.84,.48-1.79,.58-2.66,.35Zm18.74-10.78c-.86-.23-1.64-.8-2.12-1.63-.96-1.67-.39-3.82,1.29-4.78l.44-.25c1.68-.96,3.81-.39,4.78,1.29,.96,1.67,.39,3.82-1.29,4.78l-.44,.25c-.84,.48-1.79,.58-2.66,.35Zm18.74-10.78c-.86-.23-1.64-.8-2.12-1.63-.96-1.67-.39-3.82,1.29-4.78l.44-.25c1.68-.96,3.81-.39,4.78,1.29,.96,1.67,.39,3.82-1.29,4.78l-.44,.25c-.84,.48-1.79,.58-2.66,.35Zm18.73-10.78c-.86-.23-1.64-.8-2.12-1.63-.96-1.67-.39-3.82,1.29-4.78l.44-.25c1.68-.96,3.81-.39,4.78,1.29,.96,1.67,.39,3.82-1.29,4.78l-.44,.25c-.84,.48-1.79,.58-2.66,.35Zm18.74-10.78c-.86-.23-1.64-.8-2.12-1.63-.96-1.67-.39-3.82,1.29-4.78l.44-.25c1.68-.96,3.81-.39,4.78,1.29,.96,1.67,.39,3.82-1.29,4.78l-.44,.25c-.84,.48-1.79,.58-2.66,.35Zm18.73-10.78c-.86-.23-1.64-.8-2.12-1.63-.96-1.67-.39-3.82,1.29-4.78l.44-.25c1.68-.96,3.81-.39,4.78,1.29,.96,1.67,.39,3.82-1.29,4.78l-.44,.25c-.84,.48-1.79,.58-2.66,.35Zm18.73-10.78c-.86-.23-1.64-.8-2.12-1.63-.96-1.67-.39-3.82,1.29-4.78l.44-.25c1.68-.96,3.81-.39,4.78,1.29,.96,1.67,.39,3.82-1.29,4.78l-.44,.25c-.84,.48-1.79,.58-2.66,.35Zm18.74-10.78c-.86-.23-1.64-.8-2.12-1.63-.96-1.67-.39-3.82,1.29-4.78l.44-.25c1.68-.96,3.81-.39,4.78,1.29,.96,1.67,.39,3.82-1.29,4.78l-.44,.25c-.84,.48-1.79,.58-2.66,.35Zm18.73-10.78c-.87-.23-1.64-.8-2.13-1.64-.96-1.68-.38-3.82,1.29-4.78l.44-.25c1.68-.96,3.82-.38,4.78,1.29,.96,1.68,.38,3.82-1.29,4.78l-.44,.25c-.84,.48-1.79,.58-2.65,.34Zm18.73-10.78c-.86-.23-1.64-.8-2.12-1.63-.96-1.67-.39-3.82,1.29-4.78l.44-.25c1.68-.96,3.81-.39,4.78,1.29,.96,1.67,.39,3.82-1.29,4.78l-.44,.25c-.84,.48-1.79,.58-2.66,.35Zm18.74-10.78c-.86-.23-1.64-.8-2.12-1.63-.96-1.67-.39-3.82,1.29-4.78l.44-.25c1.68-.96,3.81-.39,4.78,1.29,.96,1.67,.39,3.82-1.29,4.78l-.44,.25c-.84,.48-1.79,.58-2.66,.35Zm18.73-10.78c-.86-.23-1.64-.8-2.12-1.63-.96-1.67-.39-3.82,1.29-4.78l.44-.25c1.68-.96,3.81-.39,4.78,1.29,.96,1.67,.39,3.82-1.29,4.78l-.44,.25c-.84,.48-1.79,.58-2.66,.35Zm18.74-10.78c-.86-.23-1.64-.8-2.12-1.63-.96-1.67-.39-3.82,1.29-4.78l.44-.25c1.68-.96,3.81-.39,4.78,1.29,.96,1.67,.39,3.82-1.29,4.78l-.44,.25c-.84,.48-1.79,.58-2.66,.35Zm16.02-12.45c-.93-.25-1.75-.88-2.22-1.8-1.1-1.57-.73-3.73,.82-4.85,1.57-1.13,3.76-.77,4.88,.8,.21,.29,.4,.61,.56,.94,.85,1.74,.13,3.83-1.6,4.68-.79,.39-1.66,.45-2.45,.24Zm-37.38-22.24c-.29-.08-.57-.19-.84-.35l-.45-.26c-1.67-.97-2.23-3.12-1.26-4.79,.97-1.67,3.11-2.23,4.79-1.26l.42,.24c1.67,.97,2.25,3.11,1.28,4.78-.81,1.4-2.45,2.03-3.94,1.63Zm-18.79-10.89c-.29-.08-.57-.19-.84-.35l-.45-.26c-1.67-.97-2.23-3.12-1.26-4.79,.97-1.67,3.11-2.24,4.79-1.26l.42,.24c1.68,.96,2.25,3.1,1.29,4.78-.81,1.41-2.45,2.04-3.94,1.63Zm-18.77-10.88c-.29-.08-.57-.19-.84-.35l-.45-.26c-1.67-.97-2.23-3.12-1.26-4.79,.97-1.67,3.12-2.23,4.79-1.26l.42,.24c1.68,.96,2.25,3.1,1.29,4.78-.81,1.41-2.45,2.04-3.94,1.63Zm-18.76-10.87c-.29-.08-.57-.19-.84-.35l-.46-.26c-1.67-.98-2.23-3.12-1.25-4.79s3.12-2.23,4.79-1.25l.41,.24c1.68,.96,2.25,3.1,1.29,4.78-.81,1.41-2.45,2.04-3.94,1.63Zm-18.76-10.87c-.29-.08-.57-.19-.84-.35l-.46-.26c-1.67-.98-2.23-3.12-1.25-4.79,.98-1.67,3.12-2.23,4.79-1.25l.41,.24c1.68,.96,2.25,3.1,1.29,4.78-.81,1.41-2.45,2.04-3.94,1.63Zm-18.75-10.87c-.29-.08-.57-.19-.84-.35l-.46-.26c-1.67-.98-2.23-3.12-1.25-4.79s3.12-2.23,4.79-1.25l.41,.24c1.68,.96,2.25,3.1,1.29,4.78-.81,1.41-2.45,2.04-3.94,1.63Zm-18.75-10.87c-.29-.08-.57-.19-.84-.35l-.46-.26c-1.67-.98-2.23-3.12-1.25-4.79s3.12-2.23,4.79-1.25l.41,.24c1.68,.96,2.25,3.1,1.29,4.78-.81,1.41-2.45,2.04-3.94,1.63Zm-18.75-10.86c-.29-.08-.57-.19-.84-.35l-.46-.26c-1.67-.98-2.23-3.12-1.25-4.79,.98-1.67,3.12-2.23,4.79-1.25l.41,.24c1.68,.96,2.25,3.1,1.29,4.78-.81,1.41-2.45,2.04-3.94,1.63Zm-18.75-10.86c-.29-.08-.57-.19-.84-.35l-.46-.26c-1.67-.98-2.23-3.12-1.25-4.79,.98-1.67,3.12-2.23,4.79-1.25l.41,.24c1.68,.96,2.25,3.1,1.29,4.78-.81,1.41-2.45,2.04-3.94,1.63Zm-18.75-10.86c-.29-.08-.57-.19-.84-.35l-.45-.26c-1.67-.97-2.23-3.12-1.26-4.79,.97-1.67,3.11-2.23,4.79-1.26l.42,.24c1.68,.96,2.25,3.1,1.29,4.78-.81,1.41-2.45,2.04-3.94,1.63Zm-18.76-10.87c-.29-.08-.57-.19-.84-.35l-.46-.26c-1.67-.98-2.23-3.12-1.25-4.79,.98-1.67,3.12-2.23,4.79-1.25l.41,.24c1.68,.96,2.25,3.1,1.29,4.78-.81,1.41-2.45,2.04-3.94,1.63Zm-18.75-10.86c-.29-.08-.57-.19-.84-.35l-.46-.26c-1.67-.98-2.23-3.12-1.25-4.79,.98-1.67,3.12-2.23,4.79-1.25l.41,.24c1.68,.96,2.25,3.1,1.29,4.78-.81,1.41-2.45,2.04-3.94,1.63Zm-18.75-10.86c-.29-.08-.57-.19-.84-.35l-.45-.26c-1.67-.97-2.23-3.12-1.26-4.79,.97-1.67,3.12-2.23,4.79-1.26l.42,.24c1.67,.96,2.25,3.1,1.29,4.78-.81,1.41-2.45,2.04-3.94,1.63Zm-18.75-10.86c-.29-.08-.57-.19-.84-.35l-.45-.26c-1.67-.97-2.23-3.12-1.26-4.79,.98-1.67,3.12-2.24,4.79-1.26l.42,.24c1.67,.96,2.25,3.1,1.29,4.78-.81,1.41-2.45,2.04-3.94,1.63Zm-18.75-10.86c-.29-.08-.57-.19-.84-.35l-.45-.26c-1.67-.97-2.23-3.12-1.26-4.79,.98-1.67,3.12-2.23,4.79-1.26l.42,.24c1.67,.96,2.25,3.1,1.29,4.78-.81,1.41-2.45,2.04-3.94,1.63Zm-18.75-10.86c-.29-.08-.57-.19-.84-.35l-.45-.26c-1.67-.97-2.23-3.12-1.26-4.79,.98-1.67,3.12-2.23,4.79-1.26l.42,.24c1.67,.96,2.25,3.1,1.29,4.78-.81,1.41-2.45,2.04-3.94,1.63Zm-18.76-10.87c-.29-.08-.57-.19-.84-.35l-.46-.26c-1.67-.98-2.23-3.12-1.25-4.79,.98-1.67,3.12-2.23,4.79-1.25l.41,.24c1.67,.96,2.25,3.1,1.29,4.78-.81,1.41-2.45,2.04-3.94,1.63Zm-18.76-10.87c-.29-.08-.57-.19-.84-.35l-.46-.26c-1.67-.98-2.23-3.12-1.25-4.79,.98-1.67,3.12-2.23,4.79-1.25l.41,.24c1.67,.96,2.25,3.1,1.29,4.78-.81,1.41-2.45,2.04-3.94,1.63Zm-18.77-10.87c-.29-.08-.57-.19-.84-.35l-.45-.26c-1.67-.97-2.23-3.12-1.26-4.79,.98-1.67,3.12-2.23,4.79-1.26l.42,.24c1.67,.96,2.25,3.1,1.29,4.78-.81,1.41-2.45,2.04-3.94,1.63Zm-18.78-10.87c-.29-.08-.57-.19-.84-.35l-.46-.26c-1.67-.98-2.23-3.12-1.25-4.79,.98-1.67,3.12-2.23,4.79-1.25l.41,.24c1.68,.96,2.25,3.1,1.29,4.78-.81,1.41-2.45,2.04-3.94,1.63Zm-18.79-10.88c-.29-.08-.57-.19-.84-.35l-.46-.26c-1.67-.98-2.23-3.12-1.25-4.79,.98-1.67,3.12-2.23,4.79-1.25l.41,.24c1.67,.96,2.25,3.1,1.29,4.78-.81,1.41-2.45,2.04-3.94,1.63Zm-18.81-10.89c-.29-.08-.58-.2-.85-.35l-.43-.25c-1.67-.97-2.24-3.11-1.28-4.78,.97-1.67,3.11-2.24,4.78-1.28l.44,.25c1.67,.97,2.24,3.11,1.27,4.78-.81,1.4-2.45,2.02-3.94,1.62Zm412.5,238.97c-.29-.08-.57-.19-.84-.35l-.45-.26c-1.67-.97-2.23-3.12-1.26-4.79,.97-1.67,3.11-2.23,4.79-1.26l.42,.24c1.67,.97,2.25,3.11,1.28,4.78-.81,1.4-2.45,2.03-3.94,1.63Z"/></g><g><path d="M692.4,1255.54l-.44-.25c-1.68-.96-2.25-3.1-1.29-4.78,.96-1.68,3.1-2.25,4.78-1.29l.44,.25c1.68,.96,2.25,3.1,1.29,4.78-.48,.84-1.26,1.4-2.12,1.63s-1.82,.14-2.66-.35Zm-18.74-10.78l-.44-.25c-1.68-.96-2.25-3.1-1.29-4.78,.96-1.68,3.1-2.25,4.78-1.29l.44,.25c1.68,.96,2.25,3.1,1.29,4.78-.48,.84-1.26,1.4-2.12,1.63-.86,.23-1.82,.14-2.66-.35Zm21.05-9.08c-1.93,0-3.5-1.57-3.49-3.51v-.5c0-1.93,1.57-3.5,3.5-3.5,1.93,0,3.5,1.57,3.5,3.5v.51c0,1.61-1.1,2.97-2.59,3.37-.29,.08-.6,.12-.92,.12Zm-39.79-1.7l-.44-.25c-1.68-.96-2.25-3.1-1.29-4.78,.96-1.68,3.1-2.25,4.78-1.29l.44,.25c1.68,.96,2.25,3.1,1.29,4.78-.48,.84-1.26,1.4-2.12,1.63s-1.82,.14-2.66-.35Zm39.79-20.03c-1.93,0-3.51-1.55-3.51-3.48v-.51c0-1.93,1.56-3.5,3.49-3.51,1.93,0,3.5,1.56,3.51,3.5v.49c0,1.62-1.09,2.99-2.59,3.39-.29,.08-.59,.12-.9,.12Zm-58.52,9.25l-.44-.25c-1.68-.96-2.25-3.1-1.29-4.78,.96-1.68,3.1-2.25,4.78-1.29l.44,.25c1.68,.96,2.25,3.1,1.29,4.78-.48,.84-1.26,1.4-2.12,1.63s-1.82,.14-2.66-.35Zm-18.73-10.78l-.44-.25c-1.68-.96-2.25-3.1-1.29-4.78,.96-1.68,3.1-2.25,4.78-1.29l.44,.25c1.68,.96,2.25,3.1,1.29,4.78-.48,.84-1.26,1.4-2.12,1.63s-1.82,.14-2.66-.35Zm77.21-20.18c-1.93,0-3.5-1.57-3.5-3.5v-.5c0-1.93,1.56-3.5,3.49-3.51,1.93,0,3.5,1.56,3.51,3.5v.51c0,1.62-1.1,2.98-2.59,3.38-.29,.08-.6,.12-.91,.12Zm-95.95,9.4l-.44-.25c-1.68-.96-2.25-3.1-1.29-4.78,.96-1.68,3.1-2.25,4.78-1.29l.44,.25c1.68,.96,2.25,3.1,1.29,4.78-.48,.84-1.26,1.4-2.12,1.63s-1.82,.14-2.66-.35Zm95.92-31.1c-1.93,0-3.5-1.57-3.5-3.5v-.5c0-1.93,1.56-3.5,3.49-3.51,1.93,0,3.5,1.56,3.51,3.5v.51c0,1.62-1.1,2.98-2.59,3.38-.29,.08-.6,.12-.91,.12Zm-114.65,20.32l-.44-.25c-1.68-.96-2.25-3.1-1.29-4.78,.96-1.68,3.1-2.25,4.78-1.29l.44,.25c1.68,.96,2.25,3.1,1.29,4.78-.48,.84-1.26,1.4-2.12,1.63s-1.82,.14-2.66-.35Zm114.63-42.01c-1.93,0-3.5-1.56-3.51-3.5v-.5c0-1.93,1.56-3.5,3.49-3.51,1.93,0,3.5,1.56,3.51,3.5v.5c0,1.62-1.09,2.98-2.59,3.38-.29,.08-.59,.12-.91,.12Zm-133.36,31.23l-.44-.25c-1.68-.96-2.25-3.1-1.29-4.78,.96-1.68,3.1-2.25,4.78-1.29l.44,.25c1.68,.96,2.25,3.1,1.29,4.78-.48,.84-1.26,1.4-2.12,1.63s-1.82,.14-2.66-.35Zm-18.73-10.78l-.44-.25c-1.68-.96-2.25-3.1-1.29-4.78,.96-1.68,3.1-2.25,4.78-1.29l.44,.25c1.68,.96,2.25,3.1,1.29,4.78-.48,.84-1.26,1.4-2.12,1.63s-1.82,.14-2.66-.35Zm152.07-42.13c-1.93,0-3.5-1.56-3.51-3.5v-.5c0-1.93,1.57-3.5,3.49-3.5,1.93,0,3.5,1.56,3.51,3.5v.5c0,1.62-1.09,2.98-2.59,3.38-.29,.08-.59,.12-.91,.12Zm-170.8,31.35l-.44-.25c-1.68-.96-2.25-3.1-1.29-4.78,.96-1.68,3.1-2.25,4.78-1.29l.44,.25c1.68,.96,2.25,3.1,1.29,4.78-.48,.84-1.26,1.4-2.12,1.63s-1.82,.14-2.66-.35Zm170.76-53.02c-1.93,0-3.5-1.57-3.5-3.5v-.5c0-1.93,1.56-3.5,3.49-3.51,1.93,0,3.5,1.56,3.51,3.5v.51c0,1.62-1.1,2.98-2.59,3.38-.29,.08-.6,.12-.91,.12Zm-189.5,42.24l-.44-.25c-1.68-.96-2.25-3.1-1.29-4.78,.96-1.68,3.1-2.25,4.78-1.29l.44,.25c1.68,.96,2.25,3.1,1.29,4.78-.48,.84-1.26,1.4-2.12,1.63s-1.82,.14-2.66-.35Zm189.47-63.91c-1.93,0-3.5-1.57-3.5-3.5v-.5c0-1.93,1.56-3.5,3.49-3.51,1.93,0,3.5,1.56,3.51,3.5v.51c0,1.62-1.1,2.98-2.59,3.38-.29,.08-.6,.12-.91,.12Zm-208.2,53.14l-.44-.25c-1.68-.96-2.25-3.1-1.29-4.78,.96-1.68,3.1-2.25,4.78-1.29l.44,.25c1.68,.96,2.25,3.1,1.29,4.78-.48,.84-1.26,1.4-2.12,1.63-.86,.23-1.82,.14-2.66-.35Zm-18.74-10.78l-.44-.25c-1.68-.96-2.25-3.1-1.29-4.78,.96-1.68,3.1-2.25,4.78-1.29l.44,.25c1.68,.96,2.25,3.1,1.29,4.78-.48,.84-1.26,1.4-2.12,1.63-.86,.23-1.82,.14-2.66-.35Zm226.92-64.02c-1.93,0-3.5-1.56-3.51-3.49v-.51c0-1.93,1.56-3.5,3.49-3.51,1.93,0,3.5,1.56,3.51,3.5v.5c0,1.62-1.09,2.99-2.59,3.39-.29,.08-.59,.12-.9,.12Zm-245.65,53.24l-.44-.25c-1.68-.96-2.25-3.1-1.29-4.78,.96-1.68,3.1-2.25,4.78-1.29l.44,.25c1.68,.96,2.25,3.1,1.29,4.78-.48,.84-1.26,1.4-2.12,1.63s-1.82,.14-2.66-.35Zm245.62-74.91c-1.93,0-3.5-1.56-3.51-3.49v-.51c0-1.93,1.56-3.5,3.49-3.51,1.93,0,3.5,1.56,3.51,3.5v.5c0,1.62-1.09,2.99-2.59,3.39-.29,.08-.59,.12-.9,.12Zm-264.35,64.13l-.44-.25c-1.68-.96-2.25-3.1-1.29-4.78,.96-1.68,3.1-2.25,4.78-1.29l.44,.25c1.68,.96,2.25,3.1,1.29,4.78-.48,.84-1.26,1.4-2.12,1.63s-1.82,.14-2.66-.35Zm264.32-85.8c-1.93,0-3.5-1.56-3.51-3.49v-.51c0-1.93,1.56-3.5,3.49-3.51,1.93,0,3.5,1.56,3.51,3.5v.5c0,1.62-1.09,2.99-2.59,3.39-.29,.08-.59,.12-.9,.12Zm-283.05,75.02l-.44-.25c-1.68-.96-2.25-3.1-1.29-4.78,.96-1.68,3.1-2.25,4.78-1.29l.44,.25c1.68,.96,2.25,3.1,1.29,4.78-.48,.84-1.26,1.4-2.12,1.63s-1.82,.14-2.66-.35Zm-18.73-10.78l-.44-.25c-1.68-.96-2.25-3.1-1.29-4.78,.96-1.68,3.1-2.25,4.78-1.29l.44,.25c1.68,.96,2.25,3.1,1.29,4.78-.48,.84-1.26,1.4-2.12,1.63s-1.82,.14-2.66-.35Zm301.76-85.9c-1.93,0-3.5-1.56-3.51-3.49v-.51c0-1.93,1.56-3.5,3.49-3.51,1.93,0,3.5,1.56,3.51,3.5v.5c0,1.62-1.09,2.99-2.59,3.39-.29,.08-.59,.12-.9,.12Zm-320.49,75.13l-.44-.25c-1.68-.96-2.25-3.1-1.29-4.78,.96-1.68,3.1-2.25,4.78-1.29l.44,.25c1.68,.96,2.25,3.1,1.29,4.78-.48,.84-1.26,1.4-2.12,1.63s-1.82,.14-2.66-.35Zm320.45-96.8c-1.93,0-3.5-1.56-3.51-3.5v-.5c0-1.93,1.56-3.5,3.49-3.51,1.93,0,3.5,1.56,3.51,3.5v.5c0,1.62-1.09,2.98-2.59,3.38-.29,.08-.59,.12-.91,.12Zm-339.19,86.02l-.44-.25c-1.68-.96-2.25-3.1-1.29-4.78,.96-1.68,3.1-2.25,4.78-1.29l.44,.25c1.68,.96,2.25,3.1,1.29,4.78-.48,.84-1.26,1.4-2.12,1.63s-1.82,.14-2.66-.35Zm-18.73-10.78l-.44-.25c-1.68-.96-2.26-3.1-1.29-4.78,.96-1.68,3.1-2.25,4.78-1.29l.44,.25c1.68,.96,2.26,3.1,1.29,4.78-.48,.84-1.26,1.4-2.13,1.64-.86,.23-1.82,.14-2.65-.34Zm-18.74-10.78l-.44-.25c-1.68-.96-2.25-3.1-1.29-4.78,.96-1.68,3.1-2.25,4.78-1.29l.44,.25c1.68,.96,2.25,3.1,1.29,4.78-.48,.84-1.26,1.4-2.12,1.63s-1.82,.14-2.66-.35Zm-18.74-10.78l-.44-.25c-1.68-.96-2.25-3.1-1.29-4.78,.96-1.68,3.1-2.25,4.78-1.29l.44,.25c1.68,.96,2.25,3.1,1.29,4.78-.48,.84-1.26,1.4-2.12,1.63-.86,.23-1.82,.14-2.66-.35Zm-18.73-10.78l-.44-.25c-1.68-.96-2.25-3.1-1.29-4.78,.96-1.68,3.1-2.25,4.78-1.29l.44,.25c1.68,.96,2.25,3.1,1.29,4.78-.48,.84-1.26,1.4-2.12,1.63s-1.82,.14-2.66-.35Zm-18.74-10.78l-.44-.25c-1.68-.96-2.25-3.1-1.29-4.78,.96-1.68,3.1-2.25,4.78-1.29l.44,.25c1.68,.96,2.25,3.1,1.29,4.78-.48,.84-1.26,1.4-2.12,1.63s-1.82,.14-2.66-.35Zm-15.82-12.34c-1.74-.85-2.45-2.95-1.6-4.68,.16-.33,.35-.64,.56-.94,1.13-1.57,3.32-1.93,4.88-.8,1.56,1.12,1.92,3.28,.82,4.85-.46,.92-1.29,1.55-2.22,1.8-.79,.21-1.66,.15-2.45-.24Zm35.89-23.63c-.97-1.67-.39-3.81,1.28-4.78l.42-.24c1.67-.97,3.81-.41,4.79,1.26,.97,1.67,.41,3.81-1.26,4.79l-.45,.26c-.27,.16-.55,.27-.84,.35-1.49,.4-3.13-.23-3.94-1.63Zm18.78-10.89c-.97-1.67-.39-3.81,1.29-4.78l.42-.24c1.67-.98,3.81-.41,4.79,1.26,.97,1.67,.41,3.81-1.26,4.79l-.45,.26c-.27,.16-.55,.27-.84,.35-1.5,.4-3.13-.23-3.94-1.63Zm18.77-10.88c-.97-1.67-.39-3.81,1.29-4.78l.42-.24c1.67-.97,3.81-.41,4.79,1.26,.97,1.67,.41,3.81-1.26,4.79l-.45,.26c-.27,.16-.55,.27-.84,.35-1.5,.4-3.13-.23-3.94-1.63Zm18.76-10.87c-.97-1.67-.39-3.81,1.29-4.78l.41-.24c1.67-.98,3.81-.42,4.79,1.25,.98,1.67,.42,3.81-1.25,4.79l-.46,.26c-.27,.16-.55,.27-.84,.35-1.5,.4-3.13-.23-3.94-1.63Zm18.76-10.87c-.97-1.67-.39-3.81,1.29-4.78l.41-.24c1.67-.98,3.81-.42,4.79,1.25,.98,1.67,.42,3.81-1.25,4.79l-.46,.26c-.27,.16-.55,.27-.84,.35-1.5,.4-3.13-.23-3.94-1.63Zm18.75-10.87c-.97-1.67-.39-3.81,1.29-4.78l.41-.24c1.67-.98,3.81-.42,4.79,1.25s.42,3.81-1.25,4.79l-.46,.26c-.27,.16-.55,.27-.84,.35-1.5,.4-3.13-.23-3.94-1.63Zm18.75-10.87c-.97-1.67-.39-3.81,1.29-4.78l.41-.24c1.67-.98,3.81-.42,4.79,1.25,.98,1.67,.42,3.81-1.25,4.79l-.46,.26c-.27,.16-.55,.27-.84,.35-1.5,.4-3.13-.23-3.94-1.63Zm18.75-10.86c-.97-1.67-.39-3.81,1.29-4.78l.41-.24c1.67-.98,3.81-.42,4.79,1.25s.42,3.81-1.25,4.79l-.46,.26c-.27,.16-.55,.27-.84,.35-1.5,.4-3.13-.23-3.94-1.63Zm18.75-10.86c-.97-1.67-.39-3.81,1.29-4.78l.41-.24c1.67-.98,3.81-.42,4.79,1.25,.98,1.67,.42,3.81-1.25,4.79l-.46,.26c-.27,.16-.55,.27-.84,.35-1.5,.4-3.13-.23-3.94-1.63Zm18.75-10.86c-.97-1.67-.39-3.81,1.29-4.78l.42-.24c1.67-.97,3.81-.41,4.79,1.26,.97,1.67,.41,3.81-1.26,4.79l-.45,.26c-.27,.16-.55,.27-.84,.35-1.5,.4-3.13-.23-3.94-1.63Zm18.76-10.87c-.97-1.67-.39-3.81,1.29-4.78l.41-.24c1.67-.98,3.81-.42,4.79,1.25,.98,1.67,.42,3.81-1.25,4.79l-.46,.26c-.27,.16-.55,.27-.84,.35-1.5,.4-3.13-.23-3.94-1.63Zm18.75-10.86c-.97-1.67-.39-3.81,1.29-4.78l.41-.24c1.67-.98,3.81-.42,4.79,1.25,.98,1.67,.42,3.81-1.25,4.79l-.46,.26c-.27,.16-.55,.27-.84,.35-1.5,.4-3.13-.23-3.94-1.63Zm18.75-10.86c-.96-1.67-.39-3.81,1.29-4.78l.42-.24c1.67-.97,3.81-.41,4.79,1.26,.97,1.67,.41,3.81-1.26,4.79l-.45,.26c-.27,.16-.55,.27-.84,.35-1.5,.4-3.13-.23-3.94-1.63Zm18.75-10.86c-.96-1.67-.39-3.81,1.29-4.78l.42-.24c1.67-.98,3.81-.41,4.79,1.26,.98,1.67,.41,3.81-1.26,4.79l-.45,.26c-.27,.16-.55,.27-.84,.35-1.5,.4-3.13-.23-3.94-1.63Zm18.75-10.86c-.96-1.67-.39-3.81,1.29-4.78l.42-.24c1.67-.98,3.81-.41,4.79,1.26,.98,1.67,.41,3.81-1.26,4.79l-.45,.26c-.27,.16-.55,.27-.84,.35-1.5,.4-3.13-.23-3.94-1.63Zm18.75-11.89c-.96-1.67-.39-3.81,1.29-4.78l.42-.24c1.67-.98,3.81-.41,4.79,1.26,.98,1.67,.41,3.81-1.26,4.79l-.45,.26c-.27,.16-.55,.27-.84,.35-1.5,.4-3.13-.23-3.94-1.63Zm18.76-9.84c-.96-1.67-.39-3.81,1.29-4.78l.41-.24c1.67-.98,3.81-.41,4.79,1.25,.98,1.67,.42,3.81-1.25,4.79l-.46,.26c-.27,.16-.55,.27-.84,.35-1.5,.4-3.13-.23-3.94-1.63Zm18.76-10.87c-.96-1.67-.39-3.81,1.29-4.78l.41-.24c1.67-.98,3.81-.41,4.79,1.25,.98,1.67,.42,3.81-1.25,4.79l-.46,.26c-.27,.16-.55,.27-.84,.35-1.5,.4-3.13-.23-3.94-1.63Zm18.77-10.87c-.96-1.67-.39-3.81,1.29-4.78l.42-.24c1.67-.98,3.81-.41,4.79,1.26,.98,1.67,.41,3.81-1.26,4.79l-.45,.26c-.27,.16-.55,.27-.84,.35-1.5,.4-3.13-.23-3.94-1.63Zm18.78-10.87c-.96-1.67-.39-3.81,1.29-4.78l.41-.24c1.67-.97,3.81-.41,4.79,1.25,.98,1.67,.42,3.81-1.25,4.79l-.46,.26c-.27,.16-.55,.27-.84,.35-1.5,.4-3.13-.23-3.94-1.63Zm18.79-10.88c-.96-1.67-.39-3.81,1.29-4.78l.41-.24c1.67-.98,3.81-.42,4.79,1.25,.98,1.67,.42,3.81-1.25,4.79l-.46,.26c-.27,.16-.55,.27-.84,.35-1.5,.4-3.13-.23-3.94-1.63Zm18.82-10.88c-.97-1.67-.4-3.81,1.27-4.78l.44-.25c1.67-.97,3.81-.4,4.78,1.28,.97,1.67,.4,3.81-1.28,4.78l-.43,.25c-.27,.16-.56,.28-.85,.35-1.49,.4-3.12-.22-3.94-1.62Zm-412.5,238.96c-.97-1.67-.39-3.81,1.28-4.78l.42-.24c1.67-.97,3.81-.41,4.79,1.26,.97,1.67,.41,3.81-1.26,4.79l-.45,.26c-.27,.16-.55,.27-.84,.35-1.49,.4-3.13-.23-3.94-1.63Z"/><path d="M712.81,1244.38c-.86-.23-1.64-.8-2.12-1.63-.96-1.67-.39-3.82,1.29-4.78l.44-.25c1.67-.96,3.81-.39,4.78,1.29,.96,1.67,.39,3.82-1.29,4.78l-.44,.25c-.84,.48-1.79,.58-2.66,.35Zm18.73-10.78c-.86-.23-1.64-.8-2.12-1.63-.96-1.67-.39-3.82,1.29-4.78l.44-.25c1.68-.96,3.82-.39,4.78,1.29,.96,1.67,.39,3.82-1.29,4.78l-.44,.25c-.84,.48-1.79,.58-2.66,.35Zm18.73-10.78c-.86-.23-1.64-.8-2.12-1.63-.96-1.67-.39-3.82,1.29-4.78l.44-.25c1.67-.96,3.81-.39,4.78,1.29,.96,1.67,.39,3.82-1.29,4.78l-.44,.25c-.84,.48-1.79,.58-2.66,.35Zm18.73-10.78c-.86-.23-1.64-.8-2.12-1.63-.96-1.67-.39-3.82,1.29-4.78l.44-.25c1.68-.96,3.82-.39,4.78,1.29,.96,1.67,.39,3.82-1.29,4.78l-.44,.25c-.84,.48-1.79,.58-2.66,.35Zm18.73-10.78c-.86-.23-1.64-.8-2.12-1.63-.96-1.67-.39-3.82,1.29-4.78l.44-.25c1.68-.96,3.82-.39,4.78,1.29,.96,1.67,.39,3.82-1.29,4.78l-.44,.25c-.84,.48-1.79,.58-2.66,.35Zm18.73-10.78c-.86-.23-1.64-.8-2.12-1.63-.96-1.67-.39-3.82,1.29-4.78l.44-.25c1.68-.96,3.81-.39,4.78,1.29,.96,1.67,.39,3.82-1.29,4.78l-.44,.25c-.84,.48-1.79,.58-2.66,.35Zm18.74-10.78c-.86-.23-1.64-.8-2.12-1.63-.96-1.67-.39-3.82,1.29-4.78l.44-.25c1.68-.96,3.81-.39,4.78,1.29,.96,1.67,.39,3.82-1.29,4.78l-.44,.25c-.84,.48-1.79,.58-2.66,.35Zm18.73-10.78c-.86-.23-1.64-.8-2.12-1.63-.96-1.67-.39-3.82,1.29-4.78l.44-.25c1.68-.96,3.81-.39,4.78,1.29,.96,1.67,.39,3.82-1.29,4.78l-.44,.25c-.84,.48-1.79,.58-2.66,.35Zm18.73-10.78c-.86-.23-1.64-.8-2.12-1.63-.96-1.67-.39-3.82,1.29-4.78l.44-.25c1.68-.96,3.81-.39,4.78,1.29,.96,1.67,.39,3.82-1.29,4.78l-.44,.25c-.84,.48-1.79,.58-2.66,.35Zm18.74-10.78c-.86-.23-1.64-.8-2.12-1.63-.96-1.67-.39-3.82,1.29-4.78l.44-.25c1.68-.96,3.81-.39,4.78,1.29,.96,1.67,.39,3.82-1.29,4.78l-.44,.25c-.84,.48-1.79,.58-2.66,.35Zm18.73-10.78c-.86-.23-1.64-.8-2.12-1.63-.96-1.67-.39-3.82,1.29-4.78l.44-.25c1.68-.96,3.81-.39,4.78,1.29,.96,1.67,.39,3.82-1.29,4.78l-.44,.25c-.84,.48-1.79,.58-2.66,.35Zm18.74-10.78c-.86-.23-1.64-.8-2.12-1.63-.96-1.67-.39-3.82,1.29-4.78l.44-.25c1.68-.96,3.81-.39,4.78,1.29,.96,1.67,.39,3.82-1.29,4.78l-.44,.25c-.84,.48-1.79,.58-2.66,.35Zm18.74-10.78c-.86-.23-1.64-.8-2.12-1.63-.96-1.67-.39-3.82,1.29-4.78l.44-.25c1.68-.96,3.81-.39,4.78,1.29,.96,1.67,.39,3.82-1.29,4.78l-.44,.25c-.84,.48-1.79,.58-2.66,.35Zm18.73-10.78c-.86-.23-1.64-.8-2.12-1.63-.96-1.67-.39-3.82,1.29-4.78l.44-.25c1.68-.96,3.81-.39,4.78,1.29,.96,1.67,.39,3.82-1.29,4.78l-.44,.25c-.84,.48-1.79,.58-2.66,.35Zm18.74-10.78c-.86-.23-1.64-.8-2.12-1.63-.96-1.67-.39-3.82,1.29-4.78l.44-.25c1.68-.96,3.81-.39,4.78,1.29,.96,1.67,.39,3.82-1.29,4.78l-.44,.25c-.84,.48-1.79,.58-2.66,.35Zm18.73-10.78c-.86-.23-1.64-.8-2.12-1.63-.96-1.67-.39-3.82,1.29-4.78l.44-.25c1.68-.96,3.81-.39,4.78,1.29,.96,1.67,.39,3.82-1.29,4.78l-.44,.25c-.84,.48-1.79,.58-2.66,.35Zm18.73-10.78c-.86-.23-1.64-.8-2.12-1.63-.96-1.67-.39-3.82,1.29-4.78l.44-.25c1.68-.96,3.81-.39,4.78,1.29,.96,1.67,.39,3.82-1.29,4.78l-.44,.25c-.84,.48-1.79,.58-2.66,.35Zm18.74-10.78c-.86-.23-1.64-.8-2.12-1.63-.96-1.67-.39-3.82,1.29-4.78l.44-.25c1.68-.96,3.81-.39,4.78,1.29,.96,1.67,.39,3.82-1.29,4.78l-.44,.25c-.84,.48-1.79,.58-2.66,.35Zm18.73-10.78c-.87-.23-1.64-.8-2.13-1.64-.96-1.68-.38-3.82,1.29-4.78l.44-.25c1.68-.96,3.82-.38,4.78,1.29,.96,1.68,.38,3.82-1.29,4.78l-.44,.25c-.84,.48-1.79,.58-2.65,.34Zm18.73-10.78c-.86-.23-1.64-.8-2.12-1.63-.96-1.67-.39-3.82,1.29-4.78l.44-.25c1.68-.96,3.81-.39,4.78,1.29,.96,1.67,.39,3.82-1.29,4.78l-.44,.25c-.84,.48-1.79,.58-2.66,.35Zm18.74-10.78c-.86-.23-1.64-.8-2.12-1.63-.96-1.67-.39-3.82,1.29-4.78l.44-.25c1.68-.96,3.81-.39,4.78,1.29,.96,1.67,.39,3.82-1.29,4.78l-.44,.25c-.84,.48-1.79,.58-2.66,.35Zm18.73-10.78c-.86-.23-1.64-.8-2.12-1.63-.96-1.67-.39-3.82,1.29-4.78l.44-.25c1.68-.96,3.81-.39,4.78,1.29,.96,1.67,.39,3.82-1.29,4.78l-.44,.25c-.84,.48-1.79,.58-2.66,.35Zm18.74-10.78c-.86-.23-1.64-.8-2.12-1.63-.96-1.67-.39-3.82,1.29-4.78l.44-.25c1.68-.96,3.81-.39,4.78,1.29,.96,1.67,.39,3.82-1.29,4.78l-.44,.25c-.84,.48-1.79,.58-2.66,.35Zm16.02-12.45c-.93-.25-1.75-.88-2.22-1.8-1.1-1.57-.73-3.73,.82-4.85,1.57-1.13,3.76-.77,4.88,.8,.21,.29,.4,.61,.56,.94,.85,1.74,.13,3.83-1.6,4.68-.79,.39-1.66,.45-2.45,.24Zm-37.38-22.24c-.29-.08-.57-.19-.84-.35l-.45-.26c-1.67-.97-2.23-3.12-1.26-4.79,.97-1.67,3.11-2.23,4.79-1.26l.42,.24c1.67,.97,2.25,3.11,1.28,4.78-.81,1.4-2.45,2.03-3.94,1.63Zm-18.79-10.89c-.29-.08-.57-.19-.84-.35l-.45-.26c-1.67-.97-2.23-3.12-1.26-4.79,.97-1.67,3.11-2.24,4.79-1.26l.42,.24c1.68,.96,2.25,3.1,1.29,4.78-.81,1.41-2.45,2.04-3.94,1.63Zm-18.77-10.88c-.29-.08-.57-.19-.84-.35l-.45-.26c-1.67-.97-2.23-3.12-1.26-4.79,.97-1.67,3.12-2.23,4.79-1.26l.42,.24c1.68,.96,2.25,3.1,1.29,4.78-.81,1.41-2.45,2.04-3.94,1.63Zm-18.76-10.87c-.29-.08-.57-.19-.84-.35l-.46-.26c-1.67-.98-2.23-3.12-1.25-4.79,.98-1.67,3.12-2.23,4.79-1.25l.41,.24c1.68,.96,2.25,3.1,1.29,4.78-.81,1.41-2.45,2.04-3.94,1.63Zm-18.76-10.87c-.29-.08-.57-.19-.84-.35l-.46-.26c-1.67-.98-2.23-3.12-1.25-4.79,.98-1.67,3.12-2.23,4.79-1.25l.41,.24c1.68,.96,2.25,3.1,1.29,4.78-.81,1.41-2.45,2.04-3.94,1.63Zm-18.75-10.87c-.29-.08-.57-.19-.84-.35l-.46-.26c-1.67-.98-2.23-3.12-1.25-4.79,.98-1.67,3.12-2.23,4.79-1.25l.41,.24c1.68,.96,2.25,3.1,1.29,4.78-.81,1.41-2.45,2.04-3.94,1.63Zm-18.75-10.87c-.29-.08-.57-.19-.84-.35l-.46-.26c-1.67-.98-2.23-3.12-1.25-4.79s3.12-2.23,4.79-1.25l.41,.24c1.68,.96,2.25,3.1,1.29,4.78-.81,1.41-2.45,2.04-3.94,1.63Zm-18.75-10.86c-.29-.08-.57-.19-.84-.35l-.46-.26c-1.67-.98-2.23-3.12-1.25-4.79s3.12-2.23,4.79-1.25l.41,.24c1.68,.96,2.25,3.1,1.29,4.78-.81,1.41-2.45,2.04-3.94,1.63Zm-18.75-10.86c-.29-.08-.57-.19-.84-.35l-.46-.26c-1.67-.98-2.23-3.12-1.25-4.79,.98-1.67,3.12-2.23,4.79-1.25l.41,.24c1.68,.96,2.25,3.1,1.29,4.78-.81,1.41-2.45,2.04-3.94,1.63Zm-18.75-10.86c-.29-.08-.57-.19-.84-.35l-.45-.26c-1.67-.97-2.23-3.12-1.26-4.79,.97-1.67,3.11-2.23,4.79-1.26l.42,.24c1.68,.96,2.25,3.1,1.29,4.78-.81,1.41-2.45,2.04-3.94,1.63Zm-37.51-21.73c-.29-.08-.57-.19-.84-.35l-.46-.26c-1.67-.98-2.23-3.12-1.25-4.79,.98-1.67,3.12-2.23,4.79-1.25l.41,.24c1.68,.96,2.25,3.1,1.29,4.78-.81,1.41-2.45,2.04-3.94,1.63Zm-18.75-10.86c-.29-.08-.57-.19-.84-.35l-.45-.26c-1.67-.97-2.23-3.12-1.26-4.79,.97-1.67,3.12-2.23,4.79-1.26l.42,.24c1.67,.96,2.25,3.1,1.29,4.78-.81,1.41-2.45,2.04-3.94,1.63Zm-18.75-10.86c-.29-.08-.57-.19-.84-.35l-.45-.26c-1.67-.97-2.23-3.12-1.26-4.79,.98-1.67,3.12-2.24,4.79-1.26l.42,.24c1.67,.96,2.25,3.1,1.29,4.78-.81,1.41-2.45,2.04-3.94,1.63Zm-18.75-10.86c-.29-.08-.57-.19-.84-.35l-.45-.26c-1.67-.97-2.23-3.12-1.26-4.79,.98-1.67,3.12-2.23,4.79-1.26l.42,.24c1.67,.96,2.25,3.1,1.29,4.78-.81,1.41-2.45,2.04-3.94,1.63Zm-37.51-21.73c-.29-.08-.57-.19-.84-.35l-.46-.26c-1.67-.98-2.23-3.12-1.25-4.79,.98-1.67,3.12-2.23,4.79-1.25l.41,.24c1.67,.96,2.25,3.1,1.29,4.78-.81,1.41-2.45,2.04-3.94,1.63Zm-18.76-10.87c-.29-.08-.57-.19-.84-.35l-.46-.26c-1.67-.98-2.23-3.12-1.25-4.79,.98-1.67,3.12-2.23,4.79-1.25l.41,.24c1.67,.96,2.25,3.1,1.29,4.78-.81,1.41-2.45,2.04-3.94,1.63Zm-18.77-10.87c-.29-.08-.57-.19-.84-.35l-.45-.26c-1.67-.97-2.23-3.12-1.26-4.79,.98-1.67,3.12-2.23,4.79-1.26l.42,.24c1.67,.96,2.25,3.1,1.29,4.78-.81,1.41-2.45,2.04-3.94,1.63Zm-18.78-10.87c-.29-.08-.57-.19-.84-.35l-.46-.26c-1.67-.98-2.23-3.12-1.25-4.79,.98-1.67,3.12-2.23,4.79-1.25l.41,.24c1.68,.96,2.25,3.1,1.29,4.78-.81,1.41-2.45,2.04-3.94,1.63Zm-18.79-10.88c-.29-.08-.57-.19-.84-.35l-.46-.26c-1.67-.98-2.23-3.12-1.25-4.79,.98-1.67,3.12-2.23,4.79-1.25l.41,.24c1.67,.96,2.25,3.1,1.29,4.78-.81,1.41-2.45,2.04-3.94,1.63Zm-18.81-10.89c-.29-.08-.58-.2-.85-.35l-.43-.25c-1.67-.97-2.24-3.11-1.28-4.78,.97-1.67,3.11-2.24,4.78-1.28l.44,.25c1.67,.97,2.24,3.11,1.27,4.78-.81,1.4-2.45,2.02-3.94,1.62Zm412.5,238.97c-.29-.08-.57-.19-.84-.35l-.45-.26c-1.67-.97-2.23-3.12-1.26-4.79,.97-1.67,3.11-2.23,4.79-1.26l.42,.24c1.67,.97,2.25,3.11,1.28,4.78-.81,1.4-2.45,2.03-3.94,1.63Z"/></g><g><path d="M693.4,959.81l-.44-.25c-1.68-.96-2.25-3.1-1.29-4.78,.96-1.68,3.1-2.25,4.78-1.29l.44,.25c1.68,.96,2.25,3.1,1.29,4.78-.48,.84-1.26,1.4-2.12,1.63s-1.82,.14-2.66-.35Zm-18.74-10.78l-.44-.25c-1.68-.96-2.25-3.1-1.29-4.78,.96-1.68,3.1-2.25,4.78-1.29l.44,.25c1.68,.96,2.25,3.1,1.29,4.78-.48,.84-1.26,1.4-2.12,1.63-.86,.23-1.82,.14-2.66-.35Zm21.05-9.08c-1.93,0-3.5-1.57-3.49-3.51v-.5c0-1.93,1.57-3.5,3.5-3.5,1.93,0,3.5,1.57,3.5,3.5v.51c0,1.61-1.1,2.97-2.59,3.37-.29,.08-.6,.12-.92,.12Zm-39.79-1.7l-.44-.25c-1.68-.96-2.25-3.1-1.29-4.78,.96-1.68,3.1-2.25,4.78-1.29l.44,.25c1.68,.96,2.25,3.1,1.29,4.78-.48,.84-1.26,1.4-2.12,1.63s-1.82,.14-2.66-.35Zm39.79-20.03c-1.93,0-3.51-1.55-3.51-3.48v-.51c0-1.93,1.56-3.5,3.49-3.51,1.93,0,3.5,1.56,3.51,3.5v.49c0,1.62-1.09,2.99-2.59,3.39-.29,.08-.59,.12-.9,.12Zm-58.52,9.25l-.44-.25c-1.68-.96-2.25-3.1-1.29-4.78,.96-1.68,3.1-2.25,4.78-1.29l.44,.25c1.68,.96,2.25,3.1,1.29,4.78-.48,.84-1.26,1.4-2.12,1.63s-1.82,.14-2.66-.35Zm-18.73-10.78l-.44-.25c-1.68-.96-2.25-3.1-1.29-4.78,.96-1.68,3.1-2.25,4.78-1.29l.44,.25c1.68,.96,2.25,3.1,1.29,4.78-.48,.84-1.26,1.4-2.12,1.63s-1.82,.14-2.66-.35Zm77.21-20.18c-1.93,0-3.5-1.57-3.5-3.5v-.5c0-1.93,1.56-3.5,3.49-3.51,1.93,0,3.5,1.56,3.51,3.5v.51c0,1.62-1.1,2.98-2.59,3.38-.29,.08-.6,.12-.91,.12Zm-95.95,9.4l-.44-.25c-1.68-.96-2.25-3.1-1.29-4.78,.96-1.68,3.1-2.25,4.78-1.29l.44,.25c1.68,.96,2.25,3.1,1.29,4.78-.48,.84-1.26,1.4-2.12,1.63s-1.82,.14-2.66-.35Zm95.92-31.1c-1.93,0-3.5-1.57-3.5-3.5v-.5c0-1.93,1.56-3.5,3.49-3.51,1.93,0,3.5,1.56,3.51,3.5v.51c0,1.62-1.1,2.98-2.59,3.38-.29,.08-.6,.12-.91,.12Zm-114.65,20.32l-.44-.25c-1.68-.96-2.25-3.1-1.29-4.78,.96-1.68,3.1-2.25,4.78-1.29l.44,.25c1.68,.96,2.25,3.1,1.29,4.78-.48,.84-1.26,1.4-2.12,1.63s-1.82,.14-2.66-.35Zm114.63-42.01c-1.93,0-3.5-1.56-3.51-3.5v-.5c0-1.93,1.56-3.5,3.49-3.51,1.93,0,3.5,1.56,3.51,3.5v.5c0,1.62-1.09,2.98-2.59,3.38-.29,.08-.59,.12-.91,.12Zm-133.36,31.23l-.44-.25c-1.68-.96-2.25-3.1-1.29-4.78,.96-1.68,3.1-2.25,4.78-1.29l.44,.25c1.68,.96,2.25,3.1,1.29,4.78-.48,.84-1.26,1.4-2.12,1.63s-1.82,.14-2.66-.35Zm-18.73-10.78l-.44-.25c-1.68-.96-2.25-3.1-1.29-4.78,.96-1.68,3.1-2.25,4.78-1.29l.44,.25c1.68,.96,2.25,3.1,1.29,4.78-.48,.84-1.26,1.4-2.12,1.63s-1.82,.14-2.66-.35Zm152.07-42.13c-1.93,0-3.5-1.56-3.51-3.5v-.5c0-1.93,1.57-3.5,3.49-3.5,1.93,0,3.5,1.56,3.51,3.5v.5c0,1.62-1.09,2.98-2.59,3.38-.29,.08-.59,.12-.91,.12Zm-170.8,31.35l-.44-.25c-1.68-.96-2.25-3.1-1.29-4.78,.96-1.68,3.1-2.25,4.78-1.29l.44,.25c1.68,.96,2.25,3.1,1.29,4.78-.48,.84-1.26,1.4-2.12,1.63s-1.82,.14-2.66-.35Zm-18.74-10.78l-.44-.25c-1.68-.96-2.25-3.1-1.29-4.78,.96-1.68,3.1-2.25,4.78-1.29l.44,.25c1.68,.96,2.25,3.1,1.29,4.78-.48,.84-1.26,1.4-2.12,1.63s-1.82,.14-2.66-.35Zm189.47-63.91c-1.93,0-3.5-1.57-3.5-3.5v-.5c0-1.93,1.56-3.5,3.49-3.51,1.93,0,3.5,1.56,3.51,3.5v.51c0,1.62-1.1,2.98-2.59,3.38-.29,.08-.6,.12-.91,.12Zm-208.2,53.14l-.44-.25c-1.68-.96-2.25-3.1-1.29-4.78,.96-1.68,3.1-2.25,4.78-1.29l.44,.25c1.68,.96,2.25,3.1,1.29,4.78-.48,.84-1.26,1.4-2.12,1.63-.86,.23-1.82,.14-2.66-.35Zm-18.74-10.78l-.44-.25c-1.68-.96-2.25-3.1-1.29-4.78,.96-1.68,3.1-2.25,4.78-1.29l.44,.25c1.68,.96,2.25,3.1,1.29,4.78-.48,.84-1.26,1.4-2.12,1.63-.86,.23-1.82,.14-2.66-.35Zm226.92-64.02c-1.93,0-3.5-1.56-3.51-3.49v-.51c0-1.93,1.56-3.5,3.49-3.51,1.93,0,3.5,1.56,3.51,3.5v.5c0,1.62-1.09,2.99-2.59,3.39-.29,.08-.59,.12-.9,.12Zm-245.65,53.24l-.44-.25c-1.68-.96-2.25-3.1-1.29-4.78,.96-1.68,3.1-2.25,4.78-1.29l.44,.25c1.68,.96,2.25,3.1,1.29,4.78-.48,.84-1.26,1.4-2.12,1.63s-1.82,.14-2.66-.35Zm245.62-74.91c-1.93,0-3.5-1.56-3.51-3.49v-.51c0-1.93,1.56-3.5,3.49-3.51,1.93,0,3.5,1.56,3.51,3.5v.5c0,1.62-1.09,2.99-2.59,3.39-.29,.08-.59,.12-.9,.12Zm-264.35,64.13l-.44-.25c-1.68-.96-2.25-3.1-1.29-4.78,.96-1.68,3.1-2.25,4.78-1.29l.44,.25c1.68,.96,2.25,3.1,1.29,4.78-.48,.84-1.26,1.4-2.12,1.63s-1.82,.14-2.66-.35Zm264.32-85.8c-1.93,0-3.5-1.56-3.51-3.49v-.51c0-1.93,1.56-3.5,3.49-3.51,1.93,0,3.5,1.56,3.51,3.5v.5c0,1.62-1.09,2.99-2.59,3.39-.29,.08-.59,.12-.9,.12Zm-283.05,75.02l-.44-.25c-1.68-.96-2.25-3.1-1.29-4.78,.96-1.68,3.1-2.25,4.78-1.29l.44,.25c1.68,.96,2.25,3.1,1.29,4.78-.48,.84-1.26,1.4-2.12,1.63s-1.82,.14-2.66-.35Zm-18.73-10.78l-.44-.25c-1.68-.96-2.25-3.1-1.29-4.78,.96-1.68,3.1-2.25,4.78-1.29l.44,.25c1.68,.96,2.25,3.1,1.29,4.78-.48,.84-1.26,1.4-2.12,1.63s-1.82,.14-2.66-.35Zm301.76-85.9c-1.93,0-3.5-1.56-3.51-3.49v-.51c0-1.93,1.56-3.5,3.49-3.51,1.93,0,3.5,1.56,3.51,3.5v.5c0,1.62-1.09,2.99-2.59,3.39-.29,.08-.59,.12-.9,.12Zm-320.49,75.13l-.44-.25c-1.68-.96-2.25-3.1-1.29-4.78,.96-1.68,3.1-2.25,4.78-1.29l.44,.25c1.68,.96,2.25,3.1,1.29,4.78-.48,.84-1.26,1.4-2.12,1.63s-1.82,.14-2.66-.35Zm320.45-96.8c-1.93,0-3.5-1.56-3.51-3.5v-.5c0-1.93,1.56-3.5,3.49-3.51,1.93,0,3.5,1.56,3.51,3.5v.5c0,1.62-1.09,2.98-2.59,3.38-.29,.08-.59,.12-.91,.12Zm-339.19,86.02l-.44-.25c-1.68-.96-2.25-3.1-1.29-4.78,.96-1.68,3.1-2.25,4.78-1.29l.44,.25c1.68,.96,2.25,3.1,1.29,4.78-.48,.84-1.26,1.4-2.12,1.63s-1.82,.14-2.66-.35Zm-18.73-10.78l-.44-.25c-1.68-.96-2.26-3.1-1.29-4.78,.96-1.68,3.1-2.25,4.78-1.29l.44,.25c1.68,.96,2.26,3.1,1.29,4.78-.48,.84-1.26,1.4-2.13,1.64-.86,.23-1.82,.14-2.65-.34Zm357.89-96.91c-1.93,0-3.5-1.56-3.51-3.49v-.51c0-1.93,1.56-3.5,3.49-3.51,1.93,0,3.5,1.56,3.51,3.5v.5c0,1.62-1.09,2.99-2.59,3.39-.29,.08-.59,.12-.9,.12Zm-376.63,86.13l-.44-.25c-1.68-.96-2.25-3.1-1.29-4.78,.96-1.68,3.1-2.25,4.78-1.29l.44,.25c1.68,.96,2.25,3.1,1.29,4.78-.48,.84-1.26,1.4-2.12,1.63s-1.82,.14-2.66-.35Zm376.6-107.8c-1.93,0-3.5-1.56-3.51-3.49v-.51c0-1.93,1.56-3.5,3.49-3.51,1.93,0,3.5,1.56,3.51,3.5v.5c0,1.62-1.09,2.99-2.59,3.39-.29,.08-.59,.12-.9,.12Zm-395.33,97.02l-.44-.25c-1.68-.96-2.25-3.1-1.29-4.78,.96-1.68,3.1-2.25,4.78-1.29l.44,.25c1.68,.96,2.25,3.1,1.29,4.78-.48,.84-1.26,1.4-2.12,1.63s-1.82,.14-2.66-.35Zm395.3-118.69c-1.93,0-3.5-1.56-3.51-3.49v-.51c0-1.93,1.56-3.5,3.49-3.51,1.93,0,3.5,1.56,3.51,3.5v.5c0,1.62-1.09,2.99-2.59,3.39-.29,.08-.59,.12-.9,.12Zm-414.03,107.91l-.44-.25c-1.68-.96-2.25-3.1-1.29-4.78,.96-1.68,3.1-2.25,4.78-1.29l.44,.25c1.68,.96,2.25,3.1,1.29,4.78-.48,.84-1.26,1.4-2.12,1.63s-1.82,.14-2.66-.35Zm-18.74-10.78l-.44-.25c-1.68-.96-2.25-3.1-1.29-4.78,.96-1.68,3.1-2.25,4.78-1.29l.44,.25c1.68,.96,2.25,3.1,1.29,4.78-.48,.84-1.26,1.4-2.12,1.63s-1.82,.14-2.66-.35Zm-15.82-12.34c-1.74-.85-2.45-2.95-1.6-4.68,.16-.33,.35-.64,.56-.94,1.13-1.57,3.32-1.93,4.88-.8,1.56,1.12,1.92,3.28,.82,4.85-.46,.92-1.29,1.55-2.22,1.8-.79,.21-1.66,.15-2.45-.24Zm448.52-128.14c-1.93,0-3.5-1.56-3.51-3.49v-.51c0-1.93,1.56-3.5,3.49-3.51,1.93,0,3.5,1.56,3.51,3.5v.5c0,1.62-1.09,2.99-2.59,3.39-.29,.08-.59,.12-.9,.12Zm-412.62,104.51c-.97-1.67-.39-3.81,1.28-4.78l.42-.24c1.67-.97,3.81-.41,4.79,1.26,.97,1.67,.41,3.81-1.26,4.79l-.45,.26c-.27,.16-.55,.27-.84,.35-1.49,.4-3.13-.23-3.94-1.63Zm18.78-10.89c-.97-1.67-.39-3.81,1.29-4.78l.42-.24c1.67-.98,3.81-.41,4.79,1.26,.97,1.67,.41,3.81-1.26,4.79l-.45,.26c-.27,.16-.55,.27-.84,.35-1.5,.4-3.13-.23-3.94-1.63Zm18.77-10.88c-.97-1.67-.39-3.81,1.29-4.78l.42-.24c1.67-.97,3.81-.41,4.79,1.26,.97,1.67,.41,3.81-1.26,4.79l-.45,.26c-.27,.16-.55,.27-.84,.35-1.5,.4-3.13-.23-3.94-1.63Zm18.76-10.87c-.97-1.67-.39-3.81,1.29-4.78l.41-.24c1.67-.98,3.81-.42,4.79,1.25,.98,1.67,.42,3.81-1.25,4.79l-.46,.26c-.27,.16-.55,.27-.84,.35-1.5,.4-3.13-.23-3.94-1.63Zm356.27-93.55c-1.93,0-3.5-1.56-3.51-3.49v-.51c0-1.93,1.56-3.5,3.49-3.51,1.93,0,3.5,1.56,3.51,3.5v.5c0,1.62-1.09,2.99-2.59,3.39-.29,.08-.59,.12-.9,.12Zm-337.51,82.68c-.97-1.67-.39-3.81,1.29-4.78l.41-.24c1.67-.98,3.81-.42,4.79,1.25,.98,1.67,.42,3.81-1.25,4.79l-.46,.26c-.27,.16-.55,.27-.84,.35-1.5,.4-3.13-.23-3.94-1.63Zm18.75-10.87c-.97-1.67-.39-3.81,1.29-4.78l.41-.24c1.67-.98,3.81-.42,4.79,1.25s.42,3.81-1.25,4.79l-.46,.26c-.27,.16-.55,.27-.84,.35-1.5,.4-3.13-.23-3.94-1.63Zm18.75-10.87c-.97-1.67-.39-3.81,1.29-4.78l.41-.24c1.67-.98,3.81-.42,4.79,1.25,.98,1.67,.42,3.81-1.25,4.79l-.46,.26c-.27,.16-.55,.27-.84,.35-1.5,.4-3.13-.23-3.94-1.63Zm299.97-82.63c-1.93,0-3.51-1.55-3.51-3.48v-.51c0-1.93,1.56-3.5,3.49-3.5,1.93,0,3.5,1.56,3.51,3.5v.49c0,1.62-1.09,2.99-2.59,3.39-.29,.08-.59,.12-.9,.12Zm-281.22,71.77c-.97-1.67-.39-3.81,1.29-4.78l.41-.24c1.67-.98,3.81-.42,4.79,1.25s.42,3.81-1.25,4.79l-.46,.26c-.27,.16-.55,.27-.84,.35-1.5,.4-3.13-.23-3.94-1.63Zm18.75-10.86c-.97-1.67-.39-3.81,1.29-4.78l.41-.24c1.67-.98,3.81-.42,4.79,1.25,.98,1.67,.42,3.81-1.25,4.79l-.46,.26c-.27,.16-.55,.27-.84,.35-1.5,.4-3.13-.23-3.94-1.63Zm18.75-10.86c-.97-1.67-.39-3.81,1.29-4.78l.42-.24c1.67-.97,3.81-.41,4.79,1.26,.97,1.67,.41,3.81-1.26,4.79l-.45,.26c-.27,.16-.55,.27-.84,.35-1.5,.4-3.13-.23-3.94-1.63Zm18.76-10.87c-.97-1.67-.39-3.81,1.29-4.78l.41-.24c1.67-.98,3.81-.42,4.79,1.25,.98,1.67,.42,3.81-1.25,4.79l-.46,.26c-.27,.16-.55,.27-.84,.35-1.5,.4-3.13-.23-3.94-1.63Zm224.94-60.87c-1.93,0-3.51-1.55-3.51-3.48v-.51c0-1.93,1.56-3.5,3.49-3.5,1.93,0,3.5,1.56,3.51,3.5v.49c0,1.62-1.09,2.99-2.59,3.39-.29,.08-.59,.12-.9,.12Zm-206.19,50.01c-.97-1.67-.39-3.81,1.29-4.78l.41-.24c1.67-.98,3.81-.42,4.79,1.25,.98,1.67,.42,3.81-1.25,4.79l-.46,.26c-.27,.16-.55,.27-.84,.35-1.5,.4-3.13-.23-3.94-1.63Zm18.75-10.86c-.96-1.67-.39-3.81,1.29-4.78l.42-.24c1.67-.97,3.81-.41,4.79,1.26,.97,1.67,.41,3.81-1.26,4.79l-.45,.26c-.27,.16-.55,.27-.84,.35-1.5,.4-3.13-.23-3.94-1.63Zm18.75-10.86c-.96-1.67-.39-3.81,1.29-4.78l.42-.24c1.67-.98,3.81-.41,4.79,1.26,.98,1.67,.41,3.81-1.26,4.79l-.45,.26c-.27,.16-.55,.27-.84,.35-1.5,.4-3.13-.23-3.94-1.63Zm18.75-10.86c-.96-1.67-.39-3.81,1.29-4.78l.42-.24c1.67-.98,3.81-.41,4.79,1.26,.98,1.67,.41,3.81-1.26,4.79l-.45,.26c-.27,.16-.55,.27-.84,.35-1.5,.4-3.13-.23-3.94-1.63Zm149.9-39.13c-1.93,0-3.5-1.56-3.51-3.5v-.51c0-1.93,1.56-3.5,3.5-3.5,1.93,0,3.5,1.57,3.5,3.5v.5c0,1.62-1.09,2.98-2.59,3.38-.29,.08-.59,.12-.91,.12Zm-131.15,28.27c-.96-1.67-.39-3.81,1.29-4.78l.42-.24c1.67-.98,3.81-.41,4.79,1.26,.98,1.67,.41,3.81-1.26,4.79l-.45,.26c-.27,.16-.55,.27-.84,.35-1.5,.4-3.13-.23-3.94-1.63Zm18.76-10.86c-.96-1.67-.39-3.81,1.29-4.78l.41-.24c1.67-.98,3.81-.41,4.79,1.25,.98,1.67,.42,3.81-1.25,4.79l-.46,.26c-.27,.16-.55,.27-.84,.35-1.5,.4-3.13-.23-3.94-1.63Zm18.76-10.87c-.96-1.67-.39-3.81,1.29-4.78l.41-.24c1.67-.98,3.81-.41,4.79,1.25,.98,1.67,.42,3.81-1.25,4.79l-.46,.26c-.27,.16-.55,.27-.84,.35-1.5,.4-3.13-.23-3.94-1.63Zm93.6-28.27c-1.93,0-3.5-1.56-3.51-3.49v-.5c0-1.93,1.56-3.5,3.49-3.51,1.93,0,3.5,1.56,3.51,3.49v.5c0,1.62-1.09,2.99-2.59,3.39-.29,.08-.59,.12-.9,.12Zm-74.84,17.4c-.96-1.67-.39-3.81,1.29-4.78l.42-.24c1.67-.98,3.81-.41,4.79,1.26,.98,1.67,.41,3.81-1.26,4.79l-.45,.26c-.27,.16-.55,.27-.84,.35-1.5,.4-3.13-.23-3.94-1.63Zm18.78-10.87c-.96-1.67-.39-3.81,1.29-4.78l.41-.24c1.67-.97,3.81-.41,4.79,1.25,.98,1.67,.42,3.81-1.25,4.79l-.46,.26c-.27,.16-.55,.27-.84,.35-1.5,.4-3.13-.23-3.94-1.63Zm18.79-10.88c-.96-1.67-.39-3.81,1.29-4.78l.41-.24c1.67-.98,3.81-.42,4.79,1.25,.98,1.67,.42,3.81-1.25,4.79l-.46,.26c-.27,.16-.55,.27-.84,.35-1.5,.4-3.13-.23-3.94-1.63Zm18.82-10.88c-.97-1.67-.4-3.81,1.27-4.78l.44-.25c1.67-.97,3.81-.4,4.78,1.28,.97,1.67,.4,3.81-1.28,4.78l-.43,.25c-.27,.16-.56,.28-.85,.35-1.49,.4-3.12-.22-3.94-1.62Zm18.4-6.61c-1.93,0-3.5-1.57-3.5-3.5v-.1c0-2.7,1.62-3.54,2.59-3.8,1.87-.5,3.79,.6,4.29,2.47,.09,.34,.13,.67,.12,1v.44c0,1.62-1.1,2.98-2.59,3.38-.29,.08-.6,.12-.92,.12Zm-430.91,245.58c-.97-1.67-.39-3.81,1.28-4.78l.42-.24c1.67-.97,3.81-.41,4.79,1.26,.97,1.67,.41,3.81-1.26,4.79l-.45,.26c-.27,.16-.55,.27-.84,.35-1.49,.4-3.13-.23-3.94-1.63Z"/><path d="M713.81,948.65c-.86-.23-1.64-.8-2.12-1.63-.96-1.67-.39-3.82,1.29-4.78l.44-.25c1.67-.96,3.81-.39,4.78,1.29,.96,1.67,.39,3.82-1.29,4.78l-.44,.25c-.84,.48-1.79,.58-2.66,.35Zm18.73-10.78c-.86-.23-1.64-.8-2.12-1.63-.96-1.67-.39-3.82,1.29-4.78l.44-.25c1.68-.96,3.82-.39,4.78,1.29,.96,1.67,.39,3.82-1.29,4.78l-.44,.25c-.84,.48-1.79,.58-2.66,.35Zm18.73-10.78c-.86-.23-1.64-.8-2.12-1.63-.96-1.67-.39-3.82,1.29-4.78l.44-.25c1.67-.96,3.81-.39,4.78,1.29,.96,1.67,.39,3.82-1.29,4.78l-.44,.25c-.84,.48-1.79,.58-2.66,.35Zm18.73-10.78c-.86-.23-1.64-.8-2.12-1.63-.96-1.67-.39-3.82,1.29-4.78l.44-.25c1.68-.96,3.82-.39,4.78,1.29,.96,1.67,.39,3.82-1.29,4.78l-.44,.25c-.84,.48-1.79,.58-2.66,.35Zm18.73-10.78c-.86-.23-1.64-.8-2.12-1.63-.96-1.67-.39-3.82,1.29-4.78l.44-.25c1.68-.96,3.82-.39,4.78,1.29,.96,1.67,.39,3.82-1.29,4.78l-.44,.25c-.84,.48-1.79,.58-2.66,.35Zm18.73-10.78c-.86-.23-1.64-.8-2.12-1.63-.96-1.67-.39-3.82,1.29-4.78l.44-.25c1.68-.96,3.81-.39,4.78,1.29,.96,1.67,.39,3.82-1.29,4.78l-.44,.25c-.84,.48-1.79,.58-2.66,.35Zm18.74-10.78c-.86-.23-1.64-.8-2.12-1.63-.96-1.67-.39-3.82,1.29-4.78l.44-.25c1.68-.96,3.81-.39,4.78,1.29,.96,1.67,.39,3.82-1.29,4.78l-.44,.25c-.84,.48-1.79,.58-2.66,.35Zm18.73-10.78c-.86-.23-1.64-.8-2.12-1.63-.96-1.67-.39-3.82,1.29-4.78l.44-.25c1.68-.96,3.81-.39,4.78,1.29,.96,1.67,.39,3.82-1.29,4.78l-.44,.25c-.84,.48-1.79,.58-2.66,.35Zm18.73-10.78c-.86-.23-1.64-.8-2.12-1.63-.96-1.67-.39-3.82,1.29-4.78l.44-.25c1.68-.96,3.81-.39,4.78,1.29,.96,1.67,.39,3.82-1.29,4.78l-.44,.25c-.84,.48-1.79,.58-2.66,.35Zm18.74-10.78c-.86-.23-1.64-.8-2.12-1.63-.96-1.67-.39-3.82,1.29-4.78l.44-.25c1.68-.96,3.81-.39,4.78,1.29,.96,1.67,.39,3.82-1.29,4.78l-.44,.25c-.84,.48-1.79,.58-2.66,.35Zm18.73-10.78c-.86-.23-1.64-.8-2.12-1.63-.96-1.67-.39-3.82,1.29-4.78l.44-.25c1.68-.96,3.81-.39,4.78,1.29,.96,1.67,.39,3.82-1.29,4.78l-.44,.25c-.84,.48-1.79,.58-2.66,.35Zm18.74-10.78c-.86-.23-1.64-.8-2.12-1.63-.96-1.67-.39-3.82,1.29-4.78l.44-.25c1.68-.96,3.81-.39,4.78,1.29,.96,1.67,.39,3.82-1.29,4.78l-.44,.25c-.84,.48-1.79,.58-2.66,.35Zm18.74-10.78c-.86-.23-1.64-.8-2.12-1.63-.96-1.67-.39-3.82,1.29-4.78l.44-.25c1.68-.96,3.81-.39,4.78,1.29,.96,1.67,.39,3.82-1.29,4.78l-.44,.25c-.84,.48-1.79,.58-2.66,.35Zm18.73-10.78c-.86-.23-1.64-.8-2.12-1.63-.96-1.67-.39-3.82,1.29-4.78l.44-.25c1.68-.96,3.81-.39,4.78,1.29,.96,1.67,.39,3.82-1.29,4.78l-.44,.25c-.84,.48-1.79,.58-2.66,.35Zm18.74-10.78c-.86-.23-1.64-.8-2.12-1.63-.96-1.67-.39-3.82,1.29-4.78l.44-.25c1.68-.96,3.81-.39,4.78,1.29,.96,1.67,.39,3.82-1.29,4.78l-.44,.25c-.84,.48-1.79,.58-2.66,.35Zm18.73-10.78c-.86-.23-1.64-.8-2.12-1.63-.96-1.67-.39-3.82,1.29-4.78l.44-.25c1.68-.96,3.81-.39,4.78,1.29,.96,1.67,.39,3.82-1.29,4.78l-.44,.25c-.84,.48-1.79,.58-2.66,.35Zm18.73-10.78c-.86-.23-1.64-.8-2.12-1.63-.96-1.67-.39-3.82,1.29-4.78l.44-.25c1.68-.96,3.81-.39,4.78,1.29,.96,1.67,.39,3.82-1.29,4.78l-.44,.25c-.84,.48-1.79,.58-2.66,.35Zm18.74-10.78c-.86-.23-1.64-.8-2.12-1.63-.96-1.67-.39-3.82,1.29-4.78l.44-.25c1.68-.96,3.81-.39,4.78,1.29,.96,1.67,.39,3.82-1.29,4.78l-.44,.25c-.84,.48-1.79,.58-2.66,.35Zm18.73-10.78c-.87-.23-1.64-.8-2.13-1.64-.96-1.68-.38-3.82,1.29-4.78l.44-.25c1.68-.96,3.82-.38,4.78,1.29,.96,1.68,.38,3.82-1.29,4.78l-.44,.25c-.84,.48-1.79,.58-2.65,.34Zm18.73-10.78c-.86-.23-1.64-.8-2.12-1.63-.96-1.67-.39-3.82,1.29-4.78l.44-.25c1.68-.96,3.81-.39,4.78,1.29,.96,1.67,.39,3.82-1.29,4.78l-.44,.25c-.84,.48-1.79,.58-2.66,.35Zm18.74-10.78c-.86-.23-1.64-.8-2.12-1.63-.96-1.67-.39-3.82,1.29-4.78l.44-.25c1.68-.96,3.81-.39,4.78,1.29,.96,1.67,.39,3.82-1.29,4.78l-.44,.25c-.84,.48-1.79,.58-2.66,.35Zm18.73-10.78c-.86-.23-1.64-.8-2.12-1.63-.96-1.67-.39-3.82,1.29-4.78l.44-.25c1.68-.96,3.81-.39,4.78,1.29,.96,1.67,.39,3.82-1.29,4.78l-.44,.25c-.84,.48-1.79,.58-2.66,.35Zm18.74-10.78c-.86-.23-1.64-.8-2.12-1.63-.96-1.67-.39-3.82,1.29-4.78l.44-.25c1.68-.96,3.81-.39,4.78,1.29,.96,1.67,.39,3.82-1.29,4.78l-.44,.25c-.84,.48-1.79,.58-2.66,.35Zm16.02-12.45c-.93-.25-1.75-.88-2.22-1.8-1.1-1.57-.73-3.73,.82-4.85,1.57-1.13,3.76-.77,4.88,.8,.21,.29,.4,.61,.56,.94,.85,1.74,.13,3.83-1.6,4.68-.79,.39-1.66,.45-2.45,.24Zm-37.38-22.24c-.29-.08-.57-.19-.84-.35l-.45-.26c-1.67-.97-2.23-3.12-1.26-4.79,.97-1.67,3.11-2.23,4.79-1.26l.42,.24c1.67,.97,2.25,3.11,1.28,4.78-.81,1.4-2.45,2.03-3.94,1.63Zm-18.79-10.89c-.29-.08-.57-.19-.84-.35l-.45-.26c-1.67-.97-2.23-3.12-1.26-4.79,.97-1.67,3.11-2.24,4.79-1.26l.42,.24c1.68,.96,2.25,3.1,1.29,4.78-.81,1.41-2.45,2.04-3.94,1.63Zm-18.77-10.88c-.29-.08-.57-.19-.84-.35l-.45-.26c-1.67-.97-2.23-3.12-1.26-4.79,.97-1.67,3.12-2.23,4.79-1.26l.42,.24c1.68,.96,2.25,3.1,1.29,4.78-.81,1.41-2.45,2.04-3.94,1.63Zm-18.76-10.87c-.29-.08-.57-.19-.84-.35l-.46-.26c-1.67-.98-2.23-3.12-1.25-4.79s3.12-2.23,4.79-1.25l.41,.24c1.68,.96,2.25,3.1,1.29,4.78-.81,1.41-2.45,2.04-3.94,1.63Zm-18.76-10.87c-.29-.08-.57-.19-.84-.35l-.46-.26c-1.67-.98-2.23-3.12-1.25-4.79,.98-1.67,3.12-2.23,4.79-1.25l.41,.24c1.68,.96,2.25,3.1,1.29,4.78-.81,1.41-2.45,2.04-3.94,1.63Zm-18.75-10.87c-.29-.08-.57-.19-.84-.35l-.46-.26c-1.67-.98-2.23-3.12-1.25-4.79s3.12-2.23,4.79-1.25l.41,.24c1.68,.96,2.25,3.1,1.29,4.78-.81,1.41-2.45,2.04-3.94,1.63Zm-18.75-10.87c-.29-.08-.57-.19-.84-.35l-.46-.26c-1.67-.98-2.23-3.12-1.25-4.79s3.12-2.23,4.79-1.25l.41,.24c1.68,.96,2.25,3.1,1.29,4.78-.81,1.41-2.45,2.04-3.94,1.63Zm-18.75-10.86c-.29-.08-.57-.19-.84-.35l-.46-.26c-1.67-.98-2.23-3.12-1.25-4.79,.98-1.67,3.12-2.23,4.79-1.25l.41,.24c1.68,.96,2.25,3.1,1.29,4.78-.81,1.41-2.45,2.04-3.94,1.63Zm-18.75-10.86c-.29-.08-.57-.19-.84-.35l-.46-.26c-1.67-.98-2.23-3.12-1.25-4.79,.98-1.67,3.12-2.23,4.79-1.25l.41,.24c1.68,.96,2.25,3.1,1.29,4.78-.81,1.41-2.45,2.04-3.94,1.63Zm-18.75-10.86c-.29-.08-.57-.19-.84-.35l-.45-.26c-1.67-.97-2.23-3.12-1.26-4.79,.97-1.67,3.11-2.23,4.79-1.26l.42,.24c1.68,.96,2.25,3.1,1.29,4.78-.81,1.41-2.45,2.04-3.94,1.63Zm-18.76-10.87c-.29-.08-.57-.19-.84-.35l-.46-.26c-1.67-.98-2.23-3.12-1.25-4.79,.98-1.67,3.12-2.23,4.79-1.25l.41,.24c1.68,.96,2.25,3.1,1.29,4.78-.81,1.41-2.45,2.04-3.94,1.63Zm-18.75-10.86c-.29-.08-.57-.19-.84-.35l-.46-.26c-1.67-.98-2.23-3.12-1.25-4.79,.98-1.67,3.12-2.23,4.79-1.25l.41,.24c1.68,.96,2.25,3.1,1.29,4.78-.81,1.41-2.45,2.04-3.94,1.63Zm-37.5-21.72c-.29-.08-.57-.19-.84-.35l-.45-.26c-1.67-.97-2.23-3.12-1.26-4.79,.98-1.67,3.12-2.24,4.79-1.26l.42,.24c1.67,.96,2.25,3.1,1.29,4.78-.81,1.41-2.45,2.04-3.94,1.63Zm-18.75-10.86c-.29-.08-.57-.19-.84-.35l-.45-.26c-1.67-.97-2.23-3.12-1.26-4.79,.98-1.67,3.12-2.23,4.79-1.26l.42,.24c1.67,.96,2.25,3.1,1.29,4.78-.81,1.41-2.45,2.04-3.94,1.63Zm-18.75-10.86c-.29-.08-.57-.19-.84-.35l-.45-.26c-1.67-.97-2.23-3.12-1.26-4.79,.98-1.67,3.12-2.23,4.79-1.26l.42,.24c1.67,.96,2.25,3.1,1.29,4.78-.81,1.41-2.45,2.04-3.94,1.63Zm-18.76-10.87c-.29-.08-.57-.19-.84-.35l-.46-.26c-1.67-.98-2.23-3.12-1.25-4.79,.98-1.67,3.12-2.23,4.79-1.25l.41,.24c1.67,.96,2.25,3.1,1.29,4.78-.81,1.41-2.45,2.04-3.94,1.63Zm-18.76-10.87c-.29-.08-.57-.19-.84-.35l-.46-.26c-1.67-.98-2.23-3.12-1.25-4.79,.98-1.67,3.12-2.23,4.79-1.25l.41,.24c1.67,.96,2.25,3.1,1.29,4.78-.81,1.41-2.45,2.04-3.94,1.63Zm-18.77-10.87c-.29-.08-.57-.19-.84-.35l-.45-.26c-1.67-.97-2.23-3.12-1.26-4.79,.98-1.67,3.12-2.23,4.79-1.26l.42,.24c1.67,.96,2.25,3.1,1.29,4.78-.81,1.41-2.45,2.04-3.94,1.63Zm-18.78-10.87c-.29-.08-.57-.19-.84-.35l-.46-.26c-1.67-.98-2.23-3.12-1.25-4.79,.98-1.67,3.12-2.23,4.79-1.25l.41,.24c1.68,.96,2.25,3.1,1.29,4.78-.81,1.41-2.45,2.04-3.94,1.63Zm-18.79-10.88c-.29-.08-.57-.19-.84-.35l-.46-.26c-1.67-.98-2.23-3.12-1.25-4.79,.98-1.67,3.12-2.23,4.79-1.25l.41,.24c1.67,.96,2.25,3.1,1.29,4.78-.81,1.41-2.45,2.04-3.94,1.63Zm-18.81-10.89c-.29-.08-.58-.2-.85-.35l-.43-.25c-1.67-.97-2.24-3.11-1.28-4.78,.97-1.67,3.11-2.24,4.78-1.28l.44,.25c1.67,.97,2.24,3.11,1.27,4.78-.81,1.4-2.45,2.02-3.94,1.62Zm412.5,238.97c-.29-.08-.57-.19-.84-.35l-.45-.26c-1.67-.97-2.23-3.12-1.26-4.79,.97-1.67,3.11-2.23,4.79-1.26l.42,.24c1.67,.97,2.25,3.11,1.28,4.78-.81,1.4-2.45,2.03-3.94,1.63Z"/></g></g><rect class="d" x="70.09" y="70.09" width="1250.23" height="1250.23"/></g></g></g></g></svg>