<?xml version="1.0" encoding="UTF-8"?><svg xmlns="http://www.w3.org/2000/svg" viewBox="0 0 1390.41 1390.41"><defs><style>.d{fill:none;}</style></defs><g id="a"/><g id="b"><g id="c"><g><rect class="d" y="0" width="1390.41" height="1390.41"/><g><g><path d="M1353.62,934.31c.72,.19,1.37,.66,1.77,1.36,.81,1.4,.32,3.19-1.08,3.99l-.36,.21c-1.4,.81-3.19,.32-3.99-1.08-.81-1.4-.32-3.19,1.08-3.99l.36-.21c.7-.4,1.5-.48,2.22-.29Zm-15.64,9c.72,.19,1.37,.66,1.77,1.36,.81,1.4,.32,3.19-1.08,3.99l-.36,.21c-1.4,.81-3.19,.32-3.99-1.08-.81-1.4-.32-3.19,1.08-3.99l.36-.21c.7-.4,1.5-.48,2.22-.29Zm16.13,7.97c1.24,.33,2.16,1.47,2.16,2.82v.42c0,1.61-1.31,2.92-2.92,2.92-1.61,0-2.92-1.31-2.92-2.92v-.41c0-1.61,1.3-2.93,2.92-2.93,.27,0,.52,.03,.77,.1Zm-31.77,1.03c.72,.19,1.37,.66,1.77,1.36,.81,1.4,.32,3.19-1.08,3.99l-.36,.21c-1.4,.81-3.19,.32-3.99-1.08-.81-1.4-.32-3.19,1.08-3.99l.36-.21c.7-.4,1.5-.48,2.22-.29Zm31.76,17.12c1.25,.34,2.17,1.48,2.16,2.83v.41c0,1.61-1.31,2.92-2.93,2.92-1.62,0-2.92-1.31-2.92-2.93v-.43c0-1.61,1.32-2.92,2.94-2.91,.26,0,.51,.04,.75,.1Zm-47.4-8.12c.72,.19,1.37,.66,1.77,1.36,.81,1.4,.32,3.19-1.08,3.99l-.36,.21c-1.4,.81-3.19,.32-3.99-1.08-.81-1.4-.32-3.19,1.08-3.99l.36-.21c.7-.4,1.5-.48,2.22-.29Zm-15.64,9c.72,.19,1.37,.66,1.77,1.36,.81,1.4,.32,3.19-1.08,3.99l-.36,.21c-1.4,.81-3.19,.32-3.99-1.08-.81-1.4-.32-3.19,1.08-3.99l.36-.21c.7-.4,1.5-.48,2.22-.29Zm63.02,17.24c1.24,.34,2.16,1.47,2.16,2.82v.42c0,1.61-1.31,2.92-2.93,2.92-1.61,0-2.92-1.31-2.92-2.93v-.42c0-1.61,1.31-2.92,2.92-2.92,.26,0,.52,.03,.76,.1Zm-78.67-8.24c.72,.19,1.37,.66,1.77,1.36,.81,1.4,.32,3.19-1.08,3.99l-.36,.21c-1.4,.81-3.19,.32-3.99-1.08-.81-1.4-.32-3.19,1.08-3.99l.36-.21c.7-.4,1.5-.48,2.22-.29Zm78.64,26.36c1.24,.34,2.16,1.47,2.16,2.82v.42c0,1.61-1.31,2.92-2.93,2.92-1.61,0-2.92-1.31-2.92-2.93v-.42c0-1.61,1.31-2.92,2.92-2.92,.26,0,.52,.03,.76,.1Zm-94.29-17.36c.72,.19,1.37,.66,1.77,1.36,.81,1.4,.32,3.19-1.08,3.99l-.36,.21c-1.4,.81-3.19,.32-3.99-1.08-.81-1.4-.32-3.19,1.08-3.99l.36-.21c.7-.4,1.5-.48,2.22-.29Zm94.26,35.47c1.25,.34,2.16,1.47,2.16,2.83v.42c0,1.61-1.31,2.92-2.93,2.92-1.61,0-2.92-1.31-2.92-2.93v-.42c0-1.61,1.31-2.92,2.93-2.92,.26,0,.52,.04,.76,.1Zm-109.91-26.47c.72,.19,1.37,.66,1.77,1.36,.81,1.4,.32,3.19-1.08,3.99l-.36,.21c-1.4,.81-3.19,.32-3.99-1.08-.81-1.4-.32-3.19,1.08-3.99l.36-.21c.7-.4,1.5-.48,2.22-.29Zm-15.64,9c.72,.19,1.37,.66,1.77,1.36,.81,1.4,.32,3.19-1.08,3.99l-.36,.21c-1.4,.81-3.19,.32-3.99-1.08-.81-1.4-.32-3.19,1.08-3.99l.36-.21c.7-.4,1.5-.48,2.22-.29Zm125.52,35.57c1.25,.34,2.16,1.47,2.16,2.83v.42c0,1.61-1.31,2.92-2.93,2.92-1.61,0-2.92-1.31-2.92-2.93v-.42c0-1.61,1.31-2.92,2.93-2.92,.26,0,.52,.04,.76,.1Zm-141.17-26.57c.72,.19,1.37,.66,1.77,1.36,.81,1.4,.32,3.19-1.08,3.99l-.36,.21c-1.4,.81-3.19,.32-3.99-1.08-.81-1.4-.32-3.19,1.08-3.99l.36-.21c.7-.4,1.5-.48,2.22-.29Zm141.14,44.67c1.24,.34,2.16,1.47,2.16,2.82v.42c0,1.61-1.31,2.92-2.93,2.92-1.61,0-2.92-1.31-2.92-2.93v-.42c0-1.61,1.31-2.92,2.92-2.92,.26,0,.52,.03,.76,.1Zm-156.79-35.66c.72,.19,1.37,.66,1.77,1.36,.81,1.4,.32,3.19-1.08,3.99l-.36,.21c-1.4,.81-3.19,.32-3.99-1.08-.81-1.4-.32-3.19,1.08-3.99l.36-.21c.7-.4,1.5-.48,2.22-.29Zm156.76,53.76c1.24,.34,2.16,1.47,2.16,2.82v.42c0,1.61-1.31,2.92-2.93,2.92-1.61,0-2.92-1.31-2.92-2.93v-.42c0-1.61,1.31-2.92,2.92-2.92,.26,0,.52,.03,.76,.1Zm-172.4-44.76c.72,.19,1.37,.66,1.77,1.36,.81,1.4,.32,3.19-1.08,3.99l-.36,.21c-1.4,.81-3.19,.32-3.99-1.08-.81-1.4-.32-3.19,1.08-3.99l.36-.21c.7-.4,1.5-.48,2.22-.29Zm-15.64,9c.72,.19,1.37,.66,1.77,1.36,.81,1.4,.32,3.19-1.08,3.99l-.36,.21c-1.4,.81-3.19,.32-3.99-1.08-.81-1.4-.32-3.19,1.08-3.99l.36-.21c.7-.4,1.5-.48,2.22-.29Zm188.02,53.85c1.25,.34,2.16,1.48,2.16,2.83v.42c0,1.61-1.31,2.92-2.93,2.92-1.61,0-2.92-1.31-2.92-2.93v-.42c0-1.61,1.32-2.92,2.93-2.91,.26,0,.51,.04,.75,.1Zm-203.67-44.85c.72,.19,1.37,.66,1.77,1.36,.81,1.4,.32,3.19-1.08,3.99l-.36,.21c-1.4,.81-3.19,.32-3.99-1.08-.81-1.4-.32-3.19,1.08-3.99l.36-.21c.7-.4,1.5-.48,2.22-.29Zm203.64,62.95c1.25,.34,2.16,1.48,2.16,2.83v.42c0,1.61-1.31,2.92-2.93,2.92-1.61,0-2.92-1.31-2.92-2.93v-.42c0-1.61,1.32-2.92,2.93-2.91,.26,0,.51,.04,.76,.1Zm-219.28-53.94c.72,.19,1.37,.66,1.77,1.36,.81,1.4,.32,3.19-1.08,3.99l-.36,.21c-1.4,.81-3.19,.32-3.99-1.08-.81-1.4-.32-3.19,1.08-3.99l.36-.21c.7-.4,1.5-.48,2.22-.29Zm219.26,72.04c1.25,.34,2.16,1.48,2.16,2.83v.42c0,1.61-1.31,2.92-2.93,2.92-1.62,0-2.92-1.31-2.92-2.93v-.42c0-1.61,1.32-2.92,2.93-2.91,.26,0,.51,.04,.76,.1Zm-234.9-63.03c.72,.19,1.37,.66,1.77,1.36,.81,1.4,.32,3.19-1.08,3.99l-.36,.21c-1.4,.81-3.19,.32-3.99-1.08-.81-1.4-.32-3.19,1.08-3.99l.36-.21c.7-.4,1.5-.48,2.22-.29Zm-15.64,9c.72,.19,1.37,.66,1.77,1.36,.81,1.4,.32,3.19-1.08,3.99l-.36,.21c-1.4,.81-3.19,.32-3.99-1.08-.81-1.4-.32-3.19,1.08-3.99l.36-.21c.7-.4,1.5-.48,2.22-.29Zm250.52,72.12c1.25,.34,2.16,1.48,2.16,2.83v.42c0,1.61-1.31,2.92-2.93,2.92-1.61,0-2.92-1.31-2.92-2.93v-.42c0-1.61,1.32-2.92,2.93-2.91,.26,0,.51,.04,.76,.1Zm-266.16-63.12c.72,.19,1.37,.66,1.77,1.36,.81,1.4,.32,3.19-1.08,3.99l-.36,.21c-1.4,.81-3.19,.32-3.99-1.08-.81-1.4-.32-3.19,1.08-3.99l.36-.21c.7-.4,1.5-.48,2.22-.29Zm266.14,81.23c1.25,.34,2.16,1.47,2.16,2.83v.42c0,1.61-1.31,2.92-2.93,2.92-1.61,0-2.92-1.31-2.92-2.93v-.42c0-1.61,1.31-2.92,2.93-2.92,.26,0,.52,.04,.76,.1Zm-281.78-72.22c.72,.19,1.37,.66,1.77,1.36,.81,1.4,.32,3.19-1.08,3.99l-.36,.21c-1.4,.81-3.19,.32-3.99-1.08-.81-1.4-.32-3.19,1.08-3.99l.36-.21c.7-.4,1.5-.48,2.22-.29Zm-15.64,9c.72,.2,1.37,.67,1.77,1.37,.8,1.4,.32,3.19-1.08,3.99l-.36,.21c-1.4,.8-3.19,.32-3.99-1.08-.8-1.4-.32-3.19,1.08-3.99l.36-.21c.7-.4,1.49-.48,2.21-.29Zm297.4,81.32c1.25,.34,2.16,1.48,2.16,2.83v.42c0,1.61-1.31,2.92-2.93,2.92-1.62,0-2.92-1.31-2.92-2.93v-.42c0-1.61,1.32-2.92,2.93-2.91,.26,0,.51,.04,.75,.1Zm-313.04-72.31c.72,.19,1.37,.66,1.77,1.36,.81,1.4,.32,3.19-1.08,3.99l-.36,.21c-1.4,.81-3.19,.32-3.99-1.08-.81-1.4-.32-3.19,1.08-3.99l.36-.21c.7-.4,1.5-.48,2.22-.29Zm313.01,90.41c1.25,.34,2.16,1.48,2.16,2.83v.42c0,1.61-1.31,2.92-2.93,2.92-1.61,0-2.92-1.31-2.92-2.93v-.42c0-1.61,1.32-2.92,2.93-2.91,.26,0,.51,.04,.76,.1Zm-328.66-81.41c.72,.19,1.37,.66,1.77,1.36,.81,1.4,.32,3.19-1.08,3.99l-.36,.21c-1.4,.81-3.19,.32-3.99-1.08-.81-1.4-.32-3.19,1.08-3.99l.36-.21c.7-.4,1.5-.48,2.22-.29Zm328.63,99.5c1.25,.34,2.16,1.48,2.16,2.83v.42c0,1.61-1.31,2.92-2.93,2.92-1.61,0-2.92-1.31-2.92-2.93v-.42c0-1.61,1.32-2.92,2.93-2.91,.26,0,.51,.04,.76,.1Zm-344.27-90.5c.72,.19,1.37,.66,1.77,1.36,.81,1.4,.32,3.19-1.08,3.99l-.36,.21c-1.4,.81-3.19,.32-3.99-1.08-.81-1.4-.32-3.19,1.08-3.99l.36-.21c.7-.4,1.5-.48,2.22-.29Zm-15.64,9c.72,.19,1.37,.66,1.77,1.36,.81,1.4,.32,3.19-1.08,3.99l-.36,.21c-1.4,.81-3.19,.32-3.99-1.08-.81-1.4-.32-3.19,1.08-3.99l.36-.21c.7-.4,1.5-.48,2.22-.29Zm359.89,99.59c1.25,.34,2.16,1.48,2.16,2.83v.42c0,1.61-1.31,2.92-2.93,2.92-1.61,0-2.92-1.31-2.92-2.93v-.42c0-1.61,1.32-2.92,2.93-2.91,.26,0,.51,.04,.76,.1Zm-373.27-89.2c.78,.21,1.46,.74,1.85,1.51,.92,1.31,.61,3.11-.69,4.05-1.31,.94-3.14,.65-4.08-.67-.18-.24-.33-.51-.47-.78-.71-1.45-.11-3.2,1.34-3.91,.66-.32,1.39-.38,2.05-.2Zm373.24,107.3c1.25,.34,2.16,1.48,2.16,2.83v.42c0,1.61-1.31,2.92-2.93,2.92-1.61,0-2.92-1.31-2.92-2.93v-.42c0-1.61,1.32-2.92,2.93-2.91,.26,0,.51,.04,.76,.1Zm-342.03-88.73c.24,.06,.48,.16,.7,.29l.37,.22c1.39,.81,1.87,2.6,1.05,4-.81,1.39-2.6,1.87-4,1.05l-.35-.2c-1.4-.81-1.88-2.6-1.07-3.99,.68-1.17,2.04-1.7,3.29-1.36Zm15.69,9.09c.24,.06,.47,.16,.7,.29l.38,.22c1.39,.81,1.87,2.6,1.05,4-.81,1.39-2.6,1.87-4,1.05l-.35-.2c-1.4-.81-1.88-2.59-1.07-3.99,.68-1.17,2.04-1.7,3.29-1.37Zm15.68,9.08c.24,.06,.47,.16,.7,.29l.38,.22c1.39,.81,1.87,2.6,1.05,4-.81,1.39-2.6,1.86-4,1.05l-.35-.2c-1.4-.81-1.88-2.59-1.07-3.99,.68-1.17,2.04-1.7,3.29-1.37Zm15.67,9.08c.24,.06,.47,.16,.7,.29l.38,.22c1.39,.82,1.86,2.61,1.05,4-.82,1.39-2.6,1.86-4,1.05l-.34-.2c-1.4-.81-1.88-2.59-1.07-3.99,.68-1.17,2.04-1.7,3.29-1.37Zm294.96,79.58c1.25,.34,2.16,1.48,2.16,2.83v.42c0,1.61-1.31,2.92-2.93,2.92-1.61,0-2.92-1.31-2.92-2.93v-.42c0-1.61,1.32-2.92,2.93-2.91,.26,0,.51,.04,.76,.1Zm-279.3-70.51c.24,.06,.47,.16,.7,.29l.38,.22c1.39,.82,1.86,2.61,1.05,4s-2.6,1.86-4,1.05l-.34-.2c-1.4-.81-1.88-2.59-1.07-3.99,.68-1.17,2.04-1.7,3.29-1.37Zm15.66,9.07c.24,.06,.47,.16,.7,.29l.38,.22c1.39,.82,1.86,2.61,1.05,4s-2.6,1.86-4,1.05l-.34-.2c-1.4-.81-1.88-2.59-1.07-3.99,.68-1.17,2.04-1.7,3.29-1.37Zm15.66,9.07c.24,.06,.47,.16,.7,.29l.38,.22c1.39,.82,1.86,2.61,1.05,4s-2.6,1.86-4,1.05l-.34-.2c-1.4-.81-1.88-2.59-1.07-3.99,.68-1.17,2.04-1.7,3.29-1.37Zm247.95,70.47c1.25,.34,2.17,1.48,2.16,2.83v.41c0,1.61-1.31,2.92-2.93,2.92-1.61,0-2.92-1.31-2.92-2.93v-.43c0-1.61,1.32-2.92,2.94-2.91,.26,0,.51,.04,.75,.1Zm-232.3-61.4c.24,.06,.47,.16,.7,.29l.38,.22c1.39,.82,1.86,2.61,1.05,4s-2.6,1.86-4,1.05l-.34-.2c-1.4-.81-1.88-2.59-1.07-3.99,.68-1.17,2.04-1.7,3.29-1.37Zm15.66,9.07c.24,.06,.47,.16,.7,.29l.38,.22c1.39,.82,1.86,2.61,1.05,4-.82,1.39-2.6,1.86-4,1.05l-.34-.2c-1.4-.81-1.88-2.59-1.07-3.99,.68-1.17,2.04-1.7,3.29-1.37Zm15.65,9.07c.24,.06,.47,.16,.7,.29l.38,.22c1.39,.81,1.87,2.6,1.05,4-.81,1.39-2.6,1.86-4,1.05l-.35-.2c-1.4-.81-1.88-2.59-1.07-3.99,.68-1.17,2.04-1.7,3.29-1.37Zm15.67,9.08c.24,.06,.47,.16,.7,.29l.38,.22c1.39,.82,1.86,2.61,1.05,4-.82,1.39-2.6,1.86-4,1.05l-.34-.2c-1.4-.81-1.88-2.59-1.07-3.99,.68-1.17,2.04-1.7,3.29-1.37Zm185.29,52.3c1.25,.34,2.17,1.48,2.16,2.83v.41c0,1.61-1.31,2.92-2.93,2.92-1.61,0-2.92-1.31-2.92-2.93v-.43c0-1.61,1.32-2.92,2.94-2.91,.26,0,.51,.04,.75,.1Zm-169.64-43.23c.24,.06,.47,.16,.7,.29l.38,.22c1.39,.82,1.86,2.61,1.05,4-.82,1.39-2.6,1.86-4,1.05l-.34-.2c-1.4-.81-1.88-2.59-1.07-3.99,.68-1.17,2.04-1.7,3.29-1.37Zm15.65,9.07c.24,.06,.47,.16,.7,.29l.38,.22c1.39,.81,1.87,2.6,1.05,4-.81,1.39-2.6,1.87-4,1.05l-.35-.2c-1.4-.81-1.88-2.59-1.07-3.99,.68-1.17,2.04-1.7,3.29-1.37Zm15.66,9.07c.24,.06,.47,.16,.7,.29l.38,.22c1.39,.81,1.86,2.6,1.05,4-.81,1.39-2.6,1.87-4,1.05l-.35-.2c-1.4-.81-1.88-2.59-1.07-3.99,.68-1.17,2.04-1.7,3.29-1.37Zm15.66,9.07c.24,.06,.47,.16,.7,.29l.38,.22c1.39,.81,1.86,2.6,1.05,4-.81,1.39-2.6,1.87-4,1.05l-.35-.2c-1.4-.81-1.88-2.59-1.07-3.99,.68-1.17,2.04-1.7,3.29-1.37Zm122.64,34.15c1.25,.34,2.16,1.47,2.16,2.83v.42c0,1.61-1.31,2.92-2.92,2.92-1.62,0-2.92-1.31-2.92-2.92v-.42c0-1.61,1.31-2.92,2.93-2.92,.26,0,.52,.04,.76,.1Zm-106.98-25.07c.24,.06,.47,.16,.7,.29l.38,.22c1.39,.81,1.86,2.6,1.05,4-.81,1.39-2.6,1.87-4,1.05l-.35-.2c-1.4-.81-1.88-2.59-1.07-3.99,.68-1.17,2.04-1.7,3.29-1.37Zm15.66,9.07c.24,.06,.47,.16,.7,.29l.38,.22c1.39,.82,1.86,2.61,1.05,4-.81,1.39-2.61,1.86-4,1.05l-.35-.2c-1.4-.81-1.88-2.59-1.07-3.99,.68-1.17,2.04-1.7,3.29-1.37Zm15.67,9.07c.24,.06,.47,.16,.7,.29l.38,.22c1.39,.82,1.86,2.61,1.05,4-.81,1.39-2.6,1.86-4,1.05l-.35-.2c-1.4-.81-1.88-2.59-1.07-3.99,.68-1.17,2.04-1.7,3.29-1.37Zm75.63,25.08c1.25,.34,2.16,1.48,2.16,2.83v.42c0,1.61-1.32,2.92-2.93,2.91-1.61,0-2.92-1.32-2.91-2.93v-.42c0-1.61,1.32-2.92,2.93-2.91,.26,0,.51,.04,.75,.1Zm-59.96-16c.24,.06,.47,.16,.7,.29l.38,.22c1.39,.81,1.86,2.6,1.05,4-.81,1.39-2.6,1.87-4,1.05l-.35-.2c-1.4-.81-1.88-2.59-1.07-3.99,.68-1.17,2.04-1.7,3.29-1.37Zm15.68,9.08c.24,.06,.47,.16,.7,.29l.38,.22c1.39,.82,1.86,2.61,1.05,4-.81,1.39-2.61,1.86-4,1.05l-.34-.2c-1.4-.81-1.88-2.59-1.08-3.99,.68-1.17,2.04-1.7,3.29-1.37Zm15.69,9.09c.24,.06,.47,.16,.7,.29l.38,.22c1.39,.82,1.86,2.61,1.05,4-.82,1.39-2.61,1.86-4,1.05l-.35-.2c-1.4-.81-1.88-2.59-1.07-3.99,.68-1.17,2.04-1.7,3.29-1.37Zm15.71,9.09c.24,.07,.48,.16,.71,.3l.36,.21c1.4,.81,1.87,2.6,1.07,3.99-.81,1.4-2.6,1.87-3.99,1.07l-.37-.21c-1.4-.81-1.87-2.6-1.06-4,.68-1.17,2.04-1.69,3.29-1.35Zm12.85,6.98c1.24,.34,2.16,1.47,2.16,2.82v.37c0,.28-.02,.56-.1,.84-.42,1.56-2.02,2.48-3.58,2.06-.81-.22-2.16-.92-2.16-3.18v-.09c0-1.61,1.31-2.92,2.92-2.92,.26,0,.52,.03,.76,.1Zm-357.3-206.53c.24,.06,.48,.16,.7,.29l.37,.22c1.39,.81,1.87,2.6,1.05,4-.81,1.39-2.6,1.87-4,1.05l-.35-.2c-1.4-.81-1.88-2.6-1.07-3.99,.68-1.17,2.04-1.7,3.29-1.36Z"/><path d="M1353.62,477.09c.72,.19,1.37,.66,1.77,1.36,.81,1.4,.32,3.19-1.08,3.99l-.36,.21c-1.4,.81-3.19,.32-3.99-1.08-.81-1.4-.32-3.19,1.08-3.99l.36-.21c.7-.4,1.5-.48,2.22-.29Zm-15.64,9c.72,.19,1.37,.66,1.77,1.36,.81,1.4,.32,3.19-1.08,3.99l-.36,.21c-1.4,.81-3.19,.32-3.99-1.08-.81-1.4-.32-3.19,1.08-3.99l.36-.21c.7-.4,1.5-.48,2.22-.29Zm16.13,7.97c1.24,.33,2.16,1.47,2.16,2.82v.42c0,1.61-1.31,2.92-2.92,2.92-1.61,0-2.92-1.31-2.92-2.92v-.41c0-1.61,1.3-2.93,2.92-2.93,.27,0,.52,.03,.77,.1Zm-31.77,1.03c.72,.19,1.37,.66,1.77,1.36,.81,1.4,.32,3.19-1.08,3.99l-.36,.21c-1.4,.81-3.19,.32-3.99-1.08-.81-1.4-.32-3.19,1.08-3.99l.36-.21c.7-.4,1.5-.48,2.22-.29Zm31.76,17.12c1.25,.34,2.17,1.48,2.16,2.83v.41c0,1.61-1.31,2.92-2.93,2.92-1.62,0-2.92-1.31-2.92-2.93v-.43c0-1.61,1.32-2.92,2.94-2.91,.26,0,.51,.04,.75,.1Zm-47.4-8.12c.72,.19,1.37,.66,1.77,1.36,.81,1.4,.32,3.19-1.08,3.99l-.36,.21c-1.4,.81-3.19,.32-3.99-1.08-.81-1.4-.32-3.19,1.08-3.99l.36-.21c.7-.4,1.5-.48,2.22-.29Zm-15.64,9c.72,.19,1.37,.66,1.77,1.36,.81,1.4,.32,3.19-1.08,3.99l-.36,.21c-1.4,.81-3.19,.32-3.99-1.08-.81-1.4-.32-3.19,1.08-3.99l.36-.21c.7-.4,1.5-.48,2.22-.29Zm63.02,17.24c1.24,.34,2.16,1.47,2.16,2.82v.42c0,1.61-1.31,2.92-2.93,2.92-1.61,0-2.92-1.31-2.92-2.93v-.42c0-1.61,1.31-2.92,2.92-2.92,.26,0,.52,.03,.76,.1Zm-78.67-8.24c.72,.19,1.37,.66,1.77,1.36,.81,1.4,.32,3.19-1.08,3.99l-.36,.21c-1.4,.81-3.19,.32-3.99-1.08-.81-1.4-.32-3.19,1.08-3.99l.36-.21c.7-.4,1.5-.48,2.22-.29Zm78.64,26.36c1.24,.34,2.16,1.47,2.16,2.82v.42c0,1.61-1.31,2.92-2.93,2.92-1.61,0-2.92-1.31-2.92-2.93v-.42c0-1.61,1.31-2.92,2.92-2.92,.26,0,.52,.03,.76,.1Zm-94.29-17.36c.72,.19,1.37,.66,1.77,1.36,.81,1.4,.32,3.19-1.08,3.99l-.36,.21c-1.4,.81-3.19,.32-3.99-1.08-.81-1.4-.32-3.19,1.08-3.99l.36-.21c.7-.4,1.5-.48,2.22-.29Zm94.26,35.47c1.25,.34,2.16,1.47,2.16,2.83v.42c0,1.61-1.31,2.92-2.93,2.92-1.61,0-2.92-1.31-2.92-2.93v-.42c0-1.61,1.31-2.92,2.93-2.92,.26,0,.52,.04,.76,.1Zm-109.91-26.47c.72,.19,1.37,.66,1.77,1.36,.81,1.4,.32,3.19-1.08,3.99l-.36,.21c-1.4,.81-3.19,.32-3.99-1.08-.81-1.4-.32-3.19,1.08-3.99l.36-.21c.7-.4,1.5-.48,2.22-.29Zm-15.64,9c.72,.19,1.37,.66,1.77,1.36,.81,1.4,.32,3.19-1.08,3.99l-.36,.21c-1.4,.81-3.19,.32-3.99-1.08-.81-1.4-.32-3.19,1.08-3.99l.36-.21c.7-.4,1.5-.48,2.22-.29Zm125.52,35.57c1.25,.34,2.16,1.47,2.16,2.83v.42c0,1.61-1.31,2.92-2.93,2.92-1.61,0-2.92-1.31-2.92-2.93v-.42c0-1.61,1.31-2.92,2.93-2.92,.26,0,.52,.04,.76,.1Zm-141.17-26.57c.72,.19,1.37,.66,1.77,1.36,.81,1.4,.32,3.19-1.08,3.99l-.36,.21c-1.4,.81-3.19,.32-3.99-1.08-.81-1.4-.32-3.19,1.08-3.99l.36-.21c.7-.4,1.5-.48,2.22-.29Zm141.14,44.67c1.24,.34,2.16,1.47,2.16,2.82v.42c0,1.61-1.31,2.92-2.93,2.92-1.61,0-2.92-1.31-2.92-2.93v-.42c0-1.61,1.31-2.92,2.92-2.92,.26,0,.52,.03,.76,.1Zm-156.79-35.66c.72,.19,1.37,.66,1.77,1.36,.81,1.4,.32,3.19-1.08,3.99l-.36,.21c-1.4,.81-3.19,.32-3.99-1.08-.81-1.4-.32-3.19,1.08-3.99l.36-.21c.7-.4,1.5-.48,2.22-.29Zm156.76,53.76c1.24,.34,2.16,1.47,2.16,2.82v.42c0,1.61-1.31,2.92-2.93,2.92-1.61,0-2.92-1.31-2.92-2.93v-.42c0-1.61,1.31-2.92,2.92-2.92,.26,0,.52,.03,.76,.1Zm-172.4-44.76c.72,.19,1.37,.66,1.77,1.36,.81,1.4,.32,3.19-1.08,3.99l-.36,.21c-1.4,.81-3.19,.32-3.99-1.08-.81-1.4-.32-3.19,1.08-3.99l.36-.21c.7-.4,1.5-.48,2.22-.29Zm-15.64,9c.72,.19,1.37,.66,1.77,1.36,.81,1.4,.32,3.19-1.08,3.99l-.36,.21c-1.4,.81-3.19,.32-3.99-1.08-.81-1.4-.32-3.19,1.08-3.99l.36-.21c.7-.4,1.5-.48,2.22-.29Zm188.02,53.85c1.25,.34,2.16,1.48,2.16,2.83v.42c0,1.61-1.31,2.92-2.93,2.92-1.61,0-2.92-1.31-2.92-2.93v-.42c0-1.61,1.32-2.92,2.93-2.91,.26,0,.51,.04,.75,.1Zm-203.67-44.85c.72,.19,1.37,.66,1.77,1.36,.81,1.4,.32,3.19-1.08,3.99l-.36,.21c-1.4,.81-3.19,.32-3.99-1.08-.81-1.4-.32-3.19,1.08-3.99l.36-.21c.7-.4,1.5-.48,2.22-.29Zm203.64,62.95c1.25,.34,2.16,1.48,2.16,2.83v.42c0,1.61-1.31,2.92-2.93,2.92-1.61,0-2.92-1.31-2.92-2.93v-.42c0-1.61,1.32-2.92,2.93-2.91,.26,0,.51,.04,.76,.1Zm-219.28-53.94c.72,.19,1.37,.66,1.77,1.36,.81,1.4,.32,3.19-1.08,3.99l-.36,.21c-1.4,.81-3.19,.32-3.99-1.08-.81-1.4-.32-3.19,1.08-3.99l.36-.21c.7-.4,1.5-.48,2.22-.29Zm219.26,72.04c1.25,.34,2.16,1.48,2.16,2.83v.42c0,1.61-1.31,2.92-2.93,2.92-1.62,0-2.92-1.31-2.92-2.93v-.42c0-1.61,1.32-2.92,2.93-2.91,.26,0,.51,.04,.76,.1Zm-234.9-63.03c.72,.19,1.37,.66,1.77,1.36,.81,1.4,.32,3.19-1.08,3.99l-.36,.21c-1.4,.81-3.19,.32-3.99-1.08-.81-1.4-.32-3.19,1.08-3.99l.36-.21c.7-.4,1.5-.48,2.22-.29Zm-15.64,9c.72,.19,1.37,.66,1.77,1.36,.81,1.4,.32,3.19-1.08,3.99l-.36,.21c-1.4,.81-3.19,.32-3.99-1.08-.81-1.4-.32-3.19,1.08-3.99l.36-.21c.7-.4,1.5-.48,2.22-.29Zm250.52,72.12c1.25,.34,2.16,1.48,2.16,2.83v.42c0,1.61-1.31,2.92-2.93,2.92-1.61,0-2.92-1.31-2.92-2.93v-.42c0-1.61,1.32-2.92,2.93-2.91,.26,0,.51,.04,.76,.1Zm-266.16-63.12c.72,.19,1.37,.66,1.77,1.36,.81,1.4,.32,3.19-1.08,3.99l-.36,.21c-1.4,.81-3.19,.32-3.99-1.08-.81-1.4-.32-3.19,1.08-3.99l.36-.21c.7-.4,1.5-.48,2.22-.29Zm266.14,81.23c1.25,.34,2.16,1.47,2.16,2.83v.42c0,1.61-1.31,2.92-2.93,2.92-1.61,0-2.92-1.31-2.92-2.93v-.42c0-1.61,1.31-2.92,2.93-2.92,.26,0,.52,.04,.76,.1Zm-281.78-72.22c.72,.19,1.37,.66,1.77,1.36,.81,1.4,.32,3.19-1.08,3.99l-.36,.21c-1.4,.81-3.19,.32-3.99-1.08-.81-1.4-.32-3.19,1.08-3.99l.36-.21c.7-.4,1.5-.48,2.22-.29Zm-15.64,9c.72,.2,1.37,.67,1.77,1.37,.8,1.4,.32,3.19-1.08,3.99l-.36,.21c-1.4,.8-3.19,.32-3.99-1.08-.8-1.4-.32-3.19,1.08-3.99l.36-.21c.7-.4,1.49-.48,2.21-.29Zm297.4,81.32c1.25,.34,2.16,1.48,2.16,2.83v.42c0,1.61-1.31,2.92-2.93,2.92-1.62,0-2.92-1.31-2.92-2.93v-.42c0-1.61,1.32-2.92,2.93-2.91,.26,0,.51,.04,.75,.1Zm-313.04-72.31c.72,.19,1.37,.66,1.77,1.36,.81,1.4,.32,3.19-1.08,3.99l-.36,.21c-1.4,.81-3.19,.32-3.99-1.08-.81-1.4-.32-3.19,1.08-3.99l.36-.21c.7-.4,1.5-.48,2.22-.29Zm313.01,90.41c1.25,.34,2.16,1.48,2.16,2.83v.42c0,1.61-1.31,2.92-2.93,2.92-1.61,0-2.92-1.31-2.92-2.93v-.42c0-1.61,1.32-2.92,2.93-2.91,.26,0,.51,.04,.76,.1Zm-328.66-81.41c.72,.19,1.37,.66,1.77,1.36,.81,1.4,.32,3.19-1.08,3.99l-.36,.21c-1.4,.81-3.19,.32-3.99-1.08-.81-1.4-.32-3.19,1.08-3.99l.36-.21c.7-.4,1.5-.48,2.22-.29Zm328.63,99.5c1.25,.34,2.16,1.48,2.16,2.83v.42c0,1.61-1.31,2.92-2.93,2.92-1.61,0-2.92-1.31-2.92-2.93v-.42c0-1.61,1.32-2.92,2.93-2.91,.26,0,.51,.04,.76,.1Zm-344.27-90.5c.72,.19,1.37,.66,1.77,1.36,.81,1.4,.32,3.19-1.08,3.99l-.36,.21c-1.4,.81-3.19,.32-3.99-1.08-.81-1.4-.32-3.19,1.08-3.99l.36-.21c.7-.4,1.5-.48,2.22-.29Zm-15.64,9c.72,.19,1.37,.66,1.77,1.36,.81,1.4,.32,3.19-1.08,3.99l-.36,.21c-1.4,.81-3.19,.32-3.99-1.08-.81-1.4-.32-3.19,1.08-3.99l.36-.21c.7-.4,1.5-.48,2.22-.29Zm359.89,99.59c1.25,.34,2.16,1.48,2.16,2.83v.42c0,1.61-1.31,2.92-2.93,2.92-1.61,0-2.92-1.31-2.92-2.93v-.42c0-1.61,1.32-2.92,2.93-2.91,.26,0,.51,.04,.76,.1Zm-373.27-89.2c.78,.21,1.46,.74,1.85,1.51,.92,1.31,.61,3.11-.69,4.05-1.31,.94-3.14,.65-4.08-.67-.18-.24-.33-.51-.47-.78-.71-1.45-.11-3.2,1.34-3.91,.66-.32,1.39-.38,2.05-.2Zm373.24,107.3c1.25,.34,2.16,1.48,2.16,2.83v.42c0,1.61-1.31,2.92-2.93,2.92-1.61,0-2.92-1.31-2.92-2.93v-.42c0-1.61,1.32-2.92,2.93-2.91,.26,0,.51,.04,.76,.1Zm-342.03-88.73c.24,.06,.48,.16,.7,.29l.37,.22c1.39,.81,1.87,2.6,1.05,4-.81,1.39-2.6,1.87-4,1.05l-.35-.2c-1.4-.81-1.88-2.6-1.07-3.99,.68-1.17,2.04-1.7,3.29-1.36Zm15.69,9.09c.24,.06,.47,.16,.7,.29l.38,.22c1.39,.81,1.87,2.6,1.05,4-.81,1.39-2.6,1.87-4,1.05l-.35-.2c-1.4-.81-1.88-2.59-1.07-3.99,.68-1.17,2.04-1.7,3.29-1.37Zm15.68,9.08c.24,.06,.47,.16,.7,.29l.38,.22c1.39,.81,1.87,2.6,1.05,4-.81,1.39-2.6,1.86-4,1.05l-.35-.2c-1.4-.81-1.88-2.59-1.07-3.99,.68-1.17,2.04-1.7,3.29-1.37Zm15.67,9.08c.24,.06,.47,.16,.7,.29l.38,.22c1.39,.82,1.86,2.61,1.05,4-.82,1.39-2.6,1.86-4,1.05l-.34-.2c-1.4-.81-1.88-2.59-1.07-3.99,.68-1.17,2.04-1.7,3.29-1.37Zm294.96,79.58c1.25,.34,2.16,1.48,2.16,2.83v.42c0,1.61-1.31,2.92-2.93,2.92-1.61,0-2.92-1.31-2.92-2.93v-.42c0-1.61,1.32-2.92,2.93-2.91,.26,0,.51,.04,.76,.1Zm-279.3-70.51c.24,.06,.47,.16,.7,.29l.38,.22c1.39,.82,1.86,2.61,1.05,4s-2.6,1.86-4,1.05l-.34-.2c-1.4-.81-1.88-2.59-1.07-3.99,.68-1.17,2.04-1.7,3.29-1.37Zm15.66,9.07c.24,.06,.47,.16,.7,.29l.38,.22c1.39,.82,1.86,2.61,1.05,4-.82,1.39-2.6,1.86-4,1.05l-.34-.2c-1.4-.81-1.88-2.59-1.07-3.99,.68-1.17,2.04-1.7,3.29-1.37Zm15.66,9.07c.24,.06,.47,.16,.7,.29l.38,.22c1.39,.82,1.86,2.61,1.05,4-.82,1.39-2.6,1.86-4,1.05l-.34-.2c-1.4-.81-1.88-2.59-1.07-3.99,.68-1.17,2.04-1.7,3.29-1.37Zm247.95,70.47c1.25,.34,2.17,1.48,2.16,2.83v.41c0,1.61-1.31,2.92-2.93,2.92-1.61,0-2.92-1.31-2.92-2.93v-.43c0-1.61,1.32-2.92,2.94-2.91,.26,0,.51,.04,.75,.1Zm-232.3-61.4c.24,.06,.47,.16,.7,.29l.38,.22c1.39,.82,1.86,2.61,1.05,4s-2.6,1.86-4,1.05l-.34-.2c-1.4-.81-1.88-2.59-1.07-3.99,.68-1.17,2.04-1.7,3.29-1.37Zm15.66,9.07c.24,.06,.47,.16,.7,.29l.38,.22c1.39,.82,1.86,2.61,1.05,4-.82,1.39-2.6,1.86-4,1.05l-.34-.2c-1.4-.81-1.88-2.59-1.07-3.99,.68-1.17,2.04-1.7,3.29-1.37Zm15.65,9.07c.24,.06,.47,.16,.7,.29l.38,.22c1.39,.81,1.87,2.6,1.05,4-.81,1.39-2.6,1.86-4,1.05l-.35-.2c-1.4-.81-1.88-2.59-1.07-3.99,.68-1.17,2.04-1.7,3.29-1.37Zm15.67,9.08c.24,.06,.47,.16,.7,.29l.38,.22c1.39,.82,1.86,2.61,1.05,4-.82,1.39-2.6,1.86-4,1.05l-.34-.2c-1.4-.81-1.88-2.59-1.07-3.99,.68-1.17,2.04-1.7,3.29-1.37Zm185.29,52.3c1.25,.34,2.17,1.48,2.16,2.83v.41c0,1.61-1.31,2.92-2.93,2.92-1.61,0-2.92-1.31-2.92-2.93v-.43c0-1.61,1.32-2.92,2.94-2.91,.26,0,.51,.04,.75,.1Zm-169.64-43.23c.24,.06,.47,.16,.7,.29l.38,.22c1.39,.82,1.86,2.61,1.05,4-.82,1.39-2.6,1.86-4,1.05l-.34-.2c-1.4-.81-1.88-2.59-1.07-3.99,.68-1.17,2.04-1.7,3.29-1.37Zm15.65,9.07c.24,.06,.47,.16,.7,.29l.38,.22c1.39,.81,1.87,2.6,1.05,4-.81,1.39-2.6,1.87-4,1.05l-.35-.2c-1.4-.81-1.88-2.59-1.07-3.99,.68-1.17,2.04-1.7,3.29-1.37Zm15.66,9.07c.24,.06,.47,.16,.7,.29l.38,.22c1.39,.81,1.86,2.6,1.05,4-.81,1.39-2.6,1.87-4,1.05l-.35-.2c-1.4-.81-1.88-2.59-1.07-3.99,.68-1.17,2.04-1.7,3.29-1.37Zm15.66,9.07c.24,.06,.47,.16,.7,.29l.38,.22c1.39,.81,1.86,2.6,1.05,4-.81,1.39-2.6,1.87-4,1.05l-.35-.2c-1.4-.81-1.88-2.59-1.07-3.99,.68-1.17,2.04-1.7,3.29-1.37Zm122.64,34.15c1.25,.34,2.16,1.47,2.16,2.83v.42c0,1.61-1.31,2.92-2.92,2.92-1.62,0-2.92-1.31-2.92-2.92v-.42c0-1.61,1.31-2.92,2.93-2.92,.26,0,.52,.04,.76,.1Zm-106.98-25.07c.24,.06,.47,.16,.7,.29l.38,.22c1.39,.81,1.86,2.6,1.05,4-.81,1.39-2.6,1.87-4,1.05l-.35-.2c-1.4-.81-1.88-2.59-1.07-3.99,.68-1.17,2.04-1.7,3.29-1.37Zm15.66,9.07c.24,.06,.47,.16,.7,.29l.38,.22c1.39,.82,1.86,2.61,1.05,4-.81,1.39-2.61,1.86-4,1.05l-.35-.2c-1.4-.81-1.88-2.59-1.07-3.99,.68-1.17,2.04-1.7,3.29-1.37Zm15.67,9.07c.24,.06,.47,.16,.7,.29l.38,.22c1.39,.82,1.86,2.61,1.05,4-.81,1.39-2.6,1.86-4,1.05l-.35-.2c-1.4-.81-1.88-2.59-1.07-3.99,.68-1.17,2.04-1.7,3.29-1.37Zm75.63,25.08c1.25,.34,2.16,1.48,2.16,2.83v.42c0,1.61-1.32,2.92-2.93,2.91-1.61,0-2.92-1.32-2.91-2.93v-.42c0-1.61,1.32-2.92,2.93-2.91,.26,0,.51,.04,.75,.1Zm-59.96-16c.24,.06,.47,.16,.7,.29l.38,.22c1.39,.81,1.86,2.6,1.05,4-.81,1.39-2.6,1.87-4,1.05l-.35-.2c-1.4-.81-1.88-2.59-1.07-3.99,.68-1.17,2.04-1.7,3.29-1.37Zm15.68,9.08c.24,.06,.47,.16,.7,.29l.38,.22c1.39,.82,1.86,2.61,1.05,4-.81,1.39-2.61,1.86-4,1.05l-.34-.2c-1.4-.81-1.88-2.59-1.08-3.99,.68-1.17,2.04-1.7,3.29-1.37Zm15.69,9.09c.24,.06,.47,.16,.7,.29l.38,.22c1.39,.82,1.86,2.61,1.05,4-.82,1.39-2.61,1.86-4,1.05l-.35-.2c-1.4-.81-1.88-2.59-1.07-3.99,.68-1.17,2.04-1.7,3.29-1.37Zm15.71,9.09c.24,.07,.48,.16,.71,.3l.36,.21c1.4,.81,1.87,2.6,1.07,3.99-.81,1.4-2.6,1.87-3.99,1.07l-.37-.21c-1.4-.81-1.87-2.6-1.06-4,.68-1.17,2.04-1.69,3.29-1.35Zm12.85,6.98c1.24,.34,2.16,1.47,2.16,2.82v.37c0,.28-.02,.56-.1,.84-.42,1.56-2.02,2.48-3.58,2.06-.81-.22-2.16-.92-2.16-3.18v-.09c0-1.61,1.31-2.92,2.92-2.92,.26,0,.52,.03,.76,.1Zm-357.3-206.53c.24,.06,.48,.16,.7,.29l.37,.22c1.39,.81,1.87,2.6,1.05,4-.81,1.39-2.6,1.87-4,1.05l-.35-.2c-1.4-.81-1.88-2.6-1.07-3.99,.68-1.17,2.04-1.7,3.29-1.36Z"/><path d="M1353.62,19.87c.72,.19,1.37,.66,1.77,1.36,.81,1.4,.32,3.19-1.08,3.99l-.36,.21c-1.4,.81-3.19,.32-3.99-1.08-.81-1.4-.32-3.19,1.08-3.99l.36-.21c.7-.4,1.5-.48,2.22-.29Zm-15.64,9c.72,.19,1.37,.66,1.77,1.36,.81,1.4,.32,3.19-1.08,3.99l-.36,.21c-1.4,.81-3.19,.32-3.99-1.08-.81-1.4-.32-3.19,1.08-3.99l.36-.21c.7-.4,1.5-.48,2.22-.29Zm16.13,7.97c1.24,.33,2.16,1.47,2.16,2.82v.42c0,1.61-1.31,2.92-2.92,2.92-1.61,0-2.92-1.31-2.92-2.92v-.41c0-1.61,1.3-2.93,2.92-2.93,.27,0,.52,.03,.77,.1Zm-31.77,1.03c.72,.19,1.37,.66,1.77,1.36,.81,1.4,.32,3.19-1.08,3.99l-.36,.21c-1.4,.81-3.19,.32-3.99-1.08-.81-1.4-.32-3.19,1.08-3.99l.36-.21c.7-.4,1.5-.48,2.22-.29Zm31.76,17.12c1.25,.34,2.17,1.48,2.16,2.83v.41c0,1.61-1.31,2.92-2.93,2.92-1.62,0-2.92-1.31-2.92-2.93v-.43c0-1.61,1.32-2.92,2.94-2.91,.26,0,.51,.04,.75,.1Zm-47.4-8.12c.72,.19,1.37,.66,1.77,1.36,.81,1.4,.32,3.19-1.08,3.99l-.36,.21c-1.4,.81-3.19,.32-3.99-1.08-.81-1.4-.32-3.19,1.08-3.99l.36-.21c.7-.4,1.5-.48,2.22-.29Zm-15.64,9c.72,.19,1.37,.66,1.77,1.36,.81,1.4,.32,3.19-1.08,3.99l-.36,.21c-1.4,.81-3.19,.32-3.99-1.08-.81-1.4-.32-3.19,1.08-3.99l.36-.21c.7-.4,1.5-.48,2.22-.29Zm63.02,17.24c1.24,.34,2.16,1.47,2.16,2.82v.42c0,1.61-1.31,2.92-2.93,2.92-1.61,0-2.92-1.31-2.92-2.93v-.42c0-1.61,1.31-2.92,2.92-2.92,.26,0,.52,.03,.76,.1Zm-78.67-8.24c.72,.19,1.37,.66,1.77,1.36,.81,1.4,.32,3.19-1.08,3.99l-.36,.21c-1.4,.81-3.19,.32-3.99-1.08-.81-1.4-.32-3.19,1.08-3.99l.36-.21c.7-.4,1.5-.48,2.22-.29Zm78.64,26.36c1.24,.34,2.16,1.47,2.16,2.82v.42c0,1.61-1.31,2.92-2.93,2.92-1.61,0-2.92-1.31-2.92-2.93v-.42c0-1.61,1.31-2.92,2.92-2.92,.26,0,.52,.03,.76,.1Zm-94.29-17.36c.72,.19,1.37,.66,1.77,1.36,.81,1.4,.32,3.19-1.08,3.99l-.36,.21c-1.4,.81-3.19,.32-3.99-1.08-.81-1.4-.32-3.19,1.08-3.99l.36-.21c.7-.4,1.5-.48,2.22-.29Zm94.26,35.47c1.25,.34,2.16,1.47,2.16,2.83v.42c0,1.61-1.31,2.92-2.93,2.92-1.61,0-2.92-1.31-2.92-2.93v-.42c0-1.61,1.31-2.92,2.93-2.92,.26,0,.52,.04,.76,.1Zm-109.91-26.47c.72,.19,1.37,.66,1.77,1.36,.81,1.4,.32,3.19-1.08,3.99l-.36,.21c-1.4,.81-3.19,.32-3.99-1.08-.81-1.4-.32-3.19,1.08-3.99l.36-.21c.7-.4,1.5-.48,2.22-.29Zm-15.64,9c.72,.19,1.37,.66,1.77,1.36,.81,1.4,.32,3.19-1.08,3.99l-.36,.21c-1.4,.81-3.19,.32-3.99-1.08-.81-1.4-.32-3.19,1.08-3.99l.36-.21c.7-.4,1.5-.48,2.22-.29Zm125.52,35.57c1.25,.34,2.16,1.47,2.16,2.83v.42c0,1.61-1.31,2.92-2.93,2.92-1.61,0-2.92-1.31-2.92-2.93v-.42c0-1.61,1.31-2.92,2.93-2.92,.26,0,.52,.04,.76,.1Zm-141.17-26.57c.72,.19,1.37,.66,1.77,1.36,.81,1.4,.32,3.19-1.08,3.99l-.36,.21c-1.4,.81-3.19,.32-3.99-1.08-.81-1.4-.32-3.19,1.08-3.99l.36-.21c.7-.4,1.5-.48,2.22-.29Zm141.14,44.67c1.24,.34,2.16,1.47,2.16,2.82v.42c0,1.61-1.31,2.92-2.93,2.92-1.61,0-2.92-1.31-2.92-2.93v-.42c0-1.61,1.31-2.92,2.92-2.92,.26,0,.52,.03,.76,.1Zm-156.79-35.66c.72,.19,1.37,.66,1.77,1.36,.81,1.4,.32,3.19-1.08,3.99l-.36,.21c-1.4,.81-3.19,.32-3.99-1.08-.81-1.4-.32-3.19,1.08-3.99l.36-.21c.7-.4,1.5-.48,2.22-.29Zm156.76,53.76c1.24,.34,2.16,1.47,2.16,2.82v.42c0,1.61-1.31,2.92-2.93,2.92-1.61,0-2.92-1.31-2.92-2.93v-.42c0-1.61,1.31-2.92,2.92-2.92,.26,0,.52,.03,.76,.1Zm-172.4-44.76c.72,.19,1.37,.66,1.77,1.36,.81,1.4,.32,3.19-1.08,3.99l-.36,.21c-1.4,.81-3.19,.32-3.99-1.08-.81-1.4-.32-3.19,1.08-3.99l.36-.21c.7-.4,1.5-.48,2.22-.29Zm-15.64,9c.72,.19,1.37,.66,1.77,1.36,.81,1.4,.32,3.19-1.08,3.99l-.36,.21c-1.4,.81-3.19,.32-3.99-1.08-.81-1.4-.32-3.19,1.08-3.99l.36-.21c.7-.4,1.5-.48,2.22-.29Zm188.02,53.85c1.25,.34,2.16,1.48,2.16,2.83v.42c0,1.61-1.31,2.92-2.93,2.92-1.61,0-2.92-1.31-2.92-2.93v-.42c0-1.61,1.32-2.92,2.93-2.91,.26,0,.51,.04,.75,.1Zm-203.67-44.85c.72,.19,1.37,.66,1.77,1.36,.81,1.4,.32,3.19-1.08,3.99l-.36,.21c-1.4,.81-3.19,.32-3.99-1.08-.81-1.4-.32-3.19,1.08-3.99l.36-.21c.7-.4,1.5-.48,2.22-.29Zm203.64,62.95c1.25,.34,2.16,1.48,2.16,2.83v.42c0,1.61-1.31,2.92-2.93,2.92-1.61,0-2.92-1.31-2.92-2.93v-.42c0-1.61,1.32-2.92,2.93-2.91,.26,0,.51,.04,.76,.1Zm-219.28-53.94c.72,.19,1.37,.66,1.77,1.36,.81,1.4,.32,3.19-1.08,3.99l-.36,.21c-1.4,.81-3.19,.32-3.99-1.08-.81-1.4-.32-3.19,1.08-3.99l.36-.21c.7-.4,1.5-.48,2.22-.29Zm219.26,72.04c1.25,.34,2.16,1.48,2.16,2.83v.42c0,1.61-1.31,2.92-2.93,2.92-1.62,0-2.92-1.31-2.92-2.93v-.42c0-1.61,1.32-2.92,2.93-2.91,.26,0,.51,.04,.76,.1Zm-234.9-63.03c.72,.19,1.37,.66,1.77,1.36,.81,1.4,.32,3.19-1.08,3.99l-.36,.21c-1.4,.81-3.19,.32-3.99-1.08-.81-1.4-.32-3.19,1.08-3.99l.36-.21c.7-.4,1.5-.48,2.22-.29Zm-15.64,9c.72,.19,1.37,.66,1.77,1.36,.81,1.4,.32,3.19-1.08,3.99l-.36,.21c-1.4,.81-3.19,.32-3.99-1.08-.81-1.4-.32-3.19,1.08-3.99l.36-.21c.7-.4,1.5-.48,2.22-.29Zm250.52,72.12c1.25,.34,2.16,1.48,2.16,2.83v.42c0,1.61-1.31,2.92-2.93,2.92-1.61,0-2.92-1.31-2.92-2.93v-.42c0-1.61,1.32-2.92,2.93-2.91,.26,0,.51,.04,.76,.1Zm-266.16-63.12c.72,.19,1.37,.66,1.77,1.36,.81,1.4,.32,3.19-1.08,3.99l-.36,.21c-1.4,.81-3.19,.32-3.99-1.08-.81-1.4-.32-3.19,1.08-3.99l.36-.21c.7-.4,1.5-.48,2.22-.29Zm266.14,81.23c1.25,.34,2.16,1.47,2.16,2.83v.42c0,1.61-1.31,2.92-2.93,2.92-1.61,0-2.92-1.31-2.92-2.93v-.42c0-1.61,1.31-2.92,2.93-2.92,.26,0,.52,.04,.76,.1Zm-281.78-72.22c.72,.19,1.37,.66,1.77,1.36,.81,1.4,.32,3.19-1.08,3.99l-.36,.21c-1.4,.81-3.19,.32-3.99-1.08-.81-1.4-.32-3.19,1.08-3.99l.36-.21c.7-.4,1.5-.48,2.22-.29Zm-15.64,9c.72,.2,1.37,.67,1.77,1.37,.8,1.4,.32,3.19-1.08,3.99l-.36,.21c-1.4,.8-3.19,.32-3.99-1.08-.8-1.4-.32-3.19,1.08-3.99l.36-.21c.7-.4,1.49-.48,2.21-.29Zm297.4,81.32c1.25,.34,2.16,1.48,2.16,2.83v.42c0,1.61-1.31,2.92-2.93,2.92-1.62,0-2.92-1.31-2.92-2.93v-.42c0-1.61,1.32-2.92,2.93-2.91,.26,0,.51,.04,.75,.1Zm-313.04-72.31c.72,.19,1.37,.66,1.77,1.36,.81,1.4,.32,3.19-1.08,3.99l-.36,.21c-1.4,.81-3.19,.32-3.99-1.08-.81-1.4-.32-3.19,1.08-3.99l.36-.21c.7-.4,1.5-.48,2.22-.29Zm313.01,90.41c1.25,.34,2.16,1.48,2.16,2.83v.42c0,1.61-1.31,2.92-2.93,2.92-1.61,0-2.92-1.31-2.92-2.93v-.42c0-1.61,1.32-2.92,2.93-2.91,.26,0,.51,.04,.76,.1Zm-328.66-81.41c.72,.19,1.37,.66,1.77,1.36,.81,1.4,.32,3.19-1.08,3.99l-.36,.21c-1.4,.81-3.19,.32-3.99-1.08-.81-1.4-.32-3.19,1.08-3.99l.36-.21c.7-.4,1.5-.48,2.22-.29Zm328.63,99.5c1.25,.34,2.16,1.48,2.16,2.83v.42c0,1.61-1.31,2.92-2.93,2.92-1.61,0-2.92-1.31-2.92-2.93v-.42c0-1.61,1.32-2.92,2.93-2.91,.26,0,.51,.04,.76,.1Zm-344.27-90.5c.72,.19,1.37,.66,1.77,1.36,.81,1.4,.32,3.19-1.08,3.99l-.36,.21c-1.4,.81-3.19,.32-3.99-1.08-.81-1.4-.32-3.19,1.08-3.99l.36-.21c.7-.4,1.5-.48,2.22-.29Zm-15.64,9c.72,.19,1.37,.66,1.77,1.36,.81,1.4,.32,3.19-1.08,3.99l-.36,.21c-1.4,.81-3.19,.32-3.99-1.08-.81-1.4-.32-3.19,1.08-3.99l.36-.21c.7-.4,1.5-.48,2.22-.29Zm359.89,99.59c1.25,.34,2.16,1.48,2.16,2.83v.42c0,1.61-1.31,2.92-2.93,2.92-1.61,0-2.92-1.31-2.92-2.93v-.42c0-1.61,1.32-2.92,2.93-2.91,.26,0,.51,.04,.76,.1Zm-373.27-89.2c.78,.21,1.46,.74,1.85,1.51,.92,1.31,.61,3.11-.69,4.05-1.31,.94-3.14,.65-4.08-.67-.18-.24-.33-.51-.47-.78-.71-1.45-.11-3.2,1.34-3.91,.66-.32,1.39-.38,2.05-.2Zm373.24,107.3c1.25,.34,2.16,1.48,2.16,2.83v.42c0,1.61-1.31,2.92-2.93,2.92-1.61,0-2.92-1.31-2.92-2.93v-.42c0-1.61,1.32-2.92,2.93-2.91,.26,0,.51,.04,.76,.1Zm-342.03-88.73c.24,.06,.48,.16,.7,.29l.37,.22c1.39,.81,1.87,2.6,1.05,4-.81,1.39-2.6,1.87-4,1.05l-.35-.2c-1.4-.81-1.88-2.6-1.07-3.99,.68-1.17,2.04-1.7,3.29-1.36Zm15.69,9.09c.24,.06,.47,.16,.7,.29l.38,.22c1.39,.81,1.87,2.6,1.05,4-.81,1.39-2.6,1.87-4,1.05l-.35-.2c-1.4-.81-1.88-2.59-1.07-3.99,.68-1.17,2.04-1.7,3.29-1.37Zm15.68,9.08c.24,.06,.47,.16,.7,.29l.38,.22c1.39,.81,1.87,2.6,1.05,4-.81,1.39-2.6,1.86-4,1.05l-.35-.2c-1.4-.81-1.88-2.59-1.07-3.99,.68-1.17,2.04-1.7,3.29-1.37Zm15.67,9.08c.24,.06,.47,.16,.7,.29l.38,.22c1.39,.82,1.86,2.61,1.05,4-.82,1.39-2.6,1.86-4,1.05l-.34-.2c-1.4-.81-1.88-2.59-1.07-3.99,.68-1.17,2.04-1.7,3.29-1.37Zm294.96,79.58c1.25,.34,2.16,1.48,2.16,2.83v.42c0,1.61-1.31,2.92-2.93,2.92-1.61,0-2.92-1.31-2.92-2.93v-.42c0-1.61,1.32-2.92,2.93-2.91,.26,0,.51,.04,.76,.1Zm-279.3-70.51c.24,.06,.47,.16,.7,.29l.38,.22c1.39,.82,1.86,2.61,1.05,4-.82,1.39-2.6,1.86-4,1.05l-.34-.2c-1.4-.81-1.88-2.59-1.07-3.99,.68-1.17,2.04-1.7,3.29-1.37Zm15.66,9.07c.24,.06,.47,.16,.7,.29l.38,.22c1.39,.82,1.86,2.61,1.05,4-.82,1.39-2.6,1.86-4,1.05l-.34-.2c-1.4-.81-1.88-2.59-1.07-3.99,.68-1.17,2.04-1.7,3.29-1.37Zm15.66,9.07c.24,.06,.47,.16,.7,.29l.38,.22c1.39,.82,1.86,2.61,1.05,4-.82,1.39-2.6,1.86-4,1.05l-.34-.2c-1.4-.81-1.88-2.59-1.07-3.99,.68-1.17,2.04-1.7,3.29-1.37Zm247.95,70.47c1.25,.34,2.17,1.48,2.16,2.83v.41c0,1.61-1.31,2.92-2.93,2.92-1.61,0-2.92-1.31-2.92-2.93v-.43c0-1.61,1.32-2.92,2.94-2.91,.26,0,.51,.04,.75,.1Zm-232.3-61.4c.24,.06,.47,.16,.7,.29l.38,.22c1.39,.82,1.86,2.61,1.05,4s-2.6,1.86-4,1.05l-.34-.2c-1.4-.81-1.88-2.59-1.07-3.99,.68-1.17,2.04-1.7,3.29-1.37Zm15.66,9.07c.24,.06,.47,.16,.7,.29l.38,.22c1.39,.82,1.86,2.61,1.05,4-.82,1.39-2.6,1.86-4,1.05l-.34-.2c-1.4-.81-1.88-2.59-1.07-3.99,.68-1.17,2.04-1.7,3.29-1.37Zm15.65,9.07c.24,.06,.47,.16,.7,.29l.38,.22c1.39,.81,1.87,2.6,1.05,4-.81,1.39-2.6,1.86-4,1.05l-.35-.2c-1.4-.81-1.88-2.59-1.07-3.99,.68-1.17,2.04-1.7,3.29-1.37Zm15.67,9.08c.24,.06,.47,.16,.7,.29l.38,.22c1.39,.82,1.86,2.61,1.05,4-.82,1.39-2.6,1.86-4,1.05l-.34-.2c-1.4-.81-1.88-2.59-1.07-3.99,.68-1.17,2.04-1.7,3.29-1.37Zm185.29,52.3c1.25,.34,2.17,1.48,2.16,2.83v.41c0,1.61-1.31,2.92-2.93,2.92-1.61,0-2.92-1.31-2.92-2.93v-.43c0-1.61,1.32-2.92,2.94-2.91,.26,0,.51,.04,.75,.1Zm-169.64-43.23c.24,.06,.47,.16,.7,.29l.38,.22c1.39,.82,1.86,2.61,1.05,4-.82,1.39-2.6,1.86-4,1.05l-.34-.2c-1.4-.81-1.88-2.59-1.07-3.99,.68-1.17,2.04-1.7,3.29-1.37Zm15.65,9.07c.24,.06,.47,.16,.7,.29l.38,.22c1.39,.81,1.87,2.6,1.05,4-.81,1.39-2.6,1.87-4,1.05l-.35-.2c-1.4-.81-1.88-2.59-1.07-3.99,.68-1.17,2.04-1.7,3.29-1.37Zm15.66,9.07c.24,.06,.47,.16,.7,.29l.38,.22c1.39,.81,1.86,2.6,1.05,4-.81,1.39-2.6,1.87-4,1.05l-.35-.2c-1.4-.81-1.88-2.59-1.07-3.99,.68-1.17,2.04-1.7,3.29-1.37Zm15.66,9.07c.24,.06,.47,.16,.7,.29l.38,.22c1.39,.81,1.86,2.6,1.05,4-.81,1.39-2.6,1.87-4,1.05l-.35-.2c-1.4-.81-1.88-2.59-1.07-3.99,.68-1.17,2.04-1.7,3.29-1.37Zm122.64,34.15c1.25,.34,2.16,1.47,2.16,2.83v.42c0,1.61-1.31,2.92-2.92,2.92-1.62,0-2.92-1.31-2.92-2.92v-.42c0-1.61,1.31-2.92,2.93-2.92,.26,0,.52,.04,.76,.1Zm-106.98-25.07c.24,.06,.47,.16,.7,.29l.38,.22c1.39,.81,1.86,2.6,1.05,4-.81,1.39-2.6,1.87-4,1.05l-.35-.2c-1.4-.81-1.88-2.59-1.07-3.99,.68-1.17,2.04-1.7,3.29-1.37Zm15.66,9.07c.24,.06,.47,.16,.7,.29l.38,.22c1.39,.82,1.86,2.61,1.05,4-.81,1.39-2.61,1.86-4,1.05l-.35-.2c-1.4-.81-1.88-2.59-1.07-3.99,.68-1.17,2.04-1.7,3.29-1.37Zm15.67,9.07c.24,.06,.47,.16,.7,.29l.38,.22c1.39,.82,1.86,2.61,1.05,4-.81,1.39-2.6,1.86-4,1.05l-.35-.2c-1.4-.81-1.88-2.59-1.07-3.99,.68-1.17,2.04-1.7,3.29-1.37Zm75.63,25.08c1.25,.34,2.16,1.48,2.16,2.83v.42c0,1.61-1.32,2.92-2.93,2.91-1.61,0-2.92-1.32-2.91-2.93v-.42c0-1.61,1.32-2.92,2.93-2.91,.26,0,.51,.04,.75,.1Zm-59.96-16c.24,.06,.47,.16,.7,.29l.38,.22c1.39,.81,1.86,2.6,1.05,4-.81,1.39-2.6,1.87-4,1.05l-.35-.2c-1.4-.81-1.88-2.59-1.07-3.99,.68-1.17,2.04-1.7,3.29-1.37Zm15.68,9.08c.24,.06,.47,.16,.7,.29l.38,.22c1.39,.82,1.86,2.61,1.05,4-.81,1.39-2.61,1.86-4,1.05l-.34-.2c-1.4-.81-1.88-2.59-1.08-3.99,.68-1.17,2.04-1.7,3.29-1.37Zm15.69,9.09c.24,.06,.47,.16,.7,.29l.38,.22c1.39,.82,1.86,2.61,1.05,4-.82,1.39-2.61,1.86-4,1.05l-.35-.2c-1.4-.81-1.88-2.59-1.07-3.99,.68-1.17,2.04-1.7,3.29-1.37Zm15.71,9.09c.24,.07,.48,.16,.71,.3l.36,.21c1.4,.81,1.87,2.6,1.07,3.99-.81,1.4-2.6,1.87-3.99,1.07l-.37-.21c-1.4-.81-1.87-2.6-1.06-4,.68-1.17,2.04-1.69,3.29-1.35Zm12.85,6.98c1.24,.34,2.16,1.47,2.16,2.82v.37c0,.28-.02,.56-.1,.84-.42,1.56-2.02,2.48-3.58,2.06-.81-.22-2.16-.92-2.16-3.18v-.09c0-1.61,1.31-2.92,2.92-2.92,.26,0,.52,.03,.76,.1Zm-357.3-206.53c.24,.06,.48,.16,.7,.29l.37,.22c1.39,.81,1.87,2.6,1.05,4-.81,1.39-2.6,1.87-4,1.05l-.35-.2c-1.4-.81-1.88-2.6-1.07-3.99,.68-1.17,2.04-1.7,3.29-1.36Z"/></g><g><path d="M41.33,934.6l.36,.21c1.4,.8,1.88,2.59,1.08,3.99-.8,1.4-2.59,1.88-3.99,1.08l-.36-.21c-1.4-.8-1.88-2.59-1.08-3.99,.4-.7,1.05-1.17,1.77-1.36s1.52-.11,2.22,.29Zm15.64,9l.36,.21c1.4,.8,1.88,2.59,1.08,3.99-.81,1.4-2.59,1.88-3.99,1.08l-.36-.21c-1.4-.8-1.88-2.59-1.08-3.99,.4-.7,1.05-1.17,1.77-1.36,.72-.19,1.52-.11,2.22,.29Zm-17.58,7.58c1.61,0,2.92,1.31,2.92,2.93v.41c0,1.61-1.31,2.92-2.92,2.92-1.61,0-2.92-1.31-2.92-2.92v-.42c0-1.35,.92-2.48,2.16-2.82,.24-.07,.5-.1,.77-.1Zm33.23,1.42l.36,.21c1.4,.8,1.88,2.59,1.08,3.99-.81,1.4-2.59,1.88-3.99,1.08l-.36-.21c-1.4-.8-1.88-2.59-1.08-3.99,.4-.7,1.05-1.17,1.77-1.36s1.52-.11,2.22,.29Zm-33.22,16.73c1.61,0,2.93,1.3,2.93,2.91v.43c0,1.61-1.3,2.92-2.92,2.93-1.61,0-2.92-1.3-2.93-2.92v-.41c0-1.35,.91-2.5,2.16-2.83,.24-.06,.49-.1,.75-.1Zm48.87-7.73l.36,.21c1.4,.8,1.88,2.59,1.08,3.99-.81,1.4-2.59,1.88-3.99,1.08l-.36-.21c-1.4-.8-1.88-2.59-1.08-3.99,.4-.7,1.05-1.17,1.77-1.36,.72-.19,1.52-.11,2.22,.29Zm15.64,9l.36,.21c1.4,.8,1.88,2.59,1.08,3.99-.81,1.4-2.59,1.88-3.99,1.08l-.36-.21c-1.4-.8-1.88-2.59-1.08-3.99,.4-.7,1.05-1.17,1.77-1.36s1.52-.11,2.22,.29Zm-64.48,16.86c1.61,0,2.92,1.31,2.92,2.92v.42c0,1.61-1.31,2.92-2.92,2.93-1.61,0-2.92-1.3-2.93-2.92v-.42c0-1.35,.92-2.49,2.16-2.82,.24-.07,.5-.1,.76-.1Zm80.12-7.85l.36,.21c1.4,.8,1.88,2.59,1.08,3.99-.81,1.4-2.59,1.88-3.99,1.08l-.36-.21c-1.4-.8-1.88-2.59-1.08-3.99,.4-.7,1.05-1.17,1.77-1.36s1.52-.11,2.22,.29Zm-80.1,25.97c1.61,0,2.92,1.31,2.92,2.92v.42c0,1.61-1.31,2.92-2.92,2.93-1.61,0-2.92-1.3-2.93-2.92v-.42c0-1.35,.92-2.49,2.16-2.82,.24-.07,.5-.1,.76-.1Zm95.74-16.97l.36,.21c1.4,.8,1.88,2.59,1.08,3.99-.81,1.4-2.59,1.88-3.99,1.08l-.36-.21c-1.4-.8-1.88-2.59-1.08-3.99,.4-.7,1.05-1.17,1.77-1.36s1.52-.11,2.22,.29Zm-95.72,35.08c1.61,0,2.92,1.3,2.93,2.92v.42c0,1.61-1.3,2.92-2.92,2.93-1.61,0-2.92-1.3-2.93-2.92v-.42c0-1.35,.91-2.49,2.16-2.83,.24-.07,.5-.1,.76-.1Zm111.37-26.08l.36,.21c1.4,.8,1.88,2.59,1.08,3.99-.81,1.4-2.59,1.88-3.99,1.08l-.36-.21c-1.4-.8-1.88-2.59-1.08-3.99,.4-.7,1.05-1.17,1.77-1.36s1.52-.11,2.22,.29Zm15.64,9l.36,.21c1.4,.8,1.88,2.59,1.08,3.99-.81,1.4-2.59,1.88-3.99,1.08l-.36-.21c-1.4-.8-1.88-2.59-1.08-3.99,.4-.7,1.05-1.17,1.77-1.36s1.52-.11,2.22,.29Zm-126.98,35.18c1.61,0,2.92,1.3,2.93,2.92v.42c0,1.61-1.31,2.92-2.92,2.93-1.61,0-2.92-1.3-2.93-2.92v-.42c0-1.35,.91-2.49,2.16-2.83,.24-.07,.5-.1,.76-.1Zm142.63-26.18l.36,.21c1.4,.8,1.88,2.59,1.08,3.99-.81,1.4-2.59,1.88-3.99,1.08l-.36-.21c-1.4-.8-1.88-2.59-1.08-3.99,.4-.7,1.05-1.17,1.77-1.36s1.52-.11,2.22,.29Zm-142.6,44.28c1.61,0,2.92,1.31,2.92,2.92v.42c0,1.61-1.31,2.92-2.92,2.93-1.61,0-2.92-1.3-2.93-2.92v-.42c0-1.35,.92-2.49,2.16-2.82,.24-.07,.5-.1,.76-.1Zm158.24-35.28l.36,.21c1.4,.8,1.88,2.59,1.08,3.99-.81,1.4-2.59,1.88-3.99,1.08l-.36-.21c-1.4-.8-1.88-2.59-1.08-3.99,.4-.7,1.05-1.17,1.77-1.36s1.52-.11,2.22,.29Zm-158.22,53.37c1.61,0,2.92,1.31,2.92,2.92v.42c0,1.61-1.3,2.93-2.92,2.93-1.61,0-2.92-1.3-2.93-2.92v-.42c0-1.35,.92-2.49,2.16-2.82,.24-.07,.5-.1,.76-.1Zm173.86-44.37l.36,.21c1.4,.8,1.88,2.59,1.08,3.99-.81,1.4-2.59,1.88-3.99,1.08l-.36-.21c-1.4-.8-1.88-2.59-1.08-3.99,.4-.7,1.05-1.17,1.77-1.36,.72-.19,1.52-.11,2.22,.29Zm15.64,9l.36,.21c1.4,.8,1.88,2.59,1.08,3.99-.81,1.4-2.59,1.88-3.99,1.08l-.36-.21c-1.4-.8-1.88-2.59-1.08-3.99,.4-.7,1.05-1.17,1.77-1.36s1.52-.11,2.22,.29Zm-189.49,53.46c1.61,0,2.93,1.3,2.93,2.91v.42c0,1.61-1.31,2.92-2.92,2.93-1.61,0-2.92-1.3-2.93-2.92v-.42c0-1.35,.91-2.49,2.16-2.83,.24-.06,.49-.1,.75-.1Zm205.13-44.46l.36,.21c1.4,.8,1.88,2.59,1.08,3.99-.81,1.4-2.59,1.88-3.99,1.08l-.36-.21c-1.4-.8-1.88-2.59-1.08-3.99,.4-.7,1.05-1.17,1.77-1.36s1.52-.11,2.22,.29Zm-205.1,62.56c1.61,0,2.93,1.3,2.93,2.91v.42c0,1.61-1.31,2.92-2.92,2.93-1.61,0-2.92-1.3-2.93-2.92v-.42c0-1.35,.91-2.49,2.16-2.83,.24-.06,.49-.1,.76-.1Zm220.75-53.55l.36,.21c1.4,.8,1.88,2.59,1.08,3.99-.81,1.4-2.59,1.88-3.99,1.08l-.36-.21c-1.4-.8-1.88-2.59-1.08-3.99,.4-.7,1.05-1.17,1.77-1.36s1.52-.11,2.22,.29Zm-220.72,71.65c1.61,0,2.93,1.3,2.93,2.91v.42c0,1.61-1.3,2.92-2.92,2.93-1.61,0-2.92-1.3-2.93-2.92v-.42c0-1.35,.91-2.49,2.16-2.83,.24-.06,.49-.1,.76-.1Zm236.37-62.65l.36,.21c1.4,.8,1.88,2.59,1.08,3.99-.81,1.4-2.59,1.88-3.99,1.08l-.36-.21c-1.4-.8-1.88-2.59-1.08-3.99,.4-.7,1.05-1.17,1.77-1.36,.72-.19,1.52-.11,2.22,.29Zm15.64,9l.36,.21c1.4,.8,1.88,2.59,1.08,3.99-.81,1.4-2.59,1.88-3.99,1.08l-.36-.21c-1.4-.8-1.88-2.59-1.08-3.99,.4-.7,1.05-1.17,1.77-1.36,.72-.19,1.52-.11,2.22,.29Zm-251.98,71.73c1.61,0,2.93,1.3,2.93,2.91v.42c0,1.61-1.31,2.92-2.92,2.93-1.61,0-2.92-1.3-2.93-2.92v-.42c0-1.35,.91-2.49,2.16-2.83,.24-.06,.49-.1,.76-.1Zm267.63-62.73l.36,.21c1.4,.8,1.88,2.59,1.08,3.99-.81,1.4-2.59,1.88-3.99,1.08l-.36-.21c-1.4-.8-1.88-2.59-1.08-3.99,.4-.7,1.05-1.17,1.77-1.36s1.52-.11,2.22,.29Zm-267.6,80.84c1.61,0,2.92,1.3,2.93,2.92v.42c0,1.61-1.31,2.92-2.92,2.93-1.61,0-2.92-1.3-2.93-2.92v-.42c0-1.35,.91-2.49,2.16-2.83,.24-.07,.5-.1,.76-.1Zm283.24-71.83l.36,.21c1.4,.8,1.88,2.59,1.08,3.99-.81,1.4-2.59,1.88-3.99,1.08l-.36-.21c-1.4-.8-1.88-2.59-1.08-3.99,.4-.7,1.05-1.17,1.77-1.36,.72-.19,1.52-.11,2.22,.29Zm15.64,9l.36,.21c1.4,.8,1.88,2.59,1.08,3.99-.8,1.4-2.59,1.88-3.99,1.08l-.36-.21c-1.4-.8-1.88-2.59-1.08-3.99,.4-.7,1.05-1.17,1.77-1.37s1.52-.11,2.21,.29Zm-298.86,80.93c1.61,0,2.93,1.3,2.93,2.91v.42c0,1.61-1.3,2.92-2.92,2.93-1.61,0-2.92-1.3-2.93-2.92v-.42c0-1.35,.91-2.49,2.16-2.83,.24-.06,.49-.1,.75-.1Zm314.5-71.93l.36,.21c1.4,.8,1.88,2.59,1.08,3.99-.81,1.4-2.59,1.88-3.99,1.08l-.36-.21c-1.4-.8-1.88-2.59-1.08-3.99,.4-.7,1.05-1.17,1.77-1.36s1.52-.11,2.22,.29Zm-314.48,90.02c1.61,0,2.93,1.3,2.93,2.91v.42c0,1.61-1.3,2.92-2.92,2.93-1.61,0-2.92-1.3-2.93-2.92v-.42c0-1.35,.91-2.49,2.16-2.83,.24-.06,.49-.1,.76-.1Zm330.12-81.02l.36,.21c1.4,.8,1.88,2.59,1.08,3.99-.81,1.4-2.59,1.88-3.99,1.08l-.36-.21c-1.4-.8-1.88-2.59-1.08-3.99,.4-.7,1.05-1.17,1.77-1.36s1.52-.11,2.22,.29Zm-330.09,99.11c1.61,0,2.93,1.3,2.93,2.91v.42c0,1.61-1.31,2.92-2.92,2.93-1.61,0-2.92-1.3-2.93-2.92v-.42c0-1.35,.91-2.49,2.16-2.83,.24-.06,.49-.1,.76-.1Zm345.74-90.11l.36,.21c1.4,.8,1.88,2.59,1.08,3.99-.81,1.4-2.59,1.88-3.99,1.08l-.36-.21c-1.4-.8-1.88-2.59-1.08-3.99,.4-.7,1.05-1.17,1.77-1.36s1.52-.11,2.22,.29Zm15.64,9l.36,.21c1.4,.8,1.88,2.59,1.08,3.99-.81,1.4-2.59,1.88-3.99,1.08l-.36-.21c-1.4-.8-1.88-2.59-1.08-3.99,.4-.7,1.05-1.17,1.77-1.36s1.52-.11,2.22,.29Zm-361.35,99.2c1.61,0,2.93,1.3,2.93,2.91v.42c0,1.61-1.31,2.92-2.92,2.93-1.61,0-2.92-1.3-2.93-2.92v-.42c0-1.35,.91-2.49,2.16-2.83,.24-.06,.49-.1,.76-.1Zm374.56-88.9c1.45,.71,2.05,2.46,1.34,3.91-.13,.27-.29,.54-.47,.78-.94,1.31-2.77,1.61-4.08,.67-1.3-.94-1.6-2.74-.69-4.05,.39-.77,1.07-1.3,1.85-1.51,.66-.18,1.38-.13,2.05,.2Zm-374.53,107c1.61,0,2.93,1.3,2.93,2.91v.42c0,1.61-1.31,2.92-2.92,2.93-1.61,0-2.92-1.3-2.93-2.92v-.42c0-1.35,.91-2.49,2.16-2.83,.24-.06,.49-.1,.76-.1Zm344.56-87.27c.81,1.4,.33,3.18-1.07,3.99l-.35,.2c-1.4,.81-3.18,.34-4-1.05-.81-1.39-.34-3.18,1.05-4l.37-.22c.23-.13,.46-.23,.7-.29,1.25-.34,2.61,.19,3.29,1.36Zm-15.69,9.09c.81,1.4,.32,3.19-1.07,3.99l-.35,.2c-1.4,.82-3.18,.34-4-1.05-.81-1.39-.34-3.18,1.05-4l.38-.22c.22-.13,.46-.23,.7-.29,1.25-.34,2.62,.19,3.29,1.37Zm-15.68,9.08c.81,1.4,.32,3.19-1.07,3.99l-.35,.2c-1.4,.81-3.18,.34-4-1.05-.81-1.39-.34-3.18,1.05-4l.38-.22c.22-.13,.46-.23,.7-.29,1.25-.34,2.62,.19,3.29,1.37Zm-15.67,9.08c.81,1.4,.32,3.19-1.07,3.99l-.34,.2c-1.4,.82-3.18,.35-4-1.05s-.35-3.18,1.05-4l.38-.22c.22-.13,.46-.23,.7-.29,1.25-.34,2.62,.19,3.29,1.37Zm-297.5,78.12c1.61,0,2.93,1.3,2.93,2.91v.42c0,1.61-1.3,2.92-2.92,2.93-1.61,0-2.92-1.3-2.93-2.92v-.42c0-1.35,.91-2.49,2.16-2.83,.24-.06,.49-.1,.76-.1Zm281.84-69.04c.81,1.4,.32,3.19-1.07,3.99l-.34,.2c-1.39,.82-3.18,.35-4-1.05-.82-1.39-.35-3.18,1.05-4l.38-.22c.22-.13,.46-.23,.7-.29,1.25-.34,2.62,.19,3.29,1.37Zm-15.66,9.07c.81,1.4,.32,3.19-1.07,3.99l-.34,.2c-1.4,.82-3.18,.35-4-1.05s-.35-3.18,1.05-4l.38-.22c.22-.13,.46-.23,.7-.29,1.25-.34,2.62,.19,3.29,1.37Zm-15.66,9.07c.81,1.4,.32,3.19-1.07,3.99l-.34,.2c-1.4,.82-3.18,.35-4-1.05s-.35-3.18,1.05-4l.38-.22c.22-.13,.46-.23,.7-.29,1.25-.34,2.62,.19,3.29,1.37Zm-250.49,69c1.61,0,2.93,1.3,2.93,2.91v.43c0,1.61-1.31,2.92-2.92,2.93-1.61,0-2.92-1.3-2.93-2.92v-.41c0-1.35,.91-2.5,2.16-2.83,.24-.06,.49-.1,.75-.1Zm234.84-59.93c.81,1.4,.32,3.19-1.07,3.99l-.34,.2c-1.4,.82-3.18,.35-4-1.05s-.35-3.18,1.05-4l.38-.22c.22-.13,.46-.23,.7-.29,1.25-.34,2.62,.19,3.29,1.37Zm-15.66,9.07c.81,1.4,.32,3.19-1.07,3.99l-.34,.2c-1.4,.82-3.18,.35-4-1.05-.82-1.39-.35-3.18,1.05-4l.38-.22c.22-.13,.46-.23,.7-.29,1.25-.34,2.62,.19,3.29,1.37Zm-15.65,9.07c.81,1.4,.32,3.19-1.07,3.99l-.35,.2c-1.4,.81-3.18,.34-4-1.05-.81-1.39-.34-3.18,1.05-4l.38-.22c.22-.13,.46-.23,.7-.29,1.25-.34,2.62,.19,3.29,1.37Zm-15.67,9.08c.81,1.4,.32,3.19-1.07,3.99l-.34,.2c-1.4,.82-3.18,.35-4-1.05-.81-1.39-.35-3.18,1.05-4l.38-.22c.22-.13,.46-.23,.7-.29,1.25-.34,2.62,.19,3.29,1.37Zm-187.83,50.83c1.61,0,2.93,1.3,2.94,2.91v.43c0,1.61-1.3,2.92-2.92,2.93-1.61,0-2.92-1.3-2.93-2.92v-.41c0-1.35,.91-2.5,2.16-2.83,.24-.06,.49-.1,.75-.1Zm172.18-41.76c.81,1.4,.32,3.19-1.07,3.99l-.34,.2c-1.4,.82-3.18,.35-4-1.05-.82-1.39-.35-3.18,1.05-4l.38-.22c.22-.13,.46-.23,.7-.29,1.25-.34,2.62,.19,3.29,1.37Zm-15.65,9.07c.81,1.4,.32,3.19-1.07,3.99l-.35,.2c-1.39,.81-3.18,.34-4-1.05-.81-1.39-.34-3.18,1.05-4l.38-.22c.23-.13,.46-.23,.7-.29,1.25-.34,2.62,.19,3.29,1.37Zm-15.66,9.07c.81,1.4,.32,3.19-1.07,3.99l-.35,.2c-1.4,.82-3.18,.34-4-1.05-.81-1.39-.34-3.18,1.05-4l.38-.22c.22-.13,.46-.23,.7-.29,1.25-.34,2.62,.19,3.29,1.37Zm-15.66,9.07c.81,1.4,.32,3.19-1.07,3.99l-.35,.2c-1.4,.82-3.18,.35-4-1.05-.81-1.39-.34-3.18,1.05-4l.38-.22c.22-.13,.46-.23,.7-.29,1.25-.34,2.62,.19,3.29,1.37Zm-125.17,32.68c1.61,0,2.92,1.3,2.93,2.92v.42c0,1.61-1.31,2.93-2.92,2.92-1.61,0-2.92-1.31-2.92-2.92v-.42c0-1.35,.91-2.49,2.16-2.83,.24-.07,.5-.1,.76-.1Zm109.51-23.61c.81,1.4,.32,3.19-1.07,3.99l-.35,.2c-1.39,.82-3.18,.35-4-1.05-.81-1.39-.34-3.18,1.05-4l.38-.22c.22-.13,.46-.23,.7-.29,1.25-.34,2.62,.19,3.29,1.37Zm-15.66,9.07c.81,1.4,.32,3.19-1.07,3.99l-.35,.2c-1.39,.82-3.18,.35-4-1.05-.82-1.39-.35-3.18,1.05-4l.38-.22c.23-.13,.46-.23,.7-.29,1.25-.34,2.62,.19,3.29,1.37Zm-15.67,9.07c.81,1.4,.32,3.19-1.07,3.99l-.35,.2c-1.39,.82-3.18,.35-4-1.05-.82-1.39-.35-3.18,1.05-4l.38-.22c.23-.13,.46-.23,.7-.29,1.25-.34,2.62,.19,3.29,1.37Zm-78.16,23.61c1.61,0,2.93,1.3,2.93,2.91v.42c0,1.62-1.3,2.92-2.91,2.93-1.61,0-2.93-1.3-2.93-2.91v-.42c0-1.35,.91-2.49,2.16-2.83,.24-.06,.49-.1,.75-.1Zm62.49-14.53c.81,1.4,.32,3.19-1.07,3.99l-.35,.2c-1.39,.82-3.18,.35-4-1.05-.81-1.39-.34-3.18,1.05-4l.38-.22c.22-.13,.46-.23,.7-.29,1.25-.34,2.62,.19,3.29,1.37Zm-15.68,9.08c.81,1.4,.32,3.19-1.08,3.99l-.34,.2c-1.39,.81-3.18,.35-4-1.05-.82-1.39-.35-3.18,1.05-4l.38-.22c.23-.13,.46-.23,.7-.29,1.25-.34,2.62,.19,3.29,1.37Zm-15.69,9.09c.81,1.4,.32,3.19-1.07,3.99l-.35,.2c-1.39,.81-3.18,.35-4-1.05-.82-1.39-.35-3.18,1.05-4l.38-.22c.23-.13,.46-.23,.7-.29,1.25-.34,2.62,.19,3.29,1.37Zm-15.72,9.08c.81,1.4,.34,3.18-1.06,4l-.37,.21c-1.4,.81-3.18,.33-3.99-1.07-.81-1.4-.33-3.19,1.07-3.99l.36-.21c.23-.13,.47-.23,.71-.3,1.24-.34,2.61,.19,3.29,1.35Zm-15.37,5.52c1.61,0,2.92,1.31,2.92,2.92v.09c0,2.26-1.36,2.96-2.16,3.18-1.56,.42-3.16-.5-3.58-2.06-.08-.28-.11-.56-.1-.84v-.37c0-1.35,.92-2.49,2.16-2.82,.24-.07,.5-.1,.76-.1Zm359.83-205.07c.81,1.4,.33,3.18-1.07,3.99l-.35,.2c-1.4,.81-3.18,.34-4-1.05-.81-1.39-.34-3.18,1.05-4l.37-.22c.23-.13,.46-.23,.7-.29,1.25-.34,2.61,.19,3.29,1.36Z"/><path d="M41.33,477.38l.36,.21c1.4,.8,1.88,2.59,1.08,3.99-.8,1.4-2.59,1.88-3.99,1.08l-.36-.21c-1.4-.8-1.88-2.59-1.08-3.99,.4-.7,1.05-1.17,1.77-1.36s1.52-.11,2.22,.29Zm15.64,9l.36,.21c1.4,.8,1.88,2.59,1.08,3.99-.81,1.4-2.59,1.88-3.99,1.08l-.36-.21c-1.4-.8-1.88-2.59-1.08-3.99,.4-.7,1.05-1.17,1.77-1.36,.72-.19,1.52-.11,2.22,.29Zm-17.58,7.58c1.61,0,2.92,1.31,2.92,2.93v.41c0,1.61-1.31,2.92-2.92,2.92-1.61,0-2.92-1.31-2.92-2.92v-.42c0-1.35,.92-2.48,2.16-2.82,.24-.07,.5-.1,.77-.1Zm33.23,1.42l.36,.21c1.4,.8,1.88,2.59,1.08,3.99-.81,1.4-2.59,1.88-3.99,1.08l-.36-.21c-1.4-.8-1.88-2.59-1.08-3.99,.4-.7,1.05-1.17,1.77-1.36s1.52-.11,2.22,.29Zm-33.22,16.73c1.61,0,2.93,1.3,2.93,2.91v.43c0,1.61-1.3,2.92-2.92,2.93-1.61,0-2.92-1.3-2.93-2.92v-.41c0-1.35,.91-2.5,2.16-2.83,.24-.06,.49-.1,.75-.1Zm48.87-7.73l.36,.21c1.4,.8,1.88,2.59,1.08,3.99-.81,1.4-2.59,1.88-3.99,1.08l-.36-.21c-1.4-.8-1.88-2.59-1.08-3.99,.4-.7,1.05-1.17,1.77-1.36s1.52-.11,2.22,.29Zm15.64,9l.36,.21c1.4,.8,1.88,2.59,1.08,3.99-.81,1.4-2.59,1.88-3.99,1.08l-.36-.21c-1.4-.8-1.88-2.59-1.08-3.99,.4-.7,1.05-1.17,1.77-1.36s1.52-.11,2.22,.29Zm-64.48,16.86c1.61,0,2.92,1.31,2.92,2.92v.42c0,1.61-1.31,2.92-2.92,2.93-1.61,0-2.92-1.3-2.93-2.92v-.42c0-1.35,.92-2.49,2.16-2.82,.24-.07,.5-.1,.76-.1Zm80.12-7.85l.36,.21c1.4,.8,1.88,2.59,1.08,3.99-.81,1.4-2.59,1.88-3.99,1.08l-.36-.21c-1.4-.8-1.88-2.59-1.08-3.99,.4-.7,1.05-1.17,1.77-1.36,.72-.19,1.52-.11,2.22,.29Zm-80.1,25.97c1.61,0,2.92,1.31,2.92,2.92v.42c0,1.61-1.31,2.92-2.92,2.93-1.61,0-2.92-1.3-2.93-2.92v-.42c0-1.35,.92-2.49,2.16-2.82,.24-.07,.5-.1,.76-.1Zm95.74-16.97l.36,.21c1.4,.8,1.88,2.59,1.08,3.99-.81,1.4-2.59,1.88-3.99,1.08l-.36-.21c-1.4-.8-1.88-2.59-1.08-3.99,.4-.7,1.05-1.17,1.77-1.36s1.52-.11,2.22,.29Zm-95.72,35.08c1.61,0,2.92,1.3,2.93,2.92v.42c0,1.61-1.3,2.92-2.92,2.93-1.61,0-2.92-1.3-2.93-2.92v-.42c0-1.35,.91-2.49,2.16-2.83,.24-.07,.5-.1,.76-.1Zm111.37-26.08l.36,.21c1.4,.8,1.88,2.59,1.08,3.99-.81,1.4-2.59,1.88-3.99,1.08l-.36-.21c-1.4-.8-1.88-2.59-1.08-3.99,.4-.7,1.05-1.17,1.77-1.36s1.52-.11,2.22,.29Zm15.64,9l.36,.21c1.4,.8,1.88,2.59,1.08,3.99-.81,1.4-2.59,1.88-3.99,1.08l-.36-.21c-1.4-.8-1.88-2.59-1.08-3.99,.4-.7,1.05-1.17,1.77-1.36,.72-.19,1.52-.11,2.22,.29Zm-126.98,35.18c1.61,0,2.92,1.3,2.93,2.92v.42c0,1.61-1.31,2.92-2.92,2.93-1.61,0-2.92-1.3-2.93-2.92v-.42c0-1.35,.91-2.49,2.16-2.83,.24-.07,.5-.1,.76-.1Zm142.63-26.18l.36,.21c1.4,.8,1.88,2.59,1.08,3.99-.81,1.4-2.59,1.88-3.99,1.08l-.36-.21c-1.4-.8-1.88-2.59-1.08-3.99,.4-.7,1.05-1.17,1.77-1.36s1.52-.11,2.22,.29Zm-142.6,44.28c1.61,0,2.92,1.31,2.92,2.92v.42c0,1.61-1.31,2.92-2.92,2.93-1.61,0-2.92-1.3-2.93-2.92v-.42c0-1.35,.92-2.49,2.16-2.82,.24-.07,.5-.1,.76-.1Zm158.24-35.28l.36,.21c1.4,.8,1.88,2.59,1.08,3.99-.81,1.4-2.59,1.88-3.99,1.08l-.36-.21c-1.4-.8-1.88-2.59-1.08-3.99,.4-.7,1.05-1.17,1.77-1.36s1.52-.11,2.22,.29Zm-158.22,53.37c1.61,0,2.92,1.31,2.92,2.92v.42c0,1.61-1.3,2.93-2.92,2.93-1.61,0-2.92-1.3-2.93-2.92v-.42c0-1.35,.92-2.49,2.16-2.82,.24-.07,.5-.1,.76-.1Zm173.86-44.37l.36,.21c1.4,.8,1.88,2.59,1.08,3.99-.81,1.4-2.59,1.88-3.99,1.08l-.36-.21c-1.4-.8-1.88-2.59-1.08-3.99,.4-.7,1.05-1.17,1.77-1.36s1.52-.11,2.22,.29Zm15.64,9l.36,.21c1.4,.8,1.88,2.59,1.08,3.99-.81,1.4-2.59,1.88-3.99,1.08l-.36-.21c-1.4-.8-1.88-2.59-1.08-3.99,.4-.7,1.05-1.17,1.77-1.36s1.52-.11,2.22,.29Zm-189.49,53.46c1.61,0,2.93,1.3,2.93,2.91v.42c0,1.61-1.31,2.92-2.92,2.93-1.61,0-2.92-1.3-2.93-2.92v-.42c0-1.35,.91-2.49,2.16-2.83,.24-.06,.49-.1,.75-.1Zm205.13-44.46l.36,.21c1.4,.8,1.88,2.59,1.08,3.99-.81,1.4-2.59,1.88-3.99,1.08l-.36-.21c-1.4-.8-1.88-2.59-1.08-3.99,.4-.7,1.05-1.17,1.77-1.36s1.52-.11,2.22,.29Zm-205.1,62.56c1.61,0,2.93,1.3,2.93,2.91v.42c0,1.61-1.31,2.92-2.92,2.93-1.61,0-2.92-1.3-2.93-2.92v-.42c0-1.35,.91-2.49,2.16-2.83,.24-.06,.49-.1,.76-.1Zm220.75-53.55l.36,.21c1.4,.8,1.88,2.59,1.08,3.99-.81,1.4-2.59,1.88-3.99,1.08l-.36-.21c-1.4-.8-1.88-2.59-1.08-3.99,.4-.7,1.05-1.17,1.77-1.36,.72-.19,1.52-.11,2.22,.29Zm-220.72,71.65c1.61,0,2.93,1.3,2.93,2.91v.42c0,1.61-1.3,2.92-2.92,2.93-1.61,0-2.92-1.3-2.93-2.92v-.42c0-1.35,.91-2.49,2.16-2.83,.24-.06,.49-.1,.76-.1Zm236.37-62.65l.36,.21c1.4,.8,1.88,2.59,1.08,3.99-.81,1.4-2.59,1.88-3.99,1.08l-.36-.21c-1.4-.8-1.88-2.59-1.08-3.99,.4-.7,1.05-1.17,1.77-1.36s1.52-.11,2.22,.29Zm15.64,9l.36,.21c1.4,.8,1.88,2.59,1.08,3.99-.81,1.4-2.59,1.88-3.99,1.08l-.36-.21c-1.4-.8-1.88-2.59-1.08-3.99,.4-.7,1.05-1.17,1.77-1.36s1.52-.11,2.22,.29Zm-251.98,71.73c1.61,0,2.93,1.3,2.93,2.91v.42c0,1.61-1.31,2.92-2.92,2.93-1.61,0-2.92-1.3-2.93-2.92v-.42c0-1.35,.91-2.49,2.16-2.83,.24-.06,.49-.1,.76-.1Zm267.63-62.73l.36,.21c1.4,.8,1.88,2.59,1.08,3.99-.81,1.4-2.59,1.88-3.99,1.08l-.36-.21c-1.4-.8-1.88-2.59-1.08-3.99,.4-.7,1.05-1.17,1.77-1.36s1.52-.11,2.22,.29ZM39.69,711.24c1.61,0,2.92,1.3,2.93,2.92v.42c0,1.61-1.31,2.92-2.92,2.93-1.61,0-2.92-1.3-2.93-2.92v-.42c0-1.35,.91-2.49,2.16-2.83,.24-.07,.5-.1,.76-.1Zm283.24-71.83l.36,.21c1.4,.8,1.88,2.59,1.08,3.99-.81,1.4-2.59,1.88-3.99,1.08l-.36-.21c-1.4-.8-1.88-2.59-1.08-3.99,.4-.7,1.05-1.17,1.77-1.36s1.52-.11,2.22,.29Zm15.64,9l.36,.21c1.4,.8,1.88,2.59,1.08,3.99-.8,1.4-2.59,1.88-3.99,1.08l-.36-.21c-1.4-.8-1.88-2.59-1.08-3.99,.4-.7,1.05-1.17,1.77-1.37,.72-.19,1.52-.11,2.21,.29ZM39.71,729.33c1.61,0,2.93,1.3,2.93,2.91v.42c0,1.61-1.3,2.92-2.92,2.93-1.61,0-2.92-1.3-2.93-2.92v-.42c0-1.35,.91-2.49,2.16-2.83,.24-.06,.49-.1,.75-.1Zm314.5-71.93l.36,.21c1.4,.8,1.88,2.59,1.08,3.99-.81,1.4-2.59,1.88-3.99,1.08l-.36-.21c-1.4-.8-1.88-2.59-1.08-3.99,.4-.7,1.05-1.17,1.77-1.36s1.52-.11,2.22,.29ZM39.74,747.43c1.61,0,2.93,1.3,2.93,2.91v.42c0,1.61-1.3,2.92-2.92,2.93-1.61,0-2.92-1.3-2.93-2.92v-.42c0-1.35,.91-2.49,2.16-2.83,.24-.06,.49-.1,.76-.1Zm330.12-81.02l.36,.21c1.4,.8,1.88,2.59,1.08,3.99-.81,1.4-2.59,1.88-3.99,1.08l-.36-.21c-1.4-.8-1.88-2.59-1.08-3.99,.4-.7,1.05-1.17,1.77-1.36,.72-.19,1.52-.11,2.22,.29ZM39.77,765.52c1.61,0,2.93,1.3,2.93,2.91v.42c0,1.61-1.31,2.92-2.92,2.93-1.61,0-2.92-1.3-2.93-2.92v-.42c0-1.35,.91-2.49,2.16-2.83,.24-.06,.49-.1,.76-.1Zm345.74-90.11l.36,.21c1.4,.8,1.88,2.59,1.08,3.99-.81,1.4-2.59,1.88-3.99,1.08l-.36-.21c-1.4-.8-1.88-2.59-1.08-3.99,.4-.7,1.05-1.17,1.77-1.36,.72-.19,1.52-.11,2.22,.29Zm15.64,9l.36,.21c1.4,.8,1.88,2.59,1.08,3.99-.81,1.4-2.59,1.88-3.99,1.08l-.36-.21c-1.4-.8-1.88-2.59-1.08-3.99,.4-.7,1.05-1.17,1.77-1.36s1.52-.11,2.22,.29ZM39.79,783.62c1.61,0,2.93,1.3,2.93,2.91v.42c0,1.61-1.31,2.92-2.92,2.93-1.61,0-2.92-1.3-2.93-2.92v-.42c0-1.35,.91-2.49,2.16-2.83,.24-.06,.49-.1,.76-.1Zm374.56-88.9c1.45,.71,2.05,2.46,1.34,3.91-.13,.27-.29,.54-.47,.78-.94,1.31-2.77,1.61-4.08,.67-1.3-.94-1.6-2.74-.69-4.05,.39-.77,1.07-1.3,1.85-1.51,.66-.18,1.38-.13,2.05,.2ZM39.82,801.72c1.61,0,2.93,1.3,2.93,2.91v.42c0,1.61-1.31,2.92-2.92,2.93-1.61,0-2.92-1.3-2.93-2.92v-.42c0-1.35,.91-2.49,2.16-2.83,.24-.06,.49-.1,.76-.1Zm344.56-87.27c.81,1.4,.33,3.18-1.07,3.99l-.35,.2c-1.4,.81-3.18,.34-4-1.05-.81-1.39-.34-3.18,1.05-4l.37-.22c.23-.13,.46-.23,.7-.29,1.25-.34,2.61,.19,3.29,1.36Zm-15.69,9.09c.81,1.4,.32,3.19-1.07,3.99l-.35,.2c-1.4,.82-3.18,.34-4-1.05-.81-1.39-.34-3.18,1.05-4l.38-.22c.22-.13,.46-.23,.7-.29,1.25-.34,2.62,.19,3.29,1.37Zm-15.68,9.08c.81,1.4,.32,3.19-1.07,3.99l-.35,.2c-1.4,.81-3.18,.34-4-1.05-.81-1.39-.34-3.18,1.05-4l.38-.22c.22-.13,.46-.23,.7-.29,1.25-.34,2.62,.19,3.29,1.37Zm-15.67,9.08c.81,1.4,.32,3.19-1.07,3.99l-.34,.2c-1.4,.82-3.18,.35-4-1.05s-.35-3.18,1.05-4l.38-.22c.22-.13,.46-.23,.7-.29,1.25-.34,2.62,.19,3.29,1.37ZM39.85,819.82c1.61,0,2.93,1.3,2.93,2.91v.42c0,1.61-1.3,2.92-2.92,2.93-1.61,0-2.92-1.3-2.93-2.92v-.42c0-1.35,.91-2.49,2.16-2.83,.24-.06,.49-.1,.76-.1Zm281.84-69.04c.81,1.4,.32,3.19-1.07,3.99l-.34,.2c-1.39,.82-3.18,.35-4-1.05-.82-1.39-.35-3.18,1.05-4l.38-.22c.22-.13,.46-.23,.7-.29,1.25-.34,2.62,.19,3.29,1.37Zm-15.66,9.07c.81,1.4,.32,3.19-1.07,3.99l-.34,.2c-1.4,.82-3.18,.35-4-1.05s-.35-3.18,1.05-4l.38-.22c.22-.13,.46-.23,.7-.29,1.25-.34,2.62,.19,3.29,1.37Zm-15.66,9.07c.81,1.4,.32,3.19-1.07,3.99l-.34,.2c-1.4,.82-3.18,.35-4-1.05-.82-1.39-.35-3.18,1.05-4l.38-.22c.22-.13,.46-.23,.7-.29,1.25-.34,2.62,.19,3.29,1.37Zm-250.49,69c1.61,0,2.93,1.3,2.93,2.91v.43c0,1.61-1.31,2.92-2.92,2.93-1.61,0-2.92-1.3-2.93-2.92v-.41c0-1.35,.91-2.5,2.16-2.83,.24-.06,.49-.1,.75-.1Zm234.84-59.93c.81,1.4,.32,3.19-1.07,3.99l-.34,.2c-1.4,.82-3.18,.35-4-1.05s-.35-3.18,1.05-4l.38-.22c.22-.13,.46-.23,.7-.29,1.25-.34,2.62,.19,3.29,1.37Zm-15.66,9.07c.81,1.4,.32,3.19-1.07,3.99l-.34,.2c-1.4,.82-3.18,.35-4-1.05s-.35-3.18,1.05-4l.38-.22c.22-.13,.46-.23,.7-.29,1.25-.34,2.62,.19,3.29,1.37Zm-15.65,9.07c.81,1.4,.32,3.19-1.07,3.99l-.35,.2c-1.4,.81-3.18,.34-4-1.05-.81-1.39-.34-3.18,1.05-4l.38-.22c.22-.13,.46-.23,.7-.29,1.25-.34,2.62,.19,3.29,1.37Zm-15.67,9.08c.81,1.4,.32,3.19-1.07,3.99l-.34,.2c-1.4,.82-3.18,.35-4-1.05-.81-1.39-.35-3.18,1.05-4l.38-.22c.22-.13,.46-.23,.7-.29,1.25-.34,2.62,.19,3.29,1.37Zm-187.83,50.83c1.61,0,2.93,1.3,2.94,2.91v.43c0,1.61-1.3,2.92-2.92,2.93-1.61,0-2.92-1.3-2.93-2.92v-.41c0-1.35,.91-2.5,2.16-2.83,.24-.06,.49-.1,.75-.1Zm172.18-41.76c.81,1.4,.32,3.19-1.07,3.99l-.34,.2c-1.4,.82-3.18,.35-4-1.05-.82-1.39-.35-3.18,1.05-4l.38-.22c.22-.13,.46-.23,.7-.29,1.25-.34,2.62,.19,3.29,1.37Zm-15.65,9.07c.81,1.4,.32,3.19-1.07,3.99l-.35,.2c-1.39,.81-3.18,.34-4-1.05-.81-1.39-.34-3.18,1.05-4l.38-.22c.23-.13,.46-.23,.7-.29,1.25-.34,2.62,.19,3.29,1.37Zm-15.66,9.07c.81,1.4,.32,3.19-1.07,3.99l-.35,.2c-1.4,.82-3.18,.34-4-1.05-.81-1.39-.34-3.18,1.05-4l.38-.22c.22-.13,.46-.23,.7-.29,1.25-.34,2.62,.19,3.29,1.37Zm-15.66,9.07c.81,1.4,.32,3.19-1.07,3.99l-.35,.2c-1.4,.82-3.18,.35-4-1.05-.81-1.39-.34-3.18,1.05-4l.38-.22c.22-.13,.46-.23,.7-.29,1.25-.34,2.62,.19,3.29,1.37Zm-125.17,32.68c1.61,0,2.92,1.3,2.93,2.92v.42c0,1.61-1.31,2.93-2.92,2.92-1.61,0-2.92-1.31-2.92-2.92v-.42c0-1.35,.91-2.49,2.16-2.83,.24-.07,.5-.1,.76-.1Zm109.51-23.61c.81,1.4,.32,3.19-1.07,3.99l-.35,.2c-1.39,.82-3.18,.35-4-1.05-.81-1.39-.34-3.18,1.05-4l.38-.22c.22-.13,.46-.23,.7-.29,1.25-.34,2.62,.19,3.29,1.37Zm-15.66,9.07c.81,1.4,.32,3.19-1.07,3.99l-.35,.2c-1.39,.82-3.18,.35-4-1.05-.82-1.39-.35-3.18,1.05-4l.38-.22c.23-.13,.46-.23,.7-.29,1.25-.34,2.62,.19,3.29,1.37Zm-15.67,9.07c.81,1.4,.32,3.19-1.07,3.99l-.35,.2c-1.39,.82-3.18,.35-4-1.05-.82-1.39-.35-3.18,1.05-4l.38-.22c.23-.13,.46-.23,.7-.29,1.25-.34,2.62,.19,3.29,1.37Zm-78.16,23.61c1.61,0,2.93,1.3,2.93,2.91v.42c0,1.62-1.3,2.92-2.91,2.93-1.61,0-2.93-1.3-2.93-2.91v-.42c0-1.35,.91-2.49,2.16-2.83,.24-.06,.49-.1,.75-.1Zm62.49-14.53c.81,1.4,.32,3.19-1.07,3.99l-.35,.2c-1.39,.82-3.18,.35-4-1.05-.81-1.39-.34-3.18,1.05-4l.38-.22c.22-.13,.46-.23,.7-.29,1.25-.34,2.62,.19,3.29,1.37Zm-15.68,9.08c.81,1.4,.32,3.19-1.08,3.99l-.34,.2c-1.39,.81-3.18,.35-4-1.05-.82-1.39-.35-3.18,1.05-4l.38-.22c.23-.13,.46-.23,.7-.29,1.25-.34,2.62,.19,3.29,1.37Zm-15.69,9.09c.81,1.4,.32,3.19-1.07,3.99l-.35,.2c-1.39,.81-3.18,.35-4-1.05-.82-1.39-.35-3.18,1.05-4l.38-.22c.23-.13,.46-.23,.7-.29,1.25-.34,2.62,.19,3.29,1.37Zm-15.72,9.08c.81,1.4,.34,3.18-1.06,4l-.37,.21c-1.4,.81-3.18,.33-3.99-1.07-.81-1.4-.33-3.19,1.07-3.99l.36-.21c.23-.13,.47-.23,.71-.3,1.24-.34,2.61,.19,3.29,1.35Zm-15.37,5.52c1.61,0,2.92,1.31,2.92,2.92v.09c0,2.26-1.36,2.96-2.16,3.18-1.56,.42-3.16-.5-3.58-2.06-.08-.28-.11-.56-.1-.84v-.37c0-1.35,.92-2.49,2.16-2.82,.24-.07,.5-.1,.76-.1Zm359.83-205.07c.81,1.4,.33,3.18-1.07,3.99l-.35,.2c-1.4,.81-3.18,.34-4-1.05-.81-1.39-.34-3.18,1.05-4l.37-.22c.23-.13,.46-.23,.7-.29,1.25-.34,2.61,.19,3.29,1.36Z"/><path d="M41.33,20.15l.36,.21c1.4,.8,1.88,2.59,1.08,3.99-.8,1.4-2.59,1.88-3.99,1.08l-.36-.21c-1.4-.8-1.88-2.59-1.08-3.99,.4-.7,1.05-1.17,1.77-1.36s1.52-.11,2.22,.29Zm15.64,9l.36,.21c1.4,.8,1.88,2.59,1.08,3.99-.81,1.4-2.59,1.88-3.99,1.08l-.36-.21c-1.4-.8-1.88-2.59-1.08-3.99,.4-.7,1.05-1.17,1.77-1.36s1.52-.11,2.22,.29Zm-17.58,7.58c1.61,0,2.92,1.31,2.92,2.93v.41c0,1.61-1.31,2.92-2.92,2.92-1.61,0-2.92-1.31-2.92-2.92v-.42c0-1.35,.92-2.48,2.16-2.82,.24-.07,.5-.1,.77-.1Zm33.23,1.42l.36,.21c1.4,.8,1.88,2.59,1.08,3.99-.81,1.4-2.59,1.88-3.99,1.08l-.36-.21c-1.4-.8-1.88-2.59-1.08-3.99,.4-.7,1.05-1.17,1.77-1.36,.72-.19,1.52-.11,2.22,.29Zm-33.22,16.73c1.61,0,2.93,1.3,2.93,2.91v.43c0,1.61-1.3,2.92-2.92,2.93-1.61,0-2.92-1.3-2.93-2.92v-.41c0-1.35,.91-2.5,2.16-2.83,.24-.06,.49-.1,.75-.1Zm48.87-7.73l.36,.21c1.4,.8,1.88,2.59,1.08,3.99-.81,1.4-2.59,1.88-3.99,1.08l-.36-.21c-1.4-.8-1.88-2.59-1.08-3.99,.4-.7,1.05-1.17,1.77-1.36s1.52-.11,2.22,.29Zm15.64,9l.36,.21c1.4,.8,1.88,2.59,1.08,3.99-.81,1.4-2.59,1.88-3.99,1.08l-.36-.21c-1.4-.8-1.88-2.59-1.08-3.99,.4-.7,1.05-1.17,1.77-1.36s1.52-.11,2.22,.29Zm-64.48,16.86c1.61,0,2.92,1.31,2.92,2.92v.42c0,1.61-1.31,2.92-2.92,2.93-1.61,0-2.92-1.3-2.93-2.92v-.42c0-1.35,.92-2.49,2.16-2.82,.24-.07,.5-.1,.76-.1Zm80.12-7.85l.36,.21c1.4,.8,1.88,2.59,1.08,3.99-.81,1.4-2.59,1.88-3.99,1.08l-.36-.21c-1.4-.8-1.88-2.59-1.08-3.99,.4-.7,1.05-1.17,1.77-1.36s1.52-.11,2.22,.29Zm-80.1,25.97c1.61,0,2.92,1.31,2.92,2.92v.42c0,1.61-1.31,2.92-2.92,2.93-1.61,0-2.92-1.3-2.93-2.92v-.42c0-1.35,.92-2.49,2.16-2.82,.24-.07,.5-.1,.76-.1Zm95.74-16.97l.36,.21c1.4,.8,1.88,2.59,1.08,3.99-.81,1.4-2.59,1.88-3.99,1.08l-.36-.21c-1.4-.8-1.88-2.59-1.08-3.99,.4-.7,1.05-1.17,1.77-1.36s1.52-.11,2.22,.29ZM39.47,109.24c1.61,0,2.92,1.3,2.93,2.92v.42c0,1.61-1.3,2.92-2.92,2.93-1.61,0-2.92-1.3-2.93-2.92v-.42c0-1.35,.91-2.49,2.16-2.83,.24-.07,.5-.1,.76-.1Zm111.37-26.08l.36,.21c1.4,.8,1.88,2.59,1.08,3.99-.81,1.4-2.59,1.88-3.99,1.08l-.36-.21c-1.4-.8-1.88-2.59-1.08-3.99,.4-.7,1.05-1.17,1.77-1.36s1.52-.11,2.22,.29Zm15.64,9l.36,.21c1.4,.8,1.88,2.59,1.08,3.99-.81,1.4-2.59,1.88-3.99,1.08l-.36-.21c-1.4-.8-1.88-2.59-1.08-3.99,.4-.7,1.05-1.17,1.77-1.36,.72-.19,1.52-.11,2.22,.29ZM39.5,127.35c1.61,0,2.92,1.3,2.93,2.92v.42c0,1.61-1.31,2.92-2.92,2.93-1.61,0-2.92-1.3-2.93-2.92v-.42c0-1.35,.91-2.49,2.16-2.83,.24-.07,.5-.1,.76-.1Zm142.63-26.18l.36,.21c1.4,.8,1.88,2.59,1.08,3.99-.81,1.4-2.59,1.88-3.99,1.08l-.36-.21c-1.4-.8-1.88-2.59-1.08-3.99,.4-.7,1.05-1.17,1.77-1.36s1.52-.11,2.22,.29ZM39.53,145.45c1.61,0,2.92,1.31,2.92,2.92v.42c0,1.61-1.31,2.92-2.92,2.93-1.61,0-2.92-1.3-2.93-2.92v-.42c0-1.35,.92-2.49,2.16-2.82,.24-.07,.5-.1,.76-.1Zm158.24-35.28l.36,.21c1.4,.8,1.88,2.59,1.08,3.99-.81,1.4-2.59,1.88-3.99,1.08l-.36-.21c-1.4-.8-1.88-2.59-1.08-3.99,.4-.7,1.05-1.17,1.77-1.36s1.52-.11,2.22,.29ZM39.56,163.54c1.61,0,2.92,1.31,2.92,2.92v.42c0,1.61-1.3,2.93-2.92,2.93-1.61,0-2.92-1.3-2.93-2.92v-.42c0-1.35,.92-2.49,2.16-2.82,.24-.07,.5-.1,.76-.1Zm173.86-44.37l.36,.21c1.4,.8,1.88,2.59,1.08,3.99-.81,1.4-2.59,1.88-3.99,1.08l-.36-.21c-1.4-.8-1.88-2.59-1.08-3.99,.4-.7,1.05-1.17,1.77-1.36s1.52-.11,2.22,.29Zm15.64,9l.36,.21c1.4,.8,1.88,2.59,1.08,3.99-.81,1.4-2.59,1.88-3.99,1.08l-.36-.21c-1.4-.8-1.88-2.59-1.08-3.99,.4-.7,1.05-1.17,1.77-1.36s1.52-.11,2.22,.29ZM39.57,181.64c1.61,0,2.93,1.3,2.93,2.91v.42c0,1.61-1.31,2.92-2.92,2.93-1.61,0-2.92-1.3-2.93-2.92v-.42c0-1.35,.91-2.49,2.16-2.83,.24-.06,.49-.1,.75-.1Zm205.13-44.46l.36,.21c1.4,.8,1.88,2.59,1.08,3.99-.81,1.4-2.59,1.88-3.99,1.08l-.36-.21c-1.4-.8-1.88-2.59-1.08-3.99,.4-.7,1.05-1.17,1.77-1.36s1.52-.11,2.22,.29ZM39.6,199.73c1.61,0,2.93,1.3,2.93,2.91v.42c0,1.61-1.31,2.92-2.92,2.93-1.61,0-2.92-1.3-2.93-2.92v-.42c0-1.35,.91-2.49,2.16-2.83,.24-.06,.49-.1,.76-.1Zm220.75-53.55l.36,.21c1.4,.8,1.88,2.59,1.08,3.99-.81,1.4-2.59,1.88-3.99,1.08l-.36-.21c-1.4-.8-1.88-2.59-1.08-3.99,.4-.7,1.05-1.17,1.77-1.36s1.52-.11,2.22,.29ZM39.63,217.82c1.61,0,2.93,1.3,2.93,2.91v.42c0,1.61-1.3,2.92-2.92,2.93-1.61,0-2.92-1.3-2.93-2.92v-.42c0-1.35,.91-2.49,2.16-2.83,.24-.06,.49-.1,.76-.1Zm236.37-62.65l.36,.21c1.4,.8,1.88,2.59,1.08,3.99-.81,1.4-2.59,1.88-3.99,1.08l-.36-.21c-1.4-.8-1.88-2.59-1.08-3.99,.4-.7,1.05-1.17,1.77-1.36s1.52-.11,2.22,.29Zm15.64,9l.36,.21c1.4,.8,1.88,2.59,1.08,3.99-.81,1.4-2.59,1.88-3.99,1.08l-.36-.21c-1.4-.8-1.88-2.59-1.08-3.99,.4-.7,1.05-1.17,1.77-1.36s1.52-.11,2.22,.29ZM39.66,235.92c1.61,0,2.93,1.3,2.93,2.91v.42c0,1.61-1.31,2.92-2.92,2.93-1.61,0-2.92-1.3-2.93-2.92v-.42c0-1.35,.91-2.49,2.16-2.83,.24-.06,.49-.1,.76-.1Zm267.63-62.73l.36,.21c1.4,.8,1.88,2.59,1.08,3.99-.81,1.4-2.59,1.88-3.99,1.08l-.36-.21c-1.4-.8-1.88-2.59-1.08-3.99,.4-.7,1.05-1.17,1.77-1.36s1.52-.11,2.22,.29ZM39.69,254.02c1.61,0,2.92,1.3,2.93,2.92v.42c0,1.61-1.31,2.92-2.92,2.93-1.61,0-2.92-1.3-2.93-2.92v-.42c0-1.35,.91-2.49,2.16-2.83,.24-.07,.5-.1,.76-.1Zm283.24-71.83l.36,.21c1.4,.8,1.88,2.59,1.08,3.99-.81,1.4-2.59,1.88-3.99,1.08l-.36-.21c-1.4-.8-1.88-2.59-1.08-3.99,.4-.7,1.05-1.17,1.77-1.36s1.52-.11,2.22,.29Zm15.64,9l.36,.21c1.4,.8,1.88,2.59,1.08,3.99-.8,1.4-2.59,1.88-3.99,1.08l-.36-.21c-1.4-.8-1.88-2.59-1.08-3.99,.4-.7,1.05-1.17,1.77-1.37s1.52-.11,2.21,.29ZM39.71,272.11c1.61,0,2.93,1.3,2.93,2.91v.42c0,1.61-1.3,2.92-2.92,2.93-1.61,0-2.92-1.3-2.93-2.92v-.42c0-1.35,.91-2.49,2.16-2.83,.24-.06,.49-.1,.75-.1Zm314.5-71.93l.36,.21c1.4,.8,1.88,2.59,1.08,3.99-.81,1.4-2.59,1.88-3.99,1.08l-.36-.21c-1.4-.8-1.88-2.59-1.08-3.99,.4-.7,1.05-1.17,1.77-1.36s1.52-.11,2.22,.29ZM39.74,290.2c1.61,0,2.93,1.3,2.93,2.91v.42c0,1.61-1.3,2.92-2.92,2.93-1.61,0-2.92-1.3-2.93-2.92v-.42c0-1.35,.91-2.49,2.16-2.83,.24-.06,.49-.1,.76-.1Zm330.12-81.02l.36,.21c1.4,.8,1.88,2.59,1.08,3.99-.81,1.4-2.59,1.88-3.99,1.08l-.36-.21c-1.4-.8-1.88-2.59-1.08-3.99,.4-.7,1.05-1.17,1.77-1.36s1.52-.11,2.22,.29ZM39.77,308.3c1.61,0,2.93,1.3,2.93,2.91v.42c0,1.61-1.31,2.92-2.92,2.93-1.61,0-2.92-1.3-2.93-2.92v-.42c0-1.35,.91-2.49,2.16-2.83,.24-.06,.49-.1,.76-.1Zm345.74-90.11l.36,.21c1.4,.8,1.88,2.59,1.08,3.99-.81,1.4-2.59,1.88-3.99,1.08l-.36-.21c-1.4-.8-1.88-2.59-1.08-3.99,.4-.7,1.05-1.17,1.77-1.36,.72-.19,1.52-.11,2.22,.29Zm15.64,9l.36,.21c1.4,.8,1.88,2.59,1.08,3.99-.81,1.4-2.59,1.88-3.99,1.08l-.36-.21c-1.4-.8-1.88-2.59-1.08-3.99,.4-.7,1.05-1.17,1.77-1.36s1.52-.11,2.22,.29ZM39.79,326.4c1.61,0,2.93,1.3,2.93,2.91v.42c0,1.61-1.31,2.92-2.92,2.93-1.61,0-2.92-1.3-2.93-2.92v-.42c0-1.35,.91-2.49,2.16-2.83,.24-.06,.49-.1,.76-.1Zm374.56-88.9c1.45,.71,2.05,2.46,1.34,3.91-.13,.27-.29,.54-.47,.78-.94,1.31-2.77,1.61-4.08,.67-1.3-.94-1.6-2.74-.69-4.05,.39-.77,1.07-1.3,1.85-1.51,.66-.18,1.38-.13,2.05,.2ZM39.82,344.5c1.61,0,2.93,1.3,2.93,2.91v.42c0,1.61-1.31,2.92-2.92,2.93-1.61,0-2.92-1.3-2.93-2.92v-.42c0-1.35,.91-2.49,2.16-2.83,.24-.06,.49-.1,.76-.1Zm344.56-87.27c.81,1.4,.33,3.18-1.07,3.99l-.35,.2c-1.4,.81-3.18,.34-4-1.05-.81-1.39-.34-3.18,1.05-4l.37-.22c.23-.13,.46-.23,.7-.29,1.25-.34,2.61,.19,3.29,1.36Zm-15.69,9.09c.81,1.4,.32,3.19-1.07,3.99l-.35,.2c-1.4,.82-3.18,.34-4-1.05-.81-1.39-.34-3.18,1.05-4l.38-.22c.22-.13,.46-.23,.7-.29,1.25-.34,2.62,.19,3.29,1.37Zm-15.68,9.08c.81,1.4,.32,3.19-1.07,3.99l-.35,.2c-1.4,.81-3.18,.34-4-1.05-.81-1.39-.34-3.18,1.05-4l.38-.22c.22-.13,.46-.23,.7-.29,1.25-.34,2.62,.19,3.29,1.37Zm-15.67,9.08c.81,1.4,.32,3.19-1.07,3.99l-.34,.2c-1.4,.82-3.18,.35-4-1.05-.82-1.39-.35-3.18,1.05-4l.38-.22c.22-.13,.46-.23,.7-.29,1.25-.34,2.62,.19,3.29,1.37ZM39.85,362.6c1.61,0,2.93,1.3,2.93,2.91v.42c0,1.61-1.3,2.92-2.92,2.93-1.61,0-2.92-1.3-2.93-2.92v-.42c0-1.35,.91-2.49,2.16-2.83,.24-.06,.49-.1,.76-.1Zm281.84-69.04c.81,1.4,.32,3.19-1.07,3.99l-.34,.2c-1.39,.82-3.18,.35-4-1.05s-.35-3.18,1.05-4l.38-.22c.22-.13,.46-.23,.7-.29,1.25-.34,2.62,.19,3.29,1.37Zm-15.66,9.07c.81,1.4,.32,3.19-1.07,3.99l-.34,.2c-1.4,.82-3.18,.35-4-1.05-.82-1.39-.35-3.18,1.05-4l.38-.22c.22-.13,.46-.23,.7-.29,1.25-.34,2.62,.19,3.29,1.37Zm-15.66,9.07c.81,1.4,.32,3.19-1.07,3.99l-.34,.2c-1.4,.82-3.18,.35-4-1.05s-.35-3.18,1.05-4l.38-.22c.22-.13,.46-.23,.7-.29,1.25-.34,2.62,.19,3.29,1.37ZM39.87,380.71c1.61,0,2.93,1.3,2.93,2.91v.43c0,1.61-1.31,2.92-2.92,2.93-1.61,0-2.92-1.3-2.93-2.92v-.41c0-1.35,.91-2.5,2.16-2.83,.24-.06,.49-.1,.75-.1Zm234.84-59.93c.81,1.4,.32,3.19-1.07,3.99l-.34,.2c-1.4,.82-3.18,.35-4-1.05-.82-1.39-.35-3.18,1.05-4l.38-.22c.22-.13,.46-.23,.7-.29,1.25-.34,2.62,.19,3.29,1.37Zm-15.66,9.07c.81,1.4,.32,3.19-1.07,3.99l-.34,.2c-1.4,.82-3.18,.35-4-1.05s-.35-3.18,1.05-4l.38-.22c.22-.13,.46-.23,.7-.29,1.25-.34,2.62,.19,3.29,1.37Zm-15.65,9.07c.81,1.4,.32,3.19-1.07,3.99l-.35,.2c-1.4,.81-3.18,.34-4-1.05-.81-1.39-.34-3.18,1.05-4l.38-.22c.22-.13,.46-.23,.7-.29,1.25-.34,2.62,.19,3.29,1.37Zm-15.67,9.08c.81,1.4,.32,3.19-1.07,3.99l-.34,.2c-1.4,.82-3.18,.35-4-1.05-.81-1.39-.35-3.18,1.05-4l.38-.22c.22-.13,.46-.23,.7-.29,1.25-.34,2.62,.19,3.29,1.37Zm-187.83,50.83c1.61,0,2.93,1.3,2.94,2.91v.43c0,1.61-1.3,2.92-2.92,2.93-1.61,0-2.92-1.3-2.93-2.92v-.41c0-1.35,.91-2.5,2.16-2.83,.24-.06,.49-.1,.75-.1Zm172.18-41.76c.81,1.4,.32,3.19-1.07,3.99l-.34,.2c-1.4,.82-3.18,.35-4-1.05-.82-1.39-.35-3.18,1.05-4l.38-.22c.22-.13,.46-.23,.7-.29,1.25-.34,2.62,.19,3.29,1.37Zm-15.65,9.07c.81,1.4,.32,3.19-1.07,3.99l-.35,.2c-1.39,.81-3.18,.34-4-1.05-.81-1.39-.34-3.18,1.05-4l.38-.22c.23-.13,.46-.23,.7-.29,1.25-.34,2.62,.19,3.29,1.37Zm-15.66,9.07c.81,1.4,.32,3.19-1.07,3.99l-.35,.2c-1.4,.82-3.18,.34-4-1.05-.81-1.39-.34-3.18,1.05-4l.38-.22c.22-.13,.46-.23,.7-.29,1.25-.34,2.62,.19,3.29,1.37Zm-15.66,9.07c.81,1.4,.32,3.19-1.07,3.99l-.35,.2c-1.4,.82-3.18,.35-4-1.05-.81-1.39-.34-3.18,1.05-4l.38-.22c.22-.13,.46-.23,.7-.29,1.25-.34,2.62,.19,3.29,1.37Zm-125.17,32.68c1.61,0,2.92,1.3,2.93,2.92v.42c0,1.61-1.31,2.93-2.92,2.92-1.61,0-2.92-1.31-2.92-2.92v-.42c0-1.35,.91-2.49,2.16-2.83,.24-.07,.5-.1,.76-.1Zm109.51-23.61c.81,1.4,.32,3.19-1.07,3.99l-.35,.2c-1.39,.82-3.18,.35-4-1.05-.81-1.39-.34-3.18,1.05-4l.38-.22c.22-.13,.46-.23,.7-.29,1.25-.34,2.62,.19,3.29,1.37Zm-15.66,9.07c.81,1.4,.32,3.19-1.07,3.99l-.35,.2c-1.39,.82-3.18,.35-4-1.05-.82-1.39-.35-3.18,1.05-4l.38-.22c.23-.13,.46-.23,.7-.29,1.25-.34,2.62,.19,3.29,1.37Zm-15.67,9.07c.81,1.4,.32,3.19-1.07,3.99l-.35,.2c-1.39,.82-3.18,.35-4-1.05-.82-1.39-.35-3.18,1.05-4l.38-.22c.23-.13,.46-.23,.7-.29,1.25-.34,2.62,.19,3.29,1.37Zm-78.16,23.61c1.61,0,2.93,1.3,2.93,2.91v.42c0,1.62-1.3,2.92-2.91,2.93-1.61,0-2.93-1.3-2.93-2.91v-.42c0-1.35,.91-2.49,2.16-2.83,.24-.06,.49-.1,.75-.1Zm62.49-14.53c.81,1.4,.32,3.19-1.07,3.99l-.35,.2c-1.39,.82-3.18,.35-4-1.05-.81-1.39-.34-3.18,1.05-4l.38-.22c.22-.13,.46-.23,.7-.29,1.25-.34,2.62,.19,3.29,1.37Zm-15.68,9.08c.81,1.4,.32,3.19-1.08,3.99l-.34,.2c-1.39,.81-3.18,.35-4-1.05-.82-1.39-.35-3.18,1.05-4l.38-.22c.23-.13,.46-.23,.7-.29,1.25-.34,2.62,.19,3.29,1.37Zm-15.69,9.09c.81,1.4,.32,3.19-1.07,3.99l-.35,.2c-1.39,.81-3.18,.35-4-1.05-.82-1.39-.35-3.18,1.05-4l.38-.22c.23-.13,.46-.23,.7-.29,1.25-.34,2.62,.19,3.29,1.37Zm-15.72,9.08c.81,1.4,.34,3.18-1.06,4l-.37,.21c-1.4,.81-3.18,.33-3.99-1.07-.81-1.4-.33-3.19,1.07-3.99l.36-.21c.23-.13,.47-.23,.71-.3,1.24-.34,2.61,.19,3.29,1.35Zm-15.37,5.52c1.61,0,2.92,1.31,2.92,2.92v.09c0,2.26-1.36,2.96-2.16,3.18-1.56,.42-3.16-.5-3.58-2.06-.08-.28-.11-.56-.1-.84v-.37c0-1.35,.92-2.49,2.16-2.82,.24-.07,.5-.1,.76-.1ZM399.82,248.27c.81,1.4,.33,3.18-1.07,3.99l-.35,.2c-1.4,.81-3.18,.34-4-1.05-.81-1.39-.34-3.18,1.05-4l.37-.22c.23-.13,.46-.23,.7-.29,1.25-.34,2.61,.19,3.29,1.36Z"/></g></g></g></g></g></svg>