<svg width="1440" height="1393" viewBox="0 0 1440 1393" fill="none" xmlns="http://www.w3.org/2000/svg">
<path d="M554.996 298.947L175.947 677.996L37.2054 160.205L554.996 298.947Z" stroke="black" stroke-width="7" stroke-linecap="round" stroke-dasharray="0.5 20"/>
<path d="M554.996 298.947L175.947 677.996L37.2054 160.205L554.996 298.947Z" stroke="black" stroke-width="7" stroke-linecap="round" stroke-dasharray="0.5 20"/>
<path d="M1240.53 418.844L1101.79 936.635L722.742 557.586L1240.53 418.844Z" stroke="black" stroke-width="7" stroke-linecap="round" stroke-dasharray="0.5 20"/>
<path d="M1240.53 418.844L1101.79 936.635L722.742 557.586L1240.53 418.844Z" stroke="black" stroke-width="7" stroke-linecap="round" stroke-dasharray="0.5 20"/>
<path d="M1414.53 1346.53L896.741 1207.79L1275.79 828.742L1414.53 1346.53Z" stroke="black" stroke-width="7" stroke-linecap="round" stroke-dasharray="0.5 20"/>
<path d="M1414.53 1346.53L896.741 1207.79L1275.79 828.742L1414.53 1346.53Z" stroke="black" stroke-width="7" stroke-linecap="round" stroke-dasharray="0.5 20"/>
<path d="M63.8444 1294.53L202.586 776.741L581.635 1155.79L63.8444 1294.53Z" stroke="black" stroke-width="7" stroke-linecap="round" stroke-dasharray="0.5 20"/>
<path d="M63.8444 1294.53L202.586 776.741L581.635 1155.79L63.8444 1294.53Z" stroke="black" stroke-width="7" stroke-linecap="round" stroke-dasharray="0.5 20"/>
</svg>
