<?xml version="1.0" encoding="UTF-8"?><svg id="Layer_2" xmlns="http://www.w3.org/2000/svg" viewBox="0 0 523.6 456.85"><g id="Layer_1-2"><path d="M258.79,.12c.86-.23,1.82-.13,2.66,.35,1.67,.97,2.25,3.11,1.28,4.78l-.25,.44c-.97,1.67-3.11,2.25-4.78,1.28-1.67-.97-2.25-3.11-1.28-4.78l.25-.44c.48-.84,1.26-1.4,2.12-1.63Zm-10.81,18.72c.86-.23,1.82-.13,2.66,.35,1.67,.97,2.25,3.11,1.28,4.78l-.25,.44c-.97,1.67-3.11,2.25-4.78,1.28-1.67-.97-2.25-3.11-1.28-4.78l.25-.44c.48-.84,1.26-1.4,2.13-1.63Zm21.5-1.43c1.49-.4,3.12,.23,3.93,1.62l.25,.44c.97,1.67,.4,3.81-1.27,4.78-1.67,.97-3.81,.4-4.78-1.28l-.25-.43c-.97-1.67-.41-3.81,1.27-4.79,.27-.16,.56-.28,.86-.36Zm-32.3,20.15c.86-.23,1.82-.13,2.66,.35,1.67,.97,2.25,3.11,1.28,4.78l-.25,.44c-.97,1.67-3.11,2.25-4.78,1.28-1.67-.97-2.25-3.11-1.28-4.78l.25-.44c.48-.84,1.26-1.4,2.13-1.63Zm43.18-1.33c1.5-.4,3.13,.23,3.94,1.64l.25,.43c.97,1.67,.39,3.81-1.28,4.78-1.68,.97-3.81,.39-4.78-1.28l-.26-.44c-.96-1.68-.38-3.82,1.29-4.78,.27-.16,.55-.27,.84-.35Zm-53.99,20.04c.86-.23,1.82-.13,2.66,.35,1.67,.97,2.25,3.11,1.28,4.78l-.25,.44c-.97,1.67-3.11,2.25-4.78,1.28-1.67-.97-2.25-3.11-1.28-4.78l.25-.44c.48-.84,1.26-1.4,2.13-1.63Zm-10.81,18.72c.86-.23,1.82-.13,2.66,.35,1.67,.97,2.25,3.11,1.28,4.78l-.25,.44c-.97,1.67-3.11,2.25-4.78,1.28-1.67-.97-2.25-3.11-1.28-4.78l.25-.44c.48-.84,1.26-1.4,2.13-1.63Zm75.65-19.96c1.49-.4,3.12,.23,3.93,1.63l.25,.44c.97,1.67,.39,3.81-1.28,4.78-1.68,.96-3.81,.39-4.78-1.28l-.25-.43c-.97-1.67-.4-3.81,1.27-4.78,.27-.16,.56-.28,.85-.35Zm-86.46,38.68c.86-.23,1.82-.13,2.66,.35,1.67,.97,2.25,3.11,1.28,4.78l-.25,.44c-.97,1.67-3.11,2.25-4.78,1.28-1.67-.97-2.25-3.11-1.28-4.78l.25-.44c.48-.84,1.26-1.4,2.13-1.63Zm97.31-19.89c1.49-.4,3.12,.23,3.93,1.63l.25,.44c.97,1.67,.39,3.81-1.28,4.78-1.67,.97-3.81,.39-4.78-1.28l-.25-.43c-.97-1.67-.4-3.81,1.27-4.78,.27-.16,.56-.28,.85-.35Zm-108.12,38.61c.86-.23,1.82-.13,2.66,.35,1.67,.97,2.25,3.11,1.28,4.78l-.25,.44c-.97,1.67-3.11,2.25-4.78,1.28-1.67-.97-2.25-3.11-1.28-4.78l.25-.44c.48-.84,1.26-1.4,2.12-1.63Zm118.97-19.83c1.49-.4,3.13,.23,3.94,1.63l.25,.44c.97,1.67,.39,3.81-1.28,4.78-1.67,.97-3.81,.39-4.78-1.28l-.25-.44c-.97-1.67-.39-3.81,1.28-4.78,.27-.16,.56-.27,.85-.35Zm-129.77,38.55c.86-.23,1.82-.13,2.66,.35,1.67,.97,2.25,3.11,1.28,4.78l-.25,.44c-.97,1.67-3.11,2.25-4.78,1.28-1.67-.97-2.25-3.11-1.28-4.78l.25-.44c.48-.84,1.26-1.4,2.12-1.63Zm-10.81,18.72c.86-.23,1.82-.13,2.66,.35,1.67,.97,2.25,3.11,1.28,4.78l-.25,.44c-.97,1.67-3.11,2.25-4.78,1.28-1.67-.97-2.25-3.11-1.28-4.78l.25-.44c.48-.84,1.26-1.4,2.12-1.63Zm151.42-38.5c1.49-.4,3.13,.23,3.93,1.63l.25,.44c.97,1.67,.39,3.81-1.28,4.78-1.67,.96-3.81,.39-4.78-1.28l-.25-.44c-.97-1.67-.39-3.81,1.28-4.78,.27-.16,.56-.27,.85-.35Zm-162.23,57.21c.86-.23,1.82-.13,2.66,.35,1.67,.97,2.25,3.11,1.28,4.78l-.25,.44c-.97,1.67-3.11,2.25-4.78,1.28-1.67-.97-2.25-3.11-1.28-4.78l.25-.44c.48-.84,1.26-1.4,2.12-1.63Zm173.07-38.44c1.49-.4,3.12,.23,3.93,1.63l.25,.44c.97,1.67,.39,3.81-1.28,4.78-1.67,.96-3.81,.39-4.78-1.28l-.25-.43c-.97-1.67-.4-3.81,1.27-4.78,.27-.16,.56-.28,.85-.35Zm-183.87,57.16c.86-.23,1.82-.13,2.66,.35,1.67,.97,2.25,3.11,1.28,4.78l-.25,.44c-.97,1.67-3.11,2.25-4.78,1.28-1.67-.97-2.25-3.11-1.28-4.78l.25-.44c.48-.84,1.26-1.4,2.12-1.63Zm194.71-38.39c1.49-.4,3.12,.23,3.93,1.63l.25,.44c.97,1.67,.39,3.81-1.28,4.78-1.67,.97-3.81,.39-4.78-1.28l-.25-.43c-.97-1.67-.4-3.81,1.27-4.78,.27-.16,.56-.28,.85-.35Zm-205.52,57.11c.86-.23,1.82-.13,2.66,.35,1.67,.97,2.25,3.11,1.28,4.78l-.25,.44c-.97,1.67-3.11,2.25-4.78,1.28-1.67-.97-2.25-3.11-1.28-4.78l.25-.44c.48-.84,1.26-1.4,2.12-1.63Zm-10.81,18.72c.86-.23,1.82-.13,2.66,.35,1.67,.97,2.25,3.11,1.28,4.78l-.25,.44c-.97,1.67-3.11,2.25-4.78,1.28-1.67-.97-2.25-3.11-1.28-4.78l.25-.44c.48-.84,1.26-1.4,2.12-1.63Zm227.16-57.07c1.49-.4,3.13,.23,3.94,1.64l.25,.43c.97,1.67,.39,3.81-1.28,4.78-1.67,.96-3.81,.39-4.78-1.28l-.25-.44c-.96-1.67-.39-3.81,1.29-4.78,.27-.16,.55-.27,.84-.35ZM118.29,243.46c.86-.23,1.82-.13,2.66,.35,1.67,.97,2.25,3.11,1.28,4.78l-.25,.44c-.97,1.67-3.11,2.25-4.78,1.28-1.67-.97-2.25-3.11-1.28-4.78l.25-.44c.48-.84,1.26-1.4,2.12-1.63Zm248.8-57.02c1.49-.4,3.13,.23,3.94,1.64l.25,.43c.97,1.67,.39,3.81-1.28,4.78-1.67,.96-3.81,.39-4.78-1.28l-.25-.44c-.96-1.67-.39-3.81,1.29-4.78,.27-.16,.55-.27,.84-.35ZM107.48,262.18c.86-.23,1.82-.13,2.66,.35,1.67,.97,2.25,3.11,1.28,4.78l-.25,.44c-.97,1.67-3.11,2.25-4.78,1.28-1.67-.97-2.25-3.11-1.28-4.78l.25-.44c.48-.84,1.26-1.4,2.12-1.63Zm270.44-56.97c1.49-.4,3.13,.23,3.94,1.64l.25,.43c.97,1.67,.39,3.81-1.28,4.78-1.68,.96-3.81,.39-4.78-1.28l-.25-.44c-.96-1.67-.39-3.81,1.29-4.78,.27-.16,.55-.27,.84-.35ZM96.68,280.9c.86-.23,1.82-.13,2.66,.35,1.67,.97,2.25,3.11,1.28,4.78l-.25,.44c-.97,1.67-3.11,2.25-4.78,1.28-1.67-.97-2.25-3.11-1.28-4.78l.25-.44c.48-.84,1.26-1.4,2.12-1.63Zm-10.81,18.72c.86-.23,1.82-.13,2.66,.35,1.67,.97,2.25,3.11,1.28,4.78l-.25,.44c-.97,1.67-3.11,2.25-4.78,1.28-1.67-.97-2.25-3.11-1.28-4.78l.25-.44c.48-.84,1.26-1.4,2.12-1.63Zm302.89-75.65c1.49-.4,3.13,.23,3.94,1.64l.25,.43c.97,1.67,.39,3.81-1.28,4.78-1.67,.96-3.81,.39-4.78-1.28l-.25-.44c-.96-1.67-.39-3.81,1.29-4.78,.27-.16,.55-.27,.84-.35ZM75.06,318.34c.86-.23,1.82-.13,2.66,.35,1.67,.97,2.25,3.11,1.28,4.78l-.25,.44c-.97,1.67-3.11,2.25-4.78,1.28-1.67-.97-2.25-3.11-1.28-4.78l.25-.44c.48-.84,1.26-1.4,2.12-1.63Zm324.53-75.59c1.49-.4,3.13,.23,3.93,1.63l.25,.44c.97,1.67,.39,3.81-1.28,4.78-1.67,.96-3.81,.39-4.78-1.28l-.25-.44c-.97-1.67-.39-3.81,1.28-4.78,.27-.16,.56-.27,.85-.35ZM64.25,337.06c.86-.23,1.82-.13,2.66,.35,1.67,.97,2.25,3.11,1.28,4.78l-.25,.44c-.97,1.67-3.11,2.25-4.78,1.28-1.67-.97-2.25-3.11-1.28-4.78l.25-.44c.48-.84,1.26-1.4,2.12-1.63Zm-10.81,18.72c.87-.23,1.82-.13,2.66,.35,1.67,.97,2.24,3.11,1.27,4.78l-.25,.43c-.97,1.67-3.11,2.24-4.78,1.27-1.67-.97-2.24-3.11-1.27-4.78l.25-.43c.48-.83,1.26-1.39,2.12-1.63Zm356.98-94.27c1.49-.4,3.13,.23,3.94,1.64l.25,.43c.97,1.67,.39,3.81-1.28,4.78-1.68,.96-3.81,.39-4.78-1.28l-.25-.44c-.96-1.67-.39-3.81,1.29-4.78,.27-.16,.55-.27,.84-.35ZM42.64,374.5c.86-.23,1.82-.13,2.66,.35,1.67,.97,2.25,3.11,1.28,4.78l-.25,.44c-.97,1.67-3.11,2.25-4.78,1.28-1.67-.97-2.25-3.11-1.28-4.78l.25-.44c.48-.84,1.26-1.4,2.12-1.63Zm378.62-94.22c1.49-.4,3.13,.23,3.94,1.64l.25,.43c.97,1.67,.39,3.81-1.28,4.78-1.67,.96-3.81,.39-4.78-1.28l-.25-.44c-.96-1.67-.39-3.81,1.29-4.78,.27-.16,.55-.27,.84-.35ZM31.83,393.22c.86-.23,1.82-.13,2.66,.35,1.67,.97,2.25,3.11,1.28,4.78l-.25,.44c-.97,1.67-3.11,2.25-4.78,1.28-1.67-.97-2.25-3.11-1.28-4.78l.25-.44c.48-.84,1.26-1.4,2.12-1.63Zm400.26-94.17c1.49-.4,3.13,.23,3.94,1.64l.25,.43c.97,1.67,.39,3.81-1.28,4.78-1.67,.97-3.81,.39-4.78-1.28l-.25-.44c-.96-1.67-.39-3.81,1.29-4.78,.27-.16,.55-.27,.84-.35ZM21.03,411.93c.86-.23,1.82-.13,2.66,.35,1.67,.97,2.25,3.11,1.28,4.78l-.25,.44c-.97,1.67-3.11,2.25-4.78,1.28-1.67-.97-2.25-3.11-1.28-4.78l.25-.44c.48-.84,1.26-1.4,2.12-1.63Zm-10.81,18.72c.86-.23,1.82-.13,2.66,.35,1.67,.97,2.25,3.11,1.28,4.78l-.25,.44c-.97,1.67-3.11,2.25-4.78,1.28-1.67-.97-2.25-3.11-1.28-4.78l.25-.44c.48-.84,1.26-1.4,2.12-1.63Zm432.71-112.84c1.49-.4,3.13,.23,3.94,1.64l.25,.43c.97,1.67,.39,3.81-1.28,4.78-1.67,.96-3.81,.39-4.78-1.28l-.25-.44c-.96-1.67-.39-3.81,1.29-4.78,.27-.16,.55-.27,.84-.35ZM2.59,449.46c.93-.25,1.96-.12,2.82,.45,1.73,.81,2.5,2.86,1.72,4.61-.79,1.76-2.86,2.55-4.63,1.76-.33-.15-.65-.33-.95-.53-1.61-1.08-2.04-3.25-.96-4.86,.49-.73,1.21-1.22,2-1.43Zm451.17-112.87c1.49-.4,3.13,.23,3.94,1.64l.25,.43c.97,1.67,.39,3.81-1.28,4.78-1.67,.96-3.81,.39-4.78-1.28l-.25-.44c-.96-1.67-.39-3.81,1.29-4.78,.27-.16,.55-.27,.84-.35ZM46.09,449.96c.29-.08,.59-.12,.9-.12h.52c1.93,0,3.49,1.58,3.49,3.51,0,1.93-1.58,3.49-3.51,3.49h-.49c-1.93,0-3.5-1.56-3.5-3.5,0-1.62,1.1-2.99,2.59-3.39Zm21.71,0c.29-.08,.59-.12,.9-.12h.52c1.93,0,3.49,1.58,3.49,3.51,0,1.93-1.57,3.5-3.51,3.49h-.48c-1.93,0-3.5-1.56-3.51-3.49,0-1.62,1.1-2.99,2.59-3.39Zm21.7,0c.29-.08,.59-.12,.9-.12h.52c1.93,0,3.49,1.58,3.49,3.51,0,1.93-1.58,3.49-3.51,3.49h-.48c-1.93,0-3.5-1.56-3.51-3.49,0-1.62,1.09-2.99,2.59-3.39Zm21.69,0c.29-.08,.59-.12,.9-.12h.53c1.93,0,3.49,1.58,3.48,3.51s-1.58,3.49-3.52,3.48h-.48c-1.93,0-3.5-1.56-3.51-3.49,0-1.62,1.1-2.99,2.59-3.39Zm353.42-94.6c1.49-.4,3.13,.23,3.94,1.64l.25,.43c.97,1.67,.39,3.81-1.28,4.78-1.68,.96-3.81,.39-4.78-1.28l-.25-.44c-.96-1.67-.39-3.81,1.29-4.78,.27-.16,.55-.27,.84-.35Zm-331.74,94.6c.29-.08,.59-.12,.9-.12h.53c1.93,0,3.49,1.58,3.48,3.51,0,1.93-1.58,3.49-3.52,3.48h-.48c-1.93,0-3.5-1.56-3.51-3.49,0-1.62,1.09-2.99,2.59-3.39Zm21.67,0c.29-.08,.59-.12,.9-.12h.53c1.93,0,3.49,1.58,3.48,3.51s-1.58,3.49-3.52,3.48h-.48c-1.93,0-3.5-1.56-3.51-3.49,0-1.62,1.1-2.99,2.59-3.39Zm21.67,0c.29-.08,.59-.12,.9-.12h.53c1.93,0,3.49,1.58,3.48,3.51s-1.58,3.49-3.52,3.48h-.48c-1.93,0-3.5-1.56-3.51-3.49,0-1.62,1.1-2.99,2.59-3.39Zm299.23-75.82c1.5-.4,3.13,.23,3.94,1.64l.25,.43c.97,1.67,.39,3.81-1.28,4.78-1.67,.96-3.81,.39-4.78-1.28l-.26-.44c-.96-1.68-.38-3.82,1.29-4.78,.27-.16,.55-.27,.84-.35Zm-277.56,75.83c.29-.08,.59-.12,.9-.12h.53c1.93,0,3.49,1.58,3.48,3.51s-1.58,3.49-3.52,3.48h-.48c-1.93,0-3.5-1.56-3.51-3.49,0-1.62,1.1-2.99,2.59-3.39Zm21.67,0c.29-.08,.59-.12,.9-.12h.53c1.93,0,3.49,1.58,3.48,3.51,0,1.93-1.58,3.49-3.52,3.48h-.48c-1.93,0-3.5-1.56-3.51-3.49,0-1.62,1.1-2.99,2.59-3.39Zm21.67,0c.29-.08,.59-.12,.9-.12h.52c1.93,0,3.49,1.58,3.49,3.51,0,1.93-1.58,3.49-3.51,3.49h-.48c-1.93,0-3.5-1.56-3.51-3.49,0-1.62,1.1-2.99,2.59-3.39Zm21.68,0c.29-.08,.59-.12,.9-.12h.53c1.93,0,3.49,1.58,3.48,3.51,0,1.93-1.58,3.49-3.52,3.48h-.48c-1.93,0-3.5-1.56-3.51-3.49,0-1.62,1.1-2.99,2.59-3.39Zm223.39-57.04c1.5-.4,3.13,.23,3.94,1.64l.25,.43c.97,1.67,.39,3.81-1.28,4.78-1.67,.97-3.81,.39-4.78-1.28l-.26-.44c-.96-1.68-.38-3.82,1.29-4.78,.27-.16,.55-.27,.84-.35Zm-201.73,57.04c.29-.08,.59-.12,.9-.12h.53c1.93,0,3.49,1.58,3.48,3.52,0,1.93-1.58,3.49-3.52,3.48h-.48c-1.93,0-3.5-1.56-3.51-3.49,0-1.62,1.1-2.99,2.59-3.39Zm21.67,0c.29-.08,.59-.12,.9-.12h.52c1.93,0,3.5,1.58,3.49,3.51,0,1.93-1.58,3.5-3.51,3.49h-.48c-1.93,0-3.5-1.56-3.51-3.49,0-1.62,1.1-2.99,2.59-3.39Zm21.67,0c.29-.08,.59-.12,.9-.12h.53c1.93,0,3.49,1.58,3.49,3.51,0,1.93-1.58,3.5-3.51,3.49h-.48c-1.93,0-3.5-1.56-3.51-3.49,0-1.62,1.1-2.99,2.59-3.39Zm21.67,0c.29-.08,.59-.12,.9-.12h.53c1.93,0,3.49,1.58,3.49,3.51,0,1.93-1.58,3.49-3.51,3.49h-.48c-1.93,0-3.5-1.56-3.51-3.49,0-1.62,1.1-2.99,2.59-3.39Zm147.58-38.24c1.49-.4,3.13,.23,3.94,1.63l.25,.43c.97,1.67,.4,3.81-1.27,4.78-1.67,.97-3.81,.4-4.78-1.27l-.25-.44c-.97-1.67-.39-3.81,1.28-4.78,.27-.16,.56-.27,.85-.35Zm-125.91,38.24c.29-.08,.59-.12,.9-.12h.53c1.93,0,3.49,1.58,3.49,3.51,0,1.93-1.58,3.5-3.51,3.49h-.48c-1.93,0-3.5-1.56-3.51-3.49,0-1.62,1.1-2.99,2.59-3.39Zm21.68,0c.29-.08,.59-.12,.9-.12h.53c1.93,0,3.49,1.58,3.48,3.52,0,1.93-1.58,3.49-3.52,3.48h-.48c-1.93,0-3.5-1.56-3.51-3.49,0-1.62,1.1-2.99,2.59-3.39Zm21.68,0c.29-.08,.59-.12,.9-.12h.53c1.93,0,3.49,1.58,3.48,3.52,0,1.93-1.58,3.49-3.52,3.48h-.48c-1.93,0-3.5-1.56-3.51-3.49,0-1.62,1.1-2.99,2.59-3.39Zm93.42-19.42c1.49-.4,3.13,.23,3.94,1.64l.25,.44c.96,1.67,.39,3.81-1.29,4.78-1.67,.96-3.81,.39-4.78-1.29l-.25-.44c-.96-1.68-.39-3.81,1.29-4.78,.27-.16,.55-.27,.84-.35Zm-71.73,19.41c.29-.08,.59-.12,.9-.12h.53c1.93,0,3.49,1.58,3.49,3.51,0,1.93-1.58,3.5-3.51,3.49h-.48c-1.93,0-3.5-1.56-3.51-3.49,0-1.62,1.1-2.99,2.59-3.39Zm21.7,0c.29-.08,.59-.12,.9-.12h.53c1.93,0,3.49,1.58,3.48,3.52,0,1.93-1.58,3.49-3.52,3.48h-.48c-1.93,0-3.5-1.56-3.51-3.49,0-1.62,1.1-2.99,2.59-3.39Zm21.72,0c.29-.08,.59-.12,.9-.12h.53c1.93,0,3.49,1.58,3.48,3.52,0,1.93-1.58,3.49-3.52,3.48h-.48c-1.93,0-3.5-1.56-3.51-3.49,0-1.62,1.1-2.99,2.59-3.39Zm21.74,0c.29-.08,.6-.12,.91-.12h.5c1.93,0,3.5,1.57,3.5,3.5,0,1.93-1.57,3.5-3.5,3.5h-.51c-1.93,0-3.5-1.57-3.49-3.5,0-1.62,1.1-2.98,2.59-3.38Zm17.5-.48c1.49-.4,3.12,.23,3.93,1.63l.22,.38c.17,.28,.31,.59,.4,.93,.5,1.87-.61,3.79-2.47,4.29-.97,.26-2.79,.34-4.15-1.99l-.05-.09c-.97-1.67-.4-3.81,1.27-4.78,.27-.16,.56-.28,.85-.35Zm-494.22,.48c.29-.08,.59-.12,.9-.12h.52c1.93,0,3.49,1.58,3.49,3.51,0,1.93-1.58,3.49-3.51,3.49h-.49c-1.93,0-3.5-1.56-3.5-3.5,0-1.62,1.1-2.99,2.59-3.39Z"/></g></svg>