<?xml version="1.0" encoding="UTF-8"?><svg xmlns="http://www.w3.org/2000/svg" viewBox="0 0 1390.41 1390.41"><defs><style>.d{fill:none;}</style></defs><g id="a"/><g id="b"><g id="c"><g><path d="M316.33,648.6c-.9,0-1.79-.34-2.47-1.03-1.37-1.37-1.37-3.58,0-4.95l.36-.36c1.37-1.37,3.58-1.37,4.95,0,1.37,1.37,1.37,3.58,0,4.95l-.36,.36c-.68,.68-1.58,1.03-2.48,1.03Zm15.28-15.28c-.9,0-1.79-.34-2.48-1.03-1.37-1.37-1.37-3.58,0-4.95l.36-.36c1.37-1.37,3.58-1.37,4.95,0,1.37,1.37,1.37,3.58,0,4.95l-.36,.36c-.68,.68-1.58,1.03-2.48,1.03Zm-21.13-4.19c-1.54,0-2.95-1.03-3.38-2.58l-.13-.49c-.5-1.87,.6-3.79,2.47-4.29,1.87-.5,3.79,.6,4.29,2.47l.13,.48c.51,1.87-.6,3.79-2.46,4.29-.31,.08-.62,.12-.92,.12Zm36.42-11.1c-.9,0-1.79-.34-2.48-1.03-1.37-1.37-1.37-3.58,0-4.95l.36-.36c1.37-1.37,3.58-1.37,4.95,0,1.37,1.37,1.37,3.58,0,4.95l-.36,.36c-.68,.68-1.58,1.03-2.48,1.03Zm-42.05-9.89c-1.55,0-2.97-1.04-3.38-2.6l-.13-.48c-.5-1.87,.61-3.79,2.47-4.29,1.87-.5,3.79,.61,4.29,2.47l.13,.5c.5,1.87-.62,3.78-2.49,4.28-.3,.08-.6,.12-.9,.12Zm57.34-5.39c-.9,0-1.79-.34-2.48-1.03-1.37-1.37-1.37-3.58,0-4.95l.36-.36c1.37-1.37,3.58-1.37,4.95,0,1.37,1.37,1.37,3.58,0,4.95l-.36,.36c-.68,.68-1.58,1.03-2.48,1.03Zm15.28-15.28c-.9,0-1.79-.34-2.48-1.03-1.37-1.37-1.37-3.58,0-4.95l.36-.36c1.37-1.37,3.58-1.37,4.95,0,1.37,1.37,1.37,3.58,0,4.95l-.36,.36c-.68,.68-1.58,1.03-2.48,1.03Zm-78.24-.3c-1.54,0-2.96-1.03-3.38-2.59l-.13-.49c-.5-1.87,.61-3.79,2.47-4.29,1.86-.5,3.79,.61,4.29,2.47l.13,.48c.5,1.87-.6,3.79-2.47,4.29-.31,.08-.61,.12-.91,.12Zm93.53-14.99c-.9,0-1.79-.34-2.48-1.03-1.37-1.37-1.36-3.58,0-4.95l.36-.35c1.37-1.36,3.58-1.36,4.95,0,1.36,1.37,1.36,3.58,0,4.95l-.36,.35c-.68,.68-1.58,1.02-2.47,1.02Zm-99.15-5.97c-1.54,0-2.96-1.03-3.38-2.59l-.13-.49c-.5-1.87,.61-3.79,2.47-4.29,1.87-.5,3.79,.61,4.29,2.47l.13,.48c.5,1.87-.6,3.79-2.47,4.29-.31,.08-.61,.12-.91,.12Zm114.43-9.31c-.9,0-1.79-.34-2.47-1.02-1.37-1.37-1.37-3.58,0-4.95l.35-.36c1.37-1.37,3.58-1.37,4.95,0,1.37,1.37,1.37,3.58,0,4.95l-.35,.36c-.68,.68-1.58,1.03-2.48,1.03Zm-120.04-11.63c-1.55,0-2.96-1.03-3.38-2.59l-.13-.49c-.5-1.87,.61-3.79,2.47-4.29,1.87-.5,3.79,.61,4.29,2.47l.13,.49c.5,1.87-.61,3.79-2.47,4.29-.3,.08-.61,.12-.91,.12Zm135.33-3.65c-.9,0-1.79-.34-2.47-1.03-1.37-1.37-1.37-3.58,0-4.95l.36-.36c1.37-1.37,3.58-1.37,4.95,0,1.37,1.37,1.37,3.58,0,4.95l-.36,.36c-.68,.68-1.58,1.03-2.47,1.03Zm15.28-15.28c-.9,0-1.79-.34-2.47-1.03-1.37-1.37-1.37-3.58,0-4.95l.36-.36c1.37-1.37,3.58-1.37,4.95,0,1.37,1.37,1.37,3.58,0,4.95l-.36,.36c-.68,.68-1.58,1.03-2.47,1.03Zm-156.23-2.01c-1.54,0-2.96-1.03-3.38-2.59l-.13-.49c-.5-1.87,.61-3.79,2.47-4.29,1.87-.5,3.79,.61,4.29,2.47l.13,.49c.5,1.87-.61,3.79-2.47,4.29-.3,.08-.61,.12-.91,.12Zm171.51-13.28c-.9,0-1.79-.34-2.47-1.03-1.37-1.37-1.37-3.58,0-4.95l.36-.36c1.37-1.37,3.58-1.37,4.95,0,1.37,1.37,1.37,3.58,0,4.95l-.36,.36c-.68,.68-1.58,1.03-2.47,1.03Zm-177.12-7.66c-1.54,0-2.96-1.03-3.38-2.59l-.13-.49c-.5-1.87,.61-3.79,2.47-4.29,1.87-.5,3.79,.61,4.29,2.47l.13,.48c.5,1.87-.6,3.79-2.47,4.29-.31,.08-.61,.12-.91,.12Zm192.4-7.62c-.9,0-1.79-.34-2.47-1.03-1.37-1.37-1.37-3.58,0-4.95l.36-.36c1.37-1.37,3.58-1.37,4.95,0,1.37,1.37,1.37,3.58,0,4.95l-.36,.36c-.68,.68-1.58,1.03-2.47,1.03Zm-198.01-13.31c-1.54,0-2.96-1.03-3.38-2.59l-.13-.49c-.5-1.87,.61-3.79,2.47-4.29,1.86-.5,3.79,.61,4.29,2.47l.13,.48c.5,1.87-.6,3.79-2.47,4.29-.31,.08-.61,.12-.91,.12Zm213.3-1.97c-.9,0-1.79-.34-2.47-1.03-1.37-1.37-1.37-3.58,0-4.95l.36-.36c1.37-1.37,3.58-1.37,4.95,0,1.37,1.37,1.37,3.58,0,4.95l-.36,.36c-.68,.68-1.58,1.03-2.47,1.03Zm15.28-15.28c-.9,0-1.79-.34-2.47-1.03-1.37-1.37-1.37-3.58,0-4.95l.36-.36c1.37-1.37,3.58-1.37,4.95,0,1.37,1.37,1.37,3.58,0,4.95l-.36,.36c-.68,.68-1.58,1.03-2.47,1.03Zm-234.19-3.67c-1.54,0-2.96-1.03-3.38-2.59l-.13-.49c-.5-1.87,.61-3.79,2.47-4.29,1.86-.5,3.79,.61,4.29,2.47l.13,.48c.5,1.87-.6,3.79-2.47,4.29-.3,.08-.61,.12-.91,.12Zm249.47-11.61c-.9,0-1.79-.34-2.47-1.03-1.37-1.37-1.37-3.58,0-4.95l.36-.36c1.37-1.37,3.58-1.37,4.95,0,1.37,1.37,1.37,3.58,0,4.95l-.36,.36c-.68,.68-1.58,1.03-2.47,1.03Zm-255.08-9.32c-1.55,0-2.96-1.03-3.38-2.6l-.13-.48c-.5-1.87,.61-3.79,2.47-4.29,1.87-.5,3.79,.61,4.29,2.47l.13,.49c.5,1.87-.61,3.79-2.48,4.28-.3,.08-.61,.12-.9,.12Zm270.36-5.97c-.9,0-1.79-.34-2.47-1.03-1.37-1.37-1.37-3.58,0-4.95l.36-.36c1.37-1.37,3.58-1.37,4.95,0,1.37,1.37,1.37,3.58,0,4.95l-.36,.36c-.68,.68-1.58,1.03-2.47,1.03Zm-275.97-14.96c-1.55,0-2.96-1.03-3.38-2.6l-.13-.48c-.5-1.87,.61-3.79,2.47-4.29,1.87-.5,3.79,.61,4.29,2.47l.13,.49c.5,1.87-.61,3.79-2.48,4.28-.3,.08-.61,.12-.9,.12Zm291.26-.32c-.9,0-1.79-.34-2.47-1.03-1.37-1.37-1.37-3.58,0-4.95l.36-.36c1.37-1.37,3.58-1.37,4.95,0,1.37,1.37,1.37,3.58,0,4.95l-.36,.36c-.68,.68-1.58,1.03-2.47,1.03Zm15.28-15.28c-.9,0-1.79-.34-2.47-1.03-1.37-1.37-1.37-3.58,0-4.95l.36-.36c1.37-1.37,3.58-1.37,4.95,0,1.37,1.37,1.37,3.58,0,4.95l-.36,.36c-.68,.68-1.58,1.03-2.47,1.03Zm-312.14-5.32c-1.55,0-2.96-1.03-3.38-2.6l-.13-.48c-.5-1.87,.61-3.79,2.47-4.29,1.86-.5,3.79,.61,4.29,2.47l.13,.49c.5,1.87-.61,3.79-2.48,4.28-.3,.08-.61,.12-.9,.12Zm327.43-9.96c-.9,0-1.79-.34-2.47-1.03-1.37-1.37-1.37-3.58,0-4.95l.36-.36c1.37-1.37,3.58-1.37,4.95,0,1.37,1.37,1.37,3.58,0,4.95l-.36,.36c-.68,.68-1.58,1.03-2.47,1.03Zm-333.04-10.98c-1.55,0-2.96-1.03-3.38-2.59l-.13-.49c-.5-1.87,.61-3.79,2.47-4.29,1.86-.5,3.79,.61,4.29,2.47l.13,.49c.5,1.87-.61,3.79-2.47,4.29-.3,.08-.61,.12-.91,.12Zm348.32-4.3c-.9,0-1.79-.34-2.47-1.03-1.37-1.37-1.37-3.58,0-4.95l.36-.36c1.37-1.37,3.58-1.37,4.95,0,1.37,1.37,1.37,3.58,0,4.95l-.36,.36c-.68,.68-1.58,1.03-2.47,1.03Zm15.28-15.28c-.9,0-1.79-.34-2.47-1.03-1.37-1.37-1.37-3.58,0-4.95l.36-.36c1.37-1.37,3.58-1.37,4.95,0,1.37,1.37,1.37,3.58,0,4.95l-.36,.36c-.68,.68-1.58,1.03-2.47,1.03Zm-369.21-1.34c-1.55,0-2.96-1.03-3.38-2.6l-.13-.48c-.5-1.87,.61-3.79,2.47-4.29,1.86-.5,3.79,.61,4.29,2.47l.13,.49c.5,1.87-.61,3.79-2.48,4.28-.3,.08-.61,.12-.9,.12Zm384.5-13.94c-.9,0-1.79-.34-2.47-1.03-1.37-1.37-1.37-3.58,0-4.95l.36-.36c1.37-1.37,3.58-1.37,4.95,0,1.37,1.37,1.37,3.58,0,4.95l-.36,.36c-.68,.68-1.58,1.03-2.47,1.03Zm-390.1-6.99c-1.55,0-2.96-1.03-3.38-2.6l-.13-.48c-.5-1.87,.61-3.79,2.47-4.29,1.87-.5,3.79,.61,4.29,2.47l.13,.49c.5,1.87-.61,3.79-2.48,4.28-.3,.08-.61,.12-.9,.12Zm405.39-8.3c-.9,0-1.79-.34-2.47-1.03-1.37-1.37-1.37-3.58,0-4.95l.36-.36c1.37-1.37,3.58-1.37,4.95,0,1.37,1.37,1.37,3.58,0,4.95l-.36,.36c-.68,.68-1.58,1.03-2.47,1.03Zm-410.99-12.63c-1.55,0-2.96-1.03-3.38-2.6l-.13-.48c-.5-1.87,.61-3.79,2.47-4.29,1.87-.5,3.79,.61,4.29,2.47l.13,.49c.5,1.87-.61,3.79-2.48,4.28-.3,.08-.61,.12-.9,.12Zm426.28-2.65c-.9,0-1.79-.34-2.47-1.03-1.37-1.37-1.37-3.58,0-4.95l.36-.36c1.37-1.37,3.58-1.37,4.95,0,1.37,1.37,1.37,3.58,0,4.95l-.36,.36c-.68,.68-1.58,1.03-2.47,1.03Zm15.28-15.28c-.9,0-1.79-.34-2.47-1.03-1.37-1.37-1.37-3.58,0-4.95l.36-.36c1.37-1.37,3.58-1.37,4.95,0,1.37,1.37,1.37,3.58,0,4.95l-.36,.36c-.68,.68-1.58,1.03-2.47,1.03Zm-447.17-3c-1.55,0-2.96-1.03-3.38-2.6l-.13-.48c-.5-1.87,.61-3.79,2.47-4.29,1.87-.5,3.79,.61,4.29,2.47l.13,.49c.5,1.87-.61,3.79-2.48,4.28-.3,.08-.61,.12-.9,.12Zm459.4-13.19c-.96,0-1.92-.39-2.61-1.16-1.46-1.22-1.68-3.4-.48-4.88,1.22-1.5,3.42-1.74,4.92-.53,.28,.23,.55,.49,.8,.77,1.27,1.46,1.13,3.67-.33,4.94-.66,.58-1.49,.87-2.3,.87Zm-465.01-7.75c-1.55,0-2.96-1.03-3.38-2.6l-.13-.48c-.5-1.87,.61-3.79,2.47-4.29,1.87-.5,3.79,.61,4.29,2.47l.13,.49c.5,1.87-.61,3.79-2.48,4.28-.3,.08-.61,.12-.9,.12Zm423.13-3.99c-.3,0-.6-.04-.9-.12l-.5-.13c-1.87-.51-2.97-2.43-2.46-4.29,.51-1.86,2.43-2.97,4.29-2.46l.47,.13c1.87,.5,2.98,2.42,2.48,4.28-.42,1.57-1.83,2.6-3.38,2.6Zm-20.97-5.62c-.3,0-.6-.04-.9-.12l-.5-.13c-1.87-.51-2.97-2.43-2.46-4.29,.51-1.86,2.42-2.97,4.29-2.46l.47,.13c1.87,.5,2.98,2.42,2.48,4.28-.42,1.57-1.83,2.6-3.38,2.6Zm-20.96-5.62c-.3,0-.6-.04-.9-.12l-.51-.13c-1.87-.51-2.97-2.43-2.46-4.29,.51-1.86,2.43-2.97,4.29-2.46l.47,.12c1.87,.5,2.98,2.41,2.49,4.28-.42,1.57-1.83,2.6-3.38,2.6Zm-20.95-5.61c-.3,0-.6-.04-.9-.12l-.51-.14c-1.87-.51-2.96-2.43-2.46-4.3,.51-1.87,2.43-2.96,4.3-2.46l.46,.12c1.87,.5,2.98,2.41,2.49,4.28-.42,1.57-1.83,2.6-3.38,2.6Zm-365.86-.09c-1.55,0-2.96-1.03-3.38-2.6l-.13-.48c-.5-1.87,.61-3.79,2.47-4.29,1.87-.5,3.79,.61,4.29,2.47l.13,.49c.5,1.87-.61,3.79-2.48,4.28-.3,.08-.61,.12-.9,.12Zm344.92-5.52c-.3,0-.6-.04-.9-.12l-.51-.14c-1.87-.51-2.96-2.43-2.46-4.3,.51-1.86,2.43-2.96,4.3-2.46l.46,.12c1.87,.5,2.98,2.41,2.49,4.28-.42,1.57-1.83,2.6-3.38,2.6Zm-20.94-5.61c-.3,0-.6-.04-.9-.12l-.51-.14c-1.87-.51-2.96-2.43-2.46-4.3s2.43-2.96,4.3-2.46l.46,.12c1.87,.5,2.98,2.41,2.49,4.28-.42,1.57-1.83,2.6-3.38,2.6Zm-20.93-5.61c-.3,0-.6-.04-.9-.12l-.51-.14c-1.87-.51-2.96-2.43-2.46-4.3s2.43-2.97,4.3-2.46l.46,.12c1.87,.5,2.98,2.41,2.49,4.28-.42,1.57-1.83,2.6-3.38,2.6Zm-308.66-4.21c-1.55,0-2.97-1.04-3.38-2.6l-.13-.48c-.5-1.87,.61-3.79,2.47-4.29,1.87-.5,3.79,.61,4.29,2.47l.13,.5c.5,1.87-.62,3.78-2.49,4.28-.3,.08-.6,.12-.9,.12Zm287.73-1.4c-.3,0-.6-.04-.9-.12l-.51-.14c-1.87-.51-2.96-2.43-2.46-4.3s2.43-2.96,4.3-2.46l.46,.12c1.87,.5,2.98,2.41,2.49,4.28-.42,1.57-1.83,2.6-3.38,2.6Zm-20.93-5.61c-.3,0-.6-.04-.9-.12l-.51-.14c-1.87-.51-2.96-2.43-2.46-4.3s2.43-2.97,4.3-2.46l.46,.12c1.87,.5,2.98,2.41,2.49,4.28-.42,1.57-1.83,2.6-3.38,2.6Zm-20.93-5.61c-.3,0-.6-.04-.9-.12l-.51-.13c-1.87-.51-2.97-2.43-2.46-4.29,.51-1.87,2.43-2.97,4.29-2.46l.47,.12c1.87,.5,2.98,2.41,2.49,4.28-.42,1.57-1.83,2.6-3.38,2.6Zm-20.94-5.61c-.3,0-.6-.04-.9-.12l-.51-.14c-1.87-.51-2.96-2.43-2.46-4.3s2.43-2.96,4.3-2.46l.46,.12c1.87,.5,2.98,2.41,2.49,4.28-.42,1.57-1.83,2.6-3.38,2.6Zm-230.55-2.72c-1.55,0-2.97-1.04-3.38-2.6l-.13-.48c-.5-1.87,.61-3.79,2.47-4.29,1.86-.5,3.79,.61,4.29,2.47l.13,.5c.5,1.87-.62,3.78-2.49,4.28-.3,.08-.6,.12-.9,.12Zm209.62-2.89c-.3,0-.6-.04-.9-.12l-.51-.14c-1.87-.51-2.97-2.43-2.46-4.29,.51-1.87,2.43-2.97,4.3-2.46l.46,.12c1.87,.5,2.98,2.41,2.49,4.28-.42,1.57-1.83,2.6-3.38,2.6Zm-20.93-5.61c-.3,0-.6-.04-.9-.12l-.5-.13c-1.87-.51-2.97-2.43-2.46-4.29,.51-1.87,2.42-2.97,4.29-2.46l.47,.12c1.87,.5,2.98,2.41,2.49,4.28-.42,1.57-1.83,2.6-3.38,2.6Zm-20.93-5.61c-.3,0-.6-.04-.9-.12l-.5-.13c-1.87-.51-2.97-2.43-2.46-4.29,.51-1.87,2.43-2.97,4.29-2.46l.47,.12c1.87,.5,2.98,2.41,2.49,4.28-.42,1.57-1.83,2.6-3.38,2.6Zm-20.93-5.61c-.3,0-.6-.04-.9-.12l-.5-.13c-1.87-.51-2.97-2.43-2.46-4.29,.51-1.87,2.43-2.97,4.29-2.46l.47,.12c1.87,.5,2.98,2.41,2.49,4.28-.42,1.57-1.83,2.6-3.38,2.6Zm-152.45-1.26c-1.55,0-2.96-1.03-3.38-2.59l-.13-.48c-.5-1.87,.6-3.79,2.47-4.29,1.87-.51,3.79,.6,4.29,2.47l.13,.49c.5,1.87-.61,3.79-2.47,4.29-.3,.08-.61,.12-.91,.12Zm131.52-4.35c-.3,0-.6-.04-.9-.12l-.51-.14c-1.87-.51-2.97-2.43-2.46-4.29s2.43-2.97,4.3-2.46l.46,.12c1.87,.5,2.98,2.41,2.49,4.28-.42,1.57-1.83,2.6-3.38,2.6Zm-20.94-5.61c-.3,0-.6-.04-.9-.12l-.51-.14c-1.86-.51-2.96-2.43-2.46-4.3,.51-1.87,2.43-2.96,4.3-2.46l.46,.12c1.87,.5,2.98,2.41,2.49,4.28-.42,1.57-1.83,2.6-3.38,2.6Zm-20.94-5.61c-.3,0-.6-.04-.9-.12l-.51-.14c-1.86-.51-2.96-2.43-2.46-4.3,.51-1.86,2.43-2.96,4.3-2.46l.46,.12c1.87,.5,2.98,2.41,2.49,4.28-.42,1.57-1.83,2.6-3.38,2.6Zm-95.26-5.42c-1.55,0-2.96-1.03-3.38-2.6l-.13-.49c-.5-1.87,.61-3.79,2.48-4.28,1.87-.5,3.79,.61,4.28,2.48l.13,.49c.5,1.87-.61,3.79-2.48,4.28-.3,.08-.61,.12-.9,.12Zm74.31-.19c-.3,0-.6-.04-.9-.12l-.51-.14c-1.87-.51-2.97-2.43-2.46-4.29s2.43-2.97,4.3-2.46l.46,.12c1.87,.5,2.98,2.41,2.49,4.28-.42,1.57-1.83,2.6-3.38,2.6Zm-20.96-5.61c-.3,0-.6-.04-.9-.12l-.51-.14c-1.86-.51-2.96-2.43-2.46-4.3,.51-1.87,2.43-2.97,4.3-2.46l.46,.12c1.87,.5,2.98,2.41,2.49,4.28-.42,1.57-1.83,2.6-3.38,2.6Zm-20.98-5.62c-.3,0-.6-.04-.9-.12l-.51-.14c-1.86-.51-2.96-2.43-2.46-4.3s2.43-2.97,4.3-2.46l.46,.12c1.87,.5,2.98,2.41,2.49,4.28-.42,1.57-1.83,2.6-3.38,2.6Zm-21-5.62c-.3,0-.61-.04-.91-.12l-.48-.13c-1.87-.5-2.98-2.42-2.48-4.28,.5-1.87,2.42-2.98,4.28-2.48l.5,.13c1.87,.5,2.97,2.42,2.47,4.29-.42,1.56-1.83,2.59-3.38,2.59Zm-17.03-4.06c-1.54,0-2.96-1.03-3.38-2.59l-.11-.42c-.09-.32-.15-.65-.15-1,0-1.93,1.57-3.5,3.5-3.5,1,0,2.79,.39,3.49,3l.03,.1c.5,1.87-.6,3.79-2.47,4.29-.31,.08-.61,.12-.92,.12Zm477.51,127.03c-.3,0-.6-.04-.9-.12l-.5-.13c-1.87-.51-2.97-2.43-2.46-4.29,.51-1.86,2.43-2.97,4.29-2.46l.47,.13c1.87,.5,2.98,2.42,2.48,4.28-.42,1.57-1.83,2.6-3.38,2.6Z"/><path d="M1067.04,646.96c-.97,0-1.94-.4-2.63-1.2-1.26-1.44-1.13-3.63,.3-4.91,1.22-1.46,3.4-1.68,4.88-.48,1.5,1.21,1.74,3.42,.53,4.92-.23,.28-.49,.55-.77,.8-.66,.58-1.49,.87-2.3,.87Zm-15.83-11.88c-.9,0-1.79-.34-2.47-1.03l-.36-.36c-1.37-1.37-1.37-3.58,0-4.95,1.37-1.37,3.58-1.37,4.95,0l.36,.36c1.37,1.37,1.37,3.58,0,4.95-.68,.68-1.58,1.03-2.47,1.03Zm21.95-12.51h0Zm-37.23-2.77c-.9,0-1.79-.34-2.47-1.03l-.36-.36c-1.37-1.37-1.37-3.58,0-4.95,1.37-1.37,3.58-1.37,4.95,0l.36,.36c1.37,1.37,1.37,3.58,0,4.95-.68,.68-1.58,1.03-2.47,1.03Zm42.86-14.72c-.3,0-.6-.04-.9-.12-1.87-.5-2.98-2.42-2.48-4.28l.13-.5c.51-1.86,2.43-2.97,4.29-2.46,1.87,.51,2.97,2.43,2.46,4.29l-.13,.47c-.42,1.57-1.83,2.6-3.38,2.6Zm-58.14-.56c-.9,0-1.79-.34-2.47-1.03l-.36-.36c-1.37-1.37-1.37-3.58,0-4.95,1.37-1.37,3.58-1.37,4.95,0l.36,.36c1.37,1.37,1.37,3.58,0,4.95-.68,.68-1.58,1.03-2.47,1.03Zm-15.28-15.28c-.9,0-1.79-.34-2.47-1.03l-.36-.36c-1.37-1.37-1.37-3.58,0-4.95,1.37-1.37,3.58-1.37,4.95,0l.36,.36c1.37,1.37,1.37,3.58,0,4.95-.68,.68-1.58,1.03-2.47,1.03Zm79.05-5.12c-.3,0-.6-.04-.9-.12-1.87-.5-2.98-2.42-2.48-4.28l.13-.5c.51-1.87,2.43-2.97,4.29-2.46,1.87,.51,2.97,2.43,2.46,4.29l-.13,.47c-.42,1.57-1.83,2.6-3.38,2.6Zm-94.33-10.16c-.9,0-1.79-.34-2.47-1.03l-.36-.36c-1.37-1.37-1.37-3.58,0-4.95,1.37-1.37,3.58-1.37,4.95,0l.36,.36c1.37,1.37,1.37,3.58,0,4.95-.68,.68-1.58,1.03-2.47,1.03Zm99.95-10.8c-.3,0-.6-.04-.9-.12-1.87-.5-2.98-2.41-2.49-4.28l.13-.51c.51-1.86,2.43-2.96,4.29-2.46,1.87,.51,2.97,2.43,2.46,4.29l-.12,.47c-.42,1.57-1.83,2.6-3.38,2.6Zm-115.23-4.49c-.9,0-1.79-.34-2.47-1.03l-.36-.36c-1.37-1.37-1.37-3.58,0-4.95,1.37-1.37,3.58-1.37,4.95,0l.36,.36c1.37,1.37,1.37,3.58,0,4.95-.68,.68-1.58,1.03-2.47,1.03Zm-15.28-15.28c-.9,0-1.79-.34-2.47-1.03l-.36-.36c-1.37-1.37-1.37-3.58,0-4.95,1.37-1.37,3.58-1.37,4.95,0l.36,.36c1.37,1.37,1.37,3.58,0,4.95-.68,.68-1.58,1.03-2.47,1.03Zm136.13-1.18c-.3,0-.6-.04-.9-.12-1.87-.5-2.98-2.41-2.49-4.28l.14-.51c.51-1.87,2.43-2.97,4.3-2.46,1.87,.51,2.96,2.43,2.46,4.3l-.12,.46c-.42,1.57-1.83,2.6-3.38,2.6Zm-151.42-14.11c-.9,0-1.79-.34-2.47-1.03l-.36-.36c-1.37-1.37-1.37-3.58,0-4.95,1.37-1.37,3.58-1.37,4.95,0l.36,.36c1.37,1.37,1.37,3.58,0,4.95-.68,.68-1.58,1.03-2.47,1.03Zm157.03-6.83c-.3,0-.6-.04-.9-.12-1.87-.5-2.98-2.41-2.49-4.28l.14-.51c.51-1.87,2.43-2.96,4.3-2.46,1.87,.51,2.96,2.43,2.46,4.3l-.12,.46c-.42,1.57-1.83,2.6-3.38,2.6Zm-172.31-8.45c-.9,0-1.79-.34-2.47-1.03l-.36-.36c-1.37-1.37-1.37-3.58,0-4.95,1.37-1.37,3.58-1.37,4.95,0l.36,.36c1.37,1.37,1.37,3.58,0,4.95-.68,.68-1.58,1.03-2.47,1.03Zm177.92-12.49c-.3,0-.6-.04-.9-.12-1.87-.5-2.98-2.41-2.49-4.28l.14-.51c.51-1.87,2.43-2.96,4.3-2.46,1.87,.51,2.96,2.43,2.46,4.3l-.12,.46c-.42,1.57-1.83,2.6-3.38,2.6Zm-193.21-2.8c-.9,0-1.79-.34-2.47-1.03l-.36-.36c-1.37-1.37-1.37-3.58,0-4.95,1.37-1.37,3.58-1.37,4.95,0l.36,.36c1.37,1.37,1.37,3.58,0,4.95-.68,.68-1.58,1.03-2.47,1.03Zm-15.28-15.28c-.89,0-1.79-.34-2.47-1.02l-.36-.35c-1.37-1.37-1.37-3.58,0-4.95,1.37-1.37,3.58-1.37,4.95,0l.36,.35c1.37,1.37,1.37,3.58,0,4.95-.68,.69-1.58,1.03-2.48,1.03Zm214.1-2.85c-.3,0-.6-.04-.9-.12-1.87-.5-2.98-2.41-2.49-4.28l.14-.51c.51-1.87,2.43-2.96,4.3-2.46,1.87,.51,2.96,2.43,2.46,4.3l-.12,.46c-.42,1.57-1.83,2.6-3.38,2.6Zm-229.39-12.43c-.9,0-1.79-.34-2.47-1.03l-.36-.36c-1.37-1.37-1.37-3.58,0-4.95,1.37-1.37,3.58-1.37,4.95,0l.36,.36c1.37,1.37,1.37,3.58,0,4.95-.68,.68-1.58,1.03-2.47,1.03Zm235-8.5c-.3,0-.6-.04-.9-.12-1.87-.5-2.98-2.41-2.49-4.28l.14-.51c.51-1.87,2.43-2.97,4.3-2.46,1.87,.51,2.96,2.43,2.46,4.3l-.12,.46c-.42,1.57-1.83,2.6-3.38,2.6Zm-250.28-6.79c-.9,0-1.79-.34-2.47-1.03l-.36-.36c-1.37-1.37-1.37-3.58,0-4.95,1.37-1.37,3.58-1.37,4.95,0l.36,.36c1.37,1.37,1.37,3.58,0,4.95-.68,.68-1.58,1.03-2.47,1.03Zm255.89-14.14c-.3,0-.6-.04-.9-.12-1.87-.5-2.98-2.41-2.49-4.28l.14-.51c.51-1.87,2.43-2.97,4.3-2.46,1.87,.51,2.96,2.43,2.46,4.3l-.12,.46c-.42,1.57-1.83,2.6-3.38,2.6Zm-271.17-1.14c-.9,0-1.79-.34-2.47-1.03l-.36-.36c-1.37-1.37-1.37-3.58,0-4.95,1.37-1.37,3.58-1.37,4.95,0l.36,.36c1.37,1.37,1.37,3.58,0,4.95-.68,.68-1.58,1.03-2.47,1.03Zm-15.28-15.28c-.9,0-1.79-.34-2.47-1.03l-.36-.36c-1.37-1.37-1.37-3.58,0-4.95,1.37-1.37,3.58-1.37,4.95,0l.36,.36c1.37,1.37,1.37,3.58,0,4.95-.68,.68-1.58,1.03-2.47,1.03Zm292.07-4.5c-.3,0-.6-.04-.9-.12-1.87-.5-2.98-2.41-2.49-4.28l.13-.51c.51-1.86,2.43-2.97,4.29-2.46,1.87,.51,2.97,2.43,2.46,4.29l-.12,.47c-.42,1.57-1.83,2.6-3.38,2.6Zm-307.35-10.78c-.9,0-1.79-.34-2.47-1.03l-.36-.36c-1.37-1.37-1.37-3.58,0-4.95,1.37-1.37,3.58-1.37,4.95,0l.36,.36c1.37,1.37,1.37,3.58,0,4.95-.68,.68-1.58,1.03-2.47,1.03Zm312.96-10.16c-.3,0-.6-.04-.9-.12-1.87-.5-2.98-2.41-2.49-4.28l.14-.51c.51-1.87,2.43-2.97,4.3-2.46,1.87,.51,2.96,2.43,2.46,4.3l-.12,.46c-.42,1.57-1.83,2.6-3.38,2.6Zm-328.25-5.12c-.9,0-1.79-.34-2.47-1.03l-.36-.36c-1.37-1.37-1.37-3.58,0-4.95,1.37-1.37,3.58-1.37,4.95,0l.36,.36c1.37,1.37,1.37,3.58,0,4.95-.68,.68-1.58,1.03-2.47,1.03Zm-15.28-15.28c-.9,0-1.79-.34-2.47-1.03l-.36-.36c-1.37-1.37-1.37-3.58,0-4.95,1.37-1.37,3.58-1.37,4.95,0l.36,.36c1.37,1.37,1.37,3.58,0,4.95-.68,.68-1.58,1.03-2.47,1.03Zm349.14-.52c-.3,0-.6-.04-.9-.12-1.87-.5-2.98-2.41-2.49-4.28l.14-.51c.51-1.87,2.43-2.96,4.3-2.46,1.87,.51,2.96,2.43,2.46,4.3l-.12,.46c-.42,1.57-1.83,2.6-3.38,2.6Zm-364.42-14.76c-.9,0-1.79-.34-2.47-1.03l-.36-.36c-1.37-1.37-1.37-3.58,0-4.95,1.37-1.37,3.58-1.37,4.95,0l.36,.36c1.37,1.37,1.37,3.58,0,4.95-.68,.68-1.58,1.03-2.47,1.03Zm370.03-6.17c-.3,0-.6-.04-.9-.12-1.87-.5-2.98-2.41-2.49-4.28l.14-.51c.51-1.87,2.43-2.97,4.3-2.46,1.87,.51,2.96,2.43,2.46,4.3l-.12,.46c-.42,1.57-1.83,2.6-3.38,2.6Zm-385.31-9.12c-.9,0-1.79-.34-2.47-1.03l-.36-.36c-1.37-1.37-1.37-3.58,0-4.95,1.37-1.37,3.58-1.37,4.95,0l.36,.36c1.37,1.37,1.37,3.58,0,4.95-.68,.68-1.58,1.03-2.47,1.03Zm390.92-11.81c-.3,0-.6-.04-.9-.12-1.87-.5-2.98-2.41-2.49-4.28l.14-.51c.51-1.87,2.43-2.97,4.3-2.46,1.87,.51,2.96,2.43,2.46,4.3l-.12,.46c-.42,1.57-1.83,2.6-3.38,2.6Zm-406.21-3.47c-.9,0-1.79-.34-2.47-1.03l-.36-.36c-1.37-1.37-1.37-3.58,0-4.95,1.37-1.37,3.58-1.37,4.95,0l.36,.36c1.37,1.37,1.37,3.58,0,4.95-.68,.68-1.58,1.03-2.47,1.03Zm-15.28-15.28c-.9,0-1.79-.34-2.47-1.03l-.36-.36c-1.37-1.37-1.37-3.58,0-4.95,1.37-1.37,3.58-1.37,4.95,0l.36,.36c1.37,1.37,1.37,3.58,0,4.95-.68,.68-1.58,1.03-2.47,1.03Zm427.1-2.17c-.3,0-.6-.04-.9-.12-1.87-.5-2.98-2.41-2.49-4.28l.14-.51c.51-1.87,2.43-2.96,4.3-2.46,1.87,.51,2.96,2.43,2.46,4.3l-.12,.46c-.42,1.57-1.83,2.6-3.38,2.6Zm-442.38-13.11c-.9,0-1.79-.34-2.47-1.03l-.36-.36c-1.37-1.37-1.37-3.58,0-4.95,1.37-1.37,3.58-1.37,4.95,0l.36,.36c1.37,1.37,1.37,3.58,0,4.95-.68,.68-1.58,1.03-2.47,1.03Zm447.99-7.83c-.3,0-.6-.04-.9-.12-1.87-.5-2.98-2.41-2.49-4.28l.14-.51c.51-1.87,2.43-2.96,4.3-2.46,1.87,.51,2.96,2.43,2.46,4.3l-.12,.46c-.42,1.57-1.83,2.6-3.38,2.6Zm-463.28-7.46c-.9,0-1.79-.34-2.47-1.03l-.36-.36c-1.37-1.37-1.37-3.58,0-4.95,1.37-1.37,3.58-1.37,4.95,0l.36,.36c1.37,1.37,1.37,3.58,0,4.95-.68,.68-1.58,1.03-2.47,1.03Zm40.11-11.84c-1.54,0-2.95-1.03-3.38-2.58-.51-1.87,.6-3.79,2.46-4.29l.49-.13c1.87-.51,3.79,.6,4.29,2.46,.51,1.87-.6,3.79-2.46,4.29l-.49,.13c-.31,.08-.62,.12-.92,.12Zm428.78-1.64c-.3,0-.6-.04-.9-.12-1.87-.5-2.98-2.41-2.49-4.28l.13-.51c.51-1.86,2.43-2.97,4.29-2.46,1.87,.51,2.97,2.43,2.46,4.29l-.12,.47c-.42,1.57-1.83,2.6-3.38,2.6Zm-407.81-3.98c-1.54,0-2.95-1.02-3.38-2.58-.51-1.87,.59-3.79,2.46-4.3l.49-.13c1.87-.51,3.79,.6,4.29,2.46,.51,1.87-.6,3.79-2.46,4.29l-.48,.13c-.31,.08-.62,.12-.92,.12Zm20.96-5.62c-1.54,0-2.95-1.02-3.38-2.58-.51-1.87,.59-3.79,2.46-4.3l.51-.14c1.86-.5,3.78,.62,4.28,2.49,.5,1.87-.62,3.78-2.49,4.28l-.46,.12c-.31,.08-.62,.12-.92,.12Zm20.95-5.62c-1.54,0-2.95-1.03-3.38-2.58-.51-1.87,.6-3.79,2.46-4.29l.51-.13c1.86-.5,3.78,.62,4.28,2.49,.5,1.87-.62,3.78-2.49,4.28l-.47,.12c-.31,.08-.62,.12-.92,.12Zm20.94-5.61c-1.54,0-2.95-1.03-3.38-2.58-.51-1.87,.6-3.79,2.46-4.29l.51-.13c1.86-.5,3.78,.62,4.28,2.49,.5,1.87-.62,3.78-2.49,4.28l-.47,.12c-.31,.08-.62,.12-.92,.12Zm350.57-.11c-.3,0-.6-.04-.9-.12-1.87-.5-2.98-2.41-2.49-4.28l.13-.51c.51-1.86,2.43-2.97,4.29-2.46,1.87,.51,2.97,2.43,2.46,4.29l-.12,.47c-.42,1.57-1.83,2.6-3.38,2.6Zm-329.64-5.5c-1.54,0-2.95-1.02-3.38-2.58-.51-1.87,.59-3.79,2.46-4.3l.51-.14c1.86-.5,3.78,.62,4.28,2.49,.5,1.87-.62,3.78-2.49,4.28l-.46,.12c-.31,.08-.62,.12-.92,.12Zm20.93-5.61c-1.54,0-2.95-1.02-3.38-2.58-.51-1.87,.59-3.79,2.46-4.3l.51-.14c1.86-.5,3.78,.62,4.28,2.49,.5,1.87-.62,3.78-2.49,4.28l-.46,.12c-.31,.08-.62,.12-.92,.12Zm20.93-5.61c-1.54,0-2.95-1.02-3.38-2.58-.51-1.87,.59-3.79,2.46-4.3l.51-.14c1.86-.5,3.78,.62,4.28,2.49,.5,1.87-.62,3.78-2.49,4.28l-.46,.12c-.31,.08-.62,.12-.92,.12Zm293.38-4.24c-.3,0-.6-.04-.9-.12-1.87-.5-2.98-2.41-2.49-4.28l.14-.51c.51-1.87,2.43-2.97,4.3-2.46,1.87,.51,2.96,2.43,2.46,4.3l-.12,.46c-.42,1.57-1.83,2.6-3.38,2.6Zm-272.46-1.37c-1.54,0-2.95-1.02-3.38-2.58-.51-1.87,.59-3.79,2.46-4.3l.51-.14c1.86-.5,3.78,.62,4.28,2.49,.5,1.87-.62,3.78-2.49,4.28l-.46,.12c-.31,.08-.62,.12-.92,.12Zm20.93-5.61c-1.54,0-2.95-1.02-3.38-2.58-.51-1.87,.59-3.79,2.46-4.3l.51-.14c1.86-.5,3.79,.62,4.28,2.49,.5,1.87-.62,3.78-2.49,4.28l-.46,.12c-.31,.08-.62,.12-.92,.12Zm20.93-5.61c-1.54,0-2.95-1.02-3.38-2.58-.51-1.87,.59-3.79,2.46-4.3l.51-.14c1.87-.5,3.78,.62,4.28,2.49,.5,1.87-.62,3.78-2.49,4.28l-.46,.12c-.31,.08-.62,.12-.92,.12Zm20.94-5.61c-1.54,0-2.95-1.03-3.38-2.58-.51-1.87,.6-3.79,2.46-4.29l.51-.13c1.86-.5,3.78,.62,4.28,2.49,.5,1.87-.62,3.78-2.49,4.28l-.47,.12c-.31,.08-.62,.12-.92,.12Zm215.27-2.76c-.3,0-.6-.04-.9-.12-1.87-.5-2.98-2.41-2.49-4.28l.14-.51c.51-1.87,2.43-2.97,4.3-2.46,1.87,.51,2.96,2.43,2.46,4.3l-.12,.46c-.42,1.57-1.83,2.6-3.38,2.6Zm-194.34-2.84c-1.54,0-2.95-1.02-3.38-2.58-.51-1.87,.59-3.79,2.46-4.3l.51-.14c1.86-.5,3.78,.62,4.28,2.49,.5,1.87-.62,3.78-2.49,4.28l-.46,.12c-.31,.08-.62,.12-.92,.12Zm20.93-5.61c-1.54,0-2.95-1.02-3.38-2.58-.51-1.87,.59-3.79,2.46-4.3l.51-.14c1.86-.5,3.79,.62,4.28,2.49,.5,1.87-.62,3.78-2.49,4.28l-.46,.12c-.31,.08-.62,.12-.92,.12Zm20.93-5.61c-1.54,0-2.95-1.02-3.38-2.58-.51-1.87,.59-3.79,2.46-4.3l.51-.14c1.86-.5,3.78,.62,4.28,2.49,.5,1.87-.62,3.78-2.49,4.28l-.46,.12c-.31,.08-.62,.12-.92,.12Zm20.93-5.61c-1.54,0-2.95-1.02-3.38-2.58-.51-1.87,.59-3.79,2.46-4.3l.51-.14c1.86-.5,3.78,.62,4.28,2.49,.5,1.87-.62,3.78-2.49,4.28l-.46,.12c-.31,.08-.62,.12-.92,.12Zm137.16-1.31c-.3,0-.6-.04-.9-.12-1.87-.5-2.98-2.41-2.49-4.28l.13-.51c.51-1.87,2.42-2.97,4.29-2.46,1.87,.51,2.97,2.43,2.46,4.29l-.12,.47c-.42,1.57-1.83,2.6-3.38,2.6Zm-116.23-4.29c-1.54,0-2.95-1.02-3.38-2.58-.51-1.87,.59-3.79,2.46-4.3l.51-.14c1.86-.5,3.78,.62,4.28,2.49,.5,1.87-.62,3.78-2.49,4.28l-.46,.12c-.31,.08-.62,.12-.92,.12Zm20.94-5.61c-1.54,0-2.95-1.02-3.38-2.58-.51-1.87,.59-3.79,2.46-4.3l.51-.14c1.86-.5,3.78,.62,4.28,2.49,.5,1.87-.62,3.78-2.49,4.28l-.46,.12c-.31,.08-.62,.12-.92,.12Zm20.95-5.61c-1.54,0-2.95-1.03-3.38-2.58-.51-1.87,.6-3.79,2.46-4.29l.51-.13c1.86-.5,3.79,.62,4.28,2.49,.5,1.87-.62,3.78-2.49,4.28l-.47,.12c-.31,.08-.62,.12-.92,.12Zm79.96-5.48c-.3,0-.61-.04-.91-.12-1.87-.5-2.97-2.42-2.47-4.29l.13-.48c.5-1.87,2.41-2.98,4.28-2.48,1.87,.5,2.98,2.42,2.48,4.28l-.13,.5c-.42,1.56-1.83,2.59-3.38,2.59Zm-59-.13c-1.54,0-2.95-1.03-3.38-2.58-.51-1.87,.6-3.79,2.46-4.29l.51-.13c1.86-.5,3.78,.62,4.28,2.49,.5,1.87-.62,3.78-2.49,4.28l-.47,.12c-.31,.08-.62,.12-.92,.12Zm20.97-5.62c-1.54,0-2.95-1.03-3.38-2.58-.51-1.87,.6-3.79,2.46-4.29l.5-.13c1.87-.49,3.79,.61,4.28,2.48s-.61,3.79-2.48,4.28l-.47,.13c-.31,.08-.62,.12-.92,.12Zm20.99-5.62c-1.54,0-2.94-1.02-3.37-2.57-.51-1.86,.58-3.79,2.44-4.3l.45-.12c1.87-.49,3.82,.61,4.32,2.47s-.58,3.78-2.45,4.27l-.06,.02-.39,.11c-.31,.09-.62,.13-.93,.13Zm21.09-5.66c-1.54,0-2.96-1.03-3.38-2.59-.5-1.87,.6-3.79,2.47-4.29l.5-.13c1.87-.51,3.79,.59,4.3,2.46,.51,1.87-.59,3.79-2.46,4.3l-.52,.14c-.3,.08-.61,.12-.91,.12Zm-482.05,128.98c-1.54,0-2.95-1.03-3.38-2.58-.51-1.87,.6-3.79,2.46-4.29l.49-.13c1.87-.51,3.79,.6,4.29,2.46,.51,1.87-.6,3.79-2.46,4.29l-.49,.13c-.31,.08-.62,.12-.92,.12Zm354.41,349.28c-.3,0-.6-.04-.9-.12-1.87-.5-2.98-2.42-2.48-4.28l.13-.5c.51-1.86,2.43-2.97,4.29-2.46,1.87,.51,2.97,2.43,2.46,4.29l-.13,.47c-.42,1.57-1.83,2.6-3.38,2.6Z"/><path d="M1201.84,690.77c-.38,0-.76-.06-1.13-.19-1.82-.62-2.79-2.59-2.19-4.41,.33-1.89,2.12-3.16,4.02-2.85,1.91,.31,3.2,2.11,2.88,4.02-.06,.36-.15,.71-.26,1.05-.5,1.45-1.86,2.37-3.31,2.37Zm-19.65-2.37c-.3,0-.61-.04-.91-.12l-.49-.13c-1.87-.5-2.97-2.42-2.47-4.29,.5-1.87,2.43-2.97,4.29-2.47l.49,.13c1.87,.5,2.97,2.42,2.47,4.29-.42,1.56-1.83,2.59-3.38,2.59Zm-20.88-5.59c-.3,0-.6-.04-.91-.12l-.49-.13c-1.87-.5-2.98-2.42-2.48-4.29,.5-1.87,2.42-2.98,4.29-2.48l.48,.13c1.87,.5,2.98,2.42,2.48,4.29-.42,1.56-1.83,2.6-3.38,2.6Zm-20.88-5.59c-.3,0-.61-.04-.91-.12l-.49-.13c-1.87-.5-2.97-2.42-2.47-4.29s2.43-2.97,4.29-2.47l.49,.13c1.87,.5,2.97,2.42,2.47,4.29-.42,1.56-1.83,2.59-3.38,2.59Zm-20.88-5.59c-.3,0-.6-.04-.91-.12l-.49-.13c-1.87-.5-2.98-2.42-2.48-4.29,.5-1.87,2.42-2.98,4.29-2.48l.48,.13c1.87,.5,2.98,2.42,2.48,4.29-.42,1.56-1.83,2.6-3.38,2.6Zm77.11-2.03c-1.54,0-2.94-1.01-3.35-2.57l-.02-.06-.11-.39c-.51-1.86,.58-3.79,2.44-4.3,1.87-.52,3.79,.58,4.3,2.44l.12,.45c.5,1.87-.6,3.82-2.47,4.32-.31,.08-.62,.12-.92,.12Zm-97.98-3.56c-.3,0-.61-.04-.91-.12l-.49-.13c-1.87-.5-2.97-2.42-2.47-4.29,.5-1.87,2.42-2.97,4.29-2.47l.49,.13c1.87,.5,2.97,2.42,2.47,4.29-.42,1.56-1.83,2.59-3.38,2.59Zm-20.88-5.59c-.3,0-.6-.04-.91-.12l-.48-.13c-1.87-.5-2.98-2.42-2.48-4.29,.5-1.87,2.42-2.98,4.29-2.48l.49,.13c1.87,.5,2.98,2.42,2.48,4.29-.42,1.56-1.83,2.6-3.38,2.6Zm-20.88-5.59c-.3,0-.6-.04-.91-.12l-.48-.13c-1.87-.5-2.98-2.42-2.48-4.29,.5-1.87,2.42-2.98,4.29-2.48l.49,.13c1.87,.5,2.98,2.42,2.48,4.29-.42,1.56-1.83,2.6-3.38,2.6Zm-20.88-5.59c-.3,0-.6-.04-.91-.12l-.48-.13c-1.87-.5-2.98-2.42-2.48-4.29,.5-1.87,2.42-2.98,4.29-2.48l.49,.13c1.87,.5,2.98,2.42,2.48,4.29-.42,1.56-1.83,2.6-3.38,2.6Zm155.02-.62c-1.55,0-2.96-1.03-3.38-2.6l-.13-.47c-.51-1.87,.6-3.79,2.46-4.29,1.87-.51,3.79,.6,4.29,2.46l.13,.5c.5,1.87-.61,3.79-2.48,4.28-.3,.08-.61,.12-.9,.12Zm-175.9-4.98c-.3,0-.6-.04-.91-.12l-.48-.13c-1.87-.5-2.98-2.42-2.48-4.29,.5-1.87,2.42-2.98,4.29-2.48l.49,.13c1.87,.5,2.98,2.42,2.48,4.29-.42,1.56-1.83,2.6-3.38,2.6Zm-20.88-5.59c-.3,0-.6-.04-.91-.12l-.48-.13c-1.87-.5-2.98-2.42-2.48-4.29,.5-1.87,2.42-2.98,4.29-2.48l.49,.13c1.87,.5,2.98,2.42,2.48,4.29-.42,1.56-1.83,2.6-3.38,2.6Zm-20.88-5.59c-.3,0-.6-.04-.91-.12l-.49-.13c-1.87-.5-2.98-2.42-2.48-4.29,.5-1.87,2.41-2.98,4.29-2.48l.49,.13c1.87,.5,2.98,2.42,2.48,4.29-.42,1.56-1.83,2.6-3.38,2.6Zm212.03-4.81c-1.55,0-2.97-1.04-3.38-2.6l-.12-.47c-.51-1.87,.6-3.79,2.46-4.29,1.87-.51,3.79,.6,4.29,2.46l.13,.51c.5,1.87-.62,3.78-2.49,4.28-.3,.08-.6,.12-.9,.12Zm-232.91-.79c-.3,0-.6-.04-.91-.12l-.49-.13c-1.87-.5-2.98-2.42-2.48-4.29,.5-1.87,2.41-2.98,4.29-2.48l.49,.13c1.87,.5,2.98,2.42,2.48,4.29-.42,1.56-1.83,2.6-3.38,2.6Zm-20.88-5.59c-.3,0-.6-.04-.91-.12l-.49-.13c-1.87-.5-2.98-2.42-2.48-4.29,.5-1.87,2.41-2.98,4.29-2.48l.49,.13c1.87,.5,2.98,2.42,2.48,4.29-.42,1.56-1.83,2.6-3.38,2.6Zm-20.88-5.59c-.3,0-.61-.04-.91-.12l-.49-.13c-1.87-.5-2.97-2.42-2.47-4.29s2.42-2.97,4.29-2.47l.49,.13c1.87,.5,2.97,2.42,2.47,4.29-.42,1.56-1.83,2.59-3.38,2.59Zm-20.88-5.59c-.3,0-.6-.04-.91-.12l-.49-.13c-1.87-.5-2.98-2.42-2.48-4.29,.5-1.87,2.42-2.98,4.29-2.48l.49,.13c1.87,.5,2.98,2.42,2.48,4.29-.42,1.56-1.83,2.6-3.38,2.6Zm289.93-3.39c-1.55,0-2.97-1.04-3.38-2.6l-.12-.47c-.51-1.87,.6-3.79,2.46-4.29,1.87-.51,3.79,.6,4.29,2.46l.13,.51c.5,1.87-.62,3.78-2.49,4.28-.3,.08-.6,.12-.9,.12Zm-310.81-2.21c-.3,0-.61-.04-.91-.12l-.49-.13c-1.87-.5-2.97-2.42-2.47-4.29,.5-1.87,2.42-2.97,4.29-2.47l.49,.13c1.87,.5,2.97,2.42,2.47,4.29-.42,1.56-1.83,2.59-3.38,2.59Zm-20.88-5.59c-.3,0-.6-.04-.91-.12l-.49-.13c-1.87-.5-2.98-2.42-2.48-4.29,.5-1.87,2.41-2.97,4.29-2.48l.49,.13c1.87,.5,2.98,2.42,2.48,4.29-.42,1.56-1.83,2.6-3.38,2.6Zm-20.88-5.59c-.3,0-.6-.04-.91-.12l-.49-.13c-1.87-.5-2.98-2.42-2.48-4.29,.5-1.87,2.41-2.98,4.29-2.48l.49,.13c1.87,.5,2.98,2.42,2.48,4.29-.42,1.56-1.83,2.6-3.38,2.6Zm-20.88-5.59c-.3,0-.6-.04-.91-.12l-.49-.13c-1.87-.5-2.98-2.42-2.48-4.29,.5-1.87,2.42-2.97,4.29-2.48l.49,.13c1.87,.5,2.98,2.42,2.48,4.29-.42,1.56-1.83,2.6-3.38,2.6Zm367.83-1.96c-1.55,0-2.97-1.04-3.38-2.6l-.12-.46c-.51-1.87,.59-3.79,2.46-4.3,1.87-.51,3.79,.59,4.3,2.46l.14,.51c.5,1.87-.62,3.78-2.49,4.28-.3,.08-.6,.12-.9,.12Zm-388.71-3.64c-.3,0-.6-.04-.91-.12l-.49-.13c-1.87-.5-2.98-2.42-2.48-4.29,.5-1.87,2.42-2.97,4.29-2.48l.48,.13c1.87,.5,2.98,2.42,2.48,4.29-.42,1.56-1.83,2.6-3.38,2.6Zm-20.88-5.59c-.3,0-.6-.04-.91-.12l-.49-.13c-1.87-.5-2.98-2.42-2.48-4.29,.5-1.87,2.42-2.98,4.29-2.48l.48,.13c1.87,.5,2.98,2.42,2.48,4.29-.42,1.56-1.83,2.6-3.38,2.6Zm-20.88-5.59c-.3,0-.6-.04-.91-.12l-.49-.13c-1.87-.5-2.98-2.42-2.48-4.29,.5-1.87,2.42-2.97,4.29-2.48l.49,.13c1.87,.5,2.98,2.42,2.48,4.29-.42,1.56-1.83,2.6-3.38,2.6Zm-20.88-5.59c-.3,0-.6-.04-.91-.12l-.48-.13c-1.87-.5-2.98-2.42-2.48-4.29,.5-1.87,2.42-2.98,4.29-2.48l.49,.13c1.87,.5,2.98,2.42,2.48,4.29-.42,1.56-1.83,2.6-3.38,2.6Zm445.74-.52c-1.55,0-2.97-1.04-3.38-2.6l-.12-.46c-.51-1.87,.59-3.79,2.46-4.3,1.87-.51,3.79,.59,4.3,2.46l.14,.51c.5,1.87-.62,3.78-2.49,4.28-.3,.08-.6,.12-.9,.12Zm-466.61-5.07c-.3,0-.6-.04-.91-.12l-.48-.13c-1.87-.5-2.98-2.42-2.48-4.29,.5-1.87,2.42-2.98,4.29-2.48l.49,.13c1.87,.5,2.98,2.42,2.48,4.29-.42,1.56-1.83,2.6-3.38,2.6Zm13.45-14.93c-.9,0-1.79-.34-2.47-1.03-1.37-1.37-1.37-3.58,0-4.95l.36-.36c1.37-1.37,3.58-1.37,4.95,0,1.37,1.37,1.37,3.58,0,4.95l-.36,.36c-.68,.68-1.58,1.03-2.47,1.03Zm447.56-.93c-1.55,0-2.97-1.04-3.38-2.6l-.12-.46c-.51-1.87,.59-3.79,2.46-4.3,1.87-.51,3.79,.59,4.3,2.46l.14,.51c.5,1.87-.62,3.78-2.49,4.28-.3,.08-.6,.12-.9,.12Zm-432.19-14.44c-.9,0-1.79-.34-2.47-1.03-1.37-1.37-1.37-3.58,0-4.95l.36-.36c1.37-1.37,3.58-1.37,4.95,0,1.37,1.37,1.37,3.58,0,4.95l-.36,.36c-.68,.68-1.58,1.03-2.47,1.03Zm426.59-6.49c-1.55,0-2.97-1.04-3.38-2.6l-.12-.46c-.51-1.87,.59-3.79,2.46-4.3,1.87-.51,3.79,.59,4.3,2.46l.14,.51c.5,1.87-.62,3.78-2.49,4.28-.3,.08-.6,.12-.9,.12Zm-411.24-8.86c-.9,0-1.79-.34-2.47-1.03-1.37-1.37-1.37-3.58,0-4.95l.36-.36c1.37-1.37,3.58-1.37,4.95,0,1.37,1.37,1.37,3.58,0,4.95l-.36,.36c-.68,.68-1.58,1.03-2.47,1.03Zm405.63-12.07c-1.55,0-2.97-1.04-3.38-2.6l-.12-.46c-.51-1.87,.59-3.79,2.46-4.3,1.87-.51,3.79,.59,4.3,2.46l.14,.51c.5,1.87-.62,3.78-2.49,4.28-.3,.08-.6,.12-.9,.12Zm-390.29-3.28c-.9,0-1.79-.34-2.47-1.03-1.37-1.37-1.37-3.58,0-4.95l.36-.36c1.37-1.37,3.58-1.37,4.95,0,1.37,1.37,1.37,3.58,0,4.95l-.36,.36c-.68,.68-1.58,1.03-2.47,1.03Zm15.33-15.34c-.9,0-1.79-.34-2.47-1.03-1.37-1.37-1.37-3.58,0-4.95l.36-.36c1.37-1.37,3.58-1.37,4.95,0,1.37,1.37,1.37,3.58,0,4.95l-.36,.36c-.68,.68-1.58,1.03-2.47,1.03Zm369.35-2.32c-1.55,0-2.97-1.04-3.38-2.6l-.12-.46c-.51-1.87,.59-3.79,2.46-4.3,1.87-.51,3.79,.59,4.3,2.46l.14,.51c.5,1.87-.62,3.78-2.49,4.28-.3,.08-.6,.12-.9,.12Zm-354.02-13.01c-.9,0-1.79-.34-2.47-1.03-1.37-1.37-1.37-3.58,0-4.95l.36-.36c1.37-1.37,3.58-1.37,4.95,0,1.37,1.37,1.37,3.58,0,4.95l-.36,.36c-.68,.68-1.58,1.03-2.47,1.03Zm348.41-7.92c-1.55,0-2.97-1.04-3.38-2.6l-.12-.47c-.51-1.87,.6-3.79,2.46-4.29,1.87-.51,3.79,.6,4.29,2.46l.13,.51c.5,1.87-.62,3.78-2.49,4.28-.3,.08-.6,.12-.9,.12Zm-333.09-7.41c-.9,0-1.79-.34-2.47-1.03-1.37-1.37-1.37-3.58,0-4.95l.36-.36c1.37-1.37,3.58-1.37,4.95,0,1.37,1.37,1.37,3.58,0,4.95l-.36,.36c-.68,.68-1.58,1.03-2.47,1.03Zm327.48-13.53c-1.55,0-2.97-1.04-3.38-2.6l-.12-.46c-.51-1.87,.59-3.79,2.46-4.3,1.87-.51,3.79,.59,4.3,2.46l.14,.51c.5,1.87-.62,3.78-2.49,4.28-.3,.08-.6,.12-.9,.12Zm-312.15-1.79c-.9,0-1.79-.34-2.47-1.03-1.37-1.37-1.37-3.58,0-4.95l.36-.36c1.37-1.37,3.58-1.37,4.95,0,1.37,1.37,1.37,3.58,0,4.95l-.36,.36c-.68,.68-1.58,1.03-2.47,1.03Zm30.64-30.64c-.9,0-1.79-.34-2.47-1.03-1.37-1.37-1.37-3.58,0-4.95l.36-.36c1.37-1.37,3.58-1.37,4.95,0,1.37,1.37,1.37,3.58,0,4.95l-.36,.36c-.68,.68-1.58,1.03-2.47,1.03Zm270.3-9.42c-1.55,0-2.97-1.04-3.38-2.6l-.12-.46c-.51-1.87,.59-3.79,2.46-4.3,1.87-.51,3.79,.59,4.3,2.46l.14,.51c.5,1.87-.62,3.78-2.49,4.28-.3,.08-.6,.12-.9,.12Zm-254.97-5.9c-.9,0-1.79-.34-2.47-1.03-1.37-1.37-1.37-3.58,0-4.95l.36-.36c1.37-1.37,3.58-1.37,4.95,0,1.37,1.37,1.37,3.58,0,4.95l-.36,.36c-.68,.68-1.58,1.03-2.47,1.03Zm249.37-15.03c-1.55,0-2.97-1.04-3.38-2.6l-.12-.46c-.51-1.87,.59-3.79,2.46-4.3,1.87-.51,3.79,.59,4.3,2.46l.14,.51c.5,1.87-.62,3.78-2.49,4.28-.3,.08-.6,.12-.9,.12Zm-234.05-.29c-.9,0-1.79-.34-2.47-1.03-1.37-1.37-1.37-3.58,0-4.95l.36-.36c1.37-1.37,3.58-1.37,4.95,0,1.37,1.37,1.37,3.58,0,4.95l-.36,.36c-.68,.68-1.58,1.03-2.47,1.03Zm15.33-15.33c-.9,0-1.79-.34-2.47-1.03-1.37-1.37-1.37-3.58,0-4.95l.36-.36c1.37-1.37,3.58-1.37,4.95,0,1.37,1.37,1.37,3.58,0,4.95l-.36,.36c-.68,.68-1.58,1.03-2.47,1.03Zm213.11-5.31c-1.55,0-2.97-1.04-3.38-2.6l-.12-.46c-.51-1.87,.59-3.79,2.46-4.3,1.87-.51,3.79,.59,4.3,2.46l.14,.51c.5,1.87-.62,3.78-2.49,4.28-.3,.08-.6,.12-.9,.12Zm-197.79-10.01c-.9,0-1.79-.34-2.47-1.03-1.37-1.37-1.37-3.58,0-4.95l.36-.36c1.37-1.37,3.58-1.37,4.95,0,1.37,1.37,1.37,3.58,0,4.95l-.36,.36c-.68,.68-1.58,1.03-2.47,1.03Zm192.18-10.93c-1.55,0-2.97-1.04-3.38-2.6l-.12-.46c-.51-1.87,.59-3.79,2.46-4.3,1.87-.51,3.79,.59,4.3,2.46l.14,.51c.5,1.87-.62,3.78-2.49,4.28-.3,.08-.6,.12-.9,.12Zm-176.86-4.39c-.9,0-1.79-.34-2.47-1.03-1.37-1.37-1.37-3.58,0-4.95l.36-.36c1.37-1.37,3.58-1.37,4.95,0,1.37,1.37,1.37,3.58,0,4.95l-.36,.36c-.68,.68-1.58,1.03-2.47,1.03Zm15.32-15.32c-.9,0-1.79-.34-2.47-1.03-1.37-1.37-1.37-3.58,0-4.95l.36-.36c1.37-1.37,3.58-1.37,4.95,0,1.37,1.37,1.37,3.58,0,4.95l-.36,.36c-.68,.68-1.58,1.03-2.47,1.03Zm155.92-1.22c-1.55,0-2.97-1.04-3.38-2.6l-.12-.47c-.51-1.87,.6-3.79,2.46-4.29,1.87-.51,3.79,.6,4.29,2.46l.13,.51c.5,1.87-.62,3.78-2.49,4.28-.3,.08-.6,.12-.9,.12Zm-140.6-14.1c-.9,0-1.79-.34-2.47-1.03-1.37-1.37-1.37-3.58,0-4.95l.36-.36c1.37-1.37,3.58-1.37,4.95,0,1.37,1.37,1.37,3.58,0,4.95l-.36,.36c-.68,.68-1.58,1.03-2.47,1.03Zm134.98-6.84c-1.55,0-2.97-1.04-3.38-2.6l-.12-.47c-.51-1.87,.6-3.79,2.46-4.29,1.87-.51,3.79,.6,4.29,2.46l.13,.51c.5,1.87-.62,3.78-2.49,4.28-.3,.08-.6,.12-.9,.12Zm-119.66-8.48c-.9,0-1.79-.34-2.47-1.03-1.37-1.37-1.37-3.58,0-4.95l.36-.36c1.37-1.37,3.58-1.37,4.95,0,1.37,1.37,1.37,3.58,0,4.95l-.36,.36c-.68,.68-1.58,1.03-2.47,1.03Zm114.04-12.46c-1.55,0-2.97-1.04-3.38-2.6l-.12-.46c-.51-1.87,.59-3.79,2.46-4.3,1.87-.51,3.79,.59,4.3,2.46l.14,.51c.5,1.87-.62,3.78-2.49,4.28-.3,.08-.6,.12-.9,.12Zm-98.71-2.86c-.9,0-1.79-.34-2.47-1.03-1.37-1.37-1.37-3.58,0-4.95l.36-.36c1.37-1.37,3.58-1.37,4.95,0,1.37,1.37,1.37,3.58,0,4.95l-.36,.36c-.68,.68-1.58,1.03-2.47,1.03Zm15.34-15.33c-.9,0-1.79-.34-2.47-1.03-1.37-1.37-1.37-3.58,0-4.95l.36-.36c1.37-1.37,3.58-1.37,4.95,0,1.37,1.37,1.37,3.58,0,4.95l-.36,.36c-.68,.68-1.58,1.03-2.47,1.03Zm77.76-2.76c-1.54,0-2.95-1.03-3.38-2.58l-.13-.48c-.51-1.87,.59-3.79,2.46-4.3,1.87-.51,3.79,.59,4.3,2.46l.13,.49c.51,1.87-.6,3.79-2.46,4.29-.31,.08-.62,.12-.92,.12Zm-62.41-12.58c-.9,0-1.79-.34-2.47-1.03-1.37-1.37-1.37-3.58,0-4.95l.36-.36c1.37-1.37,3.58-1.37,4.95,0,1.37,1.37,1.37,3.58,0,4.95l-.36,.36c-.68,.68-1.58,1.03-2.47,1.03Zm56.79-8.39c-1.54,0-2.95-1.03-3.38-2.58l-.13-.49c-.51-1.87,.6-3.79,2.46-4.29,1.87-.51,3.79,.6,4.29,2.46l.13,.49c.51,1.87-.6,3.79-2.46,4.29-.31,.08-.62,.12-.92,.12Zm-41.44-6.96c-.9,0-1.79-.34-2.47-1.03-1.37-1.37-1.37-3.58,0-4.95l.36-.36c1.37-1.37,3.58-1.37,4.95,0,1.37,1.37,1.37,3.58,0,4.95l-.36,.36c-.68,.68-1.58,1.03-2.47,1.03Zm15.37-15.37c-.9,0-1.79-.34-2.47-1.03-1.37-1.37-1.37-3.58,0-4.95l.36-.36c1.37-1.37,3.58-1.37,4.95,0,1.37,1.37,1.37,3.58,0,4.95l-.36,.36c-.68,.68-1.58,1.03-2.47,1.03Zm15.44-15.44c-.9,0-1.79-.34-2.47-1.03-1.37-1.37-1.37-3.58,0-4.95l.33-.33c.64-.66,1.53-1.07,2.52-1.07,1.93,0,3.5,1.57,3.5,3.5,0,1.45-.78,2.23-1.4,2.85-.68,.68-1.58,1.03-2.47,1.03Zm4.92,16.77c-1.54,0-2.95-1.03-3.38-2.58l-.13-.49c-.51-1.87,.6-3.79,2.46-4.29,1.87-.51,3.79,.6,4.29,2.46l.13,.49c.51,1.87-.6,3.79-2.46,4.29-.31,.08-.62,.12-.92,.12Z"/><path d="M181.32,690.81c-1.47,0-2.85-.94-3.35-2.4-.12-.35-.21-.71-.27-1.07-.31-1.91,.99-3.71,2.9-4.01,1.91-.3,3.71,.99,4.01,2.9,.63,1.83-.35,3.77-2.18,4.4-.37,.13-.74,.19-1.11,.19Zm19.61-2.41c-1.54,0-2.96-1.03-3.38-2.59-.5-1.87,.6-3.79,2.47-4.29l.49-.13c1.87-.51,3.79,.6,4.29,2.47s-.6,3.79-2.47,4.29l-.49,.13c-.31,.08-.61,.12-.91,.12Zm20.88-5.59c-1.55,0-2.96-1.03-3.38-2.6-.5-1.87,.61-3.79,2.48-4.29l.49-.13c1.87-.5,3.79,.61,4.29,2.48,.5,1.87-.61,3.79-2.48,4.29l-.49,.13c-.3,.08-.61,.12-.91,.12Zm20.88-5.59c-1.54,0-2.96-1.03-3.38-2.59-.5-1.87,.6-3.79,2.47-4.29l.49-.13c1.87-.5,3.79,.6,4.29,2.47,.5,1.87-.6,3.79-2.47,4.29l-.49,.13c-.3,.08-.61,.12-.91,.12Zm20.88-5.59c-1.55,0-2.96-1.03-3.38-2.6-.5-1.87,.61-3.79,2.48-4.29l.49-.13c1.87-.5,3.79,.61,4.29,2.48,.5,1.87-.61,3.79-2.48,4.29l-.49,.13c-.3,.08-.61,.12-.91,.12Zm-77.13-2c-.3,0-.6-.04-.9-.12-1.87-.5-2.98-2.42-2.48-4.28l.13-.49c.5-1.87,2.42-2.98,4.28-2.48,1.87,.5,2.98,2.42,2.48,4.28l-.13,.49c-.42,1.57-1.83,2.6-3.38,2.6Zm98.01-3.59c-1.54,0-2.96-1.03-3.38-2.59-.5-1.87,.6-3.79,2.47-4.29l.49-.13c1.87-.51,3.79,.6,4.29,2.47s-.6,3.79-2.47,4.29l-.49,.13c-.31,.08-.61,.12-.91,.12Zm20.88-5.59c-1.55,0-2.96-1.03-3.38-2.6-.5-1.87,.61-3.79,2.48-4.29l.49-.13c1.87-.5,3.79,.61,4.29,2.48,.5,1.87-.61,3.79-2.48,4.29l-.49,.13c-.3,.08-.61,.12-.91,.12Zm20.88-5.59c-1.55,0-2.96-1.03-3.38-2.6-.5-1.87,.61-3.79,2.48-4.29l.49-.13c1.87-.5,3.79,.61,4.29,2.48,.5,1.87-.61,3.79-2.48,4.29l-.49,.13c-.3,.08-.61,.12-.91,.12Zm20.88-5.59c-1.55,0-2.96-1.03-3.38-2.6-.5-1.87,.61-3.79,2.48-4.29l.49-.13c1.86-.5,3.79,.61,4.29,2.48,.5,1.87-.61,3.79-2.48,4.29l-.49,.13c-.3,.08-.61,.12-.91,.12Zm-155.02-.62c-.3,0-.61-.04-.91-.12-1.87-.5-2.97-2.42-2.47-4.29l.13-.48c.5-1.87,2.42-2.97,4.29-2.47,1.87,.5,2.98,2.42,2.47,4.29l-.13,.49c-.42,1.56-1.83,2.59-3.38,2.59Zm175.9-4.98c-1.55,0-2.96-1.03-3.38-2.6-.5-1.87,.61-3.79,2.48-4.29l.49-.13c1.87-.5,3.79,.61,4.29,2.48,.5,1.87-.61,3.79-2.48,4.29l-.49,.13c-.3,.08-.61,.12-.91,.12Zm20.88-5.59c-1.55,0-2.96-1.03-3.38-2.6-.5-1.87,.61-3.79,2.48-4.29l.49-.13c1.87-.5,3.79,.61,4.29,2.48,.5,1.87-.61,3.79-2.48,4.29l-.49,.13c-.3,.08-.61,.12-.91,.12Zm20.88-5.59c-1.55,0-2.96-1.03-3.38-2.6-.5-1.87,.61-3.79,2.48-4.29l.49-.13c1.87-.5,3.79,.61,4.29,2.48,.5,1.87-.61,3.79-2.48,4.29l-.49,.13c-.3,.08-.61,.12-.91,.12Zm-212.03-4.81c-.3,0-.6-.04-.91-.12-1.87-.5-2.98-2.42-2.47-4.29l.13-.48c.49-1.87,2.41-2.99,4.28-2.49,1.87,.5,2.98,2.41,2.49,4.28l-.13,.5c-.42,1.56-1.83,2.59-3.38,2.59Zm232.91-.79c-1.55,0-2.96-1.03-3.38-2.6-.5-1.87,.61-3.79,2.48-4.29l.48-.13c1.87-.5,3.79,.61,4.29,2.48,.5,1.87-.61,3.79-2.48,4.29l-.49,.13c-.3,.08-.61,.12-.91,.12Zm20.88-5.59c-1.55,0-2.96-1.03-3.38-2.6-.5-1.87,.61-3.79,2.48-4.29l.49-.13c1.87-.5,3.79,.61,4.29,2.48,.5,1.87-.61,3.79-2.48,4.29l-.49,.13c-.3,.08-.61,.12-.91,.12Zm20.88-5.59c-1.54,0-2.96-1.03-3.38-2.59-.5-1.87,.6-3.79,2.47-4.29l.49-.13c1.86-.51,3.79,.6,4.29,2.47,.5,1.87-.6,3.79-2.47,4.29l-.49,.13c-.3,.08-.61,.12-.91,.12Zm20.88-5.59c-1.55,0-2.96-1.03-3.38-2.6-.5-1.87,.61-3.79,2.48-4.29l.49-.13c1.87-.5,3.79,.61,4.29,2.48,.5,1.87-.61,3.79-2.48,4.29l-.49,.13c-.3,.08-.61,.12-.91,.12Zm-289.93-3.39c-.3,0-.6-.04-.91-.12-1.87-.5-2.98-2.42-2.47-4.29l.13-.48c.5-1.87,2.41-2.99,4.28-2.49,1.87,.5,2.98,2.41,2.49,4.28l-.13,.5c-.42,1.56-1.83,2.59-3.38,2.59Zm310.81-2.21c-1.54,0-2.96-1.03-3.38-2.59-.5-1.87,.6-3.79,2.47-4.29l.49-.13c1.87-.5,3.79,.6,4.29,2.47,.5,1.87-.6,3.79-2.47,4.29l-.49,.13c-.3,.08-.61,.12-.91,.12Zm20.88-5.59c-1.55,0-2.96-1.03-3.38-2.6-.5-1.87,.61-3.79,2.48-4.29l.49-.13c1.88-.5,3.79,.61,4.29,2.48,.5,1.87-.61,3.79-2.48,4.29l-.49,.13c-.3,.08-.61,.12-.91,.12Zm20.88-5.59c-1.55,0-2.96-1.03-3.38-2.6-.5-1.87,.61-3.79,2.48-4.29l.49-.13c1.87-.5,3.79,.61,4.29,2.48,.5,1.87-.61,3.79-2.48,4.29l-.49,.13c-.3,.08-.61,.12-.91,.12Zm20.88-5.59c-1.55,0-2.96-1.03-3.38-2.6-.5-1.87,.61-3.79,2.48-4.29l.49-.13c1.87-.5,3.79,.61,4.29,2.48,.5,1.87-.61,3.79-2.48,4.29l-.49,.13c-.3,.08-.61,.12-.91,.12Zm-367.83-1.96c-.3,0-.6-.04-.91-.12-1.87-.5-2.98-2.42-2.47-4.29l.13-.48c.5-1.87,2.41-2.98,4.28-2.48,1.87,.5,2.98,2.42,2.48,4.28l-.13,.49c-.42,1.56-1.83,2.59-3.38,2.59Zm388.71-3.64c-1.55,0-2.96-1.03-3.38-2.6-.5-1.87,.61-3.79,2.48-4.29l.48-.13c1.88-.5,3.79,.61,4.29,2.48,.5,1.87-.61,3.79-2.48,4.29l-.49,.13c-.3,.08-.61,.12-.91,.12Zm20.88-5.59c-1.55,0-2.96-1.03-3.38-2.6-.5-1.87,.61-3.79,2.48-4.29l.49-.13c1.87-.5,3.79,.61,4.29,2.48,.5,1.87-.61,3.79-2.48,4.29l-.49,.13c-.3,.08-.61,.12-.91,.12Zm20.88-5.59c-1.55,0-2.96-1.03-3.38-2.6-.5-1.87,.61-3.79,2.48-4.29l.49-.13c1.87-.5,3.79,.61,4.29,2.48,.5,1.87-.61,3.79-2.48,4.29l-.49,.13c-.3,.08-.61,.12-.91,.12Zm20.88-5.59c-1.55,0-2.96-1.03-3.38-2.6-.5-1.87,.61-3.79,2.48-4.29l.49-.13c1.87-.5,3.79,.61,4.29,2.48,.5,1.87-.61,3.79-2.48,4.29l-.48,.13c-.3,.08-.61,.12-.91,.12Zm-445.73-.52c-.3,0-.6-.04-.91-.12-1.87-.5-2.98-2.42-2.47-4.29l.13-.48c.5-1.87,2.41-2.98,4.28-2.48,1.87,.5,2.98,2.42,2.48,4.28l-.13,.49c-.42,1.56-1.83,2.59-3.38,2.59Zm466.61-5.07c-1.55,0-2.96-1.03-3.38-2.6-.5-1.87,.61-3.79,2.48-4.29l.49-.13c1.87-.5,3.79,.61,4.29,2.48,.5,1.87-.61,3.79-2.48,4.29l-.48,.13c-.3,.08-.61,.12-.91,.12Zm-13.45-14.93c-.9,0-1.79-.34-2.47-1.03l-.36-.36c-1.37-1.37-1.37-3.58,0-4.95,1.37-1.37,3.58-1.37,4.95,0l.36,.36c1.37,1.37,1.37,3.58,0,4.95-.68,.68-1.58,1.03-2.47,1.03Zm-447.56-.93c-.3,0-.6-.04-.91-.12-1.87-.5-2.98-2.42-2.47-4.29l.13-.48c.5-1.87,2.42-2.98,4.28-2.48,1.87,.5,2.98,2.42,2.48,4.28l-.13,.49c-.42,1.56-1.83,2.59-3.38,2.59Zm432.19-14.44c-.9,0-1.79-.34-2.47-1.03l-.36-.36c-1.37-1.37-1.37-3.58,0-4.95,1.37-1.37,3.58-1.37,4.95,0l.36,.36c1.37,1.37,1.37,3.58,0,4.95-.68,.68-1.58,1.03-2.47,1.03Zm-426.58-6.49c-.3,0-.6-.04-.91-.12-1.87-.5-2.98-2.42-2.47-4.29l.13-.48c.5-1.87,2.41-2.98,4.28-2.48,1.87,.5,2.98,2.42,2.48,4.28l-.13,.49c-.42,1.56-1.83,2.59-3.38,2.59Zm411.24-8.87c-.9,0-1.79-.34-2.47-1.03l-.36-.36c-1.37-1.37-1.37-3.58,0-4.95,1.37-1.37,3.58-1.37,4.95,0l.36,.36c1.37,1.37,1.37,3.58,0,4.95-.68,.68-1.58,1.03-2.47,1.03Zm-405.63-12.07c-.3,0-.6-.04-.91-.12-1.87-.5-2.98-2.42-2.47-4.29l.13-.48c.5-1.87,2.42-2.98,4.28-2.48,1.87,.5,2.98,2.42,2.48,4.28l-.13,.49c-.42,1.56-1.83,2.59-3.38,2.59Zm390.29-3.28c-.9,0-1.79-.34-2.47-1.03l-.36-.36c-1.37-1.37-1.37-3.58,0-4.95,1.37-1.37,3.58-1.37,4.95,0l.36,.36c1.37,1.37,1.37,3.58,0,4.95-.68,.68-1.58,1.03-2.47,1.03Zm-15.33-15.34c-.9,0-1.79-.34-2.47-1.03l-.36-.36c-1.37-1.37-1.37-3.58,0-4.95,1.37-1.37,3.58-1.37,4.95,0l.36,.36c1.37,1.37,1.37,3.58,0,4.95-.68,.68-1.58,1.03-2.47,1.03Zm-369.35-2.32c-.3,0-.6-.04-.91-.12-1.87-.5-2.98-2.42-2.47-4.29l.13-.48c.5-1.87,2.41-2.98,4.28-2.48,1.87,.5,2.98,2.42,2.48,4.28l-.13,.49c-.42,1.56-1.83,2.59-3.38,2.59Zm354.02-13.01c-.9,0-1.79-.34-2.47-1.03l-.36-.36c-1.37-1.37-1.37-3.58,0-4.95,1.37-1.37,3.58-1.37,4.95,0l.36,.36c1.37,1.37,1.37,3.58,0,4.95-.68,.68-1.58,1.03-2.47,1.03Zm-348.41-7.91c-.3,0-.6-.04-.91-.12-1.87-.5-2.98-2.42-2.47-4.29l.13-.49c.5-1.87,2.42-2.97,4.29-2.47,1.87,.5,2.98,2.42,2.47,4.29l-.13,.49c-.42,1.56-1.83,2.59-3.38,2.59Zm333.09-7.41c-.9,0-1.79-.34-2.47-1.03l-.36-.36c-1.37-1.37-1.37-3.58,0-4.95,1.37-1.37,3.58-1.37,4.95,0l.36,.36c1.37,1.37,1.37,3.58,0,4.95-.68,.68-1.58,1.03-2.47,1.03Zm-327.48-13.53c-.3,0-.6-.04-.91-.12-1.87-.5-2.98-2.42-2.47-4.29l.13-.48c.5-1.87,2.42-2.97,4.28-2.48,1.87,.5,2.98,2.42,2.48,4.28l-.13,.49c-.42,1.56-1.83,2.59-3.38,2.59Zm312.15-1.79c-.9,0-1.79-.34-2.47-1.03l-.36-.36c-1.37-1.37-1.37-3.58,0-4.95,1.37-1.37,3.58-1.37,4.95,0l.36,.36c1.37,1.37,1.37,3.58,0,4.95-.68,.68-1.58,1.03-2.47,1.03Zm-30.64-30.64c-.9,0-1.79-.34-2.47-1.03l-.36-.36c-1.37-1.37-1.37-3.58,0-4.95,1.37-1.37,3.58-1.37,4.95,0l.36,.36c1.37,1.37,1.37,3.58,0,4.95-.68,.68-1.58,1.03-2.47,1.03Zm-270.29-9.42c-.3,0-.6-.04-.91-.12-1.87-.5-2.98-2.42-2.47-4.29l.13-.48c.5-1.87,2.41-2.98,4.28-2.48,1.87,.5,2.98,2.42,2.48,4.28l-.13,.49c-.42,1.56-1.83,2.59-3.38,2.59Zm254.97-5.9c-.9,0-1.79-.34-2.47-1.03l-.36-.36c-1.37-1.37-1.37-3.58,0-4.95,1.37-1.37,3.58-1.37,4.95,0l.36,.36c1.37,1.37,1.37,3.58,0,4.95-.68,.68-1.58,1.03-2.47,1.03Zm-249.37-15.03c-.3,0-.6-.04-.91-.12-1.87-.5-2.98-2.42-2.47-4.29l.13-.49c.5-1.87,2.43-2.97,4.29-2.47,1.87,.5,2.97,2.42,2.47,4.29l-.13,.48c-.42,1.56-1.83,2.59-3.38,2.59Zm234.05-.29c-.9,0-1.79-.34-2.47-1.03l-.36-.36c-1.37-1.37-1.37-3.58,0-4.95,1.37-1.37,3.58-1.37,4.95,0l.36,.36c1.37,1.37,1.37,3.58,0,4.95-.68,.68-1.58,1.03-2.47,1.03Zm-15.33-15.33c-.9,0-1.79-.34-2.47-1.03l-.36-.36c-1.37-1.37-1.37-3.58,0-4.95,1.37-1.37,3.58-1.37,4.95,0l.36,.36c1.37,1.37,1.37,3.58,0,4.95-.68,.68-1.58,1.03-2.47,1.03Zm-213.11-5.31c-.3,0-.6-.04-.91-.12-1.87-.5-2.98-2.42-2.47-4.29l.13-.49c.5-1.87,2.42-2.98,4.29-2.47,1.87,.5,2.97,2.42,2.47,4.29l-.13,.48c-.42,1.56-1.83,2.59-3.38,2.59Zm197.79-10.01c-.9,0-1.79-.34-2.47-1.03l-.36-.36c-1.37-1.37-1.37-3.58,0-4.95,1.37-1.37,3.58-1.37,4.95,0l.36,.36c1.37,1.37,1.37,3.58,0,4.95-.68,.68-1.58,1.03-2.47,1.03Zm-192.18-10.93c-.3,0-.6-.04-.91-.12-1.87-.5-2.98-2.42-2.47-4.29l.13-.49c.5-1.87,2.42-2.97,4.29-2.47,1.87,.5,2.97,2.42,2.47,4.29l-.13,.48c-.42,1.56-1.83,2.59-3.38,2.59Zm176.85-4.39c-.9,0-1.79-.34-2.47-1.03l-.36-.36c-1.37-1.37-1.37-3.58,0-4.95,1.37-1.37,3.58-1.37,4.95,0l.36,.36c1.37,1.37,1.37,3.58,0,4.95-.68,.68-1.58,1.03-2.47,1.03Zm-15.32-15.32c-.9,0-1.79-.34-2.47-1.03l-.36-.36c-1.37-1.37-1.37-3.58,0-4.95,1.37-1.37,3.58-1.37,4.95,0l.36,.36c1.37,1.37,1.37,3.58,0,4.95-.68,.68-1.58,1.03-2.47,1.03Zm-155.92-1.22c-.3,0-.6-.04-.91-.12-1.87-.5-2.98-2.42-2.47-4.29l.13-.49c.5-1.87,2.42-2.97,4.29-2.47,1.87,.5,2.98,2.42,2.47,4.29l-.13,.49c-.42,1.56-1.83,2.59-3.38,2.59Zm140.6-14.1c-.9,0-1.79-.34-2.47-1.03l-.36-.36c-1.37-1.37-1.37-3.58,0-4.95,1.37-1.37,3.58-1.37,4.95,0l.36,.36c1.37,1.37,1.37,3.58,0,4.95-.68,.68-1.58,1.03-2.47,1.03Zm-134.98-6.84c-.3,0-.6-.04-.91-.12-1.87-.5-2.98-2.42-2.47-4.29l.13-.49c.5-1.87,2.42-2.98,4.29-2.47,1.87,.5,2.98,2.42,2.47,4.29l-.13,.49c-.42,1.56-1.83,2.59-3.38,2.59Zm119.66-8.48c-.9,0-1.8-.35-2.48-1.04l-.34-.34c-1.37-1.36-1.37-3.58-.01-4.95,1.37-1.37,3.58-1.37,4.95,0l.37,.37c1.36,1.37,1.35,3.59-.02,4.95-.68,.68-1.57,1.01-2.46,1.01Zm-114.04-12.46c-.3,0-.6-.04-.91-.12-1.87-.5-2.98-2.42-2.47-4.29l.13-.49c.5-1.87,2.42-2.98,4.29-2.47,1.87,.5,2.97,2.42,2.47,4.29l-.13,.48c-.42,1.56-1.83,2.59-3.38,2.59Zm98.71-2.86c-.9,0-1.8-.34-2.48-1.03l-.35-.35c-1.37-1.36-1.37-3.58-.01-4.95,1.37-1.37,3.58-1.37,4.95-.01l.37,.37c1.36,1.37,1.36,3.59-.01,4.95-.68,.68-1.58,1.02-2.47,1.02Zm-15.34-15.33c-.9,0-1.8-.34-2.48-1.03l-.35-.35c-1.37-1.37-1.37-3.58,0-4.95,1.37-1.37,3.58-1.37,4.95,0l.36,.36c1.36,1.37,1.36,3.59-.01,4.95-.68,.68-1.58,1.02-2.47,1.02Zm-77.75-2.76c-.3,0-.6-.04-.91-.12-1.87-.5-2.98-2.42-2.47-4.29l.13-.49c.5-1.87,2.42-2.97,4.29-2.47,1.87,.5,2.97,2.42,2.47,4.29l-.13,.48c-.42,1.56-1.83,2.59-3.38,2.59Zm62.41-12.58c-.9,0-1.8-.34-2.48-1.03l-.35-.35c-1.37-1.37-1.37-3.58,0-4.95,1.37-1.37,3.58-1.37,4.95,0l.36,.36c1.36,1.37,1.36,3.59-.01,4.95-.68,.68-1.58,1.02-2.47,1.02Zm-56.79-8.39c-.3,0-.6-.04-.91-.12-1.87-.5-2.98-2.42-2.47-4.29l.13-.49c.5-1.87,2.42-2.97,4.29-2.47,1.87,.5,2.98,2.42,2.47,4.29l-.13,.49c-.42,1.56-1.83,2.59-3.38,2.59Zm41.44-6.96c-.9,0-1.8-.34-2.48-1.03l-.35-.35c-1.37-1.37-1.37-3.58,0-4.95,1.37-1.37,3.58-1.37,4.95,0l.36,.36c1.36,1.37,1.36,3.59-.01,4.95-.68,.68-1.58,1.02-2.47,1.02Zm-35.8-14.04c-.3,0-.61-.04-.91-.12-1.87-.5-2.97-2.42-2.47-4.29l.13-.48c.5-1.87,2.41-2.98,4.28-2.48,1.87,.5,2.98,2.42,2.48,4.28l-.13,.5c-.42,1.56-1.83,2.59-3.38,2.59Zm20.43-1.33c-.9,0-1.79-.34-2.48-1.03l-.36-.36c-1.37-1.37-1.37-3.58,0-4.95,1.37-1.37,3.58-1.37,4.95,0l.36,.36c1.37,1.37,1.37,3.58,0,4.95-.68,.68-1.58,1.03-2.47,1.03Zm-15.44-15.44c-.9,0-1.79-.34-2.48-1.03-.62-.62-1.4-1.4-1.4-2.85,0-1.93,1.57-3.5,3.5-3.5,.99,0,1.89,.41,2.52,1.07l.33,.33c1.37,1.37,1.37,3.58,0,4.95-.68,.68-1.58,1.03-2.47,1.03Zm3.13-3.88h0Z"/><path d="M323.6,1208.52c-.9,0-1.79-.34-2.48-1.03-1.37-1.37-1.37-3.58,0-4.95l.36-.36c1.37-1.37,3.58-1.37,4.95,0,1.37,1.37,1.37,3.58,0,4.95l-.36,.36c-.68,.68-1.58,1.03-2.47,1.03Zm15.28-15.28c-.9,0-1.79-.34-2.47-1.03-1.37-1.37-1.37-3.58,0-4.95l.36-.36c1.37-1.37,3.58-1.37,4.95,0,1.37,1.37,1.37,3.58,0,4.95l-.36,.36c-.68,.68-1.58,1.03-2.48,1.03Zm-21.13-4.19c-1.54,0-2.95-1.03-3.38-2.58l-.13-.49c-.5-1.87,.6-3.79,2.47-4.29,1.87-.5,3.79,.6,4.29,2.47l.13,.48c.51,1.87-.6,3.79-2.46,4.29-.31,.08-.62,.12-.92,.12Zm36.42-11.1c-.9,0-1.79-.34-2.48-1.03-1.37-1.37-1.37-3.58,0-4.95l.36-.36c1.37-1.37,3.58-1.37,4.95,0,1.37,1.37,1.37,3.58,0,4.95l-.36,.36c-.68,.68-1.58,1.03-2.48,1.03Zm-42.05-9.89c-1.55,0-2.97-1.04-3.38-2.6l-.13-.48c-.5-1.87,.61-3.79,2.47-4.29,1.87-.5,3.79,.61,4.29,2.47l.13,.5c.5,1.87-.62,3.78-2.49,4.28-.3,.08-.6,.12-.9,.12Zm57.34-5.39c-.9,0-1.79-.34-2.47-1.03-1.37-1.37-1.37-3.58,0-4.95l.36-.36c1.37-1.37,3.58-1.37,4.95,0,1.37,1.37,1.37,3.58,0,4.95l-.36,.36c-.68,.68-1.58,1.03-2.48,1.03Zm15.28-15.28c-.9,0-1.79-.34-2.48-1.03-1.37-1.37-1.37-3.58,0-4.95l.36-.36c1.37-1.37,3.58-1.37,4.95,0,1.37,1.37,1.37,3.58,0,4.95l-.36,.36c-.68,.68-1.58,1.03-2.48,1.03Zm-78.24-.3c-1.54,0-2.96-1.03-3.38-2.59l-.13-.49c-.5-1.87,.61-3.79,2.47-4.29,1.87-.49,3.79,.61,4.29,2.47l.13,.48c.5,1.87-.6,3.79-2.47,4.29-.31,.08-.61,.12-.91,.12Zm93.53-14.99c-.9,0-1.79-.34-2.48-1.03-1.37-1.37-1.37-3.58,0-4.95l.36-.36c1.37-1.37,3.58-1.37,4.95,0,1.37,1.37,1.37,3.58,0,4.95l-.36,.36c-.68,.68-1.58,1.03-2.48,1.03Zm-99.15-5.97c-1.54,0-2.96-1.03-3.38-2.59l-.13-.49c-.5-1.87,.61-3.79,2.47-4.29,1.87-.5,3.79,.61,4.29,2.47l.13,.48c.5,1.87-.6,3.79-2.47,4.29-.31,.08-.61,.12-.91,.12Zm114.43-9.31c-.9,0-1.79-.34-2.47-1.03-1.37-1.37-1.37-3.58,0-4.95l.36-.36c1.37-1.37,3.58-1.37,4.95,0,1.37,1.37,1.37,3.58,0,4.95l-.36,.36c-.68,.68-1.58,1.03-2.47,1.03Zm-120.04-11.63c-1.55,0-2.96-1.03-3.38-2.59l-.13-.49c-.5-1.87,.61-3.79,2.47-4.29,1.87-.5,3.79,.61,4.29,2.47l.13,.49c.5,1.87-.61,3.79-2.47,4.29-.3,.08-.61,.12-.91,.12Zm135.33-3.65c-.9,0-1.79-.34-2.47-1.03-1.37-1.37-1.37-3.58,0-4.95l.36-.36c1.37-1.37,3.58-1.37,4.95,0,1.37,1.37,1.37,3.58,0,4.95l-.36,.36c-.68,.68-1.58,1.03-2.47,1.03Zm15.28-15.28c-.9,0-1.79-.34-2.47-1.03-1.37-1.37-1.37-3.58,0-4.95l.36-.36c1.37-1.37,3.58-1.37,4.95,0,1.37,1.37,1.37,3.58,0,4.95l-.36,.36c-.68,.68-1.58,1.03-2.47,1.03Zm-156.22-2.01c-1.54,0-2.96-1.03-3.38-2.59l-.13-.49c-.5-1.87,.61-3.79,2.47-4.29,1.86-.5,3.79,.61,4.29,2.47l.13,.49c.5,1.87-.61,3.79-2.47,4.29-.3,.08-.61,.12-.91,.12Zm171.51-13.28c-.9,0-1.79-.34-2.47-1.03-1.37-1.37-1.37-3.58,0-4.95l.36-.36c1.37-1.37,3.58-1.37,4.95,0,1.37,1.37,1.37,3.58,0,4.95l-.36,.36c-.68,.68-1.58,1.03-2.47,1.03Zm-177.12-7.66c-1.54,0-2.96-1.03-3.38-2.59l-.13-.49c-.5-1.87,.61-3.79,2.47-4.29,1.87-.5,3.79,.61,4.29,2.47l.13,.48c.5,1.87-.6,3.79-2.47,4.29-.31,.08-.61,.12-.91,.12Zm192.4-7.62c-.9,0-1.79-.34-2.47-1.03-1.37-1.37-1.37-3.58,0-4.95l.36-.36c1.37-1.37,3.58-1.37,4.95,0,1.37,1.37,1.37,3.58,0,4.95l-.36,.36c-.68,.68-1.58,1.03-2.47,1.03Zm-198.01-13.31c-1.54,0-2.96-1.03-3.38-2.59l-.13-.49c-.5-1.87,.61-3.79,2.47-4.29,1.87-.5,3.79,.61,4.29,2.47l.13,.48c.5,1.87-.6,3.79-2.47,4.29-.31,.08-.61,.12-.91,.12Zm213.29-1.97c-.9,0-1.79-.34-2.47-1.03-1.37-1.37-1.37-3.58,0-4.95l.36-.36c1.37-1.37,3.58-1.37,4.95,0,1.37,1.37,1.37,3.58,0,4.95l-.36,.36c-.68,.68-1.58,1.03-2.47,1.03Zm15.28-15.28c-.9,0-1.79-.34-2.47-1.03-1.37-1.37-1.37-3.58,0-4.95l.36-.36c1.37-1.37,3.58-1.37,4.95,0,1.37,1.37,1.37,3.58,0,4.95l-.36,.36c-.68,.68-1.58,1.03-2.47,1.03Zm-234.19-3.67c-1.55,0-2.96-1.03-3.38-2.6l-.13-.48c-.5-1.87,.61-3.79,2.47-4.29,1.86-.5,3.79,.61,4.29,2.47l.13,.49c.5,1.87-.61,3.79-2.48,4.28-.3,.08-.61,.12-.9,.12Zm249.47-11.61c-.9,0-1.79-.34-2.47-1.03-1.37-1.37-1.37-3.58,0-4.95l.36-.36c1.37-1.37,3.58-1.37,4.95,0,1.37,1.37,1.37,3.58,0,4.95l-.36,.36c-.68,.68-1.58,1.03-2.47,1.03Zm-255.08-9.32c-1.55,0-2.96-1.03-3.38-2.6l-.13-.48c-.5-1.87,.61-3.79,2.47-4.29,1.86-.5,3.79,.61,4.29,2.47l.13,.49c.5,1.87-.61,3.79-2.48,4.28-.3,.08-.61,.12-.9,.12Zm270.36-5.97c-.9,0-1.79-.34-2.47-1.03-1.37-1.37-1.37-3.58,0-4.95l.36-.36c1.37-1.37,3.58-1.37,4.95,0,1.37,1.37,1.37,3.58,0,4.95l-.36,.36c-.68,.68-1.58,1.03-2.47,1.03Zm-275.97-14.96c-1.55,0-2.96-1.03-3.38-2.6l-.13-.48c-.5-1.87,.61-3.79,2.47-4.29,1.87-.5,3.79,.61,4.29,2.47l.13,.49c.5,1.87-.61,3.79-2.48,4.28-.3,.08-.61,.12-.9,.12Zm291.25-.32c-.9,0-1.79-.34-2.47-1.03-1.37-1.37-1.37-3.58,0-4.95l.36-.36c1.37-1.37,3.58-1.37,4.95,0,1.37,1.37,1.37,3.58,0,4.95l-.36,.36c-.68,.68-1.58,1.03-2.47,1.03Zm15.28-15.28c-.9,0-1.79-.34-2.47-1.03-1.37-1.37-1.37-3.58,0-4.95l.36-.36c1.37-1.37,3.58-1.37,4.95,0,1.37,1.37,1.37,3.58,0,4.95l-.36,.36c-.68,.68-1.58,1.03-2.47,1.03Zm-312.14-5.32c-1.55,0-2.96-1.03-3.38-2.6l-.13-.48c-.5-1.87,.61-3.79,2.47-4.29,1.87-.5,3.79,.61,4.29,2.47l.13,.49c.5,1.87-.61,3.79-2.48,4.28-.3,.08-.61,.12-.9,.12Zm327.43-9.96c-.9,0-1.79-.34-2.47-1.03-1.37-1.37-1.37-3.58,0-4.95l.36-.36c1.37-1.37,3.58-1.37,4.95,0,1.37,1.37,1.37,3.58,0,4.95l-.36,.36c-.68,.68-1.58,1.03-2.47,1.03Zm-333.04-10.98c-1.54,0-2.96-1.03-3.38-2.59l-.13-.49c-.5-1.87,.61-3.79,2.47-4.29,1.86-.5,3.79,.61,4.29,2.47l.13,.49c.5,1.87-.61,3.79-2.47,4.29-.3,.08-.61,.12-.91,.12Zm348.32-4.31c-.9,0-1.79-.34-2.47-1.03-1.37-1.37-1.37-3.58,0-4.95l.36-.36c1.37-1.37,3.58-1.37,4.95,0,1.37,1.37,1.37,3.58,0,4.95l-.36,.36c-.68,.68-1.58,1.03-2.47,1.03Zm15.28-15.28c-.9,0-1.79-.34-2.48-1.03-1.36-1.37-1.36-3.58,0-4.95l.36-.35c1.37-1.36,3.58-1.36,4.95,0,1.36,1.37,1.36,3.58,0,4.95l-.36,.35c-.68,.68-1.58,1.02-2.47,1.02Zm-369.21-1.34c-1.55,0-2.96-1.03-3.38-2.6l-.13-.48c-.5-1.87,.61-3.79,2.47-4.29,1.87-.5,3.79,.61,4.29,2.47l.13,.49c.5,1.87-.61,3.79-2.48,4.28-.3,.08-.61,.12-.9,.12Zm384.5-13.94c-.9,0-1.79-.34-2.47-1.03-1.37-1.37-1.37-3.58,0-4.95l.36-.36c1.37-1.37,3.58-1.37,4.95,0,1.37,1.37,1.37,3.58,0,4.95l-.36,.36c-.68,.68-1.58,1.03-2.47,1.03Zm-390.1-6.99c-1.55,0-2.96-1.03-3.38-2.6l-.13-.48c-.5-1.87,.61-3.79,2.47-4.29,1.87-.5,3.79,.61,4.29,2.47l.13,.49c.5,1.87-.61,3.79-2.48,4.28-.3,.08-.61,.12-.9,.12Zm405.39-8.3c-.9,0-1.79-.34-2.47-1.03-1.37-1.37-1.37-3.58,0-4.95l.36-.36c1.37-1.37,3.58-1.37,4.95,0,1.37,1.37,1.37,3.58,0,4.95l-.36,.36c-.68,.68-1.58,1.03-2.47,1.03Zm-410.99-12.63c-1.55,0-2.96-1.03-3.38-2.6l-.13-.48c-.5-1.87,.61-3.79,2.47-4.29,1.86-.5,3.79,.61,4.29,2.47l.13,.49c.5,1.87-.61,3.79-2.48,4.28-.3,.08-.61,.12-.9,.12Zm426.28-2.65c-.9,0-1.79-.34-2.47-1.03-1.37-1.37-1.37-3.58,0-4.95l.36-.36c1.37-1.37,3.58-1.37,4.95,0,1.37,1.37,1.37,3.58,0,4.95l-.36,.36c-.68,.68-1.58,1.03-2.47,1.03Zm15.28-15.28c-.9,0-1.79-.34-2.47-1.03-1.37-1.37-1.37-3.58,0-4.95l.36-.36c1.37-1.37,3.58-1.37,4.95,0,1.37,1.37,1.37,3.58,0,4.95l-.36,.36c-.68,.68-1.58,1.03-2.47,1.03Zm-447.17-3c-1.55,0-2.96-1.03-3.38-2.6l-.13-.48c-.5-1.87,.61-3.79,2.47-4.29,1.86-.5,3.79,.61,4.29,2.47l.13,.49c.5,1.87-.61,3.79-2.48,4.28-.3,.08-.61,.12-.9,.12Zm459.4-13.19c-.96,0-1.92-.39-2.61-1.17-1.47-1.23-1.68-3.41-.47-4.89,1.22-1.5,3.42-1.72,4.92-.5,.28,.23,.54,.48,.78,.76,1.27,1.46,1.13,3.67-.33,4.94-.66,.58-1.49,.87-2.3,.87Zm-465.01-7.75c-1.55,0-2.96-1.03-3.38-2.6l-.13-.48c-.5-1.87,.61-3.79,2.47-4.29,1.86-.5,3.79,.61,4.29,2.47l.13,.49c.5,1.87-.61,3.79-2.48,4.28-.3,.08-.61,.12-.9,.12Zm423.13-3.99c-.3,0-.6-.04-.9-.12l-.5-.13c-1.87-.51-2.97-2.43-2.46-4.29,.51-1.87,2.43-2.97,4.29-2.46l.47,.13c1.87,.5,2.98,2.42,2.48,4.28-.42,1.57-1.83,2.6-3.38,2.6Zm-20.97-5.62c-.3,0-.6-.04-.9-.12l-.51-.13c-1.87-.51-2.97-2.43-2.46-4.29,.51-1.86,2.42-2.97,4.29-2.46l.47,.12c1.87,.5,2.98,2.41,2.49,4.28-.42,1.57-1.83,2.6-3.38,2.6Zm-20.96-5.62c-.3,0-.6-.04-.9-.12l-.51-.13c-1.87-.51-2.97-2.43-2.46-4.29,.51-1.86,2.43-2.96,4.29-2.46l.47,.12c1.87,.5,2.98,2.41,2.49,4.28-.42,1.57-1.83,2.6-3.38,2.6Zm-20.95-5.62c-.3,0-.6-.04-.9-.12l-.51-.14c-1.87-.51-2.96-2.43-2.46-4.3s2.43-2.96,4.3-2.46l.46,.12c1.87,.5,2.98,2.41,2.49,4.28-.42,1.57-1.83,2.6-3.38,2.6Zm-365.86-.09c-1.55,0-2.96-1.03-3.38-2.6l-.13-.48c-.5-1.87,.61-3.79,2.47-4.29,1.87-.5,3.79,.61,4.29,2.47l.13,.49c.5,1.87-.61,3.79-2.48,4.28-.3,.08-.61,.12-.9,.12Zm344.92-5.52c-.3,0-.6-.04-.9-.12l-.51-.14c-1.87-.51-2.96-2.43-2.46-4.3s2.43-2.97,4.3-2.46l.46,.12c1.87,.5,2.98,2.41,2.49,4.28-.42,1.57-1.83,2.6-3.38,2.6Zm-20.94-5.61c-.3,0-.6-.04-.9-.12l-.51-.14c-1.87-.51-2.96-2.43-2.46-4.3s2.43-2.96,4.3-2.46l.46,.12c1.87,.5,2.98,2.41,2.49,4.28-.42,1.57-1.83,2.6-3.38,2.6Zm-20.93-5.61c-.3,0-.6-.04-.9-.12l-.51-.14c-1.87-.51-2.96-2.43-2.46-4.3s2.43-2.97,4.3-2.46l.46,.12c1.87,.5,2.98,2.41,2.49,4.28-.42,1.57-1.83,2.6-3.38,2.6Zm-308.66-4.21c-1.55,0-2.97-1.04-3.38-2.6l-.13-.48c-.5-1.87,.61-3.79,2.47-4.29,1.87-.5,3.79,.61,4.29,2.47l.13,.5c.5,1.87-.62,3.78-2.49,4.28-.3,.08-.6,.12-.9,.12Zm287.73-1.4c-.3,0-.6-.04-.9-.12l-.51-.14c-1.87-.51-2.96-2.43-2.46-4.3s2.43-2.96,4.3-2.46l.46,.12c1.87,.5,2.98,2.41,2.49,4.28-.42,1.57-1.83,2.6-3.38,2.6Zm-20.93-5.61c-.3,0-.6-.04-.9-.12l-.51-.14c-1.87-.51-2.96-2.43-2.46-4.3s2.43-2.97,4.3-2.46l.46,.12c1.87,.5,2.98,2.41,2.49,4.28-.42,1.57-1.83,2.6-3.38,2.6Zm-20.93-5.61c-.3,0-.6-.04-.9-.12l-.51-.13c-1.87-.51-2.97-2.43-2.46-4.29,.51-1.86,2.43-2.97,4.29-2.46l.47,.12c1.87,.5,2.98,2.41,2.49,4.28-.42,1.57-1.83,2.6-3.38,2.6Zm-20.94-5.61c-.3,0-.6-.04-.9-.12l-.51-.14c-1.87-.51-2.96-2.43-2.46-4.3,.51-1.87,2.43-2.97,4.3-2.46l.46,.12c1.87,.5,2.98,2.41,2.49,4.28-.42,1.57-1.83,2.6-3.38,2.6Zm-230.54-2.72c-1.55,0-2.97-1.04-3.38-2.6l-.13-.48c-.5-1.87,.61-3.79,2.47-4.29,1.87-.5,3.79,.61,4.29,2.47l.13,.5c.5,1.87-.62,3.78-2.49,4.28-.3,.08-.6,.12-.9,.12Zm209.62-2.89c-.3,0-.6-.04-.9-.12l-.51-.14c-1.87-.51-2.96-2.43-2.46-4.3,.51-1.87,2.43-2.96,4.3-2.46l.46,.12c1.87,.5,2.98,2.41,2.49,4.28-.42,1.57-1.83,2.6-3.38,2.6Zm-20.93-5.61c-.3,0-.6-.04-.9-.12l-.5-.13c-1.87-.51-2.97-2.43-2.46-4.29,.51-1.87,2.43-2.97,4.29-2.46l.47,.12c1.87,.5,2.98,2.41,2.49,4.28-.42,1.57-1.83,2.6-3.38,2.6Zm-20.93-5.61c-.3,0-.6-.04-.9-.12l-.51-.14c-1.87-.51-2.97-2.43-2.46-4.29,.51-1.87,2.43-2.97,4.3-2.46l.46,.12c1.87,.5,2.98,2.41,2.49,4.28-.42,1.57-1.83,2.6-3.38,2.6Zm-20.93-5.61c-.3,0-.6-.04-.9-.12l-.51-.14c-1.87-.51-2.97-2.43-2.46-4.29,.51-1.87,2.43-2.97,4.3-2.46l.46,.12c1.87,.5,2.98,2.41,2.49,4.28-.42,1.57-1.83,2.6-3.38,2.6Zm-152.45-1.26c-1.55,0-2.96-1.03-3.38-2.59l-.13-.48c-.5-1.87,.6-3.79,2.47-4.29,1.87-.51,3.79,.6,4.29,2.47l.13,.49c.5,1.87-.61,3.79-2.47,4.29-.3,.08-.61,.12-.91,.12Zm131.51-4.35c-.3,0-.6-.04-.9-.12l-.51-.14c-1.87-.51-2.97-2.43-2.46-4.29,.51-1.87,2.43-2.97,4.3-2.46l.46,.12c1.87,.5,2.98,2.41,2.49,4.28-.42,1.57-1.83,2.6-3.38,2.6Zm-20.94-5.61c-.3,0-.6-.04-.9-.12l-.51-.14c-1.86-.51-2.96-2.43-2.46-4.3,.51-1.86,2.43-2.97,4.3-2.46l.46,.12c1.87,.5,2.98,2.41,2.49,4.28-.42,1.57-1.83,2.6-3.38,2.6Zm-20.94-5.61c-.3,0-.6-.04-.9-.12l-.51-.14c-1.86-.51-2.96-2.43-2.46-4.3,.51-1.86,2.43-2.97,4.3-2.46l.46,.12c1.87,.5,2.98,2.41,2.49,4.28-.42,1.57-1.83,2.6-3.38,2.6Zm-95.26-5.42c-1.55,0-2.96-1.03-3.38-2.6l-.13-.49c-.5-1.87,.61-3.79,2.48-4.28,1.87-.49,3.79,.61,4.28,2.48l.13,.49c.5,1.87-.61,3.79-2.48,4.28-.3,.08-.61,.12-.9,.12Zm74.31-.19c-.3,0-.6-.04-.9-.12l-.51-.14c-1.87-.51-2.97-2.43-2.46-4.29,.51-1.87,2.43-2.97,4.3-2.46l.46,.12c1.87,.5,2.98,2.41,2.49,4.28-.42,1.57-1.83,2.6-3.38,2.6Zm-20.96-5.61c-.3,0-.6-.04-.9-.12l-.51-.14c-1.86-.51-2.96-2.43-2.46-4.3,.51-1.86,2.43-2.96,4.3-2.46l.46,.12c1.87,.5,2.98,2.41,2.49,4.28-.42,1.57-1.83,2.6-3.38,2.6Zm-20.98-5.62c-.3,0-.6-.04-.9-.12l-.51-.14c-1.86-.51-2.96-2.43-2.46-4.3,.51-1.87,2.43-2.96,4.3-2.46l.46,.12c1.87,.5,2.98,2.41,2.49,4.28-.42,1.57-1.83,2.6-3.38,2.6Zm-21-5.62c-.3,0-.61-.04-.91-.12l-.48-.13c-1.87-.5-2.98-2.42-2.48-4.29,.5-1.87,2.42-2.98,4.29-2.48l.49,.13c1.87,.5,2.97,2.42,2.47,4.29-.42,1.56-1.83,2.59-3.38,2.59Zm-17.03-4.06c-1.54,0-2.96-1.03-3.38-2.59l-.11-.42c-.09-.32-.15-.65-.15-1,0-1.93,1.57-3.5,3.5-3.5,1,0,2.79,.39,3.49,3l.03,.1c.5,1.87-.6,3.79-2.47,4.29-.31,.08-.61,.12-.92,.12Zm477.5,127.45c-.3,0-.6-.04-.9-.12l-.5-.13c-1.87-.51-2.97-2.43-2.46-4.29,.51-1.87,2.43-2.97,4.29-2.46l.47,.13c1.87,.5,2.98,2.42,2.48,4.28-.42,1.57-1.83,2.6-3.38,2.6Z"/><path d="M1074.32,1206.87c-.97,0-1.94-.4-2.63-1.2-1.26-1.44-1.13-3.64,.3-4.91,1.23-1.47,3.41-1.68,4.89-.47,1.5,1.22,1.72,3.42,.5,4.92-.23,.28-.48,.54-.76,.78-.66,.58-1.49,.87-2.3,.87Zm-15.83-11.88c-.9,0-1.79-.34-2.47-1.03l-.36-.36c-1.37-1.37-1.37-3.58,0-4.95,1.37-1.37,3.58-1.37,4.95,0l.36,.36c1.37,1.37,1.37,3.58,0,4.95-.68,.68-1.58,1.03-2.47,1.03Zm21.95-12.51h0Zm-37.23-2.77c-.9,0-1.79-.34-2.48-1.03l-.35-.36c-1.36-1.37-1.36-3.58,0-4.95,1.37-1.36,3.59-1.36,4.95,0l.35,.36c1.36,1.37,1.36,3.58,0,4.95-.68,.68-1.58,1.02-2.47,1.02Zm-15.28-15.28c-.9,0-1.79-.34-2.47-1.03l-.36-.36c-1.37-1.37-1.37-3.58,0-4.95,1.37-1.37,3.58-1.37,4.95,0l.36,.36c1.37,1.37,1.37,3.58,0,4.95-.68,.68-1.58,1.03-2.47,1.03Zm-15.28-15.28c-.9,0-1.79-.34-2.47-1.03l-.36-.36c-1.37-1.37-1.37-3.58,0-4.95,1.37-1.37,3.58-1.37,4.95,0l.36,.36c1.37,1.37,1.37,3.58,0,4.95-.68,.68-1.58,1.03-2.47,1.03Zm79.05-5.13c-.3,0-.6-.04-.9-.12-1.87-.5-2.98-2.42-2.48-4.28l.13-.5c.51-1.87,2.43-2.97,4.29-2.46,1.87,.51,2.97,2.43,2.46,4.29l-.13,.47c-.42,1.57-1.83,2.6-3.38,2.6Zm-94.33-10.16c-.9,0-1.79-.34-2.47-1.03l-.36-.36c-1.37-1.37-1.37-3.58,0-4.95,1.37-1.37,3.58-1.37,4.95,0l.36,.36c1.37,1.37,1.37,3.58,0,4.95-.68,.68-1.58,1.03-2.47,1.03Zm99.95-10.8c-.3,0-.6-.04-.9-.12-1.87-.5-2.98-2.41-2.49-4.28l.13-.51c.51-1.87,2.43-2.97,4.29-2.46,1.87,.51,2.97,2.43,2.46,4.29l-.12,.47c-.42,1.57-1.83,2.6-3.38,2.6Zm-115.23-4.48c-.9,0-1.79-.34-2.47-1.03l-.36-.36c-1.37-1.37-1.37-3.58,0-4.95,1.37-1.37,3.58-1.37,4.95,0l.36,.36c1.37,1.37,1.37,3.58,0,4.95-.68,.68-1.58,1.03-2.47,1.03Zm-15.28-15.28c-.89,0-1.79-.34-2.47-1.02l-.36-.35c-1.37-1.37-1.37-3.58,0-4.95,1.37-1.37,3.58-1.37,4.95,0l.36,.35c1.37,1.37,1.37,3.58,0,4.95-.68,.69-1.58,1.03-2.48,1.03Zm136.13-1.18c-.3,0-.6-.04-.9-.12-1.87-.5-2.98-2.41-2.49-4.28l.14-.51c.51-1.87,2.43-2.97,4.3-2.46,1.87,.51,2.96,2.43,2.46,4.3l-.12,.46c-.42,1.57-1.83,2.6-3.38,2.6Zm-151.42-14.1c-.9,0-1.79-.34-2.47-1.03l-.36-.36c-1.37-1.37-1.37-3.58,0-4.95,1.37-1.37,3.58-1.37,4.95,0l.36,.36c1.37,1.37,1.37,3.58,0,4.95-.68,.68-1.58,1.03-2.47,1.03Zm157.03-6.84c-.3,0-.6-.04-.9-.12-1.87-.5-2.98-2.41-2.49-4.28l.14-.51c.51-1.87,2.43-2.97,4.3-2.46,1.87,.51,2.96,2.43,2.46,4.3l-.12,.46c-.42,1.57-1.83,2.6-3.38,2.6Zm-172.31-8.45c-.9,0-1.79-.34-2.47-1.03l-.36-.36c-1.37-1.37-1.37-3.58,0-4.95,1.37-1.37,3.58-1.37,4.95,0l.36,.36c1.37,1.37,1.37,3.58,0,4.95-.68,.68-1.58,1.03-2.47,1.03Zm177.92-12.49c-.3,0-.6-.04-.9-.12-1.87-.5-2.98-2.41-2.49-4.28l.14-.51c.51-1.86,2.43-2.96,4.3-2.46,1.87,.51,2.96,2.43,2.46,4.3l-.12,.46c-.42,1.57-1.83,2.6-3.38,2.6Zm-193.21-2.79c-.9,0-1.79-.34-2.47-1.03l-.36-.36c-1.37-1.37-1.37-3.58,0-4.95,1.37-1.37,3.58-1.37,4.95,0l.36,.36c1.37,1.37,1.37,3.58,0,4.95-.68,.68-1.58,1.03-2.47,1.03Zm-15.28-15.28c-.9,0-1.79-.34-2.47-1.03l-.36-.36c-1.37-1.37-1.37-3.58,0-4.95,1.37-1.37,3.58-1.37,4.95,0l.36,.36c1.37,1.37,1.37,3.58,0,4.95-.68,.68-1.58,1.03-2.47,1.03Zm214.1-2.85c-.3,0-.6-.04-.9-.12-1.87-.5-2.98-2.41-2.49-4.28l.14-.51c.51-1.87,2.43-2.97,4.3-2.46,1.87,.51,2.96,2.43,2.46,4.3l-.12,.46c-.42,1.57-1.83,2.6-3.38,2.6Zm-229.39-12.43c-.9,0-1.79-.34-2.47-1.03l-.36-.36c-1.37-1.37-1.37-3.58,0-4.95,1.37-1.37,3.58-1.37,4.95,0l.36,.36c1.37,1.37,1.37,3.58,0,4.95-.68,.68-1.58,1.03-2.47,1.03Zm235-8.5c-.3,0-.6-.04-.9-.12-1.87-.5-2.98-2.41-2.49-4.28l.14-.51c.51-1.86,2.43-2.96,4.3-2.46,1.87,.51,2.96,2.43,2.46,4.3l-.12,.46c-.42,1.57-1.83,2.6-3.38,2.6Zm-250.28-6.78c-.9,0-1.79-.34-2.47-1.03l-.36-.36c-1.37-1.37-1.37-3.58,0-4.95,1.37-1.37,3.58-1.37,4.95,0l.36,.36c1.37,1.37,1.37,3.58,0,4.95-.68,.68-1.58,1.03-2.47,1.03Zm255.89-14.15c-.3,0-.6-.04-.9-.12-1.87-.5-2.98-2.41-2.49-4.28l.14-.51c.51-1.87,2.43-2.96,4.3-2.46,1.87,.51,2.96,2.43,2.46,4.3l-.12,.46c-.42,1.57-1.83,2.6-3.38,2.6Zm-271.17-1.14c-.9,0-1.79-.34-2.47-1.03l-.36-.36c-1.37-1.37-1.37-3.58,0-4.95,1.37-1.37,3.58-1.37,4.95,0l.36,.36c1.37,1.37,1.37,3.58,0,4.95-.68,.68-1.58,1.03-2.47,1.03Zm-15.28-15.28c-.89,0-1.79-.34-2.47-1.02l-.36-.35c-1.37-1.37-1.37-3.58,0-4.95,1.37-1.37,3.58-1.37,4.95,0l.36,.35c1.37,1.37,1.37,3.58,0,4.95-.68,.69-1.58,1.03-2.48,1.03Zm292.07-4.5c-.3,0-.6-.04-.9-.12-1.87-.5-2.98-2.41-2.49-4.28l.13-.51c.51-1.86,2.43-2.97,4.29-2.46,1.87,.51,2.97,2.43,2.46,4.29l-.12,.47c-.42,1.57-1.83,2.6-3.38,2.6Zm-307.35-10.78c-.9,0-1.79-.34-2.47-1.03l-.36-.36c-1.37-1.37-1.37-3.58,0-4.95,1.37-1.37,3.58-1.37,4.95,0l.36,.36c1.37,1.37,1.37,3.58,0,4.95-.68,.68-1.58,1.03-2.47,1.03Zm312.96-10.17c-.3,0-.6-.04-.9-.12-1.87-.5-2.98-2.41-2.49-4.28l.14-.51c.51-1.86,2.43-2.96,4.3-2.46,1.87,.51,2.96,2.43,2.46,4.3l-.12,.46c-.42,1.57-1.83,2.6-3.38,2.6Zm-328.25-5.12c-.9,0-1.79-.34-2.47-1.03l-.36-.36c-1.37-1.37-1.37-3.58,0-4.95,1.37-1.37,3.58-1.37,4.95,0l.36,.36c1.37,1.37,1.37,3.58,0,4.95-.68,.68-1.58,1.03-2.47,1.03Zm-15.28-15.28c-.9,0-1.79-.34-2.47-1.03l-.36-.36c-1.37-1.37-1.37-3.58,0-4.95,1.37-1.37,3.58-1.37,4.95,0l.36,.36c1.37,1.37,1.37,3.58,0,4.95-.68,.68-1.58,1.03-2.47,1.03Zm349.14-.52c-.3,0-.6-.04-.9-.12-1.87-.5-2.98-2.41-2.49-4.28l.14-.51c.51-1.87,2.43-2.97,4.3-2.46,1.87,.51,2.96,2.43,2.46,4.3l-.12,.46c-.42,1.57-1.83,2.6-3.38,2.6Zm-364.42-14.76c-.9,0-1.79-.34-2.47-1.03l-.36-.36c-1.37-1.37-1.37-3.58,0-4.95,1.37-1.37,3.58-1.37,4.95,0l.36,.36c1.37,1.37,1.37,3.58,0,4.95-.68,.68-1.58,1.03-2.47,1.03Zm370.03-6.17c-.3,0-.6-.04-.9-.12-1.87-.5-2.98-2.41-2.49-4.28l.14-.51c.51-1.86,2.43-2.96,4.3-2.46,1.87,.51,2.96,2.43,2.46,4.3l-.12,.46c-.42,1.57-1.83,2.6-3.38,2.6Zm-385.31-9.12c-.9,0-1.79-.34-2.47-1.03l-.36-.36c-1.37-1.37-1.37-3.58,0-4.95,1.37-1.37,3.58-1.37,4.95,0l.36,.36c1.37,1.37,1.37,3.58,0,4.95-.68,.68-1.58,1.03-2.47,1.03Zm390.92-11.81c-.3,0-.6-.04-.9-.12-1.87-.5-2.98-2.41-2.49-4.28l.14-.51c.51-1.87,2.43-2.96,4.3-2.46,1.87,.51,2.96,2.43,2.46,4.3l-.12,.46c-.42,1.57-1.83,2.6-3.38,2.6Zm-406.21-3.47c-.9,0-1.79-.34-2.47-1.03l-.36-.36c-1.37-1.37-1.37-3.58,0-4.95,1.37-1.37,3.58-1.37,4.95,0l.36,.36c1.37,1.37,1.37,3.58,0,4.95-.68,.68-1.58,1.03-2.47,1.03Zm-15.28-15.28c-.9,0-1.79-.34-2.47-1.03l-.36-.36c-1.37-1.37-1.37-3.58,0-4.95,1.37-1.37,3.58-1.37,4.95,0l.36,.36c1.37,1.37,1.37,3.58,0,4.95-.68,.68-1.58,1.03-2.47,1.03Zm427.1-2.18c-.3,0-.6-.04-.9-.12-1.87-.5-2.98-2.41-2.49-4.28l.14-.51c.51-1.87,2.43-2.97,4.3-2.46,1.87,.51,2.96,2.43,2.46,4.3l-.12,.46c-.42,1.57-1.83,2.6-3.38,2.6Zm-442.38-13.11c-.9,0-1.79-.34-2.47-1.03l-.36-.36c-1.37-1.37-1.37-3.58,0-4.95,1.37-1.37,3.58-1.37,4.95,0l.36,.36c1.37,1.37,1.37,3.58,0,4.95-.68,.68-1.58,1.03-2.47,1.03Zm447.99-7.83c-.3,0-.6-.04-.9-.12-1.87-.5-2.98-2.41-2.49-4.28l.14-.51c.51-1.87,2.43-2.97,4.3-2.46,1.87,.51,2.96,2.43,2.46,4.3l-.12,.46c-.42,1.57-1.83,2.6-3.38,2.6Zm-463.28-7.46c-.9,0-1.79-.34-2.47-1.03l-.36-.36c-1.37-1.37-1.37-3.58,0-4.95,1.37-1.37,3.58-1.37,4.95,0l.36,.36c1.37,1.37,1.37,3.58,0,4.95-.68,.68-1.58,1.03-2.47,1.03Zm40.11-11.84c-1.54,0-2.95-1.03-3.38-2.58-.51-1.87,.6-3.79,2.46-4.29l.49-.13c1.87-.5,3.79,.6,4.29,2.46,.51,1.87-.6,3.79-2.46,4.29l-.49,.13c-.31,.08-.62,.12-.92,.12Zm428.78-1.65c-.3,0-.6-.04-.9-.12-1.87-.5-2.98-2.41-2.49-4.28l.13-.51c.51-1.86,2.43-2.97,4.29-2.46,1.87,.51,2.97,2.43,2.46,4.29l-.12,.47c-.42,1.57-1.83,2.6-3.38,2.6Zm-407.81-3.98c-1.54,0-2.95-1.02-3.38-2.58-.51-1.87,.59-3.79,2.46-4.3l.49-.13c1.87-.51,3.79,.6,4.29,2.46,.51,1.87-.6,3.79-2.46,4.29l-.48,.13c-.31,.08-.62,.12-.92,.12Zm20.96-5.62c-1.54,0-2.95-1.02-3.38-2.58-.51-1.87,.59-3.79,2.46-4.3l.51-.14c1.86-.5,3.78,.62,4.28,2.49,.5,1.87-.62,3.78-2.49,4.28l-.46,.12c-.31,.08-.62,.12-.92,.12Zm20.95-5.62c-1.54,0-2.95-1.03-3.38-2.58-.51-1.87,.6-3.79,2.46-4.29l.51-.13c1.86-.5,3.78,.62,4.28,2.49,.5,1.87-.62,3.78-2.49,4.28l-.47,.12c-.31,.08-.62,.12-.92,.12Zm20.94-5.61c-1.54,0-2.95-1.03-3.38-2.58-.51-1.87,.6-3.79,2.46-4.29l.51-.13c1.86-.5,3.78,.62,4.28,2.49,.5,1.87-.62,3.78-2.49,4.28l-.47,.12c-.31,.08-.62,.12-.92,.12Zm350.57-.12c-.3,0-.6-.04-.9-.12-1.87-.5-2.98-2.41-2.49-4.28l.13-.51c.51-1.86,2.42-2.97,4.29-2.46,1.87,.51,2.97,2.43,2.46,4.29l-.12,.47c-.42,1.57-1.83,2.6-3.38,2.6Zm-329.64-5.49c-1.54,0-2.95-1.02-3.38-2.58-.51-1.87,.59-3.79,2.46-4.3l.51-.14c1.86-.5,3.78,.62,4.28,2.49,.5,1.87-.62,3.78-2.49,4.28l-.46,.12c-.31,.08-.62,.12-.92,.12Zm20.93-5.61c-1.54,0-2.95-1.02-3.38-2.58-.51-1.87,.59-3.79,2.46-4.3l.51-.14c1.86-.5,3.78,.62,4.28,2.49,.5,1.87-.62,3.78-2.49,4.28l-.46,.12c-.31,.08-.62,.12-.92,.12Zm20.93-5.61c-1.54,0-2.95-1.02-3.38-2.58-.51-1.87,.59-3.79,2.46-4.3l.51-.14c1.86-.5,3.78,.62,4.28,2.49,.5,1.87-.62,3.78-2.49,4.28l-.46,.12c-.31,.08-.62,.12-.92,.12Zm293.38-4.24c-.3,0-.6-.04-.9-.12-1.87-.5-2.98-2.41-2.49-4.28l.14-.51c.51-1.87,2.43-2.96,4.3-2.46,1.87,.51,2.96,2.43,2.46,4.3l-.12,.46c-.42,1.57-1.83,2.6-3.38,2.6Zm-272.46-1.37c-1.54,0-2.95-1.02-3.38-2.58-.51-1.87,.59-3.79,2.46-4.3l.51-.14c1.86-.5,3.78,.62,4.28,2.49,.5,1.87-.62,3.78-2.49,4.28l-.46,.12c-.31,.08-.62,.12-.92,.12Zm20.93-5.61c-1.54,0-2.95-1.02-3.38-2.58-.51-1.87,.59-3.79,2.46-4.3l.51-.14c1.86-.5,3.79,.62,4.28,2.49,.5,1.87-.62,3.78-2.49,4.28l-.46,.12c-.31,.08-.62,.12-.92,.12Zm20.93-5.61c-1.54,0-2.95-1.02-3.38-2.58-.51-1.87,.59-3.79,2.46-4.3l.51-.14c1.86-.5,3.78,.62,4.28,2.49,.5,1.87-.62,3.78-2.49,4.28l-.46,.12c-.31,.08-.62,.12-.92,.12Zm20.94-5.61c-1.54,0-2.95-1.03-3.38-2.58-.51-1.87,.6-3.79,2.46-4.29l.51-.13c1.86-.5,3.78,.62,4.28,2.49,.5,1.87-.62,3.78-2.49,4.28l-.47,.12c-.31,.08-.62,.12-.92,.12Zm215.27-2.77c-.3,0-.6-.04-.9-.12-1.87-.5-2.98-2.41-2.49-4.28l.14-.51c.51-1.87,2.43-2.97,4.3-2.46,1.87,.51,2.96,2.43,2.46,4.3l-.12,.46c-.42,1.57-1.83,2.6-3.38,2.6Zm-194.34-2.84c-1.54,0-2.95-1.02-3.38-2.58-.51-1.87,.59-3.79,2.46-4.3l.51-.14c1.86-.5,3.78,.62,4.28,2.49,.5,1.87-.62,3.78-2.49,4.28l-.46,.12c-.31,.08-.62,.12-.92,.12Zm20.93-5.61c-1.54,0-2.95-1.02-3.38-2.58-.51-1.87,.59-3.79,2.46-4.3l.51-.14c1.86-.5,3.79,.62,4.28,2.49,.5,1.87-.62,3.78-2.49,4.28l-.46,.12c-.31,.08-.62,.12-.92,.12Zm20.93-5.61c-1.54,0-2.95-1.02-3.38-2.58-.51-1.87,.59-3.79,2.46-4.3l.51-.14c1.86-.5,3.78,.62,4.28,2.49,.5,1.87-.62,3.78-2.49,4.28l-.46,.12c-.31,.08-.62,.12-.92,.12Zm20.93-5.61c-1.54,0-2.95-1.02-3.38-2.58-.51-1.87,.59-3.79,2.46-4.3l.51-.14c1.86-.5,3.78,.62,4.28,2.49,.5,1.87-.62,3.78-2.49,4.28l-.46,.12c-.31,.08-.62,.12-.92,.12Zm137.16-1.32c-.3,0-.6-.04-.9-.12-1.87-.5-2.98-2.41-2.49-4.28l.13-.51c.51-1.87,2.43-2.97,4.29-2.46,1.87,.51,2.97,2.43,2.46,4.29l-.12,.47c-.42,1.57-1.83,2.6-3.38,2.6Zm-116.23-4.29c-1.54,0-2.95-1.02-3.38-2.58-.51-1.87,.59-3.79,2.46-4.3l.51-.14c1.86-.5,3.78,.62,4.28,2.49,.5,1.87-.62,3.78-2.49,4.28l-.46,.12c-.31,.08-.62,.12-.92,.12Zm20.94-5.61c-1.54,0-2.95-1.02-3.38-2.58-.51-1.87,.59-3.79,2.46-4.3l.51-.14c1.86-.5,3.78,.62,4.28,2.49,.5,1.87-.62,3.78-2.49,4.28l-.46,.12c-.31,.08-.62,.12-.92,.12Zm20.95-5.61c-1.54,0-2.95-1.03-3.38-2.58-.51-1.87,.6-3.79,2.46-4.29l.51-.13c1.86-.5,3.78,.62,4.28,2.49,.5,1.87-.62,3.78-2.49,4.28l-.47,.12c-.31,.08-.62,.12-.92,.12Zm79.96-5.49c-.3,0-.61-.04-.91-.12-1.87-.5-2.97-2.42-2.47-4.29l.13-.48c.5-1.87,2.41-2.98,4.28-2.48,1.87,.5,2.98,2.42,2.48,4.28l-.13,.5c-.42,1.56-1.83,2.59-3.38,2.59Zm-59-.13c-1.54,0-2.95-1.03-3.38-2.58-.51-1.87,.6-3.79,2.46-4.29l.51-.13c1.86-.5,3.78,.62,4.28,2.49,.5,1.87-.62,3.78-2.49,4.28l-.47,.12c-.31,.08-.62,.12-.92,.12Zm20.97-5.62c-1.54,0-2.95-1.03-3.38-2.58-.51-1.87,.6-3.79,2.46-4.29l.5-.13c1.87-.49,3.79,.61,4.28,2.48s-.61,3.79-2.48,4.28l-.47,.13c-.31,.08-.62,.12-.92,.12Zm20.99-5.62c-1.54,0-2.94-1.02-3.37-2.57-.51-1.86,.58-3.79,2.44-4.3l.45-.12c1.87-.49,3.82,.61,4.32,2.47s-.58,3.78-2.45,4.27l-.06,.02-.39,.11c-.31,.09-.62,.13-.93,.13Zm21.09-5.66c-1.54,0-2.96-1.03-3.38-2.59-.5-1.87,.6-3.79,2.47-4.29l.5-.13c1.87-.51,3.79,.59,4.3,2.46,.51,1.87-.59,3.79-2.46,4.3l-.52,.14c-.3,.08-.61,.12-.91,.12Zm-482.47,129.2c-1.54,0-2.95-1.03-3.38-2.58-.51-1.87,.6-3.79,2.46-4.29l.49-.13c1.87-.5,3.79,.6,4.29,2.46,.51,1.87-.6,3.79-2.46,4.29l-.49,.13c-.31,.08-.62,.12-.92,.12Zm355.01,348.89c-.3,0-.6-.04-.9-.12-1.87-.5-2.98-2.42-2.48-4.28l.13-.5c.51-1.86,2.43-2.97,4.29-2.46,1.87,.51,2.97,2.43,2.46,4.29l-.13,.47c-.42,1.57-1.83,2.6-3.38,2.6Zm5.39-20.84c-.3,0-.6-.04-.9-.12-1.87-.5-2.98-2.42-2.48-4.28l.13-.5c.51-1.86,2.43-2.97,4.29-2.46,1.87,.51,2.97,2.43,2.46,4.29l-.13,.47c-.42,1.57-1.83,2.6-3.38,2.6Z"/><path d="M1209.12,1250.68c-.38,0-.76-.06-1.13-.19-1.82-.62-2.79-2.59-2.19-4.41,.34-1.89,2.13-3.17,4.04-2.84,1.91,.33,3.19,2.13,2.86,4.04-.06,.35-.15,.7-.26,1.03-.5,1.45-1.86,2.37-3.31,2.37Zm-19.65-2.37c-.3,0-.61-.04-.91-.12l-.49-.13c-1.87-.5-2.97-2.42-2.47-4.29,.5-1.87,2.42-2.98,4.29-2.47l.49,.13c1.87,.5,2.97,2.42,2.47,4.29-.42,1.56-1.83,2.59-3.38,2.59Zm-20.88-5.59c-.3,0-.6-.04-.91-.12l-.49-.13c-1.87-.5-2.98-2.42-2.48-4.29,.5-1.87,2.42-2.98,4.29-2.48l.49,.13c1.87,.5,2.98,2.42,2.48,4.29-.42,1.56-1.83,2.6-3.38,2.6Zm-20.88-5.59c-.3,0-.61-.04-.91-.12l-.49-.13c-1.87-.5-2.97-2.42-2.47-4.29s2.42-2.98,4.29-2.47l.49,.13c1.87,.5,2.97,2.42,2.47,4.29-.42,1.56-1.83,2.59-3.38,2.59Zm-20.88-5.59c-.3,0-.6-.04-.91-.12l-.49-.13c-1.87-.5-2.98-2.42-2.48-4.29,.5-1.87,2.42-2.98,4.29-2.48l.49,.13c1.87,.5,2.98,2.42,2.48,4.29-.42,1.56-1.83,2.6-3.38,2.6Zm77.11-2.03c-1.54,0-2.94-1.01-3.35-2.57l-.02-.06-.11-.39c-.51-1.86,.58-3.79,2.44-4.3,1.87-.51,3.79,.58,4.3,2.44l.12,.45c.5,1.87-.6,3.82-2.47,4.32-.31,.08-.62,.12-.92,.12Zm-97.98-3.56c-.3,0-.61-.04-.91-.12l-.49-.13c-1.87-.5-2.97-2.42-2.47-4.29,.5-1.87,2.42-2.97,4.29-2.47l.49,.13c1.87,.5,2.97,2.42,2.47,4.29-.42,1.56-1.83,2.59-3.38,2.59Zm-20.88-5.59c-.3,0-.6-.04-.91-.12l-.49-.13c-1.87-.5-2.98-2.42-2.48-4.29,.5-1.87,2.41-2.97,4.29-2.48l.49,.13c1.87,.5,2.98,2.42,2.48,4.29-.42,1.56-1.83,2.6-3.38,2.6Zm-20.88-5.59c-.3,0-.6-.04-.91-.12l-.49-.13c-1.87-.5-2.98-2.42-2.48-4.29,.5-1.87,2.42-2.97,4.29-2.48l.49,.13c1.87,.5,2.98,2.42,2.48,4.29-.42,1.56-1.83,2.6-3.38,2.6Zm-20.88-5.59c-.3,0-.6-.04-.91-.12l-.49-.13c-1.87-.5-2.98-2.42-2.48-4.29,.5-1.87,2.42-2.98,4.29-2.48l.48,.13c1.87,.5,2.98,2.42,2.48,4.29-.42,1.56-1.83,2.6-3.38,2.6Zm155.02-.62c-1.55,0-2.96-1.03-3.38-2.6l-.13-.47c-.51-1.87,.6-3.79,2.46-4.29,1.87-.5,3.79,.6,4.29,2.46l.13,.5c.5,1.87-.61,3.79-2.48,4.28-.3,.08-.61,.12-.9,.12Zm-175.9-4.98c-.3,0-.6-.04-.91-.12l-.49-.13c-1.87-.5-2.98-2.42-2.48-4.29,.5-1.87,2.42-2.97,4.29-2.48l.48,.13c1.87,.5,2.98,2.42,2.48,4.29-.42,1.56-1.83,2.6-3.38,2.6Zm-20.88-5.59c-.3,0-.6-.04-.91-.12l-.49-.13c-1.87-.5-2.98-2.42-2.48-4.29,.5-1.87,2.41-2.98,4.29-2.48l.48,.13c1.87,.5,2.98,2.42,2.48,4.29-.42,1.56-1.83,2.6-3.38,2.6Zm-20.88-5.59c-.3,0-.6-.04-.91-.12l-.49-.13c-1.87-.5-2.98-2.42-2.48-4.29,.5-1.87,2.41-2.98,4.29-2.48l.48,.13c1.87,.5,2.98,2.42,2.48,4.29-.42,1.56-1.83,2.6-3.38,2.6Zm212.03-4.81c-1.55,0-2.97-1.04-3.38-2.6l-.12-.47c-.51-1.87,.6-3.79,2.46-4.29,1.87-.51,3.79,.6,4.29,2.46l.13,.51c.5,1.87-.62,3.78-2.49,4.28-.3,.08-.6,.12-.9,.12Zm-232.91-.79c-.3,0-.6-.04-.91-.12l-.49-.13c-1.87-.5-2.98-2.42-2.48-4.29,.5-1.87,2.41-2.98,4.29-2.48l.49,.13c1.87,.5,2.98,2.42,2.48,4.29-.42,1.56-1.83,2.6-3.38,2.6Zm-20.88-5.59c-.3,0-.6-.04-.91-.12l-.48-.13c-1.87-.5-2.98-2.42-2.48-4.29,.5-1.87,2.42-2.98,4.29-2.48l.49,.13c1.87,.5,2.98,2.42,2.48,4.29-.42,1.56-1.83,2.6-3.38,2.6Zm-20.88-5.59c-.3,0-.61-.04-.91-.12l-.49-.13c-1.87-.5-2.97-2.42-2.47-4.29,.5-1.87,2.43-2.97,4.29-2.47l.49,.13c1.87,.5,2.97,2.42,2.47,4.29-.42,1.56-1.83,2.59-3.38,2.59Zm-20.88-5.59c-.3,0-.6-.04-.91-.12l-.48-.13c-1.87-.5-2.98-2.42-2.48-4.29,.5-1.87,2.42-2.97,4.29-2.48l.49,.13c1.87,.5,2.98,2.42,2.48,4.29-.42,1.56-1.83,2.6-3.38,2.6Zm289.93-3.39c-1.55,0-2.97-1.04-3.38-2.6l-.12-.47c-.51-1.87,.6-3.79,2.46-4.29,1.87-.51,3.79,.6,4.29,2.46l.13,.51c.5,1.87-.62,3.78-2.49,4.28-.3,.08-.6,.12-.9,.12Zm-310.81-2.21c-.3,0-.61-.04-.91-.12l-.49-.13c-1.87-.5-2.97-2.42-2.47-4.29,.5-1.87,2.43-2.98,4.29-2.47l.49,.13c1.87,.5,2.97,2.42,2.47,4.29-.42,1.56-1.83,2.59-3.38,2.59Zm-20.88-5.59c-.3,0-.6-.04-.91-.12l-.49-.13c-1.87-.5-2.98-2.42-2.48-4.29,.5-1.87,2.42-2.97,4.29-2.48l.49,.13c1.87,.5,2.98,2.42,2.48,4.29-.42,1.56-1.83,2.6-3.38,2.6Zm-20.88-5.59c-.3,0-.61-.04-.91-.12l-.49-.13c-1.87-.5-2.97-2.42-2.47-4.29,.5-1.87,2.42-2.98,4.29-2.47l.49,.13c1.87,.5,2.97,2.42,2.47,4.29-.42,1.56-1.83,2.59-3.38,2.59Zm-20.88-5.59c-.3,0-.6-.04-.91-.12l-.49-.13c-1.87-.5-2.98-2.42-2.48-4.29,.5-1.87,2.42-2.97,4.29-2.48l.49,.13c1.87,.5,2.98,2.42,2.48,4.29-.42,1.56-1.83,2.6-3.38,2.6Zm367.83-1.96c-1.55,0-2.97-1.04-3.38-2.6l-.12-.46c-.51-1.87,.59-3.79,2.46-4.3,1.87-.51,3.79,.59,4.3,2.46l.14,.51c.5,1.87-.62,3.78-2.49,4.28-.3,.08-.6,.12-.9,.12Zm-388.71-3.64c-.3,0-.6-.04-.91-.12l-.49-.13c-1.87-.5-2.98-2.42-2.48-4.29,.5-1.87,2.42-2.98,4.29-2.48l.49,.13c1.87,.5,2.98,2.42,2.48,4.29-.42,1.56-1.83,2.6-3.38,2.6Zm-20.88-5.59c-.3,0-.6-.04-.91-.12l-.49-.13c-1.87-.5-2.98-2.42-2.48-4.29,.5-1.87,2.42-2.97,4.29-2.48l.49,.13c1.87,.5,2.98,2.42,2.48,4.29-.42,1.56-1.83,2.6-3.38,2.6Zm-20.88-5.59c-.3,0-.6-.04-.91-.12l-.49-.13c-1.87-.5-2.98-2.42-2.48-4.29,.5-1.87,2.42-2.98,4.29-2.48l.49,.13c1.87,.5,2.98,2.42,2.48,4.29-.42,1.56-1.83,2.6-3.38,2.6Zm-20.88-5.59c-.3,0-.6-.04-.91-.12l-.49-.13c-1.87-.5-2.98-2.42-2.48-4.29,.5-1.87,2.42-2.97,4.29-2.48l.49,.13c1.87,.5,2.98,2.42,2.48,4.29-.42,1.56-1.83,2.6-3.38,2.6Zm445.74-.52c-1.55,0-2.97-1.04-3.38-2.6l-.12-.46c-.51-1.87,.59-3.79,2.46-4.3,1.87-.51,3.79,.59,4.3,2.46l.14,.51c.5,1.87-.62,3.78-2.49,4.28-.3,.08-.6,.12-.9,.12Zm-466.61-5.07c-.3,0-.6-.04-.91-.12l-.49-.13c-1.87-.5-2.98-2.42-2.48-4.29,.5-1.87,2.42-2.98,4.29-2.48l.49,.13c1.87,.5,2.98,2.42,2.48,4.29-.42,1.56-1.83,2.6-3.38,2.6Zm13.45-14.93c-.9,0-1.79-.34-2.47-1.03-1.37-1.37-1.37-3.58,0-4.95l.36-.36c1.37-1.37,3.58-1.37,4.95,0,1.37,1.37,1.37,3.58,0,4.95l-.36,.36c-.68,.68-1.58,1.03-2.47,1.03Zm447.56-.93c-1.55,0-2.97-1.04-3.38-2.6l-.12-.46c-.51-1.87,.59-3.79,2.46-4.3,1.87-.5,3.79,.59,4.3,2.46l.14,.51c.5,1.87-.62,3.78-2.49,4.28-.3,.08-.6,.12-.9,.12Zm-432.19-14.44c-.9,0-1.79-.34-2.47-1.03-1.37-1.37-1.37-3.58,0-4.95l.36-.36c1.37-1.37,3.58-1.37,4.95,0,1.37,1.37,1.37,3.58,0,4.95l-.36,.36c-.68,.68-1.58,1.03-2.47,1.03Zm426.59-6.49c-1.55,0-2.97-1.04-3.38-2.6l-.12-.46c-.51-1.87,.59-3.79,2.46-4.3,1.87-.51,3.79,.59,4.3,2.46l.14,.51c.5,1.87-.62,3.78-2.49,4.28-.3,.08-.6,.12-.9,.12Zm-411.24-8.87c-.9,0-1.79-.34-2.47-1.03-1.37-1.37-1.37-3.58,0-4.95l.36-.36c1.37-1.37,3.58-1.37,4.95,0,1.37,1.37,1.37,3.58,0,4.95l-.36,.36c-.68,.68-1.58,1.03-2.47,1.03Zm405.63-12.07c-1.55,0-2.97-1.04-3.38-2.6l-.12-.46c-.51-1.87,.59-3.79,2.46-4.3,1.87-.51,3.79,.59,4.3,2.46l.14,.51c.5,1.87-.62,3.78-2.49,4.28-.3,.08-.6,.12-.9,.12Zm-390.29-3.28c-.9,0-1.79-.34-2.47-1.03-1.37-1.37-1.37-3.58,0-4.95l.36-.36c1.37-1.37,3.58-1.37,4.95,0,1.37,1.37,1.37,3.58,0,4.95l-.36,.36c-.68,.68-1.58,1.03-2.47,1.03Zm15.33-15.34c-.9,0-1.79-.34-2.47-1.03-1.37-1.37-1.37-3.58,0-4.95l.36-.36c1.37-1.37,3.58-1.37,4.95,0,1.37,1.37,1.37,3.58,0,4.95l-.36,.36c-.68,.68-1.58,1.03-2.47,1.03Zm369.35-2.32c-1.55,0-2.97-1.04-3.38-2.6l-.12-.46c-.51-1.87,.59-3.79,2.46-4.3,1.87-.51,3.79,.59,4.3,2.46l.14,.51c.5,1.87-.62,3.78-2.49,4.28-.3,.08-.6,.12-.9,.12Zm-354.02-13.02c-.9,0-1.79-.34-2.47-1.03-1.37-1.37-1.37-3.58,0-4.95l.36-.36c1.37-1.37,3.58-1.37,4.95,0,1.37,1.37,1.37,3.58,0,4.95l-.36,.36c-.68,.68-1.58,1.03-2.47,1.03Zm348.42-7.91c-1.55,0-2.97-1.04-3.38-2.6l-.12-.47c-.51-1.87,.6-3.79,2.46-4.29,1.87-.51,3.79,.6,4.29,2.46l.13,.51c.5,1.87-.62,3.78-2.49,4.28-.3,.08-.6,.12-.9,.12Zm-333.09-7.41c-.9,0-1.79-.34-2.47-1.03-1.37-1.37-1.37-3.58,0-4.95l.36-.36c1.37-1.37,3.58-1.37,4.95,0,1.37,1.37,1.37,3.58,0,4.95l-.36,.36c-.68,.68-1.58,1.03-2.47,1.03Zm327.48-13.53c-1.55,0-2.97-1.04-3.38-2.6l-.12-.46c-.51-1.87,.59-3.79,2.46-4.3,1.87-.51,3.79,.59,4.3,2.46l.14,.51c.5,1.87-.62,3.78-2.49,4.28-.3,.08-.6,.12-.9,.12Zm-312.15-1.79c-.9,0-1.79-.34-2.47-1.03-1.37-1.37-1.37-3.58,0-4.95l.36-.36c1.37-1.37,3.58-1.37,4.95,0,1.37,1.37,1.37,3.58,0,4.95l-.36,.36c-.68,.68-1.58,1.03-2.47,1.03Zm30.64-30.64c-.9,0-1.79-.34-2.47-1.03-1.37-1.37-1.37-3.58,0-4.95l.36-.36c1.37-1.37,3.58-1.37,4.95,0,1.37,1.37,1.37,3.58,0,4.95l-.36,.36c-.68,.68-1.58,1.03-2.47,1.03Zm270.3-9.42c-1.55,0-2.97-1.04-3.38-2.6l-.12-.46c-.51-1.87,.59-3.79,2.46-4.3,1.87-.51,3.79,.59,4.3,2.46l.14,.51c.5,1.87-.62,3.78-2.49,4.28-.3,.08-.6,.12-.9,.12Zm-254.97-5.9c-.9,0-1.79-.34-2.47-1.03-1.37-1.37-1.37-3.58,0-4.95l.36-.36c1.37-1.37,3.58-1.37,4.95,0,1.37,1.37,1.37,3.58,0,4.95l-.36,.36c-.68,.68-1.58,1.03-2.47,1.03Zm249.37-15.03c-1.55,0-2.97-1.04-3.38-2.6l-.12-.46c-.51-1.87,.59-3.79,2.46-4.3,1.87-.51,3.79,.59,4.3,2.46l.14,.51c.5,1.87-.62,3.78-2.49,4.28-.3,.08-.6,.12-.9,.12Zm-234.05-.29c-.9,0-1.79-.34-2.47-1.03-1.37-1.37-1.37-3.58,0-4.95l.36-.36c1.37-1.37,3.58-1.37,4.95,0,1.37,1.37,1.37,3.58,0,4.95l-.36,.36c-.68,.68-1.58,1.03-2.47,1.03Zm15.33-15.33c-.9,0-1.79-.34-2.47-1.03-1.37-1.37-1.37-3.58,0-4.95l.36-.36c1.37-1.37,3.58-1.37,4.95,0,1.37,1.37,1.37,3.58,0,4.95l-.36,.36c-.68,.68-1.58,1.03-2.47,1.03Zm213.11-5.31c-1.55,0-2.97-1.04-3.38-2.6l-.12-.46c-.51-1.87,.59-3.79,2.46-4.3,1.87-.51,3.79,.59,4.3,2.46l.14,.51c.5,1.87-.62,3.78-2.49,4.28-.3,.08-.6,.12-.9,.12Zm-197.79-10.01c-.9,0-1.79-.34-2.47-1.03-1.37-1.37-1.37-3.58,0-4.95l.36-.36c1.37-1.37,3.58-1.37,4.95,0,1.37,1.37,1.37,3.58,0,4.95l-.36,.36c-.68,.68-1.58,1.03-2.47,1.03Zm192.18-10.93c-1.55,0-2.97-1.04-3.38-2.6l-.12-.46c-.51-1.87,.59-3.79,2.46-4.3,1.87-.51,3.79,.59,4.3,2.46l.14,.51c.5,1.87-.62,3.78-2.49,4.28-.3,.08-.6,.12-.9,.12Zm-176.85-4.39c-.9,0-1.79-.34-2.47-1.03-1.37-1.37-1.37-3.58,0-4.95l.36-.36c1.37-1.37,3.58-1.37,4.95,0,1.37,1.37,1.37,3.58,0,4.95l-.36,.36c-.68,.68-1.58,1.03-2.47,1.03Zm15.32-15.32c-.9,0-1.79-.34-2.47-1.03-1.37-1.37-1.37-3.58,0-4.95l.36-.36c1.37-1.37,3.58-1.37,4.95,0,1.37,1.37,1.37,3.58,0,4.95l-.36,.36c-.68,.68-1.58,1.03-2.47,1.03Zm155.92-1.22c-1.55,0-2.97-1.04-3.38-2.6l-.12-.47c-.51-1.87,.6-3.79,2.46-4.29,1.87-.5,3.79,.6,4.29,2.46l.13,.51c.5,1.87-.62,3.78-2.49,4.28-.3,.08-.6,.12-.9,.12Zm-140.6-14.1c-.9,0-1.79-.34-2.47-1.03-1.37-1.37-1.37-3.58,0-4.95l.36-.36c1.37-1.37,3.58-1.37,4.95,0,1.37,1.37,1.37,3.58,0,4.95l-.36,.36c-.68,.68-1.58,1.03-2.47,1.03Zm134.98-6.84c-1.55,0-2.97-1.04-3.38-2.6l-.12-.47c-.51-1.87,.6-3.79,2.46-4.29,1.87-.51,3.79,.6,4.29,2.46l.13,.51c.5,1.87-.62,3.78-2.49,4.28-.3,.08-.6,.12-.9,.12Zm-119.66-8.48c-.9,0-1.79-.34-2.47-1.03-1.37-1.37-1.37-3.58,0-4.95l.36-.36c1.37-1.37,3.58-1.37,4.95,0,1.37,1.37,1.37,3.58,0,4.95l-.36,.36c-.68,.68-1.58,1.03-2.47,1.03Zm114.04-12.46c-1.55,0-2.97-1.04-3.38-2.6l-.12-.46c-.51-1.87,.59-3.79,2.46-4.3,1.87-.51,3.79,.59,4.3,2.46l.14,.51c.5,1.87-.62,3.78-2.49,4.28-.3,.08-.6,.12-.9,.12Zm-98.71-2.86c-.9,0-1.79-.34-2.47-1.03-1.37-1.37-1.37-3.58,0-4.95l.36-.36c1.37-1.37,3.58-1.37,4.95,0,1.37,1.37,1.37,3.58,0,4.95l-.36,.36c-.68,.68-1.58,1.03-2.47,1.03Zm15.34-15.33c-.9,0-1.79-.34-2.47-1.03-1.37-1.37-1.37-3.58,0-4.95l.36-.36c1.37-1.37,3.58-1.37,4.95,0,1.37,1.37,1.37,3.58,0,4.95l-.36,.36c-.68,.68-1.58,1.03-2.47,1.03Zm77.75-2.76c-1.54,0-2.95-1.03-3.38-2.58l-.13-.48c-.51-1.87,.59-3.79,2.46-4.3,1.87-.51,3.79,.59,4.3,2.46l.13,.49c.51,1.87-.6,3.79-2.46,4.29-.31,.08-.62,.12-.92,.12Zm-5.16-21.73c-1.54,0-2.95-1.03-3.38-2.58l-.13-.48c-.51-1.87,.59-3.79,2.46-4.3,1.87-.51,3.79,.59,4.3,2.46l.13,.49c.51,1.87-.6,3.79-2.46,4.29-.31,.08-.62,.12-.92,.12Zm-57.25,9.15c-.9,0-1.8-.35-2.49-1.04-1.36-1.37-1.35-3.59,.02-4.95l.35-.34c1.37-1.37,3.58-1.37,4.95,0,1.37,1.37,1.37,3.58,0,4.95l-.37,.37c-.68,.68-1.57,1.01-2.46,1.01Zm15.35-15.35c-.9,0-1.79-.34-2.47-1.03-1.37-1.37-1.37-3.58,0-4.95l.36-.36c1.37-1.37,3.58-1.37,4.95,0,1.37,1.37,1.37,3.58,0,4.95l-.36,.36c-.68,.68-1.58,1.03-2.47,1.03Zm15.37-15.37c-.9,0-1.79-.34-2.47-1.03-1.37-1.37-1.37-3.58,0-4.95l.36-.36c1.37-1.37,3.58-1.37,4.95,0,1.37,1.37,1.37,3.58,0,4.95l-.36,.36c-.68,.68-1.58,1.03-2.47,1.03Zm15.44-15.44c-.9,0-1.79-.34-2.47-1.03-1.37-1.37-1.37-3.58,0-4.95l.33-.33c.64-.66,1.53-1.07,2.52-1.07,1.93,0,3.5,1.57,3.5,3.5,0,1.45-.78,2.23-1.4,2.85-.68,.68-1.58,1.03-2.47,1.03Zm4.5,16.77c-1.54,0-2.95-1.03-3.38-2.58l-.13-.49c-.51-1.87,.6-3.79,2.46-4.29,1.87-.51,3.79,.6,4.29,2.46l.13,.49c.51,1.87-.6,3.79-2.46,4.29-.31,.08-.62,.12-.92,.12Z"/><path d="M188.56,1250.68c-1.45,0-2.81-.91-3.31-2.36-.12-.35-.21-.71-.27-1.07-.31-1.91,.99-3.7,2.9-4.01,1.89-.3,3.67,.97,4,2.85,.6,1.81-.37,3.78-2.18,4.4-.38,.13-.76,.19-1.14,.19Zm19.65-2.36c-1.55,0-2.96-1.03-3.38-2.6-.5-1.87,.61-3.79,2.48-4.29l.49-.13c1.87-.5,3.79,.61,4.29,2.48,.5,1.87-.61,3.79-2.48,4.29l-.49,.13c-.3,.08-.61,.12-.91,.12Zm20.88-5.59c-1.55,0-2.96-1.03-3.38-2.6-.5-1.87,.61-3.79,2.48-4.29l.49-.13c1.87-.5,3.79,.61,4.29,2.48,.5,1.87-.61,3.79-2.48,4.29l-.49,.13c-.3,.08-.61,.12-.91,.12Zm20.88-5.59c-1.55,0-2.96-1.03-3.38-2.6-.5-1.87,.61-3.79,2.48-4.29l.49-.13c1.87-.5,3.79,.61,4.29,2.48,.5,1.87-.61,3.79-2.48,4.29l-.49,.13c-.3,.08-.61,.12-.91,.12Zm20.88-5.59c-1.55,0-2.96-1.03-3.38-2.6-.5-1.87,.61-3.79,2.48-4.29l.49-.13c1.87-.5,3.79,.61,4.29,2.48,.5,1.87-.61,3.79-2.48,4.29l-.49,.13c-.3,.08-.61,.12-.91,.12Zm-77.13-2c-.3,0-.6-.04-.9-.12-1.87-.5-2.98-2.42-2.48-4.28l.13-.49c.5-1.87,2.42-2.98,4.28-2.48,1.87,.5,2.98,2.42,2.48,4.28l-.13,.49c-.42,1.57-1.83,2.6-3.38,2.6Zm98.01-3.59c-1.54,0-2.96-1.03-3.38-2.59-.5-1.87,.6-3.79,2.47-4.29l.49-.13c1.87-.5,3.79,.6,4.29,2.47,.5,1.87-.6,3.79-2.47,4.29l-.49,.13c-.3,.08-.61,.12-.91,.12Zm20.88-5.59c-1.55,0-2.96-1.03-3.38-2.6-.5-1.87,.61-3.79,2.48-4.29l.49-.13c1.86-.5,3.79,.61,4.29,2.48s-.61,3.79-2.48,4.29l-.49,.13c-.3,.08-.61,.12-.91,.12Zm20.88-5.59c-1.54,0-2.96-1.03-3.38-2.59-.5-1.87,.6-3.79,2.47-4.29l.49-.13c1.87-.51,3.79,.6,4.29,2.47s-.6,3.79-2.47,4.29l-.49,.13c-.31,.08-.61,.12-.91,.12Zm20.88-5.59c-1.55,0-2.96-1.03-3.38-2.6-.5-1.87,.61-3.79,2.48-4.29l.49-.13c1.87-.5,3.79,.61,4.29,2.48,.5,1.87-.61,3.79-2.48,4.29l-.49,.13c-.3,.08-.61,.12-.91,.12Zm-155.02-.62c-.3,0-.61-.04-.91-.12-1.87-.5-2.97-2.42-2.47-4.29l.13-.48c.5-1.87,2.42-2.98,4.29-2.47,1.87,.5,2.98,2.42,2.47,4.29l-.13,.49c-.42,1.56-1.83,2.59-3.38,2.59Zm175.9-4.98c-1.54,0-2.96-1.03-3.38-2.59-.5-1.87,.6-3.79,2.47-4.29l.49-.13c1.87-.51,3.79,.6,4.29,2.47s-.6,3.79-2.47,4.29l-.49,.13c-.31,.08-.61,.12-.91,.12Zm20.88-5.59c-1.55,0-2.96-1.03-3.38-2.6-.5-1.87,.61-3.79,2.48-4.29l.49-.13c1.87-.5,3.79,.61,4.29,2.48,.5,1.87-.61,3.79-2.48,4.29l-.49,.13c-.3,.08-.61,.12-.91,.12Zm20.88-5.59c-1.55,0-2.96-1.03-3.38-2.6-.5-1.87,.61-3.79,2.48-4.29l.49-.13c1.87-.5,3.79,.61,4.29,2.48,.5,1.87-.61,3.79-2.48,4.29l-.49,.13c-.3,.08-.61,.12-.91,.12Zm-212.03-4.81c-.3,0-.6-.04-.91-.12-1.87-.5-2.98-2.42-2.47-4.29l.13-.48c.5-1.87,2.41-2.98,4.28-2.49,1.87,.5,2.98,2.41,2.49,4.28l-.13,.5c-.42,1.56-1.83,2.59-3.38,2.59Zm232.91-.79c-1.55,0-2.96-1.03-3.38-2.6-.5-1.87,.61-3.79,2.48-4.29l.49-.13c1.87-.5,3.79,.61,4.29,2.48,.5,1.87-.61,3.79-2.48,4.29l-.49,.13c-.3,.08-.61,.12-.91,.12Zm20.88-5.59c-1.55,0-2.96-1.03-3.38-2.6-.5-1.87,.61-3.79,2.48-4.29l.49-.13c1.87-.49,3.79,.61,4.29,2.48,.5,1.87-.61,3.79-2.48,4.29l-.49,.13c-.3,.08-.61,.12-.91,.12Zm20.88-5.59c-1.55,0-2.96-1.03-3.38-2.6-.5-1.87,.61-3.79,2.48-4.29l.49-.13c1.87-.5,3.79,.61,4.29,2.48,.5,1.87-.61,3.79-2.48,4.29l-.49,.13c-.3,.08-.61,.12-.91,.12Zm20.88-5.59c-1.55,0-2.96-1.03-3.38-2.6-.5-1.87,.61-3.79,2.48-4.29l.49-.13c1.87-.5,3.79,.61,4.29,2.48,.5,1.87-.61,3.79-2.48,4.29l-.49,.13c-.3,.08-.61,.12-.91,.12Zm-289.93-3.39c-.3,0-.6-.04-.91-.12-1.87-.5-2.98-2.42-2.47-4.29l.13-.48c.5-1.87,2.41-2.98,4.28-2.49,1.87,.5,2.98,2.41,2.49,4.28l-.13,.5c-.42,1.56-1.83,2.59-3.38,2.59Zm310.81-2.21c-1.54,0-2.96-1.03-3.38-2.59-.5-1.87,.6-3.79,2.47-4.29l.49-.13c1.86-.5,3.79,.6,4.29,2.47,.5,1.87-.6,3.79-2.47,4.29l-.49,.13c-.3,.08-.61,.12-.91,.12Zm20.88-5.59c-1.55,0-2.96-1.03-3.38-2.6-.5-1.87,.61-3.79,2.48-4.29l.49-.13c1.87-.5,3.79,.61,4.29,2.48,.5,1.87-.61,3.79-2.48,4.29l-.49,.13c-.3,.08-.61,.12-.91,.12Zm20.88-5.59c-1.54,0-2.96-1.03-3.38-2.59-.5-1.87,.6-3.79,2.47-4.29l.49-.13c1.87-.5,3.79,.6,4.29,2.47,.5,1.87-.6,3.79-2.47,4.29l-.49,.13c-.3,.08-.61,.12-.91,.12Zm20.88-5.59c-1.55,0-2.96-1.03-3.38-2.6-.5-1.87,.61-3.79,2.48-4.29l.49-.13c1.88-.5,3.79,.61,4.29,2.48,.5,1.87-.61,3.79-2.48,4.29l-.49,.13c-.3,.08-.61,.12-.91,.12Zm-367.83-1.96c-.3,0-.6-.04-.91-.12-1.87-.5-2.98-2.42-2.47-4.29l.13-.48c.5-1.87,2.41-2.98,4.28-2.48,1.87,.5,2.98,2.42,2.48,4.28l-.13,.49c-.42,1.56-1.83,2.59-3.38,2.59Zm388.71-3.64c-1.55,0-2.96-1.03-3.38-2.6-.5-1.87,.61-3.79,2.48-4.29l.48-.13c1.87-.5,3.79,.61,4.29,2.48,.5,1.87-.61,3.79-2.48,4.29l-.49,.13c-.3,.08-.61,.12-.91,.12Zm20.88-5.59c-1.55,0-2.96-1.03-3.38-2.6-.5-1.87,.61-3.79,2.48-4.29l.48-.13c1.88-.5,3.79,.61,4.29,2.48,.5,1.87-.61,3.79-2.48,4.29l-.49,.13c-.3,.08-.61,.12-.91,.12Zm20.88-5.59c-1.55,0-2.96-1.03-3.38-2.6-.5-1.87,.61-3.79,2.48-4.29l.48-.13c1.87-.5,3.79,.61,4.29,2.48,.5,1.87-.61,3.79-2.48,4.29l-.49,.13c-.3,.08-.61,.12-.91,.12Zm20.88-5.59c-1.55,0-2.96-1.03-3.38-2.6-.5-1.87,.61-3.79,2.48-4.29l.49-.13c1.87-.5,3.79,.61,4.29,2.48,.5,1.87-.61,3.79-2.48,4.29l-.49,.13c-.3,.08-.61,.12-.91,.12Zm-445.73-.52c-.3,0-.6-.04-.91-.12-1.87-.5-2.98-2.42-2.47-4.29l.13-.48c.5-1.87,2.42-2.98,4.28-2.48,1.87,.5,2.98,2.42,2.48,4.28l-.13,.49c-.42,1.56-1.83,2.59-3.38,2.59Zm466.61-5.07c-1.55,0-2.96-1.03-3.38-2.6-.5-1.87,.61-3.79,2.48-4.29l.49-.13c1.87-.5,3.79,.61,4.29,2.48,.5,1.87-.61,3.79-2.48,4.29l-.48,.13c-.3,.08-.61,.12-.91,.12Zm-13.45-14.93c-.9,0-1.79-.34-2.47-1.03l-.36-.36c-1.37-1.37-1.37-3.58,0-4.95,1.37-1.37,3.58-1.37,4.95,0l.36,.36c1.37,1.37,1.37,3.58,0,4.95-.68,.68-1.58,1.03-2.47,1.03Zm-447.56-.93c-.3,0-.6-.04-.91-.12-1.87-.5-2.98-2.42-2.47-4.29l.13-.48c.5-1.87,2.41-2.98,4.28-2.48,1.87,.5,2.98,2.42,2.48,4.28l-.13,.49c-.42,1.56-1.83,2.59-3.38,2.59Zm432.19-14.44c-.9,0-1.79-.34-2.47-1.03l-.36-.36c-1.37-1.37-1.37-3.58,0-4.95,1.37-1.37,3.58-1.37,4.95,0l.36,.36c1.37,1.37,1.37,3.58,0,4.95-.68,.68-1.58,1.03-2.47,1.03Zm-426.58-6.49c-.3,0-.6-.04-.91-.12-1.87-.5-2.98-2.42-2.47-4.29l.13-.48c.5-1.87,2.41-2.98,4.28-2.48,1.87,.5,2.98,2.42,2.48,4.28l-.13,.49c-.42,1.56-1.83,2.59-3.38,2.59Zm411.24-8.86c-.9,0-1.79-.34-2.47-1.03l-.36-.36c-1.37-1.37-1.37-3.58,0-4.95,1.37-1.37,3.58-1.37,4.95,0l.36,.36c1.37,1.37,1.37,3.58,0,4.95-.68,.68-1.58,1.03-2.47,1.03Zm-405.63-12.07c-.3,0-.6-.04-.91-.12-1.87-.5-2.98-2.42-2.47-4.29l.13-.48c.5-1.87,2.42-2.98,4.28-2.48,1.87,.5,2.98,2.42,2.48,4.28l-.13,.49c-.42,1.56-1.83,2.59-3.38,2.59Zm390.29-3.28c-.9,0-1.79-.34-2.47-1.03l-.36-.36c-1.37-1.37-1.37-3.58,0-4.95,1.37-1.37,3.58-1.37,4.95,0l.36,.36c1.37,1.37,1.37,3.58,0,4.95-.68,.68-1.58,1.03-2.47,1.03Zm-15.33-15.34c-.9,0-1.79-.34-2.47-1.03l-.36-.36c-1.37-1.37-1.37-3.58,0-4.95,1.37-1.37,3.58-1.37,4.95,0l.36,.36c1.37,1.37,1.37,3.58,0,4.95-.68,.68-1.58,1.03-2.47,1.03Zm-369.35-2.32c-.3,0-.6-.04-.91-.12-1.87-.5-2.98-2.42-2.47-4.29l.13-.48c.5-1.87,2.42-2.98,4.28-2.48,1.87,.5,2.98,2.42,2.48,4.28l-.13,.49c-.42,1.56-1.83,2.59-3.38,2.59Zm354.02-13.01c-.9,0-1.79-.34-2.47-1.03l-.36-.36c-1.37-1.37-1.37-3.58,0-4.95,1.37-1.37,3.58-1.37,4.95,0l.36,.36c1.37,1.37,1.37,3.58,0,4.95-.68,.68-1.58,1.03-2.47,1.03Zm-348.41-7.92c-.3,0-.6-.04-.91-.12-1.87-.5-2.98-2.42-2.47-4.29l.13-.49c.5-1.87,2.42-2.97,4.29-2.47,1.87,.5,2.98,2.42,2.47,4.29l-.13,.49c-.42,1.56-1.83,2.59-3.38,2.59Zm333.09-7.41c-.9,0-1.79-.34-2.47-1.03l-.36-.36c-1.37-1.37-1.37-3.58,0-4.95,1.37-1.37,3.58-1.37,4.95,0l.36,.36c1.37,1.37,1.37,3.58,0,4.95-.68,.68-1.58,1.03-2.47,1.03Zm-327.48-13.53c-.3,0-.6-.04-.91-.12-1.87-.5-2.98-2.42-2.47-4.29l.13-.48c.5-1.87,2.42-2.97,4.28-2.48,1.87,.5,2.98,2.42,2.48,4.28l-.13,.49c-.42,1.56-1.83,2.59-3.38,2.59Zm312.15-1.79c-.9,0-1.79-.34-2.47-1.03l-.36-.36c-1.37-1.37-1.37-3.58,0-4.95,1.37-1.37,3.58-1.37,4.95,0l.36,.36c1.37,1.37,1.37,3.58,0,4.95-.68,.68-1.58,1.03-2.47,1.03Zm-30.64-30.64c-.9,0-1.79-.34-2.47-1.03l-.36-.36c-1.37-1.37-1.37-3.58,0-4.95,1.37-1.37,3.58-1.37,4.95,0l.36,.36c1.37,1.37,1.37,3.58,0,4.95-.68,.68-1.58,1.03-2.47,1.03Zm-270.29-9.42c-.3,0-.6-.04-.91-.12-1.87-.5-2.98-2.42-2.47-4.29l.13-.48c.5-1.87,2.41-2.98,4.28-2.48,1.87,.5,2.98,2.42,2.48,4.28l-.13,.49c-.42,1.56-1.83,2.59-3.38,2.59Zm254.97-5.9c-.9,0-1.79-.34-2.47-1.03l-.36-.36c-1.37-1.37-1.37-3.58,0-4.95,1.37-1.37,3.58-1.37,4.95,0l.36,.36c1.37,1.37,1.37,3.58,0,4.95-.68,.68-1.58,1.03-2.47,1.03Zm-249.37-15.03c-.3,0-.6-.04-.91-.12-1.87-.5-2.98-2.42-2.47-4.29l.13-.49c.5-1.87,2.42-2.97,4.29-2.47,1.87,.5,2.97,2.42,2.47,4.29l-.13,.48c-.42,1.56-1.83,2.59-3.38,2.59Zm234.05-.29c-.9,0-1.79-.34-2.47-1.03l-.36-.36c-1.37-1.37-1.37-3.58,0-4.95,1.37-1.37,3.58-1.37,4.95,0l.36,.36c1.37,1.37,1.37,3.58,0,4.95-.68,.68-1.58,1.03-2.47,1.03Zm-15.33-15.33c-.9,0-1.79-.34-2.47-1.03l-.36-.36c-1.37-1.37-1.37-3.58,0-4.95,1.37-1.37,3.58-1.37,4.95,0l.36,.36c1.37,1.37,1.37,3.58,0,4.95-.68,.68-1.58,1.03-2.47,1.03Zm-213.11-5.31c-.3,0-.6-.04-.91-.12-1.87-.5-2.98-2.42-2.47-4.29l.13-.49c.5-1.87,2.42-2.98,4.29-2.47,1.87,.5,2.97,2.42,2.47,4.29l-.13,.48c-.42,1.56-1.83,2.59-3.38,2.59Zm197.79-10c-.9,0-1.79-.34-2.47-1.03l-.36-.36c-1.37-1.37-1.37-3.58,0-4.95,1.37-1.37,3.58-1.37,4.95,0l.36,.36c1.37,1.37,1.37,3.58,0,4.95-.68,.68-1.58,1.03-2.47,1.03Zm-192.18-10.93c-.3,0-.6-.04-.91-.12-1.87-.5-2.98-2.42-2.47-4.29l.13-.49c.5-1.87,2.42-2.98,4.29-2.47,1.87,.5,2.97,2.42,2.47,4.29l-.13,.48c-.42,1.56-1.83,2.59-3.38,2.59Zm176.85-4.39c-.9,0-1.79-.34-2.47-1.03l-.36-.36c-1.37-1.37-1.37-3.58,0-4.95,1.37-1.37,3.58-1.37,4.95,0l.36,.36c1.37,1.37,1.37,3.58,0,4.95-.68,.68-1.58,1.03-2.47,1.03Zm-15.32-15.32c-.9,0-1.79-.34-2.47-1.03l-.36-.36c-1.37-1.37-1.37-3.58,0-4.95,1.37-1.37,3.58-1.37,4.95,0l.36,.36c1.37,1.37,1.37,3.58,0,4.95-.68,.68-1.58,1.03-2.47,1.03Zm-155.92-1.22c-.3,0-.6-.04-.91-.12-1.87-.5-2.98-2.42-2.47-4.29l.13-.49c.5-1.87,2.42-2.98,4.29-2.47,1.87,.5,2.98,2.42,2.47,4.29l-.13,.49c-.42,1.56-1.83,2.59-3.38,2.59Zm140.6-14.1c-.9,0-1.79-.34-2.47-1.03l-.36-.36c-1.37-1.37-1.37-3.58,0-4.95,1.37-1.37,3.58-1.37,4.95,0l.36,.36c1.37,1.37,1.37,3.58,0,4.95-.68,.68-1.58,1.03-2.47,1.03Zm-134.98-6.84c-.3,0-.6-.04-.91-.12-1.87-.5-2.98-2.42-2.47-4.29l.13-.49c.5-1.87,2.42-2.97,4.29-2.47,1.87,.5,2.98,2.42,2.47,4.29l-.13,.49c-.42,1.56-1.83,2.59-3.38,2.59Zm119.66-8.48c-.9,0-1.79-.34-2.47-1.03l-.36-.36c-1.37-1.37-1.37-3.58,0-4.95,1.37-1.37,3.58-1.37,4.95,0l.36,.36c1.37,1.37,1.37,3.58,0,4.95-.68,.68-1.58,1.03-2.47,1.03Zm-114.04-12.47c-.3,0-.6-.04-.91-.12-1.87-.5-2.98-2.42-2.47-4.29l.13-.49c.5-1.87,2.42-2.98,4.29-2.47,1.87,.5,2.97,2.42,2.47,4.29l-.13,.48c-.42,1.56-1.83,2.59-3.38,2.59Zm98.71-2.86c-.9,0-1.8-.34-2.48-1.03l-.35-.35c-1.37-1.36-1.37-3.58-.01-4.95,1.36-1.37,3.58-1.37,4.95-.01l.37,.37c1.36,1.37,1.36,3.59-.01,4.95-.68,.68-1.58,1.02-2.47,1.02Zm-15.34-15.33c-.9,0-1.8-.34-2.48-1.03l-.35-.35c-1.37-1.37-1.37-3.58,0-4.95,1.37-1.37,3.58-1.37,4.95,0l.36,.36c1.36,1.37,1.36,3.59-.01,4.95-.68,.68-1.58,1.02-2.47,1.02Zm-77.75-2.76c-.3,0-.6-.04-.91-.12-1.87-.5-2.98-2.42-2.47-4.29l.13-.49c.5-1.87,2.42-2.98,4.29-2.47,1.87,.5,2.97,2.42,2.47,4.29l-.13,.48c-.42,1.56-1.83,2.59-3.38,2.59Zm62.41-12.58c-.9,0-1.8-.34-2.48-1.03l-.35-.35c-1.37-1.37-1.37-3.58,0-4.95,1.37-1.37,3.58-1.37,4.95,0l.36,.36c1.36,1.37,1.36,3.59-.01,4.95-.68,.68-1.58,1.02-2.47,1.02Zm-56.79-8.4c-.3,0-.6-.04-.91-.12-1.87-.5-2.98-2.42-2.47-4.29l.13-.49c.5-1.87,2.42-2.98,4.29-2.47,1.87,.5,2.98,2.42,2.47,4.29l-.13,.49c-.42,1.56-1.83,2.59-3.38,2.59Zm41.43-6.96c-.9,0-1.8-.34-2.48-1.03l-.35-.35c-1.37-1.37-1.37-3.58,0-4.95,1.37-1.37,3.58-1.37,4.95,0l.36,.36c1.36,1.37,1.36,3.59-.01,4.95-.68,.68-1.58,1.02-2.47,1.02Zm-35.8-14.04c-.3,0-.61-.04-.91-.12-1.87-.5-2.97-2.42-2.47-4.29l.13-.48c.5-1.87,2.42-2.98,4.28-2.48,1.87,.5,2.98,2.42,2.48,4.28l-.13,.5c-.42,1.56-1.83,2.59-3.38,2.59Zm20.43-1.33c-.9,0-1.79-.34-2.47-1.03l-.36-.36c-1.37-1.37-1.37-3.58,0-4.95,1.37-1.37,3.58-1.37,4.95,0l.36,.36c1.37,1.37,1.37,3.58,0,4.95-.68,.68-1.58,1.03-2.48,1.03Zm-15.44-15.44c-.9,0-1.79-.34-2.48-1.03-.62-.62-1.4-1.4-1.4-2.85,0-1.93,1.57-3.5,3.5-3.5,.99,0,1.88,.41,2.52,1.07l.33,.33c1.37,1.37,1.37,3.58,0,4.95-.68,.68-1.58,1.03-2.48,1.03Zm3.13-3.88h0Z"/></g><rect class="d" width="1390.41" height="1390.41"/></g></g></svg>