<?xml version="1.0" encoding="UTF-8"?><svg xmlns="http://www.w3.org/2000/svg" viewBox="0 0 1390.41 1390.41"><defs><style>.d{fill:none;}</style></defs><g id="a"/><g id="b"><g id="c"><g><rect class="d" width="1390.41" height="1390.41"/><g><path d="M968.07,255.35l-.25,.44c-.96,1.68-3.1,2.25-4.78,1.29-1.68-.96-2.25-3.1-1.29-4.78l.25-.44c.96-1.68,3.1-2.25,4.78-1.29,.84,.48,1.4,1.26,1.63,2.12s.14,1.82-.35,2.66Zm-10.78,18.74l-.25,.44c-.96,1.68-3.1,2.25-4.78,1.29-1.68-.96-2.25-3.1-1.29-4.78l.25-.44c.96-1.68,3.1-2.25,4.78-1.29,.84,.48,1.4,1.26,1.63,2.12s.14,1.82-.35,2.66Zm-9.08-21.05c0,1.93-1.57,3.5-3.51,3.49h-.5c-1.93,0-3.5-1.57-3.5-3.5,0-1.93,1.57-3.5,3.5-3.5h.51c1.61,0,2.97,1.1,3.37,2.59,.08,.29,.12,.6,.12,.92Zm-1.7,39.79l-.25,.44c-.96,1.68-3.1,2.25-4.78,1.29-1.68-.96-2.25-3.1-1.29-4.78l.25-.44c.96-1.68,3.1-2.25,4.78-1.29,.84,.48,1.4,1.26,1.63,2.12s.14,1.82-.35,2.66Zm-20.03-39.79c0,1.93-1.55,3.51-3.48,3.51h-.51c-1.93,0-3.5-1.56-3.51-3.49,0-1.93,1.56-3.5,3.5-3.51h.49c1.62,0,2.99,1.09,3.39,2.59,.08,.29,.12,.59,.12,.9Zm9.25,58.52l-.25,.44c-.96,1.68-3.1,2.25-4.78,1.29-1.68-.96-2.25-3.1-1.29-4.78l.25-.44c.96-1.68,3.1-2.25,4.78-1.29,.84,.48,1.4,1.26,1.63,2.12s.14,1.82-.35,2.66Zm-10.78,18.73l-.25,.44c-.96,1.68-3.1,2.25-4.78,1.29-1.68-.96-2.25-3.1-1.29-4.78l.25-.44c.96-1.68,3.1-2.25,4.78-1.29,.84,.48,1.4,1.26,1.63,2.12,.23,.86,.14,1.82-.35,2.66Zm-20.18-77.21c0,1.93-1.57,3.5-3.5,3.5h-.5c-1.93,0-3.5-1.56-3.51-3.49,0-1.93,1.56-3.5,3.5-3.51h.51c1.62,0,2.98,1.1,3.38,2.59,.08,.29,.12,.6,.12,.91Zm9.4,95.95l-.25,.44c-.96,1.68-3.1,2.25-4.78,1.29-1.68-.96-2.25-3.1-1.29-4.78l.25-.44c.96-1.68,3.1-2.25,4.78-1.29,.84,.48,1.4,1.26,1.63,2.12s.14,1.82-.35,2.66Zm-31.1-95.92c0,1.93-1.57,3.5-3.5,3.5h-.5c-1.93,0-3.5-1.56-3.51-3.49,0-1.93,1.56-3.5,3.5-3.51h.51c1.62,0,2.98,1.1,3.38,2.59,.08,.29,.12,.6,.12,.91Zm20.32,114.65l-.25,.44c-.96,1.68-3.1,2.25-4.78,1.29-1.68-.96-2.25-3.1-1.29-4.78l.25-.44c.96-1.68,3.1-2.25,4.78-1.29,.84,.48,1.4,1.26,1.63,2.12s.14,1.82-.35,2.66Zm-42.01-114.63c0,1.93-1.56,3.5-3.5,3.51h-.5c-1.93,0-3.5-1.56-3.51-3.49,0-1.93,1.56-3.5,3.5-3.51h.5c1.62,0,2.98,1.09,3.38,2.59,.08,.29,.12,.59,.12,.91Zm31.23,133.36l-.25,.44c-.96,1.68-3.1,2.25-4.78,1.29-1.68-.96-2.25-3.1-1.29-4.78l.25-.44c.96-1.68,3.1-2.25,4.78-1.29,.84,.48,1.4,1.26,1.63,2.12,.23,.86,.14,1.82-.35,2.66Zm-10.78,18.73l-.25,.44c-.96,1.68-3.1,2.25-4.78,1.29-1.68-.96-2.25-3.1-1.29-4.78l.25-.44c.96-1.68,3.1-2.25,4.78-1.29,.84,.48,1.4,1.26,1.63,2.12s.14,1.82-.35,2.66Zm-42.13-152.07c0,1.93-1.56,3.5-3.5,3.51h-.5c-1.93,0-3.5-1.57-3.5-3.49,0-1.93,1.56-3.5,3.5-3.51h.5c1.62,0,2.98,1.09,3.38,2.59,.08,.29,.12,.59,.12,.91Zm31.35,170.8l-.25,.44c-.96,1.68-3.1,2.25-4.78,1.29-1.68-.96-2.25-3.1-1.29-4.78l.25-.44c.96-1.68,3.1-2.25,4.78-1.29,.84,.48,1.4,1.26,1.63,2.12s.14,1.82-.35,2.66Zm-53.02-170.76c0,1.93-1.57,3.5-3.5,3.5h-.5c-1.93,0-3.5-1.56-3.51-3.49,0-1.93,1.56-3.5,3.5-3.51h.51c1.62,0,2.98,1.1,3.38,2.59,.08,.29,.12,.6,.12,.91Zm42.24,189.5l-.25,.44c-.96,1.68-3.1,2.25-4.78,1.29-1.68-.96-2.25-3.1-1.29-4.78l.25-.44c.96-1.68,3.1-2.25,4.78-1.29,.84,.48,1.4,1.26,1.63,2.12,.23,.86,.14,1.82-.35,2.66Zm-63.91-189.47c0,1.93-1.57,3.5-3.5,3.5h-.5c-1.93,0-3.5-1.56-3.51-3.49,0-1.93,1.56-3.5,3.5-3.51h.51c1.62,0,2.98,1.1,3.38,2.59,.08,.29,.12,.6,.12,.91Zm53.14,208.2l-.25,.44c-.96,1.68-3.1,2.25-4.78,1.29-1.68-.96-2.25-3.1-1.29-4.78l.25-.44c.96-1.68,3.1-2.25,4.78-1.29,.84,.48,1.4,1.26,1.63,2.12s.14,1.82-.35,2.66Zm-10.78,18.74l-.25,.44c-.96,1.68-3.1,2.25-4.78,1.29-1.68-.96-2.25-3.1-1.29-4.78l.25-.44c.96-1.68,3.1-2.25,4.78-1.29,.84,.48,1.4,1.26,1.63,2.12s.14,1.82-.35,2.66Zm-64.02-226.92c0,1.93-1.56,3.5-3.49,3.51h-.51c-1.93,0-3.5-1.56-3.51-3.49,0-1.93,1.56-3.5,3.5-3.51h.5c1.62,0,2.99,1.09,3.39,2.59,.08,.29,.12,.59,.12,.9Zm53.24,245.65l-.25,.44c-.96,1.68-3.1,2.25-4.78,1.29-1.68-.96-2.25-3.1-1.29-4.78l.25-.44c.96-1.68,3.1-2.25,4.78-1.29,.84,.48,1.4,1.26,1.63,2.12s.14,1.82-.35,2.66Zm-74.91-245.62c0,1.93-1.56,3.5-3.49,3.51h-.51c-1.93,0-3.5-1.56-3.51-3.49,0-1.93,1.56-3.5,3.5-3.51h.5c1.62,0,2.99,1.09,3.39,2.59,.08,.29,.12,.59,.12,.9Zm64.13,264.35l-.25,.44c-.96,1.68-3.1,2.25-4.78,1.29-1.68-.96-2.25-3.1-1.29-4.78l.25-.44c.96-1.68,3.1-2.25,4.78-1.29,.84,.48,1.4,1.26,1.63,2.12s.14,1.82-.35,2.66Zm-85.8-264.32c0,1.93-1.56,3.5-3.49,3.51h-.51c-1.93,0-3.5-1.56-3.51-3.49,0-1.93,1.56-3.5,3.5-3.51h.5c1.62,0,2.99,1.09,3.39,2.59,.08,.29,.12,.59,.12,.9Zm75.02,283.05l-.25,.44c-.96,1.68-3.1,2.25-4.78,1.29-1.68-.96-2.25-3.1-1.29-4.78l.25-.44c.96-1.68,3.1-2.25,4.78-1.29,.84,.48,1.4,1.26,1.63,2.12,.23,.86,.14,1.82-.35,2.66Zm-10.78,18.73l-.25,.44c-.96,1.68-3.1,2.25-4.78,1.29-1.68-.96-2.25-3.1-1.29-4.78l.25-.44c.96-1.68,3.1-2.25,4.78-1.29,.84,.48,1.4,1.26,1.63,2.12s.14,1.82-.35,2.66Zm-10.78,18.73l-.25,.44c-.96,1.68-3.1,2.25-4.78,1.29-1.68-.96-2.25-3.1-1.29-4.78l.25-.44c.96-1.68,3.1-2.25,4.78-1.29,.84,.48,1.4,1.26,1.63,2.12s.14,1.82-.35,2.66Zm-96.8-320.45c0,1.93-1.56,3.5-3.5,3.51h-.5c-1.93,0-3.5-1.56-3.51-3.49,0-1.93,1.56-3.5,3.5-3.51h.5c1.62,0,2.98,1.09,3.38,2.59,.08,.29,.12,.59,.12,.91Zm86.02,339.19l-.25,.44c-.96,1.68-3.1,2.25-4.78,1.29-1.68-.96-2.25-3.1-1.29-4.78l.25-.44c.96-1.68,3.1-2.25,4.78-1.29,.84,.48,1.4,1.26,1.63,2.12s.14,1.82-.35,2.66Zm-10.78,18.73l-.25,.44c-.96,1.68-3.1,2.26-4.78,1.29-1.68-.96-2.25-3.1-1.29-4.78l.25-.44c.96-1.68,3.1-2.26,4.78-1.29,.84,.48,1.4,1.26,1.64,2.13s.14,1.82-.34,2.65Zm-96.91-357.89c0,1.93-1.56,3.5-3.49,3.51h-.51c-1.93,0-3.5-1.56-3.51-3.49,0-1.93,1.56-3.5,3.5-3.51h.5c1.62,0,2.99,1.09,3.39,2.59,.08,.29,.12,.59,.12,.9Zm86.13,376.63l-.25,.44c-.96,1.68-3.1,2.25-4.78,1.29-1.68-.96-2.25-3.1-1.29-4.78l.25-.44c.96-1.68,3.1-2.25,4.78-1.29,.84,.48,1.4,1.26,1.63,2.12s.14,1.82-.35,2.66Zm-107.8-376.6c0,1.93-1.56,3.5-3.49,3.51h-.51c-1.93,0-3.5-1.56-3.51-3.49,0-1.93,1.56-3.5,3.5-3.51h.5c1.62,0,2.99,1.09,3.39,2.59,.08,.29,.12,.59,.12,.9Zm97.02,395.33l-.25,.44c-.96,1.68-3.1,2.25-4.78,1.29-1.68-.96-2.25-3.1-1.29-4.78l.25-.44c.96-1.68,3.1-2.25,4.78-1.29,.84,.48,1.4,1.26,1.63,2.12s.14,1.82-.35,2.66Zm-118.69-395.3c0,1.93-1.56,3.5-3.49,3.51h-.51c-1.93,0-3.5-1.56-3.51-3.49,0-1.93,1.56-3.5,3.5-3.51h.5c1.62,0,2.99,1.09,3.39,2.59,.08,.29,.12,.59,.12,.9Zm107.91,414.03l-.25,.44c-.96,1.68-3.1,2.25-4.78,1.29-1.68-.96-2.25-3.1-1.29-4.78l.25-.44c.96-1.68,3.1-2.25,4.78-1.29,.84,.48,1.4,1.26,1.63,2.12s.14,1.82-.35,2.66Zm-10.78,18.74l-.25,.44c-.96,1.68-3.1,2.25-4.78,1.29-1.68-.96-2.25-3.1-1.29-4.78l.25-.44c.96-1.68,3.1-2.25,4.78-1.29,.84,.48,1.4,1.26,1.63,2.12s.14,1.82-.35,2.66Zm-118.8-432.73c0,1.93-1.56,3.5-3.49,3.51h-.51c-1.93,0-3.5-1.57-3.51-3.49,0-1.93,1.56-3.5,3.5-3.51h.5c1.62,0,2.99,1.09,3.39,2.59,.08,.29,.12,.59,.12,.9Zm106.46,448.55c-.85,1.74-2.95,2.45-4.68,1.6-.33-.16-.64-.35-.94-.56-1.57-1.13-1.93-3.32-.8-4.88,1.12-1.56,3.28-1.92,4.85-.82,.92,.46,1.55,1.29,1.8,2.22,.21,.79,.15,1.66-.24,2.45Zm-128.14-448.52c0,1.93-1.56,3.5-3.49,3.51h-.51c-1.93,0-3.5-1.56-3.51-3.49,0-1.93,1.56-3.5,3.5-3.51h.5c1.62,0,2.99,1.09,3.39,2.59,.08,.29,.12,.59,.12,.9Zm104.51,412.62c-1.67,.97-3.81,.39-4.78-1.28l-.24-.42c-.97-1.67-.41-3.81,1.26-4.79,1.67-.97,3.81-.41,4.79,1.26l.26,.45c.16,.27,.27,.55,.35,.84,.4,1.49-.23,3.13-1.63,3.94Zm-10.89-18.78c-1.67,.97-3.81,.39-4.78-1.29l-.24-.42c-.98-1.67-.41-3.81,1.26-4.79,1.67-.97,3.81-.41,4.79,1.26l.26,.45c.16,.27,.27,.55,.35,.84,.4,1.5-.23,3.13-1.63,3.94Zm-10.88-18.77c-1.67,.97-3.81,.39-4.78-1.29l-.24-.42c-.97-1.67-.41-3.81,1.26-4.79,1.67-.97,3.81-.41,4.79,1.26l.26,.45c.16,.27,.27,.55,.35,.84,.4,1.5-.23,3.13-1.63,3.94Zm-10.87-18.76c-1.67,.97-3.81,.39-4.78-1.29l-.24-.41c-.98-1.67-.42-3.81,1.25-4.79,1.67-.98,3.81-.42,4.79,1.25l.26,.46c.16,.27,.27,.55,.35,.84,.4,1.5-.23,3.13-1.63,3.94Zm-93.55-356.27c0,1.93-1.56,3.5-3.49,3.51h-.51c-1.93,0-3.5-1.56-3.51-3.49,0-1.93,1.56-3.5,3.5-3.51h.5c1.62,0,2.99,1.09,3.39,2.59,.08,.29,.12,.59,.12,.9Zm82.68,337.51c-1.67,.97-3.81,.39-4.78-1.29l-.24-.41c-.98-1.67-.42-3.81,1.25-4.79,1.67-.98,3.81-.42,4.79,1.25l.26,.46c.16,.27,.27,.55,.35,.84,.4,1.5-.23,3.13-1.63,3.94Zm-10.87-18.75c-1.67,.97-3.81,.39-4.78-1.29l-.24-.41c-.98-1.67-.42-3.81,1.25-4.79,1.67-.98,3.81-.42,4.79,1.25l.26,.46c.16,.27,.27,.55,.35,.84,.4,1.5-.23,3.13-1.63,3.94Zm-10.87-18.75c-1.67,.97-3.81,.39-4.78-1.29l-.24-.41c-.98-1.67-.42-3.81,1.25-4.79,1.67-.98,3.81-.42,4.79,1.25l.26,.46c.16,.27,.27,.55,.35,.84,.4,1.5-.23,3.13-1.63,3.94Zm-82.63-299.97c0,1.93-1.55,3.51-3.48,3.51h-.51c-1.93,0-3.5-1.56-3.5-3.49,0-1.93,1.56-3.5,3.5-3.51h.49c1.62,0,2.99,1.09,3.39,2.59,.08,.29,.12,.59,.12,.9Zm71.77,281.22c-1.67,.97-3.81,.39-4.78-1.29l-.24-.41c-.98-1.67-.42-3.81,1.25-4.79s3.81-.42,4.79,1.25l.26,.46c.16,.27,.27,.55,.35,.84,.4,1.5-.23,3.13-1.63,3.94Zm-10.86-18.75c-1.67,.97-3.81,.39-4.78-1.29l-.24-.41c-.98-1.67-.42-3.81,1.25-4.79,1.67-.98,3.81-.42,4.79,1.25l.26,.46c.16,.27,.27,.55,.35,.84,.4,1.5-.23,3.13-1.63,3.94Zm-10.86-18.75c-1.67,.97-3.81,.39-4.78-1.29l-.24-.42c-.97-1.67-.41-3.81,1.26-4.79,1.67-.97,3.81-.41,4.79,1.26l.26,.45c.16,.27,.27,.55,.35,.84,.4,1.5-.23,3.13-1.63,3.94Zm-10.87-18.76c-1.67,.97-3.81,.39-4.78-1.29l-.24-.41c-.98-1.67-.42-3.81,1.25-4.79,1.67-.98,3.81-.42,4.79,1.25l.26,.46c.16,.27,.27,.55,.35,.84,.4,1.5-.23,3.13-1.63,3.94Zm-60.87-224.94c0,1.93-1.55,3.51-3.48,3.51h-.51c-1.93,0-3.5-1.56-3.5-3.49,0-1.93,1.56-3.5,3.5-3.51h.49c1.62,0,2.99,1.09,3.39,2.59,.08,.29,.12,.59,.12,.9Zm50.01,206.19c-1.67,.97-3.81,.39-4.78-1.29l-.24-.41c-.98-1.67-.42-3.81,1.25-4.79,1.67-.98,3.81-.42,4.79,1.25l.26,.46c.16,.27,.27,.55,.35,.84,.4,1.5-.23,3.13-1.63,3.94Zm-10.86-18.75c-1.67,.96-3.81,.39-4.78-1.29l-.24-.42c-.97-1.67-.41-3.81,1.26-4.79,1.67-.97,3.81-.41,4.79,1.26l.26,.45c.16,.27,.27,.55,.35,.84,.4,1.5-.23,3.13-1.63,3.94Zm-10.86-18.75c-1.67,.96-3.81,.39-4.78-1.29l-.24-.42c-.98-1.67-.41-3.81,1.26-4.79,1.67-.98,3.81-.41,4.79,1.26l.26,.45c.16,.27,.27,.55,.35,.84,.4,1.5-.23,3.13-1.63,3.94Zm-10.86-18.75c-1.67,.96-3.81,.39-4.78-1.29l-.24-.42c-.98-1.67-.41-3.81,1.26-4.79,1.67-.98,3.81-.41,4.79,1.26l.26,.45c.16,.27,.27,.55,.35,.84,.4,1.5-.23,3.13-1.63,3.94Zm-39.13-149.9c0,1.93-1.56,3.5-3.5,3.51h-.51c-1.93,0-3.5-1.56-3.5-3.5,0-1.93,1.57-3.5,3.5-3.5h.5c1.62,0,2.98,1.09,3.38,2.59,.08,.29,.12,.59,.12,.91Zm28.27,131.15c-1.67,.96-3.81,.39-4.78-1.29l-.24-.42c-.98-1.67-.41-3.81,1.26-4.79,1.67-.98,3.81-.41,4.79,1.26l.26,.45c.16,.27,.27,.55,.35,.84,.4,1.5-.23,3.13-1.63,3.94Zm-10.86-18.76c-1.67,.96-3.81,.39-4.78-1.29l-.24-.41c-.98-1.67-.41-3.81,1.25-4.79,1.67-.98,3.81-.42,4.79,1.25l.26,.46c.16,.27,.27,.55,.35,.84,.4,1.5-.23,3.13-1.63,3.94Zm-10.87-18.76c-1.67,.96-3.81,.39-4.78-1.29l-.24-.41c-.98-1.67-.41-3.81,1.25-4.79,1.67-.98,3.81-.42,4.79,1.25l.26,.46c.16,.27,.27,.55,.35,.84,.4,1.5-.23,3.13-1.63,3.94Zm-28.27-93.6c0,1.93-1.56,3.5-3.49,3.51h-.5c-1.93,0-3.5-1.56-3.51-3.49,0-1.93,1.56-3.5,3.49-3.51h.5c1.62,0,2.99,1.09,3.39,2.59,.08,.29,.12,.59,.12,.9Zm17.4,74.84c-1.67,.96-3.81,.39-4.78-1.29l-.24-.42c-.98-1.67-.41-3.81,1.26-4.79,1.67-.98,3.81-.41,4.79,1.26l.26,.45c.16,.27,.27,.55,.35,.84,.4,1.5-.23,3.13-1.63,3.94Zm-10.87-18.78c-1.67,.96-3.81,.39-4.78-1.29l-.24-.41c-.97-1.67-.41-3.81,1.25-4.79,1.67-.98,3.81-.42,4.79,1.25l.26,.46c.16,.27,.27,.55,.35,.84,.4,1.5-.23,3.13-1.63,3.94Zm-10.88-18.79c-1.67,.96-3.81,.39-4.78-1.29l-.24-.41c-.98-1.67-.42-3.81,1.25-4.79,1.67-.98,3.81-.42,4.79,1.25l.26,.46c.16,.27,.27,.55,.35,.84,.4,1.5-.23,3.13-1.63,3.94Zm-10.88-18.82c-1.67,.97-3.81,.4-4.78-1.27l-.25-.44c-.97-1.67-.4-3.81,1.28-4.78,1.67-.97,3.81-.4,4.78,1.28l.25,.43c.16,.27,.28,.56,.35,.85,.4,1.49-.22,3.12-1.62,3.94Zm-6.61-18.4c0,1.93-1.57,3.5-3.5,3.5h-.1c-2.7,0-3.54-1.62-3.8-2.59-.5-1.87,.6-3.79,2.47-4.29,.34-.09,.67-.13,1-.12h.44c1.62,0,2.98,1.1,3.38,2.59,.08,.29,.12,.6,.12,.92Zm245.58,430.91c-1.67,.97-3.81,.39-4.78-1.28l-.24-.42c-.97-1.67-.41-3.81,1.26-4.79,1.67-.97,3.81-.41,4.79,1.26l.26,.45c.16,.27,.27,.55,.35,.84,.4,1.49-.23,3.13-1.63,3.94Z"/><path d="M750.54,180.75l-.25,.44c-.96,1.68-3.1,2.25-4.78,1.29-1.68-.96-2.25-3.1-1.29-4.78l.25-.44c.96-1.68,3.1-2.25,4.78-1.29,.84,.48,1.4,1.26,1.63,2.12,.23,.86,.14,1.82-.35,2.66Zm-10.78,18.73l-.25,.44c-.96,1.68-3.1,2.25-4.78,1.29-1.68-.96-2.25-3.1-1.29-4.78l.25-.44c.96-1.68,3.1-2.25,4.78-1.29,.84,.48,1.4,1.26,1.63,2.12s.14,1.82-.35,2.66Zm-10.78,18.73l-.25,.44c-.96,1.68-3.1,2.25-4.78,1.29-1.68-.96-2.25-3.1-1.29-4.78l.25-.44c.96-1.68,3.1-2.25,4.78-1.29,.84,.48,1.4,1.26,1.63,2.12s.14,1.82-.35,2.66Zm-10.78,18.73l-.25,.44c-.96,1.68-3.1,2.25-4.78,1.29-1.68-.96-2.25-3.1-1.29-4.78l.25-.44c.96-1.68,3.1-2.25,4.78-1.29,.84,.48,1.4,1.26,1.63,2.12,.23,.86,.14,1.82-.35,2.66Zm-8.78,18.73l-.25,.44c-.96,1.68-3.1,2.25-4.78,1.29-1.68-.96-2.25-3.1-1.29-4.78l.25-.44c.96-1.68,3.1-2.25,4.78-1.29,.84,.48,1.4,1.26,1.63,2.12s.14,1.82-.35,2.66Zm-12.78,18.73l-.25,.44c-.96,1.68-3.1,2.25-4.78,1.29-1.68-.96-2.25-3.1-1.29-4.78l.25-.44c.96-1.68,3.1-2.25,4.78-1.29,.84,.48,1.4,1.26,1.63,2.12s.14,1.82-.35,2.66Zm-10.78,18.74l-.25,.44c-.96,1.68-3.1,2.25-4.78,1.29-1.68-.96-2.25-3.1-1.29-4.78l.25-.44c.96-1.68,3.1-2.25,4.78-1.29,.84,.48,1.4,1.26,1.63,2.12s.14,1.82-.35,2.66Zm-10.78,18.73l-.25,.44c-.96,1.68-3.1,2.25-4.78,1.29-1.68-.96-2.25-3.1-1.29-4.78l.25-.44c.96-1.68,3.1-2.25,4.78-1.29,.84,.48,1.4,1.26,1.63,2.12s.14,1.82-.35,2.66Zm-42.13-152.07c0,1.93-1.56,3.5-3.5,3.51h-.5c-1.93,0-3.5-1.57-3.5-3.49,0-1.93,1.56-3.5,3.5-3.51h.5c1.62,0,2.98,1.09,3.38,2.59,.08,.29,.12,.59,.12,.91Zm31.35,170.8l-.25,.44c-.96,1.68-3.1,2.25-4.78,1.29-1.68-.96-2.25-3.1-1.29-4.78l.25-.44c.96-1.68,3.1-2.25,4.78-1.29,.84,.48,1.4,1.26,1.63,2.12s.14,1.82-.35,2.66Zm-53.02-170.76c0,1.93-1.57,3.5-3.5,3.5h-.5c-1.93,0-3.5-1.56-3.51-3.49,0-1.93,1.56-3.5,3.5-3.51h.51c1.62,0,2.98,1.1,3.38,2.59,.08,.29,.12,.6,.12,.91Zm42.24,189.5l-.25,.44c-.96,1.68-3.1,2.25-4.78,1.29-1.68-.96-2.25-3.1-1.29-4.78l.25-.44c.96-1.68,3.1-2.25,4.78-1.29,.84,.48,1.4,1.26,1.63,2.12s.14,1.82-.35,2.66Zm-63.91-189.47c0,1.93-1.57,3.5-3.5,3.5h-.5c-1.93,0-3.5-1.56-3.51-3.49,0-1.93,1.56-3.5,3.5-3.51h.51c1.62,0,2.98,1.1,3.38,2.59,.08,.29,.12,.6,.12,.91Zm53.14,208.2l-.25,.44c-.96,1.68-3.1,2.25-4.78,1.29-1.68-.96-2.25-3.1-1.29-4.78l.25-.44c.96-1.68,3.1-2.25,4.78-1.29,.84,.48,1.4,1.26,1.63,2.12,.23,.86,.14,1.82-.35,2.66Zm-10.78,18.74l-.25,.44c-.96,1.68-3.1,2.25-4.78,1.29-1.68-.96-2.25-3.1-1.29-4.78l.25-.44c.96-1.68,3.1-2.25,4.78-1.29,.84,.48,1.4,1.26,1.63,2.12s.14,1.82-.35,2.66Zm-64.02-226.92c0,1.93-1.56,3.5-3.49,3.51h-.51c-1.93,0-3.5-1.56-3.51-3.49,0-1.93,1.56-3.5,3.5-3.51h.5c1.62,0,2.99,1.09,3.39,2.59,.08,.29,.12,.59,.12,.9Zm53.24,245.65l-.25,.44c-.96,1.68-3.1,2.25-4.78,1.29-1.68-.96-2.25-3.1-1.29-4.78l.25-.44c.96-1.68,3.1-2.25,4.78-1.29,.84,.48,1.4,1.26,1.63,2.12s.14,1.82-.35,2.66Zm-74.91-245.62c0,1.93-1.56,3.5-3.49,3.51h-.51c-1.93,0-3.5-1.56-3.51-3.49,0-1.93,1.56-3.5,3.5-3.51h.5c1.62,0,2.99,1.09,3.39,2.59,.08,.29,.12,.59,.12,.9Zm64.13,264.35l-.25,.44c-.96,1.68-3.1,2.25-4.78,1.29-1.68-.96-2.25-3.1-1.29-4.78l.25-.44c.96-1.68,3.1-2.25,4.78-1.29,.84,.48,1.4,1.26,1.63,2.12s.14,1.82-.35,2.66Zm-85.8-264.32c0,1.93-1.56,3.5-3.49,3.51h-.51c-1.93,0-3.5-1.56-3.51-3.49,0-1.93,1.56-3.5,3.5-3.51h.5c1.62,0,2.99,1.09,3.39,2.59,.08,.29,.12,.59,.12,.9Zm75.02,283.05l-.25,.44c-.96,1.68-3.1,2.25-4.78,1.29-1.68-.96-2.25-3.1-1.29-4.78l.25-.44c.96-1.68,3.1-2.25,4.78-1.29,.84,.48,1.4,1.26,1.63,2.12,.23,.86,.14,1.82-.35,2.66Zm-10.78,18.73l-.25,.44c-.96,1.68-3.1,2.25-4.78,1.29-1.68-.96-2.25-3.1-1.29-4.78l.25-.44c.96-1.68,3.1-2.25,4.78-1.29,.84,.48,1.4,1.26,1.63,2.12s.14,1.82-.35,2.66Zm-85.9-301.76c0,1.93-1.56,3.5-3.49,3.51h-.51c-1.93,0-3.5-1.56-3.51-3.49,0-1.93,1.56-3.5,3.5-3.51h.5c1.62,0,2.99,1.09,3.39,2.59,.08,.29,.12,.59,.12,.9Zm75.13,320.49l-.25,.44c-.96,1.68-3.1,2.25-4.78,1.29-1.68-.96-2.25-3.1-1.29-4.78l.25-.44c.96-1.68,3.1-2.25,4.78-1.29,.84,.48,1.4,1.26,1.63,2.12s.14,1.82-.35,2.66Zm-96.8-320.45c0,1.93-1.56,3.5-3.5,3.51h-.5c-1.93,0-3.5-1.56-3.51-3.49,0-1.93,1.56-3.5,3.5-3.51h.5c1.62,0,2.98,1.09,3.38,2.59,.08,.29,.12,.59,.12,.91Zm86.02,339.19l-.25,.44c-.96,1.68-3.1,2.25-4.78,1.29-1.68-.96-2.25-3.1-1.29-4.78l.25-.44c.96-1.68,3.1-2.25,4.78-1.29,.84,.48,1.4,1.26,1.63,2.12s.14,1.82-.35,2.66Zm-10.78,18.73l-.25,.44c-.96,1.68-3.1,2.26-4.78,1.29-1.68-.96-2.25-3.1-1.29-4.78l.25-.44c.96-1.68,3.1-2.26,4.78-1.29,.84,.48,1.4,1.26,1.64,2.13s.14,1.82-.34,2.65Zm-96.91-357.89c0,1.93-1.56,3.5-3.49,3.51h-.51c-1.93,0-3.5-1.56-3.51-3.49,0-1.93,1.56-3.5,3.5-3.51h.5c1.62,0,2.99,1.09,3.39,2.59,.08,.29,.12,.59,.12,.9Zm86.13,376.63l-.25,.44c-.96,1.68-3.1,2.25-4.78,1.29-1.68-.96-2.25-3.1-1.29-4.78l.25-.44c.96-1.68,3.1-2.25,4.78-1.29,.84,.48,1.4,1.26,1.63,2.12,.23,.86,.14,1.82-.35,2.66Zm-107.8-376.6c0,1.93-1.56,3.5-3.49,3.51h-.51c-1.93,0-3.5-1.56-3.51-3.49,0-1.93,1.56-3.5,3.5-3.51h.5c1.62,0,2.99,1.09,3.39,2.59,.08,.29,.12,.59,.12,.9Zm97.02,395.33l-.25,.44c-.96,1.68-3.1,2.25-4.78,1.29-1.68-.96-2.25-3.1-1.29-4.78l.25-.44c.96-1.68,3.1-2.25,4.78-1.29,.84,.48,1.4,1.26,1.63,2.12s.14,1.82-.35,2.66Zm-118.69-395.3c0,1.93-1.56,3.5-3.49,3.51h-.51c-1.93,0-3.5-1.56-3.51-3.49,0-1.93,1.56-3.5,3.5-3.51h.5c1.62,0,2.99,1.09,3.39,2.59,.08,.29,.12,.59,.12,.9Zm107.91,414.03l-.25,.44c-.96,1.68-3.1,2.25-4.78,1.29-1.68-.96-2.25-3.1-1.29-4.78l.25-.44c.96-1.68,3.1-2.25,4.78-1.29,.84,.48,1.4,1.26,1.63,2.12s.14,1.82-.35,2.66Zm-10.78,18.74l-.25,.44c-.96,1.68-3.1,2.25-4.78,1.29-1.68-.96-2.25-3.1-1.29-4.78l.25-.44c.96-1.68,3.1-2.25,4.78-1.29,.84,.48,1.4,1.26,1.63,2.12s.14,1.82-.35,2.66Zm-118.8-432.73c0,1.93-1.56,3.5-3.49,3.51h-.51c-1.93,0-3.5-1.57-3.51-3.49,0-1.93,1.56-3.5,3.5-3.51h.5c1.62,0,2.99,1.09,3.39,2.59,.08,.29,.12,.59,.12,.9Zm106.46,448.55c-.85,1.74-2.95,2.45-4.68,1.6-.33-.16-.64-.35-.94-.56-1.57-1.13-1.93-3.32-.8-4.88,1.12-1.56,3.28-1.92,4.85-.82,.92,.46,1.55,1.29,1.8,2.22,.21,.79,.15,1.66-.24,2.45ZM372.91,160.22c0,1.93-1.56,3.5-3.49,3.51h-.51c-1.93,0-3.5-1.56-3.51-3.49,0-1.93,1.56-3.5,3.5-3.51h.5c1.62,0,2.99,1.09,3.39,2.59,.08,.29,.12,.59,.12,.9Zm104.51,412.62c-1.67,.97-3.81,.39-4.78-1.28l-.24-.42c-.97-1.67-.41-3.81,1.26-4.79,1.67-.97,3.81-.41,4.79,1.26l.26,.45c.16,.27,.27,.55,.35,.84,.4,1.49-.23,3.13-1.63,3.94Zm-10.89-18.78c-1.67,.97-3.81,.39-4.78-1.29l-.24-.42c-.98-1.67-.41-3.81,1.26-4.79,1.67-.97,3.81-.41,4.79,1.26l.26,.45c.16,.27,.27,.55,.35,.84,.4,1.5-.23,3.13-1.63,3.94Zm-10.88-18.77c-1.67,.97-3.81,.39-4.78-1.29l-.24-.42c-.97-1.67-.41-3.81,1.26-4.79,1.67-.97,3.81-.41,4.79,1.26l.26,.45c.16,.27,.27,.55,.35,.84,.4,1.5-.23,3.13-1.63,3.94Zm-10.87-18.76c-1.67,.97-3.81,.39-4.78-1.29l-.24-.41c-.98-1.67-.42-3.81,1.25-4.79,1.67-.98,3.81-.42,4.79,1.25l.26,.46c.16,.27,.27,.55,.35,.84,.4,1.5-.23,3.13-1.63,3.94Zm-93.55-356.27c0,1.93-1.56,3.5-3.49,3.51h-.51c-1.93,0-3.5-1.56-3.51-3.49,0-1.93,1.56-3.5,3.5-3.51h.5c1.62,0,2.99,1.09,3.39,2.59,.08,.29,.12,.59,.12,.9Zm82.68,337.51c-1.67,.97-3.81,.39-4.78-1.29l-.24-.41c-.98-1.67-.42-3.81,1.25-4.79,1.67-.98,3.81-.42,4.79,1.25l.26,.46c.16,.27,.27,.55,.35,.84,.4,1.5-.23,3.13-1.63,3.94Zm-10.87-18.75c-1.67,.97-3.81,.39-4.78-1.29l-.24-.41c-.98-1.67-.42-3.81,1.25-4.79s3.81-.42,4.79,1.25l.26,.46c.16,.27,.27,.55,.35,.84,.4,1.5-.23,3.13-1.63,3.94Zm-10.87-18.75c-1.67,.97-3.81,.39-4.78-1.29l-.24-.41c-.98-1.67-.42-3.81,1.25-4.79,1.67-.98,3.81-.42,4.79,1.25l.26,.46c.16,.27,.27,.55,.35,.84,.4,1.5-.23,3.13-1.63,3.94Zm-82.63-299.97c0,1.93-1.55,3.51-3.48,3.51h-.51c-1.93,0-3.5-1.56-3.5-3.49,0-1.93,1.56-3.5,3.5-3.51h.49c1.62,0,2.99,1.09,3.39,2.59,.08,.29,.12,.59,.12,.9Zm71.77,281.22c-1.67,.97-3.81,.39-4.78-1.29l-.24-.41c-.98-1.67-.42-3.81,1.25-4.79,1.67-.98,3.81-.42,4.79,1.25l.26,.46c.16,.27,.27,.55,.35,.84,.4,1.5-.23,3.13-1.63,3.94Zm-10.86-18.75c-1.67,.97-3.81,.39-4.78-1.29l-.24-.41c-.98-1.67-.42-3.81,1.25-4.79s3.81-.42,4.79,1.25l.26,.46c.16,.27,.27,.55,.35,.84,.4,1.5-.23,3.13-1.63,3.94Zm-10.86-18.75c-1.67,.97-3.81,.39-4.78-1.29l-.24-.42c-.97-1.67-.41-3.81,1.26-4.79,1.67-.97,3.81-.41,4.79,1.26l.26,.45c.16,.27,.27,.55,.35,.84,.4,1.5-.23,3.13-1.63,3.94Zm-10.87-18.76c-1.67,.97-3.81,.39-4.78-1.29l-.24-.41c-.98-1.67-.42-3.81,1.25-4.79,1.67-.98,3.81-.42,4.79,1.25l.26,.46c.16,.27,.27,.55,.35,.84,.4,1.5-.23,3.13-1.63,3.94Zm-60.87-224.94c0,1.93-1.55,3.51-3.48,3.51h-.51c-1.93,0-3.5-1.56-3.5-3.49,0-1.93,1.56-3.5,3.5-3.51h.49c1.62,0,2.99,1.09,3.39,2.59,.08,.29,.12,.59,.12,.9Zm50.01,206.19c-1.67,.97-3.81,.39-4.78-1.29l-.24-.41c-.98-1.67-.42-3.81,1.25-4.79,1.67-.98,3.81-.42,4.79,1.25l.26,.46c.16,.27,.27,.55,.35,.84,.4,1.5-.23,3.13-1.63,3.94Zm-10.86-18.75c-1.67,.96-3.81,.39-4.78-1.29l-.24-.42c-.97-1.67-.41-3.81,1.26-4.79,1.67-.97,3.81-.41,4.79,1.26l.26,.45c.16,.27,.27,.55,.35,.84,.4,1.5-.23,3.13-1.63,3.94Zm-10.86-18.75c-1.67,.96-3.81,.39-4.78-1.29l-.24-.42c-.98-1.67-.41-3.81,1.26-4.79,1.67-.98,3.81-.41,4.79,1.26l.26,.45c.16,.27,.27,.55,.35,.84,.4,1.5-.23,3.13-1.63,3.94Zm-10.86-18.75c-1.67,.96-3.81,.39-4.78-1.29l-.24-.42c-.98-1.67-.41-3.81,1.26-4.79,1.67-.98,3.81-.41,4.79,1.26l.26,.45c.16,.27,.27,.55,.35,.84,.4,1.5-.23,3.13-1.63,3.94Zm-39.13-149.9c0,1.93-1.56,3.5-3.5,3.51h-.51c-1.93,0-3.5-1.56-3.5-3.5,0-1.93,1.57-3.5,3.5-3.5h.5c1.62,0,2.98,1.09,3.38,2.59,.08,.29,.12,.59,.12,.91Zm28.27,131.15c-1.67,.96-3.81,.39-4.78-1.29l-.24-.42c-.98-1.67-.41-3.81,1.26-4.79,1.67-.98,3.81-.41,4.79,1.26l.26,.45c.16,.27,.27,.55,.35,.84,.4,1.5-.23,3.13-1.63,3.94Zm-10.86-18.76c-1.67,.96-3.81,.39-4.78-1.29l-.24-.41c-.98-1.67-.41-3.81,1.25-4.79,1.67-.98,3.81-.42,4.79,1.25l.26,.46c.16,.27,.27,.55,.35,.84,.4,1.5-.23,3.13-1.63,3.94Zm-10.87-18.76c-1.67,.96-3.81,.39-4.78-1.29l-.24-.41c-.98-1.67-.41-3.81,1.25-4.79,1.67-.98,3.81-.42,4.79,1.25l.26,.46c.16,.27,.27,.55,.35,.84,.4,1.5-.23,3.13-1.63,3.94Zm-28.27-93.6c0,1.93-1.56,3.5-3.49,3.51h-.5c-1.93,0-3.5-1.56-3.51-3.49,0-1.93,1.56-3.5,3.49-3.51h.5c1.62,0,2.99,1.09,3.39,2.59,.08,.29,.12,.59,.12,.9Zm17.4,74.84c-1.67,.96-3.81,.39-4.78-1.29l-.24-.42c-.98-1.67-.41-3.81,1.26-4.79,1.67-.98,3.81-.41,4.79,1.26l.26,.45c.16,.27,.27,.55,.35,.84,.4,1.5-.23,3.13-1.63,3.94Zm-10.87-18.78c-1.67,.96-3.81,.39-4.78-1.29l-.24-.41c-.97-1.67-.41-3.81,1.25-4.79,1.67-.98,3.81-.42,4.79,1.25l.26,.46c.16,.27,.27,.55,.35,.84,.4,1.5-.23,3.13-1.63,3.94Zm-10.88-18.79c-1.67,.96-3.81,.39-4.78-1.29l-.24-.41c-.98-1.67-.42-3.81,1.25-4.79,1.67-.98,3.81-.42,4.79,1.25l.26,.46c.16,.27,.27,.55,.35,.84,.4,1.5-.23,3.13-1.63,3.94Zm-10.88-18.82c-1.67,.97-3.81,.4-4.78-1.27l-.25-.44c-.97-1.67-.4-3.81,1.28-4.78,1.67-.97,3.81-.4,4.78,1.28l.25,.43c.16,.27,.28,.56,.35,.85,.4,1.49-.22,3.12-1.62,3.94Zm-6.61-18.4c0,1.93-1.57,3.5-3.5,3.5h-.1c-2.7,0-3.54-1.62-3.8-2.59-.5-1.87,.6-3.79,2.47-4.29,.34-.09,.67-.13,1-.12h.44c1.62,0,2.98,1.1,3.38,2.59,.08,.29,.12,.6,.12,.92Zm245.58,430.91c-1.67,.97-3.81,.39-4.78-1.28l-.24-.42c-.97-1.67-.41-3.81,1.26-4.79,1.67-.97,3.81-.41,4.79,1.26l.26,.45c.16,.27,.27,.55,.35,.84,.4,1.49-.23,3.13-1.63,3.94Z"/><path d="M1176.82,162.02l-.25,.44c-.96,1.68-3.1,2.25-4.78,1.29-1.68-.96-2.25-3.1-1.29-4.78l.25-.44c.96-1.68,3.1-2.25,4.78-1.29,.84,.48,1.4,1.26,1.63,2.12s.14,1.82-.35,2.66Zm-10.78,18.74l-.25,.44c-.96,1.68-3.1,2.25-4.78,1.29-1.68-.96-2.25-3.1-1.29-4.78l.25-.44c.96-1.68,3.1-2.25,4.78-1.29,.84,.48,1.4,1.26,1.63,2.12,.23,.86,.14,1.82-.35,2.66Zm-9.08-21.05c0,1.93-1.57,3.5-3.51,3.49h-.5c-1.93,0-3.5-1.57-3.5-3.5,0-1.93,1.57-3.5,3.5-3.5h.51c1.61,0,2.97,1.1,3.37,2.59,.08,.29,.12,.6,.12,.92Zm-1.7,39.79l-.25,.44c-.96,1.68-3.1,2.25-4.78,1.29-1.68-.96-2.25-3.1-1.29-4.78l.25-.44c.96-1.68,3.1-2.25,4.78-1.29,.84,.48,1.4,1.26,1.63,2.12s.14,1.82-.35,2.66Zm-20.03-39.79c0,1.93-1.55,3.51-3.48,3.51h-.51c-1.93,0-3.5-1.56-3.51-3.49,0-1.93,1.56-3.5,3.5-3.51h.49c1.62,0,2.99,1.09,3.39,2.59,.08,.29,.12,.59,.12,.9Zm9.25,58.52l-.25,.44c-.96,1.68-3.1,2.25-4.78,1.29-1.68-.96-2.25-3.1-1.29-4.78l.25-.44c.96-1.68,3.1-2.25,4.78-1.29,.84,.48,1.4,1.26,1.63,2.12s.14,1.82-.35,2.66Zm-10.78,18.73l-.25,.44c-.96,1.68-3.1,2.25-4.78,1.29-1.68-.96-2.25-3.1-1.29-4.78l.25-.44c.96-1.68,3.1-2.25,4.78-1.29,.84,.48,1.4,1.26,1.63,2.12s.14,1.82-.35,2.66Zm-20.18-77.21c0,1.93-1.57,3.5-3.5,3.5h-.5c-1.93,0-3.5-1.56-3.51-3.49,0-1.93,1.56-3.5,3.5-3.51h.51c1.62,0,2.98,1.1,3.38,2.59,.08,.29,.12,.6,.12,.91Zm9.4,95.95l-.25,.44c-.96,1.68-3.1,2.25-4.78,1.29-1.68-.96-2.25-3.1-1.29-4.78l.25-.44c.96-1.68,3.1-2.25,4.78-1.29,.84,.48,1.4,1.26,1.63,2.12s.14,1.82-.35,2.66Zm-31.1-95.92c0,1.93-1.57,3.5-3.5,3.5h-.5c-1.93,0-3.5-1.56-3.51-3.49,0-1.93,1.56-3.5,3.5-3.51h.51c1.62,0,2.98,1.1,3.38,2.59,.08,.29,.12,.6,.12,.91Zm20.32,114.65l-.25,.44c-.96,1.68-3.1,2.25-4.78,1.29-1.68-.96-2.25-3.1-1.29-4.78l.25-.44c.96-1.68,3.1-2.25,4.78-1.29,.84,.48,1.4,1.26,1.63,2.12s.14,1.82-.35,2.66Zm-42.01-114.63c0,1.93-1.56,3.5-3.5,3.51h-.5c-1.93,0-3.5-1.56-3.51-3.49,0-1.93,1.56-3.5,3.5-3.51h.5c1.62,0,2.98,1.09,3.38,2.59,.08,.29,.12,.59,.12,.91Zm31.23,133.36l-.25,.44c-.96,1.68-3.1,2.25-4.78,1.29-1.68-.96-2.25-3.1-1.29-4.78l.25-.44c.96-1.68,3.1-2.25,4.78-1.29,.84,.48,1.4,1.26,1.63,2.12s.14,1.82-.35,2.66Zm-10.78,18.73l-.25,.44c-.96,1.68-3.1,2.25-4.78,1.29-1.68-.96-2.25-3.1-1.29-4.78l.25-.44c.96-1.68,3.1-2.25,4.78-1.29,.84,.48,1.4,1.26,1.63,2.12s.14,1.82-.35,2.66Zm-42.13-152.07c0,1.93-1.56,3.5-3.5,3.51h-.5c-1.93,0-3.5-1.57-3.5-3.49,0-1.93,1.56-3.5,3.5-3.51h.5c1.62,0,2.98,1.09,3.38,2.59,.08,.29,.12,.59,.12,.91Zm31.35,170.8l-.25,.44c-.96,1.68-3.1,2.25-4.78,1.29-1.68-.96-2.25-3.1-1.29-4.78l.25-.44c.96-1.68,3.1-2.25,4.78-1.29,.84,.48,1.4,1.26,1.63,2.12s.14,1.82-.35,2.66Zm-53.02-170.76c0,1.93-1.57,3.5-3.5,3.5h-.5c-1.93,0-3.5-1.56-3.51-3.49,0-1.93,1.56-3.5,3.5-3.51h.51c1.62,0,2.98,1.1,3.38,2.59,.08,.29,.12,.6,.12,.91Zm42.24,189.5l-.25,.44c-.96,1.68-3.1,2.25-4.78,1.29-1.68-.96-2.25-3.1-1.29-4.78l.25-.44c.96-1.68,3.1-2.25,4.78-1.29,.84,.48,1.4,1.26,1.63,2.12s.14,1.82-.35,2.66Zm-63.91-189.47c0,1.93-1.57,3.5-3.5,3.5h-.5c-1.93,0-3.5-1.56-3.51-3.49,0-1.93,1.56-3.5,3.5-3.51h.51c1.62,0,2.98,1.1,3.38,2.59,.08,.29,.12,.6,.12,.91Zm53.14,208.2l-.25,.44c-.96,1.68-3.1,2.25-4.78,1.29-1.68-.96-2.25-3.1-1.29-4.78l.25-.44c.96-1.68,3.1-2.25,4.78-1.29,.84,.48,1.4,1.26,1.63,2.12s.14,1.82-.35,2.66Zm-10.78,18.74l-.25,.44c-.96,1.68-3.1,2.25-4.78,1.29-1.68-.96-2.25-3.1-1.29-4.78l.25-.44c.96-1.68,3.1-2.25,4.78-1.29,.84,.48,1.4,1.26,1.63,2.12s.14,1.82-.35,2.66Zm-64.02-226.92c0,1.93-1.56,3.5-3.49,3.51h-.51c-1.93,0-3.5-1.56-3.51-3.49,0-1.93,1.56-3.5,3.5-3.51h.5c1.62,0,2.99,1.09,3.39,2.59,.08,.29,.12,.59,.12,.9Zm53.24,245.65l-.25,.44c-.96,1.68-3.1,2.25-4.78,1.29-1.68-.96-2.25-3.1-1.29-4.78l.25-.44c.96-1.68,3.1-2.25,4.78-1.29,.84,.48,1.4,1.26,1.63,2.12s.14,1.82-.35,2.66Zm-74.91-245.62c0,1.93-1.56,3.5-3.49,3.51h-.51c-1.93,0-3.5-1.56-3.51-3.49,0-1.93,1.56-3.5,3.5-3.51h.5c1.62,0,2.99,1.09,3.39,2.59,.08,.29,.12,.59,.12,.9Zm64.13,264.35l-.25,.44c-.96,1.68-3.1,2.25-4.78,1.29-1.68-.96-2.25-3.1-1.29-4.78l.25-.44c.96-1.68,3.1-2.25,4.78-1.29,.84,.48,1.4,1.26,1.63,2.12s.14,1.82-.35,2.66Zm-85.8-264.32c0,1.93-1.56,3.5-3.49,3.51h-.51c-1.93,0-3.5-1.56-3.51-3.49,0-1.93,1.56-3.5,3.5-3.51h.5c1.62,0,2.99,1.09,3.39,2.59,.08,.29,.12,.59,.12,.9Zm75.02,283.05l-.25,.44c-.96,1.68-3.1,2.25-4.78,1.29-1.68-.96-2.25-3.1-1.29-4.78l.25-.44c.96-1.68,3.1-2.25,4.78-1.29,.84,.48,1.4,1.26,1.63,2.12,.23,.86,.14,1.82-.35,2.66Zm-10.78,18.73l-.25,.44c-.96,1.68-3.1,2.25-4.78,1.29-1.68-.96-2.25-3.1-1.29-4.78l.25-.44c.96-1.68,3.1-2.25,4.78-1.29,.84,.48,1.4,1.26,1.63,2.12s.14,1.82-.35,2.66Zm-85.9-301.76c0,1.93-1.56,3.5-3.49,3.51h-.51c-1.93,0-3.5-1.56-3.51-3.49,0-1.93,1.56-3.5,3.5-3.51h.5c1.62,0,2.99,1.09,3.39,2.59,.08,.29,.12,.59,.12,.9Zm75.13,320.49l-.25,.44c-.96,1.68-3.1,2.25-4.78,1.29-1.68-.96-2.25-3.1-1.29-4.78l.25-.44c.96-1.68,3.1-2.25,4.78-1.29,.84,.48,1.4,1.26,1.63,2.12s.14,1.82-.35,2.66Zm-96.8-320.45c0,1.93-1.56,3.5-3.5,3.51h-.5c-1.93,0-3.5-1.56-3.51-3.49,0-1.93,1.56-3.5,3.5-3.51h.5c1.62,0,2.98,1.09,3.38,2.59,.08,.29,.12,.59,.12,.91Zm86.02,339.19l-.25,.44c-.96,1.68-3.1,2.25-4.78,1.29-1.68-.96-2.25-3.1-1.29-4.78l.25-.44c.96-1.68,3.1-2.25,4.78-1.29,.84,.48,1.4,1.26,1.63,2.12s.14,1.82-.35,2.66Zm-10.78,18.73l-.25,.44c-.96,1.68-3.1,2.26-4.78,1.29-1.68-.96-2.25-3.1-1.29-4.78l.25-.44c.96-1.68,3.1-2.26,4.78-1.29,.84,.48,1.4,1.26,1.64,2.13s.14,1.82-.34,2.65Zm-96.91-357.89c0,1.93-1.56,3.5-3.49,3.51h-.51c-1.93,0-3.5-1.56-3.51-3.49,0-1.93,1.56-3.5,3.5-3.51h.5c1.62,0,2.99,1.09,3.39,2.59,.08,.29,.12,.59,.12,.9Zm86.13,376.63l-.25,.44c-.96,1.68-3.1,2.25-4.78,1.29-1.68-.96-2.25-3.1-1.29-4.78l.25-.44c.96-1.68,3.1-2.25,4.78-1.29,.84,.48,1.4,1.26,1.63,2.12s.14,1.82-.35,2.66Zm-107.8-376.6c0,1.93-1.56,3.5-3.49,3.51h-.51c-1.93,0-3.5-1.56-3.51-3.49,0-1.93,1.56-3.5,3.5-3.51h.5c1.62,0,2.99,1.09,3.39,2.59,.08,.29,.12,.59,.12,.9Zm97.02,395.33l-.25,.44c-.96,1.68-3.1,2.25-4.78,1.29-1.68-.96-2.25-3.1-1.29-4.78l.25-.44c.96-1.68,3.1-2.25,4.78-1.29,.84,.48,1.4,1.26,1.63,2.12,.23,.86,.14,1.82-.35,2.66Zm-118.69-395.3c0,1.93-1.56,3.5-3.49,3.51h-.51c-1.93,0-3.5-1.56-3.51-3.49,0-1.93,1.56-3.5,3.5-3.51h.5c1.62,0,2.99,1.09,3.39,2.59,.08,.29,.12,.59,.12,.9Zm107.91,414.03l-.25,.44c-.96,1.68-3.1,2.25-4.78,1.29-1.68-.96-2.25-3.1-1.29-4.78l.25-.44c.96-1.68,3.1-2.25,4.78-1.29,.84,.48,1.4,1.26,1.63,2.12s.14,1.82-.35,2.66Zm-10.78,18.74l-.25,.44c-.96,1.68-3.1,2.25-4.78,1.29-1.68-.96-2.25-3.1-1.29-4.78l.25-.44c.96-1.68,3.1-2.25,4.78-1.29,.84,.48,1.4,1.26,1.63,2.12s.14,1.82-.35,2.66Zm-118.8-432.73c0,1.93-1.56,3.5-3.49,3.51h-.51c-1.93,0-3.5-1.57-3.51-3.49,0-1.93,1.56-3.5,3.5-3.51h.5c1.62,0,2.99,1.09,3.39,2.59,.08,.29,.12,.59,.12,.9Zm106.46,448.55c-.85,1.74-2.95,2.45-4.68,1.6-.33-.16-.64-.35-.94-.56-1.57-1.13-1.93-3.32-.8-4.88,1.12-1.56,3.28-1.92,4.85-.82,.92,.46,1.55,1.29,1.8,2.22,.21,.79,.15,1.66-.24,2.45Zm-128.14-448.52c0,1.93-1.56,3.5-3.49,3.51h-.51c-1.93,0-3.5-1.56-3.51-3.49,0-1.93,1.56-3.5,3.5-3.51h.5c1.62,0,2.99,1.09,3.39,2.59,.08,.29,.12,.59,.12,.9Zm104.51,412.62c-1.67,.97-3.81,.39-4.78-1.28l-.24-.42c-.97-1.67-.41-3.81,1.26-4.79,1.67-.97,3.81-.41,4.79,1.26l.26,.45c.16,.27,.27,.55,.35,.84,.4,1.49-.23,3.13-1.63,3.94Zm-10.89-18.78c-1.67,.97-3.81,.39-4.78-1.29l-.24-.42c-.98-1.67-.41-3.81,1.26-4.79,1.67-.97,3.81-.41,4.79,1.26l.26,.45c.16,.27,.27,.55,.35,.84,.4,1.5-.23,3.13-1.63,3.94Zm-10.88-18.77c-1.67,.97-3.81,.39-4.78-1.29l-.24-.42c-.97-1.67-.41-3.81,1.26-4.79,1.67-.97,3.81-.41,4.79,1.26l.26,.45c.16,.27,.27,.55,.35,.84,.4,1.5-.23,3.13-1.63,3.94Zm-10.87-18.76c-1.67,.97-3.81,.39-4.78-1.29l-.24-.41c-.98-1.67-.42-3.81,1.25-4.79,1.67-.98,3.81-.42,4.79,1.25l.26,.46c.16,.27,.27,.55,.35,.84,.4,1.5-.23,3.13-1.63,3.94Zm-93.55-356.27c0,1.93-1.56,3.5-3.49,3.51h-.51c-1.93,0-3.5-1.56-3.51-3.49,0-1.93,1.56-3.5,3.5-3.51h.5c1.62,0,2.99,1.09,3.39,2.59,.08,.29,.12,.59,.12,.9Zm82.68,337.51c-1.67,.97-3.81,.39-4.78-1.29l-.24-.41c-.98-1.67-.42-3.81,1.25-4.79,1.67-.98,3.81-.42,4.79,1.25l.26,.46c.16,.27,.27,.55,.35,.84,.4,1.5-.23,3.13-1.63,3.94Zm-10.87-18.75c-1.67,.97-3.81,.39-4.78-1.29l-.24-.41c-.98-1.67-.42-3.81,1.25-4.79s3.81-.42,4.79,1.25l.26,.46c.16,.27,.27,.55,.35,.84,.4,1.5-.23,3.13-1.63,3.94Zm-10.87-18.75c-1.67,.97-3.81,.39-4.78-1.29l-.24-.41c-.98-1.67-.42-3.81,1.25-4.79,1.67-.98,3.81-.42,4.79,1.25l.26,.46c.16,.27,.27,.55,.35,.84,.4,1.5-.23,3.13-1.63,3.94Zm-82.63-299.97c0,1.93-1.55,3.51-3.48,3.51h-.51c-1.93,0-3.5-1.56-3.5-3.49,0-1.93,1.56-3.5,3.5-3.51h.49c1.62,0,2.99,1.09,3.39,2.59,.08,.29,.12,.59,.12,.9Zm71.77,281.22c-1.67,.97-3.81,.39-4.78-1.29l-.24-.41c-.98-1.67-.42-3.81,1.25-4.79s3.81-.42,4.79,1.25l.26,.46c.16,.27,.27,.55,.35,.84,.4,1.5-.23,3.13-1.63,3.94Zm-10.86-18.75c-1.67,.97-3.81,.39-4.78-1.29l-.24-.41c-.98-1.67-.42-3.81,1.25-4.79s3.81-.42,4.79,1.25l.26,.46c.16,.27,.27,.55,.35,.84,.4,1.5-.23,3.13-1.63,3.94Zm-10.86-18.75c-1.67,.97-3.81,.39-4.78-1.29l-.24-.42c-.97-1.67-.41-3.81,1.26-4.79,1.67-.97,3.81-.41,4.79,1.26l.26,.45c.16,.27,.27,.55,.35,.84,.4,1.5-.23,3.13-1.63,3.94Zm-10.87-18.76c-1.67,.97-3.81,.39-4.78-1.29l-.24-.41c-.98-1.67-.42-3.81,1.25-4.79,1.67-.98,3.81-.42,4.79,1.25l.26,.46c.16,.27,.27,.55,.35,.84,.4,1.5-.23,3.13-1.63,3.94Zm-60.87-224.94c0,1.93-1.55,3.51-3.48,3.51h-.51c-1.93,0-3.5-1.56-3.5-3.49,0-1.93,1.56-3.5,3.5-3.51h.49c1.62,0,2.99,1.09,3.39,2.59,.08,.29,.12,.59,.12,.9Zm50.01,206.19c-1.67,.97-3.81,.39-4.78-1.29l-.24-.41c-.98-1.67-.42-3.81,1.25-4.79,1.67-.98,3.81-.42,4.79,1.25l.26,.46c.16,.27,.27,.55,.35,.84,.4,1.5-.23,3.13-1.63,3.94Zm-10.86-18.75c-1.67,.96-3.81,.39-4.78-1.29l-.24-.42c-.97-1.67-.41-3.81,1.26-4.79,1.67-.97,3.81-.41,4.79,1.26l.26,.45c.16,.27,.27,.55,.35,.84,.4,1.5-.23,3.13-1.63,3.94Zm-10.86-18.75c-1.67,.96-3.81,.39-4.78-1.29l-.24-.42c-.98-1.67-.41-3.81,1.26-4.79,1.67-.98,3.81-.41,4.79,1.26l.26,.45c.16,.27,.27,.55,.35,.84,.4,1.5-.23,3.13-1.63,3.94Zm-10.86-18.75c-1.67,.96-3.81,.39-4.78-1.29l-.24-.42c-.98-1.67-.41-3.81,1.26-4.79,1.67-.98,3.81-.41,4.79,1.26l.26,.45c.16,.27,.27,.55,.35,.84,.4,1.5-.23,3.13-1.63,3.94Zm-39.13-149.9c0,1.93-1.56,3.5-3.5,3.51h-.51c-1.93,0-3.5-1.56-3.5-3.5,0-1.93,1.57-3.5,3.5-3.5h.5c1.62,0,2.98,1.09,3.38,2.59,.08,.29,.12,.59,.12,.91Zm28.27,131.15c-1.67,.96-3.81,.39-4.78-1.29l-.24-.42c-.98-1.67-.41-3.81,1.26-4.79,1.67-.98,3.81-.41,4.79,1.26l.26,.45c.16,.27,.27,.55,.35,.84,.4,1.5-.23,3.13-1.63,3.94Zm-10.86-15.76c-1.67,.96-3.81,.39-4.78-1.29l-.24-.41c-.98-1.67-.41-3.81,1.25-4.79,1.67-.98,3.81-.42,4.79,1.25l.26,.46c.16,.27,.27,.55,.35,.84,.4,1.5-.23,3.13-1.63,3.94Zm-39.14-115.37c0,1.93-1.56,3.5-3.49,3.51h-.5c-1.93,0-3.5-1.56-3.51-3.49,0-1.93,1.56-3.5,3.49-3.51h.5c1.62,0,2.99,1.09,3.39,2.59,.08,.29,.12,.59,.12,.9Zm17.4,74.84c-1.67,.96-3.81,.39-4.78-1.29l-.24-.42c-.98-1.67-.41-3.81,1.26-4.79,1.67-.98,3.81-.41,4.79,1.26l.26,.45c.16,.27,.27,.55,.35,.84,.4,1.5-.23,3.13-1.63,3.94Zm-10.87-18.78c-1.67,.96-3.81,.39-4.78-1.29l-.24-.41c-.97-1.67-.41-3.81,1.25-4.79,1.67-.98,3.81-.42,4.79,1.25l.26,.46c.16,.27,.27,.55,.35,.84,.4,1.5-.23,3.13-1.63,3.94Zm-10.88-18.79c-1.67,.96-3.81,.39-4.78-1.29l-.24-.41c-.98-1.67-.42-3.81,1.25-4.79,1.67-.98,3.81-.42,4.79,1.25l.26,.46c.16,.27,.27,.55,.35,.84,.4,1.5-.23,3.13-1.63,3.94Zm-10.88-18.82c-1.67,.97-3.81,.4-4.78-1.27l-.25-.44c-.97-1.67-.4-3.81,1.28-4.78,1.67-.97,3.81-.4,4.78,1.28l.25,.43c.16,.27,.28,.56,.35,.85,.4,1.49-.22,3.12-1.62,3.94Zm-6.61-18.4c0,1.93-1.57,3.5-3.5,3.5h-.1c-2.7,0-3.54-1.62-3.8-2.59-.5-1.87,.6-3.79,2.47-4.29,.34-.09,.67-.13,1-.12h.44c1.62,0,2.98,1.1,3.38,2.59,.08,.29,.12,.6,.12,.92Zm245.58,430.91c-1.67,.97-3.81,.39-4.78-1.28l-.24-.42c-.97-1.67-.41-3.81,1.26-4.79,1.67-.97,3.81-.41,4.79,1.26l.26,.45c.16,.27,.27,.55,.35,.84,.4,1.49-.23,3.13-1.63,3.94Z"/><g><path d="M668.25,1214.88l.25-.44c.96-1.68,3.1-2.25,4.78-1.29,1.68,.96,2.25,3.1,1.29,4.78l-.25,.44c-.96,1.68-3.1,2.25-4.78,1.29-.84-.48-1.4-1.26-1.63-2.12-.23-.86-.14-1.82,.35-2.66Zm10.78-18.73l.25-.44c.96-1.68,3.1-2.25,4.78-1.29,1.68,.96,2.25,3.1,1.29,4.78l-.25,.44c-.96,1.68-3.1,2.25-4.78,1.29-.84-.48-1.4-1.26-1.63-2.12s-.14-1.82,.35-2.66Zm10.78-18.73l.25-.44c.96-1.68,3.1-2.25,4.78-1.29,1.68,.96,2.25,3.1,1.29,4.78l-.25,.44c-.96,1.68-3.1,2.25-4.78,1.29-.84-.48-1.4-1.26-1.63-2.12s-.14-1.82,.35-2.66Zm10.78-18.73l.25-.44c.96-1.68,3.1-2.25,4.78-1.29,1.68,.96,2.25,3.1,1.29,4.78l-.25,.44c-.96,1.68-3.1,2.25-4.78,1.29-.84-.48-1.4-1.26-1.63-2.12s-.14-1.82,.35-2.66Zm10.78-18.73l.25-.44c.96-1.68,3.1-2.25,4.78-1.29,1.68,.96,2.25,3.1,1.29,4.78l-.25,.44c-.96,1.68-3.1,2.25-4.78,1.29-.84-.48-1.4-1.26-1.63-2.12s-.14-1.82,.35-2.66Zm10.78-18.73l.25-.44c.96-1.68,3.1-2.25,4.78-1.29,1.68,.96,2.25,3.1,1.29,4.78l-.25,.44c-.96,1.68-3.1,2.25-4.78,1.29-.84-.48-1.4-1.26-1.63-2.12s-.14-1.82,.35-2.66Zm10.78-18.74l.25-.44c.96-1.68,3.1-2.25,4.78-1.29,1.68,.96,2.25,3.1,1.29,4.78l-.25,.44c-.96,1.68-3.1,2.25-4.78,1.29-.84-.48-1.4-1.26-1.63-2.12s-.14-1.82,.35-2.66Zm10.78-18.73l.25-.44c.96-1.68,3.1-2.25,4.78-1.29,1.68,.96,2.25,3.1,1.29,4.78l-.25,.44c-.96,1.68-3.1,2.25-4.78,1.29-.84-.48-1.4-1.26-1.63-2.12s-.14-1.82,.35-2.66Zm42.13,152.07c0-1.93,1.56-3.5,3.5-3.51h.5c1.93,0,3.5,1.57,3.5,3.49,0,1.93-1.56,3.5-3.5,3.51h-.5c-1.62,0-2.98-1.09-3.38-2.59-.08-.29-.12-.59-.12-.91Zm-31.35-170.8l.25-.44c.96-1.68,3.1-2.25,4.78-1.29,1.68,.96,2.25,3.1,1.29,4.78l-.25,.44c-.96,1.68-3.1,2.25-4.78,1.29-.84-.48-1.4-1.26-1.63-2.12s-.14-1.82,.35-2.66Zm53.02,170.76c0-1.93,1.57-3.5,3.5-3.5h.5c1.93,0,3.5,1.56,3.51,3.49,0,1.93-1.56,3.5-3.5,3.51h-.51c-1.62,0-2.98-1.1-3.38-2.59-.08-.29-.12-.6-.12-.91Zm-42.24-189.5l.25-.44c.96-1.68,3.1-2.25,4.78-1.29,1.68,.96,2.25,3.1,1.29,4.78l-.25,.44c-.96,1.68-3.1,2.25-4.78,1.29-.84-.48-1.4-1.26-1.63-2.12s-.14-1.82,.35-2.66Zm63.91,189.47c0-1.93,1.57-3.5,3.5-3.5h.5c1.93,0,3.5,1.56,3.51,3.49,0,1.93-1.56,3.5-3.5,3.51h-.51c-1.62,0-2.98-1.1-3.38-2.59-.08-.29-.12-.6-.12-.91Zm-53.14-208.2l.25-.44c.96-1.68,3.1-2.25,4.78-1.29,1.68,.96,2.25,3.1,1.29,4.78l-.25,.44c-.96,1.68-3.1,2.25-4.78,1.29-.84-.48-1.4-1.26-1.63-2.12s-.14-1.82,.35-2.66Zm10.78-18.74l.25-.44c.96-1.68,3.1-2.25,4.78-1.29,1.68,.96,2.25,3.1,1.29,4.78l-.25,.44c-.96,1.68-3.1,2.25-4.78,1.29-.84-.48-1.4-1.26-1.63-2.12s-.14-1.82,.35-2.66Zm64.02,226.92c0-1.93,1.56-3.5,3.49-3.51h.51c1.93,0,3.5,1.56,3.51,3.49,0,1.93-1.56,3.5-3.5,3.51h-.5c-1.62,0-2.99-1.09-3.39-2.59-.08-.29-.12-.59-.12-.9Zm-53.24-245.65l.25-.44c.96-1.68,3.1-2.25,4.78-1.29,1.68,.96,2.25,3.1,1.29,4.78l-.25,.44c-.96,1.68-3.1,2.25-4.78,1.29-.84-.48-1.4-1.26-1.63-2.12s-.14-1.82,.35-2.66Zm74.91,245.62c0-1.93,1.56-3.5,3.49-3.51h.51c1.93,0,3.5,1.56,3.51,3.49,0,1.93-1.56,3.5-3.5,3.51h-.5c-1.62,0-2.99-1.09-3.39-2.59-.08-.29-.12-.59-.12-.9Zm-64.13-264.35l.25-.44c.96-1.68,3.1-2.25,4.78-1.29,1.68,.96,2.25,3.1,1.29,4.78l-.25,.44c-.96,1.68-3.1,2.25-4.78,1.29-.84-.48-1.4-1.26-1.63-2.12s-.14-1.82,.35-2.66Zm85.8,264.32c0-1.93,1.56-3.5,3.49-3.51h.51c1.93,0,3.5,1.56,3.51,3.49,0,1.93-1.56,3.5-3.5,3.51h-.5c-1.62,0-2.99-1.09-3.39-2.59-.08-.29-.12-.59-.12-.9Zm-75.02-283.05l.25-.44c.96-1.68,3.1-2.25,4.78-1.29,1.68,.96,2.25,3.1,1.29,4.78l-.25,.44c-.96,1.68-3.1,2.25-4.78,1.29-.84-.48-1.4-1.26-1.63-2.12s-.14-1.82,.35-2.66Zm10.78-18.73l.25-.44c.96-1.68,3.1-2.25,4.78-1.29,1.68,.96,2.25,3.1,1.29,4.78l-.25,.44c-.96,1.68-3.1,2.25-4.78,1.29-.84-.48-1.4-1.26-1.63-2.12s-.14-1.82,.35-2.66Zm85.9,301.76c0-1.93,1.56-3.5,3.49-3.51h.51c1.93,0,3.5,1.56,3.51,3.49,0,1.93-1.56,3.5-3.5,3.51h-.5c-1.62,0-2.99-1.09-3.39-2.59-.08-.29-.12-.59-.12-.9Zm-75.13-320.49l.25-.44c.96-1.68,3.1-2.25,4.78-1.29,1.68,.96,2.25,3.1,1.29,4.78l-.25,.44c-.96,1.68-3.1,2.25-4.78,1.29-.84-.48-1.4-1.26-1.63-2.12s-.14-1.82,.35-2.66Zm96.8,320.45c0-1.93,1.56-3.5,3.5-3.51h.5c1.93,0,3.5,1.56,3.51,3.49,0,1.93-1.56,3.5-3.5,3.51h-.5c-1.62,0-2.98-1.09-3.38-2.59-.08-.29-.12-.59-.12-.91Zm-86.02-339.19l.25-.44c.96-1.68,3.1-2.25,4.78-1.29,1.68,.96,2.25,3.1,1.29,4.78l-.25,.44c-.96,1.68-3.1,2.25-4.78,1.29-.84-.48-1.4-1.26-1.63-2.12s-.14-1.82,.35-2.66Zm10.78-18.73l.25-.44c.96-1.68,3.1-2.26,4.78-1.29,1.68,.96,2.25,3.1,1.29,4.78l-.25,.44c-.96,1.68-3.1,2.26-4.78,1.29-.84-.48-1.4-1.26-1.64-2.13-.23-.86-.14-1.82,.34-2.65Zm96.91,357.89c0-1.93,1.56-3.5,3.49-3.51h.51c1.93,0,3.5,1.56,3.51,3.49,0,1.93-1.56,3.5-3.5,3.51h-.5c-1.62,0-2.99-1.09-3.39-2.59-.08-.29-.12-.59-.12-.9Zm-86.13-376.63l.25-.44c.96-1.68,3.1-2.25,4.78-1.29,1.68,.96,2.25,3.1,1.29,4.78l-.25,.44c-.96,1.68-3.1,2.25-4.78,1.29-.84-.48-1.4-1.26-1.63-2.12s-.14-1.82,.35-2.66Zm107.8,376.6c0-1.93,1.56-3.5,3.49-3.51h.51c1.93,0,3.5,1.56,3.51,3.49,0,1.93-1.56,3.5-3.5,3.51h-.5c-1.62,0-2.99-1.09-3.39-2.59-.08-.29-.12-.59-.12-.9Zm-97.02-395.33l.25-.44c.96-1.68,3.1-2.25,4.78-1.29,1.68,.96,2.25,3.1,1.29,4.78l-.25,.44c-.96,1.68-3.1,2.25-4.78,1.29-.84-.48-1.4-1.26-1.63-2.12s-.14-1.82,.35-2.66Zm118.69,395.3c0-1.93,1.56-3.5,3.49-3.51h.51c1.93,0,3.5,1.56,3.51,3.49,0,1.93-1.56,3.5-3.5,3.51h-.5c-1.62,0-2.99-1.09-3.39-2.59-.08-.29-.12-.59-.12-.9Zm-107.91-414.03l.25-.44c.96-1.68,3.1-2.25,4.78-1.29,1.68,.96,2.25,3.1,1.29,4.78l-.25,.44c-.96,1.68-3.1,2.25-4.78,1.29-.84-.48-1.4-1.26-1.63-2.12s-.14-1.82,.35-2.66Zm10.78-18.74l.25-.44c.96-1.68,3.1-2.25,4.78-1.29,1.68,.96,2.25,3.1,1.29,4.78l-.25,.44c-.96,1.68-3.1,2.25-4.78,1.29-.84-.48-1.4-1.26-1.63-2.12-.23-.86-.14-1.82,.35-2.66Zm118.8,432.73c0-1.93,1.56-3.5,3.49-3.51h.51c1.93,0,3.5,1.57,3.51,3.49,0,1.93-1.56,3.5-3.5,3.51h-.5c-1.62,0-2.99-1.09-3.39-2.59-.08-.29-.12-.59-.12-.9Zm-106.46-448.55c.85-1.74,2.95-2.45,4.68-1.6,.33,.16,.64,.35,.94,.56,1.57,1.13,1.93,3.32,.8,4.88-1.12,1.56-3.28,1.92-4.85,.82-.92-.46-1.55-1.29-1.8-2.22-.21-.79-.15-1.66,.24-2.45Zm128.14,448.52c0-1.93,1.56-3.5,3.49-3.51h.51c1.93,0,3.5,1.56,3.51,3.49,0,1.93-1.56,3.5-3.5,3.51h-.5c-1.62,0-2.99-1.09-3.39-2.59-.08-.29-.12-.59-.12-.9Zm-104.51-412.62c1.67-.97,3.81-.39,4.78,1.28l.24,.42c.97,1.67,.41,3.81-1.26,4.79-1.67,.97-3.81,.41-4.79-1.26l-.26-.45c-.16-.27-.27-.55-.35-.84-.4-1.49,.23-3.13,1.63-3.94Zm10.89,18.78c1.67-.97,3.81-.39,4.78,1.29l.24,.42c.98,1.67,.41,3.81-1.26,4.79-1.67,.97-3.81,.41-4.79-1.26l-.26-.45c-.16-.27-.27-.55-.35-.84-.4-1.5,.23-3.13,1.63-3.94Zm10.88,18.77c1.67-.97,3.81-.39,4.78,1.29l.24,.42c.97,1.67,.41,3.81-1.26,4.79-1.67,.97-3.81,.41-4.79-1.26l-.26-.45c-.16-.27-.27-.55-.35-.84-.4-1.5,.23-3.13,1.63-3.94Zm10.87,18.76c1.67-.97,3.81-.39,4.78,1.29l.24,.41c.98,1.67,.42,3.81-1.25,4.79-1.67,.98-3.81,.42-4.79-1.25l-.26-.46c-.16-.27-.27-.55-.35-.84-.4-1.5,.23-3.13,1.63-3.94Zm93.55,356.27c0-1.93,1.56-3.5,3.49-3.51h.51c1.93,0,3.5,1.56,3.51,3.49,0,1.93-1.56,3.5-3.5,3.51h-.5c-1.62,0-2.99-1.09-3.39-2.59-.08-.29-.12-.59-.12-.9Zm-82.68-337.51c1.67-.97,3.81-.39,4.78,1.29l.24,.41c.98,1.67,.42,3.81-1.25,4.79-1.67,.98-3.81,.42-4.79-1.25l-.26-.46c-.16-.27-.27-.55-.35-.84-.4-1.5,.23-3.13,1.63-3.94Zm10.87,18.75c1.67-.97,3.81-.39,4.78,1.29l.24,.41c.98,1.67,.42,3.81-1.25,4.79s-3.81,.42-4.79-1.25l-.26-.46c-.16-.27-.27-.55-.35-.84-.4-1.5,.23-3.13,1.63-3.94Zm10.87,18.75c1.67-.97,3.81-.39,4.78,1.29l.24,.41c.98,1.67,.42,3.81-1.25,4.79s-3.81,.42-4.79-1.25l-.26-.46c-.16-.27-.27-.55-.35-.84-.4-1.5,.23-3.13,1.63-3.94Zm82.63,299.97c0-1.93,1.55-3.51,3.48-3.51h.51c1.93,0,3.5,1.56,3.5,3.49,0,1.93-1.56,3.5-3.5,3.51h-.49c-1.62,0-2.99-1.09-3.39-2.59-.08-.29-.12-.59-.12-.9Zm-71.77-281.22c1.67-.97,3.81-.39,4.78,1.29l.24,.41c.98,1.67,.42,3.81-1.25,4.79-1.67,.98-3.81,.42-4.79-1.25l-.26-.46c-.16-.27-.27-.55-.35-.84-.4-1.5,.23-3.13,1.63-3.94Zm10.86,18.75c1.67-.97,3.81-.39,4.78,1.29l.24,.41c.98,1.67,.42,3.81-1.25,4.79-1.67,.98-3.81,.42-4.79-1.25l-.26-.46c-.16-.27-.27-.55-.35-.84-.4-1.5,.23-3.13,1.63-3.94Zm10.86,18.75c1.67-.97,3.81-.39,4.78,1.29l.24,.42c.97,1.67,.41,3.81-1.26,4.79-1.67,.97-3.81,.41-4.79-1.26l-.26-.45c-.16-.27-.27-.55-.35-.84-.4-1.5,.23-3.13,1.63-3.94Zm10.87,18.76c1.67-.97,3.81-.39,4.78,1.29l.24,.41c.98,1.67,.42,3.81-1.25,4.79-1.67,.98-3.81,.42-4.79-1.25l-.26-.46c-.16-.27-.27-.55-.35-.84-.4-1.5,.23-3.13,1.63-3.94Zm60.87,224.94c0-1.93,1.55-3.51,3.48-3.51h.51c1.93,0,3.5,1.56,3.5,3.49,0,1.93-1.56,3.5-3.5,3.51h-.49c-1.62,0-2.99-1.09-3.39-2.59-.08-.29-.12-.59-.12-.9Zm-50.01-206.19c1.67-.97,3.81-.39,4.78,1.29l.24,.41c.98,1.67,.42,3.81-1.25,4.79-1.67,.98-3.81,.42-4.79-1.25l-.26-.46c-.16-.27-.27-.55-.35-.84-.4-1.5,.23-3.13,1.63-3.94Zm10.86,18.75c1.67-.96,3.81-.39,4.78,1.29l.24,.42c.97,1.67,.41,3.81-1.26,4.79-1.67,.97-3.81,.41-4.79-1.26l-.26-.45c-.16-.27-.27-.55-.35-.84-.4-1.5,.23-3.13,1.63-3.94Zm10.86,18.75c1.67-.96,3.81-.39,4.78,1.29l.24,.42c.98,1.67,.41,3.81-1.26,4.79-1.67,.98-3.81,.41-4.79-1.26l-.26-.45c-.16-.27-.27-.55-.35-.84-.4-1.5,.23-3.13,1.63-3.94Zm10.86,18.75c1.67-.96,3.81-.39,4.78,1.29l.24,.42c.98,1.67,.41,3.81-1.26,4.79-1.67,.98-3.81,.41-4.79-1.26l-.26-.45c-.16-.27-.27-.55-.35-.84-.4-1.5,.23-3.13,1.63-3.94Zm39.13,149.9c0-1.93,1.56-3.5,3.5-3.51h.51c1.93,0,3.5,1.56,3.5,3.5,0,1.93-1.57,3.5-3.5,3.5h-.5c-1.62,0-2.98-1.09-3.38-2.59-.08-.29-.12-.59-.12-.91Zm-28.27-131.15c1.67-.96,3.81-.39,4.78,1.29l.24,.42c.98,1.67,.41,3.81-1.26,4.79-1.67,.98-3.81,.41-4.79-1.26l-.26-.45c-.16-.27-.27-.55-.35-.84-.4-1.5,.23-3.13,1.63-3.94Zm10.86,18.76c1.67-.96,3.81-.39,4.78,1.29l.24,.41c.98,1.67,.41,3.81-1.25,4.79-1.67,.98-3.81,.42-4.79-1.25l-.26-.46c-.16-.27-.27-.55-.35-.84-.4-1.5,.23-3.13,1.63-3.94Zm10.87,18.76c1.67-.96,3.81-.39,4.78,1.29l.24,.41c.98,1.67,.41,3.81-1.25,4.79-1.67,.98-3.81,.42-4.79-1.25l-.26-.46c-.16-.27-.27-.55-.35-.84-.4-1.5,.23-3.13,1.63-3.94Zm28.27,93.6c0-1.93,1.56-3.5,3.49-3.51h.5c1.93,0,3.5,1.56,3.51,3.49,0,1.93-1.56,3.5-3.49,3.51h-.5c-1.62,0-2.99-1.09-3.39-2.59-.08-.29-.12-.59-.12-.9Zm-17.4-74.84c1.67-.96,3.81-.39,4.78,1.29l.24,.42c.98,1.67,.41,3.81-1.26,4.79-1.67,.98-3.81,.41-4.79-1.26l-.26-.45c-.16-.27-.27-.55-.35-.84-.4-1.5,.23-3.13,1.63-3.94Zm10.87,18.78c1.67-.96,3.81-.39,4.78,1.29l.24,.41c.97,1.67,.41,3.81-1.25,4.79-1.67,.98-3.81,.42-4.79-1.25l-.26-.46c-.16-.27-.27-.55-.35-.84-.4-1.5,.23-3.13,1.63-3.94Zm10.88,18.79c1.67-.96,3.81-.39,4.78,1.29l.24,.41c.98,1.67,.42,3.81-1.25,4.79-1.67,.98-3.81,.42-4.79-1.25l-.26-.46c-.16-.27-.27-.55-.35-.84-.4-1.5,.23-3.13,1.63-3.94Zm10.88,18.82c1.67-.97,3.81-.4,4.78,1.27l.25,.44c.97,1.67,.4,3.81-1.28,4.78-1.67,.97-3.81,.4-4.78-1.28l-.25-.43c-.16-.27-.28-.56-.35-.85-.4-1.49,.22-3.12,1.62-3.94Zm6.61,18.4c0-1.93,1.57-3.5,3.5-3.5h.1c2.7,0,3.54,1.62,3.8,2.59,.5,1.87-.6,3.79-2.47,4.29-.34,.09-.67,.13-1,.12h-.44c-1.62,0-2.98-1.1-3.38-2.59-.08-.29-.12-.6-.12-.92Zm-245.58-430.91c1.67-.97,3.81-.39,4.78,1.28l.24,.42c.97,1.67,.41,3.81-1.26,4.79-1.67,.97-3.81,.41-4.79-1.26l-.26-.45c-.16-.27-.27-.55-.35-.84-.4-1.49,.23-3.13,1.63-3.94Z"/><path d="M241.97,1233.61l.25-.44c.96-1.68,3.1-2.25,4.78-1.29,1.68,.96,2.25,3.1,1.29,4.78l-.25,.44c-.96,1.68-3.1,2.25-4.78,1.29-.84-.48-1.4-1.26-1.63-2.12s-.14-1.82,.35-2.66Zm10.78-18.74l.25-.44c.96-1.68,3.1-2.25,4.78-1.29,1.68,.96,2.25,3.1,1.29,4.78l-.25,.44c-.96,1.68-3.1,2.25-4.78,1.29-.84-.48-1.4-1.26-1.63-2.12-.23-.86-.14-1.82,.35-2.66Zm9.08,21.05c0-1.93,1.57-3.5,3.51-3.49h.5c1.93,0,3.5,1.57,3.5,3.5,0,1.93-1.57,3.5-3.5,3.5h-.51c-1.61,0-2.97-1.1-3.37-2.59-.08-.29-.12-.6-.12-.92Zm1.7-39.79l.25-.44c.96-1.68,3.1-2.25,4.78-1.29,1.68,.96,2.25,3.1,1.29,4.78l-.25,.44c-.96,1.68-3.1,2.25-4.78,1.29-.84-.48-1.4-1.26-1.63-2.12s-.14-1.82,.35-2.66Zm20.03,39.79c0-1.93,1.55-3.51,3.48-3.51h.51c1.93,0,3.5,1.56,3.51,3.49,0,1.93-1.56,3.5-3.5,3.51h-.49c-1.62,0-2.99-1.09-3.39-2.59-.08-.29-.12-.59-.12-.9Zm-9.25-58.52l.25-.44c.96-1.68,3.1-2.25,4.78-1.29,1.68,.96,2.25,3.1,1.29,4.78l-.25,.44c-.96,1.68-3.1,2.25-4.78,1.29-.84-.48-1.4-1.26-1.63-2.12s-.14-1.82,.35-2.66Zm10.78-18.73l.25-.44c.96-1.68,3.1-2.25,4.78-1.29,1.68,.96,2.25,3.1,1.29,4.78l-.25,.44c-.96,1.68-3.1,2.25-4.78,1.29-.84-.48-1.4-1.26-1.63-2.12s-.14-1.82,.35-2.66Zm20.18,77.21c0-1.93,1.57-3.5,3.5-3.5h.5c1.93,0,3.5,1.56,3.51,3.49,0,1.93-1.56,3.5-3.5,3.51h-.51c-1.62,0-2.98-1.1-3.38-2.59-.08-.29-.12-.6-.12-.91Zm-9.4-95.95l.25-.44c.96-1.68,3.1-2.25,4.78-1.29,1.68,.96,2.25,3.1,1.29,4.78l-.25,.44c-.96,1.68-3.1,2.25-4.78,1.29-.84-.48-1.4-1.26-1.63-2.12s-.14-1.82,.35-2.66Zm31.1,95.92c0-1.93,1.57-3.5,3.5-3.5h.5c1.93,0,3.5,1.56,3.51,3.49,0,1.93-1.56,3.5-3.5,3.51h-.51c-1.62,0-2.98-1.1-3.38-2.59-.08-.29-.12-.6-.12-.91Zm-20.32-114.65l.25-.44c.96-1.68,3.1-2.25,4.78-1.29,1.68,.96,2.25,3.1,1.29,4.78l-.25,.44c-.96,1.68-3.1,2.25-4.78,1.29-.84-.48-1.4-1.26-1.63-2.12s-.14-1.82,.35-2.66Zm42.01,114.63c0-1.93,1.56-3.5,3.5-3.51h.5c1.93,0,3.5,1.56,3.51,3.49,0,1.93-1.56,3.5-3.5,3.51h-.5c-1.62,0-2.98-1.09-3.38-2.59-.08-.29-.12-.59-.12-.91Zm-31.23-133.36l.25-.44c.96-1.68,3.1-2.25,4.78-1.29,1.68,.96,2.25,3.1,1.29,4.78l-.25,.44c-.96,1.68-3.1,2.25-4.78,1.29-.84-.48-1.4-1.26-1.63-2.12s-.14-1.82,.35-2.66Zm10.78-18.73l.25-.44c.96-1.68,3.1-2.25,4.78-1.29,1.68,.96,2.25,3.1,1.29,4.78l-.25,.44c-.96,1.68-3.1,2.25-4.78,1.29-.84-.48-1.4-1.26-1.63-2.12s-.14-1.82,.35-2.66Zm42.13,152.07c0-1.93,1.56-3.5,3.5-3.51h.5c1.93,0,3.5,1.57,3.5,3.49,0,1.93-1.56,3.5-3.5,3.51h-.5c-1.62,0-2.98-1.09-3.38-2.59-.08-.29-.12-.59-.12-.91Zm-31.35-170.8l.25-.44c.96-1.68,3.1-2.25,4.78-1.29,1.68,.96,2.25,3.1,1.29,4.78l-.25,.44c-.96,1.68-3.1,2.25-4.78,1.29-.84-.48-1.4-1.26-1.63-2.12s-.14-1.82,.35-2.66Zm53.02,170.76c0-1.93,1.57-3.5,3.5-3.5h.5c1.93,0,3.5,1.56,3.51,3.49,0,1.93-1.56,3.5-3.5,3.51h-.51c-1.62,0-2.98-1.1-3.38-2.59-.08-.29-.12-.6-.12-.91Zm-42.24-189.5l.25-.44c.96-1.68,3.1-2.25,4.78-1.29,1.68,.96,2.25,3.1,1.29,4.78l-.25,.44c-.96,1.68-3.1,2.25-4.78,1.29-.84-.48-1.4-1.26-1.63-2.12s-.14-1.82,.35-2.66Zm63.91,189.47c0-1.93,1.57-3.5,3.5-3.5h.5c1.93,0,3.5,1.56,3.51,3.49,0,1.93-1.56,3.5-3.5,3.51h-.51c-1.62,0-2.98-1.1-3.38-2.59-.08-.29-.12-.6-.12-.91Zm-53.14-208.2l.25-.44c.96-1.68,3.1-2.25,4.78-1.29,1.68,.96,2.25,3.1,1.29,4.78l-.25,.44c-.96,1.68-3.1,2.25-4.78,1.29-.84-.48-1.4-1.26-1.63-2.12s-.14-1.82,.35-2.66Zm10.78-18.74l.25-.44c.96-1.68,3.1-2.25,4.78-1.29,1.68,.96,2.25,3.1,1.29,4.78l-.25,.44c-.96,1.68-3.1,2.25-4.78,1.29-.84-.48-1.4-1.26-1.63-2.12s-.14-1.82,.35-2.66Zm64.02,226.92c0-1.93,1.56-3.5,3.49-3.51h.51c1.93,0,3.5,1.56,3.51,3.49,0,1.93-1.56,3.5-3.5,3.51h-.5c-1.62,0-2.99-1.09-3.39-2.59-.08-.29-.12-.59-.12-.9Zm-53.24-245.65l.25-.44c.96-1.68,3.1-2.25,4.78-1.29,1.68,.96,2.25,3.1,1.29,4.78l-.25,.44c-.96,1.68-3.1,2.25-4.78,1.29-.84-.48-1.4-1.26-1.63-2.12s-.14-1.82,.35-2.66Zm74.91,245.62c0-1.93,1.56-3.5,3.49-3.51h.51c1.93,0,3.5,1.56,3.51,3.49,0,1.93-1.56,3.5-3.5,3.51h-.5c-1.62,0-2.99-1.09-3.39-2.59-.08-.29-.12-.59-.12-.9Zm-64.13-264.35l.25-.44c.96-1.68,3.1-2.25,4.78-1.29,1.68,.96,2.25,3.1,1.29,4.78l-.25,.44c-.96,1.68-3.1,2.25-4.78,1.29-.84-.48-1.4-1.26-1.63-2.12s-.14-1.82,.35-2.66Zm85.8,264.32c0-1.93,1.56-3.5,3.49-3.51h.51c1.93,0,3.5,1.56,3.51,3.49,0,1.93-1.56,3.5-3.5,3.51h-.5c-1.62,0-2.99-1.09-3.39-2.59-.08-.29-.12-.59-.12-.9Zm-75.02-283.05l.25-.44c.96-1.68,3.1-2.25,4.78-1.29,1.68,.96,2.25,3.1,1.29,4.78l-.25,.44c-.96,1.68-3.1,2.25-4.78,1.29-.84-.48-1.4-1.26-1.63-2.12s-.14-1.82,.35-2.66Zm10.78-18.73l.25-.44c.96-1.68,3.1-2.25,4.78-1.29,1.68,.96,2.25,3.1,1.29,4.78l-.25,.44c-.96,1.68-3.1,2.25-4.78,1.29-.84-.48-1.4-1.26-1.63-2.12s-.14-1.82,.35-2.66Zm85.9,301.76c0-1.93,1.56-3.5,3.49-3.51h.51c1.93,0,3.5,1.56,3.51,3.49,0,1.93-1.56,3.5-3.5,3.51h-.5c-1.62,0-2.99-1.09-3.39-2.59-.08-.29-.12-.59-.12-.9Zm-75.13-320.49l.25-.44c.96-1.68,3.1-2.25,4.78-1.29,1.68,.96,2.25,3.1,1.29,4.78l-.25,.44c-.96,1.68-3.1,2.25-4.78,1.29-.84-.48-1.4-1.26-1.63-2.12s-.14-1.82,.35-2.66Zm96.8,320.45c0-1.93,1.56-3.5,3.5-3.51h.5c1.93,0,3.5,1.56,3.51,3.49,0,1.93-1.56,3.5-3.5,3.51h-.5c-1.62,0-2.98-1.09-3.38-2.59-.08-.29-.12-.59-.12-.91Zm-86.02-339.19l.25-.44c.96-1.68,3.1-2.25,4.78-1.29,1.68,.96,2.25,3.1,1.29,4.78l-.25,.44c-.96,1.68-3.1,2.25-4.78,1.29-.84-.48-1.4-1.26-1.63-2.12s-.14-1.82,.35-2.66Zm10.78-18.73l.25-.44c.96-1.68,3.1-2.26,4.78-1.29,1.68,.96,2.25,3.1,1.29,4.78l-.25,.44c-.96,1.68-3.1,2.26-4.78,1.29-.84-.48-1.4-1.26-1.64-2.13-.23-.86-.14-1.82,.34-2.65Zm96.91,357.89c0-1.93,1.56-3.5,3.49-3.51h.51c1.93,0,3.5,1.56,3.51,3.49,0,1.93-1.56,3.5-3.5,3.51h-.5c-1.62,0-2.99-1.09-3.39-2.59-.08-.29-.12-.59-.12-.9Zm-86.13-376.63l.25-.44c.96-1.68,3.1-2.25,4.78-1.29,1.68,.96,2.25,3.1,1.29,4.78l-.25,.44c-.96,1.68-3.1,2.25-4.78,1.29-.84-.48-1.4-1.26-1.63-2.12s-.14-1.82,.35-2.66Zm107.8,376.6c0-1.93,1.56-3.5,3.49-3.51h.51c1.93,0,3.5,1.56,3.51,3.49,0,1.93-1.56,3.5-3.5,3.51h-.5c-1.62,0-2.99-1.09-3.39-2.59-.08-.29-.12-.59-.12-.9Zm-97.02-395.33l.25-.44c.96-1.68,3.1-2.25,4.78-1.29,1.68,.96,2.25,3.1,1.29,4.78l-.25,.44c-.96,1.68-3.1,2.25-4.78,1.29-.84-.48-1.4-1.26-1.63-2.12s-.14-1.82,.35-2.66Zm118.69,395.3c0-1.93,1.56-3.5,3.49-3.51h.51c1.93,0,3.5,1.56,3.51,3.49,0,1.93-1.56,3.5-3.5,3.51h-.5c-1.62,0-2.99-1.09-3.39-2.59-.08-.29-.12-.59-.12-.9Zm-107.91-414.03l.25-.44c.96-1.68,3.1-2.25,4.78-1.29,1.68,.96,2.25,3.1,1.29,4.78l-.25,.44c-.96,1.68-3.1,2.25-4.78,1.29-.84-.48-1.4-1.26-1.63-2.12s-.14-1.82,.35-2.66Zm10.78-18.74l.25-.44c.96-1.68,3.1-2.25,4.78-1.29,1.68,.96,2.25,3.1,1.29,4.78l-.25,.44c-.96,1.68-3.1,2.25-4.78,1.29-.84-.48-1.4-1.26-1.63-2.12-.23-.86-.14-1.82,.35-2.66Zm118.8,432.73c0-1.93,1.56-3.5,3.49-3.51h.51c1.93,0,3.5,1.57,3.51,3.49,0,1.93-1.56,3.5-3.5,3.51h-.5c-1.62,0-2.99-1.09-3.39-2.59-.08-.29-.12-.59-.12-.9Zm-106.46-448.55c.85-1.74,2.95-2.45,4.68-1.6,.33,.16,.64,.35,.94,.56,1.57,1.13,1.93,3.32,.8,4.88-1.12,1.56-3.28,1.92-4.85,.82-.92-.46-1.55-1.29-1.8-2.22-.21-.79-.15-1.66,.24-2.45Zm128.14,448.52c0-1.93,1.56-3.5,3.49-3.51h.51c1.93,0,3.5,1.56,3.51,3.49,0,1.93-1.56,3.5-3.5,3.51h-.5c-1.62,0-2.99-1.09-3.39-2.59-.08-.29-.12-.59-.12-.9Zm-104.51-412.62c1.67-.97,3.81-.39,4.78,1.28l.24,.42c.97,1.67,.41,3.81-1.26,4.79-1.67,.97-3.81,.41-4.79-1.26l-.26-.45c-.16-.27-.27-.55-.35-.84-.4-1.49,.23-3.13,1.63-3.94Zm10.89,18.78c1.67-.97,3.81-.39,4.78,1.29l.24,.42c.98,1.67,.41,3.81-1.26,4.79-1.67,.97-3.81,.41-4.79-1.26l-.26-.45c-.16-.27-.27-.55-.35-.84-.4-1.5,.23-3.13,1.63-3.94Zm10.88,18.77c1.67-.97,3.81-.39,4.78,1.29l.24,.42c.97,1.67,.41,3.81-1.26,4.79-1.67,.97-3.81,.41-4.79-1.26l-.26-.45c-.16-.27-.27-.55-.35-.84-.4-1.5,.23-3.13,1.63-3.94Zm10.87,18.76c1.67-.97,3.81-.39,4.78,1.29l.24,.41c.98,1.67,.42,3.81-1.25,4.79-1.67,.98-3.81,.42-4.79-1.25l-.26-.46c-.16-.27-.27-.55-.35-.84-.4-1.5,.23-3.13,1.63-3.94Zm93.55,356.27c0-1.93,1.56-3.5,3.49-3.51h.51c1.93,0,3.5,1.56,3.51,3.49,0,1.93-1.56,3.5-3.5,3.51h-.5c-1.62,0-2.99-1.09-3.39-2.59-.08-.29-.12-.59-.12-.9Zm-82.68-337.51c1.67-.97,3.81-.39,4.78,1.29l.24,.41c.98,1.67,.42,3.81-1.25,4.79-1.67,.98-3.81,.42-4.79-1.25l-.26-.46c-.16-.27-.27-.55-.35-.84-.4-1.5,.23-3.13,1.63-3.94Zm10.87,18.75c1.67-.97,3.81-.39,4.78,1.29l.24,.41c.98,1.67,.42,3.81-1.25,4.79s-3.81,.42-4.79-1.25l-.26-.46c-.16-.27-.27-.55-.35-.84-.4-1.5,.23-3.13,1.63-3.94Zm10.87,18.75c1.67-.97,3.81-.39,4.78,1.29l.24,.41c.98,1.67,.42,3.81-1.25,4.79s-3.81,.42-4.79-1.25l-.26-.46c-.16-.27-.27-.55-.35-.84-.4-1.5,.23-3.13,1.63-3.94Zm82.63,299.97c0-1.93,1.55-3.51,3.48-3.51h.51c1.93,0,3.5,1.56,3.5,3.49,0,1.93-1.56,3.5-3.5,3.51h-.49c-1.62,0-2.99-1.09-3.39-2.59-.08-.29-.12-.59-.12-.9Zm-71.77-281.22c1.67-.97,3.81-.39,4.78,1.29l.24,.41c.98,1.67,.42,3.81-1.25,4.79-1.67,.98-3.81,.42-4.79-1.25l-.26-.46c-.16-.27-.27-.55-.35-.84-.4-1.5,.23-3.13,1.63-3.94Zm10.86,18.75c1.67-.97,3.81-.39,4.78,1.29l.24,.41c.98,1.67,.42,3.81-1.25,4.79-1.67,.98-3.81,.42-4.79-1.25l-.26-.46c-.16-.27-.27-.55-.35-.84-.4-1.5,.23-3.13,1.63-3.94Zm10.86,18.75c1.67-.97,3.81-.39,4.78,1.29l.24,.42c.97,1.67,.41,3.81-1.26,4.79-1.67,.97-3.81,.41-4.79-1.26l-.26-.45c-.16-.27-.27-.55-.35-.84-.4-1.5,.23-3.13,1.63-3.94Zm10.87,18.76c1.67-.97,3.81-.39,4.78,1.29l.24,.41c.98,1.67,.42,3.81-1.25,4.79-1.67,.98-3.81,.42-4.79-1.25l-.26-.46c-.16-.27-.27-.55-.35-.84-.4-1.5,.23-3.13,1.63-3.94Zm60.87,224.94c0-1.93,1.55-3.51,3.48-3.51h.51c1.93,0,3.5,1.56,3.5,3.49,0,1.93-1.56,3.5-3.5,3.51h-.49c-1.62,0-2.99-1.09-3.39-2.59-.08-.29-.12-.59-.12-.9Zm-50.01-206.19c1.67-.97,3.81-.39,4.78,1.29l.24,.41c.98,1.67,.42,3.81-1.25,4.79-1.67,.98-3.81,.42-4.79-1.25l-.26-.46c-.16-.27-.27-.55-.35-.84-.4-1.5,.23-3.13,1.63-3.94Zm10.86,18.75c1.67-.96,3.81-.39,4.78,1.29l.24,.42c.97,1.67,.41,3.81-1.26,4.79-1.67,.97-3.81,.41-4.79-1.26l-.26-.45c-.16-.27-.27-.55-.35-.84-.4-1.5,.23-3.13,1.63-3.94Zm10.86,18.75c1.67-.96,3.81-.39,4.78,1.29l.24,.42c.98,1.67,.41,3.81-1.26,4.79-1.67,.98-3.81,.41-4.79-1.26l-.26-.45c-.16-.27-.27-.55-.35-.84-.4-1.5,.23-3.13,1.63-3.94Zm10.86,18.75c1.67-.96,3.81-.39,4.78,1.29l.24,.42c.98,1.67,.41,3.81-1.26,4.79-1.67,.98-3.81,.41-4.79-1.26l-.26-.45c-.16-.27-.27-.55-.35-.84-.4-1.5,.23-3.13,1.63-3.94Zm39.13,149.9c0-1.93,1.56-3.5,3.5-3.51h.51c1.93,0,3.5,1.56,3.5,3.5,0,1.93-1.57,3.5-3.5,3.5h-.5c-1.62,0-2.98-1.09-3.38-2.59-.08-.29-.12-.59-.12-.91Zm-28.27-131.15c1.67-.96,3.81-.39,4.78,1.29l.24,.42c.98,1.67,.41,3.81-1.26,4.79-1.67,.98-3.81,.41-4.79-1.26l-.26-.45c-.16-.27-.27-.55-.35-.84-.4-1.5,.23-3.13,1.63-3.94Zm10.86,18.76c1.67-.96,3.81-.39,4.78,1.29l.24,.41c.98,1.67,.41,3.81-1.25,4.79-1.67,.98-3.81,.42-4.79-1.25l-.26-.46c-.16-.27-.27-.55-.35-.84-.4-1.5,.23-3.13,1.63-3.94Zm39.14,112.37c0-1.93,1.56-3.5,3.49-3.51h.5c1.93,0,3.5,1.56,3.51,3.49,0,1.93-1.56,3.5-3.49,3.51h-.5c-1.62,0-2.99-1.09-3.39-2.59-.08-.29-.12-.59-.12-.9Zm-17.4-74.84c1.67-.96,3.81-.39,4.78,1.29l.24,.42c.98,1.67,.41,3.81-1.26,4.79-1.67,.98-3.81,.41-4.79-1.26l-.26-.45c-.16-.27-.27-.55-.35-.84-.4-1.5,.23-3.13,1.63-3.94Zm10.87,18.78c1.67-.96,3.81-.39,4.78,1.29l.24,.41c.97,1.67,.41,3.81-1.25,4.79-1.67,.98-3.81,.42-4.79-1.25l-.26-.46c-.16-.27-.27-.55-.35-.84-.4-1.5,.23-3.13,1.63-3.94Zm10.88,18.79c1.67-.96,3.81-.39,4.78,1.29l.24,.41c.98,1.67,.42,3.81-1.25,4.79-1.67,.98-3.81,.42-4.79-1.25l-.26-.46c-.16-.27-.27-.55-.35-.84-.4-1.5,.23-3.13,1.63-3.94Zm10.88,18.82c1.67-.97,3.81-.4,4.78,1.27l.25,.44c.97,1.67,.4,3.81-1.28,4.78-1.67,.97-3.81,.4-4.78-1.28l-.25-.43c-.16-.27-.28-.56-.35-.85-.4-1.49,.22-3.12,1.62-3.94Zm6.61,18.4c0-1.93,1.57-3.5,3.5-3.5h.1c2.7,0,3.54,1.62,3.8,2.59,.5,1.87-.6,3.79-2.47,4.29-.34,.09-.67,.13-1,.12h-.44c-1.62,0-2.98-1.1-3.38-2.59-.08-.29-.12-.6-.12-.92Zm-245.58-430.91c1.67-.97,3.81-.39,4.78,1.28l.24,.42c.97,1.67,.41,3.81-1.26,4.79-1.67,.97-3.81,.41-4.79-1.26l-.26-.45c-.16-.27-.27-.55-.35-.84-.4-1.49,.23-3.13,1.63-3.94Z"/></g><path d="M967.69,1148.18c-.23,.86-.8,1.64-1.63,2.12-1.67,.96-3.82,.39-4.78-1.29l-.25-.44c-.96-1.68-.39-3.82,1.29-4.78,1.67-.96,3.82-.39,4.78,1.29l.25,.44c.48,.84,.58,1.79,.35,2.66Zm-10.78-18.73c-.23,.86-.8,1.64-1.63,2.12-1.67,.96-3.82,.39-4.78-1.29l-.25-.44c-.96-1.67-.39-3.81,1.29-4.78,1.67-.96,3.82-.39,4.78,1.29l.25,.44c.48,.84,.58,1.79,.35,2.66Zm-9.54,19.32c-.4,1.49-1.76,2.58-3.37,2.59h-.51c-1.93,0-3.5-1.57-3.5-3.5,0-1.93,1.57-3.5,3.5-3.5h.5c1.93,0,3.5,1.56,3.51,3.49,0,.32-.04,.63-.12,.92Zm-1.24-38.05c-.23,.86-.8,1.64-1.63,2.12-1.67,.96-3.82,.39-4.78-1.29l-.25-.44c-.96-1.68-.39-3.82,1.29-4.78,1.67-.96,3.82-.39,4.78,1.29l.25,.44c.48,.84,.58,1.79,.35,2.66Zm-20.5,38.03c-.4,1.5-1.77,2.59-3.39,2.59h-.49c-1.93,0-3.5-1.57-3.5-3.51,0-1.94,1.57-3.5,3.51-3.5h.51c1.93,0,3.49,1.58,3.48,3.52,0,.31-.04,.61-.12,.9Zm9.72-56.76c-.23,.86-.8,1.64-1.63,2.12-1.67,.96-3.82,.39-4.78-1.29l-.25-.44c-.96-1.67-.39-3.81,1.29-4.78,1.67-.96,3.82-.39,4.78,1.29l.25,.44c.48,.84,.58,1.79,.35,2.66Zm-10.78-18.73c-.23,.86-.8,1.64-1.63,2.12-1.67,.96-3.82,.39-4.78-1.29l-.25-.44c-.96-1.68-.39-3.82,1.29-4.78,1.67-.96,3.82-.39,4.78,1.29l.25,.44c.48,.84,.58,1.79,.35,2.66Zm-20.65,75.47c-.4,1.49-1.76,2.59-3.38,2.59h-.51c-1.93,0-3.5-1.57-3.5-3.51,0-1.93,1.57-3.5,3.51-3.5h.5c1.93,0,3.5,1.57,3.5,3.5,0,.32-.04,.62-.12,.91Zm9.87-94.2c-.23,.86-.8,1.64-1.63,2.12-1.67,.96-3.82,.39-4.78-1.29l-.25-.44c-.96-1.68-.39-3.82,1.29-4.78,1.67-.96,3.82-.39,4.78,1.29l.25,.44c.48,.84,.58,1.79,.35,2.66Zm-31.57,94.18c-.4,1.49-1.76,2.59-3.38,2.59h-.51c-1.93,0-3.5-1.57-3.5-3.51,0-1.93,1.57-3.5,3.51-3.5h.5c1.93,0,3.5,1.57,3.5,3.5,0,.32-.04,.62-.12,.91Zm20.79-112.91c-.23,.86-.8,1.64-1.63,2.12-1.67,.96-3.82,.39-4.78-1.29l-.25-.44c-.96-1.68-.39-3.81,1.29-4.78,1.67-.96,3.82-.39,4.78,1.29l.25,.44c.48,.84,.58,1.79,.35,2.66Zm-42.47,112.88c-.4,1.49-1.77,2.59-3.38,2.59h-.5c-1.93,0-3.5-1.57-3.5-3.51,0-1.93,1.57-3.5,3.51-3.5h.5c1.93,0,3.5,1.57,3.5,3.51,0,.31-.04,.62-.12,.91Zm31.69-131.62c-.23,.86-.8,1.64-1.63,2.12-1.67,.96-3.82,.39-4.78-1.29l-.25-.44c-.96-1.68-.39-3.81,1.29-4.78,1.67-.96,3.82-.39,4.78,1.29l.25,.44c.48,.84,.58,1.79,.35,2.66Zm-10.78-18.73c-.23,.86-.8,1.64-1.63,2.12-1.67,.96-3.82,.39-4.78-1.29l-.25-.44c-.96-1.68-.39-3.81,1.29-4.78,1.67-.96,3.82-.39,4.78,1.29l.25,.44c.48,.84,.58,1.79,.35,2.66Zm-42.59,150.32c-.4,1.49-1.77,2.59-3.38,2.59h-.5c-1.93,0-3.5-1.57-3.5-3.51,0-1.93,1.57-3.5,3.5-3.49h.5c1.93,0,3.5,1.57,3.5,3.51,0,.31-.04,.62-.12,.91Zm31.81-169.05c-.23,.86-.8,1.64-1.63,2.12-1.67,.96-3.82,.39-4.78-1.29l-.25-.44c-.96-1.68-.39-3.81,1.29-4.78,1.67-.96,3.82-.39,4.78,1.29l.25,.44c.48,.84,.58,1.79,.35,2.66Zm-53.49,169.02c-.4,1.49-1.76,2.59-3.38,2.59h-.51c-1.93,0-3.5-1.57-3.5-3.51,0-1.93,1.57-3.5,3.51-3.5h.5c1.93,0,3.5,1.57,3.5,3.5,0,.32-.04,.62-.12,.91Zm42.71-187.76c-.23,.86-.8,1.64-1.63,2.12-1.67,.96-3.82,.39-4.78-1.29l-.25-.44c-.96-1.68-.39-3.81,1.29-4.78,1.67-.96,3.82-.39,4.78,1.29l.25,.44c.48,.84,.58,1.79,.35,2.66Zm-64.38,187.73c-.4,1.49-1.76,2.59-3.38,2.59h-.51c-1.93,0-3.5-1.57-3.5-3.51,0-1.93,1.57-3.5,3.51-3.5h.5c1.93,0,3.5,1.57,3.5,3.5,0,.32-.04,.62-.12,.91Zm53.6-206.46c-.23,.86-.8,1.64-1.63,2.12-1.67,.96-3.82,.39-4.78-1.29l-.25-.44c-.96-1.68-.39-3.81,1.29-4.78,1.67-.96,3.82-.39,4.78,1.29l.25,.44c.48,.84,.58,1.79,.35,2.66Zm-10.78-18.74c-.23,.86-.8,1.64-1.63,2.12-1.67,.96-3.82,.39-4.78-1.29l-.25-.44c-.96-1.68-.39-3.81,1.29-4.78,1.67-.96,3.82-.39,4.78,1.29l.25,.44c.48,.84,.58,1.79,.35,2.66Zm-64.49,225.16c-.4,1.49-1.77,2.59-3.39,2.59h-.5c-1.93,0-3.5-1.57-3.5-3.51,0-1.93,1.57-3.5,3.51-3.5h.51c1.93,0,3.5,1.58,3.49,3.51,0,.31-.04,.62-.12,.9Zm53.71-243.9c-.23,.86-.8,1.64-1.63,2.12-1.67,.96-3.82,.39-4.78-1.29l-.25-.44c-.96-1.68-.39-3.81,1.29-4.78,1.67-.96,3.82-.39,4.78,1.29l.25,.44c.48,.84,.58,1.79,.35,2.66Zm-75.38,243.87c-.4,1.49-1.77,2.59-3.39,2.59h-.5c-1.93,0-3.5-1.57-3.5-3.51,0-1.93,1.57-3.5,3.51-3.5h.51c1.93,0,3.5,1.58,3.49,3.51,0,.31-.04,.62-.12,.9Zm64.6-262.6c-.23,.86-.8,1.64-1.63,2.12-1.67,.96-3.82,.39-4.78-1.29l-.25-.44c-.96-1.68-.39-3.81,1.29-4.78,1.67-.96,3.82-.39,4.78,1.29l.25,.44c.48,.84,.58,1.79,.35,2.66Zm-86.27,262.57c-.4,1.49-1.77,2.59-3.39,2.59h-.5c-1.93,0-3.5-1.57-3.5-3.51,0-1.93,1.57-3.5,3.51-3.5h.51c1.93,0,3.5,1.58,3.49,3.51,0,.31-.04,.62-.12,.9Zm75.49-281.3c-.23,.86-.8,1.64-1.63,2.12-1.67,.96-3.82,.39-4.78-1.29l-.25-.44c-.96-1.68-.39-3.81,1.29-4.78,1.67-.96,3.82-.39,4.78,1.29l.25,.44c.48,.84,.58,1.79,.35,2.66Zm-10.78-18.73c-.23,.86-.8,1.64-1.63,2.12-1.67,.96-3.82,.39-4.78-1.29l-.25-.44c-.96-1.68-.39-3.81,1.29-4.78,1.67-.96,3.82-.39,4.78,1.29l.25,.44c.48,.84,.58,1.79,.35,2.66Zm-86.37,300c-.4,1.49-1.77,2.59-3.39,2.59h-.5c-1.93,0-3.5-1.57-3.5-3.51,0-1.93,1.57-3.5,3.51-3.5h.51c1.93,0,3.5,1.58,3.49,3.51,0,.31-.04,.62-.12,.9Zm75.59-318.74c-.23,.86-.8,1.64-1.63,2.12-1.67,.96-3.82,.39-4.78-1.29l-.25-.44c-.96-1.68-.39-3.81,1.29-4.78,1.67-.96,3.82-.39,4.78,1.29l.25,.44c.48,.84,.58,1.79,.35,2.66Zm-97.27,318.71c-.4,1.49-1.77,2.59-3.38,2.59h-.5c-1.93,0-3.5-1.57-3.5-3.51,0-1.93,1.57-3.5,3.51-3.5h.5c1.93,0,3.5,1.57,3.5,3.51,0,.31-.04,.62-.12,.91Zm86.49-337.44c-.23,.86-.8,1.64-1.63,2.12-1.67,.96-3.82,.39-4.78-1.29l-.25-.44c-.96-1.68-.39-3.81,1.29-4.78,1.67-.96,3.82-.39,4.78,1.29l.25,.44c.48,.84,.58,1.79,.35,2.66Zm-10.78-18.73c-.23,.87-.8,1.64-1.64,2.13-1.68,.96-3.82,.38-4.78-1.29l-.25-.44c-.96-1.68-.38-3.82,1.29-4.78,1.68-.96,3.82-.38,4.78,1.29l.25,.44c.48,.84,.58,1.79,.34,2.65Zm-97.38,356.14c-.4,1.49-1.77,2.59-3.39,2.59h-.5c-1.93,0-3.5-1.57-3.5-3.51,0-1.93,1.57-3.5,3.51-3.5h.51c1.93,0,3.5,1.58,3.49,3.51,0,.31-.04,.62-.12,.9Zm86.6-374.88c-.23,.86-.8,1.64-1.63,2.12-1.67,.96-3.82,.39-4.78-1.29l-.25-.44c-.96-1.68-.39-3.81,1.29-4.78,1.67-.96,3.82-.39,4.78,1.29l.25,.44c.48,.84,.58,1.79,.35,2.66Zm-108.27,374.84c-.4,1.49-1.77,2.59-3.39,2.59h-.5c-1.93,0-3.5-1.57-3.5-3.51,0-1.93,1.57-3.5,3.51-3.5h.51c1.93,0,3.5,1.58,3.49,3.51,0,.31-.04,.62-.12,.9Zm97.49-393.58c-.23,.86-.8,1.64-1.63,2.12-1.67,.96-3.82,.39-4.78-1.29l-.25-.44c-.96-1.68-.39-3.81,1.29-4.78,1.67-.96,3.82-.39,4.78,1.29l.25,.44c.48,.84,.58,1.79,.35,2.66Zm-119.16,393.55c-.4,1.49-1.77,2.59-3.39,2.59h-.5c-1.93,0-3.5-1.57-3.5-3.51,0-1.93,1.57-3.5,3.51-3.5h.51c1.93,0,3.5,1.58,3.49,3.51,0,.31-.04,.62-.12,.9Zm108.38-412.28c-.23,.86-.8,1.64-1.63,2.12-1.67,.96-3.82,.39-4.78-1.29l-.25-.44c-.96-1.68-.39-3.81,1.29-4.78,1.67-.96,3.82-.39,4.78,1.29l.25,.44c.48,.84,.58,1.79,.35,2.66Zm-10.78-18.74c-.23,.86-.8,1.64-1.63,2.12-1.67,.96-3.82,.39-4.78-1.29l-.25-.44c-.96-1.68-.39-3.81,1.29-4.78,1.67-.96,3.82-.39,4.78,1.29l.25,.44c.48,.84,.58,1.79,.35,2.66Zm-119.27,430.98c-.4,1.49-1.77,2.59-3.39,2.59h-.5c-1.93,0-3.5-1.57-3.5-3.51,0-1.93,1.57-3.5,3.51-3.5h.51c1.93,0,3.5,1.58,3.49,3.51,0,.31-.04,.62-.12,.9Zm106.82-447c-.25,.93-.88,1.75-1.8,2.22-1.57,1.1-3.73,.73-4.85-.82-1.13-1.57-.77-3.76,.8-4.88,.29-.21,.61-.4,.94-.56,1.74-.85,3.83-.13,4.68,1.6,.39,.79,.45,1.66,.24,2.45Zm-128.49,446.97c-.4,1.49-1.77,2.59-3.39,2.59h-.5c-1.93,0-3.5-1.57-3.5-3.51,0-1.93,1.57-3.5,3.51-3.5h.51c1.93,0,3.5,1.58,3.49,3.51,0,.31-.04,.62-.12,.9Zm106.26-409.59c-.08,.29-.19,.57-.35,.84l-.26,.45c-.97,1.67-3.12,2.23-4.79,1.26-1.67-.97-2.23-3.11-1.26-4.79l.24-.42c.97-1.67,3.11-2.25,4.78-1.28,1.4,.81,2.03,2.45,1.63,3.94Zm-10.89,18.79c-.08,.29-.19,.57-.35,.84l-.26,.45c-.97,1.67-3.12,2.23-4.79,1.26-1.67-.97-2.24-3.11-1.26-4.79l.24-.42c.96-1.68,3.1-2.25,4.78-1.29,1.41,.81,2.04,2.45,1.63,3.94Zm-10.88,18.77c-.08,.29-.19,.57-.35,.84l-.26,.45c-.97,1.67-3.12,2.23-4.79,1.26-1.67-.97-2.23-3.12-1.26-4.79l.24-.42c.96-1.68,3.1-2.25,4.78-1.29,1.41,.81,2.04,2.45,1.63,3.94Zm-10.87,18.76c-.08,.29-.19,.57-.35,.84l-.26,.46c-.98,1.67-3.12,2.23-4.79,1.25s-2.23-3.12-1.25-4.79l.24-.41c.96-1.68,3.1-2.25,4.78-1.29,1.41,.81,2.04,2.45,1.63,3.94Zm-95.3,353.23c-.4,1.49-1.77,2.59-3.39,2.59h-.5c-1.93,0-3.5-1.57-3.5-3.51,0-1.93,1.57-3.5,3.51-3.5h.51c1.93,0,3.5,1.58,3.49,3.51,0,.31-.04,.62-.12,.9Zm84.43-334.47c-.08,.29-.19,.57-.35,.84l-.26,.46c-.98,1.67-3.12,2.23-4.79,1.25-1.67-.98-2.23-3.12-1.25-4.79l.24-.41c.96-1.68,3.1-2.25,4.78-1.29,1.41,.81,2.04,2.45,1.63,3.94Zm-10.87,18.75c-.08,.29-.19,.57-.35,.84l-.26,.46c-.98,1.67-3.12,2.23-4.79,1.25s-2.23-3.12-1.25-4.79l.24-.41c.96-1.68,3.1-2.25,4.78-1.29,1.41,.81,2.04,2.45,1.63,3.94Zm-10.87,18.75c-.08,.29-.19,.57-.35,.84l-.26,.46c-.98,1.67-3.12,2.23-4.79,1.25-1.67-.98-2.23-3.12-1.25-4.79l.24-.41c.96-1.68,3.1-2.25,4.78-1.29,1.41,.81,2.04,2.45,1.63,3.94Zm-84.39,296.93c-.4,1.5-1.77,2.59-3.39,2.59h-.49c-1.93,0-3.5-1.57-3.5-3.51,0-1.93,1.57-3.5,3.5-3.49h.51c1.93,0,3.49,1.58,3.48,3.52,0,.31-.04,.61-.12,.9Zm73.52-278.18c-.08,.29-.19,.57-.35,.84l-.26,.46c-.98,1.67-3.12,2.23-4.79,1.25s-2.23-3.12-1.25-4.79l.24-.41c.96-1.68,3.1-2.25,4.78-1.29,1.41,.81,2.04,2.45,1.63,3.94Zm-10.86,18.75c-.08,.29-.19,.57-.35,.84l-.26,.46c-.98,1.67-3.12,2.23-4.79,1.25-1.67-.98-2.23-3.12-1.25-4.79l.24-.41c.96-1.68,3.1-2.25,4.78-1.29,1.41,.81,2.04,2.45,1.63,3.94Zm-10.86,18.75c-.08,.29-.19,.57-.35,.84l-.26,.45c-.97,1.67-3.12,2.23-4.79,1.26-1.67-.97-2.23-3.11-1.26-4.79l.24-.42c.96-1.68,3.1-2.25,4.78-1.29,1.41,.81,2.04,2.45,1.63,3.94Zm-10.87,18.76c-.08,.29-.19,.57-.35,.84l-.26,.46c-.98,1.67-3.12,2.23-4.79,1.25-1.67-.98-2.23-3.12-1.25-4.79l.24-.41c.96-1.68,3.1-2.25,4.78-1.29,1.41,.81,2.04,2.45,1.63,3.94Zm-62.63,221.89c-.4,1.5-1.77,2.59-3.39,2.59h-.49c-1.93,0-3.5-1.57-3.5-3.51,0-1.93,1.57-3.5,3.5-3.49h.51c1.93,0,3.49,1.58,3.48,3.52,0,.31-.04,.61-.12,.9Zm51.76-203.15c-.08,.29-.19,.57-.35,.84l-.26,.46c-.98,1.67-3.12,2.23-4.79,1.25-1.67-.98-2.23-3.12-1.25-4.79l.24-.41c.96-1.68,3.1-2.25,4.78-1.29,1.41,.81,2.04,2.45,1.63,3.94Zm-10.86,18.75c-.08,.29-.19,.57-.35,.84l-.26,.45c-.97,1.67-3.12,2.23-4.79,1.26-1.67-.97-2.23-3.12-1.26-4.79l.24-.42c.96-1.67,3.1-2.25,4.78-1.29,1.41,.81,2.04,2.45,1.63,3.94Zm-10.86,18.75c-.08,.29-.19,.57-.35,.84l-.26,.45c-.97,1.67-3.12,2.23-4.79,1.26-1.67-.98-2.24-3.12-1.26-4.79l.24-.42c.96-1.67,3.1-2.25,4.78-1.29,1.41,.81,2.04,2.45,1.63,3.94Zm-10.86,18.75c-.08,.29-.19,.57-.35,.84l-.26,.45c-.97,1.67-3.12,2.23-4.79,1.26-1.67-.98-2.23-3.12-1.26-4.79l.24-.42c.96-1.67,3.1-2.25,4.78-1.29,1.41,.81,2.04,2.45,1.63,3.94Zm-40.89,146.87c-.4,1.49-1.77,2.59-3.38,2.59h-.5c-1.93,0-3.5-1.57-3.5-3.5,0-1.94,1.57-3.5,3.5-3.5h.51c1.93,0,3.5,1.57,3.5,3.51,0,.31-.04,.62-.12,.91Zm30.03-128.11c-.08,.29-.19,.57-.35,.84l-.26,.45c-.97,1.67-3.12,2.23-4.79,1.26-1.67-.98-2.23-3.12-1.26-4.79l.24-.42c.96-1.67,3.1-2.25,4.78-1.29,1.41,.81,2.04,2.45,1.63,3.94Zm-10.87,18.76c-.08,.29-.19,.57-.35,.84l-.26,.46c-.98,1.67-3.12,2.23-4.79,1.25-1.67-.98-2.23-3.12-1.25-4.79l.24-.41c.96-1.67,3.1-2.25,4.78-1.29,1.41,.81,2.04,2.45,1.63,3.94Zm-10.87,18.76c-.08,.29-.19,.57-.35,.84l-.26,.46c-.98,1.67-3.12,2.23-4.79,1.25-1.67-.98-2.23-3.12-1.25-4.79l.24-.41c.96-1.67,3.1-2.25,4.78-1.29,1.41,.81,2.04,2.45,1.63,3.94Zm-30.03,90.57c-.4,1.49-1.77,2.59-3.39,2.59h-.5c-1.93,0-3.5-1.58-3.49-3.51,0-1.93,1.58-3.5,3.51-3.49h.5c1.93,0,3.5,1.58,3.49,3.51,0,.31-.04,.62-.12,.9Zm19.16-71.8c-.08,.29-.19,.57-.35,.84l-.26,.45c-.97,1.67-3.12,2.23-4.79,1.26-1.67-.98-2.23-3.12-1.26-4.79l.24-.42c.96-1.67,3.1-2.25,4.78-1.29,1.41,.81,2.04,2.45,1.63,3.94Zm-10.87,18.78c-.08,.29-.19,.57-.35,.84l-.26,.46c-.98,1.67-3.12,2.23-4.79,1.25-1.67-.98-2.23-3.12-1.25-4.79l.24-.41c.96-1.68,3.1-2.25,4.78-1.29,1.41,.81,2.04,2.45,1.63,3.94Zm-10.88,18.79c-.08,.29-.19,.57-.35,.84l-.26,.46c-.98,1.67-3.12,2.23-4.79,1.25-1.67-.98-2.23-3.12-1.25-4.79l.24-.41c.96-1.67,3.1-2.25,4.78-1.29,1.41,.81,2.04,2.45,1.63,3.94Zm-10.89,18.81c-.08,.29-.2,.58-.35,.85l-.25,.43c-.97,1.67-3.11,2.24-4.78,1.28-1.67-.97-2.24-3.11-1.28-4.78l.25-.44c.97-1.67,3.11-2.24,4.78-1.27,1.4,.81,2.02,2.45,1.62,3.94Zm-8.35,15.38c-.4,1.49-1.76,2.59-3.38,2.59h-.44c-.33,0-.67-.03-1-.12-1.87-.5-2.97-2.42-2.47-4.29,.26-.97,1.1-2.59,3.8-2.59h.1c1.93,0,3.5,1.56,3.5,3.5,0,.32-.04,.62-.12,.92Zm247.33-427.88c-.08,.29-.19,.57-.35,.84l-.26,.45c-.97,1.67-3.12,2.23-4.79,1.26-1.67-.97-2.23-3.11-1.26-4.79l.24-.42c.97-1.67,3.11-2.25,4.78-1.28,1.4,.81,2.03,2.45,1.63,3.94Z"/><path d="M118.93,436.97l.44,.25c1.68,.96,2.25,3.1,1.29,4.78-.96,1.68-3.1,2.25-4.78,1.29l-.44-.25c-1.68-.96-2.25-3.1-1.29-4.78,.48-.84,1.26-1.4,2.12-1.63s1.82-.14,2.66,.35Zm18.74,10.78l.44,.25c1.68,.96,2.25,3.1,1.29,4.78-.96,1.68-3.1,2.25-4.78,1.29l-.44-.25c-1.68-.96-2.25-3.1-1.29-4.78,.48-.84,1.26-1.4,2.12-1.63,.86-.23,1.82-.14,2.66,.35Zm-21.05,9.08c1.93,0,3.5,1.57,3.49,3.51v.5c0,1.93-1.57,3.5-3.5,3.5-1.93,0-3.5-1.57-3.5-3.5v-.51c0-1.61,1.1-2.97,2.59-3.37,.29-.08,.6-.12,.92-.12Zm39.79,1.7l.44,.25c1.68,.96,2.25,3.1,1.29,4.78-.96,1.68-3.1,2.25-4.78,1.29l-.44-.25c-1.68-.96-2.25-3.1-1.29-4.78,.48-.84,1.26-1.4,2.12-1.63s1.82-.14,2.66,.35Zm-39.79,20.03c1.93,0,3.51,1.55,3.51,3.48v.51c0,1.93-1.56,3.5-3.49,3.51-1.93,0-3.5-1.56-3.51-3.5v-.49c0-1.62,1.09-2.99,2.59-3.39,.29-.08,.59-.12,.9-.12Zm58.52-9.25l.44,.25c1.68,.96,2.25,3.1,1.29,4.78-.96,1.68-3.1,2.25-4.78,1.29l-.44-.25c-1.68-.96-2.25-3.1-1.29-4.78,.48-.84,1.26-1.4,2.12-1.63s1.82-.14,2.66,.35Zm18.73,10.78l.44,.25c1.68,.96,2.25,3.1,1.29,4.78-.96,1.68-3.1,2.25-4.78,1.29l-.44-.25c-1.68-.96-2.25-3.1-1.29-4.78,.48-.84,1.26-1.4,2.12-1.63s1.82-.14,2.66,.35Zm-77.21,20.18c1.93,0,3.5,1.57,3.5,3.5v.5c0,1.93-1.56,3.5-3.49,3.51-1.93,0-3.5-1.56-3.51-3.5v-.51c0-1.62,1.1-2.98,2.59-3.38,.29-.08,.6-.12,.91-.12Zm95.95-9.4l.44,.25c1.68,.96,2.25,3.1,1.29,4.78-.96,1.68-3.1,2.25-4.78,1.29l-.44-.25c-1.68-.96-2.25-3.1-1.29-4.78,.48-.84,1.26-1.4,2.12-1.63s1.82-.14,2.66,.35Zm-95.92,31.1c1.93,0,3.5,1.57,3.5,3.5v.5c0,1.93-1.56,3.5-3.49,3.51-1.93,0-3.5-1.56-3.51-3.5v-.51c0-1.62,1.1-2.98,2.59-3.38,.29-.08,.6-.12,.91-.12Zm114.65-20.32l.44,.25c1.68,.96,2.25,3.1,1.29,4.78-.96,1.68-3.1,2.25-4.78,1.29l-.44-.25c-1.68-.96-2.25-3.1-1.29-4.78,.48-.84,1.26-1.4,2.12-1.63s1.82-.14,2.66,.35Zm-114.63,42.01c1.93,0,3.5,1.56,3.51,3.5v.5c0,1.93-1.56,3.5-3.49,3.51-1.93,0-3.5-1.56-3.51-3.5v-.5c0-1.62,1.09-2.98,2.59-3.38,.29-.08,.59-.12,.91-.12Zm133.36-31.23l.44,.25c1.68,.96,2.25,3.1,1.29,4.78-.96,1.68-3.1,2.25-4.78,1.29l-.44-.25c-1.68-.96-2.25-3.1-1.29-4.78,.48-.84,1.26-1.4,2.12-1.63s1.82-.14,2.66,.35Zm18.73,10.78l.44,.25c1.68,.96,2.25,3.1,1.29,4.78-.96,1.68-3.1,2.25-4.78,1.29l-.44-.25c-1.68-.96-2.25-3.1-1.29-4.78,.48-.84,1.26-1.4,2.12-1.63s1.82-.14,2.66,.35Zm-152.07,42.13c1.93,0,3.5,1.56,3.51,3.5v.5c0,1.93-1.57,3.5-3.49,3.5-1.93,0-3.5-1.56-3.51-3.5v-.5c0-1.62,1.09-2.98,2.59-3.38,.29-.08,.59-.12,.91-.12Zm170.8-31.35l.44,.25c1.68,.96,2.25,3.1,1.29,4.78-.96,1.68-3.1,2.25-4.78,1.29l-.44-.25c-1.68-.96-2.25-3.1-1.29-4.78,.48-.84,1.26-1.4,2.12-1.63s1.82-.14,2.66,.35Zm-170.76,53.02c1.93,0,3.5,1.57,3.5,3.5v.5c0,1.93-1.56,3.5-3.49,3.51-1.93,0-3.5-1.56-3.51-3.5v-.51c0-1.62,1.1-2.98,2.59-3.38,.29-.08,.6-.12,.91-.12Zm189.5-42.24l.44,.25c1.68,.96,2.25,3.1,1.29,4.78-.96,1.68-3.1,2.25-4.78,1.29l-.44-.25c-1.68-.96-2.25-3.1-1.29-4.78,.48-.84,1.26-1.4,2.12-1.63s1.82-.14,2.66,.35Zm-189.47,63.91c1.93,0,3.5,1.57,3.5,3.5v.5c0,1.93-1.56,3.5-3.49,3.51-1.93,0-3.5-1.56-3.51-3.5v-.51c0-1.62,1.1-2.98,2.59-3.38,.29-.08,.6-.12,.91-.12Zm208.2-53.14l.44,.25c1.68,.96,2.25,3.1,1.29,4.78-.96,1.68-3.1,2.25-4.78,1.29l-.44-.25c-1.68-.96-2.25-3.1-1.29-4.78,.48-.84,1.26-1.4,2.12-1.63,.86-.23,1.82-.14,2.66,.35Zm18.74,10.78l.44,.25c1.68,.96,2.25,3.1,1.29,4.78-.96,1.68-3.1,2.25-4.78,1.29l-.44-.25c-1.68-.96-2.25-3.1-1.29-4.78,.48-.84,1.26-1.4,2.12-1.63s1.82-.14,2.66,.35Zm-226.92,64.02c1.93,0,3.5,1.56,3.51,3.49v.51c0,1.93-1.56,3.5-3.49,3.51-1.93,0-3.5-1.56-3.51-3.5v-.5c0-1.62,1.09-2.99,2.59-3.39,.29-.08,.59-.12,.9-.12Zm245.65-53.24l.44,.25c1.68,.96,2.25,3.1,1.29,4.78-.96,1.68-3.1,2.25-4.78,1.29l-.44-.25c-1.68-.96-2.25-3.1-1.29-4.78,.48-.84,1.26-1.4,2.12-1.63s1.82-.14,2.66,.35Zm-245.62,74.91c1.93,0,3.5,1.56,3.51,3.49v.51c0,1.93-1.56,3.5-3.49,3.51-1.93,0-3.5-1.56-3.51-3.5v-.5c0-1.62,1.09-2.99,2.59-3.39,.29-.08,.59-.12,.9-.12Zm264.35-64.13l.44,.25c1.68,.96,2.25,3.1,1.29,4.78-.96,1.68-3.1,2.25-4.78,1.29l-.44-.25c-1.68-.96-2.25-3.1-1.29-4.78,.48-.84,1.26-1.4,2.12-1.63s1.82-.14,2.66,.35Zm-264.32,85.8c1.93,0,3.5,1.56,3.51,3.49v.51c0,1.93-1.56,3.5-3.49,3.51-1.93,0-3.5-1.56-3.51-3.5v-.5c0-1.62,1.09-2.99,2.59-3.39,.29-.08,.59-.12,.9-.12Zm283.05-75.02l.44,.25c1.68,.96,2.25,3.1,1.29,4.78-.96,1.68-3.1,2.25-4.78,1.29l-.44-.25c-1.68-.96-2.25-3.1-1.29-4.78,.48-.84,1.26-1.4,2.12-1.63s1.82-.14,2.66,.35Zm18.73,10.78l.44,.25c1.68,.96,2.25,3.1,1.29,4.78-.96,1.68-3.1,2.25-4.78,1.29l-.44-.25c-1.68-.96-2.25-3.1-1.29-4.78,.48-.84,1.26-1.4,2.12-1.63s1.82-.14,2.66,.35Zm-301.76,85.9c1.93,0,3.5,1.56,3.51,3.49v.51c0,1.93-1.56,3.5-3.49,3.51-1.93,0-3.5-1.56-3.51-3.5v-.5c0-1.62,1.09-2.99,2.59-3.39,.29-.08,.59-.12,.9-.12Zm320.49-75.13l.44,.25c1.68,.96,2.25,3.1,1.29,4.78-.96,1.68-3.1,2.25-4.78,1.29l-.44-.25c-1.68-.96-2.25-3.1-1.29-4.78,.48-.84,1.26-1.4,2.12-1.63s1.82-.14,2.66,.35Zm-320.45,96.8c1.93,0,3.5,1.56,3.51,3.5v.5c0,1.93-1.56,3.5-3.49,3.51-1.93,0-3.5-1.56-3.51-3.5v-.5c0-1.62,1.09-2.98,2.59-3.38,.29-.08,.59-.12,.91-.12Zm339.19-86.02l.44,.25c1.68,.96,2.25,3.1,1.29,4.78-.96,1.68-3.1,2.25-4.78,1.29l-.44-.25c-1.68-.96-2.25-3.1-1.29-4.78,.48-.84,1.26-1.4,2.12-1.63s1.82-.14,2.66,.35Zm18.73,10.78l.44,.25c1.68,.96,2.26,3.1,1.29,4.78-.96,1.68-3.1,2.25-4.78,1.29l-.44-.25c-1.68-.96-2.26-3.1-1.29-4.78,.48-.84,1.26-1.4,2.13-1.64,.86-.23,1.82-.14,2.65,.34Zm-357.89,96.91c1.93,0,3.5,1.56,3.51,3.49v.51c0,1.93-1.56,3.5-3.49,3.51-1.93,0-3.5-1.56-3.51-3.5v-.5c0-1.62,1.09-2.99,2.59-3.39,.29-.08,.59-.12,.9-.12Zm376.63-86.13l.44,.25c1.68,.96,2.25,3.1,1.29,4.78-.96,1.68-3.1,2.25-4.78,1.29l-.44-.25c-1.68-.96-2.25-3.1-1.29-4.78,.48-.84,1.26-1.4,2.12-1.63s1.82-.14,2.66,.35Zm-376.6,107.8c1.93,0,3.5,1.56,3.51,3.49v.51c0,1.93-1.56,3.5-3.49,3.51-1.93,0-3.5-1.56-3.51-3.5v-.5c0-1.62,1.09-2.99,2.59-3.39,.29-.08,.59-.12,.9-.12Zm395.33-97.02l.44,.25c1.68,.96,2.25,3.1,1.29,4.78-.96,1.68-3.1,2.25-4.78,1.29l-.44-.25c-1.68-.96-2.25-3.1-1.29-4.78,.48-.84,1.26-1.4,2.12-1.63s1.82-.14,2.66,.35Zm-395.3,118.69c1.93,0,3.5,1.56,3.51,3.49v.51c0,1.93-1.56,3.5-3.49,3.51-1.93,0-3.5-1.56-3.51-3.5v-.5c0-1.62,1.09-2.99,2.59-3.39,.29-.08,.59-.12,.9-.12Zm414.03-107.91l.44,.25c1.68,.96,2.25,3.1,1.29,4.78-.96,1.68-3.1,2.25-4.78,1.29l-.44-.25c-1.68-.96-2.25-3.1-1.29-4.78,.48-.84,1.26-1.4,2.12-1.63s1.82-.14,2.66,.35Zm18.74,10.78l.44,.25c1.68,.96,2.25,3.1,1.29,4.78-.96,1.68-3.1,2.25-4.78,1.29l-.44-.25c-1.68-.96-2.25-3.1-1.29-4.78,.48-.84,1.26-1.4,2.12-1.63s1.82-.14,2.66,.35Zm-432.73,118.8c1.93,0,3.5,1.56,3.51,3.49v.51c0,1.93-1.57,3.5-3.49,3.51-1.93,0-3.5-1.56-3.51-3.5v-.5c0-1.62,1.09-2.99,2.59-3.39,.29-.08,.59-.12,.9-.12Zm448.55-106.46c1.74,.85,2.45,2.95,1.6,4.68-.16,.33-.35,.64-.56,.94-1.13,1.57-3.32,1.93-4.88,.8-1.56-1.12-1.92-3.28-.82-4.85,.46-.92,1.29-1.55,2.22-1.8,.79-.21,1.66-.15,2.45,.24ZM117.13,825.38c1.93,0,3.5,1.56,3.51,3.49v.51c0,1.93-1.56,3.5-3.49,3.51-1.93,0-3.5-1.56-3.51-3.5v-.5c0-1.62,1.09-2.99,2.59-3.39,.29-.08,.59-.12,.9-.12Zm412.62-104.51c.97,1.67,.39,3.81-1.28,4.78l-.42,.24c-1.67,.97-3.81,.41-4.79-1.26-.97-1.67-.41-3.81,1.26-4.79l.45-.26c.27-.16,.55-.27,.84-.35,1.49-.4,3.13,.23,3.94,1.63Zm-18.78,10.89c.97,1.67,.39,3.81-1.29,4.78l-.42,.24c-1.67,.98-3.81,.41-4.79-1.26-.97-1.67-.41-3.81,1.26-4.79l.45-.26c.27-.16,.55-.27,.84-.35,1.5-.4,3.13,.23,3.94,1.63Zm-18.77,10.88c.97,1.67,.39,3.81-1.29,4.78l-.42,.24c-1.67,.97-3.81,.41-4.79-1.26-.97-1.67-.41-3.81,1.26-4.79l.45-.26c.27-.16,.55-.27,.84-.35,1.5-.4,3.13,.23,3.94,1.63Zm-18.76,10.87c.97,1.67,.39,3.81-1.29,4.78l-.41,.24c-1.67,.98-3.81,.42-4.79-1.25-.98-1.67-.42-3.81,1.25-4.79l.46-.26c.27-.16,.55-.27,.84-.35,1.5-.4,3.13,.23,3.94,1.63Zm-356.27,93.55c1.93,0,3.5,1.56,3.51,3.49v.51c0,1.93-1.56,3.5-3.49,3.51-1.93,0-3.5-1.56-3.51-3.5v-.5c0-1.62,1.09-2.99,2.59-3.39,.29-.08,.59-.12,.9-.12Zm337.51-82.68c.97,1.67,.39,3.81-1.29,4.78l-.41,.24c-1.67,.98-3.81,.42-4.79-1.25-.98-1.67-.42-3.81,1.25-4.79l.46-.26c.27-.16,.55-.27,.84-.35,1.5-.4,3.13,.23,3.94,1.63Zm-18.75,10.87c.97,1.67,.39,3.81-1.29,4.78l-.41,.24c-1.67,.98-3.81,.42-4.79-1.25s-.42-3.81,1.25-4.79l.46-.26c.27-.16,.55-.27,.84-.35,1.5-.4,3.13,.23,3.94,1.63Zm-18.75,10.87c.97,1.67,.39,3.81-1.29,4.78l-.41,.24c-1.67,.98-3.81,.42-4.79-1.25-.98-1.67-.42-3.81,1.25-4.79l.46-.26c.27-.16,.55-.27,.84-.35,1.5-.4,3.13,.23,3.94,1.63Zm-299.97,82.63c1.93,0,3.51,1.55,3.51,3.48v.51c0,1.93-1.56,3.5-3.49,3.5-1.93,0-3.5-1.56-3.51-3.5v-.49c0-1.62,1.09-2.99,2.59-3.39,.29-.08,.59-.12,.9-.12Zm281.22-71.77c.97,1.67,.39,3.81-1.29,4.78l-.41,.24c-1.67,.98-3.81,.42-4.79-1.25s-.42-3.81,1.25-4.79l.46-.26c.27-.16,.55-.27,.84-.35,1.5-.4,3.13,.23,3.94,1.63Zm-18.75,10.86c.97,1.67,.39,3.81-1.29,4.78l-.41,.24c-1.67,.98-3.81,.42-4.79-1.25-.98-1.67-.42-3.81,1.25-4.79l.46-.26c.27-.16,.55-.27,.84-.35,1.5-.4,3.13,.23,3.94,1.63Zm-18.75,10.86c.97,1.67,.39,3.81-1.29,4.78l-.42,.24c-1.67,.97-3.81,.41-4.79-1.26-.97-1.67-.41-3.81,1.26-4.79l.45-.26c.27-.16,.55-.27,.84-.35,1.5-.4,3.13,.23,3.94,1.63Zm-18.76,10.87c.97,1.67,.39,3.81-1.29,4.78l-.41,.24c-1.67,.98-3.81,.42-4.79-1.25-.98-1.67-.42-3.81,1.25-4.79l.46-.26c.27-.16,.55-.27,.84-.35,1.5-.4,3.13,.23,3.94,1.63Zm-224.94,60.87c1.93,0,3.51,1.55,3.51,3.48v.51c0,1.93-1.56,3.5-3.49,3.5-1.93,0-3.5-1.56-3.51-3.5v-.49c0-1.62,1.09-2.99,2.59-3.39,.29-.08,.59-.12,.9-.12Zm206.19-50.01c.97,1.67,.39,3.81-1.29,4.78l-.41,.24c-1.67,.98-3.81,.42-4.79-1.25-.98-1.67-.42-3.81,1.25-4.79l.46-.26c.27-.16,.55-.27,.84-.35,1.5-.4,3.13,.23,3.94,1.63Zm-18.75,10.86c.96,1.67,.39,3.81-1.29,4.78l-.42,.24c-1.67,.97-3.81,.41-4.79-1.26-.97-1.67-.41-3.81,1.26-4.79l.45-.26c.27-.16,.55-.27,.84-.35,1.5-.4,3.13,.23,3.94,1.63Zm-18.75,10.86c.96,1.67,.39,3.81-1.29,4.78l-.42,.24c-1.67,.98-3.81,.41-4.79-1.26-.98-1.67-.41-3.81,1.26-4.79l.45-.26c.27-.16,.55-.27,.84-.35,1.5-.4,3.13,.23,3.94,1.63Zm-18.75,10.86c.96,1.67,.39,3.81-1.29,4.78l-.42,.24c-1.67,.98-3.81,.41-4.79-1.26-.98-1.67-.41-3.81,1.26-4.79l.45-.26c.27-.16,.55-.27,.84-.35,1.5-.4,3.13,.23,3.94,1.63Zm-149.9,39.13c1.93,0,3.5,1.56,3.51,3.5v.51c0,1.93-1.56,3.5-3.5,3.5-1.93,0-3.5-1.57-3.5-3.5v-.5c0-1.62,1.09-2.98,2.59-3.38,.29-.08,.59-.12,.91-.12Zm131.15-28.27c.96,1.67,.39,3.81-1.29,4.78l-.42,.24c-1.67,.98-3.81,.41-4.79-1.26-.98-1.67-.41-3.81,1.26-4.79l.45-.26c.27-.16,.55-.27,.84-.35,1.5-.4,3.13,.23,3.94,1.63Zm-18.76,10.86c.96,1.67,.39,3.81-1.29,4.78l-.41,.24c-1.67,.98-3.81,.41-4.79-1.25-.98-1.67-.42-3.81,1.25-4.79l.46-.26c.27-.16,.55-.27,.84-.35,1.5-.4,3.13,.23,3.94,1.63Zm-18.76,10.87c.96,1.67,.39,3.81-1.29,4.78l-.41,.24c-1.67,.98-3.81,.41-4.79-1.25-.98-1.67-.42-3.81,1.25-4.79l.46-.26c.27-.16,.55-.27,.84-.35,1.5-.4,3.13,.23,3.94,1.63Zm-93.6,28.27c1.93,0,3.5,1.56,3.51,3.49v.5c0,1.93-1.56,3.5-3.49,3.51-1.93,0-3.5-1.56-3.51-3.49v-.5c0-1.62,1.09-2.99,2.59-3.39,.29-.08,.59-.12,.9-.12Zm74.84-17.4c.96,1.67,.39,3.81-1.29,4.78l-.42,.24c-1.67,.98-3.81,.41-4.79-1.26-.98-1.67-.41-3.81,1.26-4.79l.45-.26c.27-.16,.55-.27,.84-.35,1.5-.4,3.13,.23,3.94,1.63Zm-18.78,10.87c.96,1.67,.39,3.81-1.29,4.78l-.41,.24c-1.67,.97-3.81,.41-4.79-1.25-.98-1.67-.42-3.81,1.25-4.79l.46-.26c.27-.16,.55-.27,.84-.35,1.5-.4,3.13,.23,3.94,1.63Zm-18.79,10.88c.96,1.67,.39,3.81-1.29,4.78l-.41,.24c-1.67,.98-3.81,.42-4.79-1.25-.98-1.67-.42-3.81,1.25-4.79l.46-.26c.27-.16,.55-.27,.84-.35,1.5-.4,3.13,.23,3.94,1.63Zm-18.82,10.88c.97,1.67,.4,3.81-1.27,4.78l-.44,.25c-1.67,.97-3.81,.4-4.78-1.28-.97-1.67-.4-3.81,1.28-4.78l.43-.25c.27-.16,.56-.28,.85-.35,1.49-.4,3.12,.22,3.94,1.62Zm-18.4,6.61c1.93,0,3.5,1.57,3.5,3.5v.1c0,2.7-1.62,3.54-2.59,3.8-1.87,.5-3.79-.6-4.29-2.47-.09-.34-.13-.67-.12-1v-.44c0-1.62,1.1-2.98,2.59-3.38,.29-.08,.6-.12,.92-.12Zm430.91-245.58c.97,1.67,.39,3.81-1.28,4.78l-.42,.24c-1.67,.97-3.81,.41-4.79-1.26-.97-1.67-.41-3.81,1.26-4.79l.45-.26c.27-.16,.55-.27,.84-.35,1.49-.4,3.13,.23,3.94,1.63Z"/><path d="M1300.73,436.62c.86,.23,1.64,.8,2.12,1.63,.96,1.67,.39,3.82-1.29,4.78l-.44,.25c-1.68,.96-3.82,.39-4.78-1.29-.96-1.67-.39-3.82,1.29-4.78l.44-.25c.84-.48,1.79-.58,2.66-.35Zm-18.73,10.78c.86,.23,1.64,.8,2.12,1.63,.96,1.67,.39,3.82-1.29,4.78l-.44,.25c-1.67,.96-3.81,.39-4.78-1.29-.96-1.67-.39-3.82,1.29-4.78l.44-.25c.84-.48,1.79-.58,2.66-.35Zm19.32,9.54c1.49,.4,2.58,1.76,2.59,3.37v.51c0,1.93-1.57,3.5-3.5,3.5-1.93,0-3.5-1.57-3.5-3.5v-.5c0-1.93,1.56-3.5,3.49-3.51,.32,0,.63,.04,.92,.12Zm-38.05,1.24c.86,.23,1.64,.8,2.12,1.63,.96,1.67,.39,3.82-1.29,4.78l-.44,.25c-1.68,.96-3.82,.39-4.78-1.29-.96-1.67-.39-3.82,1.29-4.78l.44-.25c.84-.48,1.79-.58,2.66-.35Zm38.03,20.5c1.5,.4,2.59,1.77,2.59,3.39v.49c0,1.93-1.57,3.5-3.51,3.5-1.94,0-3.5-1.57-3.5-3.51v-.51c0-1.93,1.58-3.49,3.52-3.48,.31,0,.61,.04,.9,.12Zm-56.76-9.72c.86,.23,1.64,.8,2.12,1.63,.96,1.67,.39,3.82-1.29,4.78l-.44,.25c-1.67,.96-3.81,.39-4.78-1.29-.96-1.67-.39-3.82,1.29-4.78l.44-.25c.84-.48,1.79-.58,2.66-.35Zm-18.73,10.78c.86,.23,1.64,.8,2.12,1.63,.96,1.67,.39,3.82-1.29,4.78l-.44,.25c-1.68,.96-3.82,.39-4.78-1.29-.96-1.67-.39-3.82,1.29-4.78l.44-.25c.84-.48,1.79-.58,2.66-.35Zm75.47,20.65c1.49,.4,2.59,1.76,2.59,3.38v.51c0,1.93-1.57,3.5-3.51,3.5-1.93,0-3.5-1.57-3.5-3.51v-.5c0-1.93,1.57-3.5,3.5-3.5,.32,0,.62,.04,.91,.12Zm-94.2-9.87c.86,.23,1.64,.8,2.12,1.63,.96,1.67,.39,3.82-1.29,4.78l-.44,.25c-1.68,.96-3.82,.39-4.78-1.29-.96-1.67-.39-3.82,1.29-4.78l.44-.25c.84-.48,1.79-.58,2.66-.35Zm94.18,31.57c1.49,.4,2.59,1.76,2.59,3.38v.51c0,1.93-1.57,3.5-3.51,3.5-1.93,0-3.5-1.57-3.5-3.51v-.5c0-1.93,1.57-3.5,3.5-3.5,.32,0,.62,.04,.91,.12Zm-112.91-20.79c.86,.23,1.64,.8,2.12,1.63,.96,1.67,.39,3.82-1.29,4.78l-.44,.25c-1.68,.96-3.81,.39-4.78-1.29-.96-1.67-.39-3.82,1.29-4.78l.44-.25c.84-.48,1.79-.58,2.66-.35Zm112.88,42.47c1.49,.4,2.59,1.77,2.59,3.38v.5c0,1.93-1.57,3.5-3.51,3.5-1.93,0-3.5-1.57-3.5-3.51v-.5c0-1.93,1.57-3.5,3.51-3.5,.31,0,.62,.04,.91,.12Zm-131.62-31.69c.86,.23,1.64,.8,2.12,1.63,.96,1.67,.39,3.82-1.29,4.78l-.44,.25c-1.68,.96-3.81,.39-4.78-1.29-.96-1.67-.39-3.82,1.29-4.78l.44-.25c.84-.48,1.79-.58,2.66-.35Zm-18.73,10.78c.86,.23,1.64,.8,2.12,1.63,.96,1.67,.39,3.82-1.29,4.78l-.44,.25c-1.68,.96-3.81,.39-4.78-1.29-.96-1.67-.39-3.82,1.29-4.78l.44-.25c.84-.48,1.79-.58,2.66-.35Zm150.32,42.59c1.49,.4,2.59,1.77,2.59,3.38v.5c0,1.93-1.57,3.5-3.51,3.5-1.93,0-3.5-1.57-3.49-3.5v-.5c0-1.93,1.57-3.5,3.51-3.5,.31,0,.62,.04,.91,.12Zm-169.05-31.81c.86,.23,1.64,.8,2.12,1.63,.96,1.67,.39,3.82-1.29,4.78l-.44,.25c-1.68,.96-3.81,.39-4.78-1.29-.96-1.67-.39-3.82,1.29-4.78l.44-.25c.84-.48,1.79-.58,2.66-.35Zm169.02,53.49c1.49,.4,2.59,1.76,2.59,3.38v.51c0,1.93-1.57,3.5-3.51,3.5-1.93,0-3.5-1.57-3.5-3.51v-.5c0-1.93,1.57-3.5,3.5-3.5,.32,0,.62,.04,.91,.12Zm-187.76-42.71c.86,.23,1.64,.8,2.12,1.63,.96,1.67,.39,3.82-1.29,4.78l-.44,.25c-1.68,.96-3.81,.39-4.78-1.29-.96-1.67-.39-3.82,1.29-4.78l.44-.25c.84-.48,1.79-.58,2.66-.35Zm187.73,64.38c1.49,.4,2.59,1.76,2.59,3.38v.51c0,1.93-1.57,3.5-3.51,3.5-1.93,0-3.5-1.57-3.5-3.51v-.5c0-1.93,1.57-3.5,3.5-3.5,.32,0,.62,.04,.91,.12Zm-206.46-53.6c.86,.23,1.64,.8,2.12,1.63,.96,1.67,.39,3.82-1.29,4.78l-.44,.25c-1.68,.96-3.81,.39-4.78-1.29-.96-1.67-.39-3.82,1.29-4.78l.44-.25c.84-.48,1.79-.58,2.66-.35Zm-18.74,10.78c.86,.23,1.64,.8,2.12,1.63,.96,1.67,.39,3.82-1.29,4.78l-.44,.25c-1.68,.96-3.81,.39-4.78-1.29-.96-1.67-.39-3.82,1.29-4.78l.44-.25c.84-.48,1.79-.58,2.66-.35Zm225.16,64.49c1.49,.4,2.59,1.77,2.59,3.39v.5c0,1.93-1.57,3.5-3.51,3.5-1.93,0-3.5-1.57-3.5-3.51v-.51c0-1.93,1.58-3.5,3.51-3.49,.31,0,.62,.04,.9,.12Zm-243.9-53.71c.86,.23,1.64,.8,2.12,1.63,.96,1.67,.39,3.82-1.29,4.78l-.44,.25c-1.68,.96-3.81,.39-4.78-1.29-.96-1.67-.39-3.82,1.29-4.78l.44-.25c.84-.48,1.79-.58,2.66-.35Zm243.87,75.38c1.49,.4,2.59,1.77,2.59,3.39v.5c0,1.93-1.57,3.5-3.51,3.5-1.93,0-3.5-1.57-3.5-3.51v-.51c0-1.93,1.58-3.5,3.51-3.49,.31,0,.62,.04,.9,.12Zm-262.6-64.6c.86,.23,1.64,.8,2.12,1.63,.96,1.67,.39,3.82-1.29,4.78l-.44,.25c-1.68,.96-3.81,.39-4.78-1.29-.96-1.67-.39-3.82,1.29-4.78l.44-.25c.84-.48,1.79-.58,2.66-.35Zm262.57,86.27c1.49,.4,2.59,1.77,2.59,3.39v.5c0,1.93-1.57,3.5-3.51,3.5-1.93,0-3.5-1.57-3.5-3.51v-.51c0-1.93,1.58-3.5,3.51-3.49,.31,0,.62,.04,.9,.12Zm-281.3-75.49c.86,.23,1.64,.8,2.12,1.63,.96,1.67,.39,3.82-1.29,4.78l-.44,.25c-1.68,.96-3.81,.39-4.78-1.29-.96-1.67-.39-3.82,1.29-4.78l.44-.25c.84-.48,1.79-.58,2.66-.35Zm-18.73,10.78c.86,.23,1.64,.8,2.12,1.63,.96,1.67,.39,3.82-1.29,4.78l-.44,.25c-1.68,.96-3.81,.39-4.78-1.29-.96-1.67-.39-3.82,1.29-4.78l.44-.25c.84-.48,1.79-.58,2.66-.35Zm300,86.37c1.49,.4,2.59,1.77,2.59,3.39v.5c0,1.93-1.57,3.5-3.51,3.5-1.93,0-3.5-1.57-3.5-3.51v-.51c0-1.93,1.58-3.5,3.51-3.49,.31,0,.62,.04,.9,.12Zm-318.74-75.59c.86,.23,1.64,.8,2.12,1.63,.96,1.67,.39,3.82-1.29,4.78l-.44,.25c-1.68,.96-3.81,.39-4.78-1.29-.96-1.67-.39-3.82,1.29-4.78l.44-.25c.84-.48,1.79-.58,2.66-.35Zm318.71,97.27c1.49,.4,2.59,1.77,2.59,3.38v.5c0,1.93-1.57,3.5-3.51,3.5-1.93,0-3.5-1.57-3.5-3.51v-.5c0-1.93,1.57-3.5,3.51-3.5,.31,0,.62,.04,.91,.12Zm-337.44-86.49c.86,.23,1.64,.8,2.12,1.63,.96,1.67,.39,3.82-1.29,4.78l-.44,.25c-1.68,.96-3.81,.39-4.78-1.29-.96-1.67-.39-3.82,1.29-4.78l.44-.25c.84-.48,1.79-.58,2.66-.35Zm-18.73,10.78c.87,.23,1.64,.8,2.13,1.64,.96,1.68,.38,3.82-1.29,4.78l-.44,.25c-1.68,.96-3.82,.38-4.78-1.29-.96-1.68-.38-3.82,1.29-4.78l.44-.25c.84-.48,1.79-.58,2.65-.34Zm356.14,97.38c1.49,.4,2.59,1.77,2.59,3.39v.5c0,1.93-1.57,3.5-3.51,3.5-1.93,0-3.5-1.57-3.5-3.51v-.51c0-1.93,1.58-3.5,3.51-3.49,.31,0,.62,.04,.9,.12Zm-374.88-86.6c.86,.23,1.64,.8,2.12,1.63,.96,1.67,.39,3.82-1.29,4.78l-.44,.25c-1.68,.96-3.81,.39-4.78-1.29-.96-1.67-.39-3.82,1.29-4.78l.44-.25c.84-.48,1.79-.58,2.66-.35Zm374.84,108.27c1.49,.4,2.59,1.77,2.59,3.39v.5c0,1.93-1.57,3.5-3.51,3.5-1.93,0-3.5-1.57-3.5-3.51v-.51c0-1.93,1.58-3.5,3.51-3.49,.31,0,.62,.04,.9,.12Zm-393.58-97.49c.86,.23,1.64,.8,2.12,1.63,.96,1.67,.39,3.82-1.29,4.78l-.44,.25c-1.68,.96-3.81,.39-4.78-1.29-.96-1.67-.39-3.82,1.29-4.78l.44-.25c.84-.48,1.79-.58,2.66-.35Zm393.55,119.16c1.49,.4,2.59,1.77,2.59,3.39v.5c0,1.93-1.57,3.5-3.51,3.5-1.93,0-3.5-1.57-3.5-3.51v-.51c0-1.93,1.58-3.5,3.51-3.49,.31,0,.62,.04,.9,.12Zm-412.28-108.38c.86,.23,1.64,.8,2.12,1.63,.96,1.67,.39,3.82-1.29,4.78l-.44,.25c-1.68,.96-3.81,.39-4.78-1.29-.96-1.67-.39-3.82,1.29-4.78l.44-.25c.84-.48,1.79-.58,2.66-.35Zm-18.74,10.78c.86,.23,1.64,.8,2.12,1.63,.96,1.67,.39,3.82-1.29,4.78l-.44,.25c-1.68,.96-3.81,.39-4.78-1.29-.96-1.67-.39-3.82,1.29-4.78l.44-.25c.84-.48,1.79-.58,2.66-.35Zm430.98,119.27c1.49,.4,2.59,1.77,2.59,3.39v.5c0,1.93-1.57,3.5-3.51,3.5-1.93,0-3.5-1.57-3.5-3.51v-.51c0-1.93,1.58-3.5,3.51-3.49,.31,0,.62,.04,.9,.12Zm-447-106.82c.93,.25,1.75,.88,2.22,1.8,1.1,1.57,.73,3.73-.82,4.85-1.57,1.13-3.76,.77-4.88-.8-.21-.29-.4-.61-.56-.94-.85-1.74-.13-3.83,1.6-4.68,.79-.39,1.66-.45,2.45-.24Zm446.97,128.49c1.49,.4,2.59,1.77,2.59,3.39v.5c0,1.93-1.57,3.5-3.51,3.5-1.93,0-3.5-1.57-3.5-3.51v-.51c0-1.93,1.58-3.5,3.51-3.49,.31,0,.62,.04,.9,.12Zm-409.59-106.26c.29,.08,.57,.19,.84,.35l.45,.26c1.67,.97,2.23,3.12,1.26,4.79-.97,1.67-3.11,2.23-4.79,1.26l-.42-.24c-1.67-.97-2.25-3.11-1.28-4.78,.81-1.4,2.45-2.03,3.94-1.63Zm18.79,10.89c.29,.08,.57,.19,.84,.35l.45,.26c1.67,.97,2.23,3.12,1.26,4.79-.97,1.67-3.11,2.24-4.79,1.26l-.42-.24c-1.68-.96-2.25-3.1-1.29-4.78,.81-1.41,2.45-2.04,3.94-1.63Zm18.77,10.88c.29,.08,.57,.19,.84,.35l.45,.26c1.67,.97,2.23,3.12,1.26,4.79-.97,1.67-3.12,2.23-4.79,1.26l-.42-.24c-1.68-.96-2.25-3.1-1.29-4.78,.81-1.41,2.45-2.04,3.94-1.63Zm18.76,10.87c.29,.08,.57,.19,.84,.35l.46,.26c1.67,.98,2.23,3.12,1.25,4.79-.98,1.67-3.12,2.23-4.79,1.25l-.41-.24c-1.68-.96-2.25-3.1-1.29-4.78,.81-1.41,2.45-2.04,3.94-1.63Zm353.23,95.3c1.49,.4,2.59,1.77,2.59,3.39v.5c0,1.93-1.57,3.5-3.51,3.5-1.93,0-3.5-1.57-3.5-3.51v-.51c0-1.93,1.58-3.5,3.51-3.49,.31,0,.62,.04,.9,.12Zm-334.47-84.43c.29,.08,.57,.19,.84,.35l.46,.26c1.67,.98,2.23,3.12,1.25,4.79-.98,1.67-3.12,2.23-4.79,1.25l-.41-.24c-1.68-.96-2.25-3.1-1.29-4.78,.81-1.41,2.45-2.04,3.94-1.63Zm18.75,10.87c.29,.08,.57,.19,.84,.35l.46,.26c1.67,.98,2.23,3.12,1.25,4.79s-3.12,2.23-4.79,1.25l-.41-.24c-1.68-.96-2.25-3.1-1.29-4.78,.81-1.41,2.45-2.04,3.94-1.63Zm18.75,10.87c.29,.08,.57,.19,.84,.35l.46,.26c1.67,.98,2.23,3.12,1.25,4.79s-3.12,2.23-4.79,1.25l-.41-.24c-1.68-.96-2.25-3.1-1.29-4.78,.81-1.41,2.45-2.04,3.94-1.63Zm296.93,84.39c1.5,.4,2.59,1.77,2.59,3.39v.49c0,1.93-1.57,3.5-3.51,3.5-1.93,0-3.5-1.57-3.49-3.5v-.51c0-1.93,1.58-3.49,3.52-3.48,.31,0,.61,.04,.9,.12Zm-278.18-73.52c.29,.08,.57,.19,.84,.35l.46,.26c1.67,.98,2.23,3.12,1.25,4.79-.98,1.67-3.12,2.23-4.79,1.25l-.41-.24c-1.68-.96-2.25-3.1-1.29-4.78,.81-1.41,2.45-2.04,3.94-1.63Zm18.75,10.86c.29,.08,.57,.19,.84,.35l.46,.26c1.67,.98,2.23,3.12,1.25,4.79-.98,1.67-3.12,2.23-4.79,1.25l-.41-.24c-1.68-.96-2.25-3.1-1.29-4.78,.81-1.41,2.45-2.04,3.94-1.63Zm18.75,10.86c.29,.08,.57,.19,.84,.35l.45,.26c1.67,.97,2.23,3.12,1.26,4.79-.97,1.67-3.11,2.23-4.79,1.26l-.42-.24c-1.68-.96-2.25-3.1-1.29-4.78,.81-1.41,2.45-2.04,3.94-1.63Zm18.76,10.87c.29,.08,.57,.19,.84,.35l.46,.26c1.67,.98,2.23,3.12,1.25,4.79-.98,1.67-3.12,2.23-4.79,1.25l-.41-.24c-1.68-.96-2.25-3.1-1.29-4.78,.81-1.41,2.45-2.04,3.94-1.63Zm221.89,62.63c1.5,.4,2.59,1.77,2.59,3.39v.49c0,1.93-1.57,3.5-3.51,3.5-1.93,0-3.5-1.57-3.49-3.5v-.51c0-1.93,1.58-3.49,3.52-3.48,.31,0,.61,.04,.9,.12Zm-203.15-51.76c.29,.08,.57,.19,.84,.35l.46,.26c1.67,.98,2.23,3.12,1.25,4.79-.98,1.67-3.12,2.23-4.79,1.25l-.41-.24c-1.68-.96-2.25-3.1-1.29-4.78,.81-1.41,2.45-2.04,3.94-1.63Zm18.75,10.86c.29,.08,.57,.19,.84,.35l.45,.26c1.67,.97,2.23,3.12,1.26,4.79-.97,1.67-3.12,2.23-4.79,1.26l-.42-.24c-1.67-.96-2.25-3.1-1.29-4.78,.81-1.41,2.45-2.04,3.94-1.63Zm18.75,10.86c.29,.08,.57,.19,.84,.35l.45,.26c1.67,.97,2.23,3.12,1.26,4.79-.98,1.67-3.12,2.24-4.79,1.26l-.42-.24c-1.67-.96-2.25-3.1-1.29-4.78,.81-1.41,2.45-2.04,3.94-1.63Zm18.75,10.86c.29,.08,.57,.19,.84,.35l.45,.26c1.67,.97,2.23,3.12,1.26,4.79-.98,1.67-3.12,2.23-4.79,1.26l-.42-.24c-1.67-.96-2.25-3.1-1.29-4.78,.81-1.41,2.45-2.04,3.94-1.63Zm146.87,40.89c1.49,.4,2.59,1.77,2.59,3.38v.5c0,1.93-1.57,3.5-3.5,3.5-1.94,0-3.5-1.57-3.5-3.5v-.51c0-1.93,1.57-3.5,3.51-3.5,.31,0,.62,.04,.91,.12Zm-128.11-30.03c.29,.08,.57,.19,.84,.35l.45,.26c1.67,.97,2.23,3.12,1.26,4.79-.98,1.67-3.12,2.23-4.79,1.26l-.42-.24c-1.67-.96-2.25-3.1-1.29-4.78,.81-1.41,2.45-2.04,3.94-1.63Zm18.76,10.87c.29,.08,.57,.19,.84,.35l.46,.26c1.67,.98,2.23,3.12,1.25,4.79-.98,1.67-3.12,2.23-4.79,1.25l-.41-.24c-1.67-.96-2.25-3.1-1.29-4.78,.81-1.41,2.45-2.04,3.94-1.63Zm18.76,10.87c.29,.08,.57,.19,.84,.35l.46,.26c1.67,.98,2.23,3.12,1.25,4.79-.98,1.67-3.12,2.23-4.79,1.25l-.41-.24c-1.67-.96-2.25-3.1-1.29-4.78,.81-1.41,2.45-2.04,3.94-1.63Zm90.57,30.03c1.49,.4,2.59,1.77,2.59,3.39v.5c0,1.93-1.58,3.5-3.51,3.49-1.93,0-3.5-1.58-3.49-3.51v-.5c0-1.93,1.58-3.5,3.51-3.49,.31,0,.62,.04,.9,.12Zm-71.8-19.16c.29,.08,.57,.19,.84,.35l.45,.26c1.67,.97,2.23,3.12,1.26,4.79-.98,1.67-3.12,2.23-4.79,1.26l-.42-.24c-1.67-.96-2.25-3.1-1.29-4.78,.81-1.41,2.45-2.04,3.94-1.63Zm18.78,10.87c.29,.08,.57,.19,.84,.35l.46,.26c1.67,.98,2.23,3.12,1.25,4.79-.98,1.67-3.12,2.23-4.79,1.25l-.41-.24c-1.68-.96-2.25-3.1-1.29-4.78,.81-1.41,2.45-2.04,3.94-1.63Zm18.79,10.88c.29,.08,.57,.19,.84,.35l.46,.26c1.67,.98,2.23,3.12,1.25,4.79-.98,1.67-3.12,2.23-4.79,1.25l-.41-.24c-1.67-.96-2.25-3.1-1.29-4.78,.81-1.41,2.45-2.04,3.94-1.63Zm18.81,10.89c.29,.08,.58,.2,.85,.35l.43,.25c1.67,.97,2.24,3.11,1.28,4.78-.97,1.67-3.11,2.24-4.78,1.28l-.44-.25c-1.67-.97-2.24-3.11-1.27-4.78,.81-1.4,2.45-2.02,3.94-1.62Zm15.38,8.35c1.49,.4,2.59,1.76,2.59,3.38v.44c0,.33-.03,.67-.12,1-.5,1.87-2.42,2.97-4.29,2.47-.97-.26-2.59-1.1-2.59-3.8v-.1c0-1.93,1.56-3.5,3.5-3.5,.32,0,.62,.04,.92,.12Zm-427.88-247.33c.29,.08,.57,.19,.84,.35l.45,.26c1.67,.97,2.23,3.12,1.26,4.79-.97,1.67-3.11,2.23-4.79,1.26l-.42-.24c-1.67-.97-2.25-3.11-1.28-4.78,.81-1.4,2.45-2.03,3.94-1.63Z"/><rect class="d" x="76.98" y="79.11" width="1253.12" height="1253.12"/></g></g></g></g></svg>