<?xml version="1.0" encoding="UTF-8"?><svg xmlns="http://www.w3.org/2000/svg" viewBox="0 0 1390.41 1390.41"><defs><style>.d{fill:none;}</style></defs><g id="a"/><g id="b"><g id="c"><g><path d="M174.7,636.77c-.9,0-1.79-.34-2.48-1.03-1.37-1.37-1.37-3.58,0-4.95l.36-.36c1.37-1.37,3.58-1.37,4.95,0,1.37,1.37,1.37,3.58,0,4.95l-.36,.36c-.68,.68-1.58,1.03-2.47,1.03Zm15.28-15.28c-.9,0-1.79-.34-2.47-1.03-1.37-1.37-1.37-3.58,0-4.95l.36-.36c1.37-1.37,3.58-1.37,4.95,0,1.37,1.37,1.37,3.58,0,4.95l-.36,.36c-.68,.68-1.58,1.03-2.48,1.03Zm-21.13-4.19c-1.54,0-2.95-1.03-3.38-2.58l-.13-.49c-.5-1.87,.6-3.79,2.47-4.29,1.87-.5,3.79,.6,4.29,2.47l.13,.48c.51,1.87-.6,3.79-2.46,4.29-.31,.08-.62,.12-.92,.12Zm36.42-11.1c-.9,0-1.79-.34-2.48-1.03-1.37-1.37-1.37-3.58,0-4.95l.36-.36c1.37-1.37,3.58-1.37,4.95,0,1.37,1.37,1.37,3.58,0,4.95l-.36,.36c-.68,.68-1.58,1.03-2.48,1.03Zm-42.05-9.89c-1.55,0-2.97-1.04-3.38-2.6l-.13-.48c-.5-1.87,.61-3.79,2.47-4.29,1.87-.5,3.79,.61,4.29,2.47l.13,.5c.5,1.87-.62,3.78-2.49,4.28-.3,.08-.6,.12-.9,.12Zm57.34-5.39c-.9,0-1.79-.34-2.47-1.03-1.37-1.37-1.37-3.58,0-4.95l.36-.36c1.37-1.37,3.58-1.37,4.95,0,1.37,1.37,1.37,3.58,0,4.95l-.36,.36c-.68,.68-1.58,1.03-2.48,1.03Zm15.28-15.28c-.9,0-1.79-.34-2.48-1.03-1.37-1.37-1.37-3.58,0-4.95l.36-.36c1.37-1.37,3.58-1.37,4.95,0,1.37,1.37,1.37,3.58,0,4.95l-.36,.36c-.68,.68-1.58,1.03-2.48,1.03Zm-78.24-.3c-1.54,0-2.96-1.03-3.38-2.59l-.13-.49c-.5-1.87,.61-3.79,2.47-4.29,1.87-.49,3.79,.61,4.29,2.47l.13,.48c.5,1.87-.6,3.79-2.47,4.29-.31,.08-.61,.12-.91,.12Zm93.53-14.99c-.9,0-1.79-.34-2.48-1.03-1.37-1.37-1.37-3.58,0-4.95l.36-.36c1.37-1.37,3.58-1.37,4.95,0,1.37,1.37,1.37,3.58,0,4.95l-.36,.36c-.68,.68-1.58,1.03-2.48,1.03Zm-99.15-5.97c-1.54,0-2.96-1.03-3.38-2.59l-.13-.49c-.5-1.87,.61-3.79,2.47-4.29,1.87-.5,3.79,.61,4.29,2.47l.13,.48c.5,1.87-.6,3.79-2.47,4.29-.31,.08-.61,.12-.91,.12Zm114.43-9.31c-.9,0-1.79-.34-2.47-1.03-1.37-1.37-1.37-3.58,0-4.95l.36-.36c1.37-1.37,3.58-1.37,4.95,0,1.37,1.37,1.37,3.58,0,4.95l-.36,.36c-.68,.68-1.58,1.03-2.47,1.03Zm-120.04-11.63c-1.55,0-2.96-1.03-3.38-2.59l-.13-.49c-.5-1.87,.61-3.79,2.47-4.29,1.87-.5,3.79,.61,4.29,2.47l.13,.49c.5,1.87-.61,3.79-2.47,4.29-.3,.08-.61,.12-.91,.12Zm135.33-3.65c-.9,0-1.79-.34-2.47-1.03-1.37-1.37-1.37-3.58,0-4.95l.36-.36c1.37-1.37,3.58-1.37,4.95,0,1.37,1.37,1.37,3.58,0,4.95l-.36,.36c-.68,.68-1.58,1.03-2.47,1.03Zm15.28-15.28c-.9,0-1.79-.34-2.47-1.03-1.37-1.37-1.37-3.58,0-4.95l.36-.36c1.37-1.37,3.58-1.37,4.95,0,1.37,1.37,1.37,3.58,0,4.95l-.36,.36c-.68,.68-1.58,1.03-2.47,1.03Zm-156.22-2.01c-1.54,0-2.96-1.03-3.38-2.59l-.13-.49c-.5-1.87,.61-3.79,2.47-4.29,1.86-.5,3.79,.61,4.29,2.47l.13,.49c.5,1.87-.61,3.79-2.47,4.29-.3,.08-.61,.12-.91,.12Zm171.51-13.28c-.9,0-1.79-.34-2.47-1.03-1.37-1.37-1.37-3.58,0-4.95l.36-.36c1.37-1.37,3.58-1.37,4.95,0,1.37,1.37,1.37,3.58,0,4.95l-.36,.36c-.68,.68-1.58,1.03-2.47,1.03Zm-177.12-7.66c-1.54,0-2.96-1.03-3.38-2.59l-.13-.49c-.5-1.87,.61-3.79,2.47-4.29,1.87-.5,3.79,.61,4.29,2.47l.13,.48c.5,1.87-.6,3.79-2.47,4.29-.31,.08-.61,.12-.91,.12Zm192.4-7.62c-.9,0-1.79-.34-2.47-1.03-1.37-1.37-1.37-3.58,0-4.95l.36-.36c1.37-1.37,3.58-1.37,4.95,0,1.37,1.37,1.37,3.58,0,4.95l-.36,.36c-.68,.68-1.58,1.03-2.47,1.03Zm-198.01-13.31c-1.54,0-2.96-1.03-3.38-2.59l-.13-.49c-.5-1.87,.61-3.79,2.47-4.29,1.87-.5,3.79,.61,4.29,2.47l.13,.48c.5,1.87-.6,3.79-2.47,4.29-.31,.08-.61,.12-.91,.12Zm213.29-1.97c-.9,0-1.79-.34-2.47-1.03-1.37-1.37-1.37-3.58,0-4.95l.36-.36c1.37-1.37,3.58-1.37,4.95,0,1.37,1.37,1.37,3.58,0,4.95l-.36,.36c-.68,.68-1.58,1.03-2.47,1.03Zm15.28-15.28c-.9,0-1.79-.34-2.47-1.03-1.37-1.37-1.37-3.58,0-4.95l.36-.36c1.37-1.37,3.58-1.37,4.95,0,1.37,1.37,1.37,3.58,0,4.95l-.36,.36c-.68,.68-1.58,1.03-2.47,1.03Zm-234.19-3.67c-1.55,0-2.96-1.03-3.38-2.6l-.13-.48c-.5-1.87,.61-3.79,2.47-4.29,1.86-.5,3.79,.61,4.29,2.47l.13,.49c.5,1.87-.61,3.79-2.48,4.28-.3,.08-.61,.12-.9,.12Zm249.47-11.61c-.9,0-1.79-.34-2.47-1.03-1.37-1.37-1.37-3.58,0-4.95l.36-.36c1.37-1.37,3.58-1.37,4.95,0,1.37,1.37,1.37,3.58,0,4.95l-.36,.36c-.68,.68-1.58,1.03-2.47,1.03Zm-255.08-9.32c-1.55,0-2.96-1.03-3.38-2.6l-.13-.48c-.5-1.87,.61-3.79,2.47-4.29,1.86-.5,3.79,.61,4.29,2.47l.13,.49c.5,1.87-.61,3.79-2.48,4.28-.3,.08-.61,.12-.9,.12Zm270.36-5.97c-.9,0-1.79-.34-2.47-1.03-1.37-1.37-1.37-3.58,0-4.95l.36-.36c1.37-1.37,3.58-1.37,4.95,0,1.37,1.37,1.37,3.58,0,4.95l-.36,.36c-.68,.68-1.58,1.03-2.47,1.03Zm-275.97-14.96c-1.55,0-2.96-1.03-3.38-2.6l-.13-.48c-.5-1.87,.61-3.79,2.47-4.29,1.87-.5,3.79,.61,4.29,2.47l.13,.49c.5,1.87-.61,3.79-2.48,4.28-.3,.08-.61,.12-.9,.12Zm291.25-.32c-.9,0-1.79-.34-2.47-1.03-1.37-1.37-1.37-3.58,0-4.95l.36-.36c1.37-1.37,3.58-1.37,4.95,0,1.37,1.37,1.37,3.58,0,4.95l-.36,.36c-.68,.68-1.58,1.03-2.47,1.03Zm15.28-15.28c-.9,0-1.79-.34-2.47-1.03-1.37-1.37-1.37-3.58,0-4.95l.36-.36c1.37-1.37,3.58-1.37,4.95,0,1.37,1.37,1.37,3.58,0,4.95l-.36,.36c-.68,.68-1.58,1.03-2.47,1.03Zm-312.14-5.32c-1.55,0-2.96-1.03-3.38-2.6l-.13-.48c-.5-1.87,.61-3.79,2.47-4.29,1.87-.5,3.79,.61,4.29,2.47l.13,.49c.5,1.87-.61,3.79-2.48,4.28-.3,.08-.61,.12-.9,.12Zm327.43-9.96c-.9,0-1.79-.34-2.47-1.03-1.37-1.37-1.37-3.58,0-4.95l.36-.36c1.37-1.37,3.58-1.37,4.95,0,1.37,1.37,1.37,3.58,0,4.95l-.36,.36c-.68,.68-1.58,1.03-2.47,1.03Zm-333.04-10.98c-1.54,0-2.96-1.03-3.38-2.59l-.13-.49c-.5-1.87,.61-3.79,2.47-4.29,1.86-.5,3.79,.61,4.29,2.47l.13,.49c.5,1.87-.61,3.79-2.47,4.29-.3,.08-.61,.12-.91,.12Zm348.32-4.31c-.9,0-1.79-.34-2.47-1.03-1.37-1.37-1.37-3.58,0-4.95l.36-.36c1.37-1.37,3.58-1.37,4.95,0,1.37,1.37,1.37,3.58,0,4.95l-.36,.36c-.68,.68-1.58,1.03-2.47,1.03Zm15.28-15.28c-.9,0-1.79-.34-2.48-1.03-1.36-1.37-1.36-3.58,0-4.95l.36-.35c1.37-1.36,3.58-1.36,4.95,0,1.36,1.37,1.36,3.58,0,4.95l-.36,.35c-.68,.68-1.58,1.02-2.47,1.02Zm-369.21-1.34c-1.55,0-2.96-1.03-3.38-2.6l-.13-.48c-.5-1.87,.61-3.79,2.47-4.29,1.87-.5,3.79,.61,4.29,2.47l.13,.49c.5,1.87-.61,3.79-2.48,4.28-.3,.08-.61,.12-.9,.12Zm384.5-13.94c-.9,0-1.79-.34-2.47-1.03-1.37-1.37-1.37-3.58,0-4.95l.36-.36c1.37-1.37,3.58-1.37,4.95,0,1.37,1.37,1.37,3.58,0,4.95l-.36,.36c-.68,.68-1.58,1.03-2.47,1.03Zm-390.1-6.99c-1.55,0-2.96-1.03-3.38-2.6l-.13-.48c-.5-1.87,.61-3.79,2.47-4.29,1.87-.5,3.79,.61,4.29,2.47l.13,.49c.5,1.87-.61,3.79-2.48,4.28-.3,.08-.61,.12-.9,.12Zm405.39-8.3c-.9,0-1.79-.34-2.47-1.03-1.37-1.37-1.37-3.58,0-4.95l.36-.36c1.37-1.37,3.58-1.37,4.95,0,1.37,1.37,1.37,3.58,0,4.95l-.36,.36c-.68,.68-1.58,1.03-2.47,1.03Zm-410.99-12.63c-1.55,0-2.96-1.03-3.38-2.6l-.13-.48c-.5-1.87,.61-3.79,2.47-4.29,1.86-.5,3.79,.61,4.29,2.47l.13,.49c.5,1.87-.61,3.79-2.48,4.28-.3,.08-.61,.12-.9,.12Zm426.28-2.65c-.9,0-1.79-.34-2.47-1.03-1.37-1.37-1.37-3.58,0-4.95l.36-.36c1.37-1.37,3.58-1.37,4.95,0,1.37,1.37,1.37,3.58,0,4.95l-.36,.36c-.68,.68-1.58,1.03-2.47,1.03Zm15.28-15.28c-.9,0-1.79-.34-2.47-1.03-1.37-1.37-1.37-3.58,0-4.95l.36-.36c1.37-1.37,3.58-1.37,4.95,0,1.37,1.37,1.37,3.58,0,4.95l-.36,.36c-.68,.68-1.58,1.03-2.47,1.03Zm-447.17-3c-1.55,0-2.96-1.03-3.38-2.6l-.13-.48c-.5-1.87,.61-3.79,2.47-4.29,1.86-.5,3.79,.61,4.29,2.47l.13,.49c.5,1.87-.61,3.79-2.48,4.28-.3,.08-.61,.12-.9,.12Zm459.4-13.19c-.96,0-1.92-.39-2.61-1.17-1.47-1.23-1.68-3.41-.47-4.89,1.22-1.5,3.42-1.72,4.92-.5,.28,.23,.54,.48,.78,.76,1.27,1.46,1.13,3.67-.33,4.94-.66,.58-1.49,.87-2.3,.87Zm-465.01-7.75c-1.55,0-2.96-1.03-3.38-2.6l-.13-.48c-.5-1.87,.61-3.79,2.47-4.29,1.86-.5,3.79,.61,4.29,2.47l.13,.49c.5,1.87-.61,3.79-2.48,4.28-.3,.08-.61,.12-.9,.12Zm423.13-3.99c-.3,0-.6-.04-.9-.12l-.5-.13c-1.87-.51-2.97-2.43-2.46-4.29,.51-1.87,2.43-2.97,4.29-2.46l.47,.13c1.87,.5,2.98,2.42,2.48,4.28-.42,1.57-1.83,2.6-3.38,2.6Zm-20.97-5.62c-.3,0-.6-.04-.9-.12l-.51-.13c-1.87-.51-2.97-2.43-2.46-4.29,.51-1.86,2.42-2.97,4.29-2.46l.47,.12c1.87,.5,2.98,2.41,2.49,4.28-.42,1.57-1.83,2.6-3.38,2.6Zm-20.96-5.62c-.3,0-.6-.04-.9-.12l-.51-.13c-1.87-.51-2.97-2.43-2.46-4.29,.51-1.86,2.43-2.96,4.29-2.46l.47,.12c1.87,.5,2.98,2.41,2.49,4.28-.42,1.57-1.83,2.6-3.38,2.6Zm-20.95-5.62c-.3,0-.6-.04-.9-.12l-.51-.14c-1.87-.51-2.96-2.43-2.46-4.3s2.43-2.96,4.3-2.46l.46,.12c1.87,.5,2.98,2.41,2.49,4.28-.42,1.57-1.83,2.6-3.38,2.6Zm-365.86-.09c-1.55,0-2.96-1.03-3.38-2.6l-.13-.48c-.5-1.87,.61-3.79,2.47-4.29,1.87-.5,3.79,.61,4.29,2.47l.13,.49c.5,1.87-.61,3.79-2.48,4.28-.3,.08-.61,.12-.9,.12Zm344.92-5.52c-.3,0-.6-.04-.9-.12l-.51-.14c-1.87-.51-2.96-2.43-2.46-4.3s2.43-2.97,4.3-2.46l.46,.12c1.87,.5,2.98,2.41,2.49,4.28-.42,1.57-1.83,2.6-3.38,2.6Zm-20.94-5.61c-.3,0-.6-.04-.9-.12l-.51-.14c-1.87-.51-2.96-2.43-2.46-4.3s2.43-2.96,4.3-2.46l.46,.12c1.87,.5,2.98,2.41,2.49,4.28-.42,1.57-1.83,2.6-3.38,2.6Zm-20.93-5.61c-.3,0-.6-.04-.9-.12l-.51-.14c-1.87-.51-2.96-2.43-2.46-4.3s2.43-2.97,4.3-2.46l.46,.12c1.87,.5,2.98,2.41,2.49,4.28-.42,1.57-1.83,2.6-3.38,2.6Zm-308.66-4.21c-1.55,0-2.97-1.04-3.38-2.6l-.13-.48c-.5-1.87,.61-3.79,2.47-4.29,1.87-.5,3.79,.61,4.29,2.47l.13,.5c.5,1.87-.62,3.78-2.49,4.28-.3,.08-.6,.12-.9,.12Zm287.73-1.4c-.3,0-.6-.04-.9-.12l-.51-.14c-1.87-.51-2.96-2.43-2.46-4.3s2.43-2.96,4.3-2.46l.46,.12c1.87,.5,2.98,2.41,2.49,4.28-.42,1.57-1.83,2.6-3.38,2.6Zm-20.93-5.61c-.3,0-.6-.04-.9-.12l-.51-.14c-1.87-.51-2.96-2.43-2.46-4.3s2.43-2.97,4.3-2.46l.46,.12c1.87,.5,2.98,2.41,2.49,4.28-.42,1.57-1.83,2.6-3.38,2.6Zm-20.93-5.61c-.3,0-.6-.04-.9-.12l-.51-.13c-1.87-.51-2.97-2.43-2.46-4.29,.51-1.86,2.43-2.97,4.29-2.46l.47,.12c1.87,.5,2.98,2.41,2.49,4.28-.42,1.57-1.83,2.6-3.38,2.6Zm-20.94-5.61c-.3,0-.6-.04-.9-.12l-.51-.14c-1.87-.51-2.96-2.43-2.46-4.3,.51-1.87,2.43-2.97,4.3-2.46l.46,.12c1.87,.5,2.98,2.41,2.49,4.28-.42,1.57-1.83,2.6-3.38,2.6Zm-230.54-2.72c-1.55,0-2.97-1.04-3.38-2.6l-.13-.48c-.5-1.87,.61-3.79,2.47-4.29,1.87-.5,3.79,.61,4.29,2.47l.13,.5c.5,1.87-.62,3.78-2.49,4.28-.3,.08-.6,.12-.9,.12Zm209.62-2.89c-.3,0-.6-.04-.9-.12l-.51-.14c-1.87-.51-2.96-2.43-2.46-4.3,.51-1.87,2.43-2.96,4.3-2.46l.46,.12c1.87,.5,2.98,2.41,2.49,4.28-.42,1.57-1.83,2.6-3.38,2.6Zm-20.93-5.61c-.3,0-.6-.04-.9-.12l-.5-.13c-1.87-.51-2.97-2.43-2.46-4.29,.51-1.87,2.43-2.97,4.29-2.46l.47,.12c1.87,.5,2.98,2.41,2.49,4.28-.42,1.57-1.83,2.6-3.38,2.6Zm-20.93-5.61c-.3,0-.6-.04-.9-.12l-.51-.14c-1.87-.51-2.97-2.43-2.46-4.29,.51-1.87,2.43-2.97,4.3-2.46l.46,.12c1.87,.5,2.98,2.41,2.49,4.28-.42,1.57-1.83,2.6-3.38,2.6Zm-20.93-5.61c-.3,0-.6-.04-.9-.12l-.51-.14c-1.87-.51-2.97-2.43-2.46-4.29,.51-1.87,2.43-2.97,4.3-2.46l.46,.12c1.87,.5,2.98,2.41,2.49,4.28-.42,1.57-1.83,2.6-3.38,2.6Zm-152.45-1.26c-1.55,0-2.96-1.03-3.38-2.59l-.13-.48c-.5-1.87,.6-3.79,2.47-4.29,1.87-.51,3.79,.6,4.29,2.47l.13,.49c.5,1.87-.61,3.79-2.47,4.29-.3,.08-.61,.12-.91,.12Zm131.51-4.35c-.3,0-.6-.04-.9-.12l-.51-.14c-1.87-.51-2.97-2.43-2.46-4.29,.51-1.87,2.43-2.97,4.3-2.46l.46,.12c1.87,.5,2.98,2.41,2.49,4.28-.42,1.57-1.83,2.6-3.38,2.6Zm-20.94-5.61c-.3,0-.6-.04-.9-.12l-.51-.14c-1.86-.51-2.96-2.43-2.46-4.3,.51-1.86,2.43-2.97,4.3-2.46l.46,.12c1.87,.5,2.98,2.41,2.49,4.28-.42,1.57-1.83,2.6-3.38,2.6Zm-20.94-5.61c-.3,0-.6-.04-.9-.12l-.51-.14c-1.86-.51-2.96-2.43-2.46-4.3,.51-1.86,2.43-2.97,4.3-2.46l.46,.12c1.87,.5,2.98,2.41,2.49,4.28-.42,1.57-1.83,2.6-3.38,2.6Zm-95.26-5.42c-1.55,0-2.96-1.03-3.38-2.6l-.13-.49c-.5-1.87,.61-3.79,2.48-4.28,1.87-.49,3.79,.61,4.28,2.48l.13,.49c.5,1.87-.61,3.79-2.48,4.28-.3,.08-.61,.12-.9,.12Zm74.31-.19c-.3,0-.6-.04-.9-.12l-.51-.14c-1.87-.51-2.97-2.43-2.46-4.29,.51-1.87,2.43-2.97,4.3-2.46l.46,.12c1.87,.5,2.98,2.41,2.49,4.28-.42,1.57-1.83,2.6-3.38,2.6Zm-20.96-5.61c-.3,0-.6-.04-.9-.12l-.51-.14c-1.86-.51-2.96-2.43-2.46-4.3,.51-1.86,2.43-2.96,4.3-2.46l.46,.12c1.87,.5,2.98,2.41,2.49,4.28-.42,1.57-1.83,2.6-3.38,2.6Zm-20.98-5.62c-.3,0-.6-.04-.9-.12l-.51-.14c-1.86-.51-2.96-2.43-2.46-4.3,.51-1.87,2.43-2.96,4.3-2.46l.46,.12c1.87,.5,2.98,2.41,2.49,4.28-.42,1.57-1.83,2.6-3.38,2.6Zm-21-5.62c-.3,0-.61-.04-.91-.12l-.48-.13c-1.87-.5-2.98-2.42-2.48-4.29,.5-1.87,2.42-2.98,4.29-2.48l.49,.13c1.87,.5,2.97,2.42,2.47,4.29-.42,1.56-1.83,2.59-3.38,2.59Zm-17.03-4.06c-1.54,0-2.96-1.03-3.38-2.59l-.11-.42c-.09-.32-.15-.65-.15-1,0-1.93,1.57-3.5,3.5-3.5,1,0,2.79,.39,3.49,3l.03,.1c.5,1.87-.6,3.79-2.47,4.29-.31,.08-.61,.12-.92,.12Zm477.5,127.45c-.3,0-.6-.04-.9-.12l-.5-.13c-1.87-.51-2.97-2.43-2.46-4.29,.51-1.87,2.43-2.97,4.29-2.46l.47,.13c1.87,.5,2.98,2.42,2.48,4.28-.42,1.57-1.83,2.6-3.38,2.6Z"/><path d="M570.89,1108.11c0,.9-.34,1.79-1.03,2.48-1.37,1.37-3.58,1.37-4.95,0l-.36-.36c-1.37-1.37-1.37-3.58,0-4.95,1.37-1.37,3.58-1.37,4.95,0l.36,.36c.68,.68,1.03,1.58,1.03,2.47Zm-15.28-15.28c0,.9-.34,1.79-1.03,2.47-1.37,1.37-3.58,1.37-4.95,0l-.36-.36c-1.37-1.37-1.37-3.58,0-4.95,1.37-1.37,3.58-1.37,4.95,0l.36,.36c.68,.68,1.03,1.58,1.03,2.48Zm-4.19,21.13c0,1.54-1.03,2.95-2.58,3.38l-.49,.13c-1.87,.5-3.79-.6-4.29-2.47-.5-1.87,.6-3.79,2.47-4.29l.48-.13c1.87-.51,3.79,.6,4.29,2.46,.08,.31,.12,.62,.12,.92Zm-11.1-36.42c0,.9-.34,1.79-1.03,2.48-1.37,1.37-3.58,1.37-4.95,0l-.36-.36c-1.37-1.37-1.37-3.58,0-4.95,1.37-1.37,3.58-1.37,4.95,0l.36,.36c.68,.68,1.03,1.58,1.03,2.48Zm-9.89,42.05c0,1.55-1.04,2.97-2.6,3.38l-.48,.13c-1.87,.5-3.79-.61-4.29-2.47-.5-1.87,.61-3.79,2.47-4.29l.5-.13c1.87-.5,3.78,.62,4.28,2.49,.08,.3,.12,.6,.12,.9Zm-5.39-57.34c0,.9-.34,1.79-1.03,2.47-1.37,1.37-3.58,1.37-4.95,0l-.36-.36c-1.37-1.37-1.37-3.58,0-4.95,1.37-1.37,3.58-1.37,4.95,0l.36,.36c.68,.68,1.03,1.58,1.03,2.48Zm-15.28-15.28c0,.9-.34,1.79-1.03,2.48-1.37,1.37-3.58,1.37-4.95,0l-.36-.36c-1.37-1.37-1.37-3.58,0-4.95,1.37-1.37,3.58-1.37,4.95,0l.36,.36c.68,.68,1.03,1.58,1.03,2.48Zm-.3,78.24c0,1.54-1.03,2.96-2.59,3.38l-.49,.13c-1.87,.5-3.79-.61-4.29-2.47-.49-1.87,.61-3.79,2.47-4.29l.48-.13c1.87-.5,3.79,.6,4.29,2.47,.08,.31,.12,.61,.12,.91Zm-14.99-93.53c0,.9-.34,1.79-1.03,2.48-1.37,1.37-3.58,1.37-4.95,0l-.36-.36c-1.37-1.37-1.37-3.58,0-4.95,1.37-1.37,3.58-1.37,4.95,0l.36,.36c.68,.68,1.03,1.58,1.03,2.48Zm-5.97,99.15c0,1.54-1.03,2.96-2.59,3.38l-.49,.13c-1.87,.5-3.79-.61-4.29-2.47-.5-1.87,.61-3.79,2.47-4.29l.48-.13c1.87-.5,3.79,.6,4.29,2.47,.08,.31,.12,.61,.12,.91Zm-9.31-114.43c0,.9-.34,1.79-1.03,2.47-1.37,1.37-3.58,1.37-4.95,0l-.36-.36c-1.37-1.37-1.37-3.58,0-4.95,1.37-1.37,3.58-1.37,4.95,0l.36,.36c.68,.68,1.03,1.58,1.03,2.47Zm-11.63,120.04c0,1.55-1.03,2.96-2.59,3.38l-.49,.13c-1.87,.5-3.79-.61-4.29-2.47-.5-1.87,.61-3.79,2.47-4.29l.49-.13c1.87-.5,3.79,.61,4.29,2.47,.08,.3,.12,.61,.12,.91Zm-3.65-135.33c0,.9-.34,1.79-1.03,2.47-1.37,1.37-3.58,1.37-4.95,0l-.36-.36c-1.37-1.37-1.37-3.58,0-4.95,1.37-1.37,3.58-1.37,4.95,0l.36,.36c.68,.68,1.03,1.58,1.03,2.47Zm-15.28-15.28c0,.9-.34,1.79-1.03,2.47-1.37,1.37-3.58,1.37-4.95,0l-.36-.36c-1.37-1.37-1.37-3.58,0-4.95,1.37-1.37,3.58-1.37,4.95,0l.36,.36c.68,.68,1.03,1.58,1.03,2.47Zm-2.01,156.22c0,1.54-1.03,2.96-2.59,3.38l-.49,.13c-1.87,.5-3.79-.61-4.29-2.47-.5-1.86,.61-3.79,2.47-4.29l.49-.13c1.87-.5,3.79,.61,4.29,2.47,.08,.3,.12,.61,.12,.91Zm-13.28-171.51c0,.9-.34,1.79-1.03,2.47-1.37,1.37-3.58,1.37-4.95,0l-.36-.36c-1.37-1.37-1.37-3.58,0-4.95,1.37-1.37,3.58-1.37,4.95,0l.36,.36c.68,.68,1.03,1.58,1.03,2.47Zm-7.66,177.12c0,1.54-1.03,2.96-2.59,3.38l-.49,.13c-1.87,.5-3.79-.61-4.29-2.47-.5-1.87,.61-3.79,2.47-4.29l.48-.13c1.87-.5,3.79,.6,4.29,2.47,.08,.31,.12,.61,.12,.91Zm-7.62-192.4c0,.9-.34,1.79-1.03,2.47-1.37,1.37-3.58,1.37-4.95,0l-.36-.36c-1.37-1.37-1.37-3.58,0-4.95,1.37-1.37,3.58-1.37,4.95,0l.36,.36c.68,.68,1.03,1.58,1.03,2.47Zm-13.31,198.01c0,1.54-1.03,2.96-2.59,3.38l-.49,.13c-1.87,.5-3.79-.61-4.29-2.47-.5-1.87,.61-3.79,2.47-4.29l.48-.13c1.87-.5,3.79,.6,4.29,2.47,.08,.31,.12,.61,.12,.91Zm-1.97-213.29c0,.9-.34,1.79-1.03,2.47-1.37,1.37-3.58,1.37-4.95,0l-.36-.36c-1.37-1.37-1.37-3.58,0-4.95,1.37-1.37,3.58-1.37,4.95,0l.36,.36c.68,.68,1.03,1.58,1.03,2.47Zm-15.28-15.28c0,.9-.34,1.79-1.03,2.47-1.37,1.37-3.58,1.37-4.95,0l-.36-.36c-1.37-1.37-1.37-3.58,0-4.95,1.37-1.37,3.58-1.37,4.95,0l.36,.36c.68,.68,1.03,1.58,1.03,2.47Zm-3.67,234.19c0,1.55-1.03,2.96-2.6,3.38l-.48,.13c-1.87,.5-3.79-.61-4.29-2.47-.5-1.86,.61-3.79,2.47-4.29l.49-.13c1.87-.5,3.79,.61,4.28,2.48,.08,.3,.12,.61,.12,.9Zm-11.61-249.47c0,.9-.34,1.79-1.03,2.47-1.37,1.37-3.58,1.37-4.95,0l-.36-.36c-1.37-1.37-1.37-3.58,0-4.95,1.37-1.37,3.58-1.37,4.95,0l.36,.36c.68,.68,1.03,1.58,1.03,2.47Zm-9.32,255.08c0,1.55-1.03,2.96-2.6,3.38l-.48,.13c-1.87,.5-3.79-.61-4.29-2.47-.5-1.86,.61-3.79,2.47-4.29l.49-.13c1.87-.5,3.79,.61,4.28,2.48,.08,.3,.12,.61,.12,.9Zm-5.97-270.36c0,.9-.34,1.79-1.03,2.47-1.37,1.37-3.58,1.37-4.95,0l-.36-.36c-1.37-1.37-1.37-3.58,0-4.95,1.37-1.37,3.58-1.37,4.95,0l.36,.36c.68,.68,1.03,1.58,1.03,2.47Zm-14.96,275.97c0,1.55-1.03,2.96-2.6,3.38l-.48,.13c-1.87,.5-3.79-.61-4.29-2.47-.5-1.87,.61-3.79,2.47-4.29l.49-.13c1.87-.5,3.79,.61,4.28,2.48,.08,.3,.12,.61,.12,.9Zm-.32-291.25c0,.9-.34,1.79-1.03,2.47-1.37,1.37-3.58,1.37-4.95,0l-.36-.36c-1.37-1.37-1.37-3.58,0-4.95,1.37-1.37,3.58-1.37,4.95,0l.36,.36c.68,.68,1.03,1.58,1.03,2.47Zm-15.28-15.28c0,.9-.34,1.79-1.03,2.47-1.37,1.37-3.58,1.37-4.95,0l-.36-.36c-1.37-1.37-1.37-3.58,0-4.95,1.37-1.37,3.58-1.37,4.95,0l.36,.36c.68,.68,1.03,1.58,1.03,2.47Zm-5.32,312.14c0,1.55-1.03,2.96-2.6,3.38l-.48,.13c-1.87,.5-3.79-.61-4.29-2.47-.5-1.87,.61-3.79,2.47-4.29l.49-.13c1.87-.5,3.79,.61,4.28,2.48,.08,.3,.12,.61,.12,.9Zm-9.96-327.43c0,.9-.34,1.79-1.03,2.47-1.37,1.37-3.58,1.37-4.95,0l-.36-.36c-1.37-1.37-1.37-3.58,0-4.95,1.37-1.37,3.58-1.37,4.95,0l.36,.36c.68,.68,1.03,1.58,1.03,2.47Zm-10.98,333.04c0,1.54-1.03,2.96-2.59,3.38l-.49,.13c-1.87,.5-3.79-.61-4.29-2.47-.5-1.86,.61-3.79,2.47-4.29l.49-.13c1.87-.5,3.79,.61,4.29,2.47,.08,.3,.12,.61,.12,.91Zm-4.31-348.32c0,.9-.34,1.79-1.03,2.47-1.37,1.37-3.58,1.37-4.95,0l-.36-.36c-1.37-1.37-1.37-3.58,0-4.95,1.37-1.37,3.58-1.37,4.95,0l.36,.36c.68,.68,1.03,1.58,1.03,2.47Zm-15.28-15.28c0,.9-.34,1.79-1.03,2.48-1.37,1.36-3.58,1.36-4.95,0l-.35-.36c-1.36-1.37-1.36-3.58,0-4.95,1.37-1.36,3.58-1.36,4.95,0l.35,.36c.68,.68,1.02,1.58,1.02,2.47Zm-1.34,369.21c0,1.55-1.03,2.96-2.6,3.38l-.48,.13c-1.87,.5-3.79-.61-4.29-2.47-.5-1.87,.61-3.79,2.47-4.29l.49-.13c1.87-.5,3.79,.61,4.28,2.48,.08,.3,.12,.61,.12,.9Zm-13.94-384.5c0,.9-.34,1.79-1.03,2.47-1.37,1.37-3.58,1.37-4.95,0l-.36-.36c-1.37-1.37-1.37-3.58,0-4.95,1.37-1.37,3.58-1.37,4.95,0l.36,.36c.68,.68,1.03,1.58,1.03,2.47Zm-6.99,390.1c0,1.55-1.03,2.96-2.6,3.38l-.48,.13c-1.87,.5-3.79-.61-4.29-2.47-.5-1.87,.61-3.79,2.47-4.29l.49-.13c1.87-.5,3.79,.61,4.28,2.48,.08,.3,.12,.61,.12,.9Zm-8.3-405.39c0,.9-.34,1.79-1.03,2.47-1.37,1.37-3.58,1.37-4.95,0l-.36-.36c-1.37-1.37-1.37-3.58,0-4.95,1.37-1.37,3.58-1.37,4.95,0l.36,.36c.68,.68,1.03,1.58,1.03,2.47Zm-12.63,410.99c0,1.55-1.03,2.96-2.6,3.38l-.48,.13c-1.87,.5-3.79-.61-4.29-2.47-.5-1.86,.61-3.79,2.47-4.29l.49-.13c1.87-.5,3.79,.61,4.28,2.48,.08,.3,.12,.61,.12,.9Zm-2.65-426.28c0,.9-.34,1.79-1.03,2.47-1.37,1.37-3.58,1.37-4.95,0l-.36-.36c-1.37-1.37-1.37-3.58,0-4.95,1.37-1.37,3.58-1.37,4.95,0l.36,.36c.68,.68,1.03,1.58,1.03,2.47Zm-15.28-15.28c0,.9-.34,1.79-1.03,2.47-1.37,1.37-3.58,1.37-4.95,0l-.36-.36c-1.37-1.37-1.37-3.58,0-4.95,1.37-1.37,3.58-1.37,4.95,0l.36,.36c.68,.68,1.03,1.58,1.03,2.47Zm-3,447.17c0,1.55-1.03,2.96-2.6,3.38l-.48,.13c-1.87,.5-3.79-.61-4.29-2.47-.5-1.86,.61-3.79,2.47-4.29l.49-.13c1.87-.5,3.79,.61,4.28,2.48,.08,.3,.12,.61,.12,.9Zm-13.19-459.4c0,.96-.39,1.92-1.17,2.61-1.23,1.47-3.41,1.68-4.89,.47-1.5-1.22-1.72-3.42-.5-4.92,.23-.28,.48-.54,.76-.78,1.46-1.27,3.67-1.13,4.94,.33,.58,.66,.87,1.49,.87,2.3Zm-7.75,465.01c0,1.55-1.03,2.96-2.6,3.38l-.48,.13c-1.87,.5-3.79-.61-4.29-2.47-.5-1.86,.61-3.79,2.47-4.29l.49-.13c1.87-.5,3.79,.61,4.28,2.48,.08,.3,.12,.61,.12,.9Zm-3.99-423.13c0,.3-.04,.6-.12,.9l-.13,.5c-.51,1.87-2.43,2.97-4.29,2.46-1.87-.51-2.97-2.43-2.46-4.29l.13-.47c.5-1.87,2.42-2.98,4.28-2.48,1.57,.42,2.6,1.83,2.6,3.38Zm-5.62,20.97c0,.3-.04,.6-.12,.9l-.13,.51c-.51,1.87-2.43,2.97-4.29,2.46-1.86-.51-2.97-2.42-2.46-4.29l.12-.47c.5-1.87,2.41-2.98,4.28-2.49,1.57,.42,2.6,1.83,2.6,3.38Zm-5.62,20.96c0,.3-.04,.6-.12,.9l-.13,.51c-.51,1.87-2.43,2.97-4.29,2.46-1.86-.51-2.96-2.43-2.46-4.29l.12-.47c.5-1.87,2.41-2.98,4.28-2.49,1.57,.42,2.6,1.83,2.6,3.38Zm-5.62,20.95c0,.3-.04,.6-.12,.9l-.14,.51c-.51,1.87-2.43,2.96-4.3,2.46s-2.96-2.43-2.46-4.3l.12-.46c.5-1.87,2.41-2.98,4.28-2.49,1.57,.42,2.6,1.83,2.6,3.38Zm-.09,365.86c0,1.55-1.03,2.96-2.6,3.38l-.48,.13c-1.87,.5-3.79-.61-4.29-2.47-.5-1.87,.61-3.79,2.47-4.29l.49-.13c1.87-.5,3.79,.61,4.28,2.48,.08,.3,.12,.61,.12,.9Zm-5.52-344.92c0,.3-.04,.6-.12,.9l-.14,.51c-.51,1.87-2.43,2.96-4.3,2.46s-2.97-2.43-2.46-4.3l.12-.46c.5-1.87,2.41-2.98,4.28-2.49,1.57,.42,2.6,1.83,2.6,3.38Zm-5.61,20.94c0,.3-.04,.6-.12,.9l-.14,.51c-.51,1.87-2.43,2.96-4.3,2.46s-2.96-2.43-2.46-4.3l.12-.46c.5-1.87,2.41-2.98,4.28-2.49,1.57,.42,2.6,1.83,2.6,3.38Zm-5.61,20.93c0,.3-.04,.6-.12,.9l-.14,.51c-.51,1.87-2.43,2.96-4.3,2.46s-2.97-2.43-2.46-4.3l.12-.46c.5-1.87,2.41-2.98,4.28-2.49,1.57,.42,2.6,1.83,2.6,3.38Zm-4.21,308.66c0,1.55-1.04,2.97-2.6,3.38l-.48,.13c-1.87,.5-3.79-.61-4.29-2.47-.5-1.87,.61-3.79,2.47-4.29l.5-.13c1.87-.5,3.78,.62,4.28,2.49,.08,.3,.12,.6,.12,.9Zm-1.4-287.73c0,.3-.04,.6-.12,.9l-.14,.51c-.51,1.87-2.43,2.96-4.3,2.46s-2.96-2.43-2.46-4.3l.12-.46c.5-1.87,2.41-2.98,4.28-2.49,1.57,.42,2.6,1.83,2.6,3.38Zm-5.61,20.93c0,.3-.04,.6-.12,.9l-.14,.51c-.51,1.87-2.43,2.96-4.3,2.46s-2.97-2.43-2.46-4.3l.12-.46c.5-1.87,2.41-2.98,4.28-2.49,1.57,.42,2.6,1.83,2.6,3.38Zm-5.61,20.93c0,.3-.04,.6-.12,.9l-.13,.51c-.51,1.87-2.43,2.97-4.29,2.46-1.86-.51-2.97-2.43-2.46-4.29l.12-.47c.5-1.87,2.41-2.98,4.28-2.49,1.57,.42,2.6,1.83,2.6,3.38Zm-5.61,20.94c0,.3-.04,.6-.12,.9l-.14,.51c-.51,1.87-2.43,2.96-4.3,2.46-1.87-.51-2.97-2.43-2.46-4.3l.12-.46c.5-1.87,2.41-2.98,4.28-2.49,1.57,.42,2.6,1.83,2.6,3.38Zm-2.72,230.54c0,1.55-1.04,2.97-2.6,3.38l-.48,.13c-1.87,.5-3.79-.61-4.29-2.47-.5-1.87,.61-3.79,2.47-4.29l.5-.13c1.87-.5,3.78,.62,4.28,2.49,.08,.3,.12,.6,.12,.9Zm-2.89-209.62c0,.3-.04,.6-.12,.9l-.14,.51c-.51,1.87-2.43,2.96-4.3,2.46-1.87-.51-2.96-2.43-2.46-4.3l.12-.46c.5-1.87,2.41-2.98,4.28-2.49,1.57,.42,2.6,1.83,2.6,3.38Zm-5.61,20.93c0,.3-.04,.6-.12,.9l-.13,.5c-.51,1.87-2.43,2.97-4.29,2.46-1.87-.51-2.97-2.43-2.46-4.29l.12-.47c.5-1.87,2.41-2.98,4.28-2.49,1.57,.42,2.6,1.83,2.6,3.38Zm-5.61,20.93c0,.3-.04,.6-.12,.9l-.14,.51c-.51,1.87-2.43,2.97-4.29,2.46-1.87-.51-2.97-2.43-2.46-4.3l.12-.46c.5-1.87,2.41-2.98,4.28-2.49,1.57,.42,2.6,1.83,2.6,3.38Zm-5.61,20.93c0,.3-.04,.6-.12,.9l-.14,.51c-.51,1.87-2.43,2.97-4.29,2.46-1.87-.51-2.97-2.43-2.46-4.3l.12-.46c.5-1.87,2.41-2.98,4.28-2.49,1.57,.42,2.6,1.83,2.6,3.38Zm-1.26,152.45c0,1.55-1.03,2.96-2.59,3.38l-.48,.13c-1.87,.5-3.79-.6-4.29-2.47-.51-1.87,.6-3.79,2.47-4.29l.49-.13c1.87-.5,3.79,.61,4.29,2.47,.08,.3,.12,.61,.12,.91Zm-4.35-131.51c0,.3-.04,.6-.12,.9l-.14,.51c-.51,1.87-2.43,2.97-4.29,2.46-1.87-.51-2.97-2.43-2.46-4.3l.12-.46c.5-1.87,2.41-2.98,4.28-2.49,1.57,.42,2.6,1.83,2.6,3.38Zm-5.61,20.94c0,.3-.04,.6-.12,.9l-.14,.51c-.51,1.86-2.43,2.96-4.3,2.46-1.86-.51-2.97-2.43-2.46-4.3l.12-.46c.5-1.87,2.41-2.98,4.28-2.49,1.57,.42,2.6,1.83,2.6,3.38Zm-5.61,20.94c0,.3-.04,.6-.12,.9l-.14,.51c-.51,1.86-2.43,2.96-4.3,2.46-1.86-.51-2.97-2.43-2.46-4.3l.12-.46c.5-1.87,2.41-2.98,4.28-2.49,1.57,.42,2.6,1.83,2.6,3.38Zm-5.42,95.26c0,1.55-1.03,2.96-2.6,3.38l-.49,.13c-1.87,.5-3.79-.61-4.28-2.48-.49-1.87,.61-3.79,2.48-4.28l.49-.13c1.87-.5,3.79,.61,4.28,2.48,.08,.3,.12,.61,.12,.9Zm-.19-74.31c0,.3-.04,.6-.12,.9l-.14,.51c-.51,1.87-2.43,2.97-4.29,2.46-1.87-.51-2.97-2.43-2.46-4.3l.12-.46c.5-1.87,2.41-2.98,4.28-2.49,1.57,.42,2.6,1.83,2.6,3.38Zm-5.61,20.96c0,.3-.04,.6-.12,.9l-.14,.51c-.51,1.86-2.43,2.96-4.3,2.46-1.86-.51-2.96-2.43-2.46-4.3l.12-.46c.5-1.87,2.41-2.98,4.28-2.49,1.57,.42,2.6,1.83,2.6,3.38Zm-5.62,20.98c0,.3-.04,.6-.12,.9l-.14,.51c-.51,1.86-2.43,2.96-4.3,2.46-1.87-.51-2.96-2.43-2.46-4.3l.12-.46c.5-1.87,2.41-2.98,4.28-2.49,1.57,.42,2.6,1.83,2.6,3.38Zm-5.62,21c0,.3-.04,.61-.12,.91l-.13,.48c-.5,1.87-2.42,2.98-4.29,2.48-1.87-.5-2.98-2.42-2.48-4.29l.13-.49c.5-1.87,2.42-2.97,4.29-2.47,1.56,.42,2.59,1.83,2.59,3.38Zm-4.06,17.03c0,1.54-1.03,2.96-2.59,3.38l-.42,.11c-.32,.09-.65,.15-1,.15-1.93,0-3.5-1.57-3.5-3.5,0-1,.39-2.79,3-3.49l.1-.03c1.87-.5,3.79,.6,4.29,2.47,.08,.31,.12,.61,.12,.92Zm127.45-477.5c0,.3-.04,.6-.12,.9l-.13,.5c-.51,1.87-2.43,2.97-4.29,2.46-1.87-.51-2.97-2.43-2.46-4.29l.13-.47c.5-1.87,2.42-2.98,4.28-2.48,1.57,.42,2.6,1.83,2.6,3.38Z"/><path d="M1368.66,1313.33c-.46,.77-1.21,1.36-2.15,1.6-1.87,.47-3.78-.67-4.25-2.54l-.12-.49c-.47-1.88,.67-3.78,2.54-4.25,1.87-.47,3.78,.67,4.25,2.54l.12,.49c.24,.94,.07,1.88-.39,2.65Zm-5.27-20.96c-.46,.77-1.21,1.36-2.15,1.6-1.87,.47-3.78-.67-4.25-2.54l-.12-.49c-.47-1.87,.67-3.78,2.54-4.25,1.87-.47,3.78,.67,4.25,2.54l.12,.49c.24,.94,.07,1.88-.39,2.65Zm-14.44,15.99c-.79,1.32-2.4,2.01-3.95,1.57l-.49-.14c-1.86-.53-2.94-2.46-2.41-4.32,.53-1.86,2.46-2.94,4.32-2.41l.48,.13c1.86,.52,2.95,2.46,2.42,4.32-.09,.31-.21,.59-.37,.85Zm9.17-36.95c-.46,.77-1.21,1.36-2.15,1.6-1.87,.47-3.78-.67-4.25-2.54l-.12-.49c-.47-1.88,.67-3.78,2.54-4.25,1.87-.47,3.78,.67,4.25,2.54l.12,.49c.24,.94,.07,1.88-.39,2.65Zm-30.08,31.01c-.8,1.33-2.41,2.01-3.97,1.56l-.47-.14c-1.86-.53-2.94-2.47-2.41-4.32,.53-1.86,2.46-2.94,4.32-2.41l.49,.14c1.86,.53,2.93,2.47,2.4,4.33-.09,.3-.21,.58-.36,.83Zm24.81-51.97c-.46,.77-1.21,1.36-2.15,1.6-1.87,.47-3.78-.67-4.25-2.54l-.12-.49c-.47-1.87,.67-3.78,2.54-4.25,1.87-.47,3.78,.67,4.25,2.54l.12,.49c.24,.94,.07,1.88-.39,2.65Zm-5.27-20.96c-.46,.77-1.21,1.36-2.15,1.6-1.87,.47-3.78-.67-4.25-2.54l-.12-.49c-.47-1.88,.67-3.78,2.54-4.25,1.87-.47,3.78,.67,4.25,2.54l.12,.49c.24,.94,.07,1.88-.39,2.65Zm-40.43,66.99c-.79,1.32-2.4,2.01-3.96,1.57l-.49-.14c-1.86-.53-2.94-2.47-2.41-4.32,.53-1.86,2.47-2.94,4.32-2.41l.48,.14c1.86,.53,2.94,2.46,2.41,4.32-.09,.3-.21,.59-.36,.85Zm35.16-87.95c-.46,.77-1.21,1.36-2.15,1.6-1.87,.47-3.78-.67-4.25-2.54l-.12-.49c-.47-1.88,.67-3.78,2.54-4.25,1.87-.47,3.78,.67,4.25,2.54l.12,.49c.24,.94,.07,1.88-.39,2.65Zm-56.02,82.02c-.79,1.32-2.4,2.01-3.96,1.57l-.49-.14c-1.86-.53-2.94-2.47-2.41-4.32,.53-1.86,2.47-2.94,4.32-2.41l.48,.14c1.86,.53,2.94,2.46,2.41,4.32-.09,.3-.21,.59-.36,.85Zm50.76-102.98c-.46,.77-1.21,1.36-2.15,1.6-1.87,.47-3.78-.67-4.25-2.54l-.12-.49c-.47-1.88,.67-3.78,2.54-4.25,1.87-.47,3.78,.67,4.25,2.54l.12,.49c.24,.94,.07,1.88-.39,2.65Zm-71.61,97.04c-.79,1.33-2.4,2.01-3.96,1.57l-.48-.14c-1.86-.53-2.94-2.47-2.41-4.32,.53-1.86,2.47-2.94,4.32-2.41l.48,.14c1.86,.53,2.94,2.47,2.41,4.32-.09,.3-.21,.58-.36,.84Zm66.34-118.01c-.46,.77-1.21,1.36-2.15,1.6-1.87,.47-3.78-.67-4.25-2.54l-.12-.49c-.47-1.88,.67-3.78,2.54-4.25,1.87-.47,3.78,.67,4.25,2.54l.12,.49c.24,.94,.07,1.88-.39,2.65Zm-5.27-20.96c-.46,.77-1.21,1.36-2.15,1.6-1.87,.47-3.78-.67-4.25-2.54l-.12-.49c-.47-1.88,.67-3.78,2.54-4.25,1.87-.47,3.78,.67,4.25,2.54l.12,.49c.24,.94,.07,1.88-.39,2.65Zm-81.93,133.03c-.79,1.33-2.4,2.01-3.96,1.57l-.48-.14c-1.86-.53-2.94-2.47-2.41-4.32,.53-1.85,2.47-2.94,4.32-2.41l.48,.14c1.86,.53,2.94,2.47,2.41,4.32-.09,.3-.21,.58-.36,.84Zm76.66-154c-.46,.77-1.21,1.36-2.15,1.6-1.87,.47-3.78-.67-4.25-2.54l-.12-.49c-.47-1.88,.67-3.78,2.54-4.25,1.87-.47,3.78,.67,4.25,2.54l.12,.49c.24,.94,.07,1.88-.39,2.65Zm-97.5,148.06c-.79,1.32-2.4,2.01-3.96,1.57l-.49-.14c-1.86-.53-2.94-2.47-2.41-4.32,.53-1.86,2.47-2.94,4.32-2.41l.48,.14c1.86,.53,2.94,2.46,2.41,4.32-.09,.3-.21,.59-.36,.85Zm92.23-169.03c-.46,.77-1.21,1.36-2.15,1.6-1.87,.47-3.78-.67-4.25-2.54l-.12-.49c-.47-1.88,.67-3.78,2.54-4.25,1.87-.47,3.78,.67,4.25,2.54l.12,.49c.24,.94,.07,1.88-.39,2.65Zm-113.08,163.09c-.79,1.32-2.4,2.01-3.96,1.57l-.49-.14c-1.86-.53-2.94-2.47-2.41-4.32,.53-1.86,2.47-2.94,4.32-2.41l.48,.14c1.86,.53,2.94,2.46,2.41,4.32-.09,.3-.21,.59-.36,.85Zm107.81-184.05c-.46,.77-1.21,1.36-2.15,1.6-1.87,.47-3.78-.67-4.25-2.54l-.12-.49c-.47-1.88,.67-3.78,2.54-4.25,1.87-.47,3.78,.67,4.25,2.54l.12,.49c.24,.94,.07,1.88-.39,2.65Zm-5.27-20.96c-.46,.77-1.21,1.36-2.15,1.6-1.87,.47-3.78-.67-4.25-2.54l-.12-.49c-.47-1.88,.67-3.78,2.54-4.25,1.87-.47,3.78,.67,4.25,2.54l.12,.49c.24,.94,.07,1.88-.39,2.65Zm-123.38,199.09c-.79,1.33-2.41,2.01-3.97,1.57l-.48-.14c-1.86-.53-2.94-2.47-2.41-4.32,.53-1.86,2.47-2.94,4.32-2.41l.49,.14c1.86,.53,2.93,2.47,2.4,4.33-.09,.3-.21,.58-.36,.84Zm118.11-220.05c-.46,.77-1.21,1.36-2.15,1.6-1.87,.47-3.78-.67-4.25-2.54l-.12-.49c-.47-1.88,.67-3.78,2.54-4.25,1.87-.47,3.78,.67,4.25,2.54l.12,.49c.24,.94,.07,1.88-.39,2.65Zm-138.95,214.12c-.79,1.33-2.41,2.01-3.97,1.57l-.48-.14c-1.86-.53-2.94-2.47-2.41-4.32,.53-1.86,2.47-2.94,4.32-2.41l.49,.14c1.86,.53,2.93,2.47,2.4,4.33-.09,.3-.21,.58-.36,.84Zm133.68-235.08c-.46,.77-1.21,1.36-2.15,1.6-1.87,.47-3.78-.67-4.25-2.54l-.12-.49c-.47-1.88,.67-3.78,2.54-4.25,1.87-.47,3.78,.67,4.25,2.54l.12,.49c.24,.94,.07,1.88-.39,2.65Zm-154.52,229.14c-.79,1.33-2.41,2.01-3.97,1.57l-.48-.14c-1.86-.53-2.94-2.47-2.41-4.32,.53-1.86,2.47-2.94,4.32-2.41l.49,.14c1.86,.53,2.93,2.47,2.4,4.33-.09,.3-.21,.58-.36,.84Zm149.25-250.11c-.46,.77-1.21,1.36-2.15,1.6-1.87,.47-3.78-.67-4.25-2.54l-.12-.49c-.47-1.88,.67-3.78,2.54-4.25,1.87-.47,3.78,.67,4.25,2.54l.12,.49c.24,.94,.07,1.88-.39,2.65Zm-5.27-20.96c-.46,.77-1.21,1.36-2.15,1.6-1.87,.47-3.78-.67-4.25-2.54l-.12-.49c-.47-1.88,.67-3.78,2.54-4.25,1.87-.47,3.78,.67,4.25,2.54l.12,.49c.24,.94,.07,1.88-.39,2.65Zm-164.82,265.14c-.79,1.33-2.41,2.01-3.97,1.57l-.48-.14c-1.86-.53-2.94-2.47-2.41-4.32,.53-1.86,2.47-2.94,4.32-2.41l.49,.14c1.86,.53,2.93,2.47,2.4,4.33-.09,.3-.21,.58-.36,.84Zm159.55-286.1c-.46,.77-1.21,1.36-2.15,1.6-1.87,.47-3.78-.67-4.25-2.54l-.12-.49c-.47-1.88,.67-3.78,2.54-4.25,1.87-.47,3.78,.67,4.25,2.54l.12,.49c.24,.94,.07,1.88-.39,2.65Zm-180.4,280.16c-.79,1.33-2.4,2.01-3.96,1.57l-.48-.14c-1.86-.53-2.94-2.47-2.41-4.32,.53-1.86,2.47-2.94,4.32-2.41l.48,.14c1.86,.53,2.94,2.47,2.41,4.32-.09,.3-.21,.58-.36,.84Zm175.13-301.13c-.46,.77-1.21,1.36-2.15,1.6-1.87,.47-3.78-.67-4.25-2.54l-.12-.49c-.47-1.88,.67-3.78,2.54-4.25,1.87-.47,3.78,.67,4.25,2.54l.12,.49c.24,.94,.07,1.88-.39,2.65Zm-5.27-20.96c-.46,.77-1.22,1.36-2.15,1.6-1.88,.47-3.78-.67-4.24-2.55l-.12-.49c-.47-1.87,.67-3.78,2.55-4.24,1.88-.47,3.78,.67,4.24,2.55l.12,.49c.23,.94,.07,1.88-.39,2.65Zm-190.7,316.15c-.79,1.33-2.41,2.01-3.97,1.57l-.48-.14c-1.86-.53-2.94-2.47-2.41-4.32,.53-1.86,2.47-2.94,4.32-2.41l.49,.14c1.86,.53,2.93,2.47,2.4,4.33-.09,.3-.21,.58-.36,.84Zm185.43-337.12c-.46,.77-1.21,1.36-2.15,1.6-1.87,.47-3.78-.67-4.25-2.54l-.12-.49c-.47-1.88,.67-3.78,2.54-4.25,1.87-.47,3.78,.67,4.25,2.54l.12,.49c.24,.94,.07,1.88-.39,2.65Zm-206.27,331.18c-.79,1.33-2.41,2.01-3.97,1.57l-.48-.14c-1.86-.53-2.94-2.47-2.41-4.32,.53-1.86,2.47-2.94,4.32-2.41l.49,.14c1.86,.53,2.93,2.47,2.4,4.33-.09,.3-.21,.58-.36,.84Zm201-352.15c-.46,.77-1.21,1.36-2.15,1.6-1.87,.47-3.78-.67-4.25-2.54l-.12-.49c-.47-1.88,.67-3.78,2.54-4.25,1.87-.47,3.78,.67,4.25,2.54l.12,.49c.24,.94,.07,1.88-.39,2.65Zm-221.84,346.21c-.79,1.33-2.41,2.01-3.97,1.57l-.48-.14c-1.86-.53-2.94-2.47-2.41-4.32,.53-1.86,2.47-2.94,4.32-2.41l.49,.14c1.86,.53,2.93,2.47,2.4,4.33-.09,.3-.21,.58-.36,.84Zm216.57-367.17c-.46,.77-1.21,1.36-2.15,1.6-1.87,.47-3.78-.67-4.25-2.54l-.12-.49c-.47-1.88,.67-3.78,2.54-4.25,1.87-.47,3.78,.67,4.25,2.54l.12,.49c.24,.94,.07,1.88-.39,2.65Zm-5.27-20.96c-.46,.77-1.21,1.36-2.15,1.6-1.87,.47-3.78-.67-4.25-2.54l-.12-.49c-.47-1.88,.67-3.78,2.54-4.25,1.87-.47,3.78,.67,4.25,2.54l.12,.49c.24,.94,.07,1.88-.39,2.65Zm-232.14,382.2c-.79,1.33-2.41,2.01-3.97,1.57l-.48-.14c-1.86-.53-2.94-2.47-2.41-4.32,.53-1.85,2.47-2.94,4.32-2.41l.49,.14c1.86,.53,2.93,2.47,2.4,4.33-.09,.3-.21,.58-.36,.84Zm224.53-401.01c-.49,.83-1.32,1.44-2.34,1.64-1.81,.63-3.79-.31-4.44-2.11-.66-1.82,.28-3.82,2.1-4.48,.34-.12,.69-.22,1.05-.28,1.9-.35,3.72,.92,4.07,2.82,.16,.87-.02,1.72-.44,2.42Zm-245.38,395.07c-.79,1.33-2.41,2.01-3.97,1.57l-.48-.14c-1.86-.53-2.94-2.47-2.41-4.32,.53-1.86,2.47-2.94,4.32-2.41l.49,.14c1.86,.53,2.93,2.47,2.4,4.33-.09,.3-.21,.58-.36,.84Zm213.8-365.16c-.15,.26-.34,.5-.57,.71l-.37,.36c-1.39,1.34-3.61,1.3-4.95-.09-1.34-1.39-1.3-3.61,.09-4.95l.35-.34c1.39-1.35,3.6-1.32,4.95,.07,1.13,1.16,1.29,2.91,.5,4.24Zm-15.59,15.11c-.15,.25-.34,.49-.56,.71l-.38,.36c-1.39,1.34-3.61,1.3-4.95-.09-1.34-1.39-1.3-3.61,.09-4.95l.35-.34c1.38-1.35,3.6-1.32,4.95,.06,1.13,1.16,1.29,2.91,.5,4.24Zm-15.58,15.1c-.15,.25-.34,.49-.56,.71l-.38,.36c-1.39,1.34-3.61,1.3-4.95-.09-1.34-1.39-1.3-3.61,.09-4.95l.35-.34c1.38-1.35,3.6-1.32,4.95,.06,1.13,1.16,1.3,2.91,.5,4.24Zm-15.57,15.09c-.15,.25-.34,.49-.56,.71l-.38,.37c-1.39,1.34-3.61,1.3-4.95-.1s-1.3-3.61,.1-4.95l.34-.33c1.38-1.35,3.6-1.32,4.95,.06,1.13,1.16,1.29,2.91,.5,4.24Zm-187.91,313.92c-.79,1.33-2.41,2.01-3.97,1.57l-.48-.14c-1.86-.53-2.94-2.47-2.41-4.32,.53-1.86,2.47-2.94,4.32-2.41l.49,.14c1.86,.53,2.93,2.47,2.4,4.33-.09,.3-.21,.58-.36,.84Zm172.34-298.83c-.15,.25-.34,.49-.56,.71l-.38,.37c-1.39,1.34-3.61,1.3-4.95-.1-1.34-1.39-1.3-3.61,.1-4.95l.34-.33c1.38-1.35,3.6-1.32,4.95,.06,1.13,1.16,1.3,2.91,.5,4.24Zm-15.56,15.09c-.15,.25-.34,.49-.56,.71l-.38,.37c-1.39,1.34-3.61,1.3-4.95-.1-1.34-1.39-1.3-3.61,.1-4.95l.34-.33c1.38-1.35,3.6-1.32,4.95,.06,1.13,1.16,1.29,2.91,.5,4.24Zm-15.56,15.08c-.15,.25-.34,.49-.56,.71l-.38,.37c-1.39,1.34-3.61,1.3-4.95-.1-1.34-1.39-1.3-3.61,.1-4.95l.34-.33c1.38-1.35,3.6-1.32,4.95,.06,1.13,1.16,1.29,2.91,.5,4.24Zm-162.07,262.72c-.8,1.33-2.41,2.01-3.97,1.56l-.47-.14c-1.86-.53-2.94-2.47-2.41-4.32,.53-1.86,2.47-2.94,4.32-2.41l.49,.14c1.86,.53,2.93,2.47,2.4,4.33-.09,.3-.21,.58-.36,.83Zm146.51-247.64c-.15,.25-.34,.49-.56,.71l-.38,.37c-1.39,1.34-3.61,1.3-4.95-.1s-1.3-3.61,.1-4.95l.34-.33c1.38-1.35,3.6-1.32,4.95,.06,1.13,1.16,1.29,2.91,.5,4.24Zm-15.56,15.08c-.15,.25-.34,.49-.56,.71l-.38,.37c-1.39,1.34-3.61,1.3-4.95-.1s-1.3-3.61,.1-4.95l.34-.33c1.38-1.35,3.6-1.32,4.95,.06,1.13,1.16,1.29,2.91,.5,4.24Zm-15.56,15.08c-.15,.25-.34,.49-.56,.71l-.38,.36c-1.39,1.34-3.61,1.3-4.95-.09-1.34-1.39-1.3-3.61,.09-4.95l.35-.34c1.38-1.35,3.6-1.32,4.95,.06,1.13,1.16,1.29,2.91,.5,4.24Zm-15.57,15.09c-.15,.25-.34,.49-.56,.71l-.38,.37c-1.39,1.34-3.61,1.29-4.95-.1-1.34-1.39-1.3-3.61,.1-4.95l.34-.33c1.38-1.35,3.6-1.32,4.95,.06,1.13,1.16,1.29,2.91,.5,4.24Zm-120.69,196.45c-.8,1.33-2.41,2.01-3.97,1.56l-.47-.14c-1.86-.53-2.94-2.47-2.41-4.32,.53-1.86,2.47-2.94,4.32-2.41l.49,.14c1.86,.53,2.93,2.47,2.4,4.33-.09,.3-.21,.58-.36,.83Zm105.14-181.37c-.15,.25-.34,.49-.56,.71l-.38,.37c-1.39,1.34-3.61,1.3-4.95-.1-1.34-1.39-1.3-3.61,.1-4.95l.34-.33c1.38-1.35,3.6-1.32,4.95,.06,1.13,1.16,1.29,2.91,.5,4.24Zm-15.56,15.08c-.15,.25-.34,.49-.56,.71l-.37,.36c-1.39,1.34-3.61,1.3-4.95-.09-1.34-1.39-1.3-3.61,.09-4.95l.35-.34c1.38-1.35,3.6-1.32,4.95,.06,1.13,1.16,1.29,2.91,.5,4.24Zm-15.56,15.08c-.15,.25-.34,.49-.56,.71l-.38,.37c-1.39,1.34-3.61,1.3-4.95-.09-1.34-1.39-1.3-3.61,.1-4.95l.34-.33c1.38-1.35,3.6-1.32,4.95,.06,1.13,1.16,1.29,2.91,.5,4.24Zm-15.56,15.08c-.15,.25-.34,.49-.56,.71l-.38,.37c-1.39,1.34-3.61,1.3-4.95-.09-1.34-1.39-1.3-3.61,.1-4.95l.34-.33c1.38-1.35,3.6-1.32,4.95,.06,1.13,1.16,1.29,2.91,.5,4.24Zm-79.35,130.18c-.79,1.33-2.4,2.01-3.96,1.57l-.48-.14c-1.86-.53-2.94-2.46-2.41-4.32,.52-1.86,2.46-2.94,4.32-2.42l.49,.14c1.86,.53,2.94,2.47,2.41,4.32-.09,.3-.21,.58-.36,.84Zm63.79-115.09c-.15,.25-.34,.49-.56,.71l-.38,.37c-1.39,1.34-3.61,1.3-4.95-.09-1.34-1.39-1.3-3.61,.1-4.95l.34-.33c1.38-1.35,3.6-1.32,4.95,.06,1.13,1.16,1.29,2.91,.5,4.24Zm-15.56,15.09c-.15,.25-.34,.49-.56,.71l-.38,.37c-1.39,1.34-3.61,1.3-4.95-.1-1.34-1.39-1.3-3.61,.1-4.95l.34-.33c1.38-1.35,3.6-1.32,4.95,.06,1.13,1.16,1.29,2.91,.5,4.24Zm-15.57,15.09c-.15,.25-.34,.49-.56,.71l-.38,.37c-1.39,1.34-3.61,1.3-4.95-.1-1.34-1.39-1.3-3.61,.1-4.95l.34-.33c1.38-1.35,3.6-1.32,4.95,.06,1.13,1.16,1.29,2.91,.5,4.24Zm-53.56,78.96c-.79,1.33-2.41,2.01-3.97,1.57l-.48-.14c-1.86-.53-2.93-2.47-2.4-4.33,.53-1.85,2.47-2.93,4.33-2.4l.48,.14c1.86,.53,2.93,2.47,2.4,4.33-.09,.3-.21,.58-.36,.84Zm37.99-63.87c-.15,.25-.34,.49-.56,.71l-.38,.37c-1.39,1.34-3.61,1.3-4.95-.09-1.34-1.39-1.3-3.61,.1-4.95l.34-.33c1.38-1.35,3.6-1.32,4.95,.06,1.13,1.16,1.29,2.91,.5,4.24Zm-15.58,15.11c-.15,.25-.34,.49-.56,.71l-.38,.37c-1.39,1.34-3.61,1.3-4.95-.1-1.34-1.39-1.29-3.61,.1-4.95l.34-.33c1.38-1.35,3.6-1.32,4.95,.06,1.13,1.16,1.29,2.91,.5,4.24Zm-15.59,15.12c-.15,.25-.34,.49-.56,.71l-.38,.37c-1.39,1.34-3.61,1.3-4.95-.1-1.34-1.39-1.29-3.61,.1-4.95l.34-.33c1.38-1.35,3.6-1.32,4.95,.06,1.13,1.16,1.29,2.91,.5,4.24Zm-15.6,15.14c-.15,.26-.35,.5-.57,.72l-.36,.35c-1.39,1.35-3.6,1.31-4.95-.07-1.35-1.39-1.31-3.61,.07-4.95l.36-.36c1.39-1.34,3.61-1.31,4.95,.08,1.12,1.16,1.28,2.9,.49,4.23Zm-12.23,12.53c-.79,1.32-2.4,2.01-3.95,1.57l-.42-.12c-.32-.08-.63-.21-.93-.39-1.66-.99-2.2-3.14-1.21-4.8,.51-.86,1.76-2.19,4.36-1.46l.1,.03c1.86,.53,2.94,2.46,2.42,4.32-.09,.3-.21,.59-.37,.85Zm354.52-344.34c-.15,.26-.34,.5-.57,.71l-.37,.36c-1.39,1.34-3.61,1.3-4.95-.09-1.34-1.39-1.3-3.61,.09-4.95l.35-.34c1.39-1.35,3.6-1.32,4.95,.07,1.13,1.16,1.29,2.91,.5,4.24Z"/><path d="M1070.5,882.88c-.76,.47-1.71,.64-2.65,.42-1.88-.45-3.04-2.34-2.59-4.22l.12-.49c.45-1.88,2.34-3.04,4.22-2.59,1.88,.45,3.04,2.34,2.59,4.22l-.12,.49c-.23,.94-.81,1.7-1.57,2.17Zm5.05-21.02c-.76,.47-1.71,.64-2.65,.42-1.88-.45-3.04-2.34-2.59-4.22l.12-.49c.45-1.88,2.34-3.04,4.22-2.59,1.88,.45,3.04,2.34,2.59,4.22l-.12,.49c-.23,.94-.81,1.7-1.57,2.17Zm-20.21,7.47c-1.31,.81-3.05,.67-4.23-.44l-.37-.35c-1.4-1.33-1.47-3.54-.14-4.95,1.33-1.41,3.54-1.47,4.95-.14l.36,.34c1.41,1.33,1.47,3.54,.15,4.95-.22,.23-.46,.43-.72,.58Zm25.25-28.49c-.76,.47-1.71,.64-2.65,.42-1.88-.45-3.04-2.34-2.59-4.22l.12-.49c.45-1.88,2.34-3.04,4.22-2.59,1.88,.45,3.04,2.34,2.59,4.22l-.12,.49c-.23,.94-.81,1.7-1.57,2.17Zm-41.03,13.54c-1.32,.81-3.07,.67-4.24-.45l-.36-.34c-1.4-1.33-1.46-3.55-.13-4.95,1.33-1.4,3.55-1.46,4.95-.13l.37,.35c1.4,1.33,1.45,3.55,.12,4.95-.21,.23-.45,.42-.71,.57Zm46.07-34.55c-.76,.47-1.71,.64-2.65,.42-1.88-.45-3.04-2.34-2.59-4.22l.12-.49c.45-1.88,2.34-3.04,4.22-2.59,1.88,.45,3.04,2.34,2.59,4.22l-.12,.49c-.23,.94-.81,1.7-1.57,2.17Zm5.05-21.02c-.76,.47-1.71,.64-2.65,.42-1.88-.45-3.04-2.34-2.59-4.22l.12-.49c.45-1.88,2.34-3.04,4.22-2.59,1.88,.45,3.04,2.34,2.59,4.22l-.12,.49c-.23,.94-.81,1.7-1.57,2.17Zm-66.87,40.63c-1.32,.81-3.06,.67-4.23-.44l-.37-.35c-1.4-1.33-1.46-3.55-.13-4.95,1.33-1.4,3.55-1.46,4.95-.13l.36,.34c1.4,1.33,1.47,3.54,.14,4.95-.22,.23-.46,.42-.72,.58Zm71.91-61.65c-.76,.47-1.71,.64-2.65,.42-1.88-.45-3.04-2.34-2.59-4.22l.12-.49c.45-1.88,2.34-3.04,4.22-2.59,1.88,.45,3.04,2.34,2.59,4.22l-.12,.49c-.23,.94-.81,1.7-1.57,2.17Zm-87.65,46.71c-1.32,.81-3.06,.67-4.23-.44l-.37-.35c-1.4-1.33-1.46-3.55-.13-4.95,1.33-1.4,3.55-1.46,4.95-.13l.36,.34c1.4,1.33,1.47,3.54,.14,4.95-.22,.23-.46,.42-.72,.58Zm92.7-67.73c-.76,.47-1.71,.64-2.65,.42-1.88-.45-3.04-2.34-2.59-4.22l.12-.49c.45-1.88,2.34-3.04,4.22-2.59,1.88,.45,3.04,2.34,2.59,4.22l-.12,.49c-.23,.94-.81,1.7-1.57,2.17Zm-108.43,52.81c-1.32,.81-3.06,.67-4.24-.45l-.37-.35c-1.4-1.33-1.46-3.55-.13-4.95,1.33-1.4,3.55-1.46,4.95-.13l.37,.35c1.4,1.33,1.46,3.55,.13,4.95-.22,.23-.46,.42-.71,.58Zm113.48-73.82c-.76,.47-1.71,.64-2.65,.42-1.88-.45-3.04-2.34-2.59-4.22l.12-.49c.45-1.88,2.34-3.04,4.22-2.59,1.88,.45,3.04,2.34,2.59,4.22l-.12,.49c-.23,.94-.81,1.7-1.57,2.17Zm5.04-21.02c-.76,.47-1.71,.64-2.65,.42-1.88-.45-3.04-2.34-2.59-4.22l.12-.49c.45-1.88,2.34-3.04,4.22-2.59,1.88,.45,3.04,2.34,2.59,4.22l-.12,.49c-.23,.94-.81,1.7-1.57,2.17Zm-134.25,79.92c-1.32,.81-3.06,.67-4.24-.45l-.37-.35c-1.4-1.33-1.46-3.55-.13-4.95,1.33-1.4,3.55-1.46,4.95-.13l.37,.35c1.4,1.33,1.46,3.55,.13,4.95-.22,.23-.46,.42-.71,.58Zm139.3-100.94c-.76,.47-1.71,.64-2.65,.42-1.88-.45-3.04-2.34-2.59-4.22l.12-.49c.45-1.88,2.34-3.04,4.22-2.59,1.88,.45,3.04,2.34,2.59,4.22l-.12,.49c-.23,.94-.81,1.7-1.57,2.17Zm-155.02,86.02c-1.32,.81-3.06,.67-4.23-.44l-.37-.35c-1.4-1.33-1.46-3.55-.13-4.95,1.33-1.4,3.55-1.46,4.95-.13l.36,.34c1.4,1.33,1.47,3.54,.14,4.95-.22,.23-.46,.42-.72,.58Zm160.06-107.03c-.76,.47-1.71,.64-2.65,.42-1.88-.45-3.04-2.34-2.59-4.22l.12-.49c.45-1.88,2.34-3.04,4.22-2.59,1.88,.45,3.04,2.34,2.59,4.22l-.12,.49c-.23,.94-.81,1.7-1.57,2.17Zm-175.78,92.12c-1.32,.81-3.06,.67-4.23-.44l-.37-.35c-1.4-1.33-1.46-3.55-.13-4.95,1.33-1.4,3.55-1.46,4.95-.13l.36,.34c1.4,1.33,1.47,3.54,.14,4.95-.22,.23-.46,.42-.71,.58Zm180.83-113.13c-.76,.47-1.71,.64-2.65,.42-1.88-.45-3.04-2.34-2.59-4.22l.12-.49c.45-1.88,2.34-3.04,4.22-2.59,1.88,.45,3.04,2.34,2.59,4.22l-.12,.49c-.23,.94-.81,1.7-1.57,2.17Zm5.05-21.02c-.76,.47-1.71,.64-2.65,.42-1.88-.45-3.04-2.34-2.59-4.22l.12-.49c.45-1.88,2.34-3.04,4.22-2.59,1.88,.45,3.04,2.34,2.59,4.22l-.12,.49c-.23,.94-.81,1.7-1.57,2.17Zm-201.59,119.24c-1.32,.81-3.07,.67-4.24-.45l-.36-.34c-1.4-1.33-1.46-3.55-.13-4.95,1.33-1.4,3.55-1.46,4.95-.13l.37,.35c1.4,1.33,1.46,3.55,.12,4.95-.22,.23-.45,.42-.71,.57Zm206.64-140.25c-.76,.47-1.71,.64-2.65,.42-1.88-.45-3.04-2.34-2.59-4.22l.12-.49c.45-1.88,2.34-3.04,4.22-2.59,1.88,.45,3.04,2.34,2.59,4.22l-.12,.49c-.23,.94-.81,1.7-1.57,2.17Zm-222.36,125.34c-1.32,.81-3.07,.67-4.24-.45l-.36-.34c-1.4-1.33-1.46-3.55-.13-4.95,1.33-1.4,3.55-1.46,4.95-.13l.37,.35c1.4,1.33,1.46,3.55,.12,4.95-.22,.23-.45,.42-.71,.57Zm227.4-146.36c-.76,.47-1.71,.64-2.65,.42-1.88-.45-3.04-2.34-2.59-4.22l.12-.49c.45-1.88,2.34-3.04,4.22-2.59,1.88,.45,3.04,2.34,2.59,4.22l-.12,.49c-.23,.94-.81,1.7-1.57,2.17Zm-243.12,131.44c-1.32,.81-3.07,.67-4.24-.45l-.36-.34c-1.4-1.33-1.46-3.55-.13-4.95,1.33-1.4,3.55-1.46,4.95-.13l.37,.35c1.4,1.33,1.46,3.55,.12,4.95-.22,.23-.45,.42-.71,.57Zm248.16-152.46c-.76,.47-1.71,.64-2.65,.42-1.88-.45-3.04-2.34-2.59-4.22l.12-.49c.45-1.88,2.34-3.04,4.22-2.59,1.88,.45,3.04,2.34,2.59,4.22l-.12,.49c-.23,.94-.81,1.7-1.57,2.17Zm5.04-21.02c-.76,.47-1.71,.64-2.65,.42-1.88-.45-3.04-2.34-2.59-4.22l.12-.49c.45-1.88,2.34-3.04,4.22-2.59,1.88,.45,3.04,2.34,2.59,4.22l-.12,.49c-.23,.94-.81,1.7-1.57,2.17Zm-268.92,158.56c-1.32,.81-3.07,.67-4.24-.45l-.36-.34c-1.4-1.33-1.46-3.55-.13-4.95,1.33-1.4,3.55-1.46,4.95-.13l.37,.35c1.4,1.33,1.46,3.55,.12,4.95-.22,.23-.45,.42-.71,.57Zm273.97-179.58c-.76,.47-1.71,.64-2.65,.42-1.88-.45-3.04-2.34-2.59-4.22l.12-.49c.45-1.88,2.34-3.04,4.22-2.59,1.88,.45,3.04,2.34,2.59,4.22l-.12,.49c-.23,.94-.81,1.7-1.57,2.17Zm-289.69,164.66c-1.32,.81-3.06,.67-4.24-.45l-.37-.35c-1.4-1.33-1.46-3.55-.13-4.95,1.33-1.4,3.55-1.46,4.95-.13l.37,.35c1.4,1.33,1.46,3.55,.13,4.95-.22,.23-.46,.42-.71,.58Zm294.74-185.68c-.76,.47-1.71,.64-2.65,.42-1.88-.45-3.04-2.34-2.59-4.22l.12-.49c.45-1.88,2.34-3.04,4.22-2.59,1.88,.45,3.04,2.34,2.59,4.22l-.12,.49c-.23,.94-.81,1.7-1.57,2.17Zm5.04-21.02c-.77,.47-1.71,.65-2.65,.42-1.88-.45-3.03-2.35-2.58-4.22l.12-.49c.46-1.88,2.35-3.03,4.22-2.58,1.88,.45,3.03,2.35,2.58,4.22l-.12,.49c-.23,.94-.81,1.7-1.57,2.16Zm-315.5,191.78c-1.32,.81-3.07,.67-4.24-.45l-.36-.34c-1.4-1.33-1.46-3.55-.13-4.95,1.33-1.4,3.55-1.46,4.95-.13l.37,.35c1.4,1.33,1.46,3.55,.12,4.95-.22,.23-.45,.42-.71,.57Zm320.55-212.79c-.76,.47-1.71,.64-2.65,.42-1.88-.45-3.04-2.34-2.59-4.22l.12-.49c.45-1.88,2.34-3.04,4.22-2.59,1.88,.45,3.04,2.34,2.59,4.22l-.12,.49c-.23,.94-.81,1.7-1.57,2.17Zm-336.26,197.88c-1.32,.81-3.07,.67-4.24-.45l-.36-.34c-1.4-1.33-1.46-3.55-.13-4.95,1.33-1.4,3.55-1.46,4.95-.13l.37,.35c1.4,1.33,1.46,3.55,.12,4.95-.22,.23-.45,.42-.71,.57Zm341.31-218.9c-.76,.47-1.71,.64-2.65,.42-1.88-.45-3.04-2.34-2.59-4.22l.12-.49c.45-1.88,2.34-3.04,4.22-2.59,1.88,.45,3.04,2.34,2.59,4.22l-.12,.49c-.23,.94-.81,1.7-1.57,2.17Zm-357.03,203.98c-1.32,.81-3.07,.67-4.24-.45l-.36-.34c-1.4-1.33-1.46-3.55-.13-4.95,1.33-1.4,3.55-1.46,4.95-.13l.37,.35c1.4,1.33,1.46,3.55,.12,4.95-.22,.23-.45,.42-.71,.57Zm362.07-225c-.76,.47-1.71,.64-2.65,.42-1.88-.45-3.04-2.34-2.59-4.22l.12-.49c.45-1.88,2.34-3.04,4.22-2.59,1.88,.45,3.04,2.34,2.59,4.22l-.12,.49c-.23,.94-.81,1.7-1.57,2.17Zm5.05-21.02c-.76,.47-1.71,.64-2.65,.42-1.88-.45-3.04-2.34-2.59-4.22l.12-.49c.45-1.88,2.34-3.04,4.22-2.59,1.88,.45,3.04,2.34,2.59,4.22l-.12,.49c-.23,.94-.81,1.7-1.57,2.17Zm-382.84,231.1c-1.32,.81-3.07,.67-4.24-.45l-.36-.34c-1.4-1.33-1.46-3.55-.13-4.95,1.33-1.4,3.55-1.46,4.95-.13l.37,.35c1.4,1.33,1.46,3.55,.12,4.95-.22,.23-.45,.42-.71,.57Zm384.81-251.29c-.82,.5-1.84,.67-2.83,.37-1.89-.28-3.21-2.03-2.96-3.93,.26-1.92,2.02-3.26,3.94-3,.36,.05,.72,.13,1.06,.24,1.85,.58,2.88,2.54,2.3,4.38-.26,.84-.81,1.51-1.51,1.94Zm-400.53,236.37c-1.32,.81-3.07,.67-4.24-.45l-.36-.34c-1.4-1.33-1.46-3.55-.13-4.95,1.33-1.4,3.55-1.46,4.95-.13l.37,.35c1.4,1.33,1.46,3.55,.12,4.95-.22,.23-.45,.42-.71,.57Zm358.68-224.5c-.25,.16-.53,.28-.83,.37l-.5,.15c-1.85,.54-3.8-.52-4.34-2.37-.54-1.85,.52-3.8,2.37-4.34l.47-.14c1.85-.55,3.8,.5,4.35,2.36,.46,1.55-.2,3.17-1.52,3.98Zm-20.82,6.17c-.25,.16-.53,.28-.83,.37l-.5,.15c-1.85,.54-3.8-.52-4.34-2.37-.54-1.85,.52-3.8,2.37-4.34l.46-.14c1.85-.55,3.8,.5,4.36,2.35,.47,1.55-.2,3.18-1.52,3.99Zm-20.8,6.16c-.25,.16-.53,.28-.83,.37l-.5,.15c-1.85,.54-3.8-.52-4.34-2.37-.54-1.85,.52-3.8,2.37-4.34l.46-.14c1.85-.55,3.8,.5,4.36,2.35,.47,1.55-.2,3.18-1.52,3.99Zm-20.79,6.16c-.25,.16-.53,.28-.83,.37l-.51,.15c-1.86,.54-3.8-.52-4.34-2.38-.54-1.86,.52-3.8,2.38-4.34l.46-.14c1.85-.55,3.8,.5,4.36,2.35,.47,1.55-.2,3.18-1.52,3.99Zm-311.99,191.09c-1.32,.81-3.07,.67-4.24-.45l-.36-.34c-1.4-1.33-1.46-3.55-.13-4.95,1.33-1.4,3.55-1.46,4.95-.13l.37,.35c1.4,1.33,1.46,3.55,.12,4.95-.22,.23-.45,.42-.71,.57Zm291.2-184.93c-.25,.16-.53,.28-.83,.37l-.51,.15c-1.86,.54-3.8-.52-4.34-2.38-.54-1.86,.52-3.8,2.38-4.34l.46-.14c1.85-.55,3.8,.5,4.36,2.35,.47,1.55-.2,3.18-1.52,3.99Zm-20.78,6.16c-.25,.16-.53,.28-.83,.37l-.51,.15c-1.86,.54-3.8-.52-4.34-2.38s.52-3.8,2.38-4.34l.46-.14c1.85-.55,3.8,.5,4.36,2.35,.47,1.55-.2,3.18-1.52,3.99Zm-20.78,6.15c-.25,.16-.53,.28-.83,.37l-.51,.15c-1.86,.54-3.8-.52-4.34-2.38-.54-1.86,.52-3.8,2.38-4.34l.46-.14c1.85-.55,3.8,.5,4.36,2.35,.47,1.55-.2,3.18-1.52,3.99Zm-265.37,157.69c-1.32,.81-3.07,.67-4.24-.45l-.36-.34c-1.4-1.33-1.46-3.55-.13-4.95,1.33-1.4,3.55-1.46,4.95-.13l.37,.35c1.4,1.33,1.45,3.55,.12,4.95-.21,.23-.45,.42-.71,.57Zm244.59-151.54c-.25,.16-.53,.28-.83,.37l-.51,.15c-1.86,.54-3.8-.52-4.34-2.38-.54-1.86,.52-3.8,2.38-4.34l.46-.14c1.85-.55,3.8,.5,4.36,2.35,.47,1.55-.2,3.18-1.52,3.99Zm-20.78,6.15c-.25,.16-.53,.28-.83,.37l-.51,.15c-1.86,.54-3.8-.52-4.34-2.38-.54-1.86,.52-3.8,2.38-4.34l.46-.14c1.85-.55,3.8,.5,4.36,2.35,.47,1.55-.2,3.18-1.52,3.99Zm-20.77,6.15c-.25,.16-.53,.28-.83,.37l-.5,.15c-1.85,.54-3.8-.52-4.34-2.37-.54-1.85,.52-3.8,2.37-4.34l.46-.14c1.85-.55,3.8,.5,4.36,2.35,.47,1.55-.2,3.18-1.52,3.99Zm-20.79,6.16c-.25,.16-.53,.28-.83,.37l-.51,.15c-1.86,.54-3.8-.53-4.34-2.38-.54-1.86,.52-3.8,2.38-4.34l.46-.14c1.85-.55,3.8,.5,4.36,2.35,.47,1.55-.2,3.18-1.52,3.99Zm-197.99,118.14c-1.32,.81-3.07,.67-4.24-.45l-.36-.34c-1.4-1.33-1.46-3.55-.13-4.95,1.33-1.4,3.55-1.46,4.95-.13l.37,.35c1.4,1.33,1.45,3.55,.12,4.95-.21,.23-.45,.42-.7,.57Zm177.22-111.99c-.25,.16-.53,.28-.83,.37l-.51,.15c-1.86,.54-3.8-.53-4.34-2.38-.54-1.86,.52-3.8,2.38-4.34l.46-.14c1.85-.55,3.8,.5,4.36,2.35,.47,1.55-.2,3.18-1.52,3.99Zm-20.77,6.15c-.25,.16-.53,.28-.83,.37l-.5,.15c-1.86,.54-3.8-.52-4.34-2.37-.54-1.85,.52-3.8,2.37-4.34l.46-.14c1.85-.55,3.8,.5,4.36,2.35,.47,1.55-.2,3.18-1.52,3.99Zm-20.78,6.16c-.25,.16-.53,.28-.83,.37l-.5,.15c-1.86,.54-3.8-.52-4.34-2.38-.54-1.86,.52-3.8,2.38-4.34l.46-.14c1.85-.55,3.8,.5,4.36,2.35,.47,1.55-.2,3.18-1.52,3.99Zm-20.78,6.15c-.25,.16-.53,.28-.83,.37l-.5,.15c-1.86,.54-3.8-.52-4.34-2.38-.54-1.86,.52-3.8,2.38-4.34l.46-.14c1.85-.55,3.8,.5,4.36,2.35,.47,1.55-.2,3.18-1.52,3.99Zm-130.64,78.58c-1.32,.81-3.06,.67-4.24-.45l-.36-.34c-1.4-1.33-1.47-3.54-.14-4.95,1.33-1.41,3.54-1.47,4.95-.14l.37,.35c1.4,1.33,1.46,3.55,.13,4.95-.22,.23-.46,.42-.71,.58Zm109.86-72.43c-.25,.16-.53,.28-.83,.37l-.5,.15c-1.86,.54-3.8-.52-4.34-2.38-.54-1.86,.52-3.8,2.38-4.34l.46-.14c1.85-.55,3.8,.5,4.36,2.35,.47,1.55-.2,3.18-1.52,3.99Zm-20.78,6.16c-.25,.16-.53,.28-.83,.37l-.51,.15c-1.86,.54-3.8-.53-4.34-2.38-.54-1.86,.52-3.8,2.38-4.34l.46-.14c1.85-.55,3.8,.5,4.36,2.35,.47,1.55-.2,3.18-1.52,3.99Zm-20.79,6.16c-.25,.16-.53,.28-.83,.37l-.51,.15c-1.86,.54-3.8-.53-4.34-2.38-.54-1.86,.52-3.8,2.38-4.34l.46-.14c1.85-.55,3.8,.5,4.36,2.35,.47,1.55-.2,3.18-1.52,3.99Zm-84.06,45.15c-1.32,.81-3.07,.67-4.24-.45l-.36-.35c-1.4-1.33-1.46-3.55-.12-4.95,1.33-1.4,3.55-1.46,4.95-.12l.36,.35c1.4,1.33,1.46,3.55,.12,4.95-.22,.23-.45,.42-.71,.57Zm63.26-38.99c-.25,.16-.53,.28-.83,.37l-.5,.15c-1.86,.54-3.8-.52-4.34-2.38-.54-1.86,.52-3.8,2.38-4.34l.46-.14c1.85-.55,3.8,.5,4.36,2.35,.47,1.55-.2,3.18-1.52,3.99Zm-20.8,6.17c-.25,.16-.53,.28-.83,.37l-.51,.15c-1.86,.54-3.8-.53-4.34-2.38-.54-1.85,.53-3.8,2.38-4.34l.46-.14c1.85-.55,3.8,.5,4.36,2.35,.47,1.55-.2,3.18-1.52,3.99Zm-20.82,6.17c-.25,.16-.53,.28-.83,.37l-.51,.15c-1.86,.54-3.8-.53-4.34-2.38-.54-1.86,.53-3.8,2.38-4.34l.46-.14c1.85-.55,3.8,.5,4.36,2.35,.47,1.55-.2,3.18-1.52,3.99Zm-20.84,6.18c-.26,.16-.54,.28-.84,.37l-.48,.14c-1.85,.55-3.8-.51-4.35-2.36-.55-1.85,.51-3.8,2.36-4.35l.49-.15c1.85-.55,3.8,.51,4.35,2.37,.46,1.55-.21,3.17-1.53,3.97Zm-16.64,5.43c-1.32,.81-3.06,.67-4.23-.44l-.32-.3c-.25-.22-.46-.48-.65-.78-1.01-1.65-.49-3.8,1.16-4.81,.85-.52,2.58-1.12,4.54,.73l.07,.07c1.41,1.33,1.47,3.54,.14,4.95-.22,.23-.46,.42-.72,.58Zm473.73-140.83c-.25,.16-.53,.28-.83,.37l-.5,.15c-1.85,.54-3.8-.52-4.34-2.37-.54-1.85,.52-3.8,2.37-4.34l.47-.14c1.85-.55,3.8,.5,4.35,2.36,.46,1.55-.2,3.17-1.52,3.98Z"/><rect class="d" width="1390.41" height="1390.41"/></g></g></g></svg>