<?xml version="1.0" encoding="UTF-8"?><svg xmlns="http://www.w3.org/2000/svg" viewBox="0 0 1390.41 1390.41"><defs><style>.d{fill:none;}</style></defs><g id="a"/><g id="b"><g id="c"><g><rect class="d" width="1390.41" height="1390.41"/><g><path d="M962.82,188.62l-.25,.44c-.96,1.68-3.1,2.25-4.78,1.29-1.68-.96-2.25-3.1-1.29-4.78l.25-.44c.96-1.68,3.1-2.25,4.78-1.29,.84,.48,1.4,1.26,1.63,2.12s.14,1.82-.35,2.66Zm-10.78,18.74l-.25,.44c-.96,1.68-3.1,2.25-4.78,1.29-1.68-.96-2.25-3.1-1.29-4.78l.25-.44c.96-1.68,3.1-2.25,4.78-1.29,.84,.48,1.4,1.26,1.63,2.12,.23,.86,.14,1.82-.35,2.66Zm-9.08-21.05c0,1.93-1.57,3.5-3.51,3.49h-.5c-1.93,0-3.5-1.57-3.5-3.5,0-1.93,1.57-3.5,3.5-3.5h.51c1.61,0,2.97,1.1,3.37,2.59,.08,.29,.12,.6,.12,.92Zm-1.7,39.79l-.25,.44c-.96,1.68-3.1,2.25-4.78,1.29-1.68-.96-2.25-3.1-1.29-4.78l.25-.44c.96-1.68,3.1-2.25,4.78-1.29,.84,.48,1.4,1.26,1.63,2.12s.14,1.82-.35,2.66Zm-20.03-39.79c0,1.93-1.55,3.51-3.48,3.51h-.51c-1.93,0-3.5-1.56-3.51-3.49,0-1.93,1.56-3.5,3.5-3.51h.49c1.62,0,2.99,1.09,3.39,2.59,.08,.29,.12,.59,.12,.9Zm9.25,58.52l-.25,.44c-.96,1.68-3.1,2.25-4.78,1.29-1.68-.96-2.25-3.1-1.29-4.78l.25-.44c.96-1.68,3.1-2.25,4.78-1.29,.84,.48,1.4,1.26,1.63,2.12s.14,1.82-.35,2.66Zm-10.78,18.73l-.25,.44c-.96,1.68-3.1,2.25-4.78,1.29-1.68-.96-2.25-3.1-1.29-4.78l.25-.44c.96-1.68,3.1-2.25,4.78-1.29,.84,.48,1.4,1.26,1.63,2.12s.14,1.82-.35,2.66Zm-20.18-77.21c0,1.93-1.57,3.5-3.5,3.5h-.5c-1.93,0-3.5-1.56-3.51-3.49,0-1.93,1.56-3.5,3.5-3.51h.51c1.62,0,2.98,1.1,3.38,2.59,.08,.29,.12,.6,.12,.91Zm9.4,95.95l-.25,.44c-.96,1.68-3.1,2.25-4.78,1.29-1.68-.96-2.25-3.1-1.29-4.78l.25-.44c.96-1.68,3.1-2.25,4.78-1.29,.84,.48,1.4,1.26,1.63,2.12s.14,1.82-.35,2.66Zm-31.1-95.92c0,1.93-1.57,3.5-3.5,3.5h-.5c-1.93,0-3.5-1.56-3.51-3.49,0-1.93,1.56-3.5,3.5-3.51h.51c1.62,0,2.98,1.1,3.38,2.59,.08,.29,.12,.6,.12,.91Zm20.32,114.65l-.25,.44c-.96,1.68-3.1,2.25-4.78,1.29-1.68-.96-2.25-3.1-1.29-4.78l.25-.44c.96-1.68,3.1-2.25,4.78-1.29,.84,.48,1.4,1.26,1.63,2.12s.14,1.82-.35,2.66Zm-42.01-114.63c0,1.93-1.56,3.5-3.5,3.51h-.5c-1.93,0-3.5-1.56-3.51-3.49,0-1.93,1.56-3.5,3.5-3.51h.5c1.62,0,2.98,1.09,3.38,2.59,.08,.29,.12,.59,.12,.91Zm31.23,133.36l-.25,.44c-.96,1.68-3.1,2.25-4.78,1.29-1.68-.96-2.25-3.1-1.29-4.78l.25-.44c.96-1.68,3.1-2.25,4.78-1.29,.84,.48,1.4,1.26,1.63,2.12s.14,1.82-.35,2.66Zm-10.78,18.73l-.25,.44c-.96,1.68-3.1,2.25-4.78,1.29-1.68-.96-2.25-3.1-1.29-4.78l.25-.44c.96-1.68,3.1-2.25,4.78-1.29,.84,.48,1.4,1.26,1.63,2.12s.14,1.82-.35,2.66Zm-42.13-152.07c0,1.93-1.56,3.5-3.5,3.51h-.5c-1.93,0-3.5-1.57-3.5-3.49,0-1.93,1.56-3.5,3.5-3.51h.5c1.62,0,2.98,1.09,3.38,2.59,.08,.29,.12,.59,.12,.91Zm31.35,170.8l-.25,.44c-.96,1.68-3.1,2.25-4.78,1.29-1.68-.96-2.25-3.1-1.29-4.78l.25-.44c.96-1.68,3.1-2.25,4.78-1.29,.84,.48,1.4,1.26,1.63,2.12s.14,1.82-.35,2.66Zm-53.02-170.76c0,1.93-1.57,3.5-3.5,3.5h-.5c-1.93,0-3.5-1.56-3.51-3.49,0-1.93,1.56-3.5,3.5-3.51h.51c1.62,0,2.98,1.1,3.38,2.59,.08,.29,.12,.6,.12,.91Zm42.24,189.5l-.25,.44c-.96,1.68-3.1,2.25-4.78,1.29-1.68-.96-2.25-3.1-1.29-4.78l.25-.44c.96-1.68,3.1-2.25,4.78-1.29,.84,.48,1.4,1.26,1.63,2.12s.14,1.82-.35,2.66Zm-63.91-189.47c0,1.93-1.57,3.5-3.5,3.5h-.5c-1.93,0-3.5-1.56-3.51-3.49,0-1.93,1.56-3.5,3.5-3.51h.51c1.62,0,2.98,1.1,3.38,2.59,.08,.29,.12,.6,.12,.91Zm53.14,208.2l-.25,.44c-.96,1.68-3.1,2.25-4.78,1.29-1.68-.96-2.25-3.1-1.29-4.78l.25-.44c.96-1.68,3.1-2.25,4.78-1.29,.84,.48,1.4,1.26,1.63,2.12s.14,1.82-.35,2.66Zm-10.78,18.74l-.25,.44c-.96,1.68-3.1,2.25-4.78,1.29-1.68-.96-2.25-3.1-1.29-4.78l.25-.44c.96-1.68,3.1-2.25,4.78-1.29,.84,.48,1.4,1.26,1.63,2.12s.14,1.82-.35,2.66Zm-64.02-226.92c0,1.93-1.56,3.5-3.49,3.51h-.51c-1.93,0-3.5-1.56-3.51-3.49,0-1.93,1.56-3.5,3.5-3.51h.5c1.62,0,2.99,1.09,3.39,2.59,.08,.29,.12,.59,.12,.9Zm53.24,245.65l-.25,.44c-.96,1.68-3.1,2.25-4.78,1.29-1.68-.96-2.25-3.1-1.29-4.78l.25-.44c.96-1.68,3.1-2.25,4.78-1.29,.84,.48,1.4,1.26,1.63,2.12s.14,1.82-.35,2.66Zm-74.91-245.62c0,1.93-1.56,3.5-3.49,3.51h-.51c-1.93,0-3.5-1.56-3.51-3.49,0-1.93,1.56-3.5,3.5-3.51h.5c1.62,0,2.99,1.09,3.39,2.59,.08,.29,.12,.59,.12,.9Zm64.13,264.35l-.25,.44c-.96,1.68-3.1,2.25-4.78,1.29-1.68-.96-2.25-3.1-1.29-4.78l.25-.44c.96-1.68,3.1-2.25,4.78-1.29,.84,.48,1.4,1.26,1.63,2.12s.14,1.82-.35,2.66Zm-85.8-264.32c0,1.93-1.56,3.5-3.49,3.51h-.51c-1.93,0-3.5-1.56-3.51-3.49,0-1.93,1.56-3.5,3.5-3.51h.5c1.62,0,2.99,1.09,3.39,2.59,.08,.29,.12,.59,.12,.9Zm75.02,283.05l-.25,.44c-.96,1.68-3.1,2.25-4.78,1.29-1.68-.96-2.25-3.1-1.29-4.78l.25-.44c.96-1.68,3.1-2.25,4.78-1.29,.84,.48,1.4,1.26,1.63,2.12s.14,1.82-.35,2.66Zm-10.78,18.73l-.25,.44c-.96,1.68-3.1,2.25-4.78,1.29-1.68-.96-2.25-3.1-1.29-4.78l.25-.44c.96-1.68,3.1-2.25,4.78-1.29,.84,.48,1.4,1.26,1.63,2.12s.14,1.82-.35,2.66Zm-85.9-301.76c0,1.93-1.56,3.5-3.49,3.51h-.51c-1.93,0-3.5-1.56-3.51-3.49,0-1.93,1.56-3.5,3.5-3.51h.5c1.62,0,2.99,1.09,3.39,2.59,.08,.29,.12,.59,.12,.9Zm75.13,320.49l-.25,.44c-.96,1.68-3.1,2.25-4.78,1.29-1.68-.96-2.25-3.1-1.29-4.78l.25-.44c.96-1.68,3.1-2.25,4.78-1.29,.84,.48,1.4,1.26,1.63,2.12s.14,1.82-.35,2.66Zm-96.8-320.45c0,1.93-1.56,3.5-3.5,3.51h-.5c-1.93,0-3.5-1.56-3.51-3.49,0-1.93,1.56-3.5,3.5-3.51h.5c1.62,0,2.98,1.09,3.38,2.59,.08,.29,.12,.59,.12,.91Zm86.02,339.19l-.25,.44c-.96,1.68-3.1,2.25-4.78,1.29-1.68-.96-2.25-3.1-1.29-4.78l.25-.44c.96-1.68,3.1-2.25,4.78-1.29,.84,.48,1.4,1.26,1.63,2.12s.14,1.82-.35,2.66Zm-10.78,18.73l-.25,.44c-.96,1.68-3.1,2.26-4.78,1.29-1.68-.96-2.25-3.1-1.29-4.78l.25-.44c.96-1.68,3.1-2.26,4.78-1.29,.84,.48,1.4,1.26,1.64,2.13s.14,1.82-.34,2.65Zm-96.91-357.89c0,1.93-1.56,3.5-3.49,3.51h-.51c-1.93,0-3.5-1.56-3.51-3.49,0-1.93,1.56-3.5,3.5-3.51h.5c1.62,0,2.99,1.09,3.39,2.59,.08,.29,.12,.59,.12,.9Zm86.13,376.63l-.25,.44c-.96,1.68-3.1,2.25-4.78,1.29-1.68-.96-2.25-3.1-1.29-4.78l.25-.44c.96-1.68,3.1-2.25,4.78-1.29,.84,.48,1.4,1.26,1.63,2.12s.14,1.82-.35,2.66Zm-107.8-376.6c0,1.93-1.56,3.5-3.49,3.51h-.51c-1.93,0-3.5-1.56-3.51-3.49,0-1.93,1.56-3.5,3.5-3.51h.5c1.62,0,2.99,1.09,3.39,2.59,.08,.29,.12,.59,.12,.9Zm97.02,395.33l-.25,.44c-.96,1.68-3.1,2.25-4.78,1.29-1.68-.96-2.25-3.1-1.29-4.78l.25-.44c.96-1.68,3.1-2.25,4.78-1.29,.84,.48,1.4,1.26,1.63,2.12s.14,1.82-.35,2.66Zm-118.69-395.3c0,1.93-1.56,3.5-3.49,3.51h-.51c-1.93,0-3.5-1.56-3.51-3.49,0-1.93,1.56-3.5,3.5-3.51h.5c1.62,0,2.99,1.09,3.39,2.59,.08,.29,.12,.59,.12,.9Zm107.91,414.03l-.25,.44c-.96,1.68-3.1,2.25-4.78,1.29-1.68-.96-2.25-3.1-1.29-4.78l.25-.44c.96-1.68,3.1-2.25,4.78-1.29,.84,.48,1.4,1.26,1.63,2.12s.14,1.82-.35,2.66Zm-10.78,18.74l-.25,.44c-.96,1.68-3.1,2.25-4.78,1.29-1.68-.96-2.25-3.1-1.29-4.78l.25-.44c.96-1.68,3.1-2.25,4.78-1.29,.84,.48,1.4,1.26,1.63,2.12,.23,.86,.14,1.82-.35,2.66Zm-118.8-432.73c0,1.93-1.56,3.5-3.49,3.51h-.51c-1.93,0-3.5-1.57-3.51-3.49,0-1.93,1.56-3.5,3.5-3.51h.5c1.62,0,2.99,1.09,3.39,2.59,.08,.29,.12,.59,.12,.9Zm106.46,448.55c-.85,1.74-2.95,2.45-4.68,1.6-.33-.16-.64-.35-.94-.56-1.57-1.13-1.93-3.32-.8-4.88,1.12-1.56,3.28-1.92,4.85-.82,.92,.46,1.55,1.29,1.8,2.22,.21,.79,.15,1.66-.24,2.45Zm-128.14-448.52c0,1.93-1.56,3.5-3.49,3.51h-.51c-1.93,0-3.5-1.56-3.51-3.49,0-1.93,1.56-3.5,3.5-3.51h.5c1.62,0,2.99,1.09,3.39,2.59,.08,.29,.12,.59,.12,.9Zm104.51,412.62c-1.67,.97-3.81,.39-4.78-1.28l-.24-.42c-.97-1.67-.41-3.81,1.26-4.79,1.67-.97,3.81-.41,4.79,1.26l.26,.45c.16,.27,.27,.55,.35,.84,.4,1.49-.23,3.13-1.63,3.94Zm-10.89-18.78c-1.67,.97-3.81,.39-4.78-1.29l-.24-.42c-.98-1.67-.41-3.81,1.26-4.79,1.67-.97,3.81-.41,4.79,1.26l.26,.45c.16,.27,.27,.55,.35,.84,.4,1.5-.23,3.13-1.63,3.94Zm-10.88-18.77c-1.67,.97-3.81,.39-4.78-1.29l-.24-.42c-.97-1.67-.41-3.81,1.26-4.79,1.67-.97,3.81-.41,4.79,1.26l.26,.45c.16,.27,.27,.55,.35,.84,.4,1.5-.23,3.13-1.63,3.94Zm-10.87-18.76c-1.67,.97-3.81,.39-4.78-1.29l-.24-.41c-.98-1.67-.42-3.81,1.25-4.79,1.67-.98,3.81-.42,4.79,1.25l.26,.46c.16,.27,.27,.55,.35,.84,.4,1.5-.23,3.13-1.63,3.94Zm-93.55-356.27c0,1.93-1.56,3.5-3.49,3.51h-.51c-1.93,0-3.5-1.56-3.51-3.49,0-1.93,1.56-3.5,3.5-3.51h.5c1.62,0,2.99,1.09,3.39,2.59,.08,.29,.12,.59,.12,.9Zm82.68,337.51c-1.67,.97-3.81,.39-4.78-1.29l-.24-.41c-.98-1.67-.42-3.81,1.25-4.79,1.67-.98,3.81-.42,4.79,1.25l.26,.46c.16,.27,.27,.55,.35,.84,.4,1.5-.23,3.13-1.63,3.94Zm-10.87-18.75c-1.67,.97-3.81,.39-4.78-1.29l-.24-.41c-.98-1.67-.42-3.81,1.25-4.79s3.81-.42,4.79,1.25l.26,.46c.16,.27,.27,.55,.35,.84,.4,1.5-.23,3.13-1.63,3.94Zm-10.87-18.75c-1.67,.97-3.81,.39-4.78-1.29l-.24-.41c-.98-1.67-.42-3.81,1.25-4.79,1.67-.98,3.81-.42,4.79,1.25l.26,.46c.16,.27,.27,.55,.35,.84,.4,1.5-.23,3.13-1.63,3.94Zm-82.63-299.97c0,1.93-1.55,3.51-3.48,3.51h-.51c-1.93,0-3.5-1.56-3.5-3.49,0-1.93,1.56-3.5,3.5-3.51h.49c1.62,0,2.99,1.09,3.39,2.59,.08,.29,.12,.59,.12,.9Zm71.77,281.22c-1.67,.97-3.81,.39-4.78-1.29l-.24-.41c-.98-1.67-.42-3.81,1.25-4.79s3.81-.42,4.79,1.25l.26,.46c.16,.27,.27,.55,.35,.84,.4,1.5-.23,3.13-1.63,3.94Zm-10.86-18.75c-1.67,.97-3.81,.39-4.78-1.29l-.24-.41c-.98-1.67-.42-3.81,1.25-4.79,1.67-.98,3.81-.42,4.79,1.25l.26,.46c.16,.27,.27,.55,.35,.84,.4,1.5-.23,3.13-1.63,3.94Zm-10.86-18.75c-1.67,.97-3.81,.39-4.78-1.29l-.24-.42c-.97-1.67-.41-3.81,1.26-4.79,1.67-.97,3.81-.41,4.79,1.26l.26,.45c.16,.27,.27,.55,.35,.84,.4,1.5-.23,3.13-1.63,3.94Zm-10.87-18.76c-1.67,.97-3.81,.39-4.78-1.29l-.24-.41c-.98-1.67-.42-3.81,1.25-4.79,1.67-.98,3.81-.42,4.79,1.25l.26,.46c.16,.27,.27,.55,.35,.84,.4,1.5-.23,3.13-1.63,3.94Zm-60.87-224.94c0,1.93-1.55,3.51-3.48,3.51h-.51c-1.93,0-3.5-1.56-3.5-3.49,0-1.93,1.56-3.5,3.5-3.51h.49c1.62,0,2.99,1.09,3.39,2.59,.08,.29,.12,.59,.12,.9Zm50.01,206.19c-1.67,.97-3.81,.39-4.78-1.29l-.24-.41c-.98-1.67-.42-3.81,1.25-4.79,1.67-.98,3.81-.42,4.79,1.25l.26,.46c.16,.27,.27,.55,.35,.84,.4,1.5-.23,3.13-1.63,3.94Zm-10.86-18.75c-1.67,.96-3.81,.39-4.78-1.29l-.24-.42c-.97-1.67-.41-3.81,1.26-4.79,1.67-.97,3.81-.41,4.79,1.26l.26,.45c.16,.27,.27,.55,.35,.84,.4,1.5-.23,3.13-1.63,3.94Zm-10.86-18.75c-1.67,.96-3.81,.39-4.78-1.29l-.24-.42c-.98-1.67-.41-3.81,1.26-4.79,1.67-.98,3.81-.41,4.79,1.26l.26,.45c.16,.27,.27,.55,.35,.84,.4,1.5-.23,3.13-1.63,3.94Zm-10.86-18.75c-1.67,.96-3.81,.39-4.78-1.29l-.24-.42c-.98-1.67-.41-3.81,1.26-4.79,1.67-.98,3.81-.41,4.79,1.26l.26,.45c.16,.27,.27,.55,.35,.84,.4,1.5-.23,3.13-1.63,3.94Zm-39.13-149.9c0,1.93-1.56,3.5-3.5,3.51h-.51c-1.93,0-3.5-1.56-3.5-3.5,0-1.93,1.57-3.5,3.5-3.5h.5c1.62,0,2.98,1.09,3.38,2.59,.08,.29,.12,.59,.12,.91Zm28.27,131.15c-1.67,.96-3.81,.39-4.78-1.29l-.24-.42c-.98-1.67-.41-3.81,1.26-4.79,1.67-.98,3.81-.41,4.79,1.26l.26,.45c.16,.27,.27,.55,.35,.84,.4,1.5-.23,3.13-1.63,3.94Zm-10.86-18.76c-1.67,.96-3.81,.39-4.78-1.29l-.24-.41c-.98-1.67-.41-3.81,1.25-4.79,1.67-.98,3.81-.42,4.79,1.25l.26,.46c.16,.27,.27,.55,.35,.84,.4,1.5-.23,3.13-1.63,3.94Zm-10.87-18.76c-1.67,.96-3.81,.39-4.78-1.29l-.24-.41c-.98-1.67-.41-3.81,1.25-4.79,1.67-.98,3.81-.42,4.79,1.25l.26,.46c.16,.27,.27,.55,.35,.84,.4,1.5-.23,3.13-1.63,3.94Zm-28.27-93.6c0,1.93-1.56,3.5-3.49,3.51h-.5c-1.93,0-3.5-1.56-3.51-3.49,0-1.93,1.56-3.5,3.49-3.51h.5c1.62,0,2.99,1.09,3.39,2.59,.08,.29,.12,.59,.12,.9Zm17.4,74.84c-1.67,.96-3.81,.39-4.78-1.29l-.24-.42c-.98-1.67-.41-3.81,1.26-4.79,1.67-.98,3.81-.41,4.79,1.26l.26,.45c.16,.27,.27,.55,.35,.84,.4,1.5-.23,3.13-1.63,3.94Zm-10.87-18.78c-1.67,.96-3.81,.39-4.78-1.29l-.24-.41c-.97-1.67-.41-3.81,1.25-4.79,1.67-.98,3.81-.42,4.79,1.25l.26,.46c.16,.27,.27,.55,.35,.84,.4,1.5-.23,3.13-1.63,3.94Zm-10.88-18.79c-1.67,.96-3.81,.39-4.78-1.29l-.24-.41c-.98-1.67-.42-3.81,1.25-4.79,1.67-.98,3.81-.42,4.79,1.25l.26,.46c.16,.27,.27,.55,.35,.84,.4,1.5-.23,3.13-1.63,3.94Zm-10.88-18.82c-1.67,.97-3.81,.4-4.78-1.27l-.25-.44c-.97-1.67-.4-3.81,1.28-4.78,1.67-.97,3.81-.4,4.78,1.28l.25,.43c.16,.27,.28,.56,.35,.85,.4,1.49-.22,3.12-1.62,3.94Zm-6.61-18.4c0,1.93-1.57,3.5-3.5,3.5h-.1c-2.7,0-3.54-1.62-3.8-2.59-.5-1.87,.6-3.79,2.47-4.29,.34-.09,.67-.13,1-.12h.44c1.62,0,2.98,1.1,3.38,2.59,.08,.29,.12,.6,.12,.92Zm245.58,430.91c-1.67,.97-3.81,.39-4.78-1.28l-.24-.42c-.97-1.67-.41-3.81,1.26-4.79,1.67-.97,3.81-.41,4.79,1.26l.26,.45c.16,.27,.27,.55,.35,.84,.4,1.49-.23,3.13-1.63,3.94Z"/><g><path d="M106.35,1201.78l.25-.44c.96-1.68,3.1-2.25,4.78-1.29,1.68,.96,2.25,3.1,1.29,4.78l-.25,.44c-.96,1.68-3.1,2.25-4.78,1.29-.84-.48-1.4-1.26-1.63-2.12s-.14-1.82,.35-2.66Zm10.78-18.74l.25-.44c.96-1.68,3.1-2.25,4.78-1.29,1.68,.96,2.25,3.1,1.29,4.78l-.25,.44c-.96,1.68-3.1,2.25-4.78,1.29-.84-.48-1.4-1.26-1.63-2.12-.23-.86-.14-1.82,.35-2.66Zm9.08,21.05c0-1.93,1.57-3.5,3.51-3.49h.5c1.93,0,3.5,1.57,3.5,3.5,0,1.93-1.57,3.5-3.5,3.5h-.51c-1.61,0-2.97-1.1-3.37-2.59-.08-.29-.12-.6-.12-.92Zm1.7-39.79l.25-.44c.96-1.68,3.1-2.25,4.78-1.29,1.68,.96,2.25,3.1,1.29,4.78l-.25,.44c-.96,1.68-3.1,2.25-4.78,1.29-.84-.48-1.4-1.26-1.63-2.12s-.14-1.82,.35-2.66Zm20.03,39.79c0-1.93,1.55-3.51,3.48-3.51h.51c1.93,0,3.5,1.56,3.51,3.49,0,1.93-1.56,3.5-3.5,3.51h-.49c-1.62,0-2.99-1.09-3.39-2.59-.08-.29-.12-.59-.12-.9Zm-9.25-58.52l.25-.44c.96-1.68,3.1-2.25,4.78-1.29,1.68,.96,2.25,3.1,1.29,4.78l-.25,.44c-.96,1.68-3.1,2.25-4.78,1.29-.84-.48-1.4-1.26-1.63-2.12s-.14-1.82,.35-2.66Zm10.78-18.73l.25-.44c.96-1.68,3.1-2.25,4.78-1.29,1.68,.96,2.25,3.1,1.29,4.78l-.25,.44c-.96,1.68-3.1,2.25-4.78,1.29-.84-.48-1.4-1.26-1.63-2.12s-.14-1.82,.35-2.66Zm20.18,77.21c0-1.93,1.57-3.5,3.5-3.5h.5c1.93,0,3.5,1.56,3.51,3.49,0,1.93-1.56,3.5-3.5,3.51h-.51c-1.62,0-2.98-1.1-3.38-2.59-.08-.29-.12-.6-.12-.91Zm-9.4-95.95l.25-.44c.96-1.68,3.1-2.25,4.78-1.29,1.68,.96,2.25,3.1,1.29,4.78l-.25,.44c-.96,1.68-3.1,2.25-4.78,1.29-.84-.48-1.4-1.26-1.63-2.12s-.14-1.82,.35-2.66Zm31.1,95.92c0-1.93,1.57-3.5,3.5-3.5h.5c1.93,0,3.5,1.56,3.51,3.49,0,1.93-1.56,3.5-3.5,3.51h-.51c-1.62,0-2.98-1.1-3.38-2.59-.08-.29-.12-.6-.12-.91Zm-20.32-114.65l.25-.44c.96-1.68,3.1-2.25,4.78-1.29,1.68,.96,2.25,3.1,1.29,4.78l-.25,.44c-.96,1.68-3.1,2.25-4.78,1.29-.84-.48-1.4-1.26-1.63-2.12s-.14-1.82,.35-2.66Zm42.01,114.63c0-1.93,1.56-3.5,3.5-3.51h.5c1.93,0,3.5,1.56,3.51,3.49,0,1.93-1.56,3.5-3.5,3.51h-.5c-1.62,0-2.98-1.09-3.38-2.59-.08-.29-.12-.59-.12-.91Zm-31.23-133.36l.25-.44c.96-1.68,3.1-2.25,4.78-1.29,1.68,.96,2.25,3.1,1.29,4.78l-.25,.44c-.96,1.68-3.1,2.25-4.78,1.29-.84-.48-1.4-1.26-1.63-2.12-.23-.86-.14-1.82,.35-2.66Zm10.78-18.73l.25-.44c.96-1.68,3.1-2.25,4.78-1.29,1.68,.96,2.25,3.1,1.29,4.78l-.25,.44c-.96,1.68-3.1,2.25-4.78,1.29-.84-.48-1.4-1.26-1.63-2.12s-.14-1.82,.35-2.66Zm42.13,152.07c0-1.93,1.56-3.5,3.5-3.51h.5c1.93,0,3.5,1.57,3.5,3.49,0,1.93-1.56,3.5-3.5,3.51h-.5c-1.62,0-2.98-1.09-3.38-2.59-.08-.29-.12-.59-.12-.91Zm-31.35-170.8l.25-.44c.96-1.68,3.1-2.25,4.78-1.29,1.68,.96,2.25,3.1,1.29,4.78l-.25,.44c-.96,1.68-3.1,2.25-4.78,1.29-.84-.48-1.4-1.26-1.63-2.12s-.14-1.82,.35-2.66Zm53.02,170.76c0-1.93,1.57-3.5,3.5-3.5h.5c1.93,0,3.5,1.56,3.51,3.49,0,1.93-1.56,3.5-3.5,3.51h-.51c-1.62,0-2.98-1.1-3.38-2.59-.08-.29-.12-.6-.12-.91Zm-42.24-189.5l.25-.44c.96-1.68,3.1-2.25,4.78-1.29,1.68,.96,2.25,3.1,1.29,4.78l-.25,.44c-.96,1.68-3.1,2.25-4.78,1.29-.84-.48-1.4-1.26-1.63-2.12s-.14-1.82,.35-2.66Zm63.91,189.47c0-1.93,1.57-3.5,3.5-3.5h.5c1.93,0,3.5,1.56,3.51,3.49,0,1.93-1.56,3.5-3.5,3.51h-.51c-1.62,0-2.98-1.1-3.38-2.59-.08-.29-.12-.6-.12-.91Zm-53.14-208.2l.25-.44c.96-1.68,3.1-2.25,4.78-1.29,1.68,.96,2.25,3.1,1.29,4.78l-.25,.44c-.96,1.68-3.1,2.25-4.78,1.29-.84-.48-1.4-1.26-1.63-2.12s-.14-1.82,.35-2.66Zm10.78-18.74l.25-.44c.96-1.68,3.1-2.25,4.78-1.29,1.68,.96,2.25,3.1,1.29,4.78l-.25,.44c-.96,1.68-3.1,2.25-4.78,1.29-.84-.48-1.4-1.26-1.63-2.12s-.14-1.82,.35-2.66Zm64.02,226.92c0-1.93,1.56-3.5,3.49-3.51h.51c1.93,0,3.5,1.56,3.51,3.49,0,1.93-1.56,3.5-3.5,3.51h-.5c-1.62,0-2.99-1.09-3.39-2.59-.08-.29-.12-.59-.12-.9Zm21.67-.03c0-1.93,1.56-3.5,3.49-3.51h.51c1.93,0,3.5,1.56,3.51,3.49,0,1.93-1.56,3.5-3.5,3.51h-.5c-1.62,0-2.99-1.09-3.39-2.59-.08-.29-.12-.59-.12-.9Zm-64.13-264.35l.25-.44c.96-1.68,3.1-2.25,4.78-1.29,1.68,.96,2.25,3.1,1.29,4.78l-.25,.44c-.96,1.68-3.1,2.25-4.78,1.29-.84-.48-1.4-1.26-1.63-2.12s-.14-1.82,.35-2.66Zm85.8,264.32c0-1.93,1.56-3.5,3.49-3.51h.51c1.93,0,3.5,1.56,3.51,3.49,0,1.93-1.56,3.5-3.5,3.51h-.5c-1.62,0-2.99-1.09-3.39-2.59-.08-.29-.12-.59-.12-.9Zm-75.02-283.05l.25-.44c.96-1.68,3.1-2.25,4.78-1.29,1.68,.96,2.25,3.1,1.29,4.78l-.25,.44c-.96,1.68-3.1,2.25-4.78,1.29-.84-.48-1.4-1.26-1.63-2.12s-.14-1.82,.35-2.66Zm10.78-18.73l.25-.44c.96-1.68,3.1-2.25,4.78-1.29,1.68,.96,2.25,3.1,1.29,4.78l-.25,.44c-.96,1.68-3.1,2.25-4.78,1.29-.84-.48-1.4-1.26-1.63-2.12s-.14-1.82,.35-2.66Zm85.9,301.76c0-1.93,1.56-3.5,3.49-3.51h.51c1.93,0,3.5,1.56,3.51,3.49,0,1.93-1.56,3.5-3.5,3.51h-.5c-1.62,0-2.99-1.09-3.39-2.59-.08-.29-.12-.59-.12-.9Zm-75.13-320.49l.25-.44c.96-1.68,3.1-2.25,4.78-1.29,1.68,.96,2.25,3.1,1.29,4.78l-.25,.44c-.96,1.68-3.1,2.25-4.78,1.29-.84-.48-1.4-1.26-1.63-2.12s-.14-1.82,.35-2.66Zm96.8,320.45c0-1.93,1.56-3.5,3.5-3.51h.5c1.93,0,3.5,1.56,3.51,3.49,0,1.93-1.56,3.5-3.5,3.51h-.5c-1.62,0-2.98-1.09-3.38-2.59-.08-.29-.12-.59-.12-.91Zm-86.02-339.19l.25-.44c.96-1.68,3.1-2.25,4.78-1.29,1.68,.96,2.25,3.1,1.29,4.78l-.25,.44c-.96,1.68-3.1,2.25-4.78,1.29-.84-.48-1.4-1.26-1.63-2.12s-.14-1.82,.35-2.66Zm10.78-18.73l.25-.44c.96-1.68,3.1-2.26,4.78-1.29,1.68,.96,2.25,3.1,1.29,4.78l-.25,.44c-.96,1.68-3.1,2.26-4.78,1.29-.84-.48-1.4-1.26-1.64-2.13s-.14-1.82,.34-2.65Zm96.91,357.89c0-1.93,1.56-3.5,3.49-3.51h.51c1.93,0,3.5,1.56,3.51,3.49,0,1.93-1.56,3.5-3.5,3.51h-.5c-1.62,0-2.99-1.09-3.39-2.59-.08-.29-.12-.59-.12-.9Zm-86.13-376.63l.25-.44c.96-1.68,3.1-2.25,4.78-1.29,1.68,.96,2.25,3.1,1.29,4.78l-.25,.44c-.96,1.68-3.1,2.25-4.78,1.29-.84-.48-1.4-1.26-1.63-2.12s-.14-1.82,.35-2.66Zm107.8,376.6c0-1.93,1.56-3.5,3.49-3.51h.51c1.93,0,3.5,1.56,3.51,3.49,0,1.93-1.56,3.5-3.5,3.51h-.5c-1.62,0-2.99-1.09-3.39-2.59-.08-.29-.12-.59-.12-.9Zm-97.02-395.33l.25-.44c.96-1.68,3.1-2.25,4.78-1.29,1.68,.96,2.25,3.1,1.29,4.78l-.25,.44c-.96,1.68-3.1,2.25-4.78,1.29-.84-.48-1.4-1.26-1.63-2.12s-.14-1.82,.35-2.66Zm118.69,395.3c0-1.93,1.56-3.5,3.49-3.51h.51c1.93,0,3.5,1.56,3.51,3.49,0,1.93-1.56,3.5-3.5,3.51h-.5c-1.62,0-2.99-1.09-3.39-2.59-.08-.29-.12-.59-.12-.9Zm-107.91-414.03l.25-.44c.96-1.68,3.1-2.25,4.78-1.29,1.68,.96,2.25,3.1,1.29,4.78l-.25,.44c-.96,1.68-3.1,2.25-4.78,1.29-.84-.48-1.4-1.26-1.63-2.12-.23-.86-.14-1.82,.35-2.66Zm10.78-18.74l.25-.44c.96-1.68,3.1-2.25,4.78-1.29,1.68,.96,2.25,3.1,1.29,4.78l-.25,.44c-.96,1.68-3.1,2.25-4.78,1.29-.84-.48-1.4-1.26-1.63-2.12s-.14-1.82,.35-2.66Zm118.8,432.73c0-1.93,1.56-3.5,3.49-3.51h.51c1.93,0,3.5,1.57,3.51,3.49,0,1.93-1.56,3.5-3.5,3.51h-.5c-1.62,0-2.99-1.09-3.39-2.59-.08-.29-.12-.59-.12-.9Zm-106.46-448.55c.85-1.74,2.95-2.45,4.68-1.6,.33,.16,.64,.35,.94,.56,1.57,1.13,1.93,3.32,.8,4.88-1.12,1.56-3.28,1.92-4.85,.82-.92-.46-1.55-1.29-1.8-2.22-.21-.79-.15-1.66,.24-2.45Zm128.14,448.52c0-1.93,1.56-3.5,3.49-3.51h.51c1.93,0,3.5,1.56,3.51,3.49,0,1.93-1.56,3.5-3.5,3.51h-.5c-1.62,0-2.99-1.09-3.39-2.59-.08-.29-.12-.59-.12-.9Zm-104.51-412.62c1.67-.97,3.81-.39,4.78,1.28l.24,.42c.97,1.67,.41,3.81-1.26,4.79-1.67,.97-3.81,.41-4.79-1.26l-.26-.45c-.16-.27-.27-.55-.35-.84-.4-1.49,.23-3.13,1.63-3.94Zm10.89,18.78c1.67-.97,3.81-.39,4.78,1.29l.24,.42c.98,1.67,.41,3.81-1.26,4.79-1.67,.97-3.81,.41-4.79-1.26l-.26-.45c-.16-.27-.27-.55-.35-.84-.4-1.5,.23-3.13,1.63-3.94Zm10.88,18.77c1.67-.97,3.81-.39,4.78,1.29l.24,.42c.97,1.67,.41,3.81-1.26,4.79-1.67,.97-3.81,.41-4.79-1.26l-.26-.45c-.16-.27-.27-.55-.35-.84-.4-1.5,.23-3.13,1.63-3.94Zm10.87,18.76c1.67-.97,3.81-.39,4.78,1.29l.24,.41c.98,1.67,.42,3.81-1.25,4.79s-3.81,.42-4.79-1.25l-.26-.46c-.16-.27-.27-.55-.35-.84-.4-1.5,.23-3.13,1.63-3.94Zm93.55,356.27c0-1.93,1.56-3.5,3.49-3.51h.51c1.93,0,3.5,1.56,3.51,3.49,0,1.93-1.56,3.5-3.5,3.51h-.5c-1.62,0-2.99-1.09-3.39-2.59-.08-.29-.12-.59-.12-.9Zm-82.68-337.51c1.67-.97,3.81-.39,4.78,1.29l.24,.41c.98,1.67,.42,3.81-1.25,4.79-1.67,.98-3.81,.42-4.79-1.25l-.26-.46c-.16-.27-.27-.55-.35-.84-.4-1.5,.23-3.13,1.63-3.94Zm10.87,18.75c1.67-.97,3.81-.39,4.78,1.29l.24,.41c.98,1.67,.42,3.81-1.25,4.79s-3.81,.42-4.79-1.25l-.26-.46c-.16-.27-.27-.55-.35-.84-.4-1.5,.23-3.13,1.63-3.94Zm10.87,18.75c1.67-.97,3.81-.39,4.78,1.29l.24,.41c.98,1.67,.42,3.81-1.25,4.79-1.67,.98-3.81,.42-4.79-1.25l-.26-.46c-.16-.27-.27-.55-.35-.84-.4-1.5,.23-3.13,1.63-3.94Zm82.63,299.97c0-1.93,1.55-3.51,3.48-3.51h.51c1.93,0,3.5,1.56,3.5,3.49,0,1.93-1.56,3.5-3.5,3.51h-.49c-1.62,0-2.99-1.09-3.39-2.59-.08-.29-.12-.59-.12-.9Zm-71.77-281.22c1.67-.97,3.81-.39,4.78,1.29l.24,.41c.98,1.67,.42,3.81-1.25,4.79s-3.81,.42-4.79-1.25l-.26-.46c-.16-.27-.27-.55-.35-.84-.4-1.5,.23-3.13,1.63-3.94Zm10.86,18.75c1.67-.97,3.81-.39,4.78,1.29l.24,.41c.98,1.67,.42,3.81-1.25,4.79-1.67,.98-3.81,.42-4.79-1.25l-.26-.46c-.16-.27-.27-.55-.35-.84-.4-1.5,.23-3.13,1.63-3.94Zm21.73,37.51c1.67-.97,3.81-.39,4.78,1.29l.24,.41c.98,1.67,.42,3.81-1.25,4.79-1.67,.98-3.81,.42-4.79-1.25l-.26-.46c-.16-.27-.27-.55-.35-.84-.4-1.5,.23-3.13,1.63-3.94Zm60.87,224.94c0-1.93,1.55-3.51,3.48-3.51h.51c1.93,0,3.5,1.56,3.5,3.49,0,1.93-1.56,3.5-3.5,3.51h-.49c-1.62,0-2.99-1.09-3.39-2.59-.08-.29-.12-.59-.12-.9Zm-50.01-206.19c1.67-.97,3.81-.39,4.78,1.29l.24,.41c.98,1.67,.42,3.81-1.25,4.79-1.67,.98-3.81,.42-4.79-1.25l-.26-.46c-.16-.27-.27-.55-.35-.84-.4-1.5,.23-3.13,1.63-3.94Zm10.86,18.75c1.67-.96,3.81-.39,4.78,1.29l.24,.42c.97,1.67,.41,3.81-1.26,4.79-1.67,.97-3.81,.41-4.79-1.26l-.26-.45c-.16-.27-.27-.55-.35-.84-.4-1.5,.23-3.13,1.63-3.94Zm10.86,18.75c1.67-.96,3.81-.39,4.78,1.29l.24,.42c.98,1.67,.41,3.81-1.26,4.79-1.67,.98-3.81,.41-4.79-1.26l-.26-.45c-.16-.27-.27-.55-.35-.84-.4-1.5,.23-3.13,1.63-3.94Zm10.86,18.75c1.67-.96,3.81-.39,4.78,1.29l.24,.42c.98,1.67,.41,3.81-1.26,4.79-1.67,.98-3.81,.41-4.79-1.26l-.26-.45c-.16-.27-.27-.55-.35-.84-.4-1.5,.23-3.13,1.63-3.94Zm39.13,149.9c0-1.93,1.56-3.5,3.5-3.51h.51c1.93,0,3.5,1.56,3.5,3.5,0,1.93-1.57,3.5-3.5,3.5h-.5c-1.62,0-2.98-1.09-3.38-2.59-.08-.29-.12-.59-.12-.91Zm-28.27-131.15c1.67-.96,3.81-.39,4.78,1.29l.24,.42c.98,1.67,.41,3.81-1.26,4.79-1.67,.98-3.81,.41-4.79-1.26l-.26-.45c-.16-.27-.27-.55-.35-.84-.4-1.5,.23-3.13,1.63-3.94Zm10.86,18.76c1.67-.96,3.81-.39,4.78,1.29l.24,.41c.98,1.67,.41,3.81-1.25,4.79-1.67,.98-3.81,.42-4.79-1.25l-.26-.46c-.16-.27-.27-.55-.35-.84-.4-1.5,.23-3.13,1.63-3.94Zm10.87,18.76c1.67-.96,3.81-.39,4.78,1.29l.24,.41c.98,1.67,.41,3.81-1.25,4.79-1.67,.98-3.81,.42-4.79-1.25l-.26-.46c-.16-.27-.27-.55-.35-.84-.4-1.5,.23-3.13,1.63-3.94Zm28.27,93.6c0-1.93,1.56-3.5,3.49-3.51h.5c1.93,0,3.5,1.56,3.51,3.49,0,1.93-1.56,3.5-3.49,3.51h-.5c-1.62,0-2.99-1.09-3.39-2.59-.08-.29-.12-.59-.12-.9Zm-17.4-74.84c1.67-.96,3.81-.39,4.78,1.29l.24,.42c.98,1.67,.41,3.81-1.26,4.79-1.67,.98-3.81,.41-4.79-1.26l-.26-.45c-.16-.27-.27-.55-.35-.84-.4-1.5,.23-3.13,1.63-3.94Zm10.87,18.78c1.67-.96,3.81-.39,4.78,1.29l.24,.41c.97,1.67,.41,3.81-1.25,4.79-1.67,.98-3.81,.42-4.79-1.25l-.26-.46c-.16-.27-.27-.55-.35-.84-.4-1.5,.23-3.13,1.63-3.94Zm10.88,18.79c1.67-.96,3.81-.39,4.78,1.29l.24,.41c.98,1.67,.42,3.81-1.25,4.79-1.67,.98-3.81,.42-4.79-1.25l-.26-.46c-.16-.27-.27-.55-.35-.84-.4-1.5,.23-3.13,1.63-3.94Zm10.88,18.82c1.67-.97,3.81-.4,4.78,1.27l.25,.44c.97,1.67,.4,3.81-1.28,4.78-1.67,.97-3.81,.4-4.78-1.28l-.25-.43c-.16-.27-.28-.56-.35-.85-.4-1.49,.22-3.12,1.62-3.94Zm6.61,18.4c0-1.93,1.57-3.5,3.5-3.5h.1c2.7,0,3.54,1.62,3.8,2.59,.5,1.87-.6,3.79-2.47,4.29-.34,.09-.67,.13-1,.12h-.44c-1.62,0-2.98-1.1-3.38-2.59-.08-.29-.12-.6-.12-.92Zm-245.58-430.91c1.67-.97,3.81-.39,4.78,1.28l.24,.42c.97,1.67,.41,3.81-1.26,4.79-1.67,.97-3.81,.41-4.79-1.26l-.26-.45c-.16-.27-.27-.55-.35-.84-.4-1.49,.23-3.13,1.63-3.94Z"/><path d="M106.35,962.25l.25-.44c.96-1.68,3.1-2.25,4.78-1.29,1.68,.96,2.25,3.1,1.29,4.78l-.25,.44c-.96,1.68-3.1,2.25-4.78,1.29-.84-.48-1.4-1.26-1.63-2.12s-.14-1.82,.35-2.66Zm10.78-18.74l.25-.44c.96-1.68,3.1-2.25,4.78-1.29,1.68,.96,2.25,3.1,1.29,4.78l-.25,.44c-.96,1.68-3.1,2.25-4.78,1.29-.84-.48-1.4-1.26-1.63-2.12-.23-.86-.14-1.82,.35-2.66Zm9.08,21.05c0-1.93,1.57-3.5,3.51-3.49h.5c1.93,0,3.5,1.57,3.5,3.5,0,1.93-1.57,3.5-3.5,3.5h-.51c-1.61,0-2.97-1.1-3.37-2.59-.08-.29-.12-.6-.12-.92Zm1.7-39.79l.25-.44c.96-1.68,3.1-2.25,4.78-1.29,1.68,.96,2.25,3.1,1.29,4.78l-.25,.44c-.96,1.68-3.1,2.25-4.78,1.29-.84-.48-1.4-1.26-1.63-2.12s-.14-1.82,.35-2.66Zm20.03,39.79c0-1.93,1.55-3.51,3.48-3.51h.51c1.93,0,3.5,1.56,3.51,3.49,0,1.93-1.56,3.5-3.5,3.51h-.49c-1.62,0-2.99-1.09-3.39-2.59-.08-.29-.12-.59-.12-.9Zm-9.25-58.52l.25-.44c.96-1.68,3.1-2.25,4.78-1.29,1.68,.96,2.25,3.1,1.29,4.78l-.25,.44c-.96,1.68-3.1,2.25-4.78,1.29-.84-.48-1.4-1.26-1.63-2.12s-.14-1.82,.35-2.66Zm10.78-18.73l.25-.44c.96-1.68,3.1-2.25,4.78-1.29,1.68,.96,2.25,3.1,1.29,4.78l-.25,.44c-.96,1.68-3.1,2.25-4.78,1.29-.84-.48-1.4-1.26-1.63-2.12s-.14-1.82,.35-2.66Zm20.18,77.21c0-1.93,1.57-3.5,3.5-3.5h.5c1.93,0,3.5,1.56,3.51,3.49,0,1.93-1.56,3.5-3.5,3.51h-.51c-1.62,0-2.98-1.1-3.38-2.59-.08-.29-.12-.6-.12-.91Zm-9.4-95.95l.25-.44c.96-1.68,3.1-2.25,4.78-1.29,1.68,.96,2.25,3.1,1.29,4.78l-.25,.44c-.96,1.68-3.1,2.25-4.78,1.29-.84-.48-1.4-1.26-1.63-2.12s-.14-1.82,.35-2.66Zm31.1,95.92c0-1.93,1.57-3.5,3.5-3.5h.5c1.93,0,3.5,1.56,3.51,3.49,0,1.93-1.56,3.5-3.5,3.51h-.51c-1.62,0-2.98-1.1-3.38-2.59-.08-.29-.12-.6-.12-.91Zm-20.32-114.65l.25-.44c.96-1.68,3.1-2.25,4.78-1.29,1.68,.96,2.25,3.1,1.29,4.78l-.25,.44c-.96,1.68-3.1,2.25-4.78,1.29-.84-.48-1.4-1.26-1.63-2.12s-.14-1.82,.35-2.66Zm42.01,114.63c0-1.93,1.56-3.5,3.5-3.51h.5c1.93,0,3.5,1.56,3.51,3.49,0,1.93-1.56,3.5-3.5,3.51h-.5c-1.62,0-2.98-1.09-3.38-2.59-.08-.29-.12-.59-.12-.91Zm-31.23-133.36l.25-.44c.96-1.68,3.1-2.25,4.78-1.29,1.68,.96,2.25,3.1,1.29,4.78l-.25,.44c-.96,1.68-3.1,2.25-4.78,1.29-.84-.48-1.4-1.26-1.63-2.12s-.14-1.82,.35-2.66Zm10.78-18.73l.25-.44c.96-1.68,3.1-2.25,4.78-1.29,1.68,.96,2.25,3.1,1.29,4.78l-.25,.44c-.96,1.68-3.1,2.25-4.78,1.29-.84-.48-1.4-1.26-1.63-2.12s-.14-1.82,.35-2.66Zm42.13,152.07c0-1.93,1.56-3.5,3.5-3.51h.5c1.93,0,3.5,1.57,3.5,3.49,0,1.93-1.56,3.5-3.5,3.51h-.5c-1.62,0-2.98-1.09-3.38-2.59-.08-.29-.12-.59-.12-.91Zm-31.35-170.8l.25-.44c.96-1.68,3.1-2.25,4.78-1.29,1.68,.96,2.25,3.1,1.29,4.78l-.25,.44c-.96,1.68-3.1,2.25-4.78,1.29-.84-.48-1.4-1.26-1.63-2.12s-.14-1.82,.35-2.66Zm53.02,170.76c0-1.93,1.57-3.5,3.5-3.5h.5c1.93,0,3.5,1.56,3.51,3.49,0,1.93-1.56,3.5-3.5,3.51h-.51c-1.62,0-2.98-1.1-3.38-2.59-.08-.29-.12-.6-.12-.91Zm-42.24-189.5l.25-.44c.96-1.68,3.1-2.25,4.78-1.29,1.68,.96,2.25,3.1,1.29,4.78l-.25,.44c-.96,1.68-3.1,2.25-4.78,1.29-.84-.48-1.4-1.26-1.63-2.12s-.14-1.82,.35-2.66Zm63.91,189.47c0-1.93,1.57-3.5,3.5-3.5h.5c1.93,0,3.5,1.56,3.51,3.49,0,1.93-1.56,3.5-3.5,3.51h-.51c-1.62,0-2.98-1.1-3.38-2.59-.08-.29-.12-.6-.12-.91Zm-53.14-208.2l.25-.44c.96-1.68,3.1-2.25,4.78-1.29,1.68,.96,2.25,3.1,1.29,4.78l-.25,.44c-.96,1.68-3.1,2.25-4.78,1.29-.84-.48-1.4-1.26-1.63-2.12s-.14-1.82,.35-2.66Zm10.78-18.74l.25-.44c.96-1.68,3.1-2.25,4.78-1.29,1.68,.96,2.25,3.1,1.29,4.78l-.25,.44c-.96,1.68-3.1,2.25-4.78,1.29-.84-.48-1.4-1.26-1.63-2.12s-.14-1.82,.35-2.66Zm64.02,226.92c0-1.93,1.56-3.5,3.49-3.51h.51c1.93,0,3.5,1.56,3.51,3.49,0,1.93-1.56,3.5-3.5,3.51h-.5c-1.62,0-2.99-1.09-3.39-2.59-.08-.29-.12-.59-.12-.9Zm21.67-.03c0-1.93,1.56-3.5,3.49-3.51h.51c1.93,0,3.5,1.56,3.51,3.49,0,1.93-1.56,3.5-3.5,3.51h-.5c-1.62,0-2.99-1.09-3.39-2.59-.08-.29-.12-.59-.12-.9Zm-64.13-264.35l.25-.44c.96-1.68,3.1-2.25,4.78-1.29,1.68,.96,2.25,3.1,1.29,4.78l-.25,.44c-.96,1.68-3.1,2.25-4.78,1.29-.84-.48-1.4-1.26-1.63-2.12s-.14-1.82,.35-2.66Zm85.8,264.32c0-1.93,1.56-3.5,3.49-3.51h.51c1.93,0,3.5,1.56,3.51,3.49,0,1.93-1.56,3.5-3.5,3.51h-.5c-1.62,0-2.99-1.09-3.39-2.59-.08-.29-.12-.59-.12-.9Zm-75.02-283.05l.25-.44c.96-1.68,3.1-2.25,4.78-1.29,1.68,.96,2.25,3.1,1.29,4.78l-.25,.44c-.96,1.68-3.1,2.25-4.78,1.29-.84-.48-1.4-1.26-1.63-2.12s-.14-1.82,.35-2.66Zm10.78-18.73l.25-.44c.96-1.68,3.1-2.25,4.78-1.29,1.68,.96,2.25,3.1,1.29,4.78l-.25,.44c-.96,1.68-3.1,2.25-4.78,1.29-.84-.48-1.4-1.26-1.63-2.12s-.14-1.82,.35-2.66Zm85.9,301.76c0-1.93,1.56-3.5,3.49-3.51h.51c1.93,0,3.5,1.56,3.51,3.49,0,1.93-1.56,3.5-3.5,3.51h-.5c-1.62,0-2.99-1.09-3.39-2.59-.08-.29-.12-.59-.12-.9Zm-75.13-320.49l.25-.44c.96-1.68,3.1-2.25,4.78-1.29,1.68,.96,2.25,3.1,1.29,4.78l-.25,.44c-.96,1.68-3.1,2.25-4.78,1.29-.84-.48-1.4-1.26-1.63-2.12s-.14-1.82,.35-2.66Zm96.8,320.45c0-1.93,1.56-3.5,3.5-3.51h.5c1.93,0,3.5,1.56,3.51,3.49,0,1.93-1.56,3.5-3.5,3.51h-.5c-1.62,0-2.98-1.09-3.38-2.59-.08-.29-.12-.59-.12-.91Zm-86.02-339.19l.25-.44c.96-1.68,3.1-2.25,4.78-1.29,1.68,.96,2.25,3.1,1.29,4.78l-.25,.44c-.96,1.68-3.1,2.25-4.78,1.29-.84-.48-1.4-1.26-1.63-2.12s-.14-1.82,.35-2.66Zm10.78-18.73l.25-.44c.96-1.68,3.1-2.26,4.78-1.29,1.68,.96,2.25,3.1,1.29,4.78l-.25,.44c-.96,1.68-3.1,2.26-4.78,1.29-.84-.48-1.4-1.26-1.64-2.13s-.14-1.82,.34-2.65Zm96.91,357.89c0-1.93,1.56-3.5,3.49-3.51h.51c1.93,0,3.5,1.56,3.51,3.49,0,1.93-1.56,3.5-3.5,3.51h-.5c-1.62,0-2.99-1.09-3.39-2.59-.08-.29-.12-.59-.12-.9Zm-86.13-376.63l.25-.44c.96-1.68,3.1-2.25,4.78-1.29,1.68,.96,2.25,3.1,1.29,4.78l-.25,.44c-.96,1.68-3.1,2.25-4.78,1.29-.84-.48-1.4-1.26-1.63-2.12s-.14-1.82,.35-2.66Zm107.8,376.6c0-1.93,1.56-3.5,3.49-3.51h.51c1.93,0,3.5,1.56,3.51,3.49,0,1.93-1.56,3.5-3.5,3.51h-.5c-1.62,0-2.99-1.09-3.39-2.59-.08-.29-.12-.59-.12-.9Zm-97.02-395.33l.25-.44c.96-1.68,3.1-2.25,4.78-1.29,1.68,.96,2.25,3.1,1.29,4.78l-.25,.44c-.96,1.68-3.1,2.25-4.78,1.29-.84-.48-1.4-1.26-1.63-2.12s-.14-1.82,.35-2.66Zm118.69,395.3c0-1.93,1.56-3.5,3.49-3.51h.51c1.93,0,3.5,1.56,3.51,3.49,0,1.93-1.56,3.5-3.5,3.51h-.5c-1.62,0-2.99-1.09-3.39-2.59-.08-.29-.12-.59-.12-.9Zm-107.91-414.03l.25-.44c.96-1.68,3.1-2.25,4.78-1.29,1.68,.96,2.25,3.1,1.29,4.78l-.25,.44c-.96,1.68-3.1,2.25-4.78,1.29-.84-.48-1.4-1.26-1.63-2.12s-.14-1.82,.35-2.66Zm10.78-18.74l.25-.44c.96-1.68,3.1-2.25,4.78-1.29,1.68,.96,2.25,3.1,1.29,4.78l-.25,.44c-.96,1.68-3.1,2.25-4.78,1.29-.84-.48-1.4-1.26-1.63-2.12-.23-.86-.14-1.82,.35-2.66Zm118.8,432.73c0-1.93,1.56-3.5,3.49-3.51h.51c1.93,0,3.5,1.57,3.51,3.49,0,1.93-1.56,3.5-3.5,3.51h-.5c-1.62,0-2.99-1.09-3.39-2.59-.08-.29-.12-.59-.12-.9Zm-106.46-448.55c.85-1.74,2.95-2.45,4.68-1.6,.33,.16,.64,.35,.94,.56,1.57,1.13,1.93,3.32,.8,4.88-1.12,1.56-3.28,1.92-4.85,.82-.92-.46-1.55-1.29-1.8-2.22-.21-.79-.15-1.66,.24-2.45Zm128.14,448.52c0-1.93,1.56-3.5,3.49-3.51h.51c1.93,0,3.5,1.56,3.51,3.49,0,1.93-1.56,3.5-3.5,3.51h-.5c-1.62,0-2.99-1.09-3.39-2.59-.08-.29-.12-.59-.12-.9Zm-104.51-412.62c1.67-.97,3.81-.39,4.78,1.28l.24,.42c.97,1.67,.41,3.81-1.26,4.79-1.67,.97-3.81,.41-4.79-1.26l-.26-.45c-.16-.27-.27-.55-.35-.84-.4-1.49,.23-3.13,1.63-3.94Zm10.89,18.78c1.67-.97,3.81-.39,4.78,1.29l.24,.42c.98,1.67,.41,3.81-1.26,4.79-1.67,.97-3.81,.41-4.79-1.26l-.26-.45c-.16-.27-.27-.55-.35-.84-.4-1.5,.23-3.13,1.63-3.94Zm10.88,18.77c1.67-.97,3.81-.39,4.78,1.29l.24,.42c.97,1.67,.41,3.81-1.26,4.79-1.67,.97-3.81,.41-4.79-1.26l-.26-.45c-.16-.27-.27-.55-.35-.84-.4-1.5,.23-3.13,1.63-3.94Zm10.87,18.76c1.67-.97,3.81-.39,4.78,1.29l.24,.41c.98,1.67,.42,3.81-1.25,4.79-1.67,.98-3.81,.42-4.79-1.25l-.26-.46c-.16-.27-.27-.55-.35-.84-.4-1.5,.23-3.13,1.63-3.94Zm93.55,356.27c0-1.93,1.56-3.5,3.49-3.51h.51c1.93,0,3.5,1.56,3.51,3.49,0,1.93-1.56,3.5-3.5,3.51h-.5c-1.62,0-2.99-1.09-3.39-2.59-.08-.29-.12-.59-.12-.9Zm-82.68-337.51c1.67-.97,3.81-.39,4.78,1.29l.24,.41c.98,1.67,.42,3.81-1.25,4.79-1.67,.98-3.81,.42-4.79-1.25l-.26-.46c-.16-.27-.27-.55-.35-.84-.4-1.5,.23-3.13,1.63-3.94Zm10.87,18.75c1.67-.97,3.81-.39,4.78,1.29l.24,.41c.98,1.67,.42,3.81-1.25,4.79-1.67,.98-3.81,.42-4.79-1.25l-.26-.46c-.16-.27-.27-.55-.35-.84-.4-1.5,.23-3.13,1.63-3.94Zm10.87,18.75c1.67-.97,3.81-.39,4.78,1.29l.24,.41c.98,1.67,.42,3.81-1.25,4.79s-3.81,.42-4.79-1.25l-.26-.46c-.16-.27-.27-.55-.35-.84-.4-1.5,.23-3.13,1.63-3.94Zm82.63,299.97c0-1.93,1.55-3.51,3.48-3.51h.51c1.93,0,3.5,1.56,3.5,3.49,0,1.93-1.56,3.5-3.5,3.51h-.49c-1.62,0-2.99-1.09-3.39-2.59-.08-.29-.12-.59-.12-.9Zm-71.77-281.22c1.67-.97,3.81-.39,4.78,1.29l.24,.41c.98,1.67,.42,3.81-1.25,4.79s-3.81,.42-4.79-1.25l-.26-.46c-.16-.27-.27-.55-.35-.84-.4-1.5,.23-3.13,1.63-3.94Zm10.86,18.75c1.67-.97,3.81-.39,4.78,1.29l.24,.41c.98,1.67,.42,3.81-1.25,4.79-1.67,.98-3.81,.42-4.79-1.25l-.26-.46c-.16-.27-.27-.55-.35-.84-.4-1.5,.23-3.13,1.63-3.94Zm21.73,37.51c1.67-.97,3.81-.39,4.78,1.29l.24,.41c.98,1.67,.42,3.81-1.25,4.79-1.67,.98-3.81,.42-4.79-1.25l-.26-.46c-.16-.27-.27-.55-.35-.84-.4-1.5,.23-3.13,1.63-3.94Zm60.87,224.94c0-1.93,1.55-3.51,3.48-3.51h.51c1.93,0,3.5,1.56,3.5,3.49,0,1.93-1.56,3.5-3.5,3.51h-.49c-1.62,0-2.99-1.09-3.39-2.59-.08-.29-.12-.59-.12-.9Zm-50.01-206.19c1.67-.97,3.81-.39,4.78,1.29l.24,.41c.98,1.67,.42,3.81-1.25,4.79-1.67,.98-3.81,.42-4.79-1.25l-.26-.46c-.16-.27-.27-.55-.35-.84-.4-1.5,.23-3.13,1.63-3.94Zm10.86,18.75c1.67-.96,3.81-.39,4.78,1.29l.24,.42c.97,1.67,.41,3.81-1.26,4.79-1.67,.97-3.81,.41-4.79-1.26l-.26-.45c-.16-.27-.27-.55-.35-.84-.4-1.5,.23-3.13,1.63-3.94Zm10.86,18.75c1.67-.96,3.81-.39,4.78,1.29l.24,.42c.98,1.67,.41,3.81-1.26,4.79-1.67,.98-3.81,.41-4.79-1.26l-.26-.45c-.16-.27-.27-.55-.35-.84-.4-1.5,.23-3.13,1.63-3.94Zm10.86,18.75c1.67-.96,3.81-.39,4.78,1.29l.24,.42c.98,1.67,.41,3.81-1.26,4.79-1.67,.98-3.81,.41-4.79-1.26l-.26-.45c-.16-.27-.27-.55-.35-.84-.4-1.5,.23-3.13,1.63-3.94Zm39.13,149.9c0-1.93,1.56-3.5,3.5-3.51h.51c1.93,0,3.5,1.56,3.5,3.5,0,1.93-1.57,3.5-3.5,3.5h-.5c-1.62,0-2.98-1.09-3.38-2.59-.08-.29-.12-.59-.12-.91Zm-28.27-131.15c1.67-.96,3.81-.39,4.78,1.29l.24,.42c.98,1.67,.41,3.81-1.26,4.79-1.67,.98-3.81,.41-4.79-1.26l-.26-.45c-.16-.27-.27-.55-.35-.84-.4-1.5,.23-3.13,1.63-3.94Zm10.86,18.76c1.67-.96,3.81-.39,4.78,1.29l.24,.41c.98,1.67,.41,3.81-1.25,4.79-1.67,.98-3.81,.42-4.79-1.25l-.26-.46c-.16-.27-.27-.55-.35-.84-.4-1.5,.23-3.13,1.63-3.94Zm10.87,18.76c1.67-.96,3.81-.39,4.78,1.29l.24,.41c.98,1.67,.41,3.81-1.25,4.79-1.67,.98-3.81,.42-4.79-1.25l-.26-.46c-.16-.27-.27-.55-.35-.84-.4-1.5,.23-3.13,1.63-3.94Zm28.27,93.6c0-1.93,1.56-3.5,3.49-3.51h.5c1.93,0,3.5,1.56,3.51,3.49,0,1.93-1.56,3.5-3.49,3.51h-.5c-1.62,0-2.99-1.09-3.39-2.59-.08-.29-.12-.59-.12-.9Zm-17.4-74.84c1.67-.96,3.81-.39,4.78,1.29l.24,.42c.98,1.67,.41,3.81-1.26,4.79-1.67,.98-3.81,.41-4.79-1.26l-.26-.45c-.16-.27-.27-.55-.35-.84-.4-1.5,.23-3.13,1.63-3.94Zm10.87,18.78c1.67-.96,3.81-.39,4.78,1.29l.24,.41c.97,1.67,.41,3.81-1.25,4.79-1.67,.98-3.81,.42-4.79-1.25l-.26-.46c-.16-.27-.27-.55-.35-.84-.4-1.5,.23-3.13,1.63-3.94Zm10.88,18.79c1.67-.96,3.81-.39,4.78,1.29l.24,.41c.98,1.67,.42,3.81-1.25,4.79-1.67,.98-3.81,.42-4.79-1.25l-.26-.46c-.16-.27-.27-.55-.35-.84-.4-1.5,.23-3.13,1.63-3.94Zm10.88,18.82c1.67-.97,3.81-.4,4.78,1.27l.25,.44c.97,1.67,.4,3.81-1.28,4.78-1.67,.97-3.81,.4-4.78-1.28l-.25-.43c-.16-.27-.28-.56-.35-.85-.4-1.49,.22-3.12,1.62-3.94Zm6.61,18.4c0-1.93,1.57-3.5,3.5-3.5h.1c2.7,0,3.54,1.62,3.8,2.59,.5,1.87-.6,3.79-2.47,4.29-.34,.09-.67,.13-1,.12h-.44c-1.62,0-2.98-1.1-3.38-2.59-.08-.29-.12-.6-.12-.92Zm-245.58-430.91c1.67-.97,3.81-.39,4.78,1.28l.24,.42c.97,1.67,.41,3.81-1.26,4.79-1.67,.97-3.81,.41-4.79-1.26l-.26-.45c-.16-.27-.27-.55-.35-.84-.4-1.49,.23-3.13,1.63-3.94Z"/><path d="M106.35,722.72l.25-.44c.96-1.68,3.1-2.25,4.78-1.29,1.68,.96,2.25,3.1,1.29,4.78l-.25,.44c-.96,1.68-3.1,2.25-4.78,1.29-.84-.48-1.4-1.26-1.63-2.12s-.14-1.82,.35-2.66Zm10.78-18.74l.25-.44c.96-1.68,3.1-2.25,4.78-1.29,1.68,.96,2.25,3.1,1.29,4.78l-.25,.44c-.96,1.68-3.1,2.25-4.78,1.29-.84-.48-1.4-1.26-1.63-2.12-.23-.86-.14-1.82,.35-2.66Zm9.08,21.05c0-1.93,1.57-3.5,3.51-3.49h.5c1.93,0,3.5,1.57,3.5,3.5,0,1.93-1.57,3.5-3.5,3.5h-.51c-1.61,0-2.97-1.1-3.37-2.59-.08-.29-.12-.6-.12-.92Zm1.7-39.79l.25-.44c.96-1.68,3.1-2.25,4.78-1.29,1.68,.96,2.25,3.1,1.29,4.78l-.25,.44c-.96,1.68-3.1,2.25-4.78,1.29-.84-.48-1.4-1.26-1.63-2.12s-.14-1.82,.35-2.66Zm20.03,39.79c0-1.93,1.55-3.51,3.48-3.51h.51c1.93,0,3.5,1.56,3.51,3.49,0,1.93-1.56,3.5-3.5,3.51h-.49c-1.62,0-2.99-1.09-3.39-2.59-.08-.29-.12-.59-.12-.9Zm-9.25-58.52l.25-.44c.96-1.68,3.1-2.25,4.78-1.29,1.68,.96,2.25,3.1,1.29,4.78l-.25,.44c-.96,1.68-3.1,2.25-4.78,1.29-.84-.48-1.4-1.26-1.63-2.12s-.14-1.82,.35-2.66Zm10.78-18.73l.25-.44c.96-1.68,3.1-2.25,4.78-1.29,1.68,.96,2.25,3.1,1.29,4.78l-.25,.44c-.96,1.68-3.1,2.25-4.78,1.29-.84-.48-1.4-1.26-1.63-2.12s-.14-1.82,.35-2.66Zm20.18,77.21c0-1.93,1.57-3.5,3.5-3.5h.5c1.93,0,3.5,1.56,3.51,3.49,0,1.93-1.56,3.5-3.5,3.51h-.51c-1.62,0-2.98-1.1-3.38-2.59-.08-.29-.12-.6-.12-.91Zm-9.4-95.95l.25-.44c.96-1.68,3.1-2.25,4.78-1.29,1.68,.96,2.25,3.1,1.29,4.78l-.25,.44c-.96,1.68-3.1,2.25-4.78,1.29-.84-.48-1.4-1.26-1.63-2.12s-.14-1.82,.35-2.66Zm31.1,95.92c0-1.93,1.57-3.5,3.5-3.5h.5c1.93,0,3.5,1.56,3.51,3.49,0,1.93-1.56,3.5-3.5,3.51h-.51c-1.62,0-2.98-1.1-3.38-2.59-.08-.29-.12-.6-.12-.91Zm-20.32-114.65l.25-.44c.96-1.68,3.1-2.25,4.78-1.29,1.68,.96,2.25,3.1,1.29,4.78l-.25,.44c-.96,1.68-3.1,2.25-4.78,1.29-.84-.48-1.4-1.26-1.63-2.12s-.14-1.82,.35-2.66Zm42.01,114.63c0-1.93,1.56-3.5,3.5-3.51h.5c1.93,0,3.5,1.56,3.51,3.49,0,1.93-1.56,3.5-3.5,3.51h-.5c-1.62,0-2.98-1.09-3.38-2.59-.08-.29-.12-.59-.12-.91Zm-31.23-133.36l.25-.44c.96-1.68,3.1-2.25,4.78-1.29,1.68,.96,2.25,3.1,1.29,4.78l-.25,.44c-.96,1.68-3.1,2.25-4.78,1.29-.84-.48-1.4-1.26-1.63-2.12-.23-.86-.14-1.82,.35-2.66Zm10.78-18.73l.25-.44c.96-1.68,3.1-2.25,4.78-1.29,1.68,.96,2.25,3.1,1.29,4.78l-.25,.44c-.96,1.68-3.1,2.25-4.78,1.29-.84-.48-1.4-1.26-1.63-2.12s-.14-1.82,.35-2.66Zm42.13,152.07c0-1.93,1.56-3.5,3.5-3.51h.5c1.93,0,3.5,1.57,3.5,3.49,0,1.93-1.56,3.5-3.5,3.51h-.5c-1.62,0-2.98-1.09-3.38-2.59-.08-.29-.12-.59-.12-.91Zm-31.35-170.8l.25-.44c.96-1.68,3.1-2.25,4.78-1.29,1.68,.96,2.25,3.1,1.29,4.78l-.25,.44c-.96,1.68-3.1,2.25-4.78,1.29-.84-.48-1.4-1.26-1.63-2.12s-.14-1.82,.35-2.66Zm53.02,170.76c0-1.93,1.57-3.5,3.5-3.5h.5c1.93,0,3.5,1.56,3.51,3.49,0,1.93-1.56,3.5-3.5,3.51h-.51c-1.62,0-2.98-1.1-3.38-2.59-.08-.29-.12-.6-.12-.91Zm-42.24-189.5l.25-.44c.96-1.68,3.1-2.25,4.78-1.29,1.68,.96,2.25,3.1,1.29,4.78l-.25,.44c-.96,1.68-3.1,2.25-4.78,1.29-.84-.48-1.4-1.26-1.63-2.12s-.14-1.82,.35-2.66Zm63.91,189.47c0-1.93,1.57-3.5,3.5-3.5h.5c1.93,0,3.5,1.56,3.51,3.49,0,1.93-1.56,3.5-3.5,3.51h-.51c-1.62,0-2.98-1.1-3.38-2.59-.08-.29-.12-.6-.12-.91Zm-53.14-208.2l.25-.44c.96-1.68,3.1-2.25,4.78-1.29,1.68,.96,2.25,3.1,1.29,4.78l-.25,.44c-.96,1.68-3.1,2.25-4.78,1.29-.84-.48-1.4-1.26-1.63-2.12s-.14-1.82,.35-2.66Zm10.78-18.74l.25-.44c.96-1.68,3.1-2.25,4.78-1.29,1.68,.96,2.25,3.1,1.29,4.78l-.25,.44c-.96,1.68-3.1,2.25-4.78,1.29-.84-.48-1.4-1.26-1.63-2.12s-.14-1.82,.35-2.66Zm64.02,226.92c0-1.93,1.56-3.5,3.49-3.51h.51c1.93,0,3.5,1.56,3.51,3.49,0,1.93-1.56,3.5-3.5,3.51h-.5c-1.62,0-2.99-1.09-3.39-2.59-.08-.29-.12-.59-.12-.9Zm-53.24-245.65l.25-.44c.96-1.68,3.1-2.25,4.78-1.29,1.68,.96,2.25,3.1,1.29,4.78l-.25,.44c-.96,1.68-3.1,2.25-4.78,1.29-.84-.48-1.4-1.26-1.63-2.12s-.14-1.82,.35-2.66Zm74.91,245.62c0-1.93,1.56-3.5,3.49-3.51h.51c1.93,0,3.5,1.56,3.51,3.49,0,1.93-1.56,3.5-3.5,3.51h-.5c-1.62,0-2.99-1.09-3.39-2.59-.08-.29-.12-.59-.12-.9Zm-64.13-264.35l.25-.44c.96-1.68,3.1-2.25,4.78-1.29,1.68,.96,2.25,3.1,1.29,4.78l-.25,.44c-.96,1.68-3.1,2.25-4.78,1.29-.84-.48-1.4-1.26-1.63-2.12s-.14-1.82,.35-2.66Zm85.8,264.32c0-1.93,1.56-3.5,3.49-3.51h.51c1.93,0,3.5,1.56,3.51,3.49,0,1.93-1.56,3.5-3.5,3.51h-.5c-1.62,0-2.99-1.09-3.39-2.59-.08-.29-.12-.59-.12-.9Zm-75.02-283.05l.25-.44c.96-1.68,3.1-2.25,4.78-1.29,1.68,.96,2.25,3.1,1.29,4.78l-.25,.44c-.96,1.68-3.1,2.25-4.78,1.29-.84-.48-1.4-1.26-1.63-2.12s-.14-1.82,.35-2.66Zm10.78-18.73l.25-.44c.96-1.68,3.1-2.25,4.78-1.29,1.68,.96,2.25,3.1,1.29,4.78l-.25,.44c-.96,1.68-3.1,2.25-4.78,1.29-.84-.48-1.4-1.26-1.63-2.12s-.14-1.82,.35-2.66Zm85.9,301.76c0-1.93,1.56-3.5,3.49-3.51h.51c1.93,0,3.5,1.56,3.51,3.49,0,1.93-1.56,3.5-3.5,3.51h-.5c-1.62,0-2.99-1.09-3.39-2.59-.08-.29-.12-.59-.12-.9Zm-75.13-320.49l.25-.44c.96-1.68,3.1-2.25,4.78-1.29,1.68,.96,2.25,3.1,1.29,4.78l-.25,.44c-.96,1.68-3.1,2.25-4.78,1.29-.84-.48-1.4-1.26-1.63-2.12s-.14-1.82,.35-2.66Zm96.8,320.45c0-1.93,1.56-3.5,3.5-3.51h.5c1.93,0,3.5,1.56,3.51,3.49,0,1.93-1.56,3.5-3.5,3.51h-.5c-1.62,0-2.98-1.09-3.38-2.59-.08-.29-.12-.59-.12-.91Zm-86.02-339.19l.25-.44c.96-1.68,3.1-2.25,4.78-1.29,1.68,.96,2.25,3.1,1.29,4.78l-.25,.44c-.96,1.68-3.1,2.25-4.78,1.29-.84-.48-1.4-1.26-1.63-2.12s-.14-1.82,.35-2.66Zm10.78-18.73l.25-.44c.96-1.68,3.1-2.26,4.78-1.29,1.68,.96,2.25,3.1,1.29,4.78l-.25,.44c-.96,1.68-3.1,2.26-4.78,1.29-.84-.48-1.4-1.26-1.64-2.13s-.14-1.82,.34-2.65Zm96.91,357.89c0-1.93,1.56-3.5,3.49-3.51h.51c1.93,0,3.5,1.56,3.51,3.49,0,1.93-1.56,3.5-3.5,3.51h-.5c-1.62,0-2.99-1.09-3.39-2.59-.08-.29-.12-.59-.12-.9Zm-86.13-376.63l.25-.44c.96-1.68,3.1-2.25,4.78-1.29,1.68,.96,2.25,3.1,1.29,4.78l-.25,.44c-.96,1.68-3.1,2.25-4.78,1.29-.84-.48-1.4-1.26-1.63-2.12s-.14-1.82,.35-2.66Zm107.8,376.6c0-1.93,1.56-3.5,3.49-3.51h.51c1.93,0,3.5,1.56,3.51,3.49,0,1.93-1.56,3.5-3.5,3.51h-.5c-1.62,0-2.99-1.09-3.39-2.59-.08-.29-.12-.59-.12-.9Zm-97.02-395.33l.25-.44c.96-1.68,3.1-2.25,4.78-1.29,1.68,.96,2.25,3.1,1.29,4.78l-.25,.44c-.96,1.68-3.1,2.25-4.78,1.29-.84-.48-1.4-1.26-1.63-2.12s-.14-1.82,.35-2.66Zm118.69,395.3c0-1.93,1.56-3.5,3.49-3.51h.51c1.93,0,3.5,1.56,3.51,3.49,0,1.93-1.56,3.5-3.5,3.51h-.5c-1.62,0-2.99-1.09-3.39-2.59-.08-.29-.12-.59-.12-.9Zm-107.91-414.03l.25-.44c.96-1.68,3.1-2.25,4.78-1.29,1.68,.96,2.25,3.1,1.29,4.78l-.25,.44c-.96,1.68-3.1,2.25-4.78,1.29-.84-.48-1.4-1.26-1.63-2.12-.23-.86-.14-1.82,.35-2.66Zm10.78-18.74l.25-.44c.96-1.68,3.1-2.25,4.78-1.29,1.68,.96,2.25,3.1,1.29,4.78l-.25,.44c-.96,1.68-3.1,2.25-4.78,1.29-.84-.48-1.4-1.26-1.63-2.12s-.14-1.82,.35-2.66Zm118.8,432.73c0-1.93,1.56-3.5,3.49-3.51h.51c1.93,0,3.5,1.57,3.51,3.49,0,1.93-1.56,3.5-3.5,3.51h-.5c-1.62,0-2.99-1.09-3.39-2.59-.08-.29-.12-.59-.12-.9Zm-106.46-448.55c.85-1.74,2.95-2.45,4.68-1.6,.33,.16,.64,.35,.94,.56,1.57,1.13,1.93,3.32,.8,4.88-1.12,1.56-3.28,1.92-4.85,.82-.92-.46-1.55-1.29-1.8-2.22-.21-.79-.15-1.66,.24-2.45Zm128.14,448.52c0-1.93,1.56-3.5,3.49-3.51h.51c1.93,0,3.5,1.56,3.51,3.49,0,1.93-1.56,3.5-3.5,3.51h-.5c-1.62,0-2.99-1.09-3.39-2.59-.08-.29-.12-.59-.12-.9Zm-104.51-412.62c1.67-.97,3.81-.39,4.78,1.28l.24,.42c.97,1.67,.41,3.81-1.26,4.79-1.67,.97-3.81,.41-4.79-1.26l-.26-.45c-.16-.27-.27-.55-.35-.84-.4-1.49,.23-3.13,1.63-3.94Zm10.89,18.78c1.67-.97,3.81-.39,4.78,1.29l.24,.42c.98,1.67,.41,3.81-1.26,4.79-1.67,.97-3.81,.41-4.79-1.26l-.26-.45c-.16-.27-.27-.55-.35-.84-.4-1.5,.23-3.13,1.63-3.94Zm10.88,18.77c1.67-.97,3.81-.39,4.78,1.29l.24,.42c.97,1.67,.41,3.81-1.26,4.79-1.67,.97-3.81,.41-4.79-1.26l-.26-.45c-.16-.27-.27-.55-.35-.84-.4-1.5,.23-3.13,1.63-3.94Zm10.87,18.76c1.67-.97,3.81-.39,4.78,1.29l.24,.41c.98,1.67,.42,3.81-1.25,4.79-1.67,.98-3.81,.42-4.79-1.25l-.26-.46c-.16-.27-.27-.55-.35-.84-.4-1.5,.23-3.13,1.63-3.94Zm93.55,356.27c0-1.93,1.56-3.5,3.49-3.51h.51c1.93,0,3.5,1.56,3.51,3.49,0,1.93-1.56,3.5-3.5,3.51h-.5c-1.62,0-2.99-1.09-3.39-2.59-.08-.29-.12-.59-.12-.9Zm-82.68-337.51c1.67-.97,3.81-.39,4.78,1.29l.24,.41c.98,1.67,.42,3.81-1.25,4.79-1.67,.98-3.81,.42-4.79-1.25l-.26-.46c-.16-.27-.27-.55-.35-.84-.4-1.5,.23-3.13,1.63-3.94Zm10.87,18.75c1.67-.97,3.81-.39,4.78,1.29l.24,.41c.98,1.67,.42,3.81-1.25,4.79-1.67,.98-3.81,.42-4.79-1.25l-.26-.46c-.16-.27-.27-.55-.35-.84-.4-1.5,.23-3.13,1.63-3.94Zm10.87,18.75c1.67-.97,3.81-.39,4.78,1.29l.24,.41c.98,1.67,.42,3.81-1.25,4.79-1.67,.98-3.81,.42-4.79-1.25l-.26-.46c-.16-.27-.27-.55-.35-.84-.4-1.5,.23-3.13,1.63-3.94Zm82.63,299.97c0-1.93,1.55-3.51,3.48-3.51h.51c1.93,0,3.5,1.56,3.5,3.49,0,1.93-1.56,3.5-3.5,3.51h-.49c-1.62,0-2.99-1.09-3.39-2.59-.08-.29-.12-.59-.12-.9Zm-71.77-281.22c1.67-.97,3.81-.39,4.78,1.29l.24,.41c.98,1.67,.42,3.81-1.25,4.79s-3.81,.42-4.79-1.25l-.26-.46c-.16-.27-.27-.55-.35-.84-.4-1.5,.23-3.13,1.63-3.94Zm10.86,18.75c1.67-.97,3.81-.39,4.78,1.29l.24,.41c.98,1.67,.42,3.81-1.25,4.79s-3.81,.42-4.79-1.25l-.26-.46c-.16-.27-.27-.55-.35-.84-.4-1.5,.23-3.13,1.63-3.94Zm10.86,18.75c1.67-.97,3.81-.39,4.78,1.29l.24,.42c.97,1.67,.41,3.81-1.26,4.79-1.67,.97-3.81,.41-4.79-1.26l-.26-.45c-.16-.27-.27-.55-.35-.84-.4-1.5,.23-3.13,1.63-3.94Zm10.87,18.76c1.67-.97,3.81-.39,4.78,1.29l.24,.41c.98,1.67,.42,3.81-1.25,4.79-1.67,.98-3.81,.42-4.79-1.25l-.26-.46c-.16-.27-.27-.55-.35-.84-.4-1.5,.23-3.13,1.63-3.94Zm60.87,224.94c0-1.93,1.55-3.51,3.48-3.51h.51c1.93,0,3.5,1.56,3.5,3.49,0,1.93-1.56,3.5-3.5,3.51h-.49c-1.62,0-2.99-1.09-3.39-2.59-.08-.29-.12-.59-.12-.9Zm-50.01-206.19c1.67-.97,3.81-.39,4.78,1.29l.24,.41c.98,1.67,.42,3.81-1.25,4.79-1.67,.98-3.81,.42-4.79-1.25l-.26-.46c-.16-.27-.27-.55-.35-.84-.4-1.5,.23-3.13,1.63-3.94Zm10.86,18.75c1.67-.96,3.81-.39,4.78,1.29l.24,.42c.97,1.67,.41,3.81-1.26,4.79-1.67,.97-3.81,.41-4.79-1.26l-.26-.45c-.16-.27-.27-.55-.35-.84-.4-1.5,.23-3.13,1.63-3.94Zm10.86,18.75c1.67-.96,3.81-.39,4.78,1.29l.24,.42c.98,1.67,.41,3.81-1.26,4.79-1.67,.98-3.81,.41-4.79-1.26l-.26-.45c-.16-.27-.27-.55-.35-.84-.4-1.5,.23-3.13,1.63-3.94Zm10.86,18.75c1.67-.96,3.81-.39,4.78,1.29l.24,.42c.98,1.67,.41,3.81-1.26,4.79-1.67,.98-3.81,.41-4.79-1.26l-.26-.45c-.16-.27-.27-.55-.35-.84-.4-1.5,.23-3.13,1.63-3.94Zm39.13,149.9c0-1.93,1.56-3.5,3.5-3.51h.51c1.93,0,3.5,1.56,3.5,3.5,0,1.93-1.57,3.5-3.5,3.5h-.5c-1.62,0-2.98-1.09-3.38-2.59-.08-.29-.12-.59-.12-.91Zm-28.27-131.15c1.67-.96,3.81-.39,4.78,1.29l.24,.42c.98,1.67,.41,3.81-1.26,4.79-1.67,.98-3.81,.41-4.79-1.26l-.26-.45c-.16-.27-.27-.55-.35-.84-.4-1.5,.23-3.13,1.63-3.94Zm10.86,18.76c1.67-.96,3.81-.39,4.78,1.29l.24,.41c.98,1.67,.41,3.81-1.25,4.79-1.67,.98-3.81,.42-4.79-1.25l-.26-.46c-.16-.27-.27-.55-.35-.84-.4-1.5,.23-3.13,1.63-3.94Zm10.87,18.76c1.67-.96,3.81-.39,4.78,1.29l.24,.41c.98,1.67,.41,3.81-1.25,4.79-1.67,.98-3.81,.42-4.79-1.25l-.26-.46c-.16-.27-.27-.55-.35-.84-.4-1.5,.23-3.13,1.63-3.94Zm28.27,93.6c0-1.93,1.56-3.5,3.49-3.51h.5c1.93,0,3.5,1.56,3.51,3.49,0,1.93-1.56,3.5-3.49,3.51h-.5c-1.62,0-2.99-1.09-3.39-2.59-.08-.29-.12-.59-.12-.9Zm-17.4-74.84c1.67-.96,3.81-.39,4.78,1.29l.24,.42c.98,1.67,.41,3.81-1.26,4.79-1.67,.98-3.81,.41-4.79-1.26l-.26-.45c-.16-.27-.27-.55-.35-.84-.4-1.5,.23-3.13,1.63-3.94Zm10.87,18.78c1.67-.96,3.81-.39,4.78,1.29l.24,.41c.97,1.67,.41,3.81-1.25,4.79-1.67,.98-3.81,.42-4.79-1.25l-.26-.46c-.16-.27-.27-.55-.35-.84-.4-1.5,.23-3.13,1.63-3.94Zm10.88,18.79c1.67-.96,3.81-.39,4.78,1.29l.24,.41c.98,1.67,.42,3.81-1.25,4.79-1.67,.98-3.81,.42-4.79-1.25l-.26-.46c-.16-.27-.27-.55-.35-.84-.4-1.5,.23-3.13,1.63-3.94Zm10.88,18.82c1.67-.97,3.81-.4,4.78,1.27l.25,.44c.97,1.67,.4,3.81-1.28,4.78-1.67,.97-3.81,.4-4.78-1.28l-.25-.43c-.16-.27-.28-.56-.35-.85-.4-1.49,.22-3.12,1.62-3.94Zm6.61,18.4c0-1.93,1.57-3.5,3.5-3.5h.1c2.7,0,3.54,1.62,3.8,2.59,.5,1.87-.6,3.79-2.47,4.29-.34,.09-.67,.13-1,.12h-.44c-1.62,0-2.98-1.1-3.38-2.59-.08-.29-.12-.6-.12-.92Zm-245.58-430.91c1.67-.97,3.81-.39,4.78,1.28l.24,.42c.97,1.67,.41,3.81-1.26,4.79-1.67,.97-3.81,.41-4.79-1.26l-.26-.45c-.16-.27-.27-.55-.35-.84-.4-1.49,.23-3.13,1.63-3.94Z"/></g><path d="M763.47,1201.78l.25-.44c.96-1.68,3.1-2.25,4.78-1.29,1.68,.96,2.25,3.1,1.29,4.78l-.25,.44c-.96,1.68-3.1,2.25-4.78,1.29-.84-.48-1.4-1.26-1.63-2.12s-.14-1.82,.35-2.66Zm10.78-18.74l.25-.44c.96-1.68,3.1-2.25,4.78-1.29,1.68,.96,2.25,3.1,1.29,4.78l-.25,.44c-.96,1.68-3.1,2.25-4.78,1.29-.84-.48-1.4-1.26-1.63-2.12-.23-.86-.14-1.82,.35-2.66Zm9.08,21.05c0-1.93,1.57-3.5,3.51-3.49h.5c1.93,0,3.5,1.57,3.5,3.5,0,1.93-1.57,3.5-3.5,3.5h-.51c-1.61,0-2.97-1.1-3.37-2.59-.08-.29-.12-.6-.12-.92Zm1.7-39.79l.25-.44c.96-1.68,3.1-2.25,4.78-1.29,1.68,.96,2.25,3.1,1.29,4.78l-.25,.44c-.96,1.68-3.1,2.25-4.78,1.29-.84-.48-1.4-1.26-1.63-2.12s-.14-1.82,.35-2.66Zm20.03,39.79c0-1.93,1.55-3.51,3.48-3.51h.51c1.93,0,3.5,1.56,3.51,3.49,0,1.93-1.56,3.5-3.5,3.51h-.49c-1.62,0-2.99-1.09-3.39-2.59-.08-.29-.12-.59-.12-.9Zm-9.25-58.52l.25-.44c.96-1.68,3.1-2.25,4.78-1.29,1.68,.96,2.25,3.1,1.29,4.78l-.25,.44c-.96,1.68-3.1,2.25-4.78,1.29-.84-.48-1.4-1.26-1.63-2.12s-.14-1.82,.35-2.66Zm10.78-18.73l.25-.44c.96-1.68,3.1-2.25,4.78-1.29,1.68,.96,2.25,3.1,1.29,4.78l-.25,.44c-.96,1.68-3.1,2.25-4.78,1.29-.84-.48-1.4-1.26-1.63-2.12s-.14-1.82,.35-2.66Zm20.18,77.21c0-1.93,1.57-3.5,3.5-3.5h.5c1.93,0,3.5,1.56,3.51,3.49,0,1.93-1.56,3.5-3.5,3.51h-.51c-1.62,0-2.98-1.1-3.38-2.59-.08-.29-.12-.6-.12-.91Zm-9.4-95.95l.25-.44c.96-1.68,3.1-2.25,4.78-1.29,1.68,.96,2.25,3.1,1.29,4.78l-.25,.44c-.96,1.68-3.1,2.25-4.78,1.29-.84-.48-1.4-1.26-1.63-2.12s-.14-1.82,.35-2.66Zm31.1,95.92c0-1.93,1.57-3.5,3.5-3.5h.5c1.93,0,3.5,1.56,3.51,3.49,0,1.93-1.56,3.5-3.5,3.51h-.51c-1.62,0-2.98-1.1-3.38-2.59-.08-.29-.12-.6-.12-.91Zm-20.32-114.65l.25-.44c.96-1.68,3.1-2.25,4.78-1.29,1.68,.96,2.25,3.1,1.29,4.78l-.25,.44c-.96,1.68-3.1,2.25-4.78,1.29-.84-.48-1.4-1.26-1.63-2.12s-.14-1.82,.35-2.66Zm42.01,114.63c0-1.93,1.56-3.5,3.5-3.51h.5c1.93,0,3.5,1.56,3.51,3.49,0,1.93-1.56,3.5-3.5,3.51h-.5c-1.62,0-2.98-1.09-3.38-2.59-.08-.29-.12-.59-.12-.91Zm-31.23-133.36l.25-.44c.96-1.68,3.1-2.25,4.78-1.29,1.68,.96,2.25,3.1,1.29,4.78l-.25,.44c-.96,1.68-3.1,2.25-4.78,1.29-.84-.48-1.4-1.26-1.63-2.12-.23-.86-.14-1.82,.35-2.66Zm10.78-18.73l.25-.44c.96-1.68,3.1-2.25,4.78-1.29,1.68,.96,2.25,3.1,1.29,4.78l-.25,.44c-.96,1.68-3.1,2.25-4.78,1.29-.84-.48-1.4-1.26-1.63-2.12s-.14-1.82,.35-2.66Zm42.13,152.07c0-1.93,1.56-3.5,3.5-3.51h.5c1.93,0,3.5,1.57,3.5,3.49,0,1.93-1.56,3.5-3.5,3.51h-.5c-1.62,0-2.98-1.09-3.38-2.59-.08-.29-.12-.59-.12-.91Zm-31.35-170.8l.25-.44c.96-1.68,3.1-2.25,4.78-1.29,1.68,.96,2.25,3.1,1.29,4.78l-.25,.44c-.96,1.68-3.1,2.25-4.78,1.29-.84-.48-1.4-1.26-1.63-2.12s-.14-1.82,.35-2.66Zm53.02,170.76c0-1.93,1.57-3.5,3.5-3.5h.5c1.93,0,3.5,1.56,3.51,3.49,0,1.93-1.56,3.5-3.5,3.51h-.51c-1.62,0-2.98-1.1-3.38-2.59-.08-.29-.12-.6-.12-.91Zm-42.24-189.5l.25-.44c.96-1.68,3.1-2.25,4.78-1.29,1.68,.96,2.25,3.1,1.29,4.78l-.25,.44c-.96,1.68-3.1,2.25-4.78,1.29-.84-.48-1.4-1.26-1.63-2.12s-.14-1.82,.35-2.66Zm63.91,189.47c0-1.93,1.57-3.5,3.5-3.5h.5c1.93,0,3.5,1.56,3.51,3.49,0,1.93-1.56,3.5-3.5,3.51h-.51c-1.62,0-2.98-1.1-3.38-2.59-.08-.29-.12-.6-.12-.91Zm-53.14-208.2l.25-.44c.96-1.68,3.1-2.25,4.78-1.29,1.68,.96,2.25,3.1,1.29,4.78l-.25,.44c-.96,1.68-3.1,2.25-4.78,1.29-.84-.48-1.4-1.26-1.63-2.12s-.14-1.82,.35-2.66Zm10.78-18.74l.25-.44c.96-1.68,3.1-2.25,4.78-1.29,1.68,.96,2.25,3.1,1.29,4.78l-.25,.44c-.96,1.68-3.1,2.25-4.78,1.29-.84-.48-1.4-1.26-1.63-2.12s-.14-1.82,.35-2.66Zm64.02,226.92c0-1.93,1.56-3.5,3.49-3.51h.51c1.93,0,3.5,1.56,3.51,3.49,0,1.93-1.56,3.5-3.5,3.51h-.5c-1.62,0-2.99-1.09-3.39-2.59-.08-.29-.12-.59-.12-.9Zm21.67-.03c0-1.93,1.56-3.5,3.49-3.51h.51c1.93,0,3.5,1.56,3.51,3.49,0,1.93-1.56,3.5-3.5,3.51h-.5c-1.62,0-2.99-1.09-3.39-2.59-.08-.29-.12-.59-.12-.9Zm-64.13-264.35l.25-.44c.96-1.68,3.1-2.25,4.78-1.29,1.68,.96,2.25,3.1,1.29,4.78l-.25,.44c-.96,1.68-3.1,2.25-4.78,1.29-.84-.48-1.4-1.26-1.63-2.12s-.14-1.82,.35-2.66Zm85.8,264.32c0-1.93,1.56-3.5,3.49-3.51h.51c1.93,0,3.5,1.56,3.51,3.49,0,1.93-1.56,3.5-3.5,3.51h-.5c-1.62,0-2.99-1.09-3.39-2.59-.08-.29-.12-.59-.12-.9Zm-75.02-283.05l.25-.44c.96-1.68,3.1-2.25,4.78-1.29,1.68,.96,2.25,3.1,1.29,4.78l-.25,.44c-.96,1.68-3.1,2.25-4.78,1.29-.84-.48-1.4-1.26-1.63-2.12s-.14-1.82,.35-2.66Zm10.78-18.73l.25-.44c.96-1.68,3.1-2.25,4.78-1.29,1.68,.96,2.25,3.1,1.29,4.78l-.25,.44c-.96,1.68-3.1,2.25-4.78,1.29-.84-.48-1.4-1.26-1.63-2.12s-.14-1.82,.35-2.66Zm85.9,301.76c0-1.93,1.56-3.5,3.49-3.51h.51c1.93,0,3.5,1.56,3.51,3.49,0,1.93-1.56,3.5-3.5,3.51h-.5c-1.62,0-2.99-1.09-3.39-2.59-.08-.29-.12-.59-.12-.9Zm-75.13-320.49l.25-.44c.96-1.68,3.1-2.25,4.78-1.29,1.68,.96,2.25,3.1,1.29,4.78l-.25,.44c-.96,1.68-3.1,2.25-4.78,1.29-.84-.48-1.4-1.26-1.63-2.12s-.14-1.82,.35-2.66Zm96.8,320.45c0-1.93,1.56-3.5,3.5-3.51h.5c1.93,0,3.5,1.56,3.51,3.49,0,1.93-1.56,3.5-3.5,3.51h-.5c-1.62,0-2.98-1.09-3.38-2.59-.08-.29-.12-.59-.12-.91Zm-86.02-339.19l.25-.44c.96-1.68,3.1-2.25,4.78-1.29,1.68,.96,2.25,3.1,1.29,4.78l-.25,.44c-.96,1.68-3.1,2.25-4.78,1.29-.84-.48-1.4-1.26-1.63-2.12s-.14-1.82,.35-2.66Zm10.78-18.73l.25-.44c.96-1.68,3.1-2.26,4.78-1.29,1.68,.96,2.25,3.1,1.29,4.78l-.25,.44c-.96,1.68-3.1,2.26-4.78,1.29-.84-.48-1.4-1.26-1.64-2.13s-.14-1.82,.34-2.65Zm96.91,357.89c0-1.93,1.56-3.5,3.49-3.51h.51c1.93,0,3.5,1.56,3.51,3.49,0,1.93-1.56,3.5-3.5,3.51h-.5c-1.62,0-2.99-1.09-3.39-2.59-.08-.29-.12-.59-.12-.9Zm-86.13-376.63l.25-.44c.96-1.68,3.1-2.25,4.78-1.29,1.68,.96,2.25,3.1,1.29,4.78l-.25,.44c-.96,1.68-3.1,2.25-4.78,1.29-.84-.48-1.4-1.26-1.63-2.12s-.14-1.82,.35-2.66Zm107.8,376.6c0-1.93,1.56-3.5,3.49-3.51h.51c1.93,0,3.5,1.56,3.51,3.49,0,1.93-1.56,3.5-3.5,3.51h-.5c-1.62,0-2.99-1.09-3.39-2.59-.08-.29-.12-.59-.12-.9Zm-97.02-395.33l.25-.44c.96-1.68,3.1-2.25,4.78-1.29,1.68,.96,2.25,3.1,1.29,4.78l-.25,.44c-.96,1.68-3.1,2.25-4.78,1.29-.84-.48-1.4-1.26-1.63-2.12s-.14-1.82,.35-2.66Zm118.69,395.3c0-1.93,1.56-3.5,3.49-3.51h.51c1.93,0,3.5,1.56,3.51,3.49,0,1.93-1.56,3.5-3.5,3.51h-.5c-1.62,0-2.99-1.09-3.39-2.59-.08-.29-.12-.59-.12-.9Zm-107.91-414.03l.25-.44c.96-1.68,3.1-2.25,4.78-1.29,1.68,.96,2.25,3.1,1.29,4.78l-.25,.44c-.96,1.68-3.1,2.25-4.78,1.29-.84-.48-1.4-1.26-1.63-2.12-.23-.86-.14-1.82,.35-2.66Zm10.78-18.74l.25-.44c.96-1.68,3.1-2.25,4.78-1.29,1.68,.96,2.25,3.1,1.29,4.78l-.25,.44c-.96,1.68-3.1,2.25-4.78,1.29-.84-.48-1.4-1.26-1.63-2.12s-.14-1.82,.35-2.66Zm118.8,432.73c0-1.93,1.56-3.5,3.49-3.51h.51c1.93,0,3.5,1.57,3.51,3.49,0,1.93-1.56,3.5-3.5,3.51h-.5c-1.62,0-2.99-1.09-3.39-2.59-.08-.29-.12-.59-.12-.9Zm-106.46-448.55c.85-1.74,2.95-2.45,4.68-1.6,.33,.16,.64,.35,.94,.56,1.57,1.13,1.93,3.32,.8,4.88-1.12,1.56-3.28,1.92-4.85,.82-.92-.46-1.55-1.29-1.8-2.22-.21-.79-.15-1.66,.24-2.45Zm128.14,448.52c0-1.93,1.56-3.5,3.49-3.51h.51c1.93,0,3.5,1.56,3.51,3.49,0,1.93-1.56,3.5-3.5,3.51h-.5c-1.62,0-2.99-1.09-3.39-2.59-.08-.29-.12-.59-.12-.9Zm-104.51-412.62c1.67-.97,3.81-.39,4.78,1.28l.24,.42c.97,1.67,.41,3.81-1.26,4.79-1.67,.97-3.81,.41-4.79-1.26l-.26-.45c-.16-.27-.27-.55-.35-.84-.4-1.49,.23-3.13,1.63-3.94Zm10.89,18.78c1.67-.97,3.81-.39,4.78,1.29l.24,.42c.98,1.67,.41,3.81-1.26,4.79-1.67,.97-3.81,.41-4.79-1.26l-.26-.45c-.16-.27-.27-.55-.35-.84-.4-1.5,.23-3.13,1.63-3.94Zm10.88,18.77c1.67-.97,3.81-.39,4.78,1.29l.24,.42c.97,1.67,.41,3.81-1.26,4.79-1.67,.97-3.81,.41-4.79-1.26l-.26-.45c-.16-.27-.27-.55-.35-.84-.4-1.5,.23-3.13,1.63-3.94Zm10.87,18.76c1.67-.97,3.81-.39,4.78,1.29l.24,.41c.98,1.67,.42,3.81-1.25,4.79s-3.81,.42-4.79-1.25l-.26-.46c-.16-.27-.27-.55-.35-.84-.4-1.5,.23-3.13,1.63-3.94Zm93.55,356.27c0-1.93,1.56-3.5,3.49-3.51h.51c1.93,0,3.5,1.56,3.51,3.49,0,1.93-1.56,3.5-3.5,3.51h-.5c-1.62,0-2.99-1.09-3.39-2.59-.08-.29-.12-.59-.12-.9Zm-82.68-337.51c1.67-.97,3.81-.39,4.78,1.29l.24,.41c.98,1.67,.42,3.81-1.25,4.79-1.67,.98-3.81,.42-4.79-1.25l-.26-.46c-.16-.27-.27-.55-.35-.84-.4-1.5,.23-3.13,1.63-3.94Zm10.87,18.75c1.67-.97,3.81-.39,4.78,1.29l.24,.41c.98,1.67,.42,3.81-1.25,4.79s-3.81,.42-4.79-1.25l-.26-.46c-.16-.27-.27-.55-.35-.84-.4-1.5,.23-3.13,1.63-3.94Zm10.87,18.75c1.67-.97,3.81-.39,4.78,1.29l.24,.41c.98,1.67,.42,3.81-1.25,4.79-1.67,.98-3.81,.42-4.79-1.25l-.26-.46c-.16-.27-.27-.55-.35-.84-.4-1.5,.23-3.13,1.63-3.94Zm82.63,299.97c0-1.93,1.55-3.51,3.48-3.51h.51c1.93,0,3.5,1.56,3.5,3.49,0,1.93-1.56,3.5-3.5,3.51h-.49c-1.62,0-2.99-1.09-3.39-2.59-.08-.29-.12-.59-.12-.9Zm-71.77-281.22c1.67-.97,3.81-.39,4.78,1.29l.24,.41c.98,1.67,.42,3.81-1.25,4.79s-3.81,.42-4.79-1.25l-.26-.46c-.16-.27-.27-.55-.35-.84-.4-1.5,.23-3.13,1.63-3.94Zm10.86,18.75c1.67-.97,3.81-.39,4.78,1.29l.24,.41c.98,1.67,.42,3.81-1.25,4.79-1.67,.98-3.81,.42-4.79-1.25l-.26-.46c-.16-.27-.27-.55-.35-.84-.4-1.5,.23-3.13,1.63-3.94Zm21.73,37.51c1.67-.97,3.81-.39,4.78,1.29l.24,.41c.98,1.67,.42,3.81-1.25,4.79-1.67,.98-3.81,.42-4.79-1.25l-.26-.46c-.16-.27-.27-.55-.35-.84-.4-1.5,.23-3.13,1.63-3.94Zm60.87,224.94c0-1.93,1.55-3.51,3.48-3.51h.51c1.93,0,3.5,1.56,3.5,3.49,0,1.93-1.56,3.5-3.5,3.51h-.49c-1.62,0-2.99-1.09-3.39-2.59-.08-.29-.12-.59-.12-.9Zm-50.01-206.19c1.67-.97,3.81-.39,4.78,1.29l.24,.41c.98,1.67,.42,3.81-1.25,4.79-1.67,.98-3.81,.42-4.79-1.25l-.26-.46c-.16-.27-.27-.55-.35-.84-.4-1.5,.23-3.13,1.63-3.94Zm10.86,18.75c1.67-.96,3.81-.39,4.78,1.29l.24,.42c.97,1.67,.41,3.81-1.26,4.79-1.67,.97-3.81,.41-4.79-1.26l-.26-.45c-.16-.27-.27-.55-.35-.84-.4-1.5,.23-3.13,1.63-3.94Zm10.86,18.75c1.67-.96,3.81-.39,4.78,1.29l.24,.42c.98,1.67,.41,3.81-1.26,4.79-1.67,.98-3.81,.41-4.79-1.26l-.26-.45c-.16-.27-.27-.55-.35-.84-.4-1.5,.23-3.13,1.63-3.94Zm10.86,18.75c1.67-.96,3.81-.39,4.78,1.29l.24,.42c.98,1.67,.41,3.81-1.26,4.79-1.67,.98-3.81,.41-4.79-1.26l-.26-.45c-.16-.27-.27-.55-.35-.84-.4-1.5,.23-3.13,1.63-3.94Zm39.13,149.9c0-1.93,1.56-3.5,3.5-3.51h.51c1.93,0,3.5,1.56,3.5,3.5,0,1.93-1.57,3.5-3.5,3.5h-.5c-1.62,0-2.98-1.09-3.38-2.59-.08-.29-.12-.59-.12-.91Zm-28.27-131.15c1.67-.96,3.81-.39,4.78,1.29l.24,.42c.98,1.67,.41,3.81-1.26,4.79-1.67,.98-3.81,.41-4.79-1.26l-.26-.45c-.16-.27-.27-.55-.35-.84-.4-1.5,.23-3.13,1.63-3.94Zm10.86,18.76c1.67-.96,3.81-.39,4.78,1.29l.24,.41c.98,1.67,.41,3.81-1.25,4.79-1.67,.98-3.81,.42-4.79-1.25l-.26-.46c-.16-.27-.27-.55-.35-.84-.4-1.5,.23-3.13,1.63-3.94Zm10.87,18.76c1.67-.96,3.81-.39,4.78,1.29l.24,.41c.98,1.67,.41,3.81-1.25,4.79-1.67,.98-3.81,.42-4.79-1.25l-.26-.46c-.16-.27-.27-.55-.35-.84-.4-1.5,.23-3.13,1.63-3.94Zm28.27,93.6c0-1.93,1.56-3.5,3.49-3.51h.5c1.93,0,3.5,1.56,3.51,3.49,0,1.93-1.56,3.5-3.49,3.51h-.5c-1.62,0-2.99-1.09-3.39-2.59-.08-.29-.12-.59-.12-.9Zm-17.4-74.84c1.67-.96,3.81-.39,4.78,1.29l.24,.42c.98,1.67,.41,3.81-1.26,4.79-1.67,.98-3.81,.41-4.79-1.26l-.26-.45c-.16-.27-.27-.55-.35-.84-.4-1.5,.23-3.13,1.63-3.94Zm10.87,18.78c1.67-.96,3.81-.39,4.78,1.29l.24,.41c.97,1.67,.41,3.81-1.25,4.79-1.67,.98-3.81,.42-4.79-1.25l-.26-.46c-.16-.27-.27-.55-.35-.84-.4-1.5,.23-3.13,1.63-3.94Zm10.88,18.79c1.67-.96,3.81-.39,4.78,1.29l.24,.41c.98,1.67,.42,3.81-1.25,4.79-1.67,.98-3.81,.42-4.79-1.25l-.26-.46c-.16-.27-.27-.55-.35-.84-.4-1.5,.23-3.13,1.63-3.94Zm10.88,18.82c1.67-.97,3.81-.4,4.78,1.27l.25,.44c.97,1.67,.4,3.81-1.28,4.78-1.67,.97-3.81,.4-4.78-1.28l-.25-.43c-.16-.27-.28-.56-.35-.85-.4-1.49,.22-3.12,1.62-3.94Zm6.61,18.4c0-1.93,1.57-3.5,3.5-3.5h.1c2.7,0,3.54,1.62,3.8,2.59,.5,1.87-.6,3.79-2.47,4.29-.34,.09-.67,.13-1,.12h-.44c-1.62,0-2.98-1.1-3.38-2.59-.08-.29-.12-.6-.12-.92Zm-245.58-430.91c1.67-.97,3.81-.39,4.78,1.28l.24,.42c.97,1.67,.41,3.81-1.26,4.79-1.67,.97-3.81,.41-4.79-1.26l-.26-.45c-.16-.27-.27-.55-.35-.84-.4-1.49,.23-3.13,1.63-3.94Z"/><path d="M763.47,962.25l.25-.44c.96-1.68,3.1-2.25,4.78-1.29,1.68,.96,2.25,3.1,1.29,4.78l-.25,.44c-.96,1.68-3.1,2.25-4.78,1.29-.84-.48-1.4-1.26-1.63-2.12s-.14-1.82,.35-2.66Zm10.78-18.74l.25-.44c.96-1.68,3.1-2.25,4.78-1.29,1.68,.96,2.25,3.1,1.29,4.78l-.25,.44c-.96,1.68-3.1,2.25-4.78,1.29-.84-.48-1.4-1.26-1.63-2.12-.23-.86-.14-1.82,.35-2.66Zm9.08,21.05c0-1.93,1.57-3.5,3.51-3.49h.5c1.93,0,3.5,1.57,3.5,3.5,0,1.93-1.57,3.5-3.5,3.5h-.51c-1.61,0-2.97-1.1-3.37-2.59-.08-.29-.12-.6-.12-.92Zm1.7-39.79l.25-.44c.96-1.68,3.1-2.25,4.78-1.29,1.68,.96,2.25,3.1,1.29,4.78l-.25,.44c-.96,1.68-3.1,2.25-4.78,1.29-.84-.48-1.4-1.26-1.63-2.12s-.14-1.82,.35-2.66Zm20.03,39.79c0-1.93,1.55-3.51,3.48-3.51h.51c1.93,0,3.5,1.56,3.51,3.49,0,1.93-1.56,3.5-3.5,3.51h-.49c-1.62,0-2.99-1.09-3.39-2.59-.08-.29-.12-.59-.12-.9Zm-9.25-58.52l.25-.44c.96-1.68,3.1-2.25,4.78-1.29,1.68,.96,2.25,3.1,1.29,4.78l-.25,.44c-.96,1.68-3.1,2.25-4.78,1.29-.84-.48-1.4-1.26-1.63-2.12s-.14-1.82,.35-2.66Zm10.78-18.73l.25-.44c.96-1.68,3.1-2.25,4.78-1.29,1.68,.96,2.25,3.1,1.29,4.78l-.25,.44c-.96,1.68-3.1,2.25-4.78,1.29-.84-.48-1.4-1.26-1.63-2.12s-.14-1.82,.35-2.66Zm20.18,77.21c0-1.93,1.57-3.5,3.5-3.5h.5c1.93,0,3.5,1.56,3.51,3.49,0,1.93-1.56,3.5-3.5,3.51h-.51c-1.62,0-2.98-1.1-3.38-2.59-.08-.29-.12-.6-.12-.91Zm-9.4-95.95l.25-.44c.96-1.68,3.1-2.25,4.78-1.29,1.68,.96,2.25,3.1,1.29,4.78l-.25,.44c-.96,1.68-3.1,2.25-4.78,1.29-.84-.48-1.4-1.26-1.63-2.12s-.14-1.82,.35-2.66Zm31.1,95.92c0-1.93,1.57-3.5,3.5-3.5h.5c1.93,0,3.5,1.56,3.51,3.49,0,1.93-1.56,3.5-3.5,3.51h-.51c-1.62,0-2.98-1.1-3.38-2.59-.08-.29-.12-.6-.12-.91Zm-20.32-114.65l.25-.44c.96-1.68,3.1-2.25,4.78-1.29,1.68,.96,2.25,3.1,1.29,4.78l-.25,.44c-.96,1.68-3.1,2.25-4.78,1.29-.84-.48-1.4-1.26-1.63-2.12s-.14-1.82,.35-2.66Zm42.01,114.63c0-1.93,1.56-3.5,3.5-3.51h.5c1.93,0,3.5,1.56,3.51,3.49,0,1.93-1.56,3.5-3.5,3.51h-.5c-1.62,0-2.98-1.09-3.38-2.59-.08-.29-.12-.59-.12-.91Zm-31.23-133.36l.25-.44c.96-1.68,3.1-2.25,4.78-1.29,1.68,.96,2.25,3.1,1.29,4.78l-.25,.44c-.96,1.68-3.1,2.25-4.78,1.29-.84-.48-1.4-1.26-1.63-2.12s-.14-1.82,.35-2.66Zm10.78-18.73l.25-.44c.96-1.68,3.1-2.25,4.78-1.29,1.68,.96,2.25,3.1,1.29,4.78l-.25,.44c-.96,1.68-3.1,2.25-4.78,1.29-.84-.48-1.4-1.26-1.63-2.12s-.14-1.82,.35-2.66Zm42.13,152.07c0-1.93,1.56-3.5,3.5-3.51h.5c1.93,0,3.5,1.57,3.5,3.49,0,1.93-1.56,3.5-3.5,3.51h-.5c-1.62,0-2.98-1.09-3.38-2.59-.08-.29-.12-.59-.12-.91Zm-31.35-170.8l.25-.44c.96-1.68,3.1-2.25,4.78-1.29,1.68,.96,2.25,3.1,1.29,4.78l-.25,.44c-.96,1.68-3.1,2.25-4.78,1.29-.84-.48-1.4-1.26-1.63-2.12s-.14-1.82,.35-2.66Zm53.02,170.76c0-1.93,1.57-3.5,3.5-3.5h.5c1.93,0,3.5,1.56,3.51,3.49,0,1.93-1.56,3.5-3.5,3.51h-.51c-1.62,0-2.98-1.1-3.38-2.59-.08-.29-.12-.6-.12-.91Zm-42.24-189.5l.25-.44c.96-1.68,3.1-2.25,4.78-1.29,1.68,.96,2.25,3.1,1.29,4.78l-.25,.44c-.96,1.68-3.1,2.25-4.78,1.29-.84-.48-1.4-1.26-1.63-2.12s-.14-1.82,.35-2.66Zm63.91,189.47c0-1.93,1.57-3.5,3.5-3.5h.5c1.93,0,3.5,1.56,3.51,3.49,0,1.93-1.56,3.5-3.5,3.51h-.51c-1.62,0-2.98-1.1-3.38-2.59-.08-.29-.12-.6-.12-.91Zm-53.14-208.2l.25-.44c.96-1.68,3.1-2.25,4.78-1.29,1.68,.96,2.25,3.1,1.29,4.78l-.25,.44c-.96,1.68-3.1,2.25-4.78,1.29-.84-.48-1.4-1.26-1.63-2.12s-.14-1.82,.35-2.66Zm10.78-18.74l.25-.44c.96-1.68,3.1-2.25,4.78-1.29,1.68,.96,2.25,3.1,1.29,4.78l-.25,.44c-.96,1.68-3.1,2.25-4.78,1.29-.84-.48-1.4-1.26-1.63-2.12s-.14-1.82,.35-2.66Zm64.02,226.92c0-1.93,1.56-3.5,3.49-3.51h.51c1.93,0,3.5,1.56,3.51,3.49,0,1.93-1.56,3.5-3.5,3.51h-.5c-1.62,0-2.99-1.09-3.39-2.59-.08-.29-.12-.59-.12-.9Zm21.67-.03c0-1.93,1.56-3.5,3.49-3.51h.51c1.93,0,3.5,1.56,3.51,3.49,0,1.93-1.56,3.5-3.5,3.51h-.5c-1.62,0-2.99-1.09-3.39-2.59-.08-.29-.12-.59-.12-.9Zm-64.13-264.35l.25-.44c.96-1.68,3.1-2.25,4.78-1.29,1.68,.96,2.25,3.1,1.29,4.78l-.25,.44c-.96,1.68-3.1,2.25-4.78,1.29-.84-.48-1.4-1.26-1.63-2.12s-.14-1.82,.35-2.66Zm85.8,264.32c0-1.93,1.56-3.5,3.49-3.51h.51c1.93,0,3.5,1.56,3.51,3.49,0,1.93-1.56,3.5-3.5,3.51h-.5c-1.62,0-2.99-1.09-3.39-2.59-.08-.29-.12-.59-.12-.9Zm-75.02-283.05l.25-.44c.96-1.68,3.1-2.25,4.78-1.29,1.68,.96,2.25,3.1,1.29,4.78l-.25,.44c-.96,1.68-3.1,2.25-4.78,1.29-.84-.48-1.4-1.26-1.63-2.12s-.14-1.82,.35-2.66Zm10.78-18.73l.25-.44c.96-1.68,3.1-2.25,4.78-1.29,1.68,.96,2.25,3.1,1.29,4.78l-.25,.44c-.96,1.68-3.1,2.25-4.78,1.29-.84-.48-1.4-1.26-1.63-2.12s-.14-1.82,.35-2.66Zm85.9,301.76c0-1.93,1.56-3.5,3.49-3.51h.51c1.93,0,3.5,1.56,3.51,3.49,0,1.93-1.56,3.5-3.5,3.51h-.5c-1.62,0-2.99-1.09-3.39-2.59-.08-.29-.12-.59-.12-.9Zm-75.13-320.49l.25-.44c.96-1.68,3.1-2.25,4.78-1.29,1.68,.96,2.25,3.1,1.29,4.78l-.25,.44c-.96,1.68-3.1,2.25-4.78,1.29-.84-.48-1.4-1.26-1.63-2.12s-.14-1.82,.35-2.66Zm96.8,320.45c0-1.93,1.56-3.5,3.5-3.51h.5c1.93,0,3.5,1.56,3.51,3.49,0,1.93-1.56,3.5-3.5,3.51h-.5c-1.62,0-2.98-1.09-3.38-2.59-.08-.29-.12-.59-.12-.91Zm-86.02-339.19l.25-.44c.96-1.68,3.1-2.25,4.78-1.29,1.68,.96,2.25,3.1,1.29,4.78l-.25,.44c-.96,1.68-3.1,2.25-4.78,1.29-.84-.48-1.4-1.26-1.63-2.12s-.14-1.82,.35-2.66Zm10.78-18.73l.25-.44c.96-1.68,3.1-2.26,4.78-1.29,1.68,.96,2.25,3.1,1.29,4.78l-.25,.44c-.96,1.68-3.1,2.26-4.78,1.29-.84-.48-1.4-1.26-1.64-2.13s-.14-1.82,.34-2.65Zm96.91,357.89c0-1.93,1.56-3.5,3.49-3.51h.51c1.93,0,3.5,1.56,3.51,3.49,0,1.93-1.56,3.5-3.5,3.51h-.5c-1.62,0-2.99-1.09-3.39-2.59-.08-.29-.12-.59-.12-.9Zm-86.13-376.63l.25-.44c.96-1.68,3.1-2.25,4.78-1.29,1.68,.96,2.25,3.1,1.29,4.78l-.25,.44c-.96,1.68-3.1,2.25-4.78,1.29-.84-.48-1.4-1.26-1.63-2.12s-.14-1.82,.35-2.66Zm107.8,376.6c0-1.93,1.56-3.5,3.49-3.51h.51c1.93,0,3.5,1.56,3.51,3.49,0,1.93-1.56,3.5-3.5,3.51h-.5c-1.62,0-2.99-1.09-3.39-2.59-.08-.29-.12-.59-.12-.9Zm-97.02-395.33l.25-.44c.96-1.68,3.1-2.25,4.78-1.29,1.68,.96,2.25,3.1,1.29,4.78l-.25,.44c-.96,1.68-3.1,2.25-4.78,1.29-.84-.48-1.4-1.26-1.63-2.12s-.14-1.82,.35-2.66Zm118.69,395.3c0-1.93,1.56-3.5,3.49-3.51h.51c1.93,0,3.5,1.56,3.51,3.49,0,1.93-1.56,3.5-3.5,3.51h-.5c-1.62,0-2.99-1.09-3.39-2.59-.08-.29-.12-.59-.12-.9Zm-107.91-414.03l.25-.44c.96-1.68,3.1-2.25,4.78-1.29,1.68,.96,2.25,3.1,1.29,4.78l-.25,.44c-.96,1.68-3.1,2.25-4.78,1.29-.84-.48-1.4-1.26-1.63-2.12s-.14-1.82,.35-2.66Zm10.78-18.74l.25-.44c.96-1.68,3.1-2.25,4.78-1.29,1.68,.96,2.25,3.1,1.29,4.78l-.25,.44c-.96,1.68-3.1,2.25-4.78,1.29-.84-.48-1.4-1.26-1.63-2.12-.23-.86-.14-1.82,.35-2.66Zm118.8,432.73c0-1.93,1.56-3.5,3.49-3.51h.51c1.93,0,3.5,1.57,3.51,3.49,0,1.93-1.56,3.5-3.5,3.51h-.5c-1.62,0-2.99-1.09-3.39-2.59-.08-.29-.12-.59-.12-.9Zm-106.46-448.55c.85-1.74,2.95-2.45,4.68-1.6,.33,.16,.64,.35,.94,.56,1.57,1.13,1.93,3.32,.8,4.88-1.12,1.56-3.28,1.92-4.85,.82-.92-.46-1.55-1.29-1.8-2.22-.21-.79-.15-1.66,.24-2.45Zm128.14,448.52c0-1.93,1.56-3.5,3.49-3.51h.51c1.93,0,3.5,1.56,3.51,3.49,0,1.93-1.56,3.5-3.5,3.51h-.5c-1.62,0-2.99-1.09-3.39-2.59-.08-.29-.12-.59-.12-.9Zm-104.51-412.62c1.67-.97,3.81-.39,4.78,1.28l.24,.42c.97,1.67,.41,3.81-1.26,4.79-1.67,.97-3.81,.41-4.79-1.26l-.26-.45c-.16-.27-.27-.55-.35-.84-.4-1.49,.23-3.13,1.63-3.94Zm10.89,18.78c1.67-.97,3.81-.39,4.78,1.29l.24,.42c.98,1.67,.41,3.81-1.26,4.79-1.67,.97-3.81,.41-4.79-1.26l-.26-.45c-.16-.27-.27-.55-.35-.84-.4-1.5,.23-3.13,1.63-3.94Zm10.88,18.77c1.67-.97,3.81-.39,4.78,1.29l.24,.42c.97,1.67,.41,3.81-1.26,4.79-1.67,.97-3.81,.41-4.79-1.26l-.26-.45c-.16-.27-.27-.55-.35-.84-.4-1.5,.23-3.13,1.63-3.94Zm10.87,18.76c1.67-.97,3.81-.39,4.78,1.29l.24,.41c.98,1.67,.42,3.81-1.25,4.79-1.67,.98-3.81,.42-4.79-1.25l-.26-.46c-.16-.27-.27-.55-.35-.84-.4-1.5,.23-3.13,1.63-3.94Zm93.55,356.27c0-1.93,1.56-3.5,3.49-3.51h.51c1.93,0,3.5,1.56,3.51,3.49,0,1.93-1.56,3.5-3.5,3.51h-.5c-1.62,0-2.99-1.09-3.39-2.59-.08-.29-.12-.59-.12-.9Zm-82.68-337.51c1.67-.97,3.81-.39,4.78,1.29l.24,.41c.98,1.67,.42,3.81-1.25,4.79-1.67,.98-3.81,.42-4.79-1.25l-.26-.46c-.16-.27-.27-.55-.35-.84-.4-1.5,.23-3.13,1.63-3.94Zm10.87,18.75c1.67-.97,3.81-.39,4.78,1.29l.24,.41c.98,1.67,.42,3.81-1.25,4.79-1.67,.98-3.81,.42-4.79-1.25l-.26-.46c-.16-.27-.27-.55-.35-.84-.4-1.5,.23-3.13,1.63-3.94Zm10.87,18.75c1.67-.97,3.81-.39,4.78,1.29l.24,.41c.98,1.67,.42,3.81-1.25,4.79s-3.81,.42-4.79-1.25l-.26-.46c-.16-.27-.27-.55-.35-.84-.4-1.5,.23-3.13,1.63-3.94Zm82.63,299.97c0-1.93,1.55-3.51,3.48-3.51h.51c1.93,0,3.5,1.56,3.5,3.49,0,1.93-1.56,3.5-3.5,3.51h-.49c-1.62,0-2.99-1.09-3.39-2.59-.08-.29-.12-.59-.12-.9Zm-71.77-281.22c1.67-.97,3.81-.39,4.78,1.29l.24,.41c.98,1.67,.42,3.81-1.25,4.79s-3.81,.42-4.79-1.25l-.26-.46c-.16-.27-.27-.55-.35-.84-.4-1.5,.23-3.13,1.63-3.94Zm10.86,18.75c1.67-.97,3.81-.39,4.78,1.29l.24,.41c.98,1.67,.42,3.81-1.25,4.79-1.67,.98-3.81,.42-4.79-1.25l-.26-.46c-.16-.27-.27-.55-.35-.84-.4-1.5,.23-3.13,1.63-3.94Zm21.73,37.51c1.67-.97,3.81-.39,4.78,1.29l.24,.41c.98,1.67,.42,3.81-1.25,4.79-1.67,.98-3.81,.42-4.79-1.25l-.26-.46c-.16-.27-.27-.55-.35-.84-.4-1.5,.23-3.13,1.63-3.94Zm60.87,224.94c0-1.93,1.55-3.51,3.48-3.51h.51c1.93,0,3.5,1.56,3.5,3.49,0,1.93-1.56,3.5-3.5,3.51h-.49c-1.62,0-2.99-1.09-3.39-2.59-.08-.29-.12-.59-.12-.9Zm-50.01-206.19c1.67-.97,3.81-.39,4.78,1.29l.24,.41c.98,1.67,.42,3.81-1.25,4.79-1.67,.98-3.81,.42-4.79-1.25l-.26-.46c-.16-.27-.27-.55-.35-.84-.4-1.5,.23-3.13,1.63-3.94Zm10.86,18.75c1.67-.96,3.81-.39,4.78,1.29l.24,.42c.97,1.67,.41,3.81-1.26,4.79-1.67,.97-3.81,.41-4.79-1.26l-.26-.45c-.16-.27-.27-.55-.35-.84-.4-1.5,.23-3.13,1.63-3.94Zm10.86,18.75c1.67-.96,3.81-.39,4.78,1.29l.24,.42c.98,1.67,.41,3.81-1.26,4.79-1.67,.98-3.81,.41-4.79-1.26l-.26-.45c-.16-.27-.27-.55-.35-.84-.4-1.5,.23-3.13,1.63-3.94Zm10.86,18.75c1.67-.96,3.81-.39,4.78,1.29l.24,.42c.98,1.67,.41,3.81-1.26,4.79-1.67,.98-3.81,.41-4.79-1.26l-.26-.45c-.16-.27-.27-.55-.35-.84-.4-1.5,.23-3.13,1.63-3.94Zm39.13,149.9c0-1.93,1.56-3.5,3.5-3.51h.51c1.93,0,3.5,1.56,3.5,3.5,0,1.93-1.57,3.5-3.5,3.5h-.5c-1.62,0-2.98-1.09-3.38-2.59-.08-.29-.12-.59-.12-.91Zm-28.27-131.15c1.67-.96,3.81-.39,4.78,1.29l.24,.42c.98,1.67,.41,3.81-1.26,4.79-1.67,.98-3.81,.41-4.79-1.26l-.26-.45c-.16-.27-.27-.55-.35-.84-.4-1.5,.23-3.13,1.63-3.94Zm10.86,18.76c1.67-.96,3.81-.39,4.78,1.29l.24,.41c.98,1.67,.41,3.81-1.25,4.79-1.67,.98-3.81,.42-4.79-1.25l-.26-.46c-.16-.27-.27-.55-.35-.84-.4-1.5,.23-3.13,1.63-3.94Zm10.87,18.76c1.67-.96,3.81-.39,4.78,1.29l.24,.41c.98,1.67,.41,3.81-1.25,4.79-1.67,.98-3.81,.42-4.79-1.25l-.26-.46c-.16-.27-.27-.55-.35-.84-.4-1.5,.23-3.13,1.63-3.94Zm28.27,93.6c0-1.93,1.56-3.5,3.49-3.51h.5c1.93,0,3.5,1.56,3.51,3.49,0,1.93-1.56,3.5-3.49,3.51h-.5c-1.62,0-2.99-1.09-3.39-2.59-.08-.29-.12-.59-.12-.9Zm-17.4-74.84c1.67-.96,3.81-.39,4.78,1.29l.24,.42c.98,1.67,.41,3.81-1.26,4.79-1.67,.98-3.81,.41-4.79-1.26l-.26-.45c-.16-.27-.27-.55-.35-.84-.4-1.5,.23-3.13,1.63-3.94Zm10.87,18.78c1.67-.96,3.81-.39,4.78,1.29l.24,.41c.97,1.67,.41,3.81-1.25,4.79-1.67,.98-3.81,.42-4.79-1.25l-.26-.46c-.16-.27-.27-.55-.35-.84-.4-1.5,.23-3.13,1.63-3.94Zm10.88,18.79c1.67-.96,3.81-.39,4.78,1.29l.24,.41c.98,1.67,.42,3.81-1.25,4.79-1.67,.98-3.81,.42-4.79-1.25l-.26-.46c-.16-.27-.27-.55-.35-.84-.4-1.5,.23-3.13,1.63-3.94Zm10.88,18.82c1.67-.97,3.81-.4,4.78,1.27l.25,.44c.97,1.67,.4,3.81-1.28,4.78-1.67,.97-3.81,.4-4.78-1.28l-.25-.43c-.16-.27-.28-.56-.35-.85-.4-1.49,.22-3.12,1.62-3.94Zm6.61,18.4c0-1.93,1.57-3.5,3.5-3.5h.1c2.7,0,3.54,1.62,3.8,2.59,.5,1.87-.6,3.79-2.47,4.29-.34,.09-.67,.13-1,.12h-.44c-1.62,0-2.98-1.1-3.38-2.59-.08-.29-.12-.6-.12-.92Zm-245.58-430.91c1.67-.97,3.81-.39,4.78,1.28l.24,.42c.97,1.67,.41,3.81-1.26,4.79-1.67,.97-3.81,.41-4.79-1.26l-.26-.45c-.16-.27-.27-.55-.35-.84-.4-1.49,.23-3.13,1.63-3.94Z"/><path d="M763.47,722.72l.25-.44c.96-1.68,3.1-2.25,4.78-1.29,1.68,.96,2.25,3.1,1.29,4.78l-.25,.44c-.96,1.68-3.1,2.25-4.78,1.29-.84-.48-1.4-1.26-1.63-2.12s-.14-1.82,.35-2.66Zm10.78-18.74l.25-.44c.96-1.68,3.1-2.25,4.78-1.29,1.68,.96,2.25,3.1,1.29,4.78l-.25,.44c-.96,1.68-3.1,2.25-4.78,1.29-.84-.48-1.4-1.26-1.63-2.12-.23-.86-.14-1.82,.35-2.66Zm9.08,21.05c0-1.93,1.57-3.5,3.51-3.49h.5c1.93,0,3.5,1.57,3.5,3.5,0,1.93-1.57,3.5-3.5,3.5h-.51c-1.61,0-2.97-1.1-3.37-2.59-.08-.29-.12-.6-.12-.92Zm1.7-39.79l.25-.44c.96-1.68,3.1-2.25,4.78-1.29,1.68,.96,2.25,3.1,1.29,4.78l-.25,.44c-.96,1.68-3.1,2.25-4.78,1.29-.84-.48-1.4-1.26-1.63-2.12s-.14-1.82,.35-2.66Zm20.03,39.79c0-1.93,1.55-3.51,3.48-3.51h.51c1.93,0,3.5,1.56,3.51,3.49,0,1.93-1.56,3.5-3.5,3.51h-.49c-1.62,0-2.99-1.09-3.39-2.59-.08-.29-.12-.59-.12-.9Zm-9.25-58.52l.25-.44c.96-1.68,3.1-2.25,4.78-1.29,1.68,.96,2.25,3.1,1.29,4.78l-.25,.44c-.96,1.68-3.1,2.25-4.78,1.29-.84-.48-1.4-1.26-1.63-2.12s-.14-1.82,.35-2.66Zm10.78-18.73l.25-.44c.96-1.68,3.1-2.25,4.78-1.29,1.68,.96,2.25,3.1,1.29,4.78l-.25,.44c-.96,1.68-3.1,2.25-4.78,1.29-.84-.48-1.4-1.26-1.63-2.12s-.14-1.82,.35-2.66Zm20.18,77.21c0-1.93,1.57-3.5,3.5-3.5h.5c1.93,0,3.5,1.56,3.51,3.49,0,1.93-1.56,3.5-3.5,3.51h-.51c-1.62,0-2.98-1.1-3.38-2.59-.08-.29-.12-.6-.12-.91Zm-9.4-95.95l.25-.44c.96-1.68,3.1-2.25,4.78-1.29,1.68,.96,2.25,3.1,1.29,4.78l-.25,.44c-.96,1.68-3.1,2.25-4.78,1.29-.84-.48-1.4-1.26-1.63-2.12s-.14-1.82,.35-2.66Zm31.1,95.92c0-1.93,1.57-3.5,3.5-3.5h.5c1.93,0,3.5,1.56,3.51,3.49,0,1.93-1.56,3.5-3.5,3.51h-.51c-1.62,0-2.98-1.1-3.38-2.59-.08-.29-.12-.6-.12-.91Zm-20.32-114.65l.25-.44c.96-1.68,3.1-2.25,4.78-1.29,1.68,.96,2.25,3.1,1.29,4.78l-.25,.44c-.96,1.68-3.1,2.25-4.78,1.29-.84-.48-1.4-1.26-1.63-2.12s-.14-1.82,.35-2.66Zm42.01,114.63c0-1.93,1.56-3.5,3.5-3.51h.5c1.93,0,3.5,1.56,3.51,3.49,0,1.93-1.56,3.5-3.5,3.51h-.5c-1.62,0-2.98-1.09-3.38-2.59-.08-.29-.12-.59-.12-.91Zm-31.23-133.36l.25-.44c.96-1.68,3.1-2.25,4.78-1.29,1.68,.96,2.25,3.1,1.29,4.78l-.25,.44c-.96,1.68-3.1,2.25-4.78,1.29-.84-.48-1.4-1.26-1.63-2.12-.23-.86-.14-1.82,.35-2.66Zm10.78-18.73l.25-.44c.96-1.68,3.1-2.25,4.78-1.29,1.68,.96,2.25,3.1,1.29,4.78l-.25,.44c-.96,1.68-3.1,2.25-4.78,1.29-.84-.48-1.4-1.26-1.63-2.12s-.14-1.82,.35-2.66Zm42.13,152.07c0-1.93,1.56-3.5,3.5-3.51h.5c1.93,0,3.5,1.57,3.5,3.49,0,1.93-1.56,3.5-3.5,3.51h-.5c-1.62,0-2.98-1.09-3.38-2.59-.08-.29-.12-.59-.12-.91Zm-31.35-170.8l.25-.44c.96-1.68,3.1-2.25,4.78-1.29,1.68,.96,2.25,3.1,1.29,4.78l-.25,.44c-.96,1.68-3.1,2.25-4.78,1.29-.84-.48-1.4-1.26-1.63-2.12s-.14-1.82,.35-2.66Zm53.02,170.76c0-1.93,1.57-3.5,3.5-3.5h.5c1.93,0,3.5,1.56,3.51,3.49,0,1.93-1.56,3.5-3.5,3.51h-.51c-1.62,0-2.98-1.1-3.38-2.59-.08-.29-.12-.6-.12-.91Zm-42.24-189.5l.25-.44c.96-1.68,3.1-2.25,4.78-1.29,1.68,.96,2.25,3.1,1.29,4.78l-.25,.44c-.96,1.68-3.1,2.25-4.78,1.29-.84-.48-1.4-1.26-1.63-2.12s-.14-1.82,.35-2.66Zm63.91,189.47c0-1.93,1.57-3.5,3.5-3.5h.5c1.93,0,3.5,1.56,3.51,3.49,0,1.93-1.56,3.5-3.5,3.51h-.51c-1.62,0-2.98-1.1-3.38-2.59-.08-.29-.12-.6-.12-.91Zm-53.14-208.2l.25-.44c.96-1.68,3.1-2.25,4.78-1.29,1.68,.96,2.25,3.1,1.29,4.78l-.25,.44c-.96,1.68-3.1,2.25-4.78,1.29-.84-.48-1.4-1.26-1.63-2.12s-.14-1.82,.35-2.66Zm10.78-18.74l.25-.44c.96-1.68,3.1-2.25,4.78-1.29,1.68,.96,2.25,3.1,1.29,4.78l-.25,.44c-.96,1.68-3.1,2.25-4.78,1.29-.84-.48-1.4-1.26-1.63-2.12s-.14-1.82,.35-2.66Zm64.02,226.92c0-1.93,1.56-3.5,3.49-3.51h.51c1.93,0,3.5,1.56,3.51,3.49,0,1.93-1.56,3.5-3.5,3.51h-.5c-1.62,0-2.99-1.09-3.39-2.59-.08-.29-.12-.59-.12-.9Zm-53.24-245.65l.25-.44c.96-1.68,3.1-2.25,4.78-1.29,1.68,.96,2.25,3.1,1.29,4.78l-.25,.44c-.96,1.68-3.1,2.25-4.78,1.29-.84-.48-1.4-1.26-1.63-2.12s-.14-1.82,.35-2.66Zm74.91,245.62c0-1.93,1.56-3.5,3.49-3.51h.51c1.93,0,3.5,1.56,3.51,3.49,0,1.93-1.56,3.5-3.5,3.51h-.5c-1.62,0-2.99-1.09-3.39-2.59-.08-.29-.12-.59-.12-.9Zm-64.13-264.35l.25-.44c.96-1.68,3.1-2.25,4.78-1.29,1.68,.96,2.25,3.1,1.29,4.78l-.25,.44c-.96,1.68-3.1,2.25-4.78,1.29-.84-.48-1.4-1.26-1.63-2.12s-.14-1.82,.35-2.66Zm85.8,264.32c0-1.93,1.56-3.5,3.49-3.51h.51c1.93,0,3.5,1.56,3.51,3.49,0,1.93-1.56,3.5-3.5,3.51h-.5c-1.62,0-2.99-1.09-3.39-2.59-.08-.29-.12-.59-.12-.9Zm-75.02-283.05l.25-.44c.96-1.68,3.1-2.25,4.78-1.29,1.68,.96,2.25,3.1,1.29,4.78l-.25,.44c-.96,1.68-3.1,2.25-4.78,1.29-.84-.48-1.4-1.26-1.63-2.12s-.14-1.82,.35-2.66Zm10.78-18.73l.25-.44c.96-1.68,3.1-2.25,4.78-1.29,1.68,.96,2.25,3.1,1.29,4.78l-.25,.44c-.96,1.68-3.1,2.25-4.78,1.29-.84-.48-1.4-1.26-1.63-2.12s-.14-1.82,.35-2.66Zm85.9,301.76c0-1.93,1.56-3.5,3.49-3.51h.51c1.93,0,3.5,1.56,3.51,3.49,0,1.93-1.56,3.5-3.5,3.51h-.5c-1.62,0-2.99-1.09-3.39-2.59-.08-.29-.12-.59-.12-.9Zm-75.13-320.49l.25-.44c.96-1.68,3.1-2.25,4.78-1.29,1.68,.96,2.25,3.1,1.29,4.78l-.25,.44c-.96,1.68-3.1,2.25-4.78,1.29-.84-.48-1.4-1.26-1.63-2.12s-.14-1.82,.35-2.66Zm96.8,320.45c0-1.93,1.56-3.5,3.5-3.51h.5c1.93,0,3.5,1.56,3.51,3.49,0,1.93-1.56,3.5-3.5,3.51h-.5c-1.62,0-2.98-1.09-3.38-2.59-.08-.29-.12-.59-.12-.91Zm-86.02-339.19l.25-.44c.96-1.68,3.1-2.25,4.78-1.29,1.68,.96,2.25,3.1,1.29,4.78l-.25,.44c-.96,1.68-3.1,2.25-4.78,1.29-.84-.48-1.4-1.26-1.63-2.12s-.14-1.82,.35-2.66Zm10.78-18.73l.25-.44c.96-1.68,3.1-2.26,4.78-1.29,1.68,.96,2.25,3.1,1.29,4.78l-.25,.44c-.96,1.68-3.1,2.26-4.78,1.29-.84-.48-1.4-1.26-1.64-2.13s-.14-1.82,.34-2.65Zm96.91,357.89c0-1.93,1.56-3.5,3.49-3.51h.51c1.93,0,3.5,1.56,3.51,3.49,0,1.93-1.56,3.5-3.5,3.51h-.5c-1.62,0-2.99-1.09-3.39-2.59-.08-.29-.12-.59-.12-.9Zm-86.13-376.63l.25-.44c.96-1.68,3.1-2.25,4.78-1.29,1.68,.96,2.25,3.1,1.29,4.78l-.25,.44c-.96,1.68-3.1,2.25-4.78,1.29-.84-.48-1.4-1.26-1.63-2.12s-.14-1.82,.35-2.66Zm107.8,376.6c0-1.93,1.56-3.5,3.49-3.51h.51c1.93,0,3.5,1.56,3.51,3.49,0,1.93-1.56,3.5-3.5,3.51h-.5c-1.62,0-2.99-1.09-3.39-2.59-.08-.29-.12-.59-.12-.9Zm-97.02-395.33l.25-.44c.96-1.68,3.1-2.25,4.78-1.29,1.68,.96,2.25,3.1,1.29,4.78l-.25,.44c-.96,1.68-3.1,2.25-4.78,1.29-.84-.48-1.4-1.26-1.63-2.12s-.14-1.82,.35-2.66Zm118.69,395.3c0-1.93,1.56-3.5,3.49-3.51h.51c1.93,0,3.5,1.56,3.51,3.49,0,1.93-1.56,3.5-3.5,3.51h-.5c-1.62,0-2.99-1.09-3.39-2.59-.08-.29-.12-.59-.12-.9Zm-107.91-414.03l.25-.44c.96-1.68,3.1-2.25,4.78-1.29,1.68,.96,2.25,3.1,1.29,4.78l-.25,.44c-.96,1.68-3.1,2.25-4.78,1.29-.84-.48-1.4-1.26-1.63-2.12-.23-.86-.14-1.82,.35-2.66Zm10.78-18.74l.25-.44c.96-1.68,3.1-2.25,4.78-1.29,1.68,.96,2.25,3.1,1.29,4.78l-.25,.44c-.96,1.68-3.1,2.25-4.78,1.29-.84-.48-1.4-1.26-1.63-2.12s-.14-1.82,.35-2.66Zm118.8,432.73c0-1.93,1.56-3.5,3.49-3.51h.51c1.93,0,3.5,1.57,3.51,3.49,0,1.93-1.56,3.5-3.5,3.51h-.5c-1.62,0-2.99-1.09-3.39-2.59-.08-.29-.12-.59-.12-.9Zm-106.46-448.55c.85-1.74,2.95-2.45,4.68-1.6,.33,.16,.64,.35,.94,.56,1.57,1.13,1.93,3.32,.8,4.88-1.12,1.56-3.28,1.92-4.85,.82-.92-.46-1.55-1.29-1.8-2.22-.21-.79-.15-1.66,.24-2.45Zm128.14,448.52c0-1.93,1.56-3.5,3.49-3.51h.51c1.93,0,3.5,1.56,3.51,3.49,0,1.93-1.56,3.5-3.5,3.51h-.5c-1.62,0-2.99-1.09-3.39-2.59-.08-.29-.12-.59-.12-.9Zm-104.51-412.62c1.67-.97,3.81-.39,4.78,1.28l.24,.42c.97,1.67,.41,3.81-1.26,4.79-1.67,.97-3.81,.41-4.79-1.26l-.26-.45c-.16-.27-.27-.55-.35-.84-.4-1.49,.23-3.13,1.63-3.94Zm10.89,18.78c1.67-.97,3.81-.39,4.78,1.29l.24,.42c.98,1.67,.41,3.81-1.26,4.79-1.67,.97-3.81,.41-4.79-1.26l-.26-.45c-.16-.27-.27-.55-.35-.84-.4-1.5,.23-3.13,1.63-3.94Zm10.88,18.77c1.67-.97,3.81-.39,4.78,1.29l.24,.42c.97,1.67,.41,3.81-1.26,4.79-1.67,.97-3.81,.41-4.79-1.26l-.26-.45c-.16-.27-.27-.55-.35-.84-.4-1.5,.23-3.13,1.63-3.94Zm10.87,18.76c1.67-.97,3.81-.39,4.78,1.29l.24,.41c.98,1.67,.42,3.81-1.25,4.79-1.67,.98-3.81,.42-4.79-1.25l-.26-.46c-.16-.27-.27-.55-.35-.84-.4-1.5,.23-3.13,1.63-3.94Zm93.55,356.27c0-1.93,1.56-3.5,3.49-3.51h.51c1.93,0,3.5,1.56,3.51,3.49,0,1.93-1.56,3.5-3.5,3.51h-.5c-1.62,0-2.99-1.09-3.39-2.59-.08-.29-.12-.59-.12-.9Zm-82.68-337.51c1.67-.97,3.81-.39,4.78,1.29l.24,.41c.98,1.67,.42,3.81-1.25,4.79-1.67,.98-3.81,.42-4.79-1.25l-.26-.46c-.16-.27-.27-.55-.35-.84-.4-1.5,.23-3.13,1.63-3.94Zm10.87,18.75c1.67-.97,3.81-.39,4.78,1.29l.24,.41c.98,1.67,.42,3.81-1.25,4.79-1.67,.98-3.81,.42-4.79-1.25l-.26-.46c-.16-.27-.27-.55-.35-.84-.4-1.5,.23-3.13,1.63-3.94Zm10.87,18.75c1.67-.97,3.81-.39,4.78,1.29l.24,.41c.98,1.67,.42,3.81-1.25,4.79-1.67,.98-3.81,.42-4.79-1.25l-.26-.46c-.16-.27-.27-.55-.35-.84-.4-1.5,.23-3.13,1.63-3.94Zm82.63,299.97c0-1.93,1.55-3.51,3.48-3.51h.51c1.93,0,3.5,1.56,3.5,3.49,0,1.93-1.56,3.5-3.5,3.51h-.49c-1.62,0-2.99-1.09-3.39-2.59-.08-.29-.12-.59-.12-.9Zm-71.77-281.22c1.67-.97,3.81-.39,4.78,1.29l.24,.41c.98,1.67,.42,3.81-1.25,4.79s-3.81,.42-4.79-1.25l-.26-.46c-.16-.27-.27-.55-.35-.84-.4-1.5,.23-3.13,1.63-3.94Zm10.86,18.75c1.67-.97,3.81-.39,4.78,1.29l.24,.41c.98,1.67,.42,3.81-1.25,4.79s-3.81,.42-4.79-1.25l-.26-.46c-.16-.27-.27-.55-.35-.84-.4-1.5,.23-3.13,1.63-3.94Zm10.86,18.75c1.67-.97,3.81-.39,4.78,1.29l.24,.42c.97,1.67,.41,3.81-1.26,4.79-1.67,.97-3.81,.41-4.79-1.26l-.26-.45c-.16-.27-.27-.55-.35-.84-.4-1.5,.23-3.13,1.63-3.94Zm10.87,18.76c1.67-.97,3.81-.39,4.78,1.29l.24,.41c.98,1.67,.42,3.81-1.25,4.79-1.67,.98-3.81,.42-4.79-1.25l-.26-.46c-.16-.27-.27-.55-.35-.84-.4-1.5,.23-3.13,1.63-3.94Zm60.87,224.94c0-1.93,1.55-3.51,3.48-3.51h.51c1.93,0,3.5,1.56,3.5,3.49,0,1.93-1.56,3.5-3.5,3.51h-.49c-1.62,0-2.99-1.09-3.39-2.59-.08-.29-.12-.59-.12-.9Zm-50.01-206.19c1.67-.97,3.81-.39,4.78,1.29l.24,.41c.98,1.67,.42,3.81-1.25,4.79-1.67,.98-3.81,.42-4.79-1.25l-.26-.46c-.16-.27-.27-.55-.35-.84-.4-1.5,.23-3.13,1.63-3.94Zm10.86,18.75c1.67-.96,3.81-.39,4.78,1.29l.24,.42c.97,1.67,.41,3.81-1.26,4.79-1.67,.97-3.81,.41-4.79-1.26l-.26-.45c-.16-.27-.27-.55-.35-.84-.4-1.5,.23-3.13,1.63-3.94Zm10.86,18.75c1.67-.96,3.81-.39,4.78,1.29l.24,.42c.98,1.67,.41,3.81-1.26,4.79-1.67,.98-3.81,.41-4.79-1.26l-.26-.45c-.16-.27-.27-.55-.35-.84-.4-1.5,.23-3.13,1.63-3.94Zm10.86,18.75c1.67-.96,3.81-.39,4.78,1.29l.24,.42c.98,1.67,.41,3.81-1.26,4.79-1.67,.98-3.81,.41-4.79-1.26l-.26-.45c-.16-.27-.27-.55-.35-.84-.4-1.5,.23-3.13,1.63-3.94Zm39.13,149.9c0-1.93,1.56-3.5,3.5-3.51h.51c1.93,0,3.5,1.56,3.5,3.5,0,1.93-1.57,3.5-3.5,3.5h-.5c-1.62,0-2.98-1.09-3.38-2.59-.08-.29-.12-.59-.12-.91Zm-28.27-131.15c1.67-.96,3.81-.39,4.78,1.29l.24,.42c.98,1.67,.41,3.81-1.26,4.79-1.67,.98-3.81,.41-4.79-1.26l-.26-.45c-.16-.27-.27-.55-.35-.84-.4-1.5,.23-3.13,1.63-3.94Zm10.86,18.76c1.67-.96,3.81-.39,4.78,1.29l.24,.41c.98,1.67,.41,3.81-1.25,4.79-1.67,.98-3.81,.42-4.79-1.25l-.26-.46c-.16-.27-.27-.55-.35-.84-.4-1.5,.23-3.13,1.63-3.94Zm10.87,18.76c1.67-.96,3.81-.39,4.78,1.29l.24,.41c.98,1.67,.41,3.81-1.25,4.79-1.67,.98-3.81,.42-4.79-1.25l-.26-.46c-.16-.27-.27-.55-.35-.84-.4-1.5,.23-3.13,1.63-3.94Zm28.27,93.6c0-1.93,1.56-3.5,3.49-3.51h.5c1.93,0,3.5,1.56,3.51,3.49,0,1.93-1.56,3.5-3.49,3.51h-.5c-1.62,0-2.99-1.09-3.39-2.59-.08-.29-.12-.59-.12-.9Zm-17.4-74.84c1.67-.96,3.81-.39,4.78,1.29l.24,.42c.98,1.67,.41,3.81-1.26,4.79-1.67,.98-3.81,.41-4.79-1.26l-.26-.45c-.16-.27-.27-.55-.35-.84-.4-1.5,.23-3.13,1.63-3.94Zm10.87,18.78c1.67-.96,3.81-.39,4.78,1.29l.24,.41c.97,1.67,.41,3.81-1.25,4.79-1.67,.98-3.81,.42-4.79-1.25l-.26-.46c-.16-.27-.27-.55-.35-.84-.4-1.5,.23-3.13,1.63-3.94Zm10.88,18.79c1.67-.96,3.81-.39,4.78,1.29l.24,.41c.98,1.67,.42,3.81-1.25,4.79-1.67,.98-3.81,.42-4.79-1.25l-.26-.46c-.16-.27-.27-.55-.35-.84-.4-1.5,.23-3.13,1.63-3.94Zm10.88,18.82c1.67-.97,3.81-.4,4.78,1.27l.25,.44c.97,1.67,.4,3.81-1.28,4.78-1.67,.97-3.81,.4-4.78-1.28l-.25-.43c-.16-.27-.28-.56-.35-.85-.4-1.49,.22-3.12,1.62-3.94Zm6.61,18.4c0-1.93,1.57-3.5,3.5-3.5h.1c2.7,0,3.54,1.62,3.8,2.59,.5,1.87-.6,3.79-2.47,4.29-.34,.09-.67,.13-1,.12h-.44c-1.62,0-2.98-1.1-3.38-2.59-.08-.29-.12-.6-.12-.92Zm-245.58-430.91c1.67-.97,3.81-.39,4.78,1.28l.24,.42c.97,1.67,.41,3.81-1.26,4.79-1.67,.97-3.81,.41-4.79-1.26l-.26-.45c-.16-.27-.27-.55-.35-.84-.4-1.49,.23-3.13,1.63-3.94Z"/><rect class="d" x="70.09" y="70.09" width="1250.23" height="1250.23"/></g></g></g></g></svg>